<svg xmlns="http://www.w3.org/2000/svg" xmlns:xlink="http://www.w3.org/1999/xlink" viewBox="0 0 336.27 339.41"><defs><style>.cls-1,.cls-6,.cls-7,.cls-8{fill:none;}.cls-2{clip-path:url(#clip-path);}.cls-3{opacity:0.27;}.cls-4{clip-path:url(#clip-path-3);}.cls-5{fill:#231f20;}.cls-6,.cls-7,.cls-8{stroke:#231f20;stroke-miterlimit:10;}.cls-6{stroke-width:0.75px;}.cls-7{stroke-width:0.5px;}</style><clipPath id="clip-path" transform="translate(-209.85 -119.37)"><rect class="cls-1" width="792" height="612"/></clipPath><clipPath id="clip-path-3" transform="translate(-209.85 -119.37)"><rect class="cls-1" x="283.02" y="189.53" width="199.57" height="167.35"/></clipPath></defs><title>Asset 1</title><g id="Layer_2" data-name="Layer 2"><g id="Layer_1-2" data-name="Layer 1"><g class="cls-2"><g class="cls-2"><g class="cls-3"><g class="cls-4"><path class="cls-5" d="M481.7,230c-.87.59-1.74-.72-2-2a2.78,2.78,0,0,1-.15-1c-5.38-4.07-22.26-15.57-47.86-7,17.89,23.13,15.27,52.08,13.38,62.84-2.76,16-7.42,29.53-14.25,40.45-33,53-72.74,28.8-86.27,20.36-7.71,8.15-20.23,15-35.94,11.2-8.72-2-14.4-6.69-16.43-12.94a13.69,13.69,0,0,1,3.2-14c3.92-4.22,10.18-5.67,17-3.78,10.76,2.91,20.07,10.91,29.38,17.16,10.91-11.2,18.77-27.78,24.44-39.71,1.46-2.91,2.91-6.11,4.51-9.46,11.5-25.16,28.95-62.84,55.87-73.61-7.28-8.58-17.61-16.44-32.15-22.11a77.31,77.31,0,0,0-45.68-2.77c-19.21,4.66-39.43,20.52-45.68,34a58.24,58.24,0,0,0-5.53,30.55,51.84,51.84,0,0,1,26.33-16.15c11.35-2.62,22.11-.44,31,6.54,12.07,9.17,11.78,21.68,7.42,30.41-5.24,10.77-18.92,20.22-36.38,15.71a37.75,37.75,0,0,1-24.72-20.95,50.82,50.82,0,0,1-4.08-14.11,53.79,53.79,0,0,0-7.42,11.2c-8.44,17.32-6.11,30.26-1.45,36.23,2,2.62,4.51,4.07,7.27,4.07,1-1.6,2.77-2.76,3.49-1.45s-1.74,1.89-2.47,2c-2.76.58-6.4-1.16-8.87-4.36-4.66-6-7.13-19.2,1.45-36.66A60.08,60.08,0,0,1,297,258.83a58.75,58.75,0,0,1,5.52-31.42c6.55-14.26,40.45-50.63,92.38-32.59,15.86,5.53,27.06,13.53,34.77,22.69,25.32-8.58,44.52,4.8,50.34,9,1.6.88,3.05,2.77,1.74,3.49M341.32,341.75c-9-6-18-14-29.1-17-5.24-1.6-12.07-1.16-16.44,3.49a13.57,13.57,0,0,0-3,13.53c1.89,6,8.73,9.6,17.89,11.49,11.78,2.33,22.4-3.05,30.7-11.49M297.67,259a45.09,45.09,0,0,0,4.08,14.55A37.32,37.32,0,0,0,326,294.18c17.17,4.36,30.55-4.8,35.79-15.42,4.07-8.44,4.36-20.66-7.28-29.68a35.27,35.27,0,0,0-30.55-6.4A51.52,51.52,0,0,0,297.67,259M428.6,221c-26.47,10.62-41,42.63-54.7,72.6-1.6,3.49-3,6.69-4.36,9.45-5.82,12.08-13.68,28.66-24.59,40.16,13.39,8.29,31.72,14.4,47.87,8.14,14.25-5.53,25.45-15.13,33.89-28.07,7-10.92,12.08-24.59,14.84-41C443.3,271.78,445.92,244,428.6,221" transform="translate(-209.85 -119.37)"/><path class="cls-6" d="M481.7,230c-.87.59-1.74-.72-2-2a2.78,2.78,0,0,1-.15-1c-5.38-4.07-22.26-15.57-47.86-7,17.89,23.13,15.27,52.08,13.38,62.84-2.76,16-7.42,29.53-14.25,40.45-33,53-72.74,28.8-86.27,20.36-7.71,8.15-20.23,15-35.94,11.2-8.72-2-14.4-6.69-16.43-12.94a13.69,13.69,0,0,1,3.2-14c3.92-4.22,10.18-5.67,17-3.78,10.76,2.91,20.07,10.91,29.38,17.16,10.91-11.2,18.77-27.78,24.44-39.71,1.46-2.91,2.91-6.11,4.51-9.46,11.5-25.16,28.95-62.84,55.87-73.61-7.28-8.58-17.61-16.44-32.15-22.11a77.31,77.31,0,0,0-45.68-2.77c-19.21,4.66-39.43,20.52-45.68,34a58.24,58.24,0,0,0-5.53,30.55,51.84,51.84,0,0,1,26.33-16.15c11.35-2.62,22.11-.44,31,6.54,12.07,9.17,11.78,21.68,7.42,30.41-5.24,10.77-18.92,20.22-36.38,15.71a37.75,37.75,0,0,1-24.72-20.95,50.82,50.82,0,0,1-4.08-14.11,53.79,53.79,0,0,0-7.42,11.2c-8.44,17.32-6.11,30.26-1.45,36.23,2,2.62,4.51,4.07,7.27,4.07,1-1.6,2.77-2.76,3.49-1.45s-1.74,1.89-2.47,2c-2.76.58-6.4-1.16-8.87-4.36-4.66-6-7.13-19.2,1.45-36.66A60.08,60.08,0,0,1,297,258.83a58.75,58.75,0,0,1,5.52-31.42c6.55-14.26,40.45-50.63,92.38-32.59,15.86,5.53,27.06,13.53,34.77,22.69,25.32-8.58,44.52,4.8,50.34,9C481.56,227.41,483,229.3,481.7,230ZM341.32,341.75c-9-6-18-14-29.1-17-5.24-1.6-12.07-1.16-16.44,3.49a13.57,13.57,0,0,0-3,13.53c1.89,6,8.73,9.6,17.89,11.49C322.4,355.57,333,350.19,341.32,341.75ZM297.67,259a45.09,45.09,0,0,0,4.08,14.55A37.32,37.32,0,0,0,326,294.18c17.17,4.36,30.55-4.8,35.79-15.42,4.07-8.44,4.36-20.66-7.28-29.68a35.27,35.27,0,0,0-30.55-6.4A51.52,51.52,0,0,0,297.67,259ZM428.6,221c-26.47,10.62-41,42.63-54.7,72.6-1.6,3.49-3,6.69-4.36,9.45-5.82,12.08-13.68,28.66-24.59,40.16,13.39,8.29,31.72,14.4,47.87,8.14,14.25-5.53,25.45-15.13,33.89-28.07,7-10.92,12.08-24.59,14.84-41C443.3,271.78,445.92,244,428.6,221Z" transform="translate(-209.85 -119.37)"/></g></g><path class="cls-5" d="M492.79,230c-.88.59-1.75-.72-2-2a2.78,2.78,0,0,1-.15-1c-5.38-4.07-22.25-15.57-47.86-7,17.9,23.13,15.28,52.08,13.39,62.84-2.77,16-7.42,29.53-14.26,40.45-33,53-72.74,28.8-86.27,20.36-7.71,8.15-20.22,15-35.93,11.2-8.73-2-14.4-6.69-16.44-12.94a13.69,13.69,0,0,1,3.2-14c3.93-4.22,10.18-5.67,17-3.78,10.77,2.91,20.08,10.91,29.39,17.16,10.91-11.2,18.76-27.78,24.44-39.71,1.45-2.91,2.91-6.11,4.51-9.46,11.49-25.16,28.95-62.84,55.86-73.61-7.27-8.58-17.6-16.44-32.15-22.11a77.3,77.3,0,0,0-45.68-2.77c-19.2,4.66-39.42,20.52-45.68,34a58.34,58.34,0,0,0-5.53,30.55,51.84,51.84,0,0,1,26.33-16.15c11.35-2.62,22.12-.44,31,6.54,12.08,9.17,11.78,21.68,7.42,30.41-5.24,10.77-18.91,20.22-36.37,15.71a37.79,37.79,0,0,1-24.73-20.95,50.47,50.47,0,0,1-4.07-14.11,53.39,53.39,0,0,0-7.42,11.2c-8.44,17.32-6.11,30.26-1.46,36.23,2,2.62,4.51,4.07,7.28,4.07,1-1.6,2.76-2.76,3.49-1.45.58,1.31-1.75,1.89-2.48,2-2.76.58-6.4-1.16-8.87-4.36-4.66-6-7.13-19.2,1.46-36.66A60.47,60.47,0,0,1,308,258.83a58.85,58.85,0,0,1,5.53-31.42c6.55-14.26,40.44-50.63,92.38-32.59,15.85,5.53,27.06,13.53,34.77,22.69,25.31-8.58,44.51,4.8,50.33,9,1.6.88,3.06,2.77,1.75,3.49M352.4,341.75c-9-6-18-14-29.09-17-5.24-1.6-12.08-1.16-16.44,3.49a13.59,13.59,0,0,0-3.06,13.53c1.89,6,8.73,9.6,17.9,11.49,11.78,2.33,22.4-3.05,30.69-11.49M308.76,259a45.08,45.08,0,0,0,4.07,14.55,37.34,37.34,0,0,0,24.3,20.66c17.16,4.36,30.55-4.8,35.78-15.42,4.08-8.44,4.37-20.66-7.27-29.68a35.27,35.27,0,0,0-30.55-6.4A51.48,51.48,0,0,0,308.76,259m130.93-38c-26.48,10.62-41,42.63-54.7,72.6-1.6,3.49-3.06,6.69-4.37,9.45C374.81,315.13,367,331.71,356,343.21c13.38,8.29,31.71,14.4,47.86,8.14,14.26-5.53,25.46-15.13,33.9-28.07,7-10.92,12.07-24.59,14.84-41C454.38,271.78,457,244,439.69,221" transform="translate(-209.85 -119.37)"/><path class="cls-7" d="M492.79,230c-.88.59-1.75-.72-2-2a2.78,2.78,0,0,1-.15-1c-5.38-4.07-22.25-15.57-47.86-7,17.9,23.13,15.28,52.08,13.39,62.84-2.77,16-7.42,29.53-14.26,40.45-33,53-72.74,28.8-86.27,20.36-7.71,8.15-20.22,15-35.93,11.2-8.73-2-14.4-6.69-16.44-12.94a13.69,13.69,0,0,1,3.2-14c3.93-4.22,10.18-5.67,17-3.78,10.77,2.91,20.08,10.91,29.39,17.16,10.91-11.2,18.76-27.78,24.44-39.71,1.45-2.91,2.91-6.11,4.51-9.46,11.49-25.16,28.95-62.84,55.86-73.61-7.27-8.58-17.6-16.44-32.15-22.11a77.3,77.3,0,0,0-45.68-2.77c-19.2,4.66-39.42,20.52-45.68,34a58.34,58.34,0,0,0-5.53,30.55,51.84,51.84,0,0,1,26.33-16.15c11.35-2.62,22.12-.44,31,6.54,12.08,9.17,11.78,21.68,7.42,30.41-5.24,10.77-18.91,20.22-36.37,15.71a37.79,37.79,0,0,1-24.73-20.95,50.47,50.47,0,0,1-4.07-14.11,53.39,53.39,0,0,0-7.42,11.2c-8.44,17.32-6.11,30.26-1.46,36.23,2,2.62,4.51,4.07,7.28,4.07,1-1.6,2.76-2.76,3.49-1.45.58,1.31-1.75,1.89-2.48,2-2.76.58-6.4-1.16-8.87-4.36-4.66-6-7.13-19.2,1.46-36.66A60.47,60.47,0,0,1,308,258.83a58.85,58.85,0,0,1,5.53-31.42c6.55-14.26,40.44-50.63,92.38-32.59,15.85,5.53,27.06,13.53,34.77,22.69,25.31-8.58,44.51,4.8,50.33,9C492.64,227.41,494.1,229.3,492.79,230ZM352.4,341.75c-9-6-18-14-29.09-17-5.24-1.6-12.08-1.16-16.44,3.49a13.59,13.59,0,0,0-3.06,13.53c1.89,6,8.73,9.6,17.9,11.49C333.49,355.57,344.11,350.19,352.4,341.75ZM308.76,259a45.08,45.08,0,0,0,4.07,14.55,37.34,37.34,0,0,0,24.3,20.66c17.16,4.36,30.55-4.8,35.78-15.42,4.08-8.44,4.37-20.66-7.27-29.68a35.27,35.27,0,0,0-30.55-6.4A51.48,51.48,0,0,0,308.76,259Zm130.93-38c-26.48,10.62-41,42.63-54.7,72.6-1.6,3.49-3.06,6.69-4.37,9.45C374.81,315.13,367,331.71,356,343.21c13.38,8.29,31.71,14.4,47.86,8.14,14.26-5.53,25.46-15.13,33.9-28.07,7-10.92,12.07-24.59,14.84-41C454.38,271.78,457,244,439.69,221Z" transform="translate(-209.85 -119.37)"/><path class="cls-8" d="M318.87,444.42A167.65,167.65,0,1,1,517,381.24" transform="translate(-209.85 -119.37)"/><path class="cls-5" d="M285.38,157.21c.78,1.13.2,2.38-1.34,3.49l-.93.67c.78,1.09,1.18,1.63,2,2.71l.88-.64,0,0c-1.08.78-1.62,1.17-2.68,2l0,0,.88-.65-4.43-6-.92.69,0-.05c1.06-.79,1.59-1.18,2.66-1.95,1.74-1.25,3.17-1.38,3.95-.25m-1,.71c-.58-.83-1.38-1.5-2.88-.42l-.78.56,2.38,3.27.91-.65c1.32-1,1-1.93.37-2.76" transform="translate(-209.85 -119.37)"/><path class="cls-5" d="M298.16,155.49l0,0c-1.13.66-1.69,1-2.8,1.68l0,0,.91-.56c-.88-.65-1.32-1-2.21-1.62-1,.63-1.54,1-2.56,1.61.19,1.08.3,1.62.51,2.69l.73-.48,0,.05-1.42.92,0,0,.63-.41c-.62-3.21-.91-4.83-1.42-8.08l.07,0c2.7,1.88,4,2.85,6.64,4.82l.92-.55M294,155c-1.26-.92-1.9-1.37-3.19-2.26.26,1.54.39,2.31.67,3.84,1-.64,1.51-1,2.52-1.58m-5.15-3.49c.21-.78.32-1.16.55-1.94l.13-.08,2,.35,0,.05-1.69.18c-.36.58-.55.87-.91,1.44h0" transform="translate(-209.85 -119.37)"/><path class="cls-5" d="M303.92,143.83l.9,1.8-.06,0a2.16,2.16,0,0,0-3-.65l-.58.3,3.46,6.59.95-.49,0,0c-1.15.6-1.73.9-2.87,1.53l0,0,.94-.51c-1.4-2.63-2.1-3.94-3.51-6.56l-.57.3A2.17,2.17,0,0,0,298.4,149l-.06,0-1-1.75c2.59-1.46,3.9-2.15,6.55-3.48" transform="translate(-209.85 -119.37)"/><path class="cls-5" d="M309.42,141.26l3.09,6.77.95-.43,0,.05c-1.18.52-1.76.79-2.93,1.35l0-.05,1-.45-3.13-6.75c-.41.18-.61.28-1,.47l0-.05c1.22-.58,1.84-.86,3.07-1.41,0,0,0,0,0,0l-1,.46" transform="translate(-209.85 -119.37)"/><path class="cls-5" d="M321.55,142.1c.45,1.19-.27,2.41-2,3.08a22.21,22.21,0,0,1-2.28.44.55.55,0,0,0-.33.56l-.06,0c-.37-.89-.55-1.34-.93-2.22l.06,0a2.9,2.9,0,0,0,3.52,1.17c1.17-.46,1.73-1.27,1.35-2.26s-1.57-.88-3.1-.87c-1.7,0-2.57-.17-3-1.18s.33-2.23,1.71-2.78c1-.4,1.49-.12,1.93-.29a.44.44,0,0,0,.35-.44l.06,0c.27.71.4,1.07.68,1.78h-.05a2.36,2.36,0,0,0-2.95-1c-1.16.46-1.46,1.28-1.2,1.9s.73.91,2.52.83c2.6-.1,3.33.33,3.68,1.28" transform="translate(-209.85 -119.37)"/><path class="cls-5" d="M330.67,139c.38,1.22-.41,2.38-2.14,2.95a23.08,23.08,0,0,1-2.29.3.55.55,0,0,0-.36.54l-.06,0-.79-2.27.05,0a2.92,2.92,0,0,0,3.43,1.38c1.19-.39,1.79-1.17,1.47-2.17s-1.51-1-3-1.06c-1.69-.1-2.54-.33-2.9-1.36s.46-2.21,1.86-2.67c1-.34,1.49,0,1.94-.17a.45.45,0,0,0,.37-.42l0,0c.23.72.35,1.08.58,1.81h-.05a2.35,2.35,0,0,0-2.88-1.16c-1.18.39-1.52,1.18-1.3,1.82s.67,1,2.46,1c2.59.05,3.28.53,3.58,1.5" transform="translate(-209.85 -119.37)"/><path class="cls-5" d="M340.29,136l.55,2.25c-2.44.6-3.66.92-6.08,1.61l0-.06,1-.28-2-7.17-1,.3,0-.06c2.37-.67,3.55-1,5.94-1.57l.45,1.85H339a1.87,1.87,0,0,0-2.5-1.27l-1.65.44c.36,1.34.54,2,.91,3.36l.68-.18a1.46,1.46,0,0,0,1.25-1.92h.06c.3,1.21.46,1.81.77,3h-.06a1.44,1.44,0,0,0-2-1.06l-.68.18c.41,1.51.61,2.27,1,3.77l2-.53a2.09,2.09,0,0,0,1.43-2.69h.05" transform="translate(-209.85 -119.37)"/><path class="cls-5" d="M352.19,135.69a1.19,1.19,0,0,1-.91.6c-1.13.2-1.75-.06-2.1-2-.28-1.53-1.13-1.54-2.37-1.3l-1,.2c.31,1.49.46,2.24.76,3.73l1-.21v.06c-1.24.24-1.86.37-3.1.64a.09.09,0,0,1,0,0l1-.22c-.62-2.92-.92-4.37-1.54-7.29l-1.06.23v-.05c1.3-.28,1.95-.42,3.25-.67,1.71-.34,3,0,3.25,1.34.19,1.09-.64,1.78-1.9,2.12,1.61-.2,2.68.2,3,1.74.2,1.15.4,1.64,1,1.53a1,1,0,0,0,.64-.48l0,0m-5.14-2.76c1.23-.24,1.36-1.11,1.2-2s-.61-1.79-2.05-1.51l-1.08.21c.29,1.41.43,2.11.71,3.51l1.22-.24" transform="translate(-209.85 -119.37)"/><path class="cls-5" d="M356.54,127.76c.39,3,.58,4.43,1,7.38l1-.13v.06c-1.26.15-1.89.24-3.14.42v-.06l1-.14c-.4-2.95-.61-4.43-1-7.38l-1.08.16V128c1.31-.19,2-.28,3.29-.44v.06l-1.07.13" transform="translate(-209.85 -119.37)"/><path class="cls-5" d="M368.14,131.85c.06.92.09,1.39.14,2.31-2.49.16-3.74.26-6.23.51v0l1-.1-.7-7.41-1.07.1v0c2.43-.25,3.64-.35,6.08-.51.05.76.07,1.14.12,1.9h-.06a1.86,1.86,0,0,0-2.23-1.69l-1.69.14c.12,1.39.18,2.08.31,3.47l.69-.06c1.21-.1,1.57-.7,1.56-1.67h.06c.09,1.25.13,1.87.23,3.12h-.06a1.42,1.42,0,0,0-1.78-1.39l-.7.06c.14,1.55.21,2.33.34,3.89.83-.08,1.24-.11,2.06-.17,1.32-.1,1.87-1.17,1.86-2.4h.06" transform="translate(-209.85 -119.37)"/><path class="cls-5" d="M388.7,134.17a.15.15,0,0,0,0,.06c-1.26-.09-1.89-.12-3.15-.18V134l1,0c-.34-1-.52-1.55-.87-2.58-1.17-.05-1.75-.08-2.92-.11-.43,1-.64,1.5-1.06,2.51l.85,0v.05l-1.63,0v0h.72c1.25-3,1.9-4.49,3.27-7.47H385c1.12,3.08,1.65,4.62,2.65,7.72l1,.06m-3-2.76c-.51-1.47-.77-2.2-1.31-3.67-.64,1.42-.95,2.13-1.57,3.55,1.15,0,1.73.06,2.88.12" transform="translate(-209.85 -119.37)"/><path class="cls-5" d="M399.7,135.07a1.19,1.19,0,0,1-1.05.3c-1.14-.15-1.65-.57-1.42-2.49.19-1.54-.61-1.81-1.87-1.94l-1-.11c-.15,1.52-.23,2.28-.38,3.79l1,.11v.06c-1.25-.14-1.88-.2-3.14-.31v-.06l1,.1.7-7.41-1.08-.1V127c1.32.12,2,.19,3.3.33,1.72.18,2.87.89,2.69,2.25-.14,1.09-1.13,1.5-2.43,1.46,1.59.28,2.49,1,2.29,2.53-.15,1.16-.11,1.68.53,1.77a1,1,0,0,0,.75-.27l0,0m-4.08-4.16c1.25.14,1.62-.66,1.73-1.53s-.05-1.89-1.5-2l-1.1-.11c-.14,1.42-.22,2.14-.36,3.56l1.23.13" transform="translate(-209.85 -119.37)"/><path class="cls-5" d="M411.14,129.66c-.16.79-.24,1.18-.41,2h-.05a2.14,2.14,0,0,0-1.92-2.37l-.62-.11c-.55,2.92-.82,4.39-1.36,7.31l1,.2v0c-1.25-.24-1.87-.35-3.13-.57a.09.09,0,0,0,0,0l1,.18c.52-2.93.78-4.4,1.31-7.33l-.63-.11a2.13,2.13,0,0,0-2.62,1.54h-.06c.13-.79.19-1.19.32-2,2.85.46,4.28.71,7.12,1.29" transform="translate(-209.85 -119.37)"/><path class="cls-5" d="M417,131c-.7,2.89-1.05,4.34-1.76,7.23l1,.25,0,.05c-1.23-.31-1.85-.45-3.08-.74v-.05l1,.24c.68-2.9,1-4.35,1.71-7.25l-1.07-.25,0-.05c1.29.3,1.94.45,3.23.77v.06L417,131" transform="translate(-209.85 -119.37)"/><path class="cls-5" d="M425.87,139.15c-.38,1.21-1.7,1.72-3.44,1.21-.92-.27-1.53-.92-2-1.06a.56.56,0,0,0-.61.24l0,0,.63-2.32.06,0a2.91,2.91,0,0,0,2,3.09c1.21.35,2.14.05,2.45-1s-.69-1.65-1.88-2.59-1.89-1.71-1.6-2.76,1.62-1.56,3-1.15c1,.3,1.23.83,1.68,1a.44.44,0,0,0,.55-.14l.05,0c-.22.73-.33,1.09-.56,1.81h0a2.34,2.34,0,0,0-1.7-2.59c-1.19-.35-1.92.11-2.1.75s0,1.17,1.45,2.22c2.09,1.51,2.39,2.3,2.09,3.27" transform="translate(-209.85 -119.37)"/><path class="cls-5" d="M435.79,144.77l0,0c-1.19-.47-1.79-.7-3-1.14l0-.05,1,.36c0-1.09,0-1.64-.06-2.73-1.11-.41-1.67-.61-2.78-1-.72.82-1.07,1.24-1.78,2.07l.81.28,0,0-1.56-.54,0-.05.69.23c2.11-2.48,3.19-3.7,5.41-6.12l.08,0c.15,3.28.19,4.92.23,8.18l1,.38m-2.08-3.57c0-1.55-.08-2.33-.16-3.89-1.05,1.15-1.56,1.73-2.58,2.9l2.74,1" transform="translate(-209.85 -119.37)"/><path class="cls-5" d="M449.1,142.38l0,.05-1-.47-3.21,6.86-.11,0c-.76-3.55-1.19-5.32-2.15-8.87-1.12,2.61-1.67,3.91-2.78,6.52l1,.41s0,0,0,0l-2-.84,0,0,1,.41,2.8-6.59c0-.14-.05-.21-.09-.35l-.8-.34,0-.05,2,.84c.82,2.94,1.19,4.42,1.86,7.36l2.5-5.34-1-.45,0,0c.82.37,1.22.57,2,.95" transform="translate(-209.85 -119.37)"/><path class="cls-5" d="M455.85,154.36l0,0c-1.14-.65-1.7-1-2.85-1.58l0-.05.92.51c.14-1.09.2-1.63.31-2.72-1.05-.57-1.58-.85-2.65-1.41l-2.06,1.8.77.39,0,.05-1.49-.76,0,0,.66.34c2.45-2.16,3.7-3.21,6.25-5.29l.08,0c-.3,3.28-.47,4.91-.88,8.15l.93.53m-1.6-3.85c.16-1.55.23-2.33.37-3.89-1.2,1-1.8,1.5-3,2.51,1.05.54,1.57.82,2.61,1.38" transform="translate(-209.85 -119.37)"/><path class="cls-5" d="M465.46,157.57l-1.27,1.94c-2.18-1.43-3.29-2.12-5.51-3.44l0,0,.92.55,3.85-6.37-1-.57,0,0c1.18.7,1.77,1.06,2.93,1.79l0,0-.95-.59-3.89,6.35,1.8,1.12a2.14,2.14,0,0,0,3-.76l0,0" transform="translate(-209.85 -119.37)"/><path class="cls-5" d="M474.06,163.6l-1.39,1.85c-2.1-1.58-3.17-2.34-5.32-3.82l0,0,.88.62,4.26-6.11-.92-.64,0,0c2.1,1.44,3.14,2.18,5.19,3.72l-1.13,1.52-.05,0a1.92,1.92,0,0,0-.69-2.79l-1.45-1c-.8,1.14-1.2,1.71-2,2.84l.6.43a1.49,1.49,0,0,0,2.33-.21l.05,0-1.85,2.53-.05,0a1.46,1.46,0,0,0-.51-2.26l-.6-.43-2.26,3.19,1.76,1.26a2.13,2.13,0,0,0,3.05-.56l.05,0" transform="translate(-209.85 -119.37)"/><path class="cls-5" d="M373.93,435.45a17.79,17.79,0,0,0-3.79.47,15.91,15.91,0,0,0-3.51,1.25,8.13,8.13,0,0,1,1.22,1.89,10.31,10.31,0,0,1,.69,2.05,9.84,9.84,0,0,1,.23,2.09,10.93,10.93,0,0,1-.15,2,9.22,9.22,0,0,1-2.59,5,14.05,14.05,0,0,1-5.35,3.34,21.22,21.22,0,0,1-7.12,1.2,23.32,23.32,0,0,1-7.63-1.23c-.94-.31-1.76-.62-2.47-.91s-1.35-.57-1.91-.83-1.08-.54-1.55-.8l-1.4-.82c-.43-.13-.85-.25-1.24-.35l-1.17-.33c-.38-.12-.81-.27-1.28-.45s-1-.4-1.59-.67a7.73,7.73,0,0,1-1.57-.88c-.34-.27-.46-.52-.35-.75s.34-.32.69-.27a5.26,5.26,0,0,1,1.27.43c.35.16.68.33,1,.51l1.08.63,1.35.81c.5.29,1.12.64,1.86,1a10.77,10.77,0,0,0,4.76,0,19.35,19.35,0,0,0,4.55-1.66,33,33,0,0,0,4.42-2.7c1.45-1,2.91-2.09,4.36-3.16s2.92-2.08,4.4-3.05a27.47,27.47,0,0,1,4.57-2.41,11.63,11.63,0,0,0-3.24-2.37,18.51,18.51,0,0,0-3.46-1.39,26.53,26.53,0,0,0-6.21-1,24.23,24.23,0,0,0-6,.48,16.13,16.13,0,0,0-5.15,2,8.35,8.35,0,0,0-3.37,3.75,7.07,7.07,0,0,0-.55,1.9,3.91,3.91,0,0,0,.22,1.88,4.45,4.45,0,0,0,1.21,1.73,7.68,7.68,0,0,0,2.4,1.42,9.31,9.31,0,0,0,3.77.68,8.06,8.06,0,0,0,3.34-.82,8.15,8.15,0,0,0,2.6-2,8.25,8.25,0,0,0,1.6-2.94l.33-1.05.48.15c-.11.36-.16.54-.28.9a8.82,8.82,0,0,1-1.8,3.32,8,8,0,0,1-2.92,2.14,9.28,9.28,0,0,1-3.76.74,11.1,11.1,0,0,1-4.19-.86,8.45,8.45,0,0,1-2.66-1.61,6.06,6.06,0,0,1-1.49-2,5,5,0,0,1-.42-2.18,5.75,5.75,0,0,1,.52-2.15,7.55,7.55,0,0,1,3.15-3.15,19.37,19.37,0,0,1,5.36-2.05,28.86,28.86,0,0,1,6.62-.7,26.46,26.46,0,0,1,7.22,1,17.74,17.74,0,0,1,4,1.62,15.61,15.61,0,0,1,3.21,2.35,31.6,31.6,0,0,1,3.74-1.12,16.66,16.66,0,0,1,3.95-.41,2.34,2.34,0,0,0,0,.26m-28.65,17.48a21.4,21.4,0,0,0,6,1.19,18.2,18.2,0,0,0,5.17-.48,13.51,13.51,0,0,0,4.19-1.77,15.38,15.38,0,0,0,3.16-2.68,14,14,0,0,0,2.15-3.2,13.51,13.51,0,0,0,1.13-3.39,8.1,8.1,0,0,0,0-2.65,5,5,0,0,0-1-2.42,28.16,28.16,0,0,0-3.69,2.64q-1.8,1.51-3.7,3.09t-4,3.06a27.21,27.21,0,0,1-4.39,2.53,20.57,20.57,0,0,1-5.06,1.55,17.6,17.6,0,0,1-5.92,0l0,.06a26.87,26.87,0,0,0,2.7,1.31c.93.39,2,.8,3.19,1.21" transform="translate(-209.85 -119.37)"/><path class="cls-5" d="M377.57,448.44c-1.7,1.56-3.2,2.83-4.45,3.85L370,454.8c-.81.67-1.41,1.19-1.8,1.59a2.24,2.24,0,0,0-.65,1c-.09.56.19.89.83,1a5.69,5.69,0,0,0,2.19-.15,17.31,17.31,0,0,0,2.68-.87,23.25,23.25,0,0,0,2.78-1.39c.93-.54,1.79-1.08,2.59-1.63a21.81,21.81,0,0,0,2.09-1.64,10,10,0,0,0,1.32-1.33l.33.18a16.07,16.07,0,0,1-1.49,1.47,24.17,24.17,0,0,1-2.17,1.71c-.82.57-1.69,1.13-2.62,1.67a20.62,20.62,0,0,1-2.84,1.38,16.55,16.55,0,0,1-2.82.84,7,7,0,0,1-2.47.09,2.86,2.86,0,0,1-1.75-.78,1.37,1.37,0,0,1-.41-1.16,3,3,0,0,1,.68-1.34,14.48,14.48,0,0,1,1.66-1.61c.74-.62,1.68-1.37,2.79-2.27s2.44-2,3.94-3.39c1.07.13,1.61.18,2.69.28m2.88-5.79a1.37,1.37,0,0,1,.9.37,1,1,0,0,1,.32.78.93.93,0,0,1-.42.73,1.45,1.45,0,0,1-1,.25,1.43,1.43,0,0,1-.91-.38,1,1,0,0,1-.3-.79,1,1,0,0,1,.43-.73,1.38,1.38,0,0,1,.94-.23" transform="translate(-209.85 -119.37)"/><path class="cls-5" d="M401.32,453.51l-.43.95c-4,.37-6,.47-10.06.53l.47-.91c4-.07,6-.19,10-.57" transform="translate(-209.85 -119.37)"/><path class="cls-5" d="M444.24,422a16.42,16.42,0,0,0-2.65,2.62,15.37,15.37,0,0,0-1.95,3.08,8.19,8.19,0,0,1,2.07.78,10.06,10.06,0,0,1,1.76,1.23,10.41,10.41,0,0,1,1.45,1.52,12.17,12.17,0,0,1,1.09,1.7,9.41,9.41,0,0,1,1,5.56,13.91,13.91,0,0,1-2.1,5.83,20.24,20.24,0,0,1-4.7,5.19,21.77,21.77,0,0,1-6.46,3.57c-.89.31-1.68.55-2.38.75s-1.34.35-1.91.47-1.12.22-1.62.29l-1.52.19c-.39.16-.76.31-1.11.47l-1.05.43q-.54.21-1.2.42c-.45.13-1,.28-1.55.42a7.55,7.55,0,0,1-1.67.25q-.6,0-.69-.39a.58.58,0,0,1,.34-.63,4.86,4.86,0,0,1,1.17-.42c.35-.09.69-.15,1-.21s.73-.1,1.16-.14l1.47-.17c.54-.07,1.19-.16,2-.3a9.92,9.92,0,0,0,3.5-2.85,19,19,0,0,0,2.4-4,34.44,34.44,0,0,0,1.7-4.78q.71-2.55,1.4-5.11t1.51-5.05a27,27,0,0,1,2-4.64,11.55,11.55,0,0,0-3.89,0,18.15,18.15,0,0,0-3.46.95,23.84,23.84,0,0,0-5.24,2.93,21.79,21.79,0,0,0-4.18,4,15.27,15.27,0,0,0-2.6,4.68,8.71,8.71,0,0,0-.24,5,7.25,7.25,0,0,0,.71,1.84,4,4,0,0,0,1.27,1.36,4.13,4.13,0,0,0,1.9.65,6.85,6.85,0,0,0,2.61-.31,8.45,8.45,0,0,0,3.19-1.71,7.81,7.81,0,0,0,2-2.65,8.12,8.12,0,0,0,.72-3.17,8.94,8.94,0,0,0-.55-3.3l-.38-1,.45-.17c.13.36.2.53.33.88a9.65,9.65,0,0,1,.63,3.72,8.38,8.38,0,0,1-.91,3.45,8.93,8.93,0,0,1-2.36,2.83,10.2,10.2,0,0,1-3.6,1.83,7.79,7.79,0,0,1-2.91.31,5.66,5.66,0,0,1-2.27-.7,5.07,5.07,0,0,1-1.58-1.48,5.89,5.89,0,0,1-.88-2,7.84,7.84,0,0,1,.43-4.4,18,18,0,0,1,2.71-4.84,25.52,25.52,0,0,1,4.48-4.53,23.71,23.71,0,0,1,6-3.48,16.66,16.66,0,0,1,4-1.07,14.77,14.77,0,0,1,3.87,0,26.88,26.88,0,0,1,2.2-3.11,15.88,15.88,0,0,1,2.81-2.68l.19.19m-11.31,31a19.7,19.7,0,0,0,5.19-2.61,17.37,17.37,0,0,0,3.62-3.46,13.48,13.48,0,0,0,2.13-3.9,15.28,15.28,0,0,0,.81-4,13.86,13.86,0,0,0-.28-3.83,13.62,13.62,0,0,0-1.17-3.38,8.29,8.29,0,0,0-1.55-2.13,5.15,5.15,0,0,0-2.22-1.35,27.94,27.94,0,0,0-1.24,4.3c-.31,1.51-.63,3.07-1,4.66s-.72,3.19-1.17,4.78a25.87,25.87,0,0,1-1.79,4.64,20,20,0,0,1-2.85,4.24,16.12,16.12,0,0,1-4.41,3.5l0,.06a22,22,0,0,0,2.77-.57c.92-.24,2-.55,3.09-.94" transform="translate(-209.85 -119.37)"/><path class="cls-5" d="M464.49,427a18.06,18.06,0,0,1-.26,2.38,19.11,19.11,0,0,1-.71,2.85,25.06,25.06,0,0,1-1.2,3,21.76,21.76,0,0,1-1.68,3,16.84,16.84,0,0,1-2.14,2.59,11.74,11.74,0,0,1-2.52,1.93,5.09,5.09,0,0,1-2.91.8,2.22,2.22,0,0,1-1.84-1.27,5.24,5.24,0,0,1-.38-3.19A15.65,15.65,0,0,1,452,435.2a19.8,19.8,0,0,1,2.16-3.82,10.72,10.72,0,0,1,2.85-2.82,3.31,3.31,0,0,1,1.54-.61,1.09,1.09,0,0,1,1,.49,1.93,1.93,0,0,1-.08,1.86,12.19,12.19,0,0,1-1.55,2.59,26.74,26.74,0,0,1-2.4,2.72,33.19,33.19,0,0,0-2.5,2.25,3.89,3.89,0,0,0,0,1.66,4.48,4.48,0,0,0,.51,1.56,2.55,2.55,0,0,0,.47.61,2,2,0,0,0,.64.42,1.74,1.74,0,0,0,.84.11,2.49,2.49,0,0,0,1-.35,10.12,10.12,0,0,0,2.66-2.38,21,21,0,0,0,2.43-3.72,24.47,24.47,0,0,0,1.74-4.36,18.84,18.84,0,0,0,.74-4.3l.37-.07m-6.61,2.49a.8.8,0,0,0-.64-.4,1.3,1.3,0,0,0-.77.23,4.22,4.22,0,0,0-1.32,1.46,14.83,14.83,0,0,0-1,2.19,16.89,16.89,0,0,0-.73,2.4,11.53,11.53,0,0,0-.3,2,20.11,20.11,0,0,0,1.81-1.62,18.22,18.22,0,0,0,1.86-2.2,9,9,0,0,0,1.21-2.28,2,2,0,0,0-.07-1.82m-1.75-9a.78.78,0,0,1,.71-.12,1.06,1.06,0,0,1,.51.34,2.16,2.16,0,0,1,.21,1.62,11.09,11.09,0,0,1-.58,2.17,13.69,13.69,0,0,1-.88,1.95,3.61,3.61,0,0,1-.64,1c-.12.08-.2.08-.24,0s0-.28.16-.61a10,10,0,0,0,.47-1.18,8.22,8.22,0,0,0,.36-1.4,1.84,1.84,0,0,0-.18-1.23,3.08,3.08,0,0,1-.42-1.43,1.18,1.18,0,0,1,.52-1.07" transform="translate(-209.85 -119.37)"/><path class="cls-5" d="M465.71,407.76c.3,3.68.38,6.94.36,9.71s-.14,5.18-.28,7.18-.29,3.67-.42,5-.23,2.36-.29,3.16a11,11,0,0,0,0,1.82,2.27,2.27,0,0,0,.29.94c.31.44.74.48,1.28.1a6.52,6.52,0,0,0,1.78-2.08,18.1,18.1,0,0,0,1.51-3.38,27.59,27.59,0,0,0,1.08-4.26,39.87,39.87,0,0,0,.51-4.68L472,421a37.57,37.57,0,0,1-.49,4.56,30.25,30.25,0,0,1-1,4.21,20.18,20.18,0,0,1-1.75,4,7.18,7.18,0,0,1-2,2.25,3.42,3.42,0,0,1-1.93.77,1.42,1.42,0,0,1-1.17-.66,3.35,3.35,0,0,1-.5-1.36,9.55,9.55,0,0,1-.05-2.07c.05-.86.15-1.93.29-3.21s.28-2.86.41-4.72.24-4.05.26-6.57,0-5.42-.31-8.69c.8-.7,1.2-1.06,2-1.79" transform="translate(-209.85 -119.37)"/><path class="cls-5" d="M473.39,416.18c0,2.3,0,4.26-.11,5.86s-.15,2.92-.19,4a23.86,23.86,0,0,0,0,2.39,2.19,2.19,0,0,0,.32,1.15c.35.44.78.46,1.27.06a5.72,5.72,0,0,0,1.34-1.71,17.42,17.42,0,0,0,1.12-2.56,24,24,0,0,0,.83-3c.22-1.05.39-2.05.51-3a21.85,21.85,0,0,0,.2-2.65,10.35,10.35,0,0,0-.11-1.87l.36-.13a20,20,0,0,1,.09,2.1,25.46,25.46,0,0,1-.19,2.76c-.12,1-.29,2-.51,3.05a21.42,21.42,0,0,1-.87,3,16.12,16.12,0,0,1-1.24,2.64,7.07,7.07,0,0,1-1.57,1.87,2.79,2.79,0,0,1-1.73.76,1.4,1.4,0,0,1-1.12-.48,3,3,0,0,1-.55-1.4,12.89,12.89,0,0,1-.09-2.3c0-.95.08-2.14.15-3.57s.12-3.14.09-5.16c.81-.71,1.21-1.07,2-1.8m-2.38-6a1.4,1.4,0,0,1,.88-.42,1,1,0,0,1,.79.29,1,1,0,0,1,.27.8,1.39,1.39,0,0,1-.46.87,1.34,1.34,0,0,1-.89.42,1,1,0,0,1-.79-.3,1,1,0,0,1-.26-.8,1.41,1.41,0,0,1,.46-.86" transform="translate(-209.85 -119.37)"/><path class="cls-5" d="M488.62,404.29a18.81,18.81,0,0,1,.29,3.7,25.6,25.6,0,0,1-.44,4.45,23.55,23.55,0,0,1-1.61,5.22,12.94,12.94,0,0,1-2.79,4.09,5.58,5.58,0,0,1-2.5,1.51,2,2,0,0,1-2.1-.59,5.42,5.42,0,0,1-1.26-3.16,16.24,16.24,0,0,1,.13-4.21,19.13,19.13,0,0,1,1.18-4.31,11.8,11.8,0,0,1,2.09-3.49,6.53,6.53,0,0,1,1.67-1.39,1.22,1.22,0,0,1,1.5.08.85.85,0,0,1,.31.63,2.11,2.11,0,0,1-.14.8,4.46,4.46,0,0,1-.42.85,8.58,8.58,0,0,1-.5.74,4.43,4.43,0,0,0-.3-.67,2,2,0,0,0-.43-.56c-.6-.53-1.22-.42-1.89.32a5.91,5.91,0,0,0-1.18,2.48,15.9,15.9,0,0,0-.5,3.52,15,15,0,0,0,.29,3.62,5.57,5.57,0,0,0,1.34,2.81,2.09,2.09,0,0,0,1.44.68,2.28,2.28,0,0,0,1.69-.8,10.28,10.28,0,0,0,2.05-3.16,22.58,22.58,0,0,0,1.39-4.21,24,24,0,0,0,.59-4.64,21,21,0,0,0-.25-4.2l.35-.11" transform="translate(-209.85 -119.37)"/><path class="cls-5" d="M497.08,391.88a18,18,0,0,1,.61,2.37,20.64,20.64,0,0,1,.34,3,29.1,29.1,0,0,1,0,3.35,24.25,24.25,0,0,1-.53,3.47,18.58,18.58,0,0,1-1.1,3.28,12.23,12.23,0,0,1-1.7,2.8,5.25,5.25,0,0,1-2.46,1.88,2.22,2.22,0,0,1-2.2-.49,5.15,5.15,0,0,1-1.5-2.85,15.86,15.86,0,0,1-.33-4.15,21.22,21.22,0,0,1,.68-4.44,11.65,11.65,0,0,1,1.69-3.79,3.79,3.79,0,0,1,1.24-1.19,1.1,1.1,0,0,1,1.16.06,1.93,1.93,0,0,1,.59,1.79A12.66,12.66,0,0,1,493,400a27.62,27.62,0,0,1-1.3,3.51,31.84,31.84,0,0,0-1.56,3.09,3.62,3.62,0,0,0,.62,1.55,4.53,4.53,0,0,0,1,1.28,2.77,2.77,0,0,0,.66.4,1.94,1.94,0,0,0,.76.14,1.81,1.81,0,0,0,.83-.22,2.74,2.74,0,0,0,.83-.73,10.59,10.59,0,0,0,1.67-3.27,21.92,21.92,0,0,0,1-4.48,25.88,25.88,0,0,0,.09-4.82,19.56,19.56,0,0,0-.83-4.39l.32-.22m-5.37,5a.77.77,0,0,0-.74-.12,1.39,1.39,0,0,0-.65.52,4.64,4.64,0,0,0-.73,1.9,16.25,16.25,0,0,0-.21,2.48,17.64,17.64,0,0,0,.16,2.55,11.71,11.71,0,0,0,.45,2,20.84,20.84,0,0,0,1.13-2.24,18.64,18.64,0,0,0,1-2.8,9.71,9.71,0,0,0,.33-2.63,2,2,0,0,0-.72-1.7" transform="translate(-209.85 -119.37)"/><path class="cls-5" d="M504.23,378.83a25.41,25.41,0,0,1,1.38,4.24,22.7,22.7,0,0,1,.57,4.87,19.8,19.8,0,0,1-.66,5.21,17.2,17.2,0,0,1-2.31,5.19,10,10,0,0,1-1.33,1.68,5.91,5.91,0,0,1-1.45,1.1,3.33,3.33,0,0,1-1.47.39,2.26,2.26,0,0,1-1.41-.45,2,2,0,0,1-.79-1.51,3.11,3.11,0,0,1,.62-2.11,2.18,2.18,0,0,1,.82-.79.77.77,0,0,1,.84,0,1.09,1.09,0,0,1,.48.7,1.32,1.32,0,0,1-.27,1,1.58,1.58,0,0,1-.61.56.9.9,0,0,1-.62.05,1.21,1.21,0,0,0,.07.89,1.82,1.82,0,0,0,.52.58,1.8,1.8,0,0,0,2.1-.05,6.42,6.42,0,0,0,2-2,4.6,4.6,0,0,0,.7-1.6,3.83,3.83,0,0,0,.05-1.42,2.62,2.62,0,0,0-.49-1.16,3.13,3.13,0,0,0-.87-.8,3,3,0,0,0-1.24-.41,14.09,14.09,0,0,0-1.47-.13c-.49,0-1-.05-1.44-.1a2.65,2.65,0,0,1-1.17-.36,2.16,2.16,0,0,1-.87-1,3.27,3.27,0,0,1-.24-1.42,6.67,6.67,0,0,1,.29-1.64,8.4,8.4,0,0,1,.75-1.69,6.5,6.5,0,0,1,1.9-2.22,1.71,1.71,0,0,1,1.85-.27,1.28,1.28,0,0,1,.66,1.36,4.69,4.69,0,0,1-.61,1.91,3.64,3.64,0,0,0-.52-.83,2.53,2.53,0,0,0-.7-.63,1.34,1.34,0,0,0-1.22,0,2.42,2.42,0,0,0-1.15,1.14,2.76,2.76,0,0,0-.48,1.91,1.85,1.85,0,0,0,.86,1.25,3,3,0,0,0,1.34.41,12.72,12.72,0,0,0,1.51,0,11.2,11.2,0,0,1,1.53,0,3.21,3.21,0,0,1,1.48.47,2,2,0,0,1,.82.94,4.23,4.23,0,0,1,.35,1.44,6.42,6.42,0,0,1-.09,1.68,6,6,0,0,1-.53,1.65l.1,0a16.67,16.67,0,0,0,1.66-4.71,20.93,20.93,0,0,0,.35-4.76,22.74,22.74,0,0,0-.6-4.44A26.48,26.48,0,0,0,504,379l.2-.21" transform="translate(-209.85 -119.37)"/></g></g></g></g></svg>