<?xml version="1.0" standalone="no"?>
<!DOCTYPE svg PUBLIC "-//W3C//DTD SVG 1.1//EN" "http://www.w3.org/Graphics/SVG/1.1/DTD/svg11.dtd" >
<svg xmlns="http://www.w3.org/2000/svg" xmlns:xlink="http://www.w3.org/1999/xlink" version="1.1">
<metadata>
Created by FontForge 20170731 at Fri Feb 26 09:08:09 2021
 By Aleksey,,,
Copyright (c) 2020 by Alit Suarnegara. All rights reserved.
</metadata>
<defs>
<font id="HandyQuomte-Regular" horiz-adv-x="600" >
  <font-face 
    font-family="Handy Quomte"
    font-weight="400"
    font-stretch="normal"
    units-per-em="1000"
    panose-1="0 0 5 0 0 0 0 0 0 0"
    ascent="800"
    descent="-200"
    x-height="500"
    cap-height="720"
    bbox="-1482 -480 1940 962.01"
    underline-thickness="50"
    underline-position="-150"
    unicode-range="U+0020-E095"
  />
<missing-glyph horiz-adv-x="715" 
d="M586 -480h-453v1430h453v-1430zM240 854v-47h93v-53h-94v-47h237v47h-94v53h94v47h-236zM239 670v-149h237v49h-94v100h-143zM333 570h-47v51h47v-51zM239 482v-47h94v-53h-94v-47h143v100h94v47h-237zM429 397v-95h-190v-48h237v143h-47zM333 222v-80h49v33h47v-67h-143
v114h-47v-161h237v161h-143zM239 -25v-162h237v162h-237zM429 -140h-143v68h143v-68zM239 -220v-47h100l-100 -67v-47h237v47h-146l100 67h46v47h-237z" />
    <glyph glyph-name=".notdef" horiz-adv-x="715" 
d="M586 -480h-453v1430h453v-1430zM240 854v-47h93v-53h-94v-47h237v47h-94v53h94v47h-236zM239 670v-149h237v49h-94v100h-143zM333 570h-47v51h47v-51zM239 482v-47h94v-53h-94v-47h143v100h94v47h-237zM429 397v-95h-190v-48h237v143h-47zM333 222v-80h49v33h47v-67h-143
v114h-47v-161h237v161h-143zM239 -25v-162h237v162h-237zM429 -140h-143v68h143v-68zM239 -220v-47h100l-100 -67v-47h237v47h-146l100 67h46v47h-237z" />
    <glyph glyph-name=".null" horiz-adv-x="0" 
 />
    <glyph glyph-name="nonmarkingreturn" horiz-adv-x="333" 
 />
    <glyph glyph-name="space" unicode=" " horiz-adv-x="200" 
 />
    <glyph glyph-name="exclam" unicode="!" horiz-adv-x="332" 
d="M222 452q-33 -107 -49.5 -170t-23.5 -129h-20q19 67 25.5 134.5t10.5 168.5q0 11 3 75.5t12 123.5q5 33 20.5 50t35.5 17q18 0 32 -14.5t14 -36.5q0 -4 -2 -16q-18 -80 -58 -203zM85 11.5q-15 14.5 -15 36.5q0 24 17 41t41 17q22 0 36.5 -14.5t14.5 -35.5q0 -25 -17 -42
t-40 -17q-22 0 -37 14.5z" />
    <glyph glyph-name="quotedbl" unicode="&#x22;" horiz-adv-x="318" 
d="M153 703l-65 -221h-58l19 221h104zM288 703l-65 -221h-58l19 221h104z" />
    <glyph glyph-name="numbersign" unicode="#" horiz-adv-x="492" 
d="M413 329h-66l-11 -75h66l-8 -41h-65l-22 -147h-46l22 147h-98l-22 -147h-47l23 147h-67l7 41h66l12 75h-67l8 41h65l20 130h46l-20 -130h98l20 130h46l-20 -130h67zM290 254l11 75h-98l-11 -75h98z" />
    <glyph glyph-name="dollar" unicode="$" 
d="M471.5 568q35.5 -32 35.5 -71q0 -11 -4 -22q-8 -25 -23.5 -37.5t-31.5 -12.5q-15 0 -24 9t-9 24q0 12 5 23q16 36 16 61q0 22 -10.5 34.5t-26.5 16.5q-8 2 -12 2l-41 -217l27 -23q49 -41 74 -72t25 -71q0 -12 -1 -18q-10 -57 -63 -88.5t-119 -34.5l-10 -52h-32l10 52
q-2 1 -7 1q-70 8 -105.5 40t-35.5 79q0 21 7 41q7 22 20 32.5t28 10.5q13 0 22.5 -8.5t9.5 -21.5q0 -17 -14 -35q-20 -27 -20 -53q0 -23 17 -41t43 -25q21 -5 38 -4l36 192q-7 5 -47.5 35.5t-62.5 66.5t-22 74q0 44 24.5 81t68.5 58t101 18l12 64h32l-13 -67q47 -9 82.5 -41
zM319 403l36 192q-37 -6 -61 -33t-24 -63q0 -15 7 -36q11 -31 42 -60zM323 256l-30 -162q32 10 54 34t22 51q0 13 -4 22q-10 27 -42 55z" />
    <glyph glyph-name="percent" unicode="%" horiz-adv-x="567" 
d="M471 720l-347 -720h-32l340 705q-11 -1 -25.5 -8t-29.5 -15q-32 -17 -54.5 -25.5t-47.5 -7.5q13 -29 13 -62q0 -47 -21.5 -88.5t-57.5 -66.5t-75 -25q-50 0 -82 37.5t-32 94.5q0 48 21.5 89.5t57.5 66.5t76 25q24 0 48 -11q46 -17 87 -17q33 0 75 16q13 5 27 8.5t27 3.5
h32zM207 596q0 50 -11.5 82.5t-29.5 31.5q-21 -1 -40.5 -44.5t-23.5 -103.5q-1 -11 -1 -31q0 -49 11 -81t30 -32q21 0 40.5 43.5t23.5 103.5q1 11 1 31zM515 276q32 -38 32 -95q0 -47 -21.5 -88.5t-57.5 -66.5t-75 -25q-50 0 -82 37.5t-32 94.5q0 48 21.5 89.5t57.5 66.5
t76 25q49 0 81 -38zM466 190q0 50 -11.5 82.5t-29.5 31.5q-21 -1 -40.5 -44.5t-23.5 -103.5q-1 -11 -1 -31q0 -49 11 -81t30 -32q21 0 40.5 43.5t23.5 103.5q1 11 1 31z" />
    <glyph glyph-name="ampersand" unicode="&#x26;" horiz-adv-x="750" 
d="M730 375q0 -56 -30 -84t-75 -37.5t-124 -16.5q-14 -2 -42 -4q52 -20 79 -62t27 -93q0 -53 -29 -102t-85 -79.5t-134 -30.5q-40 0 -85 9q-104 21 -158 85.5t-54 146.5q0 68 36 129.5t104 99.5t157 37q-55 22 -83 62t-28 87q0 50 28.5 96.5t81 75.5t119.5 29q49 0 84 -19
t53 -49.5t18 -65.5q0 -20 -6 -40q-7 -22 -22.5 -33t-34.5 -11t-33.5 10.5t-14.5 27.5q0 13 8 25q30 47 30 80q0 27 -17.5 42.5t-48.5 15.5q-36 0 -70 -28.5t-55 -74t-21 -92.5q0 -45 22 -84t69 -63q5 -1 13 -1t13 -1.5t5 -5.5q0 -6 -7 -6q-4 0 -12 2t-13 1
q-80 -5 -142 -49.5t-96 -110t-34 -131.5t36.5 -112.5t109.5 -55.5q20 -2 29 -2q61 0 105.5 32t67.5 81.5t23 98.5q0 38 -14 67t-41 41q-17 8 -37 8q-29 0 -53 -18.5t-37.5 -49t-13.5 -63.5q0 -29 12 -56q-37 5 -56 25.5t-19 49.5q0 42 33 81q23 35 72.5 55.5t138.5 45.5
q73 20 118 36.5t80 43t46 65.5q7 -32 7 -60z" />
    <glyph glyph-name="quotesingle" unicode="'" horiz-adv-x="183" 
d="M153 703l-65 -221h-58l19 221h104z" />
    <glyph glyph-name="parenleft" unicode="(" horiz-adv-x="315" 
d="M237 679q-37 -55 -64 -146.5t-37 -199.5q-4 -43 -4 -93q0 -87 14 -156t39.5 -108t57.5 -39h1l-2 -22h-1q-60 0 -107.5 46.5t-74 127.5t-26.5 181q0 32 3 66q10 114 51 210.5t101 153.5t127 57l-3 -22q-38 -1 -75 -56z" />
    <glyph glyph-name="parenright" unicode=")" horiz-adv-x="311" 
d="M74 757q59 0 106 -47t74 -128.5t27 -180.5q0 -32 -3 -65q-10 -115 -51 -211.5t-101 -153t-126 -56.5l2 22q39 2 76 57t64 146.5t37 198.5q4 43 4 92q0 87 -14.5 157t-40 109t-57.5 38h-1l3 22h1z" />
    <glyph glyph-name="asterisk" unicode="*" 
d="M443 628l-119 -63l119 -63l-47 -47l-92 73l-14 -117h-66l32 105l-78 -61l-47 47l119 63l-119 63l47 47l86 -69l13 114h66l-35 -115l88 70z" />
    <glyph glyph-name="plus" unicode="+" horiz-adv-x="328" 
d="M298 290l-5 -30h-114l-22 -123h-32l22 123h-117l5 30h118l19 104h32l-19 -104h113z" />
    <glyph glyph-name="comma" unicode="," horiz-adv-x="241" 
d="M86 11q-14 14 -14 35q0 25 17 42.5t42 17.5q30 0 45.5 -20.5t15.5 -52.5q0 -29 -12.5 -58.5t-34.5 -49t-51 -19.5q15 9 28 32.5t13 41.5q0 17 -13 17q-22 0 -36 14z" />
    <glyph glyph-name="hyphen" unicode="-" horiz-adv-x="333" 
d="M303 290l-10 -53h-263l10 53h263z" />
    <glyph glyph-name="period" unicode="." horiz-adv-x="229" 
d="M85 11.5q-15 14.5 -15 36.5q0 24 17 41t41 17q22 0 36.5 -14.5t14.5 -35.5q0 -25 -17 -42t-40 -17q-22 0 -37 14.5z" />
    <glyph glyph-name="slash" unicode="/" horiz-adv-x="228" 
d="M62 0h-32l216 720h32z" />
    <glyph glyph-name="zero" unicode="0" horiz-adv-x="487" 
d="M69.5 549.5q37.5 85.5 93 135.5t115.5 50q54 0 97 -41.5t67.5 -113.5t24.5 -160q0 -27 -3 -57q-9 -101 -46.5 -186t-92.5 -135t-115 -50q-55 0 -98 41t-67.5 112.5t-24.5 159.5q0 28 3 58q9 101 46.5 186.5zM128 279q0 -76 11 -137.5t31 -96t46 -34.5q31 1 60.5 49.5
t51 129.5t29.5 176q3 42 3 80q0 77 -11.5 139t-31.5 96.5t-46 33.5q-30 0 -59.5 -48.5t-51 -129.5t-29.5 -176q-3 -42 -3 -82z" />
    <glyph glyph-name="one" unicode="1" horiz-adv-x="347" 
d="M301 577l-5 -30l-79 -435l-2 -14q-4 -25 -4 -44q0 -23 10 -29.5t38 -6.5v-18h-212l2 18q14 -2 18 -2q19 0 28 11.5t14 38.5l8 46l86 477q-27 -15 -58.5 -24.5t-58.5 -9.5q-35 0 -55 18q-16 15 -16 35q0 17 11.5 29.5t29.5 12.5q19 0 36 -12q43 -29 86 -29q82 0 136 111
h13l-20 -112z" />
    <glyph glyph-name="two" unicode="2" horiz-adv-x="511" 
d="M133 46q33 0 65.5 -4.5t76.5 -13.5q31 -6 63.5 -11t58.5 -5q48 0 92 17l3 -10q-28 -44 -62 -64.5t-103 -20.5q-34 0 -61.5 10.5t-65.5 31.5q-37 20 -63 30t-57 10q-38 0 -80 -18v25q0 47 23 86.5t58 70t96 76.5q75 55 122.5 98.5t81.5 100.5q34 55 34 111
q0 40 -17.5 71.5t-47 49.5t-64.5 18q-41 0 -63.5 -27.5t-22.5 -84.5q0 -28 -15.5 -44t-36.5 -16q-19 0 -33 13.5t-14 38.5q0 38 23.5 69.5t66 49.5t96.5 18q67 0 118 -25.5t78.5 -69.5t27.5 -99q0 -56 -31 -115q-30 -56 -84.5 -94.5t-144.5 -85.5q-68 -35 -108.5 -60.5
t-73 -60.5t-43.5 -81q52 15 107 15z" />
    <glyph glyph-name="three" unicode="3" horiz-adv-x="532" 
d="M478.5 358.5q53.5 -48.5 53.5 -118.5q0 -61 -40 -121.5t-112.5 -99t-164.5 -38.5q-73 0 -121 19.5t-71 51t-23 67.5q0 33 18 63t51 48t76 18q47 0 90 -19q-49 0 -84 -17.5t-53 -46t-18 -59.5q0 -44 34 -75t96 -31q65 0 113 29.5t73 77.5t25 101q0 47 -20.5 88.5t-62 70
t-102.5 35.5h-2q-7 0 -13.5 -1t-11.5 -1t-5 3q0 6 4.5 7t13 1.5t16.5 1.5q79 36 120.5 90.5t41.5 106.5q0 42 -26 68.5t-71 26.5q-41 0 -63.5 -27.5t-22.5 -84.5q0 -28 -15.5 -44t-36.5 -16q-19 0 -33 13.5t-14 38.5q0 38 23.5 69.5t66 49.5t96.5 18q56 0 96 -19t60.5 -50.5
t20.5 -68.5q0 -54 -42 -101.5t-119 -68.5q105 -7 158.5 -55.5z" />
    <glyph glyph-name="four" unicode="4" horiz-adv-x="504" 
d="M504 283l-29 -156h-14q2 14 2 23q0 18 -12 29t-44 14l-15 -81l-2 -14q-4 -25 -4 -44q0 -23 10 -29.5t38 -6.5v-18h-212l2 18q14 -2 18 -2q19 0 28 11.5t14 38.5l8 46l15 82h-287l38 132q197 79 390 394h54l-20 -112l-6 -31l-5 -30l-61 -334q40 3 54.5 18.5t19 31
t6.5 20.5h14zM310 212l66 362l-57 -71q-78 -99 -141.5 -172.5t-120.5 -118.5h253z" />
    <glyph glyph-name="five" unicode="5" 
d="M203 476.5q45 16.5 94 16.5q59 0 113.5 -24t92.5 -72.5t49 -118.5q3 -21 3 -42q0 -75 -39.5 -133t-107 -90.5t-146.5 -32.5q-19 0 -28 1q-109 8 -162 52.5t-53 103.5q0 37 20 70t55.5 53.5t78.5 20.5q56 0 113 -34q-55 3 -95 -15.5t-60.5 -49.5t-20.5 -66
q0 -43 30.5 -75.5t88.5 -39.5q7 -1 22 -1q54 0 95.5 32t64.5 84t23 111q0 20 -3 41q-6 45 -30 87.5t-62.5 69.5t-85.5 27q-54 0 -111 -37q-4 -2 -14.5 -14.5t-18 -18.5t-15.5 -1q-5 4 -5 9v1v1q2 8 23 101q21 104 39 152q15 42 44 59t71 17q39 0 116 -17q7 -1 46.5 -9
t73.5 -8q41 0 69 14l2 -10q-21 -45 -54 -63.5t-77 -18.5q-40 0 -116 18q-64 15 -93 15q-36 0 -54 -18q-14 -13 -23 -44t-20 -86q-10 -50 -16 -72l6 6q32 32 77 48.5z" />
    <glyph glyph-name="six" unicode="6" horiz-adv-x="552" 
d="M175 408.5q34 47.5 78.5 71t91.5 23.5q50 0 92.5 -25t68.5 -73.5t26 -113.5q0 -95 -36.5 -162.5t-95.5 -101.5t-126 -34q-66 0 -124.5 33.5t-94 99t-35.5 158.5q0 101 40 201.5t117.5 166.5t183.5 67q69 1 102.5 -32t33.5 -81q0 -8 -2 -22q-4 -25 -19 -37.5t-35 -12.5
q-18 0 -31.5 10.5t-13.5 27.5q0 14 10 30q26 40 26 66q0 21 -16 30t-46 7q-54 -4 -111.5 -65.5t-95 -156t-37.5 -192.5q15 70 49 117.5zM410 389q-16 46 -42.5 69t-58.5 23q-50 0 -94 -52t-63 -145q-10 -49 -10 -92q0 -58 16.5 -99t44 -61.5t60.5 -20.5q40 0 77.5 30.5
t61.5 91t24 145.5q0 65 -16 111z" />
    <glyph glyph-name="seven" unicode="7" horiz-adv-x="495" 
d="M413 578q-38 -86 -61 -145.5t-38.5 -129t-15.5 -143.5q0 -28 1 -43q4 -58 -19.5 -90t-56.5 -32q-29 0 -50.5 25.5t-21.5 70.5q0 17 5 44q19 87 55.5 171t77 155t106.5 177l36 57q-26 -1 -60.5 -11.5t-81.5 -29.5q-60 -22 -95.5 -33t-66.5 -11q-45 0 -71 28.5t-31 95.5
l3 8q49 -39 142 -39q53 0 135 13q78 10 107 10q37 0 59 -11l-9 -21q-12 -30 -49 -116z" />
    <glyph glyph-name="eight" unicode="8" horiz-adv-x="561" 
d="M442.5 382.5q46.5 -25.5 72.5 -66t26 -87.5q0 -63 -41 -117.5t-108.5 -87t-143.5 -32.5q-65 0 -117 24t-81.5 66t-29.5 93q0 50 27.5 96.5t75 80.5t105.5 50q-70 7 -114 47t-44 94q0 49 32.5 92.5t86.5 69t115 25.5q53 0 95.5 -19.5t66.5 -53.5t24 -75q0 -56 -43 -102.5
t-109 -67.5q58 -4 104.5 -29.5zM167 536q0 -54 27 -90.5t67 -35.5q34 0 65.5 25t50.5 66t19 87q0 57 -27 94.5t-69 37.5q-46 -1 -84 -46.5t-47 -110.5q-2 -18 -2 -27zM424 239q0 45 -15 82t-41.5 58t-59.5 21q-38 0 -73 -27t-60 -72.5t-33 -99.5q-3 -19 -3 -39
q0 -68 32.5 -113.5t81.5 -45.5q38 0 73.5 27.5t61 73.5t34.5 100q2 12 2 35z" />
    <glyph glyph-name="nine" unicode="9" horiz-adv-x="552" 
d="M377 303.5q-34 -47.5 -78.5 -71t-91.5 -23.5q-50 0 -92.5 25t-68.5 73.5t-26 113.5q0 95 36.5 162.5t95.5 101.5t126 34q66 0 124.5 -33.5t94 -99t35.5 -158.5q0 -101 -40 -201.5t-117.5 -166.5t-183.5 -67l-4 7q54 4 110 67t92.5 159.5t36.5 194.5q-15 -70 -49 -117.5z
M142 323q16 -46 42.5 -69t58.5 -23q50 0 94 52t63 145q10 49 10 92q0 58 -16.5 99t-44 61.5t-60.5 20.5q-40 0 -77.5 -30.5t-61.5 -91t-24 -145.5q0 -65 16 -111z" />
    <glyph glyph-name="colon" unicode=":" horiz-adv-x="278" 
d="M134 405.5q-15 14.5 -15 36.5q0 24 17 41t41 17q22 0 36.5 -14.5t14.5 -35.5q0 -25 -17 -42t-40 -17q-22 0 -37 14.5zM85 146.5q-15 14.5 -15 36.5q0 24 17 41t41 17q22 0 36.5 -14.5t14.5 -35.5q0 -25 -17 -42t-40 -17q-22 0 -37 14.5z" />
    <glyph glyph-name="semicolon" unicode=";" horiz-adv-x="278" 
d="M134 405.5q-15 14.5 -15 36.5q0 24 17 41t41 17q22 0 36.5 -14.5t14.5 -35.5q0 -25 -17 -42t-40 -17q-22 0 -37 14.5zM85 146.5q-15 14.5 -15 36.5q0 24 17 41t41 17q31 0 47 -22t16 -55q0 -29 -11.5 -57.5t-33 -47t-49.5 -18.5q15 9 27 31.5t12 40.5q0 19 -14 19
q-22 0 -37 14.5z" />
    <glyph glyph-name="less" unicode="&#x3c;" horiz-adv-x="298" 
d="M268 429l-189 -152l178 -153h-47l-180 153l191 152h47z" />
    <glyph glyph-name="equal" unicode="=" horiz-adv-x="344" 
d="M314 329l-5 -30h-263l5 30h263zM298 212l-5 -30h-263l5 30h263z" />
    <glyph glyph-name="greater" unicode="&#x3e;" horiz-adv-x="298" 
d="M87 429l181 -152l-191 -153h-47l189 153l-179 152h47z" />
    <glyph glyph-name="question" unicode="?" horiz-adv-x="533" 
d="M140 215.5q11 27.5 28 44t48 38.5q45 32 77.5 65.5t64.5 95.5q27 51 27 101q0 41 -18 74t-48.5 51.5t-65.5 18.5q-44 0 -66.5 -29t-18.5 -88q2 -30 -13.5 -46.5t-36.5 -16.5q-20 0 -34 14.5t-14 40.5q0 39 24 71.5t67.5 51.5t100.5 19q66 0 116 -25.5t77.5 -70.5
t27.5 -101q0 -52 -23 -102q-18 -40 -45.5 -64.5t-56 -36.5t-71.5 -24q-48 -14 -75 -27.5t-45.5 -43t-18.5 -82.5h-20q1 44 12 71.5zM93 11.5q-15 14.5 -15 36.5q0 24 17 41t41 17q22 0 36.5 -14.5t14.5 -35.5q0 -25 -17 -42t-40 -17q-22 0 -37 14.5z" />
    <glyph glyph-name="at" unicode="@" horiz-adv-x="505" 
d="M447 468.5q38 -46.5 38 -118.5q0 -55 -20 -112t-52 -94t-64 -37q-18 0 -32.5 15t-14.5 50q0 18 2 29l1 5l25 139q-30 -102 -58.5 -160t-68.5 -58q-31 0 -47.5 28t-16.5 72q0 46 16.5 94t46.5 79.5t68 31.5q21 0 37 -17t22 -42q9 27 15 56h61l-40 -223v-2v0q-6 -34 -6 -48
q0 -13 7 -13q17 0 33 28t26 72.5t10 90.5q0 72 -28 120.5t-88 48.5q-68 0 -122 -43.5t-84.5 -110t-30.5 -130.5q0 -63 31 -103t94 -40l-4 -14q-91 0 -137 45.5t-46 115.5q0 67 39 135t109.5 112.5t159.5 44.5q81 0 119 -46.5zM269.5 202.5q27.5 60.5 54.5 151.5
q-2 25 -17.5 46.5t-34.5 21.5q-18 0 -34.5 -37t-27 -89.5t-10.5 -94.5q0 -59 20 -59q22 0 49.5 60.5z" />
    <glyph glyph-name="A" unicode="A" horiz-adv-x="972" 
d="M984 -107q10 0 16.5 -6t6.5 -14q0 -20 -34.5 -36.5t-78.5 -16.5q-26 0 -45 5q-44 11 -67 37.5t-23 75.5q0 19 5 51l22 123l36 200h-244l-36 -200q-26 -159 -98 -255.5t-215 -96.5q-115 0 -172 70t-57 177q0 88 35.5 175t98 143t137.5 56q62 0 95 -45.5t33 -110.5
q0 -45 -17 -86t-50 -66.5t-79 -25.5q-31 0 -61 11q38 13 68.5 50.5t47.5 85.5t17 89q0 35 -13 56t-40 21q-48 0 -90.5 -57.5t-68 -145.5t-25.5 -172q0 -91 32.5 -148t99.5 -57q94 0 144 92t78 240l70 387q18 72 60.5 123.5t97.5 78t111 26.5q49 0 90 -20.5t65 -61t24 -98.5
q0 -25 -4 -48l-70 -387l-23 -123q-1 -7 -6.5 -37t-5.5 -56q0 -61 38 -61q16 0 30 10t25 22t17 17q10 9 23 9zM825 330l31 169q9 45 9 81q0 63 -24.5 96.5t-62.5 33.5q-31 0 -64 -24t-60.5 -72t-41.5 -115l-31 -169h244z" />
    <glyph glyph-name="B" unicode="B" horiz-adv-x="588" 
d="M513.5 313q36.5 -60 36.5 -137q0 -87 -44 -169.5t-131 -135.5t-208 -53q-71 0 -118 20.5t-69 54t-22 72.5q0 43 24.5 83.5t69 65.5t101.5 25q39 0 67.5 -16.5t43 -41.5t14.5 -50t-13.5 -40.5t-40.5 -15.5q-35 0 -35 34q0 10 4 34t4 35q0 19 -10 30t-35 11q-30 0 -54 -21
t-37 -55t-13 -71q0 -56 31 -95t92 -39q84 0 143 43.5t88.5 113t29.5 145.5q0 64 -21.5 119.5t-63 89t-99.5 33.5h-30l-19 -102l-2 -14q-4 -25 -4 -44q0 -23 9.5 -29.5t38.5 -6.5v-18h-212l2 18q14 -2 18 -2q19 0 28 11.5t14 38.5l8 46l61 328l3 14q8 37 8 52q0 20 -12 26
t-43 6q-53 0 -50 -43q1 -18 -8.5 -27.5t-22.5 -9.5q-11 0 -19 7t-8 19q0 3 2 13q11 34 45 44.5t103 10.5h224q49 0 84.5 -20.5t53.5 -54.5t18 -74q0 -55 -33 -104t-95 -73q67 -21 103.5 -81zM354.5 431q42.5 29 64.5 73.5t22 89.5q0 47 -23.5 77.5t-67.5 30.5h-16
q-30 1 -43.5 -9t-20.5 -39l-10 -46l-39 -208l33 1q58 1 100.5 30z" />
    <glyph glyph-name="C" unicode="C" horiz-adv-x="583" 
d="M576.5 745.5q49.5 -54.5 49.5 -127.5q0 -51 -23.5 -99t-65 -78.5t-93.5 -31.5q-81 -3 -122.5 32t-41.5 86q0 30 15 58.5t42 46t62 17.5q24 0 49 -9q-46 -6 -72 -39.5t-26 -74.5q0 -38 23 -64.5t66 -26.5q34 0 61.5 26.5t43 69t15.5 87.5q0 70 -37 118.5t-113 48.5
q-90 0 -165.5 -87.5t-119.5 -220.5t-44 -262q0 -131 49 -218t149 -97q6 -1 16 -1q36 0 63 15t42 39t15 50q0 31 -21 56q23 15 40 15q20 0 31.5 -16.5t11.5 -41.5q0 -33 -19 -66t-58 -55t-96 -22q-25 0 -38 2q-90 12 -151 66t-90 137t-29 182q0 133 49.5 261.5t139.5 210.5
t206 82q12 0 36 -2q101 -12 150.5 -66.5z" />
    <glyph glyph-name="D" unicode="D" horiz-adv-x="547" 
d="M450.5 672q52.5 -48 78.5 -129t26 -179q0 -132 -45.5 -258t-134 -207t-208.5 -81q-71 0 -118 20.5t-69 54t-22 72.5q0 43 24.5 83.5t69 65.5t101.5 25q39 0 67.5 -16.5t43 -41.5t14.5 -50t-13.5 -40.5t-40.5 -15.5q-35 0 -35 34q0 10 4 34t4 35q0 19 -10 30t-35 11
q-30 0 -54 -21t-37 -55t-13 -71q0 -56 31 -95t92 -39q91 0 152 78.5t90 200t29 251.5q0 91 -14 167t-40 121.5t-61 45.5q-23 0 -37 -10t-20 -38l-10 -46l-61 -328l-2 -14q-4 -25 -4 -44q0 -23 9.5 -29.5t38.5 -6.5v-18h-212l2 18q14 -2 18 -2q19 0 28 11.5t14 38.5l8 46
l61 328l3 14q8 37 8 52q0 20 -12 26t-43 6q-53 0 -50 -43q1 -18 -8.5 -27.5t-22.5 -9.5q-11 0 -19 7t-8 19q0 3 2 13q11 34 45 44.5t103 10.5h164q76 0 128.5 -48z" />
    <glyph glyph-name="E" unicode="E" horiz-adv-x="513" 
d="M498 690q35 -30 35 -73q0 -12 -5 -30q-8 -25 -25 -37.5t-36 -12.5q-17 0 -29 9.5t-12 25.5q0 8 5 21q22 53 22 79q0 27 -25 33q-7 2 -21 2q-33 0 -62 -21.5t-47 -57t-18 -74.5q0 -42 23 -79t71 -62q5 -1 13 -1t13 -1.5t5 -5.5q0 -6 -7 -6q-4 0 -12 2t-13 1
q-82 -5 -148.5 -63.5t-103.5 -144.5t-37 -168t40 -135t119 -53q58 0 103 35t70 87.5t25 102.5q0 34 -12 58.5t-37 35.5q-17 8 -37 8q-29 0 -53 -18.5t-37.5 -49t-13.5 -63.5q0 -29 12 -56q-37 5 -55.5 26.5t-18.5 51.5q0 32 19 64.5t53 53.5t76 21q33 0 69 -15
q44 -19 67 -59.5t23 -91.5q0 -54 -26.5 -104.5t-79 -82t-126.5 -31.5q-37 0 -79 9q-101 22 -152 93t-51 165q0 83 39 162t111 129.5t166 51.5q-53 21 -80 58t-27 80q0 44 27 83t78.5 61.5t120.5 18.5q46 -2 81 -32z" />
    <glyph glyph-name="F" unicode="F" horiz-adv-x="818" 
d="M632 608l-38 -208h52q49 0 66.5 16t22.5 33t7 22h14l-29 -156h-14q2 14 2 22q0 21 -15.5 33t-58.5 12h-50l-49 -270q-26 -159 -98 -255.5t-215 -96.5q-115 0 -172 70t-57 177q0 88 35.5 175t98 143t137.5 56q62 0 95 -45.5t33 -110.5q0 -45 -17 -86t-50 -66.5t-79 -25.5
q-31 0 -61 11q38 13 68.5 50.5t47.5 85.5t17 89q0 35 -13 56t-40 21q-48 0 -90.5 -57.5t-68 -145.5t-25.5 -172q0 -91 32.5 -148t99.5 -57q94 0 144 92t78 240l90 496l12 68q-148 37 -232 37q-70 0 -118.5 -24.5t-80.5 -80.5q8 98 53 140t121 42q51 0 109 -14t150 -43
q81 -25 132.5 -38t93.5 -13q100 0 116 92h10q0 -55 -39.5 -92.5t-127.5 -37.5q-38 0 -91 9z" />
    <glyph glyph-name="G" unicode="G" 
d="M497 369h100l-44 -252q-24 -138 -42.5 -207.5t-55.5 -114.5t-102 -45q-57 0 -57 50q0 45 43.5 116t99.5 128l15 83q11 66 16 91q-38 -87 -101.5 -152.5t-141.5 -65.5q-71 0 -119.5 37.5t-72 102t-23.5 143.5q0 120 50.5 240t144.5 198.5t218 78.5q67 0 113 -26.5
t68.5 -69t22.5 -90.5q0 -45 -19 -84.5t-55.5 -63.5t-85.5 -24q-83 0 -124 35t-41 85q0 31 15 60t42 46.5t61 17.5q12 0 26 -3q-35 -13 -55.5 -48t-20.5 -74q0 -40 23 -66.5t69 -26.5q52 0 83 42.5t31 100.5q0 42 -17 78.5t-52 59.5t-86 23q-90 0 -160.5 -81.5t-109.5 -203.5
t-39 -236q0 -101 32 -163.5t94 -62.5t113 48.5t85 115.5t49 125q2 9 10 55zM382.5 -158.5q26.5 67.5 49.5 172.5q-52 -55 -87 -118t-35 -97q0 -25 21 -25q25 0 51.5 67.5z" />
    <glyph glyph-name="H" unicode="H" horiz-adv-x="1006" 
d="M1796 718q-40 0 -83 14t-105 41q-56 24 -95 38.5t-81 23.5q5 -22 5 -39q0 -43 -21 -80.5t-62 -60.5t-100 -23q-56 0 -87 27.5t-31 66.5q0 34 22.5 65.5t67.5 51.5t108 20q25 0 37 -1q-9 37 -32.5 59t-60.5 22q-80 0 -152.5 -95.5t-127 -248.5t-84.5 -324q52 19 63 68
q3 -104 -73 -132q-19 -133 -19 -238q0 -117 23 -190t69 -85q18 -4 28 -4q37 0 61.5 25t24.5 72q0 13 -1 20q-3 24 11.5 38t35.5 14q20 0 35 -13.5t14 -38.5q-3 -65 -48.5 -103.5t-111.5 -38.5q-41 0 -87 17q-76 29 -114 130.5t-38 247.5q0 62 8 139q-46 5 -98 17.5
t-129 34.5l-26 -143q-26 -159 -98 -255.5t-215 -96.5q-83 0 -140.5 41t-85.5 108.5t-28 147.5q0 90 35 174t101 137t155 53q64 0 106 -29t59 -76q15 -1 27 -3t20 -3l54 298l2 14q5 33 5 47q0 23 -11.5 30t-44.5 7q-52 0 -48 -43q2 -18 -7 -27.5t-22 -9.5q-12 0 -20.5 7.5
t-8.5 20.5q0 3 2 11q8 34 42 44.5t103 10.5h178l-2 -18q-14 2 -18 2q-19 0 -28 -11.5t-14 -38.5l-8 -46l-57 -315q85 -15 134 -22.5t94 -8.5q27 177 92 338.5t160.5 262t206.5 99.5q61 -1 103 -30t60 -75q45 -6 86.5 -15.5t113.5 -28.5q79 -22 134.5 -33t106.5 -11
q36 0 74 8q-67 -59 -144 -59zM1318.5 675.5q27.5 24.5 42.5 63t15 79.5q0 9 -2 27q-30 2 -46 2q-49 0 -83 -17.5t-50.5 -44.5t-16.5 -56q0 -33 20.5 -55.5t56.5 -22.5t63.5 24.5zM473 281q-24 6 -35 8q3 -15 3 -31q0 -44 -20.5 -84t-61 -64.5t-96.5 -24.5q-52 0 -83.5 31
t-31.5 74q0 34 21.5 64t67.5 49t114 19h12q-9 34 -31 55.5t-56 22.5q-65 3 -113.5 -48t-73.5 -133.5t-25 -171.5q0 -113 40.5 -190t115.5 -77q94 0 144 92t78 240zM318 128q24 25 37.5 64t13.5 80q0 9 -2 27h-7q-49 0 -84.5 -20.5t-54 -51.5t-18.5 -62q0 -27 15.5 -44.5
t44.5 -17.5q31 0 55 25z" />
    <glyph glyph-name="I" unicode="I" horiz-adv-x="290" 
d="M330 720l-2 -18q-14 2 -18 2q-19 0 -28 -11.5t-14 -38.5l-8 -46l-90 -496l-2 -14q-7 -42 -7 -54q0 -15 6 -21.5t22 -6.5q5 0 25 2l-2 -18h-212l2 18q14 -2 18 -2q19 0 27.5 11.5t14.5 38.5l8 46l90 496l2 14q5 33 5 47q0 23 -11.5 30t-44.5 7q-52 0 -48 -43
q2 -18 -7 -27.5t-22 -9.5q-12 0 -20.5 7.5t-8.5 20.5q0 3 2 11q8 34 42 44.5t103 10.5h178z" />
    <glyph glyph-name="J" unicode="J" horiz-adv-x="662" 
d="M702 720l-2 -18q-14 2 -18 2q-19 0 -28 -11.5t-14 -38.5l-8 -46l-90 -496q-26 -159 -98 -255.5t-215 -96.5q-115 0 -172 70t-57 177q0 88 35.5 175t98 143t137.5 56q62 0 95 -45.5t33 -110.5q0 -45 -17 -86t-50 -66.5t-79 -25.5q-31 0 -61 11q38 13 68.5 50.5t47.5 85.5
t17 89q0 35 -13 56t-40 21q-48 0 -90.5 -57.5t-68 -145.5t-25.5 -172q0 -91 32.5 -148t99.5 -57q94 0 144 92t78 240l90 496l2 14q5 33 5 47q0 23 -11.5 30t-44.5 7q-52 0 -48 -43q2 -18 -7 -27.5t-22 -9.5q-12 0 -20.5 7.5t-8.5 20.5q0 3 2 11q8 34 42 44.5t103 10.5h178z
" />
    <glyph glyph-name="K" unicode="K" horiz-adv-x="530" 
d="M650 -169q-27 -13 -66 -13q-23 0 -49 6q-60 14 -97 51t-54 113l-99 444l-71 -79l-44 -241l-2 -14q-7 -42 -7 -54q0 -15 6 -21.5t22 -6.5q5 0 25 2l-2 -18h-212l2 18q14 -2 18 -2q19 0 27.5 11.5t14.5 38.5l8 46l90 496l2 14q5 33 5 47q0 23 -11.5 30t-44.5 7
q-52 0 -48 -43q2 -18 -7 -27.5t-22 -9.5q-12 0 -20.5 7.5t-8.5 20.5q0 3 2 11q8 34 42 44.5t103 10.5h178l-2 -18q-14 2 -18 2q-19 0 -28 -11.5t-14 -38.5l-8 -46l-41 -226l235 259q49 54 80.5 80.5t51.5 26.5q11 0 16.5 -5t5.5 -12q0 -9 -8.5 -16t-23.5 -7q-25 0 -45 -14
t-61 -59l-168 -185h81l101 -462q14 -61 29.5 -102.5t43.5 -49.5q11 -3 19 -3q14 0 22 7t13 15t8 12q14 17 32 17q11 0 18.5 -6t7.5 -16q0 -18 -27 -31z" />
    <glyph glyph-name="L" unicode="L" horiz-adv-x="349" 
d="M639 -85q-70 -77 -161 -77q-54 0 -94.5 22.5t-94.5 67.5q-52 44 -90 65.5t-88 21.5q-45 0 -66.5 -19.5t-21.5 -44.5q0 -12 4.5 -21t12.5 -12l-2 -10q-29 4 -44.5 19t-15.5 35q0 24 20.5 45.5t57.5 30.5l14 74l90 496l2 14q5 33 5 47q0 23 -11.5 30t-44.5 7q-52 0 -48 -43
q2 -18 -7 -27.5t-22 -9.5q-12 0 -20.5 7.5t-8.5 20.5q0 3 2 11q8 34 42 44.5t103 10.5h178l-2 -18q-14 2 -18 2q-19 0 -28 -11.5t-14 -38.5l-8 -46l-90 -496l-13 -71q52 -7 97 -23t107 -45q61 -29 105 -44t90 -15q39 0 79 13z" />
    <glyph glyph-name="M" unicode="M" horiz-adv-x="791" 
d="M829 702q-14 2 -18 2q-19 0 -28 -11.5t-14 -38.5l-8 -46l-90 -496l-23 -123q-1 -7 -6.5 -37t-5.5 -56q0 -61 38 -61q16 0 30 10t25 22t17 17q10 9 23 9q10 0 16.5 -6t6.5 -14q0 -20 -34.5 -36.5t-78.5 -16.5q-26 0 -45 5q-44 11 -67 37.5t-23 75.5q0 19 5 51l22 123
l90 496l11 57l-318 -665h-16l1 1l-149 676q-2 -4 -6 -23l-99 -545q-8 -43 -8 -61t7 -25t23 -7q5 0 21 2l-2 -18h-127l2 18q16 -2 20 -2q16 0 24 8.5t12.5 26.5t12.5 61l92 510q5 33 5 47q0 23 -11.5 30t-44.5 7q-52 0 -48 -43q2 -18 -7 -27.5t-22 -9.5q-12 0 -20.5 7.5
t-8.5 20.5q0 3 2 11q8 34 42 44.5t103 10.5h130l125 -575l275 575h149z" />
    <glyph glyph-name="N" unicode="N" 
d="M716.5 -137.5q-27.5 -12.5 -67.5 -12.5q-27 0 -47 5q-60 14 -99.5 49t-66.5 109l-243 672q-6 -12 -9 -31l-99 -545q-8 -43 -8 -61t7 -25t23 -7q5 0 21 2l-2 -18h-127l2 18q16 -2 20 -2q16 0 24 8.5t12.5 26.5t12.5 61l92 510q5 33 5 47q0 23 -11.5 30t-44.5 7
q-52 0 -48 -43q2 -18 -7 -27.5t-22 -9.5q-12 0 -20.5 7.5t-8.5 20.5q0 3 2 11q8 34 42 44.5t103 10.5h130l194 -541l96 503q14 76 37.5 111t44.5 35q9 0 14 -5.5t5 -13.5q0 -7 -5.5 -14t-14.5 -10q-26 -7 -39.5 -26t-24.5 -73l-102 -536l49 -137q22 -63 41 -100.5t47 -45.5
q11 -3 19 -3q14 0 22 7t13 15t8 12q13 17 32 17q11 0 18.5 -6t7.5 -16q0 -18 -27.5 -30.5z" />
    <glyph glyph-name="O" unicode="O" 
d="M530.5 604.5q48.5 -70.5 48.5 -178.5q0 -101 -39.5 -201.5t-112 -166t-166.5 -65.5q-84 0 -142 43.5t-87.5 116.5t-29.5 159q0 107 43.5 206.5t129 162.5t204.5 63q50 0 89 -15t59.5 -40t17.5 -53q-31 44 -73 63t-98 19q-88 0 -150.5 -61.5t-94 -158t-31.5 -198.5
q0 -79 18.5 -144.5t56 -105t89.5 -39.5q64 0 115.5 68.5t80 172t28.5 200.5q0 89 -25.5 144t-76.5 55q-46 0 -80 -38t-52 -96.5t-18 -118.5q0 -59 18.5 -100.5t52.5 -47.5q-24 -8 -40 -8q-47 0 -72 42.5t-25 107.5q0 66 25.5 131.5t76 108.5t119.5 43q93 0 141.5 -70.5z" />
    <glyph glyph-name="P" unicode="P" horiz-adv-x="527" 
d="M505 674q42 -46 42 -116q0 -61 -32 -120t-92 -97t-140 -38h-82l-37 -191l-3 -14q-5 -33 -5 -47q0 -21 9.5 -27t37.5 -6l-1 -18h-212l3 18q12 -2 17 -2q20 0 29 11.5t15 38.5l10 46l96 496l3 14q8 37 8 52q0 20 -12 26t-43 6q-53 0 -50 -43q1 -18 -8.5 -27.5t-22.5 -9.5
q-11 0 -19 7t-8 19q0 3 2 13q11 34 45 44.5t103 10.5h224q81 0 123 -46zM342.5 362q45.5 39 69 98t23.5 117q0 55 -21.5 90t-63.5 35h-16q-30 1 -43.5 -9t-20.5 -39l-10 -46l-55 -287l32 1q60 1 105.5 40z" />
    <glyph glyph-name="Q" unicode="Q" horiz-adv-x="1031" 
d="M1322 -239q-58 0 -116 16.5t-109.5 40.5t-127.5 64q-75 40 -127.5 64.5t-106.5 40.5q-105 -65 -218 -62q-43 0 -67.5 11.5t-24.5 27.5q0 15 21.5 28.5t65.5 22.5t109 9q45 0 84 -7q71 60 117 154.5t58 191.5q5 48 5 83q0 75 -16 136t-44 95t-64 33q-52 0 -96.5 -64.5
t-73.5 -161.5t-37 -191q71 -8 115 -27q-47 57 -47 126q0 39 15 71.5t41 50t56 14.5q47 -5 71.5 -49t24.5 -109q0 -71 -26.5 -142.5t-75.5 -118.5t-112 -47q-75 0 -115.5 56.5t-46.5 147.5l-56 -5q-97 -11 -156 -11q-96 0 -158.5 30t-83.5 107q62 -35 132 -53t133.5 -24
t154.5 -9l34 -1q2 99 41 198.5t108.5 164.5t158.5 65q65 0 116.5 -41t81 -112.5t29.5 -159.5q0 -26 -3 -55q-11 -96 -70.5 -193t-150.5 -161q48 -11 95 -25.5t130 -42.5q137 -47 230 -70.5t188 -23.5q88 0 172 26l4 -12q-130 -97 -262 -97zM553 270l-1 -30q0 -70 17.5 -112
t51.5 -42q42 0 75.5 53t52 129.5t18.5 142.5q0 45 -9.5 71t-28.5 26q-27 0 -46 -41t-19 -94q0 -54 22 -95q4 -8 4 -15q0 -9 -5.5 -14t-13.5 -5q-6 0 -12 3q-35 21 -106 23zM682 -1q-42 8 -80 8t-68.5 -7.5t-47.5 -18t-17 -20.5q0 -8 12.5 -13t36.5 -5q87 1 164 56z" />
    <glyph glyph-name="R" unicode="R" horiz-adv-x="531" 
d="M671 -141q0 -17 -25 -28.5t-62 -11.5q-27 0 -48 5q-63 14 -106 51t-71 113l-120 315h-38l-37 -191l-3 -14q-5 -33 -5 -47q0 -21 9.5 -27t37.5 -6l-1 -18h-212l3 18q12 -2 17 -2q20 0 29 11.5t15 38.5l10 46l96 496l3 14q8 37 8 52q0 20 -12 26t-43 6q-53 0 -50 -43
q1 -18 -8.5 -27.5t-22.5 -9.5q-11 0 -19 7t-8 19q0 3 2 13q11 34 45 44.5t103 10.5h224q81 0 123 -46t42 -116q0 -53 -25 -106t-72 -92t-111 -52l120 -320q22 -59 45 -101.5t52 -50.5q11 -3 18 -3q14 0 21 6.5t11 15t7 12.5q13 16 30 16t25 -13q3 -6 3 -11zM205 321l32 1
q60 1 105.5 40t69 98t23.5 117q0 55 -21.5 90t-63.5 35h-16q-30 1 -43.5 -9t-20.5 -39l-10 -46z" />
    <glyph glyph-name="S" unicode="S" horiz-adv-x="583" 
d="M212 208q32 -15 50 -42q13 -22 13 -39q0 -15 -8.5 -24.5t-20.5 -9.5t-21.5 10t-10.5 29q-2 31 -20 50.5t-51 19.5q-47 0 -75 -41.5t-28 -99.5q0 -53 25.5 -98t74.5 -65q41 -16 84 -16q56 0 105.5 24.5t79.5 68t30 96.5q0 20 -4 36q-9 44 -40 84t-88 97q-50 50 -79.5 85
t-50.5 78.5t-21 92.5q0 63 30 109.5t80 70.5t107 24q73 0 111.5 -28t65.5 -71q9 -14 15 -20.5t12 -6.5t11 5l15 -10l-93 -117l-14 11q21 24 21 64q0 35 -16.5 70.5t-46.5 58.5t-68 23q-53 0 -85 -42t-32 -100q0 -43 17 -82t42.5 -71t68.5 -78q57 -61 89 -105.5t43 -99.5
q7 -31 7 -62q0 -75 -40.5 -128t-106 -79t-139.5 -26q-63 0 -118 18q-80 26 -119.5 77t-39.5 109q0 43 21 81t60 61t90 23q36 0 68 -15z" />
    <glyph glyph-name="T" unicode="T" horiz-adv-x="650" 
d="M898 774q0 -55 -39.5 -92.5t-127.5 -37.5q-38 0 -91 9l-8 -45l-90 -496q-26 -159 -98 -255.5t-215 -96.5q-115 0 -172 70t-57 177q0 88 35.5 175t98 143t137.5 56q62 0 95 -45.5t33 -110.5q0 -45 -17 -86t-50 -66.5t-79 -25.5q-31 0 -61 11q38 13 68.5 50.5t47.5 85.5
t17 89q0 35 -13 56t-40 21q-48 0 -90.5 -57.5t-68 -145.5t-25.5 -172q0 -91 32.5 -148t99.5 -57q94 0 144 92t78 240l90 496l12 68q-148 37 -232 37q-70 0 -118.5 -24.5t-80.5 -80.5q8 98 53 140t121 42q51 0 109 -14t150 -43q81 -25 132.5 -38t93.5 -13q100 0 116 92h10z
" />
    <glyph glyph-name="U" unicode="U" 
d="M643 720l-2 -18q-14 2 -18 2q-19 0 -27.5 -11.5t-14.5 -38.5l-8 -46l-66 -369q-14 -75 -54.5 -129.5t-93.5 -82.5t-107 -28q-70 0 -116.5 47t-46.5 134q0 33 5 59l66 369l2 14q5 33 5 47q0 23 -11.5 30t-44.5 7q-52 0 -48 -43q2 -18 -7 -27.5t-22 -9.5q-12 0 -20.5 7.5
t-8.5 20.5q0 3 2 11q8 34 42 44.5t103 10.5h178l-2 -18q-14 2 -18 2q-19 0 -28 -11.5t-14 -38.5l-8 -46l-66 -369q-8 -51 -8 -84q0 -66 21 -101t54 -35q27 0 56.5 25.5t53.5 75.5t36 119l66 369l2 14q7 42 7 54q0 15 -6 21.5t-22 6.5q-5 0 -25 -2l2 18h212z" />
    <glyph glyph-name="V" unicode="V" horiz-adv-x="544" 
d="M649.5 821q4.5 -5 4.5 -12q0 -8 -5.5 -15.5t-16.5 -10.5q-27 -7 -42 -26t-29 -73l-175 -684h-101l-111 608l-3 14q-8 36 -17 54t-21 24t-33 6q-18 0 -30.5 -11t-12.5 -32q0 -13 -9 -20.5t-20 -7.5t-19 8t-8 22q1 55 125 55h178l5 -18q-14 2 -18 2q-28 0 -28 -26
q0 -10 3 -24l8 -46l105 -574l165 646q19 76 45 111t48 35q8 0 12.5 -5z" />
    <glyph glyph-name="W" unicode="W" horiz-adv-x="843" 
d="M948.5 821q4.5 -5 4.5 -12q0 -8 -5.5 -15.5t-16.5 -10.5q-27 -7 -42 -26t-29 -73l-175 -684h-101l-82 451l-116 -451h-101l-111 608l-3 14q-8 36 -17 54t-21 24t-33 6q-18 0 -30.5 -11t-12.5 -32q0 -13 -9 -20.5t-20 -7.5t-19 8t-8 22q1 55 125 55h178l5 -18q-14 2 -18 2
q-28 0 -28 -26q0 -10 3 -24l8 -46l105 -574l116 454l-42 232q-3 12 -3 28q0 33 16 57.5t53 24.5q59 0 59 -59q0 -21 -7 -51l-11 -41l118 -645l165 646q19 76 45 111t48 35q8 0 12.5 -5zM554 715l1 5q9 33 9 52q0 21 -9 21q-7 0 -7 -19t5 -54z" />
    <glyph glyph-name="X" unicode="X" horiz-adv-x="958" 
d="M1023 820.5q5 -4.5 5 -10.5q0 -8 -8 -16t-21 -9q-28 -3 -46 -23t-42 -76l-142 -328l88 -246q15 -41 24.5 -60t19.5 -27.5t25 -8.5q4 0 20 2l5 -18h-212l-3 18q24 0 33 4t9 17q0 9 -6 28.5t-15 44.5l-92 256q-100 -247 -168.5 -373.5t-134 -180.5t-152.5 -54
q-106 0 -158 65.5t-52 167.5q0 89 36.5 179.5t98 149.5t133.5 59q65 0 100.5 -49t35.5 -117q0 -67 -34 -116t-92 -49q-25 0 -48 8q58 19 88 69.5t30 109.5q0 54 -23 92t-60 38q-56 0 -104.5 -58t-78 -146.5t-29.5 -173.5q0 -94 38.5 -153.5t119.5 -59.5q85 0 148 54.5
t128 179.5t171 379l-79 219l-5 14q-14 36 -26.5 54t-25.5 24t-34 6q-15 0 -25.5 -8.5t-10.5 -24.5q0 -6 1 -10q2 -13 -5.5 -20.5t-19.5 -7.5q-13 0 -23 9.5t-10 27.5q0 48 117 48h178l8 -18q-14 2 -19 2q-24 0 -24 -18q0 -11 8 -32l16 -46l83 -230l131 304q32 75 59.5 109
t56.5 34q9 0 14 -4.5z" />
    <glyph glyph-name="Y" unicode="Y" horiz-adv-x="544" 
d="M649.5 821q4.5 -5 4.5 -12q0 -8 -5.5 -15.5t-16.5 -10.5q-27 -7 -42 -26t-29 -73l-175 -684l-5 -20q-16 -63 -32.5 -110t-47 -83.5t-75.5 -36.5q-48 0 -72.5 19t-24.5 43q0 16 10 27t26 11q17 0 22.5 -7t5.5 -21l-1 -22q0 -16 7.5 -24.5t30.5 -8.5q38 0 65 37.5t41.5 80
t33.5 115.5h-85l-111 608l-3 14q-8 36 -17 54t-21 24t-33 6q-18 0 -30.5 -11t-12.5 -32q0 -13 -9 -20.5t-20 -7.5t-19 8t-8 22q1 55 125 55h178l5 -18q-14 2 -18 2q-28 0 -28 -26q0 -10 3 -24l8 -46l105 -574l165 646q19 76 45 111t48 35q8 0 12.5 -5z" />
    <glyph glyph-name="Z" unicode="Z" horiz-adv-x="595" 
d="M434.5 385q64.5 -34 96 -93t31.5 -131q0 -83 -40 -162t-114 -129t-171 -50q-80 0 -133 24.5t-78.5 64t-25.5 85.5q0 47 25 90t70 69.5t104 26.5q74 0 113.5 -31t39.5 -74q0 -41 -34 -75t-92 -42q29 18 45.5 50t16.5 65q0 36 -21 60t-61 24q-36 0 -64.5 -24t-44 -62
t-15.5 -80q0 -64 38 -108t112 -44q70 0 119.5 40t74.5 105t25 138q0 69 -22 130t-66.5 102t-107.5 48h-2q-7 0 -13.5 -1t-11.5 -1t-5 3q0 5 3 6.5t9 2.5q53 33 85.5 68t69.5 86q26 36 44.5 57t42.5 38q-34 -13 -86 -13q-35 0 -101 8q-53 7 -84 7q-37 0 -59 -11.5t-29 -39.5
q-1 -4 -1 -11q0 -22 18 -37.5t42 -15.5q22 0 42 15.5t32 48.5q3 -16 3 -31q0 -39 -22 -60.5t-53 -21.5q-33 0 -59 25.5t-26 69.5q0 12 1 18q14 118 192 118q15 0 43 -2q32 -2 79 -8q70 -8 99 -8q40 0 69 8l5 -20q-29 -19 -52 -44.5t-56 -68.5q-49 -65 -91 -105.5t-109 -67.5
q96 5 160.5 -29z" />
    <glyph glyph-name="bracketleft" unicode="[" horiz-adv-x="268" 
d="M263 726h-61l-135 -731h68l-5 -30h-100l145 791h93z" />
    <glyph glyph-name="backslash" unicode="\" horiz-adv-x="188" 
d="M77 720l81 -720h-32l-81 720h32z" />
    <glyph glyph-name="bracketright" unicode="]" horiz-adv-x="262" 
d="M262 756l-145 -791h-97l5 30h65l135 731h-72l5 30h104z" />
    <glyph glyph-name="asciicircum" unicode="^" horiz-adv-x="240" 
d="M210 512h-35l-45 128l-63 -128h-37l83 169h37z" />
    <glyph glyph-name="underscore" unicode="_" horiz-adv-x="336" 
d="M336 0l-10 -53h-326l10 53h326z" />
    <glyph glyph-name="a" unicode="a" horiz-adv-x="513" 
d="M513 132q-61 -132 -131 -132q-82 0 -82 89q0 22 4 42l41 230q-49 -169 -96.5 -265t-112.5 -96q-53 0 -79.5 46t-26.5 120q0 76 27.5 155t77 131t112.5 52q34 0 60.5 -28t36.5 -68q17 57 25 92h101l-66 -369q-11 -66 -11 -85q0 -12 3.5 -17t12.5 -5q36 0 86 108h18z
M245.5 124.5q45.5 100.5 89.5 249.5q-3 42 -28 78t-58 36q-30 0 -57 -61.5t-44 -148.5t-17 -157q0 -97 32 -97q37 0 82.5 100.5z" />
    <glyph glyph-name="b" unicode="b" horiz-adv-x="559" 
d="M462.5 454q26.5 -46 26.5 -120q0 -76 -27.5 -155t-77 -131t-112.5 -52q-34 0 -60.5 28t-36.5 68q-17 -57 -25 -92h-100l114 627q6 32 6 50q0 17 -7 25t-22 8q-11 0 -39 -7l2 17l25 4q62 11 99 25.5t54 50.5h13l-31 -173l-86 -475q47 163 94 255.5t111 92.5q53 0 79.5 -46
zM327 73.5q27 61.5 44 148.5t17 157q0 97 -32 97q-37 0 -82.5 -100.5t-89.5 -249.5q3 -42 28 -78t58 -36q30 0 57 61.5z" />
    <glyph glyph-name="c" unicode="c" horiz-adv-x="407" 
d="M292 460q0 27 -25 33q-4 1 -12 1q-37 0 -68.5 -45.5t-50.5 -116t-19 -138.5t21 -116t63 -59q13 -4 30 -4q82 0 152 128h14q-27 -67 -75 -109.5t-113 -42.5q-14 0 -21 1q-85 10 -127 67t-42 139q0 74 31.5 146.5t87.5 119t125 46.5q45 0 77.5 -28t32.5 -71q0 -18 -6 -36
q-8 -25 -25 -37.5t-36 -12.5q-17 0 -28.5 9.5t-11.5 26.5q0 11 4 20q22 53 22 79z" />
    <glyph glyph-name="d" unicode="d" horiz-adv-x="523" 
d="M493 132h18q-61 -132 -131 -132q-82 0 -82 89q0 22 4 42l39 217q-47 -163 -94 -255.5t-111 -92.5q-53 0 -79.5 46t-26.5 120q0 76 27.5 155t77 131t112.5 52q34 0 60.5 -28t36.5 -68l25 91l23 128q6 32 6 50q0 17 -7 25t-22 8q-11 0 -39 -7l2 17l25 4q62 11 99 25.5
t54 50.5h13l-31 -173l-90 -496q-11 -66 -11 -85q0 -12 3.5 -17t12.5 -5q36 0 86 108zM245.5 124.5q45.5 100.5 89.5 249.5q-3 42 -28 78t-58 36q-30 0 -57 -61.5t-44 -148.5t-17 -157q0 -97 32 -97q37 0 82.5 100.5z" />
    <glyph glyph-name="e" unicode="e" horiz-adv-x="407" 
d="M397 143q-27 -67 -75 -109.5t-113 -42.5q-14 0 -21 1q-85 10 -127 67.5t-42 139.5q0 73 31.5 145.5t87 119t123.5 46.5q50 0 82 -32t32 -81q0 -21 -8 -48q-21 -66 -86 -103t-164 -45q-2 -71 19 -121t65 -61q13 -4 30 -4q82 0 152 128h14zM258 494q-36 0 -67 -41
t-50.5 -106t-22.5 -131q65 22 107 57.5t61.5 75.5t19.5 76q0 28 -10.5 46.5t-28.5 21.5z" />
    <glyph glyph-name="f" unicode="f" horiz-adv-x="283" 
d="M442 769.5q31 -28.5 31 -70.5q0 -16 -6 -34q-8 -25 -25 -37.5t-36 -12.5q-17 0 -29 9.5t-12 25.5q0 8 5 21q22 53 22 79q0 27 -25 33q-4 1 -13 1q-36 0 -62.5 -43.5t-39.5 -113.5l-18 -98h79l-6 -29h-78l-101 -556q-17 -96 -70.5 -147.5t-119.5 -51.5q-48 0 -88 25l13 18
q22 -16 46 -16q39 0 71 42.5t44 109.5l105 576h-69l6 29h68l14 78q18 98 77.5 148t141.5 45q44 -2 75 -30.5z" />
    <glyph glyph-name="g" unicode="g" horiz-adv-x="500" 
d="M427 258l-25 -141q-24 -138 -42.5 -207.5t-55.5 -114.5t-102 -45q-57 0 -57 50q0 45 43.5 116t99.5 128l15 83q11 64 26 147q3 20 7.5 40.5t7.5 41.5q-32 -108 -60 -183t-65.5 -124t-82.5 -49q-53 0 -79.5 46t-26.5 120q0 76 27.5 155t77 131t112.5 52q34 0 60.5 -28
t36.5 -68q17 57 25 92h101zM245.5 124.5q45.5 100.5 89.5 249.5q-3 42 -28 78t-58 36q-30 0 -57 -61.5t-44 -148.5t-17 -157q0 -97 32 -97q37 0 82.5 100.5zM231.5 -158.5q26.5 67.5 49.5 172.5q-52 -55 -87 -118t-35 -97q0 -25 21 -25q25 0 51.5 67.5z" />
    <glyph glyph-name="h" unicode="h" horiz-adv-x="528" 
d="M528 132q-61 -132 -131 -132q-82 0 -82 89q0 22 4 42l42 238q11 66 11 85q0 12 -3.5 17t-12.5 5q-45 0 -102.5 -146.5t-103.5 -329.5h-100l114 627q6 32 6 50q0 17 -7 25t-22 8q-11 0 -39 -7l2 17l25 4q62 11 99 25.5t54 50.5h13l-31 -173l-86 -475q47 163 94 255.5
t111 92.5q82 0 82 -89q0 -22 -4 -42l-42 -238q-11 -66 -11 -85q0 -12 3.5 -17t12.5 -5q36 0 86 108h18z" />
    <glyph glyph-name="i" unicode="i" horiz-adv-x="276" 
d="M137.5 572q-17.5 18 -17.5 43t17.5 42.5t42.5 17.5t43 -17.5t18 -42.5t-17.5 -43t-43.5 -18q-25 0 -42.5 18zM276 132q-61 -132 -131 -132q-82 0 -82 89q0 22 4 42l42 238q11 66 11 85q0 12 -3.5 17t-12.5 5q-36 0 -86 -108h-18q61 132 131 132q82 0 82 -89q0 -22 -4 -42
l-42 -238q-11 -66 -11 -85q0 -12 3.5 -17t12.5 -5q36 0 86 108h18z" />
    <glyph glyph-name="j" unicode="j" horiz-adv-x="271" 
d="M223 657.5q18 -17.5 18 -42.5t-17.5 -43t-43.5 -18q-25 0 -42.5 18t-17.5 43t17.5 42.5t42.5 17.5t43 -17.5zM213 411q0 -22 -4 -42l-44 -252q-24 -138 -42.5 -207.5t-55.5 -114.5t-102 -45q-57 0 -57 50q0 45 43.5 116t99.5 128l15 83q18 101 25 139l18 103q11 66 11 85
q0 12 -3.5 17t-12.5 5q-36 0 -86 -108h-18q61 132 131 132q82 0 82 -89zM-5.5 -158.5q26.5 67.5 49.5 172.5q-52 -55 -87 -118t-35 -97q0 -25 21 -25q25 0 51.5 67.5z" />
    <glyph glyph-name="k" unicode="k" horiz-adv-x="496" 
d="M496 134q-23 -49 -38 -74.5t-37.5 -41.5t-55.5 -16q-106 0 -119 131l-14 139q-43 -119 -82 -272h-100l114 627q6 32 6 50q0 17 -7 25t-22 8q-11 0 -39 -7l2 17l25 4q62 11 99 25.5t54 50.5h13l-31 -173l-86 -475q24 86 50 157v1h1q33 89 70.5 139.5t83.5 50.5
q36 0 58.5 -20t22.5 -49q0 -32 -13.5 -50.5t-40.5 -18.5q-24 0 -37.5 12.5t-13.5 34.5q0 8 5 33q4 18 4 22q0 12 -12 12q-24 0 -52 -45t-58 -121h84l16 -177q4 -42 17 -74.5t35 -32.5q19 0 36.5 25.5t43.5 82.5h18z" />
    <glyph glyph-name="l" unicode="l" horiz-adv-x="275" 
d="M245 132h18q-61 -132 -131 -132q-82 0 -82 89q0 22 4 42l90 496q6 32 6 50q0 17 -7 25t-22 8q-11 0 -39 -7l2 17l25 4q62 11 99 25.5t54 50.5h13l-31 -173l-90 -496q-11 -66 -11 -85q0 -12 3.5 -17t12.5 -5q36 0 86 108z" />
    <glyph glyph-name="m" unicode="m" horiz-adv-x="766" 
d="M766 132q-61 -132 -131 -132q-82 0 -82 89q0 22 4 42l42 238q11 66 11 85q0 12 -3.5 17t-12.5 5q-45 0 -102.5 -146.5t-103.5 -329.5h-100l66 369q11 66 11 85q0 12 -3.5 17t-12.5 5q-45 0 -102.5 -146.5t-103.5 -329.5h-100l66 369q11 66 11 85q0 12 -3.5 17t-12.5 5
q-36 0 -86 -108h-18q61 132 131 132q82 0 82 -89q0 -22 -4 -42l-39 -221q47 165 94 258.5t112 93.5q82 0 82 -89q0 -22 -4 -42l-39 -221q47 165 94 258.5t112 93.5q82 0 82 -89q0 -22 -4 -42l-42 -238q-11 -66 -11 -85q0 -12 3.5 -17t12.5 -5q36 0 86 108h18z" />
    <glyph glyph-name="n" unicode="n" horiz-adv-x="521" 
d="M521 132q-61 -132 -131 -132q-82 0 -82 89q0 22 4 42l42 238q11 66 11 85q0 12 -3.5 17t-12.5 5q-45 0 -102.5 -146.5t-103.5 -329.5h-100l66 369q11 66 11 85q0 12 -3.5 17t-12.5 5q-36 0 -86 -108h-18q61 132 131 132q82 0 82 -89q0 -22 -4 -42l-39 -221
q47 165 94 258.5t112 93.5q82 0 82 -89q0 -22 -4 -42l-42 -238q-11 -66 -11 -85q0 -12 3.5 -17t12.5 -5q36 0 86 108h18z" />
    <glyph glyph-name="o" unicode="o" horiz-adv-x="425" 
d="M70.5 380.5q31.5 59.5 78 94.5t97.5 35q45 0 81.5 -29t57 -79t20.5 -111q0 -26 -2 -40q-8 -70 -39.5 -129.5t-78 -94.5t-96.5 -35q-46 0 -82.5 28.5t-57 78.5t-20.5 112q0 26 2 40q8 70 39.5 129.5zM134 192q0 -80 17.5 -132t45.5 -51q22 0 43 33.5t36.5 89t21.5 121.5
q2 20 2 57q0 80 -17.5 132t-45.5 51q-22 0 -43 -33.5t-36.5 -89t-21.5 -121.5q-2 -20 -2 -57z" />
    <glyph glyph-name="p" unicode="p" horiz-adv-x="551" 
d="M454.5 454q26.5 -46 26.5 -120q0 -76 -27.5 -155t-77 -131t-112.5 -52q-34 0 -60.5 28t-36.5 68q-13 -43 -24 -89l-46 -253h-100l112 619q11 66 11 85q0 12 -3.5 17t-12.5 5q-36 0 -86 -108h-18q61 132 131 132q82 0 82 -89q0 -22 -4 -42l-39 -216q47 162 94 254.5
t111 92.5q53 0 79.5 -46zM319 73.5q27 61.5 44 148.5t17 157q0 97 -32 97q-37 0 -82.5 -100.5t-89.5 -249.5q3 -42 28 -78t58 -36q30 0 57 61.5z" />
    <glyph glyph-name="q" unicode="q" horiz-adv-x="491" 
d="M450 -118h18q-61 -132 -131 -132q-82 0 -82 89q0 22 4 42l88 487q-32 -111 -60.5 -188.5t-66.5 -128.5t-84 -51q-53 0 -79.5 46t-26.5 120q0 76 27.5 155t77 131t112.5 52q34 0 60.5 -28t36.5 -68q17 57 25 92h102l-112 -619q-11 -66 -11 -85q0 -12 3.5 -17t12.5 -5
q36 0 86 108zM245.5 124.5q45.5 100.5 89.5 249.5q-3 42 -28 78t-58 36q-30 0 -57 -61.5t-44 -148.5t-17 -157q0 -97 32 -97q37 0 82.5 100.5z" />
    <glyph glyph-name="r" unicode="r" horiz-adv-x="487" 
d="M434.5 480q22.5 -20 22.5 -49q0 -32 -13.5 -50.5t-40.5 -18.5q-24 0 -37.5 12.5t-13.5 34.5q0 8 5 33q4 18 4 22q0 12 -12 12q-45 0 -102.5 -146.5t-103.5 -329.5h-100l66 369q11 66 11 85q0 12 -3.5 17t-12.5 5q-36 0 -86 -108h-18q61 132 131 132q82 0 82 -89
q0 -22 -4 -42l-39 -221q47 165 94 258.5t112 93.5q36 0 58.5 -20z" />
    <glyph glyph-name="s" unicode="s" horiz-adv-x="381" 
d="M314.5 19.5q-55.5 -37.5 -153.5 -37.5q-78 0 -115.5 28.5t-37.5 71.5q0 25 13 49.5t35.5 39.5t48.5 15q29 0 55 -18q-37 0 -61 -28t-24 -64q0 -34 22.5 -57t65.5 -23q44 0 73.5 32t29.5 76q0 18 -4 31q-9 32 -29 58.5t-58 66.5q-47 48 -70.5 84t-20.5 81l1 10
q-13 -26 -23.5 -58t-24.5 -86q-2 -14 -8 -32h-18l9 31q22 78 41 123t50 71q34 31 97 31q23 0 36 -2q38 -5 59 -28t21 -49q0 -16 -8 -26.5t-23 -10.5q-6 0 -10 1q-18 4 -23.5 14.5t-5.5 27.5q0 5 0.5 23t-9 27.5t-31.5 9.5q-23 0 -37 -16t-14 -40q0 -31 21.5 -60t68.5 -76
q39 -38 61.5 -64t39 -59t16.5 -69q0 -61 -55.5 -98.5z" />
    <glyph glyph-name="t" unicode="t" horiz-adv-x="272" 
d="M134 131q-11 -66 -11 -85q0 -12 3.5 -17t12.5 -5q36 0 86 108h18q-61 -132 -131 -132q-82 0 -82 89q0 22 4 42l55 305q1 5 4 18t3 22q0 24 -23 24h-33l6 29q54 0 100.5 45t73.5 102h13l-27 -147h66l-6 -29h-65z" />
    <glyph glyph-name="u" unicode="u" horiz-adv-x="521" 
d="M521 132q-61 -132 -131 -132q-82 0 -82 89q0 22 4 42l39 221q-47 -165 -94 -258.5t-112 -93.5q-82 0 -82 89q0 22 4 42l42 238q11 66 11 85q0 12 -3.5 17t-12.5 5q-36 0 -86 -108h-18q61 132 131 132q82 0 82 -89q0 -22 -4 -42l-42 -238q-11 -66 -11 -85q0 -12 3.5 -17
t12.5 -5q45 0 102.5 146.5t103.5 329.5h100l-66 -369q-11 -66 -11 -85q0 -12 3.5 -17t12.5 -5q36 0 86 108h18z" />
    <glyph glyph-name="v" unicode="v" horiz-adv-x="427" 
d="M396.5 547q7.5 9 19.5 9q14 0 22.5 -12.5t5.5 -34.5q-17 -95 -66.5 -216t-112.5 -207t-120 -86q-82 0 -82 89q0 22 4 42l42 238q11 66 11 85q0 12 -3.5 17t-12.5 5q-36 0 -86 -108h-18q61 132 131 132q82 0 82 -89q0 -22 -4 -42l-42 -238q-11 -66 -11 -85q0 -12 3.5 -17
t12.5 -5q26 0 68 55t85 138.5t69 163.5q12 36 12 61q0 18 -7 39q-8 22 -9 41q-1 16 6.5 25z" />
    <glyph glyph-name="w" unicode="w" horiz-adv-x="767" 
d="M767 132q-61 -132 -131 -132q-82 0 -82 89q0 22 4 42l39 221q-47 -165 -94 -258.5t-112 -93.5q-82 0 -82 89q0 22 4 42l41 230q-49 -169 -96.5 -265t-112.5 -96q-82 0 -82 89q0 22 4 42l42 238q11 66 11 85q0 12 -3.5 17t-12.5 5q-36 0 -86 -108h-18q61 132 131 132
q82 0 82 -89q0 -22 -4 -42l-42 -238q-11 -66 -11 -85q0 -12 3.5 -17t12.5 -5q45 0 102.5 146.5t103.5 329.5h101l-66 -369q-11 -66 -11 -85q0 -12 3.5 -17t12.5 -5q45 0 102.5 146.5t103.5 329.5h100l-66 -369q-11 -66 -11 -85q0 -12 3.5 -17t12.5 -5q36 0 86 108h18z" />
    <glyph glyph-name="x" unicode="x" horiz-adv-x="442" 
d="M442 132q-14 -50 -24.5 -75t-30 -41t-52.5 -16q-54 0 -93.5 32.5t-50.5 98.5l-16 94q-22 -42 -58 -122l-50 -103h-14l38 80q44 94 80 167l-21 121q-9 51 -23.5 79t-38.5 28q-19 0 -34 -25.5t-36 -82.5h-18q18 49 31 74.5t34 41.5t54 16q53 0 86 -31t45 -100l26 -148
q44 86 73 149q20 43 20 70q0 9 -1.5 25t-0.5 33q1 16 10.5 25.5t20.5 9.5q10 0 17.5 -8t7.5 -22q0 -7 -3 -18q-9 -30 -81 -170l-27 -54l-32 -63l12 -66q9 -49 28 -78t44 -29q19 0 31.5 25.5t28.5 82.5h18z" />
    <glyph glyph-name="y" unicode="y" horiz-adv-x="508" 
d="M435 258l-25 -141q-24 -138 -42.5 -207.5t-55.5 -114.5t-102 -45q-57 0 -57 50q0 45 43.5 116t99.5 128l15 83q5 31 17 93q17 96 22 128q-47 -163 -94 -255.5t-111 -92.5q-82 0 -82 89q0 22 4 42l42 238q11 66 11 85q0 12 -3.5 17t-12.5 5q-36 0 -86 -108h-18
q61 132 131 132q82 0 82 -89q0 -22 -4 -42l-42 -238q-11 -66 -11 -85q0 -12 3.5 -17t12.5 -5q45 0 102.5 146.5t103.5 329.5h100zM239.5 -158.5q26.5 67.5 49.5 172.5q-52 -55 -87 -118t-35 -97q0 -25 21 -25q25 0 51.5 67.5z" />
    <glyph glyph-name="z" unicode="z" horiz-adv-x="438" 
d="M386.5 202.5q21.5 -33.5 21.5 -84.5q0 -75 -42.5 -162t-112.5 -146.5t-149 -59.5q-35 0 -56 18t-21 47q0 49 61.5 107.5t189.5 109.5q21 65 21 108q0 39 -17 50q-11 8 -29 8q-21 0 -43.5 -12.5t-42.5 -38.5h-121q62 110 98.5 184.5t36.5 114.5q0 30 -26 30
q-36 0 -66.5 -27.5t-63.5 -80.5h-18q40 65 79 98.5t88 33.5q92 0 92 -84q0 -74 -74 -222q25 25 53.5 39t56.5 14q7 0 19 -2q44 -9 65.5 -42.5zM194.5 -144q46.5 72 76.5 157q-113 -47 -166 -100.5t-53 -96.5q0 -20 12 -32.5t31 -12.5q10 0 16 2q37 11 83.5 83z" />
    <glyph glyph-name="braceleft" unicode="{" horiz-adv-x="281" 
d="M200.5 697.5q-26.5 -36.5 -35 -87t-13.5 -129.5q-4 -78 -13 -116t-37 -38q27 0 27 -41q0 -26 -13 -93q-8 -45 -12.5 -75t-4.5 -59q0 -57 24.5 -89.5t85.5 -32.5h1l-2 -22h-1q-73 0 -111.5 31.5t-50.5 79.5t-12 113l1 49q1 15 1 42q0 41 -7.5 62t-27.5 21l2 23
q26 0 39.5 33.5t28.5 107.5q18 86 37.5 141.5t61.5 97t112 41.5l-3 -22q-51 -1 -77.5 -37.5z" />
    <glyph glyph-name="bar" unicode="|" horiz-adv-x="153" 
d="M62 0h-32l131 720h32z" />
    <glyph glyph-name="braceright" unicode="}" horiz-adv-x="281" 
d="M80.5 -25.5q26.5 36.5 35 87t13.5 129.5q4 78 13 116t37 38q-27 0 -27 41q0 26 13 93q8 45 12.5 75.5t4.5 58.5q0 57 -24.5 89.5t-85.5 32.5h-1l2 22h1q73 0 111.5 -31.5t50.5 -79.5t12 -113l-1 -49q-1 -15 -1 -42q0 -41 7.5 -62t27.5 -21l-2 -23q-26 0 -39.5 -33.5
t-28.5 -107.5q-18 -86 -37.5 -141.5t-61.5 -97t-112 -41.5l3 22q51 1 77.5 37.5z" />
    <glyph glyph-name="asciitilde" unicode="~" horiz-adv-x="367" 
d="M255 203q-21 0 -43.5 7t-56.5 21q-33 14 -54.5 20.5t-41.5 6.5q-18 0 -29 -5l2 10q33 19 69 19q23 0 45 -6.5t51 -19.5q30 -12 46.5 -17t33.5 -5q32 0 60 24l-2 -10q-33 -45 -80 -45z" />
    <glyph glyph-name="uni00A0" unicode="&#xa0;" horiz-adv-x="200" 
 />
    <glyph glyph-name="brokenbar" unicode="&#xa6;" horiz-adv-x="193" 
d="M161 720h32l-40 -222h-32zM62 0h-32l49 268h32z" />
    <glyph glyph-name="copyright" unicode="&#xa9;" horiz-adv-x="244" 
d="M59 184.5q29 28.5 69 28.5q36 0 61 -25.5t25 -60.5q0 -39 -28.5 -68t-66.5 -29t-63.5 25t-25.5 62q0 39 29 67.5zM70.5 71.5q19.5 -19.5 49.5 -19.5t51.5 22t21.5 52q0 27 -19 46t-47 19q-31 0 -53.5 -21t-22.5 -50t19.5 -48.5zM141.5 76q-10.5 -6 -20.5 -6q-18 0 -30 14
t-12 35q0 22 14 37.5t33 15.5q10 0 19.5 -5t14.5 -13l-17 -11q-6 11 -17 11q-12 0 -19.5 -10.5t-7.5 -25.5q0 -12 6 -20.5t16 -8.5q6 0 11.5 3t8.5 9l17 -9q-6 -10 -16.5 -16z" />
    <glyph glyph-name="guillemotleft" unicode="&#xab;" horiz-adv-x="390" 
d="M268 429l-189 -152l178 -153h-47l-180 153l191 152h47zM360 429l-189 -152l178 -153h-47l-180 153l191 152h47z" />
    <glyph glyph-name="logicalnot" unicode="&#xac;" horiz-adv-x="328" 
d="M298 290l-23 -141h-30l18 111h-233l5 30h263z" />
    <glyph glyph-name="uni00AD" unicode="&#xad;" horiz-adv-x="333" 
d="M303 290l-10 -53h-263l10 53h263z" />
    <glyph glyph-name="registered" unicode="&#xae;" horiz-adv-x="185" 
d="M138.5 683q16.5 -17 16.5 -41q0 -27 -19.5 -47t-46.5 -20q-25 0 -42 17t-17 42q0 27 20 46.5t47 19.5q25 0 41.5 -17zM129 674q-13 13 -32 13q-22 0 -38 -15.5t-16 -37.5q0 -20 13 -33t33 -13q21 0 37 16t16 38q0 19 -13 32zM124 651q-1 -11 -7.5 -16t-20.5 -5h-2l24 -25
h-16l-24 23l-2 -23h-11l6 65h28q25 0 25 -19zM109 643.5q3 2.5 4 6.5q0 5 -2.5 7.5t-12.5 2.5h-17l-2 -19h18q9 0 12 2.5z" />
    <glyph glyph-name="degree" unicode="&#xb0;" horiz-adv-x="293" 
d="M63.5 473.5q-28.5 33.5 -28.5 83.5q0 43 19 80.5t51 59.5t68 22q43 0 71.5 -34t28.5 -85q0 -42 -19.5 -79t-51 -59t-66.5 -22q-44 0 -72.5 33.5zM170.5 484.5q13.5 20.5 22 54t8.5 69.5q0 38 -10 63t-26 25q-14 0 -27.5 -20.5t-22 -54.5t-8.5 -70q0 -38 10 -62.5
t26 -24.5q14 0 27.5 20.5z" />
    <glyph glyph-name="plusminus" unicode="&#xb1;" horiz-adv-x="328" 
d="M125 137l22 123h-117l5 30h118l19 104h32l-19 -104h113l-5 -30h-114l-22 -123h-32zM30 69l5 30h263l-5 -30h-263z" />
    <glyph glyph-name="periodcentered" unicode="&#xb7;" horiz-adv-x="229" 
d="M85 279.5q-15 14.5 -15 36.5q0 24 17 41t41 17q22 0 36.5 -14.5t14.5 -35.5q0 -25 -17 -42t-40 -17q-22 0 -37 14.5z" />
    <glyph glyph-name="guillemotright" unicode="&#xbb;" horiz-adv-x="401" 
d="M87 429l181 -152l-191 -153h-47l189 153l-179 152h47zM190 429l181 -152l-191 -153h-47l189 153l-179 152h47z" />
    <glyph glyph-name="multiply" unicode="&#xd7;" horiz-adv-x="281" 
d="M251 364l-93 -103l76 -98l-38 -1l-59 76l-69 -76l-38 1l90 98l-79 103h37l62 -80l74 80h37z" />
    <glyph glyph-name="divide" unicode="&#xf7;" horiz-adv-x="328" 
d="M143 343.5q-15 14.5 -15 36.5q0 24 17 41t41 17q22 0 36.5 -14.5t14.5 -35.5q0 -25 -17 -42t-40 -17q-22 0 -37 14.5zM298 290l-5 -30h-263l5 30h263zM102 117.5q-15 14.5 -15 36.5q0 24 17 41t41 17q22 0 36.5 -14.5t14.5 -35.5q0 -25 -17 -42t-40 -17q-22 0 -37 14.5z
" />
    <glyph glyph-name="endash" unicode="&#x2013;" horiz-adv-x="451" 
d="M421 290l-10 -53h-381l10 53h381z" />
    <glyph glyph-name="emdash" unicode="&#x2014;" 
d="M570 290l-10 -53h-530l10 53h530z" />
    <glyph glyph-name="quoteleft" unicode="&#x2018;" horiz-adv-x="146" 
d="M110 550h-100l62 170h54z" />
    <glyph glyph-name="quoteright" unicode="&#x2019;" horiz-adv-x="146" 
d="M26 720h100l-62 -170h-54z" />
    <glyph glyph-name="quotesinglbase" unicode="&#x201a;" horiz-adv-x="241" 
d="M86 11q-14 14 -14 35q0 25 17 42.5t42 17.5q30 0 45.5 -20.5t15.5 -52.5q0 -29 -12.5 -58.5t-34.5 -49t-51 -19.5q15 9 28 32.5t13 41.5q0 17 -13 17q-22 0 -36 14z" />
    <glyph glyph-name="quotedblleft" unicode="&#x201c;" horiz-adv-x="286" 
d="M110 550h-100l62 170h54zM240 550h-100l62 170h54z" />
    <glyph glyph-name="quotedblright" unicode="&#x201d;" horiz-adv-x="286" 
d="M26 720h100l-62 -170h-54zM156 720h100l-62 -170h-54z" />
    <glyph glyph-name="quotedblbase" unicode="&#x201e;" horiz-adv-x="241" 
d="M176.5 85.5q15.5 -20.5 15.5 -52.5q0 -29 -12.5 -58.5t-34.5 -49t-51 -19.5q15 9 28 32.5t13 41.5q0 17 -13 17q-22 0 -36 14t-14 35q0 25 17 42.5t42 17.5q30 0 45.5 -20.5z" />
    <glyph glyph-name="dagger" unicode="&#x2020;" horiz-adv-x="344" 
d="M314 458l-5 -30h-123l-55 -299h-32l55 299h-108l5 30h109l24 132h32l-24 -132h122z" />
    <glyph glyph-name="daggerdbl" unicode="&#x2021;" horiz-adv-x="344" 
d="M309 428h-123l-16 -87h128l-5 -30h-128l-34 -182h-32l34 182h-103l5 30h103l16 87h-108l5 30h109l24 132h32l-24 -132h122z" />
    <glyph glyph-name="bullet" unicode="&#x2022;" horiz-adv-x="313" 
d="M96 248.5q-26 25.5 -26 64.5q0 43 30 73t73 30q38 0 64 -25.5t26 -63.5q0 -43 -30 -73.5t-71 -30.5q-40 0 -66 25.5z" />
    <glyph glyph-name="ellipsis" unicode="&#x2026;" horiz-adv-x="229" 
d="M164.5 91.5q14.5 -14.5 14.5 -35.5q0 -25 -17 -42t-40 -17q-22 0 -37 14.5t-15 36.5q0 24 17 41t41 17q22 0 36.5 -14.5z" />
    <glyph glyph-name="guilsinglleft" unicode="&#x2039;" horiz-adv-x="298" 
d="M268 429l-189 -152l178 -153h-47l-180 153l191 152h47z" />
    <glyph glyph-name="guilsinglright" unicode="&#x203a;" horiz-adv-x="298" 
d="M87 429l181 -152l-191 -153h-47l189 153l-179 152h47z" />
    <glyph glyph-name="trademark" unicode="&#x2122;" horiz-adv-x="281" 
d="M112 655h-52l-18 -103h-17l18 103h-51l3 17h120zM234 672h17l-21 -120h-17l14 80l-48 -80h-17l-20 80l-14 -80h-17l21 120h17l25 -100z" />
    <glyph glyph-name="minus" unicode="&#x2212;" horiz-adv-x="328" 
d="M298 290l-5 -30h-263l5 30h263z" />
    <glyph glyph-name="approxequal" unicode="&#x2248;" horiz-adv-x="367" 
d="M255 258q-21 0 -43.5 7t-56.5 21q-33 14 -54.5 20.5t-41.5 6.5q-18 0 -29 -5l2 10q33 19 69 19q23 0 45 -6.5t51 -19.5q30 -12 46.5 -17t33.5 -5q32 0 60 24l-2 -10q-33 -45 -80 -45zM255 137q-21 0 -43.5 7t-56.5 21q-33 14 -54.5 20.5t-41.5 6.5q-18 0 -29 -5l2 10
q33 19 69 19q23 0 45 -6.5t51 -19.5q30 -12 46.5 -17t33.5 -5q32 0 60 24l-2 -10q-33 -45 -80 -45z" />
    <glyph glyph-name="notequal" unicode="&#x2260;" horiz-adv-x="344" 
d="M309 299h-123l-16 -87h128l-5 -30h-128l-23 -124h-32l23 124h-103l5 30h103l16 87h-108l5 30h109l24 132h32l-24 -132h122z" />
    <glyph glyph-name="lessequal" unicode="&#x2264;" horiz-adv-x="328" 
d="M289 124h-47l-180 153l191 152h47l-189 -152zM30 69l5 30h263l-5 -30h-263z" />
    <glyph glyph-name="greaterequal" unicode="&#x2265;" horiz-adv-x="328" 
d="M92 124h-47l189 153l-179 152h47l181 -152zM35 99h263l-5 -30h-263z" />
    <glyph glyph-name="lozenge" unicode="&#x25ca;" horiz-adv-x="318" 
d="M239 720l49 -373l-143 -346h-63l-52 346l147 373h62zM116 20l138 327l-47 362l-143 -362z" />
    <glyph glyph-name="e.ss02" unicode="&#xe056;" horiz-adv-x="861" 
d="M393 215q52 -6 108 -10.5t101 -4.5q153 0 231 56q-37 -56 -99.5 -80t-144.5 -24q-53 0 -110 7.5t-133 21.5q-63 11 -100 16t-67 5t-46 -5q-9 -3 -11.5 -11t-3 -17t-0.5 -13q4 -59 24.5 -98t58.5 -49q6 -2 19 -2q39 0 64 38t25 83q32 -10 32 -42q0 -21 -16 -43.5
t-45.5 -37.5t-67.5 -15q-8 0 -24 2q-85 11 -127.5 68.5t-42.5 139.5q0 73 31.5 145t87.5 118.5t124 46.5q50 0 82 -32t32 -81q0 -21 -8 -48q-26 -82 -124 -121q44 -1 150 -13zM258 494q-35 0 -65.5 -41t-50.5 -105.5t-24 -131.5q65 22 107 57.5t61.5 75.5t19.5 76
q0 28 -10.5 46.5t-28.5 21.5z" />
    <glyph glyph-name="y.ss02" unicode="&#xe06a;" horiz-adv-x="508" 
d="M527.5 -88.5q59.5 -33.5 59.5 -72.5q0 -34 -45 -64q-6 61 -54.5 102.5t-123.5 59.5q-46 -114 -121.5 -153t-163.5 -39q-66 0 -102 23.5t-36 59.5q0 34 34 68t102 56t162 22q23 0 35 -1h6q10 33 20 91l12 67l39 221q-47 -165 -94 -258.5t-112 -93.5q-82 0 -82 89
q0 22 4 42l42 238q11 66 11 85q0 12 -3.5 17t-12.5 5q-36 0 -86 -108h-18q61 132 131 132q82 0 82 -89q0 -22 -4 -42l-42 -238q-11 -66 -11 -85q0 -12 3.5 -17t12.5 -5q45 0 102.5 146.5t103.5 329.5h100l-78 -436q-10 -54 -26 -102q94 -17 153.5 -50.5zM199 -189.5
q46 46.5 74 138.5q-27 1 -60 -2q-64 -7 -111.5 -28.5t-72 -50t-24.5 -54.5q0 -22 19 -36t55 -14q74 0 120 46.5z" />
    <glyph glyph-name="d.ss05" unicode="&#xe08f;" horiz-adv-x="523" 
d="M760.5 910.5q39.5 -23.5 60 -61.5t20.5 -81t-21 -80.5t-62 -60.5t-100 -23q-57 0 -85 25.5t-28 64.5q0 28 13.5 54.5t37.5 43.5t53 17q32 0 63 -21q-34 3 -60.5 -12t-41 -40.5t-14.5 -51.5q0 -27 16 -44t47 -17q36 0 63.5 24.5t42.5 63t15 79.5q0 53 -25 89t-73 36
q-78 0 -120 -74t-70 -214l-90 -496q-11 -66 -11 -85q0 -12 3.5 -17t12.5 -5q36 0 86 108h18q-61 -132 -131 -132q-82 0 -82 89q0 22 4 42l39 217q-47 -163 -94 -255.5t-111 -92.5q-53 0 -79.5 46t-26.5 120q0 76 27.5 155t77 131t112.5 52q34 0 60.5 -28t36.5 -68l25 91
l23 128q32 154 99 230.5t175 76.5q55 0 94.5 -23.5zM245.5 124.5q45.5 100.5 89.5 249.5q-3 42 -28 78t-58 36q-30 0 -57 -61.5t-44 -148.5t-17 -157q0 -97 32 -97q37 0 82.5 100.5z" />
    <glyph glyph-name="m.ss05" unicode="&#xe094;" horiz-adv-x="746" 
d="M814.5 -109.5q57.5 -33.5 57.5 -64.5q0 -25 -33.5 -41t-85.5 -16q-102 0 -150 47.5t-57 130.5q-106 5 -180.5 -40.5t-106.5 -140.5q-3 -22 -18 -22q-18 1 -23 13t-5 35q0 17 -3 27.5t-12 13.5q-21 8 -53 8q-41 0 -127 -19q-48 -11 -84 -16.5t-71 -5.5q-70 0 -127.5 31.5
t-101.5 109.5q53 -45 113 -62.5t129 -17.5q43 0 123 8q63 7 103 7t70.5 -7.5t53.5 -26.5q5 -3 8 -8q9 36 46.5 66.5t97.5 48.5t131 18q24 0 36 -1q-1 9 -1 28q0 50 13 137l42 238q11 66 11 85q0 12 -3.5 17t-12.5 5q-45 0 -102.5 -146.5t-103.5 -329.5h-100l66 369
q11 66 11 85q0 12 -3.5 17t-12.5 5q-45 0 -102.5 -146.5t-103.5 -329.5h-100l66 369q11 66 11 85q0 12 -3.5 17t-12.5 5q-36 0 -86 -108h-18q61 132 131 132q82 0 82 -89q0 -22 -4 -42l-39 -221q47 165 94 258.5t112 93.5q82 0 82 -89q0 -22 -4 -42l-39 -221
q47 165 94 258.5t112 93.5q82 0 82 -89q0 -22 -4 -42l-42 -238l-4 -29q-14 -104 -14 -151q118 -27 175.5 -60.5zM766 -212q23 0 35 8t12 22q0 18 -20.5 40.5t-60 43t-93.5 32.5q2 -62 26 -99t79 -45q16 -2 22 -2z" />
    <glyph glyph-name="t.ss05" unicode="&#xe095;" horiz-adv-x="272" 
d="M374 622q78 16 118.5 23t76.5 7q65 0 110 -30t78 -103q-49 54 -106 77t-127 23q-48 0 -100 -8.5t-141 -27.5l-70 -15l-79 -437q-11 -66 -11 -85q0 -12 3.5 -17t12.5 -5q36 0 86 108h18q-61 -132 -131 -132q-82 0 -82 89q0 22 4 42l63 349q4 16 4 31q0 37 -36 33
q-63 -7 -128 -7q-131 0 -218 33t-113 96l-12 -9q-51 -32 -171 -32q-48 0 -116 5t-135 11q-99 10 -172.5 15t-142.5 5q-224 0 -339 -69q67 64 165.5 90.5t223.5 26.5q77 0 156 -7.5t188 -21.5q165 -22 238 -22q43 0 78 8q15 4 19.5 14.5t6.5 30.5q1 16 5 24.5t16 8.5
q11 0 17 -6.5t6 -17.5q0 -9 -5 -21q36 -66 137.5 -103.5t212.5 -37.5q34 0 72 5q49 6 82.5 30t52 53t39.5 74h13l-23 -128q58 9 156 30z" />
    </font>
</defs>
</svg>
