<?xml version="1.0" standalone="no"?>
<!DOCTYPE svg PUBLIC "-//W3C//DTD SVG 1.1//EN" "http://www.w3.org/Graphics/SVG/1.1/DTD/svg11.dtd" >
<svg xmlns="http://www.w3.org/2000/svg" xmlns:xlink="http://www.w3.org/1999/xlink" version="1.1">
<metadata>
Created by FontForge 20170731 at Fri Mar 19 14:42:23 2021
 By Aleksey,,,
</metadata>
<defs>
<font id="MarcellinesRegular" horiz-adv-x="751" >
  <font-face 
    font-family="Marcellines"
    font-weight="400"
    font-stretch="normal"
    units-per-em="2048"
    panose-1="0 0 0 0 0 0 0 0 0 0"
    ascent="1638"
    descent="-410"
    x-height="799"
    cap-height="2200"
    bbox="-1378.84 -1023.41 4335.82 2421.97"
    underline-thickness="102"
    underline-position="-307"
    unicode-range="U+000A-FB06"
  />
<missing-glyph horiz-adv-x="1079" 
d="M102 1434h875v-1434h-875v1434zM160 1393l379 -633l381 633h-760zM514 717l-369 614v-1231zM541 674l-379 -631h758zM565 717l371 -621v1239z" />
    <glyph glyph-name="ll.liga" unicode="ll" horiz-adv-x="1220" 
d="M-52 39q-40 29 -57 77.5t-14 94.5t17 97q8 31 27 74q18 43 44.5 92.5t44 79t56 91t49.5 80.5q191 315 437 692q55 85 223 336q95 140 190.5 245t207.5 165q77 42 165 56t169 -1t145 -71.5t90 -148.5q61 -220 -83 -488q-45 -84 -144.5 -227t-132.5 -197q-11 -21 -8 -29
q4 -10 27 -17q77 -21 121 -31.5t111.5 -19.5t123.5 -4q95 8 176.5 55.5t117.5 126.5q22 45 44 33q20 -12 1 -47q-51 -93 -138 -155.5t-188 -71.5q-70 -6 -197.5 22t-177.5 31q-52 2 -80 -13q-22 -12 -42.5 -34.5t-45 -56.5t-33.5 -44q-17 -21 -33 -28q-28 -12 -45 12t-7 50
q5 14 31 42q93 96 152.5 162.5t137 167.5t124 187t82.5 195.5t43 219.5q11 173 -80 267q-170 176 -486 -44q-98 -68 -173 -166t-150 -232q-450 -805 -760 -1498q-14 -26 -11.5 -61t29.5 -40q11 -2 29 4q97 29 208 148q114 121 225 281.5t186 294.5t179 318t180 303
q13 20 37 62t39.5 67.5t42 57t54.5 52.5q24 18 50.5 27.5t56 5.5t49.5 -25q45 -47 3 -158q-132 -339 -385 -596q-65 -66 -102 -105.5t-86.5 -103t-82.5 -122.5q-58 -104 -81.5 -147.5t-63.5 -128.5t-64 -156q-21 -67 11 -86q16 -10 45 0q34 11 68.5 33t57.5 42.5t56 52.5
q224 221 398 489q8 12 15 15q11 5 21.5 -3.5t11.5 -21.5q1 -18 -17 -44q-189 -288 -439 -525q-123 -117 -221 -93q-65 16 -105 73q-20 27 -28 65q-1 2 -2 29t-9 36q-15 11 -32 3t-30 -26q-79 -104 -147 -144q-54 -32 -114.5 -33.5t-113.5 33.5zM1336 1500q24 51 24 78
q0 19 -11 31q-12 14 -27.5 15.5t-31.5 -7t-32.5 -23t-32.5 -34.5t-29.5 -39.5t-25.5 -39.5t-19.5 -33.5t-11.5 -22.5q-15 -31 -46 -85.5t-40 -70.5q-82 -154 -100 -194q-21 -45 -81 -201q-2 -6 -1 -10q1 -6 5 -7t9.5 1.5t11 6.5t12.5 10.5t11.5 10.5t9.5 10l5 5
q116 123 187 230q82 124 129 204q46 78 85 165z" />
    <glyph glyph-name="th.liga" unicode="th" horiz-adv-x="1689" 
d="M2258 2173q51 -52 69 -124q9 -37 10 -76t-5 -74.5t-19 -74t-28.5 -71t-37 -69t-40 -64.5t-42.5 -61q-164 -226 -383 -329q-93 -44 -198 -66q-24 -5 -102 -10.5t-118 -21.5q-2 -1 -6.5 -3.5t-7.5 -3.5l-185 -328q80 38 157 28q47 -6 73.5 -41t33.5 -85q9 -70 -8 -152
q-14 -65 -48 -131t-86.5 -145t-74.5 -119q-16 -28 -16 -45q-1 -24 17.5 -33t38.5 2q69 36 152 108q84 73 206 232q2 3 6.5 8.5t6.5 8.5q11 15 33.5 44.5t34.5 44.5q5 8 17 23.5t17 22.5q27 37 39 44q12 8 33 6q5 0 15 -4q8 -3 11 -11q3 -7 -10 -27q-3 -5 -10 -14.5
t-11 -14.5q-28 -38 -42 -56q-52 -71 -104 -133q-7 -9 -39.5 -49t-45.5 -55t-43.5 -50t-50.5 -54t-48 -45t-55 -44.5t-54 -32.5q-39 -20 -82.5 -27.5t-88 5t-70.5 47.5t-27.5 82.5t12.5 88t38 78.5q29 46 86.5 139t86.5 139q2 3 10 16t12 19t11 19.5t9.5 22t5.5 21t1.5 21
t-6 18.5t-13.5 17q-22 18 -47 20t-50 -11t-49.5 -32.5t-49.5 -50.5t-45 -57t-40.5 -59.5t-31 -52t-22.5 -39.5q-64 -117 -150 -255q-5 -8 -31.5 -55t-48.5 -76t-48 -47q-31 -22 -68 -22q-2 0 -18 -0.5t-26.5 0t-24.5 1.5t-21.5 5t-6.5 10q1 21 53.5 120t89.5 162
q6 11 6.5 21t-8.5 15q-3 1 -52.5 -50.5t-120 -120t-115.5 -99.5q-37 -25 -78.5 -41.5t-88.5 -22t-87 10.5q-37 14 -62 45.5t-34 69t-11 79.5t6 77q13 76 61 163q87 158 287 406q19 23 71 89.5t81 101.5l7 7q95 108 53 106q-240 -8 -361 -38q-202 -50 -309 -179
q-23 -29 -39 -36q-12 -6 -26.5 -2.5t-19.5 15.5q-10 21 18 49q196 208 593 232q2 0 26.5 1.5t29.5 1.5t26.5 2t29 3.5t25.5 4.5t28 6.5t24 8.5t26 11q53 28 121 112q33 42 66 86t69.5 97.5t58.5 86.5t65 100t59 91q20 28 31 34q10 6 23 3t18 -13q7 -15 -7 -40
q-23 -44 -50.5 -92.5t-49.5 -86t-55.5 -92.5t-51.5 -84t-57 -92t-53 -86q-10 -16 -9 -25q13 -52 159 -51q22 0 67 -3.5t68 -4t67 4.5q9 1 30.5 24.5t37.5 46.5q8 12 21.5 35t17.5 29q125 207 238 380q89 135 159.5 230t151.5 177q106 108 210 126q58 11 113.5 -1.5
t93.5 -50.5zM997 837q24 37 95.5 159.5t66.5 122.5q-10 0 -36.5 2t-37.5 2h-161q-40 1 -81 9l-9 2q-10 1 -11.5 1.5t-9.5 1t-11 0t-9 -1t-10.5 -2t-9.5 -4.5q-22 -13 -49 -67q-29 -59 -162.5 -262.5t-255.5 -402.5t-144 -280q-12 -44 38 -35q54 11 133 61l4 2q35 23 74 55.5
t65 57.5t68.5 66.5t63.5 61.5q209 196 347 390q28 40 42 61zM1386 1223v-6v6zM2238 1968q2 45 -4.5 83.5t-26 70.5t-53.5 39.5t-86 -8.5q-74 -27 -131 -85.5t-119 -147.5q-71 -102 -188 -296.5t-160 -261.5l-81 -152q5 -9 15 -10q255 -39 540 228q119 112 199.5 245
t93.5 275q1 6 1 20z" />
    <glyph glyph-name="tt.liga" unicode="tt" horiz-adv-x="1044" 
d="M1709 1219q15 -26 -23 -66q-60 -61 -132 -127q-18 -16 -27 -7q-3 3 -4 10t-2 9q-4 11 -27 15q-111 20 -232 31q-12 1 -48 6.5t-60 8t-54.5 1t-48.5 -10.5q-35 -18 -227 -380.5t-299 -599.5q-9 -15 -8.5 -36t15.5 -26q10 -3 27 2q103 35 215 160q107 117 192 261
q9 16 24.5 24t25.5 -3q8 -13 -7 -35q-95 -139 -177.5 -238.5t-180.5 -173.5q-108 -81 -180 -39q-36 21 -49.5 63t-17.5 103q-14 -12 -41.5 -37t-40.5 -38q-48 -44 -112.5 -74t-124.5 -31q-184 -4 -61 275q54 123 172 302q32 48 93.5 146t93.5 146q99 150 202 260l-93 -12
q-35 -7 -89.5 -19.5t-165.5 -52t-154 -78.5l-21 -21t-30.5 -27t-25.5 -14q-29 -9 -26 16q2 22 17 45q28 43 93 82q51 31 174 77q153 57 317 62q37 2 54 12q16 10 44 44.5t45 44.5q12 6 19 4q11 -3 13 -13.5t-2.5 -20t-10.5 -17.5q-28 -41 -9 -53q6 -4 13.5 -5t17.5 -1t15 -1
q12 -1 44 -5t48.5 -5t42 -1.5t47.5 2.5q49 6 68 22q9 9 18.5 19t21 24.5t16.5 20.5q1 2 6.5 8.5t8 9t7.5 7t10 6.5t11 2q17 -1 20 -17.5t-6 -28.5q-5 -7 -13.5 -21.5t-12.5 -21.5q-13 -19 -8 -29q4 -8 11.5 -14t19 -9.5t19 -5t21.5 -3.5t17 -2q153 -25 254 -24q107 2 146 48
q7 8 20.5 30.5t23.5 32.5q15 14 36 16t32 -14zM959 1084q4 7 0 14.5t-12 9.5q-4 2 -6 2q-22 1 -61 7t-52 7q-53 7 -74 6q-69 -2 -102 -40q-22 -24 -249.5 -407.5t-285.5 -489.5q-87 -156 -3 -162q14 -1 34 6q80 29 153 103q53 54 101.5 112.5t97.5 129.5t80.5 120t87 137.5
t80.5 128.5q19 30 69.5 104t92.5 136.5t49 75.5z" />
    <glyph glyph-name="st.liga" unicode="st" horiz-adv-x="1103" 
d="M1758 1311q52 -8 -44 -112q-4 -5 -11 -13l-23 -26q-4 -7 -10.5 -23t-13.5 -27.5t-16 -19.5q-9 -7 -17 -9t-13 0t-14.5 6.5t-15.5 6.5q-34 12 -97 2q-111 -17 -229 -19q-27 0 -34 -0.5t-27.5 -1.5t-27 -4t-21 -8.5t-21.5 -13.5t-17 -20.5t-18 -29.5q-45 -89 -101.5 -183
t-133.5 -214t-112 -177q-12 -20 -60.5 -97.5t-77.5 -127.5t-53 -101q-7 -13 -3 -29.5t17 -18.5q9 -1 20 4q31 13 71 44q234 175 390 420q19 29 33 15q3 -3 5 -10q4 -25 -24 -65q-69 -97 -138 -182q-92 -113 -172 -177q-137 -109 -224 -101q-40 4 -63.5 37t-21.5 75
q2 52 47 123q3 4 14 21t15.5 24.5t12.5 21.5t13.5 25.5t9.5 23.5v1q-27 -13 -57 -33.5t-49 -36.5t-51.5 -44t-47.5 -41q-106 -88 -226 -142q-31 -14 -61 -24q-83 -29 -138 -8q-31 11 -49 40q-28 55 -17 110.5t51 101.5q30 34 103.5 73.5t100.5 64.5q24 22 46 54.5t35 57
t33 66.5t30 62q84 163 202 179q16 3 30 -2.5t16 -18.5q1 -7 -5 -21q-21 -45 -99 -124t-96 -134q-12 -36 -12 -106.5t-3 -92.5q-7 -57 -53 -154q1 3 7.5 6.5t14 7t9.5 4.5q10 6 35 24q28 20 61 48q35 30 123.5 101.5t149.5 126.5t111 114q72 83 200 293q5 8 39 64t53 85
q4 5 0.5 12t-8.5 6q-340 -27 -447.5 -37.5t-152.5 -23.5q-51 -15 -95 -39q-5 -2 -25 -17t-37.5 -23.5t-26.5 -3.5q-9 6 -7.5 18.5t10.5 21.5q38 43 93 62t134 32q49 8 109 14.5t99.5 9.5t113.5 7.5t103 6.5q122 7 146 12q28 5 54 32t58 77.5t36 55.5q10 14 20 12
q13 -3 11 -23q-3 -20 -14 -40t-28 -42.5t-25 -36.5q-10 -19 -2 -27q5 -5 17 -5q215 -8 342 31q87 27 137 82q5 5 15 17t16 18.5t15 15.5t18 16t19 12q13 7 22 6zM45 159q58 58 111 135q68 103 83 154q4 12 -5 16q-9 3 -16 2q-8 -2 -16.5 -8t-13.5 -11.5t-12.5 -14.5
t-11.5 -13q-27 -28 -75 -67q-2 -2 -16 -12.5t-19.5 -15.5t-13 -15.5t-8.5 -20.5q-3 -21 -6 -32.5t-12 -25.5t-24 -23q-13 -7 -39 -8.5t-37 -6.5q-22 -10 -22 -48q0 -32 16 -57.5t35 -17.5q2 1 4 2.5t4.5 3.5t3.5 3q10 9 29 25.5t34 30t27 25.5z" />
    <glyph glyph-name=".notdef" horiz-adv-x="1079" 
d="M102 1434h875v-1434h-875v1434zM160 1393l379 -633l381 633h-760zM514 717l-369 614v-1231zM541 674l-379 -631h758zM565 717l371 -621v1239z" />
    <glyph glyph-name=".null" horiz-adv-x="0" 
 />
    <glyph glyph-name=".null" horiz-adv-x="0" 
 />
    <glyph glyph-name="nonmarkingreturn" horiz-adv-x="682" 
 />
    <glyph glyph-name="controlLF" unicode="&#xa;" horiz-adv-x="0" 
 />
    <glyph glyph-name="controlCR" unicode="&#xd;" horiz-adv-x="0" 
 />
    <glyph glyph-name="space" unicode=" " horiz-adv-x="858" 
 />
    <glyph glyph-name="A" unicode="A" horiz-adv-x="2994" 
d="M3158 2058q70 19 116.5 4t72.5 -55t36.5 -93.5t8.5 -112.5t-13 -112t-28 -91q-147 -332 -386 -542q-80 -70 -133.5 -114t-130.5 -100t-154 -94.5t-156 -60.5q-46 -13 -123 -126t-135.5 -240t-62.5 -183q-5 -64 72 -52q64 10 132 52q5 3 9 6q41 29 87 69.5t77.5 72
t81.5 83.5t74 76q28 27 83 81.5t82 81.5q31 31 65 4q-4 3 -92 -88t-183.5 -193t-104.5 -110q-46 -43 -66.5 -61t-62 -51.5t-78 -54t-75.5 -34.5q-55 -20 -102.5 -6t-81.5 47t-50.5 82t-10.5 100q17 145 144 356q9 15 -91 35q-35 7 -51 8q-82 5 -142.5 -13t-111.5 -71
q-87 -90 -139.5 -142t-132.5 -124t-159 -125.5t-163 -94.5q-276 -136 -563 -137q-197 0 -340 84q-51 29 -65 34q-22 4 -30.5 4.5t-30 -2.5t-30.5 -4q-51 -3 -97 4q-93 15 -172 69q-73 49 -119.5 123t-57.5 161q-12 98 23.5 195t104.5 181q59 73 137.5 120.5t185.5 87.5
q40 14 43 19q88 123 113 159q30 38 83.5 112.5t78.5 107.5q64 84 160.5 171t186.5 140q83 49 175 72t184 17.5t176 -53t141 -135.5q41 -63 64.5 -132.5t31 -132t2.5 -139t-15.5 -137.5t-29.5 -143q-19 -81 58 -97q10 -2 39.5 -8.5t40.5 -8t35.5 -4t38.5 2.5t34 13t37.5 25
t34.5 41q94 132 166 227t172.5 215.5t191.5 210.5t205.5 182.5t231.5 161.5q55 33 107 59q24 14 55.5 10.5t31.5 -28.5q0 -28 -55 -42q-54 -14 -134 -85.5t-162.5 -169.5t-175.5 -218.5t-170 -226.5t-149 -199.5t-109 -132.5q-56 -59 16 -84q62 -22 153 -7q42 7 61 19
q44 28 145 178.5t203.5 322t218 347t180.5 241.5q13 13 50.5 54t58.5 61.5t57.5 45t70.5 34.5zM213 1061q-23 -31 -10 -39q10 -7 105 -11q359 -17 814 -133q18 -4 26 -5l107 -19q12 16 17 25q57 93 83 202q20 83 20 175t-20 183t-78 162t-146 96q-72 21 -151.5 16.5
t-148.5 -34.5q-86 -38 -169.5 -102t-160 -149.5t-133 -158t-127.5 -169.5q-19 -26 -28 -39zM30 144q6 6 7.5 15.5t-1 21t-5 20.5t-7.5 22.5t-7 18.5q-33 105 -42 213t1 186.5t25 142.5t25.5 96t6.5 31q-115 -22 -215.5 -109t-149.5 -201t-24 -212q41 -164 161 -226
q164 -85 225 -19zM52 437q3 -30 6.5 -53.5t11 -62.5t19.5 -67.5t29 -55.5t42 -38.5t55 -6.5q240 42 595 245q73 41 140.5 94.5t113 100t80 87.5t53 64.5t20.5 23.5q-160 47 -327 81t-294 49.5t-231.5 23t-161 6.5t-60.5 -6q-55 -74 -77 -237.5t-14 -247.5zM1561 671
q4 6 -16 16q-55 27 -151 45q-55 10 -63 1q-196 -208 -386 -335q-127 -86 -248 -149t-198.5 -92.5t-148.5 -47t-95.5 -20t-43.5 -2.5h-2q16 -17 61.5 -35t124 -31.5t205 4t269.5 70.5q204 76 382.5 228.5t309.5 347.5zM3111 1317q228 320 201 528q-7 51 -45 90t-86 27
q-139 -33 -243 -230q-29 -55 -252 -466q-84 -156 -127 -234q-14 -25 -46 -79t-47 -83q-2 -5 -12.5 -19.5t-16.5 -27t-5 -21.5q0 -1 3 -7q21 -27 183 81q101 62 185 127q187 145 308 314z" />
    <glyph glyph-name="A" unicode="&#xc5;" horiz-adv-x="2994" 
d="M3158 2058q70 19 116.5 4t72.5 -55t36.5 -93.5t8.5 -112.5t-13 -112t-28 -91q-147 -332 -386 -542q-80 -70 -133.5 -114t-130.5 -100t-154 -94.5t-156 -60.5q-46 -13 -123 -126t-135.5 -240t-62.5 -183q-5 -64 72 -52q64 10 132 52q5 3 9 6q41 29 87 69.5t77.5 72
t81.5 83.5t74 76q28 27 83 81.5t82 81.5q31 31 65 4q-4 3 -92 -88t-183.5 -193t-104.5 -110q-46 -43 -66.5 -61t-62 -51.5t-78 -54t-75.5 -34.5q-55 -20 -102.5 -6t-81.5 47t-50.5 82t-10.5 100q17 145 144 356q9 15 -91 35q-35 7 -51 8q-82 5 -142.5 -13t-111.5 -71
q-87 -90 -139.5 -142t-132.5 -124t-159 -125.5t-163 -94.5q-276 -136 -563 -137q-197 0 -340 84q-51 29 -65 34q-22 4 -30.5 4.5t-30 -2.5t-30.5 -4q-51 -3 -97 4q-93 15 -172 69q-73 49 -119.5 123t-57.5 161q-12 98 23.5 195t104.5 181q59 73 137.5 120.5t185.5 87.5
q40 14 43 19q88 123 113 159q30 38 83.5 112.5t78.5 107.5q64 84 160.5 171t186.5 140q83 49 175 72t184 17.5t176 -53t141 -135.5q41 -63 64.5 -132.5t31 -132t2.5 -139t-15.5 -137.5t-29.5 -143q-19 -81 58 -97q10 -2 39.5 -8.5t40.5 -8t35.5 -4t38.5 2.5t34 13t37.5 25
t34.5 41q94 132 166 227t172.5 215.5t191.5 210.5t205.5 182.5t231.5 161.5q55 33 107 59q24 14 55.5 10.5t31.5 -28.5q0 -28 -55 -42q-54 -14 -134 -85.5t-162.5 -169.5t-175.5 -218.5t-170 -226.5t-149 -199.5t-109 -132.5q-56 -59 16 -84q62 -22 153 -7q42 7 61 19
q44 28 145 178.5t203.5 322t218 347t180.5 241.5q13 13 50.5 54t58.5 61.5t57.5 45t70.5 34.5zM213 1061q-23 -31 -10 -39q10 -7 105 -11q359 -17 814 -133q18 -4 26 -5l107 -19q12 16 17 25q57 93 83 202q20 83 20 175t-20 183t-78 162t-146 96q-72 21 -151.5 16.5
t-148.5 -34.5q-86 -38 -169.5 -102t-160 -149.5t-133 -158t-127.5 -169.5q-19 -26 -28 -39zM30 144q6 6 7.5 15.5t-1 21t-5 20.5t-7.5 22.5t-7 18.5q-33 105 -42 213t1 186.5t25 142.5t25.5 96t6.5 31q-115 -22 -215.5 -109t-149.5 -201t-24 -212q41 -164 161 -226
q164 -85 225 -19zM52 437q3 -30 6.5 -53.5t11 -62.5t19.5 -67.5t29 -55.5t42 -38.5t55 -6.5q240 42 595 245q73 41 140.5 94.5t113 100t80 87.5t53 64.5t20.5 23.5q-160 47 -327 81t-294 49.5t-231.5 23t-161 6.5t-60.5 -6q-55 -74 -77 -237.5t-14 -247.5zM1561 671
q4 6 -16 16q-55 27 -151 45q-55 10 -63 1q-196 -208 -386 -335q-127 -86 -248 -149t-198.5 -92.5t-148.5 -47t-95.5 -20t-43.5 -2.5h-2q16 -17 61.5 -35t124 -31.5t205 4t269.5 70.5q204 76 382.5 228.5t309.5 347.5zM3111 1317q228 320 201 528q-7 51 -45 90t-86 27
q-139 -33 -243 -230q-29 -55 -252 -466q-84 -156 -127 -234q-14 -25 -46 -79t-47 -83q-2 -5 -12.5 -19.5t-16.5 -27t-5 -21.5q0 -1 3 -7q21 -27 183 81q101 62 185 127q187 145 308 314z" />
    <glyph glyph-name="A" unicode="&#xc4;" horiz-adv-x="2994" 
d="M3158 2058q70 19 116.5 4t72.5 -55t36.5 -93.5t8.5 -112.5t-13 -112t-28 -91q-147 -332 -386 -542q-80 -70 -133.5 -114t-130.5 -100t-154 -94.5t-156 -60.5q-46 -13 -123 -126t-135.5 -240t-62.5 -183q-5 -64 72 -52q64 10 132 52q5 3 9 6q41 29 87 69.5t77.5 72
t81.5 83.5t74 76q28 27 83 81.5t82 81.5q31 31 65 4q-4 3 -92 -88t-183.5 -193t-104.5 -110q-46 -43 -66.5 -61t-62 -51.5t-78 -54t-75.5 -34.5q-55 -20 -102.5 -6t-81.5 47t-50.5 82t-10.5 100q17 145 144 356q9 15 -91 35q-35 7 -51 8q-82 5 -142.5 -13t-111.5 -71
q-87 -90 -139.5 -142t-132.5 -124t-159 -125.5t-163 -94.5q-276 -136 -563 -137q-197 0 -340 84q-51 29 -65 34q-22 4 -30.5 4.5t-30 -2.5t-30.5 -4q-51 -3 -97 4q-93 15 -172 69q-73 49 -119.5 123t-57.5 161q-12 98 23.5 195t104.5 181q59 73 137.5 120.5t185.5 87.5
q40 14 43 19q88 123 113 159q30 38 83.5 112.5t78.5 107.5q64 84 160.5 171t186.5 140q83 49 175 72t184 17.5t176 -53t141 -135.5q41 -63 64.5 -132.5t31 -132t2.5 -139t-15.5 -137.5t-29.5 -143q-19 -81 58 -97q10 -2 39.5 -8.5t40.5 -8t35.5 -4t38.5 2.5t34 13t37.5 25
t34.5 41q94 132 166 227t172.5 215.5t191.5 210.5t205.5 182.5t231.5 161.5q55 33 107 59q24 14 55.5 10.5t31.5 -28.5q0 -28 -55 -42q-54 -14 -134 -85.5t-162.5 -169.5t-175.5 -218.5t-170 -226.5t-149 -199.5t-109 -132.5q-56 -59 16 -84q62 -22 153 -7q42 7 61 19
q44 28 145 178.5t203.5 322t218 347t180.5 241.5q13 13 50.5 54t58.5 61.5t57.5 45t70.5 34.5zM213 1061q-23 -31 -10 -39q10 -7 105 -11q359 -17 814 -133q18 -4 26 -5l107 -19q12 16 17 25q57 93 83 202q20 83 20 175t-20 183t-78 162t-146 96q-72 21 -151.5 16.5
t-148.5 -34.5q-86 -38 -169.5 -102t-160 -149.5t-133 -158t-127.5 -169.5q-19 -26 -28 -39zM30 144q6 6 7.5 15.5t-1 21t-5 20.5t-7.5 22.5t-7 18.5q-33 105 -42 213t1 186.5t25 142.5t25.5 96t6.5 31q-115 -22 -215.5 -109t-149.5 -201t-24 -212q41 -164 161 -226
q164 -85 225 -19zM52 437q3 -30 6.5 -53.5t11 -62.5t19.5 -67.5t29 -55.5t42 -38.5t55 -6.5q240 42 595 245q73 41 140.5 94.5t113 100t80 87.5t53 64.5t20.5 23.5q-160 47 -327 81t-294 49.5t-231.5 23t-161 6.5t-60.5 -6q-55 -74 -77 -237.5t-14 -247.5zM1561 671
q4 6 -16 16q-55 27 -151 45q-55 10 -63 1q-196 -208 -386 -335q-127 -86 -248 -149t-198.5 -92.5t-148.5 -47t-95.5 -20t-43.5 -2.5h-2q16 -17 61.5 -35t124 -31.5t205 4t269.5 70.5q204 76 382.5 228.5t309.5 347.5zM3111 1317q228 320 201 528q-7 51 -45 90t-86 27
q-139 -33 -243 -230q-29 -55 -252 -466q-84 -156 -127 -234q-14 -25 -46 -79t-47 -83q-2 -5 -12.5 -19.5t-16.5 -27t-5 -21.5q0 -1 3 -7q21 -27 183 81q101 62 185 127q187 145 308 314z" />
    <glyph glyph-name="A" unicode="&#xc3;" horiz-adv-x="2994" 
d="M3158 2058q70 19 116.5 4t72.5 -55t36.5 -93.5t8.5 -112.5t-13 -112t-28 -91q-147 -332 -386 -542q-80 -70 -133.5 -114t-130.5 -100t-154 -94.5t-156 -60.5q-46 -13 -123 -126t-135.5 -240t-62.5 -183q-5 -64 72 -52q64 10 132 52q5 3 9 6q41 29 87 69.5t77.5 72
t81.5 83.5t74 76q28 27 83 81.5t82 81.5q31 31 65 4q-4 3 -92 -88t-183.5 -193t-104.5 -110q-46 -43 -66.5 -61t-62 -51.5t-78 -54t-75.5 -34.5q-55 -20 -102.5 -6t-81.5 47t-50.5 82t-10.5 100q17 145 144 356q9 15 -91 35q-35 7 -51 8q-82 5 -142.5 -13t-111.5 -71
q-87 -90 -139.5 -142t-132.5 -124t-159 -125.5t-163 -94.5q-276 -136 -563 -137q-197 0 -340 84q-51 29 -65 34q-22 4 -30.5 4.5t-30 -2.5t-30.5 -4q-51 -3 -97 4q-93 15 -172 69q-73 49 -119.5 123t-57.5 161q-12 98 23.5 195t104.5 181q59 73 137.5 120.5t185.5 87.5
q40 14 43 19q88 123 113 159q30 38 83.5 112.5t78.5 107.5q64 84 160.5 171t186.5 140q83 49 175 72t184 17.5t176 -53t141 -135.5q41 -63 64.5 -132.5t31 -132t2.5 -139t-15.5 -137.5t-29.5 -143q-19 -81 58 -97q10 -2 39.5 -8.5t40.5 -8t35.5 -4t38.5 2.5t34 13t37.5 25
t34.5 41q94 132 166 227t172.5 215.5t191.5 210.5t205.5 182.5t231.5 161.5q55 33 107 59q24 14 55.5 10.5t31.5 -28.5q0 -28 -55 -42q-54 -14 -134 -85.5t-162.5 -169.5t-175.5 -218.5t-170 -226.5t-149 -199.5t-109 -132.5q-56 -59 16 -84q62 -22 153 -7q42 7 61 19
q44 28 145 178.5t203.5 322t218 347t180.5 241.5q13 13 50.5 54t58.5 61.5t57.5 45t70.5 34.5zM213 1061q-23 -31 -10 -39q10 -7 105 -11q359 -17 814 -133q18 -4 26 -5l107 -19q12 16 17 25q57 93 83 202q20 83 20 175t-20 183t-78 162t-146 96q-72 21 -151.5 16.5
t-148.5 -34.5q-86 -38 -169.5 -102t-160 -149.5t-133 -158t-127.5 -169.5q-19 -26 -28 -39zM30 144q6 6 7.5 15.5t-1 21t-5 20.5t-7.5 22.5t-7 18.5q-33 105 -42 213t1 186.5t25 142.5t25.5 96t6.5 31q-115 -22 -215.5 -109t-149.5 -201t-24 -212q41 -164 161 -226
q164 -85 225 -19zM52 437q3 -30 6.5 -53.5t11 -62.5t19.5 -67.5t29 -55.5t42 -38.5t55 -6.5q240 42 595 245q73 41 140.5 94.5t113 100t80 87.5t53 64.5t20.5 23.5q-160 47 -327 81t-294 49.5t-231.5 23t-161 6.5t-60.5 -6q-55 -74 -77 -237.5t-14 -247.5zM1561 671
q4 6 -16 16q-55 27 -151 45q-55 10 -63 1q-196 -208 -386 -335q-127 -86 -248 -149t-198.5 -92.5t-148.5 -47t-95.5 -20t-43.5 -2.5h-2q16 -17 61.5 -35t124 -31.5t205 4t269.5 70.5q204 76 382.5 228.5t309.5 347.5zM3111 1317q228 320 201 528q-7 51 -45 90t-86 27
q-139 -33 -243 -230q-29 -55 -252 -466q-84 -156 -127 -234q-14 -25 -46 -79t-47 -83q-2 -5 -12.5 -19.5t-16.5 -27t-5 -21.5q0 -1 3 -7q21 -27 183 81q101 62 185 127q187 145 308 314z" />
    <glyph glyph-name="A" unicode="&#xc2;" horiz-adv-x="2994" 
d="M3158 2058q70 19 116.5 4t72.5 -55t36.5 -93.5t8.5 -112.5t-13 -112t-28 -91q-147 -332 -386 -542q-80 -70 -133.5 -114t-130.5 -100t-154 -94.5t-156 -60.5q-46 -13 -123 -126t-135.5 -240t-62.5 -183q-5 -64 72 -52q64 10 132 52q5 3 9 6q41 29 87 69.5t77.5 72
t81.5 83.5t74 76q28 27 83 81.5t82 81.5q31 31 65 4q-4 3 -92 -88t-183.5 -193t-104.5 -110q-46 -43 -66.5 -61t-62 -51.5t-78 -54t-75.5 -34.5q-55 -20 -102.5 -6t-81.5 47t-50.5 82t-10.5 100q17 145 144 356q9 15 -91 35q-35 7 -51 8q-82 5 -142.5 -13t-111.5 -71
q-87 -90 -139.5 -142t-132.5 -124t-159 -125.5t-163 -94.5q-276 -136 -563 -137q-197 0 -340 84q-51 29 -65 34q-22 4 -30.5 4.5t-30 -2.5t-30.5 -4q-51 -3 -97 4q-93 15 -172 69q-73 49 -119.5 123t-57.5 161q-12 98 23.5 195t104.5 181q59 73 137.5 120.5t185.5 87.5
q40 14 43 19q88 123 113 159q30 38 83.5 112.5t78.5 107.5q64 84 160.5 171t186.5 140q83 49 175 72t184 17.5t176 -53t141 -135.5q41 -63 64.5 -132.5t31 -132t2.5 -139t-15.5 -137.5t-29.5 -143q-19 -81 58 -97q10 -2 39.5 -8.5t40.5 -8t35.5 -4t38.5 2.5t34 13t37.5 25
t34.5 41q94 132 166 227t172.5 215.5t191.5 210.5t205.5 182.5t231.5 161.5q55 33 107 59q24 14 55.5 10.5t31.5 -28.5q0 -28 -55 -42q-54 -14 -134 -85.5t-162.5 -169.5t-175.5 -218.5t-170 -226.5t-149 -199.5t-109 -132.5q-56 -59 16 -84q62 -22 153 -7q42 7 61 19
q44 28 145 178.5t203.5 322t218 347t180.5 241.5q13 13 50.5 54t58.5 61.5t57.5 45t70.5 34.5zM213 1061q-23 -31 -10 -39q10 -7 105 -11q359 -17 814 -133q18 -4 26 -5l107 -19q12 16 17 25q57 93 83 202q20 83 20 175t-20 183t-78 162t-146 96q-72 21 -151.5 16.5
t-148.5 -34.5q-86 -38 -169.5 -102t-160 -149.5t-133 -158t-127.5 -169.5q-19 -26 -28 -39zM30 144q6 6 7.5 15.5t-1 21t-5 20.5t-7.5 22.5t-7 18.5q-33 105 -42 213t1 186.5t25 142.5t25.5 96t6.5 31q-115 -22 -215.5 -109t-149.5 -201t-24 -212q41 -164 161 -226
q164 -85 225 -19zM52 437q3 -30 6.5 -53.5t11 -62.5t19.5 -67.5t29 -55.5t42 -38.5t55 -6.5q240 42 595 245q73 41 140.5 94.5t113 100t80 87.5t53 64.5t20.5 23.5q-160 47 -327 81t-294 49.5t-231.5 23t-161 6.5t-60.5 -6q-55 -74 -77 -237.5t-14 -247.5zM1561 671
q4 6 -16 16q-55 27 -151 45q-55 10 -63 1q-196 -208 -386 -335q-127 -86 -248 -149t-198.5 -92.5t-148.5 -47t-95.5 -20t-43.5 -2.5h-2q16 -17 61.5 -35t124 -31.5t205 4t269.5 70.5q204 76 382.5 228.5t309.5 347.5zM3111 1317q228 320 201 528q-7 51 -45 90t-86 27
q-139 -33 -243 -230q-29 -55 -252 -466q-84 -156 -127 -234q-14 -25 -46 -79t-47 -83q-2 -5 -12.5 -19.5t-16.5 -27t-5 -21.5q0 -1 3 -7q21 -27 183 81q101 62 185 127q187 145 308 314z" />
    <glyph glyph-name="A" unicode="&#xc1;" horiz-adv-x="2994" 
d="M3158 2058q70 19 116.5 4t72.5 -55t36.5 -93.5t8.5 -112.5t-13 -112t-28 -91q-147 -332 -386 -542q-80 -70 -133.5 -114t-130.5 -100t-154 -94.5t-156 -60.5q-46 -13 -123 -126t-135.5 -240t-62.5 -183q-5 -64 72 -52q64 10 132 52q5 3 9 6q41 29 87 69.5t77.5 72
t81.5 83.5t74 76q28 27 83 81.5t82 81.5q31 31 65 4q-4 3 -92 -88t-183.5 -193t-104.5 -110q-46 -43 -66.5 -61t-62 -51.5t-78 -54t-75.5 -34.5q-55 -20 -102.5 -6t-81.5 47t-50.5 82t-10.5 100q17 145 144 356q9 15 -91 35q-35 7 -51 8q-82 5 -142.5 -13t-111.5 -71
q-87 -90 -139.5 -142t-132.5 -124t-159 -125.5t-163 -94.5q-276 -136 -563 -137q-197 0 -340 84q-51 29 -65 34q-22 4 -30.5 4.5t-30 -2.5t-30.5 -4q-51 -3 -97 4q-93 15 -172 69q-73 49 -119.5 123t-57.5 161q-12 98 23.5 195t104.5 181q59 73 137.5 120.5t185.5 87.5
q40 14 43 19q88 123 113 159q30 38 83.5 112.5t78.5 107.5q64 84 160.5 171t186.5 140q83 49 175 72t184 17.5t176 -53t141 -135.5q41 -63 64.5 -132.5t31 -132t2.5 -139t-15.5 -137.5t-29.5 -143q-19 -81 58 -97q10 -2 39.5 -8.5t40.5 -8t35.5 -4t38.5 2.5t34 13t37.5 25
t34.5 41q94 132 166 227t172.5 215.5t191.5 210.5t205.5 182.5t231.5 161.5q55 33 107 59q24 14 55.5 10.5t31.5 -28.5q0 -28 -55 -42q-54 -14 -134 -85.5t-162.5 -169.5t-175.5 -218.5t-170 -226.5t-149 -199.5t-109 -132.5q-56 -59 16 -84q62 -22 153 -7q42 7 61 19
q44 28 145 178.5t203.5 322t218 347t180.5 241.5q13 13 50.5 54t58.5 61.5t57.5 45t70.5 34.5zM213 1061q-23 -31 -10 -39q10 -7 105 -11q359 -17 814 -133q18 -4 26 -5l107 -19q12 16 17 25q57 93 83 202q20 83 20 175t-20 183t-78 162t-146 96q-72 21 -151.5 16.5
t-148.5 -34.5q-86 -38 -169.5 -102t-160 -149.5t-133 -158t-127.5 -169.5q-19 -26 -28 -39zM30 144q6 6 7.5 15.5t-1 21t-5 20.5t-7.5 22.5t-7 18.5q-33 105 -42 213t1 186.5t25 142.5t25.5 96t6.5 31q-115 -22 -215.5 -109t-149.5 -201t-24 -212q41 -164 161 -226
q164 -85 225 -19zM52 437q3 -30 6.5 -53.5t11 -62.5t19.5 -67.5t29 -55.5t42 -38.5t55 -6.5q240 42 595 245q73 41 140.5 94.5t113 100t80 87.5t53 64.5t20.5 23.5q-160 47 -327 81t-294 49.5t-231.5 23t-161 6.5t-60.5 -6q-55 -74 -77 -237.5t-14 -247.5zM1561 671
q4 6 -16 16q-55 27 -151 45q-55 10 -63 1q-196 -208 -386 -335q-127 -86 -248 -149t-198.5 -92.5t-148.5 -47t-95.5 -20t-43.5 -2.5h-2q16 -17 61.5 -35t124 -31.5t205 4t269.5 70.5q204 76 382.5 228.5t309.5 347.5zM3111 1317q228 320 201 528q-7 51 -45 90t-86 27
q-139 -33 -243 -230q-29 -55 -252 -466q-84 -156 -127 -234q-14 -25 -46 -79t-47 -83q-2 -5 -12.5 -19.5t-16.5 -27t-5 -21.5q0 -1 3 -7q21 -27 183 81q101 62 185 127q187 145 308 314z" />
    <glyph glyph-name="A" unicode="&#xc0;" horiz-adv-x="2994" 
d="M3158 2058q70 19 116.5 4t72.5 -55t36.5 -93.5t8.5 -112.5t-13 -112t-28 -91q-147 -332 -386 -542q-80 -70 -133.5 -114t-130.5 -100t-154 -94.5t-156 -60.5q-46 -13 -123 -126t-135.5 -240t-62.5 -183q-5 -64 72 -52q64 10 132 52q5 3 9 6q41 29 87 69.5t77.5 72
t81.5 83.5t74 76q28 27 83 81.5t82 81.5q31 31 65 4q-4 3 -92 -88t-183.5 -193t-104.5 -110q-46 -43 -66.5 -61t-62 -51.5t-78 -54t-75.5 -34.5q-55 -20 -102.5 -6t-81.5 47t-50.5 82t-10.5 100q17 145 144 356q9 15 -91 35q-35 7 -51 8q-82 5 -142.5 -13t-111.5 -71
q-87 -90 -139.5 -142t-132.5 -124t-159 -125.5t-163 -94.5q-276 -136 -563 -137q-197 0 -340 84q-51 29 -65 34q-22 4 -30.5 4.5t-30 -2.5t-30.5 -4q-51 -3 -97 4q-93 15 -172 69q-73 49 -119.5 123t-57.5 161q-12 98 23.5 195t104.5 181q59 73 137.5 120.5t185.5 87.5
q40 14 43 19q88 123 113 159q30 38 83.5 112.5t78.5 107.5q64 84 160.5 171t186.5 140q83 49 175 72t184 17.5t176 -53t141 -135.5q41 -63 64.5 -132.5t31 -132t2.5 -139t-15.5 -137.5t-29.5 -143q-19 -81 58 -97q10 -2 39.5 -8.5t40.5 -8t35.5 -4t38.5 2.5t34 13t37.5 25
t34.5 41q94 132 166 227t172.5 215.5t191.5 210.5t205.5 182.5t231.5 161.5q55 33 107 59q24 14 55.5 10.5t31.5 -28.5q0 -28 -55 -42q-54 -14 -134 -85.5t-162.5 -169.5t-175.5 -218.5t-170 -226.5t-149 -199.5t-109 -132.5q-56 -59 16 -84q62 -22 153 -7q42 7 61 19
q44 28 145 178.5t203.5 322t218 347t180.5 241.5q13 13 50.5 54t58.5 61.5t57.5 45t70.5 34.5zM213 1061q-23 -31 -10 -39q10 -7 105 -11q359 -17 814 -133q18 -4 26 -5l107 -19q12 16 17 25q57 93 83 202q20 83 20 175t-20 183t-78 162t-146 96q-72 21 -151.5 16.5
t-148.5 -34.5q-86 -38 -169.5 -102t-160 -149.5t-133 -158t-127.5 -169.5q-19 -26 -28 -39zM30 144q6 6 7.5 15.5t-1 21t-5 20.5t-7.5 22.5t-7 18.5q-33 105 -42 213t1 186.5t25 142.5t25.5 96t6.5 31q-115 -22 -215.5 -109t-149.5 -201t-24 -212q41 -164 161 -226
q164 -85 225 -19zM52 437q3 -30 6.5 -53.5t11 -62.5t19.5 -67.5t29 -55.5t42 -38.5t55 -6.5q240 42 595 245q73 41 140.5 94.5t113 100t80 87.5t53 64.5t20.5 23.5q-160 47 -327 81t-294 49.5t-231.5 23t-161 6.5t-60.5 -6q-55 -74 -77 -237.5t-14 -247.5zM1561 671
q4 6 -16 16q-55 27 -151 45q-55 10 -63 1q-196 -208 -386 -335q-127 -86 -248 -149t-198.5 -92.5t-148.5 -47t-95.5 -20t-43.5 -2.5h-2q16 -17 61.5 -35t124 -31.5t205 4t269.5 70.5q204 76 382.5 228.5t309.5 347.5zM3111 1317q228 320 201 528q-7 51 -45 90t-86 27
q-139 -33 -243 -230q-29 -55 -252 -466q-84 -156 -127 -234q-14 -25 -46 -79t-47 -83q-2 -5 -12.5 -19.5t-16.5 -27t-5 -21.5q0 -1 3 -7q21 -27 183 81q101 62 185 127q187 145 308 314z" />
    <glyph glyph-name="B" unicode="B" horiz-adv-x="1703" 
d="M1995 1827q12 4 28 6t32.5 1t25 -10.5t1.5 -28.5q-2 -4 -4 -8.5t-4.5 -7.5t-6.5 -6t-6 -5t-7.5 -5t-7 -4t-8 -3.5t-8 -3t-8.5 -3.5t-8 -3q-70 -28 -120 -75q-11 -10 -15 -23.5t-3 -23t4 -27.5t4 -28q12 -169 -39 -313t-166 -233q-51 -40 -78 -102t-31.5 -117t-10 -133
t-15.5 -124q-30 -136 -101.5 -247t-182.5 -182q-6 -4 -25.5 -15.5t-28.5 -17.5t-23 -17t-23 -22q-16 -18 -56 -93q-48 -87 -125 -153t-170 -100q-96 -33 -149 1q12 -8 85.5 35t96.5 62q214 174 183 225q-9 15 -28 13q-14 -2 -53.5 -9t-65 -10.5t-63 -4t-62.5 6.5t-48.5 26
t-34.5 49q-43 116 111 241q40 33 62 50t59.5 42t72.5 40.5t71 22.5q39 8 78 -2t64 -37q49 -53 32 -190q66 43 127 153q81 147 119 312q17 73 -16 99q-16 9 -46.5 10t-60.5 -2.5t-50 9t-15 46.5q4 29 31 49q33 25 104 34.5t87 14.5q67 21 133 100q85 101 129 229t39 260
q0 19 -7 27q-13 12 -30 7.5t-33 -19.5q-12 -11 -24.5 -24t-22 -23.5t-22 -26.5t-20 -25.5t-20.5 -28.5t-18.5 -26.5t-19.5 -29.5l-17.5 -27.5t-19 -29.5t-17.5 -28q-181 -284 -395 -548q-176 -216 -452 -471q-138 -127 -304 -205t-348.5 -97t-363.5 35q-168 50 -225 187
q-29 69 1 132q18 39 54 68.5t72 18.5q32 -10 40.5 -40.5t-7.5 -57.5q-29 -57 -54 -73q-19 -13 -29 -25t-8.5 -23.5t4 -19t15.5 -17.5t18 -13.5t18 -11.5q79 -46 169 -61.5t206 -14.5q109 1 210.5 28.5t183 71.5t162.5 111t143.5 133.5t131.5 153.5q89 112 222.5 293.5
t253.5 337t237 281.5q22 25 93.5 86.5t95.5 77.5q2 1 7.5 5t8.5 6l9 6t8.5 7t6.5 7.5t5.5 8.5t2 8.5t-1 9.5t-5.5 10q-86 114 -219.5 180t-276.5 69q-296 7 -579 -193q-51 -36 -92 -69q-192 -157 -299 -321q-132 -203 -142 -411q-6 -118 55 -158q48 -31 148 -1
q248 77 442.5 263t280.5 431q13 37 24 49q24 25 50 13q29 -15 20 -69q-27 -169 -118 -318t-229 -257q-68 -53 -147 -97.5t-173 -78t-186.5 -27t-160.5 60.5q-87 70 -83 230q8 263 229 519q129 150 296 260t355 169q145 46 280.5 53.5t272.5 -35t246 -139.5q83 -74 155 -70
q28 1 76 23.5t55 24.5zM808 46q41 -3 88.5 7.5t92 32.5t78.5 55t47.5 75.5t-1.5 93.5q-11 37 -46.5 58t-73.5 20t-73 -17q-90 -49 -148 -114q-95 -106 -51 -165q30 -41 87 -46z" />
    <glyph glyph-name="C" unicode="C" horiz-adv-x="1513" 
d="M517 847q-120 -191 -203.5 -357.5t-132.5 -339.5q-26 -93 5 -162q32 -72 102 -105q12 -5 30 -10t41 -7.5t26 9.5q22 51 101 199q136 256 372 521q147 163 301 196q77 16 138 -42.5t53 -136.5q-7 -62 -38 -121.5t-82 -132.5q-132 -187 -259 -301q-114 -104 -219 -159
q-68 -36 -145 -56.5t-120.5 -26t-44.5 -7.5q-18 -34 -32 -123q-9 -66 -2 -129q7 -67 -46 -68q-10 0 -17.5 3t-12 10.5t-7.5 15t-4 19.5t-2 20.5t0.5 22t2 20.5t2 19.5t1.5 14.5q1 8 10 54t18 89l9 43q-12 5 -39.5 9.5t-30.5 5.5q-48 12 -71 21q-79 29 -122 80
q-62 73 -67 176q-8 186 94 397q127 252 280 449q20 24 7 37q-4 4 -16 6q-110 20 -198 78t-142 139.5t-85.5 182.5t-34.5 205.5t17 209t64 194.5q78 159 236 263t345 140q101 18 198 3.5t188 -59.5t166.5 -110t133.5 -148t91 -173q11 -29 36.5 -45t64 -27.5t55.5 -21.5
q69 -39 102.5 -106.5t31.5 -140.5t-31.5 -147.5t-78.5 -132.5t-118 -91t-142 -26q-19 2 -41 7t-33.5 7t-30 -1t-41.5 -14q-28 -13 -94.5 -46.5t-104 -50t-96.5 -32.5t-113 -16q-30 0 -56.5 -10t-43.5 -20.5t-39 -36.5t-30 -37.5t-30 -47t-26 -42.5zM1357 1681q-3 6 -6.5 16
t-4.5 13q-7 20 -16.5 25t-30.5 -4q-28 -15 -57 -36.5t-48.5 -38t-49.5 -48t-42.5 -45t-45.5 -52.5t-41 -48q-167 -192 -306 -347q2 2 7.5 0t19 -4.5t33.5 -3.5t55.5 4.5t79.5 18.5q150 44 227 120q26 26 44.5 88.5t32.5 84.5q26 34 53 34t45 -28.5t11 -63.5q-1 -6 -12 -32.5
t-24 -51t-18 -23.5q79 -17 148.5 22t110.5 106t55 144q9 37 4.5 81t-17 81t-45.5 59.5t-80 18.5q-10 -1 -15 -5.5t-6 -13t-0.5 -14.5t3.5 -18.5t3 -14.5q1 -12 1 -29.5t-8 -32t-23 -10.5q-17 5 -37 48zM27 1560q17 -180 118.5 -298.5t277.5 -160.5q19 -8 37.5 -8t34.5 20
q94 118 293 319q7 7 53 54t58.5 59t52.5 51t61 56.5t55 47.5t64.5 52t62.5 43q7 4 31.5 18.5t38 23.5t28 25.5t19.5 33.5q2 8 2 16.5t-1.5 15.5t-5 16t-6.5 15t-9 15.5t-8.5 14t-9.5 14.5t-9 12q-1 2 -3.5 5t-3.5 5q-97 137 -241 218.5t-302.5 89t-314.5 -69.5
q-194 -101 -293.5 -292t-79.5 -411zM498 -64q-9 -16 -25 -50q60 10 127 36h2q2 0 2 1q103 41 188 96q53 34 96 67q146 113 294 308q29 39 49 70.5t40 77t16.5 88t-32.5 75.5q-23 26 -59.5 28t-72.5 -13t-76 -42t-67 -50t-48 -44q-30 -30 -62 -70t-54 -70t-55.5 -79
t-51.5 -73q-82 -113 -211 -356z" />
    <glyph glyph-name="C" unicode="&#xc7;" horiz-adv-x="1513" 
d="M517 847q-120 -191 -203.5 -357.5t-132.5 -339.5q-26 -93 5 -162q32 -72 102 -105q12 -5 30 -10t41 -7.5t26 9.5q22 51 101 199q136 256 372 521q147 163 301 196q77 16 138 -42.5t53 -136.5q-7 -62 -38 -121.5t-82 -132.5q-132 -187 -259 -301q-114 -104 -219 -159
q-68 -36 -145 -56.5t-120.5 -26t-44.5 -7.5q-18 -34 -32 -123q-9 -66 -2 -129q7 -67 -46 -68q-10 0 -17.5 3t-12 10.5t-7.5 15t-4 19.5t-2 20.5t0.5 22t2 20.5t2 19.5t1.5 14.5q1 8 10 54t18 89l9 43q-12 5 -39.5 9.5t-30.5 5.5q-48 12 -71 21q-79 29 -122 80
q-62 73 -67 176q-8 186 94 397q127 252 280 449q20 24 7 37q-4 4 -16 6q-110 20 -198 78t-142 139.5t-85.5 182.5t-34.5 205.5t17 209t64 194.5q78 159 236 263t345 140q101 18 198 3.5t188 -59.5t166.5 -110t133.5 -148t91 -173q11 -29 36.5 -45t64 -27.5t55.5 -21.5
q69 -39 102.5 -106.5t31.5 -140.5t-31.5 -147.5t-78.5 -132.5t-118 -91t-142 -26q-19 2 -41 7t-33.5 7t-30 -1t-41.5 -14q-28 -13 -94.5 -46.5t-104 -50t-96.5 -32.5t-113 -16q-30 0 -56.5 -10t-43.5 -20.5t-39 -36.5t-30 -37.5t-30 -47t-26 -42.5zM1357 1681q-3 6 -6.5 16
t-4.5 13q-7 20 -16.5 25t-30.5 -4q-28 -15 -57 -36.5t-48.5 -38t-49.5 -48t-42.5 -45t-45.5 -52.5t-41 -48q-167 -192 -306 -347q2 2 7.5 0t19 -4.5t33.5 -3.5t55.5 4.5t79.5 18.5q150 44 227 120q26 26 44.5 88.5t32.5 84.5q26 34 53 34t45 -28.5t11 -63.5q-1 -6 -12 -32.5
t-24 -51t-18 -23.5q79 -17 148.5 22t110.5 106t55 144q9 37 4.5 81t-17 81t-45.5 59.5t-80 18.5q-10 -1 -15 -5.5t-6 -13t-0.5 -14.5t3.5 -18.5t3 -14.5q1 -12 1 -29.5t-8 -32t-23 -10.5q-17 5 -37 48zM27 1560q17 -180 118.5 -298.5t277.5 -160.5q19 -8 37.5 -8t34.5 20
q94 118 293 319q7 7 53 54t58.5 59t52.5 51t61 56.5t55 47.5t64.5 52t62.5 43q7 4 31.5 18.5t38 23.5t28 25.5t19.5 33.5q2 8 2 16.5t-1.5 15.5t-5 16t-6.5 15t-9 15.5t-8.5 14t-9.5 14.5t-9 12q-1 2 -3.5 5t-3.5 5q-97 137 -241 218.5t-302.5 89t-314.5 -69.5
q-194 -101 -293.5 -292t-79.5 -411zM498 -64q-9 -16 -25 -50q60 10 127 36h2q2 0 2 1q103 41 188 96q53 34 96 67q146 113 294 308q29 39 49 70.5t40 77t16.5 88t-32.5 75.5q-23 26 -59.5 28t-72.5 -13t-76 -42t-67 -50t-48 -44q-30 -30 -62 -70t-54 -70t-55.5 -79
t-51.5 -73q-82 -113 -211 -356z" />
    <glyph glyph-name="D" unicode="D" horiz-adv-x="2244" 
d="M2599 1899q5 -36 -26 -76q-16 -20 -37 -29.5t-42 0.5q-12 7 -23.5 29.5t-18.5 29.5q-26 27 -69 18q-14 -3 -30.5 -10t-27.5 -13.5t-29.5 -18.5t-25.5 -16q-28 -17 -36 -42.5t-3 -44.5t19.5 -55t18.5 -50q41 -134 37 -274t-36.5 -271t-95.5 -260t-141 -241t-172 -214
q-124 -134 -262 -218.5t-283.5 -121.5t-310.5 -40.5t-341 24.5q-23 3 -48 3t-46.5 -2.5t-47 -8.5t-45.5 -12.5t-46 -16t-44.5 -17t-45 -18t-43.5 -17.5q-168 -65 -321 -48q-24 3 -46.5 8.5t-48.5 16t-40 25.5t-19.5 37t11.5 50q21 40 85 64q169 65 408 39q16 -2 89.5 -15
t113.5 -11q51 3 103.5 22.5t90 41.5t89 65t75.5 66.5t75 74.5q115 114 233.5 262t219 289t203 282.5t223.5 284t243 253.5q19 17 23.5 37.5t-5 41.5t-25.5 42t-40.5 42t-47.5 38.5t-50 34.5t-44 27t-33 19q-198 109 -429 115q-189 5 -373.5 -60.5t-338.5 -187.5
q-294 -233 -438 -620q-80 -214 -52 -370q17 -96 79.5 -172.5t151.5 -99.5q111 -28 267 41q419 187 711 753q4 8 16.5 32.5t17.5 34.5t16.5 30.5t19.5 33t19.5 28.5t23.5 30q2 -2 2 -4q22 -81 -46 -217q-241 -477 -617 -707q-170 -103 -316 -120q-88 -10 -172.5 10t-149.5 72
q-75 60 -114.5 155.5t-39.5 199.5q0 167 100 383q129 277 343.5 485t483.5 292q285 88 588 15.5t517 -280.5q51 -51 91 -30q10 5 41 24.5t60 36t67 36t70.5 27.5t62 8t49 -20.5t25.5 -59.5zM315 -6q6 2 21 10.5t28 14.5t21 6q-1 0 -31 2t-53 3t-64.5 2.5t-73.5 0.5t-72 -2
t-69 -5.5t-54.5 -11.5t-38 -18t-11.5 -25q2 -29 27.5 -42.5t66.5 -11.5t84 10t91 23t77 25t51 19zM2206 1332q8 66 -4 160.5t-26.5 158t-13.5 64.5q-64 -77 -134.5 -176t-112 -162.5t-123 -194.5t-109.5 -174q-165 -261 -327.5 -449t-371.5 -328q-67 -45 -140.5 -105
t-54.5 -63q305 -39 586.5 89t483.5 377q192 237 289 534q44 140 55 252q1 5 3 17z" />
    <glyph glyph-name="E" unicode="E" horiz-adv-x="1466" 
d="M1306 1814q37 -63 54 -135.5t-1 -133.5q-4 -14 -12 -27.5t-15.5 -23.5t-22.5 -21t-23.5 -17.5t-28 -15.5t-27.5 -13t-31 -12t-28.5 -10t-29.5 -9.5t-26 -8.5q-120 -39 -230 -54q-47 -7 -45 -56q0 -19 5.5 -31.5t17.5 -18.5t21 -8t28.5 -4t28.5 -3q16 -3 28.5 -6t30 -10
t25.5 -19t5 -27q-6 -30 -28 -44.5t-53.5 -14.5t-62.5 4.5t-64 10t-49 4.5q-79 -5 -137 -46t-108 -111q-89 -124 -136 -275q3 10 56 17l170 15q18 2 23 4q25 10 48 24q25 15 72 53.5t75 54.5q39 23 84 34t92 -0.5t71 -52.5q25 -43 12 -147q-18 -145 -20 -250
q-3 -107 -16 -187t-50 -150q-54 -102 -144 -164.5t-196 -53.5q-86 8 -157.5 52.5t-118.5 109t-81 147.5t-50.5 163.5t-20.5 160.5q0 6 -42.5 -35t-105 -103t-94.5 -89q-4 23 8 52t31 46q129 114 172 188q28 48 89 190t112 210q114 152 305 221q23 9 24 32t-8 44
q-2 10 -9.5 17.5t-20 12.5t-22 7.5t-27 6l-22.5 4.5q-94 24 -130 38q-110 44 -189 118q-110 102 -132 235q-23 147 53.5 297t207.5 229q113 68 263 75t273 -42q47 -17 85.5 -44t62.5 -51t49 -68t36.5 -68.5t34.5 -82.5t34 -82q11 -27 27 -52zM792 -63q128 56 192 213.5
t26 332.5q0 -4 -20 -24q-4 -5 -11 -13.5t-10 -12.5q-21 -26 -43 -49q-73 -80 -180.5 -122.5t-223.5 -47.5q-97 2 -114 -13q-10 -9 -10 -24q0 -27 13 -55t26.5 -45.5t36.5 -43.5q65 -72 137 -99q93 -35 181 3zM718 707q-1 -1 -5.5 -7.5t-8.5 -12t-5 -5.5q29 1 98.5 -24.5
t131.5 -48.5t78 -17q23 10 35 59q28 106 -1 154q-43 74 -139 35q-32 -13 -102 -60q-32 -22 -57 -46q-5 -4 -25 -27zM639 627q-121 -147 -173 -307q-18 -53 20 -61q9 0 15 -1q52 -9 150 17q80 21 141 56q63 36 157 138q25 30 16.5 56t-42.5 42q-35 16 -129 53q-5 2 -14.5 5.5
t-14.5 5.5q-30 12 -45.5 17t-40 1.5t-40.5 -22.5zM587 646q-171 34 -226 -61q-19 -32 -26 -87q-14 -116 21 -191l24 -35q2 2 17 32q9 17 15 38q3 10 11 30q16 40 26 59q47 93 138 215zM768 1412q157 335 414 464q13 6 18 13q18 25 -17 97q-83 179 -234 233q-79 28 -163 32.5
t-163.5 -13.5t-152 -62t-124.5 -110q-47 -60 -76 -122t-39.5 -136t15.5 -143q29 -83 97 -151t154 -108q65 -30 107 -41q112 -31 149 21q8 11 15 26zM1187 1499q65 11 100 64t12 116q-10 28 -67 72.5t-79 38.5q-19 -4 -37 -22t-40.5 -50t-25.5 -36q-64 -80 -102 -144
q-41 -72 -67 -137q-4 -11 57 16t126 80.5t73 110.5q2 16 17 23t35 0q40 -15 30 -50q-3 -12 -16 -39.5t-16 -42.5z" />
    <glyph glyph-name="E" unicode="&#xcb;" horiz-adv-x="1466" 
d="M1306 1814q37 -63 54 -135.5t-1 -133.5q-4 -14 -12 -27.5t-15.5 -23.5t-22.5 -21t-23.5 -17.5t-28 -15.5t-27.5 -13t-31 -12t-28.5 -10t-29.5 -9.5t-26 -8.5q-120 -39 -230 -54q-47 -7 -45 -56q0 -19 5.5 -31.5t17.5 -18.5t21 -8t28.5 -4t28.5 -3q16 -3 28.5 -6t30 -10
t25.5 -19t5 -27q-6 -30 -28 -44.5t-53.5 -14.5t-62.5 4.5t-64 10t-49 4.5q-79 -5 -137 -46t-108 -111q-89 -124 -136 -275q3 10 56 17l170 15q18 2 23 4q25 10 48 24q25 15 72 53.5t75 54.5q39 23 84 34t92 -0.5t71 -52.5q25 -43 12 -147q-18 -145 -20 -250
q-3 -107 -16 -187t-50 -150q-54 -102 -144 -164.5t-196 -53.5q-86 8 -157.5 52.5t-118.5 109t-81 147.5t-50.5 163.5t-20.5 160.5q0 6 -42.5 -35t-105 -103t-94.5 -89q-4 23 8 52t31 46q129 114 172 188q28 48 89 190t112 210q114 152 305 221q23 9 24 32t-8 44
q-2 10 -9.5 17.5t-20 12.5t-22 7.5t-27 6l-22.5 4.5q-94 24 -130 38q-110 44 -189 118q-110 102 -132 235q-23 147 53.5 297t207.5 229q113 68 263 75t273 -42q47 -17 85.5 -44t62.5 -51t49 -68t36.5 -68.5t34.5 -82.5t34 -82q11 -27 27 -52zM792 -63q128 56 192 213.5
t26 332.5q0 -4 -20 -24q-4 -5 -11 -13.5t-10 -12.5q-21 -26 -43 -49q-73 -80 -180.5 -122.5t-223.5 -47.5q-97 2 -114 -13q-10 -9 -10 -24q0 -27 13 -55t26.5 -45.5t36.5 -43.5q65 -72 137 -99q93 -35 181 3zM718 707q-1 -1 -5.5 -7.5t-8.5 -12t-5 -5.5q29 1 98.5 -24.5
t131.5 -48.5t78 -17q23 10 35 59q28 106 -1 154q-43 74 -139 35q-32 -13 -102 -60q-32 -22 -57 -46q-5 -4 -25 -27zM639 627q-121 -147 -173 -307q-18 -53 20 -61q9 0 15 -1q52 -9 150 17q80 21 141 56q63 36 157 138q25 30 16.5 56t-42.5 42q-35 16 -129 53q-5 2 -14.5 5.5
t-14.5 5.5q-30 12 -45.5 17t-40 1.5t-40.5 -22.5zM587 646q-171 34 -226 -61q-19 -32 -26 -87q-14 -116 21 -191l24 -35q2 2 17 32q9 17 15 38q3 10 11 30q16 40 26 59q47 93 138 215zM768 1412q157 335 414 464q13 6 18 13q18 25 -17 97q-83 179 -234 233q-79 28 -163 32.5
t-163.5 -13.5t-152 -62t-124.5 -110q-47 -60 -76 -122t-39.5 -136t15.5 -143q29 -83 97 -151t154 -108q65 -30 107 -41q112 -31 149 21q8 11 15 26zM1187 1499q65 11 100 64t12 116q-10 28 -67 72.5t-79 38.5q-19 -4 -37 -22t-40.5 -50t-25.5 -36q-64 -80 -102 -144
q-41 -72 -67 -137q-4 -11 57 16t126 80.5t73 110.5q2 16 17 23t35 0q40 -15 30 -50q-3 -12 -16 -39.5t-16 -42.5z" />
    <glyph glyph-name="E" unicode="&#xca;" horiz-adv-x="1466" 
d="M1306 1814q37 -63 54 -135.5t-1 -133.5q-4 -14 -12 -27.5t-15.5 -23.5t-22.5 -21t-23.5 -17.5t-28 -15.5t-27.5 -13t-31 -12t-28.5 -10t-29.5 -9.5t-26 -8.5q-120 -39 -230 -54q-47 -7 -45 -56q0 -19 5.5 -31.5t17.5 -18.5t21 -8t28.5 -4t28.5 -3q16 -3 28.5 -6t30 -10
t25.5 -19t5 -27q-6 -30 -28 -44.5t-53.5 -14.5t-62.5 4.5t-64 10t-49 4.5q-79 -5 -137 -46t-108 -111q-89 -124 -136 -275q3 10 56 17l170 15q18 2 23 4q25 10 48 24q25 15 72 53.5t75 54.5q39 23 84 34t92 -0.5t71 -52.5q25 -43 12 -147q-18 -145 -20 -250
q-3 -107 -16 -187t-50 -150q-54 -102 -144 -164.5t-196 -53.5q-86 8 -157.5 52.5t-118.5 109t-81 147.5t-50.5 163.5t-20.5 160.5q0 6 -42.5 -35t-105 -103t-94.5 -89q-4 23 8 52t31 46q129 114 172 188q28 48 89 190t112 210q114 152 305 221q23 9 24 32t-8 44
q-2 10 -9.5 17.5t-20 12.5t-22 7.5t-27 6l-22.5 4.5q-94 24 -130 38q-110 44 -189 118q-110 102 -132 235q-23 147 53.5 297t207.5 229q113 68 263 75t273 -42q47 -17 85.5 -44t62.5 -51t49 -68t36.5 -68.5t34.5 -82.5t34 -82q11 -27 27 -52zM792 -63q128 56 192 213.5
t26 332.5q0 -4 -20 -24q-4 -5 -11 -13.5t-10 -12.5q-21 -26 -43 -49q-73 -80 -180.5 -122.5t-223.5 -47.5q-97 2 -114 -13q-10 -9 -10 -24q0 -27 13 -55t26.5 -45.5t36.5 -43.5q65 -72 137 -99q93 -35 181 3zM718 707q-1 -1 -5.5 -7.5t-8.5 -12t-5 -5.5q29 1 98.5 -24.5
t131.5 -48.5t78 -17q23 10 35 59q28 106 -1 154q-43 74 -139 35q-32 -13 -102 -60q-32 -22 -57 -46q-5 -4 -25 -27zM639 627q-121 -147 -173 -307q-18 -53 20 -61q9 0 15 -1q52 -9 150 17q80 21 141 56q63 36 157 138q25 30 16.5 56t-42.5 42q-35 16 -129 53q-5 2 -14.5 5.5
t-14.5 5.5q-30 12 -45.5 17t-40 1.5t-40.5 -22.5zM587 646q-171 34 -226 -61q-19 -32 -26 -87q-14 -116 21 -191l24 -35q2 2 17 32q9 17 15 38q3 10 11 30q16 40 26 59q47 93 138 215zM768 1412q157 335 414 464q13 6 18 13q18 25 -17 97q-83 179 -234 233q-79 28 -163 32.5
t-163.5 -13.5t-152 -62t-124.5 -110q-47 -60 -76 -122t-39.5 -136t15.5 -143q29 -83 97 -151t154 -108q65 -30 107 -41q112 -31 149 21q8 11 15 26zM1187 1499q65 11 100 64t12 116q-10 28 -67 72.5t-79 38.5q-19 -4 -37 -22t-40.5 -50t-25.5 -36q-64 -80 -102 -144
q-41 -72 -67 -137q-4 -11 57 16t126 80.5t73 110.5q2 16 17 23t35 0q40 -15 30 -50q-3 -12 -16 -39.5t-16 -42.5z" />
    <glyph glyph-name="E" unicode="&#xc9;" horiz-adv-x="1466" 
d="M1306 1814q37 -63 54 -135.5t-1 -133.5q-4 -14 -12 -27.5t-15.5 -23.5t-22.5 -21t-23.5 -17.5t-28 -15.5t-27.5 -13t-31 -12t-28.5 -10t-29.5 -9.5t-26 -8.5q-120 -39 -230 -54q-47 -7 -45 -56q0 -19 5.5 -31.5t17.5 -18.5t21 -8t28.5 -4t28.5 -3q16 -3 28.5 -6t30 -10
t25.5 -19t5 -27q-6 -30 -28 -44.5t-53.5 -14.5t-62.5 4.5t-64 10t-49 4.5q-79 -5 -137 -46t-108 -111q-89 -124 -136 -275q3 10 56 17l170 15q18 2 23 4q25 10 48 24q25 15 72 53.5t75 54.5q39 23 84 34t92 -0.5t71 -52.5q25 -43 12 -147q-18 -145 -20 -250
q-3 -107 -16 -187t-50 -150q-54 -102 -144 -164.5t-196 -53.5q-86 8 -157.5 52.5t-118.5 109t-81 147.5t-50.5 163.5t-20.5 160.5q0 6 -42.5 -35t-105 -103t-94.5 -89q-4 23 8 52t31 46q129 114 172 188q28 48 89 190t112 210q114 152 305 221q23 9 24 32t-8 44
q-2 10 -9.5 17.5t-20 12.5t-22 7.5t-27 6l-22.5 4.5q-94 24 -130 38q-110 44 -189 118q-110 102 -132 235q-23 147 53.5 297t207.5 229q113 68 263 75t273 -42q47 -17 85.5 -44t62.5 -51t49 -68t36.5 -68.5t34.5 -82.5t34 -82q11 -27 27 -52zM792 -63q128 56 192 213.5
t26 332.5q0 -4 -20 -24q-4 -5 -11 -13.5t-10 -12.5q-21 -26 -43 -49q-73 -80 -180.5 -122.5t-223.5 -47.5q-97 2 -114 -13q-10 -9 -10 -24q0 -27 13 -55t26.5 -45.5t36.5 -43.5q65 -72 137 -99q93 -35 181 3zM718 707q-1 -1 -5.5 -7.5t-8.5 -12t-5 -5.5q29 1 98.5 -24.5
t131.5 -48.5t78 -17q23 10 35 59q28 106 -1 154q-43 74 -139 35q-32 -13 -102 -60q-32 -22 -57 -46q-5 -4 -25 -27zM639 627q-121 -147 -173 -307q-18 -53 20 -61q9 0 15 -1q52 -9 150 17q80 21 141 56q63 36 157 138q25 30 16.5 56t-42.5 42q-35 16 -129 53q-5 2 -14.5 5.5
t-14.5 5.5q-30 12 -45.5 17t-40 1.5t-40.5 -22.5zM587 646q-171 34 -226 -61q-19 -32 -26 -87q-14 -116 21 -191l24 -35q2 2 17 32q9 17 15 38q3 10 11 30q16 40 26 59q47 93 138 215zM768 1412q157 335 414 464q13 6 18 13q18 25 -17 97q-83 179 -234 233q-79 28 -163 32.5
t-163.5 -13.5t-152 -62t-124.5 -110q-47 -60 -76 -122t-39.5 -136t15.5 -143q29 -83 97 -151t154 -108q65 -30 107 -41q112 -31 149 21q8 11 15 26zM1187 1499q65 11 100 64t12 116q-10 28 -67 72.5t-79 38.5q-19 -4 -37 -22t-40.5 -50t-25.5 -36q-64 -80 -102 -144
q-41 -72 -67 -137q-4 -11 57 16t126 80.5t73 110.5q2 16 17 23t35 0q40 -15 30 -50q-3 -12 -16 -39.5t-16 -42.5z" />
    <glyph glyph-name="E" unicode="&#xc8;" horiz-adv-x="1466" 
d="M1306 1814q37 -63 54 -135.5t-1 -133.5q-4 -14 -12 -27.5t-15.5 -23.5t-22.5 -21t-23.5 -17.5t-28 -15.5t-27.5 -13t-31 -12t-28.5 -10t-29.5 -9.5t-26 -8.5q-120 -39 -230 -54q-47 -7 -45 -56q0 -19 5.5 -31.5t17.5 -18.5t21 -8t28.5 -4t28.5 -3q16 -3 28.5 -6t30 -10
t25.5 -19t5 -27q-6 -30 -28 -44.5t-53.5 -14.5t-62.5 4.5t-64 10t-49 4.5q-79 -5 -137 -46t-108 -111q-89 -124 -136 -275q3 10 56 17l170 15q18 2 23 4q25 10 48 24q25 15 72 53.5t75 54.5q39 23 84 34t92 -0.5t71 -52.5q25 -43 12 -147q-18 -145 -20 -250
q-3 -107 -16 -187t-50 -150q-54 -102 -144 -164.5t-196 -53.5q-86 8 -157.5 52.5t-118.5 109t-81 147.5t-50.5 163.5t-20.5 160.5q0 6 -42.5 -35t-105 -103t-94.5 -89q-4 23 8 52t31 46q129 114 172 188q28 48 89 190t112 210q114 152 305 221q23 9 24 32t-8 44
q-2 10 -9.5 17.5t-20 12.5t-22 7.5t-27 6l-22.5 4.5q-94 24 -130 38q-110 44 -189 118q-110 102 -132 235q-23 147 53.5 297t207.5 229q113 68 263 75t273 -42q47 -17 85.5 -44t62.5 -51t49 -68t36.5 -68.5t34.5 -82.5t34 -82q11 -27 27 -52zM792 -63q128 56 192 213.5
t26 332.5q0 -4 -20 -24q-4 -5 -11 -13.5t-10 -12.5q-21 -26 -43 -49q-73 -80 -180.5 -122.5t-223.5 -47.5q-97 2 -114 -13q-10 -9 -10 -24q0 -27 13 -55t26.5 -45.5t36.5 -43.5q65 -72 137 -99q93 -35 181 3zM718 707q-1 -1 -5.5 -7.5t-8.5 -12t-5 -5.5q29 1 98.5 -24.5
t131.5 -48.5t78 -17q23 10 35 59q28 106 -1 154q-43 74 -139 35q-32 -13 -102 -60q-32 -22 -57 -46q-5 -4 -25 -27zM639 627q-121 -147 -173 -307q-18 -53 20 -61q9 0 15 -1q52 -9 150 17q80 21 141 56q63 36 157 138q25 30 16.5 56t-42.5 42q-35 16 -129 53q-5 2 -14.5 5.5
t-14.5 5.5q-30 12 -45.5 17t-40 1.5t-40.5 -22.5zM587 646q-171 34 -226 -61q-19 -32 -26 -87q-14 -116 21 -191l24 -35q2 2 17 32q9 17 15 38q3 10 11 30q16 40 26 59q47 93 138 215zM768 1412q157 335 414 464q13 6 18 13q18 25 -17 97q-83 179 -234 233q-79 28 -163 32.5
t-163.5 -13.5t-152 -62t-124.5 -110q-47 -60 -76 -122t-39.5 -136t15.5 -143q29 -83 97 -151t154 -108q65 -30 107 -41q112 -31 149 21q8 11 15 26zM1187 1499q65 11 100 64t12 116q-10 28 -67 72.5t-79 38.5q-19 -4 -37 -22t-40.5 -50t-25.5 -36q-64 -80 -102 -144
q-41 -72 -67 -137q-4 -11 57 16t126 80.5t73 110.5q2 16 17 23t35 0q40 -15 30 -50q-3 -12 -16 -39.5t-16 -42.5z" />
    <glyph glyph-name="F" unicode="F" horiz-adv-x="2131" 
d="M2135 1798q45 11 57 -11q2 -4 2.5 -7.5t-1 -6.5t-3.5 -5.5t-6 -5t-6.5 -4t-7.5 -3.5l-7.5 -3t-8 -3t-6.5 -2q-102 -39 -196.5 -120.5t-158.5 -178.5q-91 -137 -346 -547q3 5 48 7.5t95.5 4.5t60.5 5q50 14 88 45q6 5 19 18.5t23.5 20t24.5 7.5q29 2 42.5 -14.5t6.5 -38.5
t-30 -35q-61 -34 -98 -103q-2 -3 -11 -28.5t-19 -38t-24 -8.5q-17 6 -29 21t-11 35q2 31 -17.5 46.5t-46 15t-51.5 -2.5q-64 -8 -104.5 -25t-70.5 -59q-141 -196 -260 -316q-75 -76 -187 -156q-12 -8 -60.5 -39t-77.5 -55.5t-46 -54.5q-23 -41 -17 -89.5t38 -82.5
q24 -24 28 -33q5 -10 2.5 -21.5t-11.5 -16.5q-34 -18 -60 25q-23 38 -37 94q-1 5 -4 19.5t-5 23t-7.5 19.5t-12.5 17q-30 26 -100 -11q-115 -59 -245 -78t-257 5q-166 31 -217 131q-28 52 -9 99q10 25 33.5 39t47.5 9q25 -5 37 -31.5t-2 -47.5q-4 -6 -9.5 -11t-13.5 -10.5
t-12 -8.5q-24 -20 -16 -40q2 -5 13 -16q92 -78 262 -78q65 0 138.5 11t152.5 35t136.5 71.5t69.5 110.5q45 234 256 404q97 77 211 126q12 5 50 20t53 22.5t39.5 26t41.5 42.5q11 16 54 77t57.5 81.5t54 75t59.5 80t57 72.5t63.5 76.5t62 68t70 71t70.5 63.5q115 97 184 142
q3 2 26 17.5t31.5 20.5t26.5 13t33 12zM696 262q58 39 111 85t107 107t87.5 101.5t95 120t86.5 110.5q-123 -30 -234 -110.5t-180.5 -191.5t-72.5 -222zM3271 1992q39 42 85 32q34 -7 37 -36t-30 -60q-134 -127 -172 -161q-15 -13 -24 -2q-2 3 -4 11q-3 11 -10 19
t-13.5 12.5t-19 8t-19.5 4.5t-22 2.5t-19 2.5q-50 7 -185.5 26t-198 27t-189.5 23.5t-202 20t-191 11t-202 2.5t-189 -11.5t-197 -25t-184 -43.5q-395 -113 -603 -316q-302 -294 -300 -551q3 -175 197 -160q147 12 283 79.5t247 177.5q111 109 183 239q5 9 16 37t22 54
t25.5 51.5t32 37.5t36.5 5q78 -31 -116 -310q-33 -46 -75 -101q-3 -5 -4 -6q-53 -70 -121.5 -134t-155.5 -118.5t-174 -83t-181.5 -19t-174.5 65.5q-30 21 -54 55q-81 119 -8 331q73 210 233.5 367t378.5 252q516 226 1221 161q178 -16 266 -27q48 -6 252 -26.5t312 -38.5
q8 -1 27 -5.5t30.5 -6.5t27.5 -1.5t28 6.5q26 12 58 62.5t40 59.5z" />
    <glyph glyph-name="G" unicode="G" horiz-adv-x="1603" 
d="M1503 1423q47 32 69 10q11 -10 8.5 -24.5t-10.5 -27.5t-20 -24q-96 -92 -220 -182q-5 -3 -23 -16t-24.5 -18t-21.5 -16.5t-23.5 -19t-20 -18.5t-20.5 -21q-67 -76 -56 -158q5 -32 33.5 -87t32.5 -64q27 -76 25.5 -146t-32.5 -139.5t-75 -127t-102 -107.5
q-117 -102 -255 -155q-46 -18 -158.5 -41t-168.5 -50q-46 -22 -130.5 -90.5t-135.5 -90.5q-48 -24 -109 -18t-94 47q-59 73 6 219q119 271 352 477t528 320q45 18 65 26.5t55 27.5t56 41.5t33 51.5q-58 -35 -95.5 -55t-94 -35.5t-105.5 -8.5q-68 9 -122 55q-11 9 -28 29.5
t-32.5 31.5t-37.5 13q-236 24 -365 158q-82 85 -106.5 194t19.5 219q38 89 101 161.5t139 119.5t164 68t174.5 13.5t172 -50.5t154.5 -119q28 -28 42 -27t40 24q79 70 151.5 116t147.5 58q76 12 134.5 -33t73.5 -120q10 -50 -3 -103t-47.5 -104.5t-64.5 -87t-73 -79.5
q-269 -274 -527 -347q-35 -9 -59 -14q-11 -2 -23.5 -5t-32 -9t-32.5 -13t-25 -17t-10.5 -21.5t11.5 -26.5q18 -21 39.5 -32.5t46 -12t47 2.5t50.5 16t48 23.5t49 31t44 32t41 32.5t34 27q46 35 181.5 148t214.5 168zM582 1147q23 95 152.5 272t216.5 259q8 7 21.5 23
t18.5 21q-5 6 -13.5 17.5t-12.5 15.5q-78 89 -198.5 116.5t-231.5 -10.5q-150 -47 -258 -181q-124 -156 -114 -276q6 -65 56 -126q103 -120 305 -170q25 -6 38 1.5t20 37.5zM767 1230q-3 -4 -22.5 -38.5t-37.5 -60t-29 -27.5q68 15 122 28t102 30.5t80 28.5t70 34t57 34
t56.5 43t52.5 46t61 57.5t68 63.5q111 103 169 251q36 93 -14 154q-35 43 -88 17q-134 -64 -209 -138q-50 -49 -179.5 -196t-167.5 -198q-12 -16 -91 -129zM439 155q68 98 141 198t183.5 246.5t146.5 194.5q-4 -6 -21.5 -12t-39 -10.5t-26.5 -6.5q-300 -109 -514.5 -317.5
t-294.5 -499.5q-11 -41 10.5 -72t62.5 -24q97 17 173 98q11 12 21.5 27t21 34.5t7.5 36.5t-21 26q-4 2 -18.5 8.5t-21 10.5t-18.5 11t-17.5 13t-11 14t-4.5 16.5t6 18.5q6 11 16.5 13.5t23.5 -3t25 -13t27 -17t24 -13.5q5 -2 16.5 -7.5t16 -7.5t14 -4.5t14.5 -2t13 2t14.5 7
t14.5 14t16 20.5zM1159 610q21 129 -54 194q-21 18 -33 22t-23.5 -4.5t-26.5 -33.5q-146 -256 -258 -410q-25 -35 -75 -97t-61 -76q-2 -2 -11.5 -16.5t-20.5 -30.5t-23 -32.5t-22 -27t-14 -9.5q8 -2 16.5 -4t13.5 -3t9 -1q127 12 255 91t218 197.5t110 240.5z" />
    <glyph glyph-name="H" unicode="H" horiz-adv-x="2187" 
d="M2640 1979q18 -22 18.5 -53.5t-10 -61.5t-30.5 -63.5t-37.5 -56.5t-35.5 -44q-282 -332 -580 -539q-90 -63 -164 -149.5t-153 -204.5q-138 -207 -287 -408q-55 -75 -108 -153q-4 -6 -17 -23.5t-20 -29t-14.5 -28t-6 -31.5t11.5 -27q29 -35 69 -40t76 10t78.5 46.5
t68 56.5t52.5 54q135 146 326 414q18 24 28 25q9 1 19 -9q20 -20 -6 -54q-29 -37 -128 -176.5t-159 -209.5q-198 -231 -386 -200q-47 8 -82.5 36.5t-51.5 68t-18.5 86t15.5 88.5q28 74 83.5 158t100 138.5t117.5 138.5q15 17 22 25q39 44 68 84q4 5 15.5 27.5t23 42
t16.5 20.5q-360 -93 -379 -97t-34 -12t-28.5 -21.5t-20.5 -22.5t-21 -29t-19 -27q-57 -77 -123 -147.5t-152.5 -143t-142.5 -116t-162 -121.5q-23 -17 -35 -26q-46 -34 -60 -82.5t12 -100.5q25 -47 75 -76q11 -7 34 -15t39 -18t26 -26q0 -1 -16.5 -2t-32 -1h-21.5
q-60 11 -106.5 55.5t-64.5 104.5q-14 46 -33.5 52t-51.5 -12q-7 -3 -10 -4q-291 -122 -547 -108q-148 8 -268 59q-24 10 -45 21t-47 27.5t-43.5 35t-30 40t-10 47.5t19.5 52q21 31 60 38t66 -21q14 -16 14.5 -36t-6.5 -36.5t-16 -38.5t-11 -36t192 -57q108 -22 209 -22
q203 -2 392 70q108 41 134 119q8 24 14.5 71t11.5 67q14 51 40.5 98.5t59 85.5t77 74t85.5 62.5t95 54.5t95.5 46.5t95.5 41.5q36 15 69 42t49 45.5t49 64t42 57.5q353 461 654 737q17 16 25 26t10.5 21.5t-8.5 21.5t-35 21q-79 36 -107 48.5t-101 41t-116.5 39.5
t-105.5 21.5t-117 8.5q-300 -9 -542 -163q-130 -82 -228.5 -200.5t-150.5 -259.5q-42 -111 -36 -210q7 -120 79 -194q5 -5 16 -15t17 -16t13.5 -16t11.5 -19q4 -12 1 -17q-2 -5 -11 -7q-41 -10 -83 18q-30 20 -58 64q-62 98 -78 220t14 235q39 157 144.5 295t249.5 230
q25 16 66 38q173 90 397 108q78 6 161.5 -3t149.5 -24.5t154 -47.5t141.5 -55.5t146.5 -65.5q18 -8 25 -11t23.5 -9.5t27 -8t25 -2t27.5 3.5t31 18t25 18q34 19 79 28q24 5 54 -1.5t46.5 -23.5t-6.5 -49q-33 -44 -127 -57q-53 -7 -102 -33t-91.5 -68.5t-72 -80t-65.5 -89.5
q-22 -32 -102.5 -153.5t-135.5 -197t-116 -143.5q-3 -3 -20.5 -24.5t-31.5 -38t-31 -31.5t-26 -15q181 -3 335.5 71t260.5 218q252 340 588 683q74 75 148 102q30 13 67 9t58 -30zM492 324q9 11 39.5 49t42 52.5t39.5 48.5t43.5 51.5t41.5 47t45.5 49.5t44 43.5t47.5 44.5
q-109 -71 -236 -167q-105 -77 -125 -96q-43 -41 -60 -67q-25 -39 -13 -64q7 -16 25 -22t34 2q15 7 32 28zM2582 1898q1 13 -7 18.5t-19.5 3.5t-18.5 -8q-48 -38 -71 -58q-46 -42 -88.5 -88t-87.5 -108t-70 -98t-77 -116t-68 -104q-14 -21 -44 -63q13 13 133 122.5t178 171.5
q110 118 202 260l30 48q7 10 8 19z" />
    <glyph glyph-name="I" unicode="I" horiz-adv-x="3323" 
d="M3163 2182q56 40 61 18q5 -19 -29 -54q-12 -13 -26 -22q-58 -38 -124 -67t-142.5 -48.5t-135.5 -31t-150 -27t-138 -24.5q-113 -22 -229 -71t-223 -118.5t-199 -161.5t-159.5 -194t-103.5 -222.5t-31 -242.5q2 -44 14 -58q7 -6 15 -10q12 -8 22 -3t13.5 9t9 15.5
t8.5 15.5q94 129 155.5 210t161.5 201.5t183 203t192 169.5t217 146q25 14 50 16.5t45.5 -3t50.5 -18.5q-93 -32 -176 -84t-157 -125t-129 -138.5t-123 -158.5q-25 -34 -88.5 -119.5t-109 -148t-96 -132.5t-78 -111t-26.5 -46q2 -12 18.5 -20t31.5 -10q46 -6 149 31
q134 48 236 170t109 260q1 22 -11 56.5t-14 47.5q-1 5 -5 12.5t-6.5 12.5t0.5 11t13 11q31 14 53 -8.5t28 -61t8.5 -77.5t-4.5 -58q-25 -96 -98 -197.5t-156 -160.5q-48 -34 -112 -61.5t-117 -34.5q-16 -2 -59 -4t-70 -5t-59 -17t-49 -39q-61 -90 -116 -161t-123 -146.5
t-145 -138.5t-159 -110q-95 -54 -202.5 -85.5t-229.5 -40.5t-215.5 -8.5t-229.5 8.5q-82 4 -143 13t-127.5 32.5t-106 60.5t-60.5 100.5t-10 149.5q24 183 145.5 333.5t294.5 213.5q59 21 80 36q9 6 16.5 13.5t15.5 18.5t12.5 17t13.5 21t11 19q100 162 250.5 283.5
t329.5 185.5q131 46 221 34q74 -10 127.5 -43t80.5 -81t38.5 -109t7 -124.5t-19 -130t-36 -124.5t-47.5 -107q-127 -243 -329.5 -435t-451.5 -304l1 -1q17 -11 46 -11.5t47 2.5t57 13t42 11q65 16 123.5 42.5t114.5 66.5t97.5 75.5t100.5 90.5q213 201 379 424q16 22 19 35
q4 4 1.5 15t-2.5 14.5t-5.5 14.5l-7 14t-8 13.5t-8.5 13.5q-79 131 -19 333q52 172 165 324t264 264q247 183 648 251q41 7 130 19.5t140.5 21.5t123.5 27t132.5 46t114.5 67zM188 -1q29 8 59 24q-7 -4 -24 12.5t-36.5 43.5t-31 44.5t-19.5 29.5q-80 130 -33 333
q15 65 48 163q1 4 7 27t11.5 43t13.5 38.5t15 20.5q-178 -44 -301 -194t-143 -336q-7 -71 16.5 -126t69 -86t104 -46.5t122 -12t122.5 21.5zM262 86q35 -29 72.5 -37t75.5 4t68 28.5t69 44.5q282 203 455 465q93 142 160 299q20 48 27 66t25 67t22 78.5t7.5 71t-6.5 75.5
t-30 63q-50 72 -153 84q-218 25 -451 -173q-94 -78 -179 -186q-4 -5 -33 -50t-56 -82.5t-36 -35.5q110 -22 231 -44q21 -4 69.5 -11.5t74.5 -12.5q3 -1 23.5 -4t34.5 -7t20 -10q5 -7 5 -8q8 -20 -27 -31q-19 -6 -49 -2q-49 5 -139 28t-133 29q-133 18 -169 -65
q-35 -81 -57 -160t-32.5 -172t17 -175.5t94.5 -136.5z" />
    <glyph glyph-name="I" unicode="&#xcf;" horiz-adv-x="3323" 
d="M3163 2182q56 40 61 18q5 -19 -29 -54q-12 -13 -26 -22q-58 -38 -124 -67t-142.5 -48.5t-135.5 -31t-150 -27t-138 -24.5q-113 -22 -229 -71t-223 -118.5t-199 -161.5t-159.5 -194t-103.5 -222.5t-31 -242.5q2 -44 14 -58q7 -6 15 -10q12 -8 22 -3t13.5 9t9 15.5
t8.5 15.5q94 129 155.5 210t161.5 201.5t183 203t192 169.5t217 146q25 14 50 16.5t45.5 -3t50.5 -18.5q-93 -32 -176 -84t-157 -125t-129 -138.5t-123 -158.5q-25 -34 -88.5 -119.5t-109 -148t-96 -132.5t-78 -111t-26.5 -46q2 -12 18.5 -20t31.5 -10q46 -6 149 31
q134 48 236 170t109 260q1 22 -11 56.5t-14 47.5q-1 5 -5 12.5t-6.5 12.5t0.5 11t13 11q31 14 53 -8.5t28 -61t8.5 -77.5t-4.5 -58q-25 -96 -98 -197.5t-156 -160.5q-48 -34 -112 -61.5t-117 -34.5q-16 -2 -59 -4t-70 -5t-59 -17t-49 -39q-61 -90 -116 -161t-123 -146.5
t-145 -138.5t-159 -110q-95 -54 -202.5 -85.5t-229.5 -40.5t-215.5 -8.5t-229.5 8.5q-82 4 -143 13t-127.5 32.5t-106 60.5t-60.5 100.5t-10 149.5q24 183 145.5 333.5t294.5 213.5q59 21 80 36q9 6 16.5 13.5t15.5 18.5t12.5 17t13.5 21t11 19q100 162 250.5 283.5
t329.5 185.5q131 46 221 34q74 -10 127.5 -43t80.5 -81t38.5 -109t7 -124.5t-19 -130t-36 -124.5t-47.5 -107q-127 -243 -329.5 -435t-451.5 -304l1 -1q17 -11 46 -11.5t47 2.5t57 13t42 11q65 16 123.5 42.5t114.5 66.5t97.5 75.5t100.5 90.5q213 201 379 424q16 22 19 35
q4 4 1.5 15t-2.5 14.5t-5.5 14.5l-7 14t-8 13.5t-8.5 13.5q-79 131 -19 333q52 172 165 324t264 264q247 183 648 251q41 7 130 19.5t140.5 21.5t123.5 27t132.5 46t114.5 67zM188 -1q29 8 59 24q-7 -4 -24 12.5t-36.5 43.5t-31 44.5t-19.5 29.5q-80 130 -33 333
q15 65 48 163q1 4 7 27t11.5 43t13.5 38.5t15 20.5q-178 -44 -301 -194t-143 -336q-7 -71 16.5 -126t69 -86t104 -46.5t122 -12t122.5 21.5zM262 86q35 -29 72.5 -37t75.5 4t68 28.5t69 44.5q282 203 455 465q93 142 160 299q20 48 27 66t25 67t22 78.5t7.5 71t-6.5 75.5
t-30 63q-50 72 -153 84q-218 25 -451 -173q-94 -78 -179 -186q-4 -5 -33 -50t-56 -82.5t-36 -35.5q110 -22 231 -44q21 -4 69.5 -11.5t74.5 -12.5q3 -1 23.5 -4t34.5 -7t20 -10q5 -7 5 -8q8 -20 -27 -31q-19 -6 -49 -2q-49 5 -139 28t-133 29q-133 18 -169 -65
q-35 -81 -57 -160t-32.5 -172t17 -175.5t94.5 -136.5z" />
    <glyph glyph-name="I" unicode="&#xce;" horiz-adv-x="3323" 
d="M3163 2182q56 40 61 18q5 -19 -29 -54q-12 -13 -26 -22q-58 -38 -124 -67t-142.5 -48.5t-135.5 -31t-150 -27t-138 -24.5q-113 -22 -229 -71t-223 -118.5t-199 -161.5t-159.5 -194t-103.5 -222.5t-31 -242.5q2 -44 14 -58q7 -6 15 -10q12 -8 22 -3t13.5 9t9 15.5
t8.5 15.5q94 129 155.5 210t161.5 201.5t183 203t192 169.5t217 146q25 14 50 16.5t45.5 -3t50.5 -18.5q-93 -32 -176 -84t-157 -125t-129 -138.5t-123 -158.5q-25 -34 -88.5 -119.5t-109 -148t-96 -132.5t-78 -111t-26.5 -46q2 -12 18.5 -20t31.5 -10q46 -6 149 31
q134 48 236 170t109 260q1 22 -11 56.5t-14 47.5q-1 5 -5 12.5t-6.5 12.5t0.5 11t13 11q31 14 53 -8.5t28 -61t8.5 -77.5t-4.5 -58q-25 -96 -98 -197.5t-156 -160.5q-48 -34 -112 -61.5t-117 -34.5q-16 -2 -59 -4t-70 -5t-59 -17t-49 -39q-61 -90 -116 -161t-123 -146.5
t-145 -138.5t-159 -110q-95 -54 -202.5 -85.5t-229.5 -40.5t-215.5 -8.5t-229.5 8.5q-82 4 -143 13t-127.5 32.5t-106 60.5t-60.5 100.5t-10 149.5q24 183 145.5 333.5t294.5 213.5q59 21 80 36q9 6 16.5 13.5t15.5 18.5t12.5 17t13.5 21t11 19q100 162 250.5 283.5
t329.5 185.5q131 46 221 34q74 -10 127.5 -43t80.5 -81t38.5 -109t7 -124.5t-19 -130t-36 -124.5t-47.5 -107q-127 -243 -329.5 -435t-451.5 -304l1 -1q17 -11 46 -11.5t47 2.5t57 13t42 11q65 16 123.5 42.5t114.5 66.5t97.5 75.5t100.5 90.5q213 201 379 424q16 22 19 35
q4 4 1.5 15t-2.5 14.5t-5.5 14.5l-7 14t-8 13.5t-8.5 13.5q-79 131 -19 333q52 172 165 324t264 264q247 183 648 251q41 7 130 19.5t140.5 21.5t123.5 27t132.5 46t114.5 67zM188 -1q29 8 59 24q-7 -4 -24 12.5t-36.5 43.5t-31 44.5t-19.5 29.5q-80 130 -33 333
q15 65 48 163q1 4 7 27t11.5 43t13.5 38.5t15 20.5q-178 -44 -301 -194t-143 -336q-7 -71 16.5 -126t69 -86t104 -46.5t122 -12t122.5 21.5zM262 86q35 -29 72.5 -37t75.5 4t68 28.5t69 44.5q282 203 455 465q93 142 160 299q20 48 27 66t25 67t22 78.5t7.5 71t-6.5 75.5
t-30 63q-50 72 -153 84q-218 25 -451 -173q-94 -78 -179 -186q-4 -5 -33 -50t-56 -82.5t-36 -35.5q110 -22 231 -44q21 -4 69.5 -11.5t74.5 -12.5q3 -1 23.5 -4t34.5 -7t20 -10q5 -7 5 -8q8 -20 -27 -31q-19 -6 -49 -2q-49 5 -139 28t-133 29q-133 18 -169 -65
q-35 -81 -57 -160t-32.5 -172t17 -175.5t94.5 -136.5z" />
    <glyph glyph-name="I" unicode="&#xcd;" horiz-adv-x="3323" 
d="M3163 2182q56 40 61 18q5 -19 -29 -54q-12 -13 -26 -22q-58 -38 -124 -67t-142.5 -48.5t-135.5 -31t-150 -27t-138 -24.5q-113 -22 -229 -71t-223 -118.5t-199 -161.5t-159.5 -194t-103.5 -222.5t-31 -242.5q2 -44 14 -58q7 -6 15 -10q12 -8 22 -3t13.5 9t9 15.5
t8.5 15.5q94 129 155.5 210t161.5 201.5t183 203t192 169.5t217 146q25 14 50 16.5t45.5 -3t50.5 -18.5q-93 -32 -176 -84t-157 -125t-129 -138.5t-123 -158.5q-25 -34 -88.5 -119.5t-109 -148t-96 -132.5t-78 -111t-26.5 -46q2 -12 18.5 -20t31.5 -10q46 -6 149 31
q134 48 236 170t109 260q1 22 -11 56.5t-14 47.5q-1 5 -5 12.5t-6.5 12.5t0.5 11t13 11q31 14 53 -8.5t28 -61t8.5 -77.5t-4.5 -58q-25 -96 -98 -197.5t-156 -160.5q-48 -34 -112 -61.5t-117 -34.5q-16 -2 -59 -4t-70 -5t-59 -17t-49 -39q-61 -90 -116 -161t-123 -146.5
t-145 -138.5t-159 -110q-95 -54 -202.5 -85.5t-229.5 -40.5t-215.5 -8.5t-229.5 8.5q-82 4 -143 13t-127.5 32.5t-106 60.5t-60.5 100.5t-10 149.5q24 183 145.5 333.5t294.5 213.5q59 21 80 36q9 6 16.5 13.5t15.5 18.5t12.5 17t13.5 21t11 19q100 162 250.5 283.5
t329.5 185.5q131 46 221 34q74 -10 127.5 -43t80.5 -81t38.5 -109t7 -124.5t-19 -130t-36 -124.5t-47.5 -107q-127 -243 -329.5 -435t-451.5 -304l1 -1q17 -11 46 -11.5t47 2.5t57 13t42 11q65 16 123.5 42.5t114.5 66.5t97.5 75.5t100.5 90.5q213 201 379 424q16 22 19 35
q4 4 1.5 15t-2.5 14.5t-5.5 14.5l-7 14t-8 13.5t-8.5 13.5q-79 131 -19 333q52 172 165 324t264 264q247 183 648 251q41 7 130 19.5t140.5 21.5t123.5 27t132.5 46t114.5 67zM188 -1q29 8 59 24q-7 -4 -24 12.5t-36.5 43.5t-31 44.5t-19.5 29.5q-80 130 -33 333
q15 65 48 163q1 4 7 27t11.5 43t13.5 38.5t15 20.5q-178 -44 -301 -194t-143 -336q-7 -71 16.5 -126t69 -86t104 -46.5t122 -12t122.5 21.5zM262 86q35 -29 72.5 -37t75.5 4t68 28.5t69 44.5q282 203 455 465q93 142 160 299q20 48 27 66t25 67t22 78.5t7.5 71t-6.5 75.5
t-30 63q-50 72 -153 84q-218 25 -451 -173q-94 -78 -179 -186q-4 -5 -33 -50t-56 -82.5t-36 -35.5q110 -22 231 -44q21 -4 69.5 -11.5t74.5 -12.5q3 -1 23.5 -4t34.5 -7t20 -10q5 -7 5 -8q8 -20 -27 -31q-19 -6 -49 -2q-49 5 -139 28t-133 29q-133 18 -169 -65
q-35 -81 -57 -160t-32.5 -172t17 -175.5t94.5 -136.5z" />
    <glyph glyph-name="I" unicode="&#xcc;" horiz-adv-x="3323" 
d="M3163 2182q56 40 61 18q5 -19 -29 -54q-12 -13 -26 -22q-58 -38 -124 -67t-142.5 -48.5t-135.5 -31t-150 -27t-138 -24.5q-113 -22 -229 -71t-223 -118.5t-199 -161.5t-159.5 -194t-103.5 -222.5t-31 -242.5q2 -44 14 -58q7 -6 15 -10q12 -8 22 -3t13.5 9t9 15.5
t8.5 15.5q94 129 155.5 210t161.5 201.5t183 203t192 169.5t217 146q25 14 50 16.5t45.5 -3t50.5 -18.5q-93 -32 -176 -84t-157 -125t-129 -138.5t-123 -158.5q-25 -34 -88.5 -119.5t-109 -148t-96 -132.5t-78 -111t-26.5 -46q2 -12 18.5 -20t31.5 -10q46 -6 149 31
q134 48 236 170t109 260q1 22 -11 56.5t-14 47.5q-1 5 -5 12.5t-6.5 12.5t0.5 11t13 11q31 14 53 -8.5t28 -61t8.5 -77.5t-4.5 -58q-25 -96 -98 -197.5t-156 -160.5q-48 -34 -112 -61.5t-117 -34.5q-16 -2 -59 -4t-70 -5t-59 -17t-49 -39q-61 -90 -116 -161t-123 -146.5
t-145 -138.5t-159 -110q-95 -54 -202.5 -85.5t-229.5 -40.5t-215.5 -8.5t-229.5 8.5q-82 4 -143 13t-127.5 32.5t-106 60.5t-60.5 100.5t-10 149.5q24 183 145.5 333.5t294.5 213.5q59 21 80 36q9 6 16.5 13.5t15.5 18.5t12.5 17t13.5 21t11 19q100 162 250.5 283.5
t329.5 185.5q131 46 221 34q74 -10 127.5 -43t80.5 -81t38.5 -109t7 -124.5t-19 -130t-36 -124.5t-47.5 -107q-127 -243 -329.5 -435t-451.5 -304l1 -1q17 -11 46 -11.5t47 2.5t57 13t42 11q65 16 123.5 42.5t114.5 66.5t97.5 75.5t100.5 90.5q213 201 379 424q16 22 19 35
q4 4 1.5 15t-2.5 14.5t-5.5 14.5l-7 14t-8 13.5t-8.5 13.5q-79 131 -19 333q52 172 165 324t264 264q247 183 648 251q41 7 130 19.5t140.5 21.5t123.5 27t132.5 46t114.5 67zM188 -1q29 8 59 24q-7 -4 -24 12.5t-36.5 43.5t-31 44.5t-19.5 29.5q-80 130 -33 333
q15 65 48 163q1 4 7 27t11.5 43t13.5 38.5t15 20.5q-178 -44 -301 -194t-143 -336q-7 -71 16.5 -126t69 -86t104 -46.5t122 -12t122.5 21.5zM262 86q35 -29 72.5 -37t75.5 4t68 28.5t69 44.5q282 203 455 465q93 142 160 299q20 48 27 66t25 67t22 78.5t7.5 71t-6.5 75.5
t-30 63q-50 72 -153 84q-218 25 -451 -173q-94 -78 -179 -186q-4 -5 -33 -50t-56 -82.5t-36 -35.5q110 -22 231 -44q21 -4 69.5 -11.5t74.5 -12.5q3 -1 23.5 -4t34.5 -7t20 -10q5 -7 5 -8q8 -20 -27 -31q-19 -6 -49 -2q-49 5 -139 28t-133 29q-133 18 -169 -65
q-35 -81 -57 -160t-32.5 -172t17 -175.5t94.5 -136.5z" />
    <glyph glyph-name="J" unicode="J" horiz-adv-x="1191" 
d="M1728 2138q17 13 8 -36q-6 -23 -59 -58q-60 -39 -142.5 -68t-153.5 -43.5t-157 -41t-148 -61.5q-240 -134 -411 -414q-38 -61 -56 -130q-11 -42 -13 -73q-4 -23 -2.5 -45t13.5 -42q30 -48 50 -20q5 8 17 23.5t17 23.5q42 58 64 87q60 80 91 119q7 9 38 47.5t41.5 51.5
t37 45t42.5 50.5t39 44t44 46.5q68 69 141 125q5 4 24 19.5t32 25t31 21.5t34.5 17.5t30.5 4.5q51 -3 -25 -74q-12 -10 -20 -17q-52 -39 -98.5 -84.5t-92.5 -104t-74.5 -99t-77.5 -112.5q-13 -20 -63 -94t-78 -114l-16 -28q-17 -29 -32 -47.5t-25 -19.5q52 3 101 24.5
t91.5 59.5t73.5 73.5t67 84.5q2 2 5.5 9.5t5.5 10t8.5 5.5t13.5 -4q16 -9 19.5 -24t-3.5 -22q-136 -221 -317 -259q-7 -2 -34 -6.5t-39 -7.5t-30.5 -12t-31.5 -21q-21 -20 -71 -93q-17 -26 -49 -69t-50 -69q7 10 139.5 62t142.5 38q3 -8 4 -14t-7.5 -13.5t-16 -13.5t-22 -13
t-25.5 -12t-26.5 -10.5t-24 -8.5t-19.5 -6.5t-12 -4.5q-41 -15 -67 -25.5t-59.5 -30.5t-56.5 -44q-8 -8 -151 -200.5t-201 -254.5q-12 -13 -52 -57t-58.5 -63t-52.5 -52t-65 -56.5t-64 -42.5q-29 -17 -61 -26.5t-66.5 -2.5t-49.5 39q-15 30 -7 86q14 96 64 185.5
t116.5 158.5t156 132.5t171.5 107.5t175 85q19 9 35.5 21.5t31.5 31.5t24 32t24 39t21 35q7 11 37.5 58t61 92.5t31.5 44.5q-49 31 -84 90l-1 2l-1 2l-1 2q-1 2 -2 2q-26 49 -26 107q1 103 43.5 201t112 175.5t160 143t185.5 109.5t191 70q37 10 136 33t150.5 37.5t126 47.5
t128.5 76zM319 591q1 2 6 12.5t9.5 18.5t7.5 9q-141 -53 -290 -168q-120 -93 -234 -244q-28 -37 -38.5 -52t-30.5 -47t-29.5 -60.5t-13.5 -59.5q-6 -51 13.5 -68t68.5 -1q20 6 42 22t32 25.5t34 33.5q31 31 65 72t54 67.5t60.5 82.5t52.5 72q69 94 113 161q18 27 52 81
q5 7 13.5 21.5t12.5 21.5z" />
    <glyph glyph-name="K" unicode="K" horiz-adv-x="2727" 
d="M2074 1581q-121 -249 -194 -356q-121 -178 -178 -259.5t-165.5 -218t-207.5 -235.5q-335 -333 -802 -469q-317 -91 -508 -11q-127 53 -183 179q-35 80 6 129q23 28 64 36.5t65 -21.5q11 -17 15.5 -28t2.5 -27.5t-16 -33.5q-4 -5 -13.5 -14t-16 -16.5t-12.5 -17t-5 -20
t9 -21.5q35 -47 74 -70.5t97 -31.5q108 -16 224 -2q206 25 424 148q247 141 483 393q73 79 142.5 173.5t154.5 224.5t125 187q33 47 105.5 153t115.5 167t112 147t136 154q-83 11 -170 34.5t-187 56t-156 47.5q-163 40 -316.5 28.5t-292 -76.5t-251 -165.5t-194 -238
t-119.5 -294.5q-12 -50 -13 -99t4.5 -85.5t24 -87t32 -80.5t42.5 -88q-1 2 -20 9t-40 14.5t-25 10.5q-43 25 -74 60q-65 75 -77 189q-15 151 36.5 309t139 283.5t204.5 237.5q231 219 637 221q98 1 211.5 -25.5t201.5 -60t204 -73.5t203 -58q26 -5 53.5 5t44.5 23t45.5 38.5
t38.5 33.5q55 43 103 40q46 -3 62 -39t-10 -73q-18 -27 -50.5 -43t-83 -28t-64.5 -17q-23 -8 -43 -20t-37 -30.5t-29 -32.5t-26.5 -40.5t-21.5 -39t-21.5 -44.5t-19.5 -41zM3126 1971q15 -18 15 -43q0 -18 -10 -29q-13 -15 -29 -10q-5 1 -9.5 5t-7 7.5t-7 10.5t-5.5 9
q-36 56 -176 -45q-3 -3 -5 -4q-66 -48 -150 -126q-2 -2 -7 -6t-7 -6q-80 -74 -246 -264.5t-269 -277.5q-20 -17 -21.5 -31t15.5 -35q59 -69 70.5 -161.5t-3 -166t-72.5 -184.5t-89.5 -159t-101.5 -148q-11 -17 -17 -25q-3 -4 -15.5 -21t-20.5 -29t-20.5 -31.5t-19 -34.5
t-11 -31.5t-2 -30t11.5 -22.5q47 -46 132 -7q37 17 71.5 37t68 47.5t59.5 49.5t58 59t50.5 58t51 66l45.5 63t48 69t45 65q8 11 10.5 14.5t10 12t13 10.5t13.5 2t17 -5q12 -7 16 -14.5t-0.5 -18.5t-6 -13.5t-9.5 -13.5q-17 -23 -62.5 -87t-66.5 -92t-64 -82.5t-74.5 -85.5
t-75.5 -71t-90.5 -69.5t-97.5 -53.5q-56 -26 -108 -21q-99 8 -153 92.5t-15 187.5q23 59 92.5 158.5t76.5 111.5q45 73 68.5 115t55.5 111.5t43 132.5t4 125q-4 27 -14 35q-12 10 -41 6q-47 -8 -99 -31q-12 -5 -16.5 -7t-16 -5.5t-18 -4t-15 1t-15.5 5.5q-17 11 -20 34.5
t10 40.5q20 29 70 44q175 54 360 267q12 14 56.5 65t61 70t56 62.5t63.5 67.5t59.5 59t68.5 62.5t67 53.5q7 5 29.5 22t32.5 24.5t32.5 23t36.5 23t35.5 19t38.5 16.5t37.5 9.5t39.5 4t38 -5.5q28 -7 46 -26z" />
    <glyph glyph-name="L" unicode="L" horiz-adv-x="2244" 
d="M1266 718q-316 -387 -654 -603q6 8 52.5 3.5t92.5 -13t95 -18t60 -10.5q28 -2 89 -8t96.5 -9t96.5 -7t100.5 -4t97 3t98.5 10.5t91.5 20.5t89.5 32t78.5 46.5t72.5 62.5q39 42 74 91t83.5 126.5t62.5 98.5q93 149 114 81q4 -11 -9 -35q-132 -227 -227 -337
q-98 -113 -220 -178t-240 -83.5t-262 -16.5t-266.5 17.5t-274.5 25t-267 -0.5q-76 -6 -253.5 -34t-275.5 -32q-42 -2 -67 5q-39 13 -48 48.5t18 66.5q25 28 88 48q149 46 300 40q36 -1 99.5 -9.5t97.5 -10.5t99 6q137 27 263 143q209 193 430 522q-20 -30 -96 -39.5
t-145 -3.5t-108 15q-155 37 -276 151t-157 266q-46 191 46.5 383.5t262.5 311.5q191 134 429 166.5t456 -53.5q91 -38 168 -94t162 -139q5 -5 9 -4q2 0 6 4q111 138 211 202q30 19 59.5 31.5t67 12.5t60.5 -23q27 -28 28 -74.5t-18 -79.5q-68 -139 -159.5 -266t-227.5 -291
q-35 -42 -74 -80.5t-90 -78.5t-82 -62.5t-97.5 -68t-88.5 -61.5q-108 -77 -221 -213zM1888 1666q-8 -10 -11 -15l-51 -84q-34 -57 -71 -121q-12 -21 -37 -64t-37 -64q-6 -10 -27.5 -47.5t-33.5 -58.5q-17 -29 -31 -56q-11 -20 -37 -58q-1 -1 -11.5 -17t-18 -24.5
t-15.5 -12.5q204 104 431 374q110 129 189 250q53 81 81 133q63 113 40 143q-46 62 -192 -71q-73 -66 -106 -125q-5 -8 -6 -14.5t2.5 -13t6.5 -10.5t10 -11t10 -11q5 -6 10 -13t8.5 -15.5t0.5 -14t-15 -6.5q-32 -1 -60 23q-14 12 -23 10q-1 0 -3 -2q-1 -1 -3 -4zM880 840
q93 -4 185.5 26t164.5 89q37 30 322.5 380t285.5 375q0 7 -11 20t-34.5 32.5t-38 31t-45 34t-32.5 23.5l-20 15q-79 52 -232 104q-93 31 -197.5 32.5t-204 -25t-194 -74t-171.5 -118t-133 -153.5t-81.5 -184.5t-13.5 -206.5q0 -1 0.5 -4.5t0.5 -5.5q13 -97 82.5 -185.5
t162.5 -145.5q90 -55 204 -60zM-114 31q15 0 61.5 -0.5t65.5 0t59 2t66 5t61.5 11t68.5 17.5q-28 2 -79.5 7.5t-81.5 7t-71.5 0t-78 -14t-71.5 -35.5z" />
    <glyph glyph-name="M" unicode="M" horiz-adv-x="2596" 
d="M3557 2059q21 -137 -16.5 -273t-115.5 -247t-186.5 -210t-226 -170t-238.5 -118q-404 -158 -814 -167q-12 0 -24.5 -6.5t-22 -14t-21.5 -22t-17.5 -22.5t-16.5 -24.5l-13 -19.5q-73 -110 -177 -344q-30 -68 -74 -175q-5 -13 -20.5 -47t-25.5 -60t-14 -49
q-6 -29 7.5 -42.5t40.5 -11.5t46.5 6t42.5 12q60 20 122 69q39 31 79.5 75t67 77.5t69 90.5t62.5 83q1 1 5 7q129 172 138 109q2 -16 -16 -38q-173 -227 -284 -362q-159 -193 -350 -179q-81 6 -125.5 73.5t-16.5 142.5q75 208 293 535q52 79 98 143q1 6 -59 13q-34 5 -64 -1
q-23 -4 -62 -30q-53 -35 -103 -99q-169 -213 -288 -357q-33 -41 -71 -91.5t-62.5 -86t-68 -98.5t-62.5 -90q-51 -73 -108 -45q-42 21 -56.5 57t-0.5 81q54 179 181 403q16 29 48 87.5t52 93.5t49.5 83.5t56.5 87.5q18 27 -5 35q-17 7 -55 13q-2 0 -5 0.5t-5 1.5l-42 7
q-14 0 -20 -2q-27 -6 -57 -38q-59 -65 -149 -176.5t-171.5 -204.5t-162.5 -163q-83 -71 -126.5 -107t-122.5 -96t-138 -93.5t-138.5 -68.5t-157.5 -53t-158 -24.5t-167.5 1.5t-164 44.5t-123.5 100.5q-23 32 -36.5 81.5t-11.5 94.5q1 38 26.5 65t58 23t50.5 -45
q8 -17 7 -28.5t-12 -26.5q-71 -95 33 -159q98 -61 288 -65q201 -5 340 57q123 55 237.5 131t216.5 168.5t187 184.5t179 208l166 210q-33 10 -75 21t-132 26t-176 20.5t-195 -5t-201.5 -41t-184 -96.5t-153.5 -163q-15 -26 -43 -76q-9 121 66 229t193 165q91 44 206.5 64
t229 18.5t232.5 -20.5q4 0 10 -1q32 -5 94 -19q13 -3 85 -16t109 -21q9 11 17 24q148 229 381 482q37 41 58.5 62.5t62 56.5t79 53.5t75.5 21.5q38 3 75.5 -19t31.5 -59q-2 -13 -17 -39q-23 -38 -165.5 -275t-173.5 -286q-35 -56 -36 -70q-1 -8 3 -14q114 -11 190 -16
q54 20 101 78q62 77 127.5 152.5t171.5 192t134 147.5q30 34 98.5 111t107.5 120t98 104.5t111 110.5q71 67 135 119.5t143.5 106.5t164.5 89.5t169 48.5q142 22 257 -64t137 -228zM1175 1014q40 -5 76 -9q19 12 35 36q8 12 127 175.5t204 289t105 176.5q-56 8 -103 -24
q-43 -29 -90 -72t-70 -68.5t-77 -84.5q-47 -51 -100 -123t-77.5 -108.5t-87.5 -132.5q-16 -26 3 -41q51 -12 55 -14zM1259 535q188 221 301 363q-94 4 -205 14q-46 -55 -155 -277.5t-186 -399.5q-5 -12 0 -20t16 2t27.5 36t19.5 29q15 22 46 65.5t47 65.5l27 39t33 46t29 37
zM3341 1588q77 127 115.5 232.5t29.5 223.5q-8 106 -97.5 179.5t-194.5 59.5q-157 -20 -290 -98t-271 -206q-149 -135 -319 -313.5t-275 -299.5t-292 -340q-31 -36 -46 -54h-1q2 0 5 -1q46 -10 70 -12q60 -9 81 -5l40 52l1 1l15 18v1q0 2 1 2h1q2 3 5.5 8.5t5.5 7.5
q151 220 287 394q6 8 40 53t44.5 58t41.5 47t51.5 49.5t52 35t64.5 31.5q-308 -333 -530 -747q71 -9 298 20.5t409 97.5q441 148 658 505z" />
    <glyph glyph-name="N" unicode="N" horiz-adv-x="3805" 
d="M4291 1948q19 -15 29.5 -26.5t14.5 -24t-11.5 -21t-50.5 -12.5q-26 -3 -41.5 -24t-27 -54t-20.5 -45q-28 -42 -68.5 -72t-81.5 -26q-42 4 -56 38t4 69q36 82 149 170q7 5 25.5 15t30.5 20.5t15 25.5q14 71 -26.5 124.5t-104.5 76.5t-129 19q-139 -7 -278.5 -67.5
t-255.5 -154.5q-78 -63 -158 -142t-136.5 -140.5t-140 -167t-120.5 -155t-129 -176t-119 -162.5q-96 -130 -433 -618q-116 -169 -220 -312q-14 -19 -48 -70t-56 -82t-58 -67.5t-70 -54.5q-57 -30 -110.5 12.5t-71.5 104.5q-32 113 39 268q369 808 912 1513q-87 -3 -203 -107
q-139 -125 -276.5 -288.5t-254 -326t-231 -324t-250 -330t-267.5 -297.5q-253 -248 -487 -311q-187 -50 -317 21q-67 36 -92 92q-14 29 -12.5 65t21.5 61q21 27 55.5 34.5t62.5 -10.5t30.5 -55t-23.5 -57q-6 -4 -16.5 -9.5t-19 -11.5t-12.5 -14q-14 -25 13 -46.5t62 -24.5
q203 -16 411 101q156 87 333 268q120 123 244 279t230.5 305.5t214 299.5t232.5 304t247 276q206 206 369 167q22 -5 39 -18t16 -32q0 -16 -25 -43q-75 -80 -284.5 -449.5t-293.5 -551.5q-41 -88 -122.5 -265t-122.5 -266q-19 -40 -20 -65q0 10 6.5 22.5t12 20t18 22
t13.5 16.5q72 93 216 261.5t207 247.5q121 152 417 541l108 141q86 110 130 165q164 205 325.5 357t347.5 247q61 31 128 55.5t143.5 42.5t148 15.5t133.5 -22.5t107.5 -74t63.5 -138q2 -6 3 -23.5t5.5 -29t17.5 -20.5z" />
    <glyph glyph-name="N" unicode="&#xd1;" horiz-adv-x="3805" 
d="M4291 1948q19 -15 29.5 -26.5t14.5 -24t-11.5 -21t-50.5 -12.5q-26 -3 -41.5 -24t-27 -54t-20.5 -45q-28 -42 -68.5 -72t-81.5 -26q-42 4 -56 38t4 69q36 82 149 170q7 5 25.5 15t30.5 20.5t15 25.5q14 71 -26.5 124.5t-104.5 76.5t-129 19q-139 -7 -278.5 -67.5
t-255.5 -154.5q-78 -63 -158 -142t-136.5 -140.5t-140 -167t-120.5 -155t-129 -176t-119 -162.5q-96 -130 -433 -618q-116 -169 -220 -312q-14 -19 -48 -70t-56 -82t-58 -67.5t-70 -54.5q-57 -30 -110.5 12.5t-71.5 104.5q-32 113 39 268q369 808 912 1513q-87 -3 -203 -107
q-139 -125 -276.5 -288.5t-254 -326t-231 -324t-250 -330t-267.5 -297.5q-253 -248 -487 -311q-187 -50 -317 21q-67 36 -92 92q-14 29 -12.5 65t21.5 61q21 27 55.5 34.5t62.5 -10.5t30.5 -55t-23.5 -57q-6 -4 -16.5 -9.5t-19 -11.5t-12.5 -14q-14 -25 13 -46.5t62 -24.5
q203 -16 411 101q156 87 333 268q120 123 244 279t230.5 305.5t214 299.5t232.5 304t247 276q206 206 369 167q22 -5 39 -18t16 -32q0 -16 -25 -43q-75 -80 -284.5 -449.5t-293.5 -551.5q-41 -88 -122.5 -265t-122.5 -266q-19 -40 -20 -65q0 10 6.5 22.5t12 20t18 22
t13.5 16.5q72 93 216 261.5t207 247.5q121 152 417 541l108 141q86 110 130 165q164 205 325.5 357t347.5 247q61 31 128 55.5t143.5 42.5t148 15.5t133.5 -22.5t107.5 -74t63.5 -138q2 -6 3 -23.5t5.5 -29t17.5 -20.5z" />
    <glyph glyph-name="O" unicode="O" horiz-adv-x="1339" 
d="M1358 1885q156 -206 32 -610q-140 -455 -552 -935q-57 -66 -108 -116t-115.5 -100t-137.5 -81t-149 -40q-97 -12 -179.5 22.5t-134.5 113.5q-55 84 -76.5 189t-15 201.5t37 212t62.5 200t78 187.5q209 467 549 726q64 49 129.5 85.5t143 62t148 27t142 -28t128.5 -94.5
q12 -14 18 -22zM1304 1246q76 204 72 404q-2 106 -82 121q-131 24 -289 -125q-94 -94 -105 -61q-3 9 1 27q6 30 30 68t49 62q102 97 227 109q36 4 39 25q3 24 -15.5 41t-45.5 22t-55 8t-45 -1q-96 -10 -208 -98q-27 -21 -56 -48t-49 -47t-51.5 -56t-44.5 -51.5t-48 -59
t-44 -54.5q-227 -278 -339 -570q-4 -9 -30.5 -77t-33 -86t-27.5 -76.5t-28 -87.5t-19 -78t-16.5 -90t-5.5 -83q-1 -50 8 -98.5t30 -93.5t60 -74.5t92 -32.5q30 -1 67 2l21 3q49 8 97.5 27.5t87 42.5t82.5 62t73 68.5t69.5 80t61.5 78t60 80.5q7 10 11 15q278 380 399 702z
" />
    <glyph glyph-name="O" unicode="&#xd8;" horiz-adv-x="1339" 
d="M1358 1885q156 -206 32 -610q-140 -455 -552 -935q-57 -66 -108 -116t-115.5 -100t-137.5 -81t-149 -40q-97 -12 -179.5 22.5t-134.5 113.5q-55 84 -76.5 189t-15 201.5t37 212t62.5 200t78 187.5q209 467 549 726q64 49 129.5 85.5t143 62t148 27t142 -28t128.5 -94.5
q12 -14 18 -22zM1304 1246q76 204 72 404q-2 106 -82 121q-131 24 -289 -125q-94 -94 -105 -61q-3 9 1 27q6 30 30 68t49 62q102 97 227 109q36 4 39 25q3 24 -15.5 41t-45.5 22t-55 8t-45 -1q-96 -10 -208 -98q-27 -21 -56 -48t-49 -47t-51.5 -56t-44.5 -51.5t-48 -59
t-44 -54.5q-227 -278 -339 -570q-4 -9 -30.5 -77t-33 -86t-27.5 -76.5t-28 -87.5t-19 -78t-16.5 -90t-5.5 -83q-1 -50 8 -98.5t30 -93.5t60 -74.5t92 -32.5q30 -1 67 2l21 3q49 8 97.5 27.5t87 42.5t82.5 62t73 68.5t69.5 80t61.5 78t60 80.5q7 10 11 15q278 380 399 702z
" />
    <glyph glyph-name="O" unicode="&#xd6;" horiz-adv-x="1339" 
d="M1358 1885q156 -206 32 -610q-140 -455 -552 -935q-57 -66 -108 -116t-115.5 -100t-137.5 -81t-149 -40q-97 -12 -179.5 22.5t-134.5 113.5q-55 84 -76.5 189t-15 201.5t37 212t62.5 200t78 187.5q209 467 549 726q64 49 129.5 85.5t143 62t148 27t142 -28t128.5 -94.5
q12 -14 18 -22zM1304 1246q76 204 72 404q-2 106 -82 121q-131 24 -289 -125q-94 -94 -105 -61q-3 9 1 27q6 30 30 68t49 62q102 97 227 109q36 4 39 25q3 24 -15.5 41t-45.5 22t-55 8t-45 -1q-96 -10 -208 -98q-27 -21 -56 -48t-49 -47t-51.5 -56t-44.5 -51.5t-48 -59
t-44 -54.5q-227 -278 -339 -570q-4 -9 -30.5 -77t-33 -86t-27.5 -76.5t-28 -87.5t-19 -78t-16.5 -90t-5.5 -83q-1 -50 8 -98.5t30 -93.5t60 -74.5t92 -32.5q30 -1 67 2l21 3q49 8 97.5 27.5t87 42.5t82.5 62t73 68.5t69.5 80t61.5 78t60 80.5q7 10 11 15q278 380 399 702z
" />
    <glyph glyph-name="O" unicode="&#xd5;" horiz-adv-x="1339" 
d="M1358 1885q156 -206 32 -610q-140 -455 -552 -935q-57 -66 -108 -116t-115.5 -100t-137.5 -81t-149 -40q-97 -12 -179.5 22.5t-134.5 113.5q-55 84 -76.5 189t-15 201.5t37 212t62.5 200t78 187.5q209 467 549 726q64 49 129.5 85.5t143 62t148 27t142 -28t128.5 -94.5
q12 -14 18 -22zM1304 1246q76 204 72 404q-2 106 -82 121q-131 24 -289 -125q-94 -94 -105 -61q-3 9 1 27q6 30 30 68t49 62q102 97 227 109q36 4 39 25q3 24 -15.5 41t-45.5 22t-55 8t-45 -1q-96 -10 -208 -98q-27 -21 -56 -48t-49 -47t-51.5 -56t-44.5 -51.5t-48 -59
t-44 -54.5q-227 -278 -339 -570q-4 -9 -30.5 -77t-33 -86t-27.5 -76.5t-28 -87.5t-19 -78t-16.5 -90t-5.5 -83q-1 -50 8 -98.5t30 -93.5t60 -74.5t92 -32.5q30 -1 67 2l21 3q49 8 97.5 27.5t87 42.5t82.5 62t73 68.5t69.5 80t61.5 78t60 80.5q7 10 11 15q278 380 399 702z
" />
    <glyph glyph-name="O" unicode="&#xd4;" horiz-adv-x="1339" 
d="M1358 1885q156 -206 32 -610q-140 -455 -552 -935q-57 -66 -108 -116t-115.5 -100t-137.5 -81t-149 -40q-97 -12 -179.5 22.5t-134.5 113.5q-55 84 -76.5 189t-15 201.5t37 212t62.5 200t78 187.5q209 467 549 726q64 49 129.5 85.5t143 62t148 27t142 -28t128.5 -94.5
q12 -14 18 -22zM1304 1246q76 204 72 404q-2 106 -82 121q-131 24 -289 -125q-94 -94 -105 -61q-3 9 1 27q6 30 30 68t49 62q102 97 227 109q36 4 39 25q3 24 -15.5 41t-45.5 22t-55 8t-45 -1q-96 -10 -208 -98q-27 -21 -56 -48t-49 -47t-51.5 -56t-44.5 -51.5t-48 -59
t-44 -54.5q-227 -278 -339 -570q-4 -9 -30.5 -77t-33 -86t-27.5 -76.5t-28 -87.5t-19 -78t-16.5 -90t-5.5 -83q-1 -50 8 -98.5t30 -93.5t60 -74.5t92 -32.5q30 -1 67 2l21 3q49 8 97.5 27.5t87 42.5t82.5 62t73 68.5t69.5 80t61.5 78t60 80.5q7 10 11 15q278 380 399 702z
" />
    <glyph glyph-name="O" unicode="&#xd3;" horiz-adv-x="1339" 
d="M1358 1885q156 -206 32 -610q-140 -455 -552 -935q-57 -66 -108 -116t-115.5 -100t-137.5 -81t-149 -40q-97 -12 -179.5 22.5t-134.5 113.5q-55 84 -76.5 189t-15 201.5t37 212t62.5 200t78 187.5q209 467 549 726q64 49 129.5 85.5t143 62t148 27t142 -28t128.5 -94.5
q12 -14 18 -22zM1304 1246q76 204 72 404q-2 106 -82 121q-131 24 -289 -125q-94 -94 -105 -61q-3 9 1 27q6 30 30 68t49 62q102 97 227 109q36 4 39 25q3 24 -15.5 41t-45.5 22t-55 8t-45 -1q-96 -10 -208 -98q-27 -21 -56 -48t-49 -47t-51.5 -56t-44.5 -51.5t-48 -59
t-44 -54.5q-227 -278 -339 -570q-4 -9 -30.5 -77t-33 -86t-27.5 -76.5t-28 -87.5t-19 -78t-16.5 -90t-5.5 -83q-1 -50 8 -98.5t30 -93.5t60 -74.5t92 -32.5q30 -1 67 2l21 3q49 8 97.5 27.5t87 42.5t82.5 62t73 68.5t69.5 80t61.5 78t60 80.5q7 10 11 15q278 380 399 702z
" />
    <glyph glyph-name="O" unicode="&#xd2;" horiz-adv-x="1339" 
d="M1358 1885q156 -206 32 -610q-140 -455 -552 -935q-57 -66 -108 -116t-115.5 -100t-137.5 -81t-149 -40q-97 -12 -179.5 22.5t-134.5 113.5q-55 84 -76.5 189t-15 201.5t37 212t62.5 200t78 187.5q209 467 549 726q64 49 129.5 85.5t143 62t148 27t142 -28t128.5 -94.5
q12 -14 18 -22zM1304 1246q76 204 72 404q-2 106 -82 121q-131 24 -289 -125q-94 -94 -105 -61q-3 9 1 27q6 30 30 68t49 62q102 97 227 109q36 4 39 25q3 24 -15.5 41t-45.5 22t-55 8t-45 -1q-96 -10 -208 -98q-27 -21 -56 -48t-49 -47t-51.5 -56t-44.5 -51.5t-48 -59
t-44 -54.5q-227 -278 -339 -570q-4 -9 -30.5 -77t-33 -86t-27.5 -76.5t-28 -87.5t-19 -78t-16.5 -90t-5.5 -83q-1 -50 8 -98.5t30 -93.5t60 -74.5t92 -32.5q30 -1 67 2l21 3q49 8 97.5 27.5t87 42.5t82.5 62t73 68.5t69.5 80t61.5 78t60 80.5q7 10 11 15q278 380 399 702z
" />
    <glyph glyph-name="P" unicode="P" horiz-adv-x="2654" 
d="M2888 1846q16 -11 -1 -30l1 -1v-1q-1 0 -2 -1l-2 -1q-16 -16 -63 -36q-1 0 -1 -0.5t-1 -0.5q-8 -4 -23 -13t-22 -13q-30 -17 -38 -29q-9 -13 -11 -31q32 -78 42 -183q7 -48 4 -103v-1q-10 -158 -105 -332q-112 -204 -295.5 -356.5t-404.5 -224.5q-19 -7 -40.5 -0.5
t-17.5 23.5q3 13 24 22q160 73 297 191q206 179 324 428q27 57 78 201q65 185 13 311q-52 -39 -114 -130q-55 -79 -332 -505q-205 -312 -348 -490q-203 -252 -416 -421q-268 -212 -523 -264q-141 -32 -295 -4t-268 115q-23 18 -33 42.5t8 41.5q110 -96 266.5 -127t300.5 5
q267 62 511 302q66 65 141.5 156t112 140.5t124.5 170.5q139 192 280 375q78 101 256.5 322.5t269.5 341.5q15 20 -24.5 57.5t-88.5 67t-68 32.5q-6 1 -11 6q-144 62 -301 76l-2 1h-2q-9 0 -28 1t-28 1q-8 0 -148 -16q91 -98 120.5 -233.5t6.5 -265t-86 -250.5
q-79 -153 -208.5 -276.5t-283.5 -192.5q-77 -34 -160.5 -48.5t-174 0.5t-151.5 67q-54 46 -83.5 116t-31 141t13.5 143q48 198 202.5 377t352.5 308q182 119 273 148h1q7 3 23 5q8 2 13 3q-139 115 -334 140t-366 -41q-169 -62 -310 -189.5t-245 -295.5
q-90 -146 -154.5 -312.5t-126.5 -379.5q-23 173 22.5 352t142.5 346q102 175 243 311t312 211q130 58 272.5 73t280.5 -16l-1 1q1 0 16 -5q219 -65 351 -170q12 -5 28 -5.5t26.5 1t30.5 5t26 4.5q201 30 426 -52q100 -37 195 -95q38 -23 60 -42q38 -32 70 -36
q167 102 212 37zM1920 1752q-29 97 -86 149t-141 24q-182 -60 -318 -182t-252 -303q-71 -110 -115.5 -194t-71.5 -176q-44 -152 64 -262q29 -29 70 -38.5t73.5 -6t79.5 15.5q254 62 455.5 273.5t257.5 468.5q0 2 0.5 6.5t1.5 6.5q18 96 -18 218z" />
    <glyph glyph-name="Q" unicode="Q" horiz-adv-x="1484" 
d="M1364 1783q34 -74 45.5 -155.5t6 -152t-30 -156.5t-48.5 -148t-62 -147q-158 -356 -418 -710q-1 -2 -4 -7t-5 -7q-14 -24 -22 -35q-5 -18 2 -46q28 -113 7.5 -221.5t-81.5 -206.5q-73 -117 -174 -190q-97 -72 -197 -69q-23 0 -34 8q-48 33 57 58q40 10 41 11
q85 51 144 145q54 87 74 189q11 60 11 100q0 2 1 14t0.5 21t-3.5 13t-6 5.5t-7.5 -0.5t-7.5 -3.5t-8 -5t-6 -4.5q-30 -20 -45 -29q-21 -13 -65 -35q-3 -1 -9.5 -4.5t-9.5 -4.5l-1 -1q-82 -38 -171 -48.5t-177.5 13t-152.5 80.5q-154 140 -105 423q70 407 348 822
q70 105 130 186.5t141.5 178.5t170 173.5t178.5 125.5q103 54 197 47t171.5 -67t124.5 -160zM188 36q40 -7 98 -7.5t124.5 16t123.5 40.5t95.5 66.5t39.5 93.5l-4 41q-87 354 -109 504q-7 50 -7.5 99t6.5 96t18 91.5t29 89.5t36.5 85.5t44 85t48.5 81t52 80.5q36 54 70 96
t80 84t95 69.5t112.5 45.5t135.5 19q-53 63 -114.5 86.5t-122.5 10t-125.5 -53t-125 -99t-120 -131t-111 -146t-97.5 -147t-80 -131.5t-58 -101q-5 -9 -7 -13q-117 -208 -188 -395t-91 -385q-11 -109 21.5 -177.5t130.5 -93.5zM891 494q332 435 443 859q43 165 24 252
q-14 64 -53.5 96t-89 30t-99.5 -21.5t-92 -53.5q-81 -66 -157 -169q-167 -223 -201 -410q-11 -59 -10.5 -124t8 -120.5t23.5 -123.5t31 -119t35 -121.5t32 -117.5q-3 10 19 39.5t53.5 65t33.5 38.5z" />
    <glyph glyph-name="R" unicode="R" horiz-adv-x="2533" 
d="M2656 1859q6 -10 3.5 -23t-12.5 -18q-9 -5 -30 -3q-45 2 -81 -17q-16 -8 -19 -14.5t-3 -25.5q2 -46 -4 -111t-11.5 -100.5t-8.5 -49.5q-28 -179 -114 -334.5t-224 -266.5q-34 -27 -48.5 -61.5t-17.5 -87.5q-13 -207 -98 -388q-44 -94 -105 -176q-12 -16 -40.5 -45
t-49 -55t-28.5 -53q-4 -13 -1 -28q4 -15 18.5 -24.5t31.5 -9.5q45 -1 94 22t87 53t83 79.5t69 80t58 76.5q84 113 230 338q14 -1 22.5 -13t7.5 -26q-1 -19 -20 -51q-150 -242 -242 -349q-133 -153 -288 -236q-49 -27 -101 -35.5t-96.5 2.5t-70 53.5t-19.5 112.5
q3 34 20.5 70t34.5 58t50 60t45 53q124 159 177 286q3 6 10.5 24t10.5 26t7.5 24t5 27t-2 25.5t-9.5 27.5q-4 7 -22 -1.5t-37 -22t-23 -13.5q-35 -2 -45 21t1.5 51t32.5 42q25 17 88.5 39.5t94.5 48.5q57 49 130 159q181 269 223 495q13 72 25 162l-48 -45
q-47 -46 -87.5 -95.5t-85 -118t-64 -100.5t-69.5 -118q-181 -306 -537 -778q-125 -166 -289.5 -296t-351.5 -203q-92 -35 -195.5 -54.5t-213.5 -19.5t-211 37.5t-166 112.5q-29 44 -28.5 105.5t42.5 100t98 3.5q24 -14 27 -37t-6.5 -43.5t-20.5 -47.5t-10 -44
q1 -46 38 -77.5t86 -41.5q91 -19 170.5 -20.5t165.5 20.5t164 70q402 246 718 732q205 315 365 517q95 119 203 230.5t258 254.5q2 2 10.5 8.5t11.5 10t8 12t-1 13.5q-6 11 -14 23q-76 116 -239 183q-127 53 -292 51q-49 -1 -147 -15q-103 -15 -103 -20q4 -10 18.5 -44.5
t25.5 -62.5t23.5 -79.5t18.5 -106.5q28 -250 -90 -479q-77 -150 -206.5 -263t-288.5 -168q-182 -63 -295 6q-56 34 -88 96.5t-35 134.5q-5 112 60 263q107 249 303.5 447t442.5 300q-54 97 -161.5 154t-226.5 61q-221 7 -418 -153q-154 -124 -279 -357
q-110 -205 -154 -420.5t-1 -418.5q-57 18 -91 74t-46 128q-46 268 136 617q190 364 458 516q92 52 193 76q157 38 304 3q138 -33 270 -155q34 -32 50 -48q2 -2 11.5 -13t18.5 -20t12 -9q91 10 132.5 13.5t121.5 6t132 -3.5t119 -23t126 -46q48 -23 100 -59q108 -73 152 -154
q5 -8 6 -8q2 -1 11 1q13 3 37 9.5t37 10.5q30 8 46 7q26 -2 38 -17q0 -1 1 -2t1 -2zM1651 1769q-4 47 -15.5 90.5t-25 73t-26.5 52t-22 33t-11 9.5q-4 -1 -12 -5t-12 -5q-2 -1 -8.5 -2.5t-8.5 -2.5q-48 -19 -83 -37q-27 -14 -59 -32q-87 -52 -176 -125q-90 -75 -161 -157
q-75 -87 -131 -183q-59 -100 -87 -199q-32 -107 -29 -208q2 -86 42.5 -127.5t99 -40.5t128.5 24.5t128.5 56.5t101.5 67q157 122 259 298t109 362q2 32 -1 58z" />
    <glyph glyph-name="S" unicode="S" horiz-adv-x="2940" 
d="M2778 1969q35 -8 51.5 -40.5t11.5 -82.5q-27 -272 -397 -590q-132 -112 -305 -216q-9 -5 -91.5 -46.5t-152.5 -79t-70 -45.5q2 -15 10 -32q2 -3 4 -9q109 -231 74 -464.5t-168 -433.5t-333 -335q-64 -43 -135.5 -75t-152.5 -50t-159 -0.5t-134 75.5q-8 9 -15 20t-15 28
t-11 22q225 -42 426.5 40t359.5 263q71 82 124.5 174.5t88.5 199t34.5 211.5t-36.5 211l-37 79q-17 -7 -43 -38q-155 -190 -278 -322t-263 -238q-106 -80 -227 -133t-247 -67.5t-237 13.5t-200 119t-132 239q-22 76 -24 156.5t12 152.5t43 149.5t62.5 142t78.5 136.5
q24 38 30 68q-88 145 -60 312q6 60 38 122l9 20q4 -38 5.5 -106t4 -107t20 -89.5t50.5 -89.5q-7 18 199 204q112 102 251 166t275 61q95 -2 180 -48t141 -124q53 -74 69 -161q12 -67 -7 -161q19 -10 54.5 -31t84 -55t61.5 -54v-1l1 -1q4 3 8.5 8.5t9.5 13t9 11.5
q22 27 106.5 132.5t122.5 151.5t106 123t127 136q133 133 257 224t263 135q39 12 68 6zM456 1197q-15 -19 -20 -37q44 -64 99 -120q16 -16 32 -17q5 8 16 22t44 44.5t73.5 57t108 53.5t144.5 41t185.5 11.5t228.5 -27.5q17 15 21 55q3 20 3 44q1 104 -68.5 184.5
t-171.5 93.5q-145 19 -355 -98q-191 -107 -340 -307zM1141 830q81 -5 114 57q18 33 43.5 100.5t38.5 93.5q9 19 11 30t-6 19t-15.5 11.5t-29.5 11.5q-133 51 -290 29t-270 -108q-17 -13 -62.5 -54.5t-40.5 -47.5q24 -29 86 -50q221 -80 421 -92zM1175 745l-24 11
q-35 10 -101 23t-92 20q-51 12 -144.5 44t-137.5 43q-3 1 -16.5 4.5t-20.5 5t-20 3t-21 0t-16.5 -6t-13.5 -13.5l-17 -31q-29 -59 -45.5 -116t-14.5 -122.5t32 -115.5q64 -105 174 -104q112 1 227 79.5t188 182.5q9 12 21 33q1 1 7 11.5l12 21t13 19t10 8.5zM967 1211v1v-1z
M1431 635l141 176h-25h-13q-89 -4 -146.5 -34t-101.5 -105q-45 -78 -113.5 -152t-156 -132t-177 -84t-182.5 -1t-167 110q-125 144 -18 425q4 11 23 56q1 3 7 16t10 23.5t3 15.5l-30 40q-26 23 -54.5 50.5t-43.5 42.5l-15 16q-14 7 -72 -108.5t-76 -160.5
q-35 -92 -46 -206.5t5.5 -228t79 -206t164.5 -128.5q64 -23 133.5 -25.5t133 11.5t129 42.5t121 63.5t109.5 78q35 28 74.5 66.5t60 60t70.5 77t60 66.5q64 71 113 135zM1662 954q5 6 -63 54q-45 30 -86 45q-32 12 -42 -22q-7 -24 -28 -77t-29 -83h1q37 -4 81 0l-1 -2
l118 11zM2711 1701q1 2 11 17t14.5 22.5t14.5 24.5t15 27.5t12 26.5t9 27t2 23t-4 21q-9 19 -32 22q-14 2 -41 -4q-56 -15 -111.5 -47t-97.5 -66t-91.5 -87t-79.5 -89.5t-75 -94.5q-78 -100 -188 -267q-17 -26 -51.5 -78t-51.5 -78q-4 -6 -20 -37t-31 -53t-28 -29
q381 182 701 555q80 95 123 164z" />
    <glyph glyph-name="T" unicode="T" horiz-adv-x="3651" 
d="M3544 1912q9 -15 7 -33t-13 -33q-13 -18 -53 -45q-142 -99 -213 -258q-19 29 -20.5 65t15.5 66q-3 -6 -26 -9.5t-56 -4t-63.5 0t-60.5 1.5t-35 1q-88 0 -193 13.5t-173.5 27.5t-189.5 42q-299 69 -653 80q-108 3 -215.5 -3t-226 -26t-225 -52.5t-208.5 -85.5t-181 -122
t-137.5 -166t-82.5 -213q-37 -178 36 -280q32 -45 83 -62t95.5 -13t104.5 19q173 42 316.5 154t223.5 269q52 102 56 188q2 63 33 69q25 5 38 -23q7 -15 7 -47q-5 -167 -89.5 -326.5t-218.5 -269.5q-86 -71 -193.5 -112.5t-227.5 -36t-208 76.5q-69 56 -99.5 153t-19.5 192
q47 407 551 639q336 155 850 139q222 -6 418 -32q88 -11 241 -41.5t257.5 -49t242.5 -19.5t252 32q40 12 56 26q8 7 15 16t14.5 22.5t11.5 18.5q26 40 68 61q21 12 48.5 11t40.5 -20zM2125 1623q109 93 185 78q5 -19 -26 -41q-45 -30 -90 -71t-74 -71.5t-74.5 -90.5
t-61.5 -83t-66 -94q-71 -102 -172.5 -267t-174 -282t-181.5 -256t-221 -240q-95 -85 -205.5 -154.5t-238.5 -119t-254 -68t-257.5 4.5t-243.5 92q-44 27 -79 77.5t-40.5 106t45.5 94.5q32 21 62 3.5t34 -54.5q2 -22 -8 -41.5t-22 -30.5t-19 -22t2.5 -24.5t40.5 -30.5
q116 -64 247.5 -76.5t253 19.5t242 96t220 145.5t180.5 175.5q92 106 195 245.5t189.5 261.5t181.5 249t205 249t225 220z" />
    <glyph glyph-name="U" unicode="U" horiz-adv-x="1916" 
d="M258 1083q167 14 320 82q-16 -7 -48.5 -41t-46.5 -43q-64 -42 -134 -58q-48 -11 -97 -12t-100 14.5t-84 47.5q-55 54 -64 164q-9 112 26.5 221t98.5 197t152.5 169.5t181 141.5t190.5 109q63 31 134.5 55.5t149.5 39t151 15t136.5 -20.5t107.5 -62.5t64 -117t6 -177.5
q-14 -105 -46.5 -208t-83.5 -204.5t-98.5 -181t-116.5 -185.5q-55 -84 -219 -327.5t-250 -378.5q-65 -101 -71 -214q-2 -32 12 -52.5t45 -20.5q93 0 195 78.5t178 175.5q68 87 266 383.5t370 536.5t241 282q73 45 132 22q78 -31 -125 -372q-71 -121 -321 -501
q-199 -305 -251 -413q-13 -27 -16 -58.5t12 -58.5t49 -31q23 -2 54.5 15.5t51 35.5t52.5 52.5t37 38.5q62 62 120.5 130.5t141.5 174t110 139.5q5 5 12 16.5t12 19t13.5 15.5t15.5 6.5t18 -6.5q16 -12 -4.5 -61t-62.5 -113.5t-68 -102t-45 -62.5q-50 -69 -89.5 -118
t-97 -109.5t-120 -102.5t-127.5 -63q-147 -46 -230 85q-13 20 -19.5 47t-6 63.5t2 57.5t7 65t6.5 51q-2 -17 -8 -34t-18 -34.5t-21 -31t-29 -32.5t-29.5 -28.5t-34 -29t-30.5 -24.5t-32 -24.5t-27 -19.5q-45 -34 -101 -61t-119 -41.5t-118 -9.5t-98 43.5t-58 109.5
q-8 38 -8.5 77t6.5 77t17.5 73.5t28.5 72t36 69t42 67t45 62.5t47 60q77 96 94 117t89 112t95.5 124.5t84.5 118.5t87.5 131t73 125t72 138t54 132t47.5 143q12 55 12 107t-26.5 101t-76.5 75q-35 18 -78 21.5t-97.5 -9t-85 -22t-87.5 -30.5q-10 -3 -14 -5
q-201 -74 -368 -213.5t-275 -323.5q-26 -45 -49 -98.5t-41.5 -120.5t-8 -125t54.5 -89q38 -26 122 -20z" />
    <glyph glyph-name="U" unicode="&#xdc;" horiz-adv-x="1916" 
d="M258 1083q167 14 320 82q-16 -7 -48.5 -41t-46.5 -43q-64 -42 -134 -58q-48 -11 -97 -12t-100 14.5t-84 47.5q-55 54 -64 164q-9 112 26.5 221t98.5 197t152.5 169.5t181 141.5t190.5 109q63 31 134.5 55.5t149.5 39t151 15t136.5 -20.5t107.5 -62.5t64 -117t6 -177.5
q-14 -105 -46.5 -208t-83.5 -204.5t-98.5 -181t-116.5 -185.5q-55 -84 -219 -327.5t-250 -378.5q-65 -101 -71 -214q-2 -32 12 -52.5t45 -20.5q93 0 195 78.5t178 175.5q68 87 266 383.5t370 536.5t241 282q73 45 132 22q78 -31 -125 -372q-71 -121 -321 -501
q-199 -305 -251 -413q-13 -27 -16 -58.5t12 -58.5t49 -31q23 -2 54.5 15.5t51 35.5t52.5 52.5t37 38.5q62 62 120.5 130.5t141.5 174t110 139.5q5 5 12 16.5t12 19t13.5 15.5t15.5 6.5t18 -6.5q16 -12 -4.5 -61t-62.5 -113.5t-68 -102t-45 -62.5q-50 -69 -89.5 -118
t-97 -109.5t-120 -102.5t-127.5 -63q-147 -46 -230 85q-13 20 -19.5 47t-6 63.5t2 57.5t7 65t6.5 51q-2 -17 -8 -34t-18 -34.5t-21 -31t-29 -32.5t-29.5 -28.5t-34 -29t-30.5 -24.5t-32 -24.5t-27 -19.5q-45 -34 -101 -61t-119 -41.5t-118 -9.5t-98 43.5t-58 109.5
q-8 38 -8.5 77t6.5 77t17.5 73.5t28.5 72t36 69t42 67t45 62.5t47 60q77 96 94 117t89 112t95.5 124.5t84.5 118.5t87.5 131t73 125t72 138t54 132t47.5 143q12 55 12 107t-26.5 101t-76.5 75q-35 18 -78 21.5t-97.5 -9t-85 -22t-87.5 -30.5q-10 -3 -14 -5
q-201 -74 -368 -213.5t-275 -323.5q-26 -45 -49 -98.5t-41.5 -120.5t-8 -125t54.5 -89q38 -26 122 -20z" />
    <glyph glyph-name="U" unicode="&#xdb;" horiz-adv-x="1916" 
d="M258 1083q167 14 320 82q-16 -7 -48.5 -41t-46.5 -43q-64 -42 -134 -58q-48 -11 -97 -12t-100 14.5t-84 47.5q-55 54 -64 164q-9 112 26.5 221t98.5 197t152.5 169.5t181 141.5t190.5 109q63 31 134.5 55.5t149.5 39t151 15t136.5 -20.5t107.5 -62.5t64 -117t6 -177.5
q-14 -105 -46.5 -208t-83.5 -204.5t-98.5 -181t-116.5 -185.5q-55 -84 -219 -327.5t-250 -378.5q-65 -101 -71 -214q-2 -32 12 -52.5t45 -20.5q93 0 195 78.5t178 175.5q68 87 266 383.5t370 536.5t241 282q73 45 132 22q78 -31 -125 -372q-71 -121 -321 -501
q-199 -305 -251 -413q-13 -27 -16 -58.5t12 -58.5t49 -31q23 -2 54.5 15.5t51 35.5t52.5 52.5t37 38.5q62 62 120.5 130.5t141.5 174t110 139.5q5 5 12 16.5t12 19t13.5 15.5t15.5 6.5t18 -6.5q16 -12 -4.5 -61t-62.5 -113.5t-68 -102t-45 -62.5q-50 -69 -89.5 -118
t-97 -109.5t-120 -102.5t-127.5 -63q-147 -46 -230 85q-13 20 -19.5 47t-6 63.5t2 57.5t7 65t6.5 51q-2 -17 -8 -34t-18 -34.5t-21 -31t-29 -32.5t-29.5 -28.5t-34 -29t-30.5 -24.5t-32 -24.5t-27 -19.5q-45 -34 -101 -61t-119 -41.5t-118 -9.5t-98 43.5t-58 109.5
q-8 38 -8.5 77t6.5 77t17.5 73.5t28.5 72t36 69t42 67t45 62.5t47 60q77 96 94 117t89 112t95.5 124.5t84.5 118.5t87.5 131t73 125t72 138t54 132t47.5 143q12 55 12 107t-26.5 101t-76.5 75q-35 18 -78 21.5t-97.5 -9t-85 -22t-87.5 -30.5q-10 -3 -14 -5
q-201 -74 -368 -213.5t-275 -323.5q-26 -45 -49 -98.5t-41.5 -120.5t-8 -125t54.5 -89q38 -26 122 -20z" />
    <glyph glyph-name="U" unicode="&#xda;" horiz-adv-x="1916" 
d="M258 1083q167 14 320 82q-16 -7 -48.5 -41t-46.5 -43q-64 -42 -134 -58q-48 -11 -97 -12t-100 14.5t-84 47.5q-55 54 -64 164q-9 112 26.5 221t98.5 197t152.5 169.5t181 141.5t190.5 109q63 31 134.5 55.5t149.5 39t151 15t136.5 -20.5t107.5 -62.5t64 -117t6 -177.5
q-14 -105 -46.5 -208t-83.5 -204.5t-98.5 -181t-116.5 -185.5q-55 -84 -219 -327.5t-250 -378.5q-65 -101 -71 -214q-2 -32 12 -52.5t45 -20.5q93 0 195 78.5t178 175.5q68 87 266 383.5t370 536.5t241 282q73 45 132 22q78 -31 -125 -372q-71 -121 -321 -501
q-199 -305 -251 -413q-13 -27 -16 -58.5t12 -58.5t49 -31q23 -2 54.5 15.5t51 35.5t52.5 52.5t37 38.5q62 62 120.5 130.5t141.5 174t110 139.5q5 5 12 16.5t12 19t13.5 15.5t15.5 6.5t18 -6.5q16 -12 -4.5 -61t-62.5 -113.5t-68 -102t-45 -62.5q-50 -69 -89.5 -118
t-97 -109.5t-120 -102.5t-127.5 -63q-147 -46 -230 85q-13 20 -19.5 47t-6 63.5t2 57.5t7 65t6.5 51q-2 -17 -8 -34t-18 -34.5t-21 -31t-29 -32.5t-29.5 -28.5t-34 -29t-30.5 -24.5t-32 -24.5t-27 -19.5q-45 -34 -101 -61t-119 -41.5t-118 -9.5t-98 43.5t-58 109.5
q-8 38 -8.5 77t6.5 77t17.5 73.5t28.5 72t36 69t42 67t45 62.5t47 60q77 96 94 117t89 112t95.5 124.5t84.5 118.5t87.5 131t73 125t72 138t54 132t47.5 143q12 55 12 107t-26.5 101t-76.5 75q-35 18 -78 21.5t-97.5 -9t-85 -22t-87.5 -30.5q-10 -3 -14 -5
q-201 -74 -368 -213.5t-275 -323.5q-26 -45 -49 -98.5t-41.5 -120.5t-8 -125t54.5 -89q38 -26 122 -20z" />
    <glyph glyph-name="U" unicode="&#xd9;" horiz-adv-x="1916" 
d="M258 1083q167 14 320 82q-16 -7 -48.5 -41t-46.5 -43q-64 -42 -134 -58q-48 -11 -97 -12t-100 14.5t-84 47.5q-55 54 -64 164q-9 112 26.5 221t98.5 197t152.5 169.5t181 141.5t190.5 109q63 31 134.5 55.5t149.5 39t151 15t136.5 -20.5t107.5 -62.5t64 -117t6 -177.5
q-14 -105 -46.5 -208t-83.5 -204.5t-98.5 -181t-116.5 -185.5q-55 -84 -219 -327.5t-250 -378.5q-65 -101 -71 -214q-2 -32 12 -52.5t45 -20.5q93 0 195 78.5t178 175.5q68 87 266 383.5t370 536.5t241 282q73 45 132 22q78 -31 -125 -372q-71 -121 -321 -501
q-199 -305 -251 -413q-13 -27 -16 -58.5t12 -58.5t49 -31q23 -2 54.5 15.5t51 35.5t52.5 52.5t37 38.5q62 62 120.5 130.5t141.5 174t110 139.5q5 5 12 16.5t12 19t13.5 15.5t15.5 6.5t18 -6.5q16 -12 -4.5 -61t-62.5 -113.5t-68 -102t-45 -62.5q-50 -69 -89.5 -118
t-97 -109.5t-120 -102.5t-127.5 -63q-147 -46 -230 85q-13 20 -19.5 47t-6 63.5t2 57.5t7 65t6.5 51q-2 -17 -8 -34t-18 -34.5t-21 -31t-29 -32.5t-29.5 -28.5t-34 -29t-30.5 -24.5t-32 -24.5t-27 -19.5q-45 -34 -101 -61t-119 -41.5t-118 -9.5t-98 43.5t-58 109.5
q-8 38 -8.5 77t6.5 77t17.5 73.5t28.5 72t36 69t42 67t45 62.5t47 60q77 96 94 117t89 112t95.5 124.5t84.5 118.5t87.5 131t73 125t72 138t54 132t47.5 143q12 55 12 107t-26.5 101t-76.5 75q-35 18 -78 21.5t-97.5 -9t-85 -22t-87.5 -30.5q-10 -3 -14 -5
q-201 -74 -368 -213.5t-275 -323.5q-26 -45 -49 -98.5t-41.5 -120.5t-8 -125t54.5 -89q38 -26 122 -20z" />
    <glyph glyph-name="V" unicode="V" horiz-adv-x="3057" 
d="M2932 1845q22 -25 25 -62t-6 -69t-25 -64q-34 -66 -87 -117t-119 -78q-41 -16 -52 8q-7 17 10 30q8 6 30 15q60 23 107 69t71 106q10 24 12.5 51t-4.5 50.5t-28 32.5t-58 -2q-136 -46 -283 -147.5t-271 -224.5q-367 -363 -554 -569q-295 -325 -703 -573
q-146 -89 -394 -207q-20 -10 -55.5 -31t-66.5 -40t-72.5 -40.5t-73.5 -33t-69.5 -17.5t-61.5 7q12 30 66 73q75 61 162 146.5t134.5 136.5t147.5 161q252 278 503 604q133 174 250.5 303t245.5 220q7 5 37 26t54 38q-27 -19 -93.5 2t-147 61t-93.5 44q-285 98 -568 9
q-272 -85 -492 -317q-129 -137 -167 -262q-24 -73 -14 -156t56 -143q48 -64 129 -85.5t150 15.5q-57 -49 -137 -53.5t-152.5 32.5t-115.5 101q-42 63 -54.5 142t0.5 155.5t46 149.5q84 182 241.5 323.5t349.5 213.5q130 49 267 54.5t257 -21.5t256 -84q33 -14 94.5 -43
t89.5 -41q49 -22 85.5 -30.5t81.5 -1.5t86 38q21 16 46 27t52 8t37 -29q13 -33 -23 -64t-82 -38q-125 -17 -215.5 -94.5t-162.5 -202.5q-124 -217 -377 -529q-234 -289 -313 -377q-73 -82 -158 -152.5t-208 -159.5q21 4 45 11t44 13.5t47 19t44 20.5t47 24.5t43 24t45 27
t41 25t42.5 26.5t38.5 24q360 224 714 597q32 33 118.5 125t131.5 139t116.5 118.5t132.5 128.5q280 262 530 381q43 20 69 29.5t64 6t64 -33.5z" />
    <glyph glyph-name="W" unicode="W" horiz-adv-x="3127" 
d="M3430 1839q36 -11 58.5 -45.5t24 -72t-20 -69t-64.5 -36.5q-22 -2 -39 14.5t-10 35.5q4 10 21 23t22 21q13 20 -2.5 44t-41.5 27q-34 4 -92 -33q-133 -87 -269 -204.5t-246 -232t-234.5 -246.5t-234 -247t-245 -235t-265.5 -209q-92 -63 -211 -129t-195.5 -103.5
t-223.5 -106.5q-68 -32 -203.5 -96t-203.5 -96q131 103 261.5 223.5t238 231t233 258.5t213 257t212.5 277.5t198 270t200 281.5q-67 -25 -133.5 -66.5t-115.5 -81.5t-111.5 -106t-98 -108t-100.5 -121.5t-94 -114.5q-368 -437 -865.5 -744.5t-1060.5 -454.5
q156 86 306.5 201t281 242t255 264t249 283.5t241.5 282.5t254.5 280t267.5 257q-194 108 -421.5 126.5t-436.5 -57.5q-208 -76 -371 -236.5t-242 -368.5q-22 -60 -30.5 -117t5.5 -116t55 -96q42 -38 104.5 -47t116.5 9q78 23 203 114q-42 -85 -129.5 -135.5t-182.5 -44.5
t-175 67t-111 152q-59 173 71 409q96 174 246 308t332 205q182 72 386 69.5t382 -82.5q13 -6 54 -25t59.5 -27t54.5 -20.5t60 -15.5t55 -1.5t58 11.5q4 2 16.5 7t18.5 7t18 6.5t19 5.5t17.5 3t17 0.5t14 -3.5t13 -7t9.5 -13q11 -21 -3.5 -45.5t-40.5 -34.5q-19 -7 -57 -9.5
t-44 -3.5q-55 -8 -100.5 -43t-96.5 -92q-116 -133 -298 -399t-249 -353q-72 -94 -170 -189t-172.5 -155.5t-203 -159.5t-190.5 -150q31 25 123.5 54t105.5 35q129 57 252 126q245 138 462 321q98 83 205.5 198.5t188 214t187.5 216.5t201 202q12 11 40.5 33t71 53.5t92 65
t102 66.5t102.5 58t91.5 40t71.5 12t41 -26q15 -33 -46 -64q-33 -17 -64 -38.5t-59 -49t-51.5 -52t-48.5 -61t-42.5 -62t-42 -68t-38 -66t-38.5 -70t-36 -67.5q-309 -561 -791 -986q310 125 588 343.5t540 512.5q41 46 115 131.5t120.5 138.5t118.5 129.5t130.5 129.5
t133 111t148.5 101q126 74 208 49z" />
    <glyph glyph-name="X" unicode="X" horiz-adv-x="2564" 
d="M2706 2033q49 -4 81.5 -31.5t44.5 -65.5t8 -82t-24 -83q-182 -347 -800 -629q-22 -10 -71.5 -28t-85.5 -35.5t-63 -41.5q-73 -63 -131 -212q-12 -32 -44.5 -108t-48.5 -119t-30.5 -110t-13.5 -127q2 -91 61 -178t141 -98q45 -6 89 13t98 56q351 243 577 657
q6 12 10.5 18.5t11.5 15t13.5 11.5t15 2.5t18.5 -6.5q11 -7 12 -17t-3.5 -17t-13 -19t-11.5 -18q-122 -245 -412 -520q-52 -49 -86.5 -79.5t-85.5 -70t-101.5 -66.5t-102.5 -43q-131 -40 -245 27q-124 73 -148 252q-5 35 -5 85q0 2 -0.5 12t-0.5 20t0.5 21t1.5 18.5t4 9.5
q-23 -17 -59 -41t-64.5 -42t-56.5 -35t-30 -19q-141 -91 -280 -152q-68 -30 -133.5 -53t-152 -42t-160 -19.5t-146.5 24.5t-122 80q-56 63 -61.5 145.5t27.5 155.5t91 132q65 66 143 119t167.5 90.5t172 64.5t189 48.5t184 34.5t192 30.5t179.5 29.5q71 12 102 33
q36 24 73 88q77 136 127 275q62 173 61 303q-2 173 -100 286q-106 119 -284 134q-146 12 -316 -50q-261 -96 -393 -280q-73 -103 -94.5 -224.5t19.5 -239.5q37 -98 102 -140t138.5 -31t154 52t152 103.5t128.5 127.5t87 121q29 54 59 47q33 -8 31 -62q-4 -116 -94 -221
q-87 -102 -203 -169.5t-237 -72.5q-114 -5 -211.5 46t-145.5 149q-65 135 -47 295.5t109 279.5q132 174 348 266.5t429 61.5q57 -8 107 -25q105 -35 184.5 -115t122.5 -187q42 -105 48 -219q3 -50 -5 -156.5t-28 -110.5q13 3 22.5 8t17.5 13t12.5 14t11.5 18t10 16
q209 303 510 513q138 97 252 88zM1290 615q59 67 89 103.5t74.5 100t68.5 117.5q-59 -5 -171.5 -30t-130.5 -28q-215 -39 -293 -58q-346 -80 -563 -230q-155 -106 -185 -230q-21 -84 19 -146q41 -63 142 -87q162 -39 347 29h1l2 1q142 52 306 180q159 123 294 278z
M2772 1825q21 44 0 85q-31 59 -161 26q-85 -21 -170 -82q-5 -4 -15.5 -12t-16.5 -12q-154 -118 -308 -315q-170 -217 -258 -359q12 0 28.5 6t39 17t27.5 13q64 28 96 43q197 96 400 238q217 152 319 316q7 12 19 36z" />
    <glyph glyph-name="Y" unicode="Y" horiz-adv-x="1605" 
d="M1784 1898q41 3 63 -22t17 -66q-2 -20 -13 -31q-11 -8 -17.5 -8.5t-12 10.5t-7.5 19.5t-4 17.5q-2 13 -9 15q-8 1 -11 0.5t-12.5 -5.5t-10.5 -6q-107 -58 -177 -160q-47 -68 -280 -411q-10 -16 -15 -25l-2 -2q-59 -84 -104 -161q-11 -17 -7 -14q3 0 5 0.5t8.5 -2.5
t10.5 -5.5t12.5 -8t14 -9t14 -9.5t14.5 -10l2 -2q59 -46 84 -111t12 -139q-22 -129 -120 -275q-107 -159 -245 -234q-66 -36 -131 -57.5t-108 -26t-82.5 -6t-54 2.5t-22.5 -1l-104 -112h1q-11 -11 -32 -34t-34 -36t-33.5 -28.5t-41.5 -24.5q-47 -22 -101.5 -11.5t-85.5 52.5
q-63 84 -7 239v1q9 25 23 56q6 13 17.5 39.5t17.5 39.5q2 5 9 17t9.5 18.5t5.5 19t-1 18.5q-2 8 -12 22t-10 15q-3 5 -9 14.5t-10.5 17.5t-6.5 16q-9 37 21 67q2 2 11.5 6.5t19 8.5t9.5 2t4 -13.5t14 -35.5t23 -48l4 4q154 193 218 262q208 225 414 290q48 15 98 23
q4 1 13.5 1.5t15 1.5t12.5 4t11 9q5 7 39 63t65.5 104.5t37.5 48.5l-4 2t-3.5 2l-3 2t-2.5 0q-36 -14 -59.5 -21t-57 -7t-60.5 15q-42 23 -61.5 65.5t-17 87.5t20.5 89q4 10 9 20t9.5 17.5t12 18.5t11 17.5t12.5 18t12.5 16t14 17.5t13 16t14.5 17t13 16q117 140 155 236
q39 95 11 161q-35 80 -156 103q-169 32 -378 -61q-157 -71 -287 -189t-216 -268q-48 -81 -56 -141q-12 -88 37 -143q57 -65 176 -59q136 6 253.5 90t167.5 212q13 33 29 38q13 4 25.5 -5.5t15.5 -23.5q4 -19 -10 -55q-40 -91 -119 -160.5t-180 -113.5q-126 -55 -225 -42
q-90 11 -158.5 77t-78.5 154q-9 86 38 176q32 61 109 146q341 377 717 426q113 14 194 -9q108 -31 154 -112q49 -85 23 -228q-31 -162 -124 -297q-10 -15 -48 -64t-59 -83.5t-33 -71.5q-24 -71 39 -68q48 2 102 34q77 47 159 169q6 9 29 44t32.5 49t33 47t37 48.5t37.5 43.5
t42 42.5t44.5 34.5t49.5 30t51 18.5t57 10.5zM479 122q35 44 40 60q-122 52 -230 169q-20 -41 -32.5 -68t-28.5 -74.5t-18.5 -81.5t8.5 -71t41 -61q72 -58 220 127zM596 303q66 91 149 218q68 105 198 317q39 64 71 119l10 15t13 21t6 17q-43 -1 -92 -18t-81.5 -34.5
t-80.5 -48.5q-117 -74 -217 -174q-31 -31 -64.5 -71.5t-51.5 -64t-58.5 -79.5t-51.5 -71q-9 -13 -16 -26q89 -125 226 -174q6 8 10 13q5 7 15 20.5t15 20.5zM1194 994q-31 17 -34 14q-126 -201 -143 -228l-2 -3q-75 -107 -163 -240t-144 -221.5t-52 -90.5q27 -10 64 -3
q121 21 231.5 88.5t190.5 166.5q1 1 3.5 5t3.5 5q98 127 131 274q37 167 -86 233z" />
    <glyph glyph-name="Y" unicode="&#x178;" horiz-adv-x="1605" 
d="M1784 1898q41 3 63 -22t17 -66q-2 -20 -13 -31q-11 -8 -17.5 -8.5t-12 10.5t-7.5 19.5t-4 17.5q-2 13 -9 15q-8 1 -11 0.5t-12.5 -5.5t-10.5 -6q-107 -58 -177 -160q-47 -68 -280 -411q-10 -16 -15 -25l-2 -2q-59 -84 -104 -161q-11 -17 -7 -14q3 0 5 0.5t8.5 -2.5
t10.5 -5.5t12.5 -8t14 -9t14 -9.5t14.5 -10l2 -2q59 -46 84 -111t12 -139q-22 -129 -120 -275q-107 -159 -245 -234q-66 -36 -131 -57.5t-108 -26t-82.5 -6t-54 2.5t-22.5 -1l-104 -112h1q-11 -11 -32 -34t-34 -36t-33.5 -28.5t-41.5 -24.5q-47 -22 -101.5 -11.5t-85.5 52.5
q-63 84 -7 239v1q9 25 23 56q6 13 17.5 39.5t17.5 39.5q2 5 9 17t9.5 18.5t5.5 19t-1 18.5q-2 8 -12 22t-10 15q-3 5 -9 14.5t-10.5 17.5t-6.5 16q-9 37 21 67q2 2 11.5 6.5t19 8.5t9.5 2t4 -13.5t14 -35.5t23 -48l4 4q154 193 218 262q208 225 414 290q48 15 98 23
q4 1 13.5 1.5t15 1.5t12.5 4t11 9q5 7 39 63t65.5 104.5t37.5 48.5l-4 2t-3.5 2l-3 2t-2.5 0q-36 -14 -59.5 -21t-57 -7t-60.5 15q-42 23 -61.5 65.5t-17 87.5t20.5 89q4 10 9 20t9.5 17.5t12 18.5t11 17.5t12.5 18t12.5 16t14 17.5t13 16t14.5 17t13 16q117 140 155 236
q39 95 11 161q-35 80 -156 103q-169 32 -378 -61q-157 -71 -287 -189t-216 -268q-48 -81 -56 -141q-12 -88 37 -143q57 -65 176 -59q136 6 253.5 90t167.5 212q13 33 29 38q13 4 25.5 -5.5t15.5 -23.5q4 -19 -10 -55q-40 -91 -119 -160.5t-180 -113.5q-126 -55 -225 -42
q-90 11 -158.5 77t-78.5 154q-9 86 38 176q32 61 109 146q341 377 717 426q113 14 194 -9q108 -31 154 -112q49 -85 23 -228q-31 -162 -124 -297q-10 -15 -48 -64t-59 -83.5t-33 -71.5q-24 -71 39 -68q48 2 102 34q77 47 159 169q6 9 29 44t32.5 49t33 47t37 48.5t37.5 43.5
t42 42.5t44.5 34.5t49.5 30t51 18.5t57 10.5zM479 122q35 44 40 60q-122 52 -230 169q-20 -41 -32.5 -68t-28.5 -74.5t-18.5 -81.5t8.5 -71t41 -61q72 -58 220 127zM596 303q66 91 149 218q68 105 198 317q39 64 71 119l10 15t13 21t6 17q-43 -1 -92 -18t-81.5 -34.5
t-80.5 -48.5q-117 -74 -217 -174q-31 -31 -64.5 -71.5t-51.5 -64t-58.5 -79.5t-51.5 -71q-9 -13 -16 -26q89 -125 226 -174q6 8 10 13q5 7 15 20.5t15 20.5zM1194 994q-31 17 -34 14q-126 -201 -143 -228l-2 -3q-75 -107 -163 -240t-144 -221.5t-52 -90.5q27 -10 64 -3
q121 21 231.5 88.5t190.5 166.5q1 1 3.5 5t3.5 5q98 127 131 274q37 167 -86 233z" />
    <glyph glyph-name="Y" unicode="&#xdd;" horiz-adv-x="1605" 
d="M1784 1898q41 3 63 -22t17 -66q-2 -20 -13 -31q-11 -8 -17.5 -8.5t-12 10.5t-7.5 19.5t-4 17.5q-2 13 -9 15q-8 1 -11 0.5t-12.5 -5.5t-10.5 -6q-107 -58 -177 -160q-47 -68 -280 -411q-10 -16 -15 -25l-2 -2q-59 -84 -104 -161q-11 -17 -7 -14q3 0 5 0.5t8.5 -2.5
t10.5 -5.5t12.5 -8t14 -9t14 -9.5t14.5 -10l2 -2q59 -46 84 -111t12 -139q-22 -129 -120 -275q-107 -159 -245 -234q-66 -36 -131 -57.5t-108 -26t-82.5 -6t-54 2.5t-22.5 -1l-104 -112h1q-11 -11 -32 -34t-34 -36t-33.5 -28.5t-41.5 -24.5q-47 -22 -101.5 -11.5t-85.5 52.5
q-63 84 -7 239v1q9 25 23 56q6 13 17.5 39.5t17.5 39.5q2 5 9 17t9.5 18.5t5.5 19t-1 18.5q-2 8 -12 22t-10 15q-3 5 -9 14.5t-10.5 17.5t-6.5 16q-9 37 21 67q2 2 11.5 6.5t19 8.5t9.5 2t4 -13.5t14 -35.5t23 -48l4 4q154 193 218 262q208 225 414 290q48 15 98 23
q4 1 13.5 1.5t15 1.5t12.5 4t11 9q5 7 39 63t65.5 104.5t37.5 48.5l-4 2t-3.5 2l-3 2t-2.5 0q-36 -14 -59.5 -21t-57 -7t-60.5 15q-42 23 -61.5 65.5t-17 87.5t20.5 89q4 10 9 20t9.5 17.5t12 18.5t11 17.5t12.5 18t12.5 16t14 17.5t13 16t14.5 17t13 16q117 140 155 236
q39 95 11 161q-35 80 -156 103q-169 32 -378 -61q-157 -71 -287 -189t-216 -268q-48 -81 -56 -141q-12 -88 37 -143q57 -65 176 -59q136 6 253.5 90t167.5 212q13 33 29 38q13 4 25.5 -5.5t15.5 -23.5q4 -19 -10 -55q-40 -91 -119 -160.5t-180 -113.5q-126 -55 -225 -42
q-90 11 -158.5 77t-78.5 154q-9 86 38 176q32 61 109 146q341 377 717 426q113 14 194 -9q108 -31 154 -112q49 -85 23 -228q-31 -162 -124 -297q-10 -15 -48 -64t-59 -83.5t-33 -71.5q-24 -71 39 -68q48 2 102 34q77 47 159 169q6 9 29 44t32.5 49t33 47t37 48.5t37.5 43.5
t42 42.5t44.5 34.5t49.5 30t51 18.5t57 10.5zM479 122q35 44 40 60q-122 52 -230 169q-20 -41 -32.5 -68t-28.5 -74.5t-18.5 -81.5t8.5 -71t41 -61q72 -58 220 127zM596 303q66 91 149 218q68 105 198 317q39 64 71 119l10 15t13 21t6 17q-43 -1 -92 -18t-81.5 -34.5
t-80.5 -48.5q-117 -74 -217 -174q-31 -31 -64.5 -71.5t-51.5 -64t-58.5 -79.5t-51.5 -71q-9 -13 -16 -26q89 -125 226 -174q6 8 10 13q5 7 15 20.5t15 20.5zM1194 994q-31 17 -34 14q-126 -201 -143 -228l-2 -3q-75 -107 -163 -240t-144 -221.5t-52 -90.5q27 -10 64 -3
q121 21 231.5 88.5t190.5 166.5q1 1 3.5 5t3.5 5q98 127 131 274q37 167 -86 233z" />
    <glyph glyph-name="Z" unicode="Z" horiz-adv-x="1953" 
d="M2381 2031q17 -13 18 -27.5t-11 -28.5t-26 -26t-31 -24.5t-23 -18.5q-156 -168 -326.5 -331t-385 -345t-344.5 -288t-389 -313q-67 -53 -145.5 -105.5t-181.5 -116.5t-152 -96q-13 -8 -43 -29t-52 -36q77 8 161 -1t146.5 -25t143 -34.5t138.5 -25.5q78 -9 127 -13
t118.5 -5.5t130.5 7.5t118 28q84 28 161 88.5t126 135.5q32 48 45.5 112t-6 126.5t-79.5 86.5q-70 28 -167 -21t-143 -117q-12 -18 -28.5 -29t-31.5 1q-10 11 -10 24.5t13 32t27.5 34.5t33.5 33t31 27.5t21 16.5q110 80 218 84q95 4 150 -68.5t53 -170.5q-5 -212 -144 -360
t-352 -195q-189 -42 -410 7q-64 14 -167.5 54t-194.5 64.5t-174 19.5h-2q-82 -6 -132.5 -12t-119.5 -21.5t-125 -45.5t-102 -75q-40 -37 -60 -12q-29 37 0.5 87t113 107.5t136.5 89.5t136 77q42 23 52 29q385 237 919 668l447 366q116 96 185 159l20.5 20.5t28.5 27t29 24
t32.5 19.5t28.5 4q-28 3 -170.5 14.5t-217.5 28.5q-74 16 -163 63.5t-176 91t-164 54.5q-160 23 -307 -62.5t-212 -234.5q-32 -72 -18 -123q15 -55 58.5 -78.5t95 -16t101 28.5t82.5 50q64 57 96 95q13 15 38 54.5t43 57.5q10 8 17 3q2 -2 4 -6q7 -20 2 -40q-9 -36 -34 -83
q-45 -85 -121 -149q-50 -42 -106.5 -66t-120 -27.5t-121.5 25.5l-1 1q-2 0 -2 1q-62 32 -89.5 86.5t-20 115t32 118.5t62.5 108q87 114 221 182.5t279 73.5q68 2 143.5 -17.5t132.5 -46t133.5 -60t133.5 -49.5q101 -29 199 -39t206.5 9t186.5 74q13 9 69 61t96 65
q36 13 62 -7z" />
    <glyph glyph-name="a" unicode="a" horiz-adv-x="839" 
d="M965 617q5 -4 3 -17q-2 -8 -4 -11q-36 -50 -44 -63q-45 -72 -52 -82q-56 -85 -107 -150q-95 -121 -142 -166q-49 -47 -98 -75q-88 -51 -168.5 -25.5t-125.5 116.5q-28 58 -71 -1q-17 -24 -37.5 -47.5t-51 -50t-59 -40.5t-59.5 -10t-54 33q-36 46 -46.5 112t-1.5 125.5
t30 119.5q76 211 228 359q50 48 102.5 68t103.5 0.5t81 -85.5q14 -33 30 -31q17 1 45 47l3 6q6 10 17.5 33.5t22 41t22.5 29.5q38 37 87 39.5t87 -36.5q8 -9 11.5 -20t3.5 -19t-6 -21.5t-9 -19t-12.5 -20t-11.5 -17.5q-10 -16 -32.5 -48.5t-46.5 -68t-54 -80t-57.5 -88
t-54 -88.5t-45.5 -85.5t-31 -75t-11 -60.5t15 -39q70 -63 188 41q67 58 148 165q65 86 115 164q8 13 17 27.5t20 32t17 27.5q53 83 95 54zM339 611q8 53 -2 68q-13 19 -36.5 20.5t-44 -8.5t-36.5 -25q-70 -62 -143 -200q-66 -125 -86 -222q-25 -114 21 -142q4 -2 21 0
q85 13 159 145q86 151 117 247q24 75 30 117z" />
    <glyph glyph-name="a" unicode="&#xe5;" horiz-adv-x="839" 
d="M965 617q5 -4 3 -17q-2 -8 -4 -11q-36 -50 -44 -63q-45 -72 -52 -82q-56 -85 -107 -150q-95 -121 -142 -166q-49 -47 -98 -75q-88 -51 -168.5 -25.5t-125.5 116.5q-28 58 -71 -1q-17 -24 -37.5 -47.5t-51 -50t-59 -40.5t-59.5 -10t-54 33q-36 46 -46.5 112t-1.5 125.5
t30 119.5q76 211 228 359q50 48 102.5 68t103.5 0.5t81 -85.5q14 -33 30 -31q17 1 45 47l3 6q6 10 17.5 33.5t22 41t22.5 29.5q38 37 87 39.5t87 -36.5q8 -9 11.5 -20t3.5 -19t-6 -21.5t-9 -19t-12.5 -20t-11.5 -17.5q-10 -16 -32.5 -48.5t-46.5 -68t-54 -80t-57.5 -88
t-54 -88.5t-45.5 -85.5t-31 -75t-11 -60.5t15 -39q70 -63 188 41q67 58 148 165q65 86 115 164q8 13 17 27.5t20 32t17 27.5q53 83 95 54zM339 611q8 53 -2 68q-13 19 -36.5 20.5t-44 -8.5t-36.5 -25q-70 -62 -143 -200q-66 -125 -86 -222q-25 -114 21 -142q4 -2 21 0
q85 13 159 145q86 151 117 247q24 75 30 117z" />
    <glyph glyph-name="a" unicode="&#xe4;" horiz-adv-x="839" 
d="M965 617q5 -4 3 -17q-2 -8 -4 -11q-36 -50 -44 -63q-45 -72 -52 -82q-56 -85 -107 -150q-95 -121 -142 -166q-49 -47 -98 -75q-88 -51 -168.5 -25.5t-125.5 116.5q-28 58 -71 -1q-17 -24 -37.5 -47.5t-51 -50t-59 -40.5t-59.5 -10t-54 33q-36 46 -46.5 112t-1.5 125.5
t30 119.5q76 211 228 359q50 48 102.5 68t103.5 0.5t81 -85.5q14 -33 30 -31q17 1 45 47l3 6q6 10 17.5 33.5t22 41t22.5 29.5q38 37 87 39.5t87 -36.5q8 -9 11.5 -20t3.5 -19t-6 -21.5t-9 -19t-12.5 -20t-11.5 -17.5q-10 -16 -32.5 -48.5t-46.5 -68t-54 -80t-57.5 -88
t-54 -88.5t-45.5 -85.5t-31 -75t-11 -60.5t15 -39q70 -63 188 41q67 58 148 165q65 86 115 164q8 13 17 27.5t20 32t17 27.5q53 83 95 54zM339 611q8 53 -2 68q-13 19 -36.5 20.5t-44 -8.5t-36.5 -25q-70 -62 -143 -200q-66 -125 -86 -222q-25 -114 21 -142q4 -2 21 0
q85 13 159 145q86 151 117 247q24 75 30 117z" />
    <glyph glyph-name="a" unicode="&#xe3;" horiz-adv-x="839" 
d="M965 617q5 -4 3 -17q-2 -8 -4 -11q-36 -50 -44 -63q-45 -72 -52 -82q-56 -85 -107 -150q-95 -121 -142 -166q-49 -47 -98 -75q-88 -51 -168.5 -25.5t-125.5 116.5q-28 58 -71 -1q-17 -24 -37.5 -47.5t-51 -50t-59 -40.5t-59.5 -10t-54 33q-36 46 -46.5 112t-1.5 125.5
t30 119.5q76 211 228 359q50 48 102.5 68t103.5 0.5t81 -85.5q14 -33 30 -31q17 1 45 47l3 6q6 10 17.5 33.5t22 41t22.5 29.5q38 37 87 39.5t87 -36.5q8 -9 11.5 -20t3.5 -19t-6 -21.5t-9 -19t-12.5 -20t-11.5 -17.5q-10 -16 -32.5 -48.5t-46.5 -68t-54 -80t-57.5 -88
t-54 -88.5t-45.5 -85.5t-31 -75t-11 -60.5t15 -39q70 -63 188 41q67 58 148 165q65 86 115 164q8 13 17 27.5t20 32t17 27.5q53 83 95 54zM339 611q8 53 -2 68q-13 19 -36.5 20.5t-44 -8.5t-36.5 -25q-70 -62 -143 -200q-66 -125 -86 -222q-25 -114 21 -142q4 -2 21 0
q85 13 159 145q86 151 117 247q24 75 30 117z" />
    <glyph glyph-name="a" unicode="&#xe2;" horiz-adv-x="839" 
d="M965 617q5 -4 3 -17q-2 -8 -4 -11q-36 -50 -44 -63q-45 -72 -52 -82q-56 -85 -107 -150q-95 -121 -142 -166q-49 -47 -98 -75q-88 -51 -168.5 -25.5t-125.5 116.5q-28 58 -71 -1q-17 -24 -37.5 -47.5t-51 -50t-59 -40.5t-59.5 -10t-54 33q-36 46 -46.5 112t-1.5 125.5
t30 119.5q76 211 228 359q50 48 102.5 68t103.5 0.5t81 -85.5q14 -33 30 -31q17 1 45 47l3 6q6 10 17.5 33.5t22 41t22.5 29.5q38 37 87 39.5t87 -36.5q8 -9 11.5 -20t3.5 -19t-6 -21.5t-9 -19t-12.5 -20t-11.5 -17.5q-10 -16 -32.5 -48.5t-46.5 -68t-54 -80t-57.5 -88
t-54 -88.5t-45.5 -85.5t-31 -75t-11 -60.5t15 -39q70 -63 188 41q67 58 148 165q65 86 115 164q8 13 17 27.5t20 32t17 27.5q53 83 95 54zM339 611q8 53 -2 68q-13 19 -36.5 20.5t-44 -8.5t-36.5 -25q-70 -62 -143 -200q-66 -125 -86 -222q-25 -114 21 -142q4 -2 21 0
q85 13 159 145q86 151 117 247q24 75 30 117z" />
    <glyph glyph-name="a" unicode="&#xe1;" horiz-adv-x="839" 
d="M965 617q5 -4 3 -17q-2 -8 -4 -11q-36 -50 -44 -63q-45 -72 -52 -82q-56 -85 -107 -150q-95 -121 -142 -166q-49 -47 -98 -75q-88 -51 -168.5 -25.5t-125.5 116.5q-28 58 -71 -1q-17 -24 -37.5 -47.5t-51 -50t-59 -40.5t-59.5 -10t-54 33q-36 46 -46.5 112t-1.5 125.5
t30 119.5q76 211 228 359q50 48 102.5 68t103.5 0.5t81 -85.5q14 -33 30 -31q17 1 45 47l3 6q6 10 17.5 33.5t22 41t22.5 29.5q38 37 87 39.5t87 -36.5q8 -9 11.5 -20t3.5 -19t-6 -21.5t-9 -19t-12.5 -20t-11.5 -17.5q-10 -16 -32.5 -48.5t-46.5 -68t-54 -80t-57.5 -88
t-54 -88.5t-45.5 -85.5t-31 -75t-11 -60.5t15 -39q70 -63 188 41q67 58 148 165q65 86 115 164q8 13 17 27.5t20 32t17 27.5q53 83 95 54zM339 611q8 53 -2 68q-13 19 -36.5 20.5t-44 -8.5t-36.5 -25q-70 -62 -143 -200q-66 -125 -86 -222q-25 -114 21 -142q4 -2 21 0
q85 13 159 145q86 151 117 247q24 75 30 117z" />
    <glyph glyph-name="a" unicode="&#xe0;" horiz-adv-x="839" 
d="M965 617q5 -4 3 -17q-2 -8 -4 -11q-36 -50 -44 -63q-45 -72 -52 -82q-56 -85 -107 -150q-95 -121 -142 -166q-49 -47 -98 -75q-88 -51 -168.5 -25.5t-125.5 116.5q-28 58 -71 -1q-17 -24 -37.5 -47.5t-51 -50t-59 -40.5t-59.5 -10t-54 33q-36 46 -46.5 112t-1.5 125.5
t30 119.5q76 211 228 359q50 48 102.5 68t103.5 0.5t81 -85.5q14 -33 30 -31q17 1 45 47l3 6q6 10 17.5 33.5t22 41t22.5 29.5q38 37 87 39.5t87 -36.5q8 -9 11.5 -20t3.5 -19t-6 -21.5t-9 -19t-12.5 -20t-11.5 -17.5q-10 -16 -32.5 -48.5t-46.5 -68t-54 -80t-57.5 -88
t-54 -88.5t-45.5 -85.5t-31 -75t-11 -60.5t15 -39q70 -63 188 41q67 58 148 165q65 86 115 164q8 13 17 27.5t20 32t17 27.5q53 83 95 54zM339 611q8 53 -2 68q-13 19 -36.5 20.5t-44 -8.5t-36.5 -25q-70 -62 -143 -200q-66 -125 -86 -222q-25 -114 21 -142q4 -2 21 0
q85 13 159 145q86 151 117 247q24 75 30 117z" />
    <glyph glyph-name="b" unicode="b" horiz-adv-x="1103" 
d="M1782 1797q1 -4 1 -27q-5 -77 -50.5 -138t-116.5 -99q-40 -21 -85 -31t-79 -12t-87 5.5t-80.5 13.5t-87.5 20q-3 1 -13.5 -11t-24 -30.5t-26 -37t-23 -34t-12.5 -18.5q-98 -128 -199 -228q-96 -94 -214 -171q-133 -87 -179 -175q-61 -116 -181.5 -327t-168.5 -300
q-6 -10 -9 -16.5t-9 -19t-8.5 -21t-5 -20t-0.5 -19t6.5 -15t14.5 -11.5t25 -5q26 -1 64 20q59 33 111.5 78.5t100.5 105.5t81.5 108.5t79.5 121.5q12 20 13 32q1 9 -8 33q-31 92 57 221q50 73 97 68q26 -3 42 -25t14 -47q-2 -16 -20 -60q-8 -18 -23 -52.5t-17 -39.5
q-31 -72 -4 -102q22 -19 49.5 -17.5t55.5 16.5q60 33 110.5 74t74.5 67t48 42.5t45 13.5l5 -1l8 -2t8 -2.5t6 -3.5t0 -4q-10 -14 -24.5 -29.5t-25.5 -25.5t-30 -27t-27 -24q-157 -148 -293 -138q-7 0 -25 2t-27.5 2.5t-23.5 -1.5t-25 -7q-22 -11 -47 -48q-13 -20 -39.5 -61
t-42.5 -65.5t-40.5 -58t-47.5 -60.5q-150 -175 -309 -170q-76 2 -120 69t-24 141q7 26 10 34q29 92 73.5 181.5t121 218.5t98.5 169q5 11 16 35t10 24q-60 -14 -131.5 -8t-137 24t-123.5 57.5t-90 92.5q-59 104 -56.5 223t61.5 222q20 36 52 78q79 104 191 176t240 102
q133 34 279.5 12.5t260.5 -99.5q0 3 42 60.5t51 68.5q185 224 293 128q33 -29 42 -81t3.5 -91.5t-18.5 -92.5q-6 -26 -25.5 -80.5t-25.5 -84.5q49 -25 116.5 -32.5t121.5 2.5q98 17 168 93t95 178q2 6 4 8t9 2q21 -2 30 -24q2 -3 4 -13zM405 994q48 81 384 641q1 3 3 6
q35 49 35 60q0 6 -16 15t-25 12h-1q-10 5 -16 7q-337 117 -600 -20q-139 -72 -225.5 -195t-82.5 -270q3 -117 51.5 -193.5t156.5 -110.5q42 -13 86 -20.5t94 -7.5t92 19t64 57zM1122 1554q1 6 -13 16t-40 22.5t-48.5 22.5t-51.5 22t-36 15q-2 1 -9.5 5t-11.5 5.5t-10 1.5
t-10 -4q-4 -5 -8 -11.5t-8.5 -15t-7.5 -12.5q-22 -38 -29 -53q-76 -164 -113 -247q-31 -68 -63 -146q-9 -21 -27 -70t-29 -75q5 11 32 27q88 48 183 141q80 77 205 229q8 9 22 27q6 9 7 10l1 1q14 16 32 40q30 38 33 49zM1192 1684q17 36 29 75q55 167 -32 204
q-13 5 -26 5.5t-24 -2t-23.5 -10t-21 -14.5t-19.5 -18.5t-17.5 -18.5t-15.5 -19q-25 -30 -121 -168q7 -1 28 -10q29 -12 64 -28q18 -8 53.5 -24.5t53.5 -24.5q2 -1 10 -5.5t14 -7t10 -1.5q8 1 16 18q5 8 11 23.5t8 20.5q1 1 3 5z" />
    <glyph glyph-name="c" unicode="c" 
d="M875 593q13 -1 19 -10t4 -21q-2 -10 -6 -19.5t-12 -20t-13 -16.5t-16 -17.5t-14 -14.5q-34 -36 -82 -81l-135 -123q-124 -113 -247 -191q-63 -39 -89 -53q-69 -36 -149 -33q-72 3 -127 38q-61 39 -82.5 101t-10 126t44.5 136t68.5 125.5t73.5 100.5q37 45 60 71.5
t62.5 59.5t78.5 50q88 39 157 -5.5t74 -139.5q7 -111 -51 -184q-17 -22 -43.5 -28.5t-51.5 6.5q-36 20 -38 63.5t20.5 83.5t53.5 56q19 11 24.5 30.5t-14.5 31.5q-26 14 -76 -31t-101 -118.5t-92 -140t-61 -107.5q-2 -4 -11.5 -22.5t-13.5 -26.5t-12.5 -26.5t-12 -29.5
t-9 -28.5t-6 -30.5t-0.5 -27.5t4.5 -27.5t12.5 -24q17 -24 53 -28q21 -2 42 -0.5t44 9t41 13.5t42.5 20.5t38.5 22.5t40 27t35 26l36 28t32 25q5 5 16.5 13.5t17.5 12.5q77 61 169 150q23 22 74.5 76t80.5 82q43 43 57 41z" />
    <glyph glyph-name="c" unicode="&#xe7;" 
d="M875 593q13 -1 19 -10t4 -21q-2 -10 -6 -19.5t-12 -20t-13 -16.5t-16 -17.5t-14 -14.5q-34 -36 -82 -81l-135 -123q-124 -113 -247 -191q-63 -39 -89 -53q-69 -36 -149 -33q-72 3 -127 38q-61 39 -82.5 101t-10 126t44.5 136t68.5 125.5t73.5 100.5q37 45 60 71.5
t62.5 59.5t78.5 50q88 39 157 -5.5t74 -139.5q7 -111 -51 -184q-17 -22 -43.5 -28.5t-51.5 6.5q-36 20 -38 63.5t20.5 83.5t53.5 56q19 11 24.5 30.5t-14.5 31.5q-26 14 -76 -31t-101 -118.5t-92 -140t-61 -107.5q-2 -4 -11.5 -22.5t-13.5 -26.5t-12.5 -26.5t-12 -29.5
t-9 -28.5t-6 -30.5t-0.5 -27.5t4.5 -27.5t12.5 -24q17 -24 53 -28q21 -2 42 -0.5t44 9t41 13.5t42.5 20.5t38.5 22.5t40 27t35 26l36 28t32 25q5 5 16.5 13.5t17.5 12.5q77 61 169 150q23 22 74.5 76t80.5 82q43 43 57 41z" />
    <glyph glyph-name="d" unicode="d" horiz-adv-x="958" 
d="M1845 1944q69 -248 -233 -552q-143 -144 -327 -267q-53 -36 -175 -107.5t-183 -114.5q-125 -86 -250 -273q-79 -119 -170 -284q-36 -65 -79 -145q-2 -4 -15.5 -24.5t-18 -34.5t-2.5 -28q5 -26 29 -42t46 -7q186 75 459 470q20 29 37 46q8 9 23 8t23 -11q11 -16 4 -38
q-6 -19 -44 -69q-54 -71 -97 -123q-130 -157 -218 -236q-24 -21 -39.5 -34t-41 -32t-46.5 -28.5t-46.5 -18t-51.5 -7t-52 10.5q-27 10 -49.5 35t-34.5 47.5t-27 58.5q-8 21 -21 22q-11 1 -23 -13q-91 -101 -161 -134q-47 -22 -89.5 -15t-69 35.5t-46.5 69.5t-22.5 86.5
t4.5 85.5q40 179 175 333q182 210 301 211q38 0 70 -17t54.5 -49.5t37 -62t28.5 -68.5q-2 5 9.5 23t28.5 40.5t18 23.5q11 16 32.5 49t32.5 49l129 189q41 59 114.5 168t135 198.5t117.5 167.5q90 127 172 234q7 9 27.5 36t29.5 39t27.5 35t31.5 37.5t30.5 33t33.5 33.5
q111 104 218 91q53 -6 96.5 -42.5t57.5 -88.5zM419 563q12 40 12 60q0 26 -12 45q-14 21 -38 30.5t-49 3.5q-12 -3 -23 -9.5t-19 -12.5t-19 -18t-15.5 -18t-15.5 -21t-14 -19q-69 -93 -142 -206q-37 -57 -70 -132q-43 -93 -44 -138q0 -17 5 -27q9 -17 31.5 -18t42 7t35.5 18
q62 38 112 96.5t106 141.5q31 46 47 71t37.5 67t32.5 79zM1748 1754q12 38 17.5 77t-2 82.5t-31.5 70.5q-46 51 -112 27q-68 -25 -143 -120q-96 -121 -243 -347.5t-249 -399.5t-104 -188q-1 -5 4.5 -6t15.5 3.5t22.5 10.5t30 16.5t33 20.5t35.5 23t34.5 23t32.5 22.5t27 19
t21 14.5q258 181 399 337q54 60 86 98.5t69.5 99t56.5 116.5z" />
    <glyph glyph-name="e" unicode="e" horiz-adv-x="722" 
d="M757 575q20 -9 12 -40q-4 -15 -12.5 -28t-26.5 -32t-21 -23q-46 -54 -70 -81q-78 -87 -145 -152q-69 -68 -126 -113.5t-122 -73.5q-70 -31 -138 -32q-97 -2 -144 62q-46 61 -39 147q6 81 67 177q65 106 194 231q132 128 247 187q74 38 118 19q42 -19 45 -58
q10 -110 -103 -241q-97 -113 -219 -165q-8 -4 -31.5 -13t-35 -14t-29 -14.5t-29.5 -20.5q-45 -38 -73 -110q-32 -85 -23 -113q7 -20 33 -20q115 1 271 116q35 26 66 54q48 43 123 129t129 152t56 67q10 6 19 5q3 0 7 -2zM266 499q-3 -4 -22.5 -37.5t-18.5 -33.5
q33 -3 100 28q46 21 86 56q85 75 100 178q4 34 -8 36q-6 2 -16 -4q-80 -42 -151 -128q-27 -32 -70 -95z" />
    <glyph glyph-name="e" unicode="&#xeb;" horiz-adv-x="722" 
d="M757 575q20 -9 12 -40q-4 -15 -12.5 -28t-26.5 -32t-21 -23q-46 -54 -70 -81q-78 -87 -145 -152q-69 -68 -126 -113.5t-122 -73.5q-70 -31 -138 -32q-97 -2 -144 62q-46 61 -39 147q6 81 67 177q65 106 194 231q132 128 247 187q74 38 118 19q42 -19 45 -58
q10 -110 -103 -241q-97 -113 -219 -165q-8 -4 -31.5 -13t-35 -14t-29 -14.5t-29.5 -20.5q-45 -38 -73 -110q-32 -85 -23 -113q7 -20 33 -20q115 1 271 116q35 26 66 54q48 43 123 129t129 152t56 67q10 6 19 5q3 0 7 -2zM266 499q-3 -4 -22.5 -37.5t-18.5 -33.5
q33 -3 100 28q46 21 86 56q85 75 100 178q4 34 -8 36q-6 2 -16 -4q-80 -42 -151 -128q-27 -32 -70 -95z" />
    <glyph glyph-name="e" unicode="&#xea;" horiz-adv-x="722" 
d="M757 575q20 -9 12 -40q-4 -15 -12.5 -28t-26.5 -32t-21 -23q-46 -54 -70 -81q-78 -87 -145 -152q-69 -68 -126 -113.5t-122 -73.5q-70 -31 -138 -32q-97 -2 -144 62q-46 61 -39 147q6 81 67 177q65 106 194 231q132 128 247 187q74 38 118 19q42 -19 45 -58
q10 -110 -103 -241q-97 -113 -219 -165q-8 -4 -31.5 -13t-35 -14t-29 -14.5t-29.5 -20.5q-45 -38 -73 -110q-32 -85 -23 -113q7 -20 33 -20q115 1 271 116q35 26 66 54q48 43 123 129t129 152t56 67q10 6 19 5q3 0 7 -2zM266 499q-3 -4 -22.5 -37.5t-18.5 -33.5
q33 -3 100 28q46 21 86 56q85 75 100 178q4 34 -8 36q-6 2 -16 -4q-80 -42 -151 -128q-27 -32 -70 -95z" />
    <glyph glyph-name="e" unicode="&#xe9;" horiz-adv-x="722" 
d="M757 575q20 -9 12 -40q-4 -15 -12.5 -28t-26.5 -32t-21 -23q-46 -54 -70 -81q-78 -87 -145 -152q-69 -68 -126 -113.5t-122 -73.5q-70 -31 -138 -32q-97 -2 -144 62q-46 61 -39 147q6 81 67 177q65 106 194 231q132 128 247 187q74 38 118 19q42 -19 45 -58
q10 -110 -103 -241q-97 -113 -219 -165q-8 -4 -31.5 -13t-35 -14t-29 -14.5t-29.5 -20.5q-45 -38 -73 -110q-32 -85 -23 -113q7 -20 33 -20q115 1 271 116q35 26 66 54q48 43 123 129t129 152t56 67q10 6 19 5q3 0 7 -2zM266 499q-3 -4 -22.5 -37.5t-18.5 -33.5
q33 -3 100 28q46 21 86 56q85 75 100 178q4 34 -8 36q-6 2 -16 -4q-80 -42 -151 -128q-27 -32 -70 -95z" />
    <glyph glyph-name="e" unicode="&#xe8;" horiz-adv-x="722" 
d="M757 575q20 -9 12 -40q-4 -15 -12.5 -28t-26.5 -32t-21 -23q-46 -54 -70 -81q-78 -87 -145 -152q-69 -68 -126 -113.5t-122 -73.5q-70 -31 -138 -32q-97 -2 -144 62q-46 61 -39 147q6 81 67 177q65 106 194 231q132 128 247 187q74 38 118 19q42 -19 45 -58
q10 -110 -103 -241q-97 -113 -219 -165q-8 -4 -31.5 -13t-35 -14t-29 -14.5t-29.5 -20.5q-45 -38 -73 -110q-32 -85 -23 -113q7 -20 33 -20q115 1 271 116q35 26 66 54q48 43 123 129t129 152t56 67q10 6 19 5q3 0 7 -2zM266 499q-3 -4 -22.5 -37.5t-18.5 -33.5
q33 -3 100 28q46 21 86 56q85 75 100 178q4 34 -8 36q-6 2 -16 -4q-80 -42 -151 -128q-27 -32 -70 -95z" />
    <glyph glyph-name="f" unicode="f" horiz-adv-x="849" 
d="M1354 1489q3 -15 -11 -24q-8 -5 -26 -4.5t-28 -2.5q-12 -4 -19 -12.5t-14 -26t-9 -20.5q-31 -54 -57 -63q-19 -6 -39.5 6t-16.5 34q2 13 4.5 21.5t9 19.5t8.5 13.5t15 19.5q1 2 -5 1q-22 0 -28 -4q-5 -3 -30 -25q-33 -29 -70 -71q-75 -88 -194 -255q-104 -147 -220 -321
q-103 -155 -179 -273q-36 -56 -53 -84q-15 -29 -17 -30q73 21 139.5 60t103.5 74t66.5 62.5t39.5 28.5q4 1 10 1t13 -0.5t11.5 -3t3.5 -6.5q-4 -9 -8 -15q-150 -183 -348 -243q-55 -16 -63 -20q-2 -1 -4.5 -4t-4.5 -7.5t-3 -5.5q-38 -55 -119 -180q-188 -290 -299 -429
q-281 -352 -560 -434q-147 -43 -299 -17q-136 23 -242 120.5t-132 236.5q-13 71 8 147.5t80 101.5q45 19 82 -6q19 -12 28 -35t-1 -43q-7 -12 -31 -20t-31 -16q-38 -43 -35 -98t31 -106t67 -83q115 -93 352 -58q264 40 541 366q66 77 124 158t143.5 211t110.5 167
q41 60 -2 91q-29 20 -46 58.5t-9.5 77.5t44.5 55q29 13 47 -2q21 -22 17.5 -51t-23.5 -51q-19 -20 -17.5 -35.5t23.5 -33.5q11 -9 19.5 -11t17 4.5t12 10t13.5 16.5q23 31 133 191.5t215.5 311t237.5 311t219 227.5q37 29 78.5 38t98.5 7q9 0 54 3.5t53 -2.5q17 -3 20 -19z
M1209 1382q11 14 12.5 27t-6.5 18t-21 -1t-23 -19q-11 -14 -12.5 -27t6.5 -18q19 -12 44 20z" />
    <glyph glyph-name="g" unicode="g" horiz-adv-x="899" 
d="M1350 1206q3 -5 5 -9.5t2.5 -8.5t-1.5 -8t-3 -6.5t-5 -6t-6 -5t-7.5 -4.5t-7 -4t-7 -3.5t-6.5 -2.5q-31 -15 -63 -36t-54.5 -37t-57 -45.5t-49.5 -43t-54 -50t-50 -46.5q-59 -54 -112 -119t-104.5 -149t-82.5 -139.5t-85.5 -162t-75.5 -144.5q44 -10 69.5 -18t58.5 -26
t54 -42q46 -55 49.5 -131t-18.5 -139.5t-61 -130.5q-87 -151 -219 -256.5t-291 -132.5q-25 -4 -39 2q-9 4 -13.5 14t-0.5 18q6 10 25 14q91 24 103 28q124 42 223.5 134.5t154.5 213.5q20 44 35.5 98.5t24.5 121t-16.5 113t-86.5 52.5q-67 6 -133 -80q-33 -43 -156.5 -235
t-251.5 -382t-189 -256q-1 -1 -20 -22t-24 -25.5t-22 -20.5t-27.5 -22t-26.5 -14t-32 -11q-54 -11 -88 22.5t-36 89.5q-1 63 15.5 124t51 120t66.5 102.5t81 100.5q168 198 294 308q31 27 90.5 69.5t99 72t77.5 80t50 106.5q-31 -23 -104 -18q-49 3 -88.5 32.5t-52.5 75.5
q-45 153 192 406q158 169 282 197q38 9 68 -2t47.5 -35.5t26.5 -56.5t8 -67q194 201 351 316q129 96 151 111q3 2 12.5 10t15 11.5t14 6t16 -1.5t14.5 -15zM-164 -738q391 615 410 692q-39 -8 -151.5 -115.5t-230 -248t-168.5 -233.5q-1 -1 -11.5 -20.5t-14.5 -27
t-14.5 -27.5t-14.5 -31.5t-11.5 -30.5t-9 -32.5t-3 -29t2.5 -28t11 -22.5q59 -78 205 154zM681 690q29 77 15 117t-60 34q-36 -3 -65 -28q-15 -13 -33 -32t-26.5 -30t-30 -39t-25.5 -33q-71 -92 -107 -151q-38 -61 -70 -139q-1 -3 -6 -15t-7 -17.5t-6 -17.5t-4.5 -19.5
t-1 -17.5t2.5 -17.5t8 -14.5q12 -15 29.5 -17t39.5 8.5t34 18t31 21.5q62 44 122 118q108 131 159 267v2q0 2 1 2z" />
    <glyph glyph-name="h" unicode="h" horiz-adv-x="1132" 
d="M1691 1389q8 -55 -19.5 -109.5t-76.5 -96.5q-83 -71 -194 -96t-217 4q-19 5 -67 20.5t-74 22t-64 6t-67 -15.5q-17 -9 -45 -32t-53 -36t-54 -11q-36 3 -40 2q-15 -3 -29 -16.5t-21 -24t-19.5 -34.5t-14.5 -27q-40 -69 -64 -135q50 42 94 63.5t89 12.5q57 -11 85.5 -66.5
t21.5 -116.5q-2 -14 -5.5 -29t-7 -26.5t-12 -29t-12 -25.5t-15 -27t-14.5 -24t-16 -26.5t-15 -23.5q-105 -168 -178 -332q-9 -20 -8 -34q2 -29 32.5 -36t51.5 7q14 8 29 18.5t25.5 19.5t25.5 24.5t22.5 24t23 27t21.5 24.5q116 129 154 175q9 10 53 65.5t74 90t38 36.5
q17 4 25 -6q6 -6 8 -13.5t-1 -16.5t-6 -15.5t-10.5 -16t-11.5 -14.5t-12.5 -14t-9.5 -10q-54 -59 -154 -181.5t-153 -179.5q-99 -109 -201 -105q-35 1 -64 22t-45 53q-24 48 -23.5 106t18.5 110.5t49 103.5q25 40 77 111t73 104q75 116 33 151q-14 12 -35 7t-38 -15.5
t-29 -22.5q-82 -86 -206 -268.5t-214 -325.5t-101 -150q-39 -23 -122 2q-25 8 -32 16q-17 22 7 68q22 41 66 121q467 844 1184 1734q115 143 210 118q39 -11 65.5 -46t34.5 -79q19 -115 -78 -272q-161 -261 -406 -447q62 -26 106 -41t102.5 -29t112 -11.5t102.5 20.5
q37 14 70.5 36.5t65.5 56t52.5 59t52.5 67.5zM784 1173q90 6 227 107q94 68 179 170q55 65 84 101t71 94t71 110q72 129 44 200q-14 34 -44.5 43.5t-59.5 -12.5q-12 -9 -23 -19t-24 -23.5t-20 -21t-22 -26t-18.5 -22.5t-21 -26.5t-18.5 -23.5q-81 -104 -177 -240
q-10 -14 -66 -92t-77.5 -110t-54.5 -94t-50 -115z" />
    <glyph glyph-name="i" unicode="i" horiz-adv-x="548" 
d="M446 785q-17 -17 -40 -19.5t-41 15.5q-15 16 -15.5 38.5t8 41t22.5 36.5q29 37 52 52q22 13 40.5 2t24.5 -36q2 -8 2 -23q-3 -59 -53 -107zM565 600q6 -2 7 -9.5t-3 -18.5t-9.5 -23.5t-14.5 -28t-16.5 -27t-16.5 -25t-12.5 -19t-7.5 -10.5q-86 -123 -164 -213
q-15 -18 -23 -26.5t-29 -31.5t-35.5 -36t-38.5 -35t-42.5 -33.5t-42 -25.5t-42.5 -16.5t-39 -2t-37 12.5t-31 34q-59 93 55 277q71 116 156 235q56 79 101 111q23 16 47 19t43 -14q24 -30 -15 -87q-28 -42 -95 -133.5t-113.5 -163t-80.5 -142.5q-23 -48 -26 -96h2
q38 3 73.5 20.5t71 50t55.5 54.5t53 62q66 81 209 280q1 1 5 7.5t7.5 11.5t9 12.5t10.5 12.5t10 9.5t10 6.5t9 1z" />
    <glyph glyph-name="i" unicode="&#xef;" horiz-adv-x="548" 
d="M446 785q-17 -17 -40 -19.5t-41 15.5q-15 16 -15.5 38.5t8 41t22.5 36.5q29 37 52 52q22 13 40.5 2t24.5 -36q2 -8 2 -23q-3 -59 -53 -107zM565 600q6 -2 7 -9.5t-3 -18.5t-9.5 -23.5t-14.5 -28t-16.5 -27t-16.5 -25t-12.5 -19t-7.5 -10.5q-86 -123 -164 -213
q-15 -18 -23 -26.5t-29 -31.5t-35.5 -36t-38.5 -35t-42.5 -33.5t-42 -25.5t-42.5 -16.5t-39 -2t-37 12.5t-31 34q-59 93 55 277q71 116 156 235q56 79 101 111q23 16 47 19t43 -14q24 -30 -15 -87q-28 -42 -95 -133.5t-113.5 -163t-80.5 -142.5q-23 -48 -26 -96h2
q38 3 73.5 20.5t71 50t55.5 54.5t53 62q66 81 209 280q1 1 5 7.5t7.5 11.5t9 12.5t10.5 12.5t10 9.5t10 6.5t9 1z" />
    <glyph glyph-name="i" unicode="&#xee;" horiz-adv-x="548" 
d="M446 785q-17 -17 -40 -19.5t-41 15.5q-15 16 -15.5 38.5t8 41t22.5 36.5q29 37 52 52q22 13 40.5 2t24.5 -36q2 -8 2 -23q-3 -59 -53 -107zM565 600q6 -2 7 -9.5t-3 -18.5t-9.5 -23.5t-14.5 -28t-16.5 -27t-16.5 -25t-12.5 -19t-7.5 -10.5q-86 -123 -164 -213
q-15 -18 -23 -26.5t-29 -31.5t-35.5 -36t-38.5 -35t-42.5 -33.5t-42 -25.5t-42.5 -16.5t-39 -2t-37 12.5t-31 34q-59 93 55 277q71 116 156 235q56 79 101 111q23 16 47 19t43 -14q24 -30 -15 -87q-28 -42 -95 -133.5t-113.5 -163t-80.5 -142.5q-23 -48 -26 -96h2
q38 3 73.5 20.5t71 50t55.5 54.5t53 62q66 81 209 280q1 1 5 7.5t7.5 11.5t9 12.5t10.5 12.5t10 9.5t10 6.5t9 1z" />
    <glyph glyph-name="i" unicode="&#xed;" horiz-adv-x="548" 
d="M446 785q-17 -17 -40 -19.5t-41 15.5q-15 16 -15.5 38.5t8 41t22.5 36.5q29 37 52 52q22 13 40.5 2t24.5 -36q2 -8 2 -23q-3 -59 -53 -107zM565 600q6 -2 7 -9.5t-3 -18.5t-9.5 -23.5t-14.5 -28t-16.5 -27t-16.5 -25t-12.5 -19t-7.5 -10.5q-86 -123 -164 -213
q-15 -18 -23 -26.5t-29 -31.5t-35.5 -36t-38.5 -35t-42.5 -33.5t-42 -25.5t-42.5 -16.5t-39 -2t-37 12.5t-31 34q-59 93 55 277q71 116 156 235q56 79 101 111q23 16 47 19t43 -14q24 -30 -15 -87q-28 -42 -95 -133.5t-113.5 -163t-80.5 -142.5q-23 -48 -26 -96h2
q38 3 73.5 20.5t71 50t55.5 54.5t53 62q66 81 209 280q1 1 5 7.5t7.5 11.5t9 12.5t10.5 12.5t10 9.5t10 6.5t9 1z" />
    <glyph glyph-name="i" unicode="&#xec;" horiz-adv-x="548" 
d="M446 785q-17 -17 -40 -19.5t-41 15.5q-15 16 -15.5 38.5t8 41t22.5 36.5q29 37 52 52q22 13 40.5 2t24.5 -36q2 -8 2 -23q-3 -59 -53 -107zM565 600q6 -2 7 -9.5t-3 -18.5t-9.5 -23.5t-14.5 -28t-16.5 -27t-16.5 -25t-12.5 -19t-7.5 -10.5q-86 -123 -164 -213
q-15 -18 -23 -26.5t-29 -31.5t-35.5 -36t-38.5 -35t-42.5 -33.5t-42 -25.5t-42.5 -16.5t-39 -2t-37 12.5t-31 34q-59 93 55 277q71 116 156 235q56 79 101 111q23 16 47 19t43 -14q24 -30 -15 -87q-28 -42 -95 -133.5t-113.5 -163t-80.5 -142.5q-23 -48 -26 -96h2
q38 3 73.5 20.5t71 50t55.5 54.5t53 62q66 81 209 280q1 1 5 7.5t7.5 11.5t9 12.5t10.5 12.5t10 9.5t10 6.5t9 1z" />
    <glyph glyph-name="j" unicode="j" horiz-adv-x="811" 
d="M-355 -750q1 0 1 2h3q-1 0 -2 -1t-2 -1zM865 1249q3 -10 5 -26q4 -62 -48 -126q-18 -22 -43.5 -27t-48.5 13q-51 45 5 133q30 47 52 65q24 18 46.5 6.5t31.5 -38.5zM-613 -624l-1 -2v1zM797 754q9 3 15.5 -2t5.5 -14q-1 -11 -5.5 -24.5t-7.5 -19t-13 -23t-11 -18.5
q-16 -28 -50 -82q-52 -83 -110 -157q-106 -137 -234 -248q-60 -53 -141 -106q-141 -90 -149 -81q9 -10 21 -15t33.5 -8.5t26.5 -4.5q46 -12 77 -54t36 -93q9 -80 -41 -190q-76 -168 -196 -271q-72 -61 -158 -96q-60 -24 -187 -40q-12 -2 -35.5 -3t-41 -1.5t-18.5 -0.5
q-8 -4 -14.5 -9.5t-16 -19t-10.5 -14.5q-32 -40 -50 -58q-70 -68 -127 -57q-28 5 -50 28.5t-29 53.5q-1 3 -2 8.5t-1 8.5q-4 36 15 96q0 1 5 15.5t9 27.5t3 13q-10 4 -39 10h-1l-12 3q-1 0 -2.5 0.5t-2.5 0.5q-82 14 -151 -27q-51 -32 -78 -81q-12 -21 -21 -54
q-2 -9 -5.5 -30t-6.5 -32q-4 -13 -7 -18l-6.5 -6.5t-6.5 -5.5q-12 59 5.5 119.5t60.5 103.5q42 44 102.5 63t119.5 8q3 -1 9.5 -2t9.5 -1l5 -1l39 -8l5 -1q3 0 13 19q100 150 193.5 264.5t202.5 205.5q13 10 41.5 30t49.5 38t34 37q1 1 49.5 74.5t116.5 179.5t106 170
q185 312 444 566q36 36 70 44q26 5 42 -5q-33 -30 -39 -37q-73 -70 -141.5 -157.5t-118.5 -164t-109.5 -186.5t-94.5 -181.5t-93 -192.5q4 9 22.5 21t42 24.5t29.5 16.5q47 34 88 67q87 70 161 144q107 106 199 245q26 40 55 88q5 7 14 22.5t13 23.5q36 59 44 62zM-600 -912
q25 -5 62.5 26t62 67t20.5 46q-4 8 -42.5 23.5t-76.5 26t-39 6.5q-67 -163 6 -193q1 0 3.5 -1t3.5 -1zM-397 -684q2 5 272 524q-57 -33 -107.5 -73t-96 -91t-76 -88.5t-75.5 -99.5q-89 -121 -112 -161q19 -7 59.5 -18.5t59.5 -19.5q17 -6 19 -6l5 -1l27 -5l17 27q6 8 8 12z
M150 -81q-90 10 -140 -77q-11 -20 -33 -59t-34 -58q-15 -25 -44 -75.5t-44 -75.5q-5 -8 -21.5 -36.5t-25.5 -43.5q-4 -6 -12 -19t-12 -19q-43 -65 -143 -207h65l1 1q131 0 264 89q97 65 164 164t89 213q34 170 -54 198q-15 4 -20 5z" />
    <glyph glyph-name="k" unicode="k" horiz-adv-x="956" 
d="M655 1001q-28 -23 -51.5 -48.5t-49.5 -66t-36 -56t-40.5 -72.5t-33.5 -62q4 7 12 14.5t22 17.5t15 11q43 33 131 97q2 1 18.5 13t21 15t19 11.5t22.5 11t21 4.5t25 1q45 -5 75 -39.5t26 -79.5q-4 -37 -20 -78t-47 -75t-68 -37q-25 -2 -45 17t-24 45q-6 43 25 97
q5 9 17 25.5t20 31t12 27.5q-56 -16 -117.5 -62t-105.5 -98q10 -4 22 -14q113 -100 110 -213q-2 -78 -68 -190q-7 -13 -23 -36t-27 -42.5t-18 -38.5q-20 -55 22 -54q38 1 79 35q3 2 6 5q120 110 208 206q37 40 107 124q34 42 51 64q9 12 25 35t20 29q15 24 26 23
q32 -2 34 -14q1 -3 0 -6q-2 -13 -49 -74q-8 -11 -24.5 -31t-24.5 -31q-33 -42 -103 -124q-104 -120 -199 -210q-103 -96 -193 -104q-68 -7 -105.5 31t-29.5 106q5 39 25 82t37 67t52 69q2 3 7 9q23 29 34 46t23 44.5t4 51t-35 42.5q-22 15 -45 14.5t-40 -8.5t-39 -31
t-32 -36t-30 -41q-16 -22 -81.5 -123.5t-122.5 -187t-70 -95.5q-23 -18 -63 -25q-38 -8 -68.5 -4t-47.5 24.5t3 63.5q36 81 127 229t217 332.5t226 327.5t220 310.5t133 186.5q25 35 78.5 113t95 135.5t82.5 109.5q7 10 26 35t32.5 43t36 44t41 44t43 35.5t46 26t46 8.5
t46.5 -12q36 -19 56.5 -47t21.5 -63.5t-4 -70t-25.5 -77t-37.5 -74t-45.5 -72.5t-43 -61t-37.5 -49q-139 -180 -263 -299q-58 -55 -175.5 -146t-143.5 -112zM714 1140q-2 -2 -2 -4q4 8 17 17.5t30.5 19t22.5 13.5q38 29 89 75q178 163 372 424q113 153 111 273
q-1 40 -36.5 47t-63.5 -13q-47 -28 -90 -87q-72 -101 -99 -140q-110 -159 -182 -290q-43 -80 -90 -173q-4 -8 -32.5 -71t-46.5 -91z" />
    <glyph glyph-name="l" unicode="l" horiz-adv-x="575" 
d="M1826 1385q7 -14 -6 -37q-74 -142 -198.5 -242.5t-272.5 -128.5q-189 -35 -470 60q-35 12 -50.5 17t-45.5 11.5t-53.5 5.5t-46.5 -8q-35 -11 -93.5 -58.5t-93.5 -58.5q-15 34 -5 69.5t37 63.5q12 12 28.5 24t28 19t34 19t30.5 17q73 42 146.5 109.5t119 122t115.5 144.5
q43 56 67 90t52 87.5t41 102.5q20 75 0 129q-12 32 -38 54.5t-58 23.5q-18 1 -34.5 -2t-32.5 -12t-28.5 -16.5t-28.5 -24.5l-24 -25.5t-23.5 -30.5t-20.5 -28.5t-20 -30.5t-17 -27q-108 -164 -278 -485.5t-253 -456.5q-38 -63 -177 -268q-171 -255 -223 -337
q-31 -47 -54 -88q-25 -45 -21 -67q1 -6 4 -12q8 -15 23 -21t36.5 0t37.5 11t42 21t32.5 20.5t26.5 17.5q93 63 192 163q96 97 193 222q3 4 11 14.5t11.5 15.5t11 11.5t15.5 11.5q36 21 50 -9q7 -16 -20 -45q-28 -30 -76.5 -91.5t-71.5 -88.5q-94 -107 -187 -190
q-52 -48 -113 -93q-47 -36 -95 -55t-103 -12.5t-93 51.5q-86 101 -7 259q38 78 164 270q73 111 239 343q217 303 410 575q34 48 101.5 144.5t101.5 144.5q12 17 41 61t46 67.5t46 55.5t58 52q44 31 94 39.5t98 -11.5q39 -19 64 -58t30 -85q9 -77 -30 -175q-38 -96 -105 -187
t-166.5 -202t-142.5 -166q-15 -19 -15 -33q0 -4 0.5 -7t1.5 -6t3.5 -6t4 -5t5.5 -4.5t6 -4t6.5 -4t6 -3.5t7 -4t6.5 -3q97 -52 194 -73.5t176.5 -15t154.5 31.5t133 61.5t107 80.5t80 83t49 74q18 32 29 39q10 7 24 5.5t19 -12.5z" />
    <glyph glyph-name="m" unicode="m" horiz-adv-x="1601" 
d="M1618 593q7 -23 -28 -74q-78 -115 -192 -240q-8 -8 -46.5 -51.5t-55 -60.5t-48.5 -46t-60 -48q-37 -25 -74 -37t-77.5 -6.5t-74.5 32.5q-46 37 -58.5 94.5t13.5 110.5q44 87 138 213q14 18 47 56.5t56.5 70.5t38.5 62q23 46 -11.5 59.5t-80.5 1.5q-29 -7 -57.5 -28.5
t-42.5 -37t-44 -55t-36 -46.5q-57 -71 -167 -218t-168 -219q-4 -5 -25 -33.5t-33.5 -44t-34 -33t-39.5 -22.5q-56 -13 -100 18.5t-9 84.5q27 42 117.5 166t166 231.5t90.5 141.5q29 66 -7 101q-10 10 -20 14t-20.5 1.5t-19 -5.5t-19.5 -12.5t-17.5 -15.5t-17 -17.5
t-14.5 -15.5q-55 -55 -276.5 -340t-241.5 -303q-22 -21 -53 -37t-66 -15.5t-52 29.5q-14 26 16 66q7 0 25.5 25.5t40.5 61t22 36.5q14 19 41.5 57.5t41.5 57.5q62 87 186 259q59 82 57 136q-1 38 -32 49.5t-62 -8.5q-46 -28 -99 -82q-23 -24 -61.5 -72.5t-45.5 -57.5
q-56 -65 -74 -35q-17 27 23 82q18 25 58 71q25 28 43 47.5t48.5 48.5t58 45.5t59.5 30t65 11t63 -19.5q20 -11 33 -27.5t18 -39t6.5 -39.5t1.5 -44q0 -7 0.5 -16t1.5 -26.5t2 -37.5q0 8 16 27t38.5 42t24.5 25q64 75 111 106q50 29 96 31t78 -32.5t31 -95.5q0 -128 -12 -140
q15 15 54.5 60t70.5 79t78 72.5t86 55.5t83.5 12t81.5 -42q135 -137 -41 -380q-5 -7 -34 -41q-149 -174 -170 -242q-14 -47 23 -56q8 -5 21 -1.5t22.5 5t23.5 9.5t23.5 13.5t24 17t23 18.5t21.5 19t20 19t17.5 17t14.5 14q45 43 87.5 94t96.5 123.5t78 102.5q1 1 10.5 14.5
t16 20.5t17 18t19.5 16t17 4q12 -2 14 -10z" />
    <glyph glyph-name="n" unicode="n" horiz-adv-x="1161" 
d="M1235 569q9 -13 -7 -38q-84 -135 -173 -245q-153 -192 -299 -258q-116 -53 -186 -3q-53 37 -58 117q-6 83 52 189q33 60 111 160t106 144q18 30 20 49q2 14 -4.5 27t-18.5 17q-21 8 -58 -22q-291 -247 -487 -558q-3 -5 -13.5 -21.5t-15.5 -24t-14 -20t-18 -22t-18 -18.5
q-59 -53 -121 -42q-39 7 -49 36q-8 22 13 61q46 88 104.5 176t145.5 208t120 167q44 64 20 98q-15 21 -45 21t-53 -14q-36 -18 -91.5 -79t-96 -112t-42.5 -51q-12 2 -23 13.5t-8 22.5q8 29 75.5 112t101.5 112q66 55 126 61l18 2q57 1 101 -43.5t42 -101.5q-1 -16 -7 -45.5
t-7 -43.5q0 -10 3 -14q8 -9 27 5q83 67 146 124q66 60 105 70q43 11 85.5 -9.5t60.5 -61.5q23 -52 1 -130q-20 -70 -73 -144t-111.5 -150t-85.5 -140q-20 -46 2 -65q13 -12 42 -8q58 9 136 73q168 139 322 361q36 51 60 62q25 12 37 -4z" />
    <glyph glyph-name="n" unicode="&#xf1;" horiz-adv-x="1161" 
d="M1235 569q9 -13 -7 -38q-84 -135 -173 -245q-153 -192 -299 -258q-116 -53 -186 -3q-53 37 -58 117q-6 83 52 189q33 60 111 160t106 144q18 30 20 49q2 14 -4.5 27t-18.5 17q-21 8 -58 -22q-291 -247 -487 -558q-3 -5 -13.5 -21.5t-15.5 -24t-14 -20t-18 -22t-18 -18.5
q-59 -53 -121 -42q-39 7 -49 36q-8 22 13 61q46 88 104.5 176t145.5 208t120 167q44 64 20 98q-15 21 -45 21t-53 -14q-36 -18 -91.5 -79t-96 -112t-42.5 -51q-12 2 -23 13.5t-8 22.5q8 29 75.5 112t101.5 112q66 55 126 61l18 2q57 1 101 -43.5t42 -101.5q-1 -16 -7 -45.5
t-7 -43.5q0 -10 3 -14q8 -9 27 5q83 67 146 124q66 60 105 70q43 11 85.5 -9.5t60.5 -61.5q23 -52 1 -130q-20 -70 -73 -144t-111.5 -150t-85.5 -140q-20 -46 2 -65q13 -12 42 -8q58 9 136 73q168 139 322 361q36 51 60 62q25 12 37 -4z" />
    <glyph glyph-name="o" unicode="o" horiz-adv-x="811" 
d="M868 603q16 -11 7 -42q-5 -16 -27 -42q-32 -39 -76 -78q-79 -71 -160 -105q-8 -3 -55.5 -21.5t-71.5 -31.5q-56 -31 -125 -102q-45 -47 -74 -73.5t-77 -56t-96 -39.5q-71 -15 -122 24q-47 35 -55 100q-7 61 10 120.5t52 133.5q92 193 218 312q207 197 338 97
q33 -25 38.5 -72.5t-4.5 -85.5q-4 -26 -34 -162q-1 -4 -3.5 -20t-5.5 -30t-7.5 -29.5t-12 -25.5t-16.5 -11q129 15 263 161l36 39q22 26 39 37q12 8 21 3zM421 504q26 20 35.5 27.5t27 25t23.5 30.5t12 33.5t7 45.5q6 26 -3 49.5t-30 27.5q-58 12 -112 -50
q-104 -121 -169 -225q-50 -80 -96 -191q-5 -12 -19 -42.5t-22.5 -50.5t-15.5 -47t-5 -48q3 -31 32 -33t50 15q163 103 250 230q14 22 9 39q-1 4 -12 20q-52 74 38 144z" />
    <glyph glyph-name="o" unicode="&#xf8;" horiz-adv-x="811" 
d="M868 603q16 -11 7 -42q-5 -16 -27 -42q-32 -39 -76 -78q-79 -71 -160 -105q-8 -3 -55.5 -21.5t-71.5 -31.5q-56 -31 -125 -102q-45 -47 -74 -73.5t-77 -56t-96 -39.5q-71 -15 -122 24q-47 35 -55 100q-7 61 10 120.5t52 133.5q92 193 218 312q207 197 338 97
q33 -25 38.5 -72.5t-4.5 -85.5q-4 -26 -34 -162q-1 -4 -3.5 -20t-5.5 -30t-7.5 -29.5t-12 -25.5t-16.5 -11q129 15 263 161l36 39q22 26 39 37q12 8 21 3zM421 504q26 20 35.5 27.5t27 25t23.5 30.5t12 33.5t7 45.5q6 26 -3 49.5t-30 27.5q-58 12 -112 -50
q-104 -121 -169 -225q-50 -80 -96 -191q-5 -12 -19 -42.5t-22.5 -50.5t-15.5 -47t-5 -48q3 -31 32 -33t50 15q163 103 250 230q14 22 9 39q-1 4 -12 20q-52 74 38 144z" />
    <glyph glyph-name="o" unicode="&#xf6;" horiz-adv-x="811" 
d="M868 603q16 -11 7 -42q-5 -16 -27 -42q-32 -39 -76 -78q-79 -71 -160 -105q-8 -3 -55.5 -21.5t-71.5 -31.5q-56 -31 -125 -102q-45 -47 -74 -73.5t-77 -56t-96 -39.5q-71 -15 -122 24q-47 35 -55 100q-7 61 10 120.5t52 133.5q92 193 218 312q207 197 338 97
q33 -25 38.5 -72.5t-4.5 -85.5q-4 -26 -34 -162q-1 -4 -3.5 -20t-5.5 -30t-7.5 -29.5t-12 -25.5t-16.5 -11q129 15 263 161l36 39q22 26 39 37q12 8 21 3zM421 504q26 20 35.5 27.5t27 25t23.5 30.5t12 33.5t7 45.5q6 26 -3 49.5t-30 27.5q-58 12 -112 -50
q-104 -121 -169 -225q-50 -80 -96 -191q-5 -12 -19 -42.5t-22.5 -50.5t-15.5 -47t-5 -48q3 -31 32 -33t50 15q163 103 250 230q14 22 9 39q-1 4 -12 20q-52 74 38 144z" />
    <glyph glyph-name="o" unicode="&#xf5;" horiz-adv-x="811" 
d="M868 603q16 -11 7 -42q-5 -16 -27 -42q-32 -39 -76 -78q-79 -71 -160 -105q-8 -3 -55.5 -21.5t-71.5 -31.5q-56 -31 -125 -102q-45 -47 -74 -73.5t-77 -56t-96 -39.5q-71 -15 -122 24q-47 35 -55 100q-7 61 10 120.5t52 133.5q92 193 218 312q207 197 338 97
q33 -25 38.5 -72.5t-4.5 -85.5q-4 -26 -34 -162q-1 -4 -3.5 -20t-5.5 -30t-7.5 -29.5t-12 -25.5t-16.5 -11q129 15 263 161l36 39q22 26 39 37q12 8 21 3zM421 504q26 20 35.5 27.5t27 25t23.5 30.5t12 33.5t7 45.5q6 26 -3 49.5t-30 27.5q-58 12 -112 -50
q-104 -121 -169 -225q-50 -80 -96 -191q-5 -12 -19 -42.5t-22.5 -50.5t-15.5 -47t-5 -48q3 -31 32 -33t50 15q163 103 250 230q14 22 9 39q-1 4 -12 20q-52 74 38 144z" />
    <glyph glyph-name="o" unicode="&#xf4;" horiz-adv-x="811" 
d="M868 603q16 -11 7 -42q-5 -16 -27 -42q-32 -39 -76 -78q-79 -71 -160 -105q-8 -3 -55.5 -21.5t-71.5 -31.5q-56 -31 -125 -102q-45 -47 -74 -73.5t-77 -56t-96 -39.5q-71 -15 -122 24q-47 35 -55 100q-7 61 10 120.5t52 133.5q92 193 218 312q207 197 338 97
q33 -25 38.5 -72.5t-4.5 -85.5q-4 -26 -34 -162q-1 -4 -3.5 -20t-5.5 -30t-7.5 -29.5t-12 -25.5t-16.5 -11q129 15 263 161l36 39q22 26 39 37q12 8 21 3zM421 504q26 20 35.5 27.5t27 25t23.5 30.5t12 33.5t7 45.5q6 26 -3 49.5t-30 27.5q-58 12 -112 -50
q-104 -121 -169 -225q-50 -80 -96 -191q-5 -12 -19 -42.5t-22.5 -50.5t-15.5 -47t-5 -48q3 -31 32 -33t50 15q163 103 250 230q14 22 9 39q-1 4 -12 20q-52 74 38 144z" />
    <glyph glyph-name="o" unicode="&#xf3;" horiz-adv-x="811" 
d="M868 603q16 -11 7 -42q-5 -16 -27 -42q-32 -39 -76 -78q-79 -71 -160 -105q-8 -3 -55.5 -21.5t-71.5 -31.5q-56 -31 -125 -102q-45 -47 -74 -73.5t-77 -56t-96 -39.5q-71 -15 -122 24q-47 35 -55 100q-7 61 10 120.5t52 133.5q92 193 218 312q207 197 338 97
q33 -25 38.5 -72.5t-4.5 -85.5q-4 -26 -34 -162q-1 -4 -3.5 -20t-5.5 -30t-7.5 -29.5t-12 -25.5t-16.5 -11q129 15 263 161l36 39q22 26 39 37q12 8 21 3zM421 504q26 20 35.5 27.5t27 25t23.5 30.5t12 33.5t7 45.5q6 26 -3 49.5t-30 27.5q-58 12 -112 -50
q-104 -121 -169 -225q-50 -80 -96 -191q-5 -12 -19 -42.5t-22.5 -50.5t-15.5 -47t-5 -48q3 -31 32 -33t50 15q163 103 250 230q14 22 9 39q-1 4 -12 20q-52 74 38 144z" />
    <glyph glyph-name="o" unicode="&#xf2;" horiz-adv-x="811" 
d="M868 603q16 -11 7 -42q-5 -16 -27 -42q-32 -39 -76 -78q-79 -71 -160 -105q-8 -3 -55.5 -21.5t-71.5 -31.5q-56 -31 -125 -102q-45 -47 -74 -73.5t-77 -56t-96 -39.5q-71 -15 -122 24q-47 35 -55 100q-7 61 10 120.5t52 133.5q92 193 218 312q207 197 338 97
q33 -25 38.5 -72.5t-4.5 -85.5q-4 -26 -34 -162q-1 -4 -3.5 -20t-5.5 -30t-7.5 -29.5t-12 -25.5t-16.5 -11q129 15 263 161l36 39q22 26 39 37q12 8 21 3zM421 504q26 20 35.5 27.5t27 25t23.5 30.5t12 33.5t7 45.5q6 26 -3 49.5t-30 27.5q-58 12 -112 -50
q-104 -121 -169 -225q-50 -80 -96 -191q-5 -12 -19 -42.5t-22.5 -50.5t-15.5 -47t-5 -48q3 -31 32 -33t50 15q163 103 250 230q14 22 9 39q-1 4 -12 20q-52 74 38 144z" />
    <glyph glyph-name="p" unicode="p" horiz-adv-x="1110" 
d="M1309 1369q9 -5 9 -12q0 -8 -15 -17q-35 -17 -66 -22q-20 -4 -25 -9q-11 -9 -13 -43q-1 -28 -13 -58q-13 -35 -38 -44q-19 -7 -38.5 4t-28.5 31q-13 29 -5 82q-50 -24 -88 -65q-31 -33 -79 -105q-67 -101 -148 -240q-19 -33 -57 -101q-2 -3 -10 -16t-12.5 -22t-5.5 -17
q5 6 14.5 15.5t38 34.5t56.5 44t64.5 36t67.5 19q43 3 65 -29t20 -78q-1 -38 -17 -80t-32.5 -70t-44.5 -69q-81 -121 -137 -195q-98 -128 -135 -196q-22 -39 -2 -56q7 -5 19 -7q27 -2 63 24q47 34 111 106q141 160 305 423q7 11 15 16q12 8 20 -1q6 -6 2 -21
q-13 -57 -68 -140q-60 -92 -139 -192q-92 -115 -169 -179q-72 -59 -134 -68q-32 -5 -61 4.5t-46 33.5q-20 29 -18 66t22 67q29 44 122 163t152 205.5t49 111.5q-4 11 -14.5 14t-26 -3.5t-32 -15.5t-37.5 -25.5t-37.5 -30t-37 -32.5t-31.5 -29.5t-25 -24.5l-14 -13
q-27 -26 -57.5 -61.5t-51 -62.5t-53 -71t-48.5 -65q-66 -85 -165 -233q-18 -28 -74 -112.5t-83.5 -125.5t-73.5 -106t-86 -117q-80 -102 -123 -151q-285 -327 -553 -420q-75 -26 -159.5 -36t-170.5 -1.5t-160 51.5t-114 117q-41 70 -27.5 150.5t82.5 125.5q23 18 65 13.5
t49 -36.5q5 -22 -15 -46.5t-44 -37.5q-52 -28 -66 -47q-8 -11 -11 -23q-7 -29 14 -65q67 -112 266 -116q126 -3 246 43t201 102t182 174t147 183t139 205l1 1q187 281 722 1102q52 80 81 122t80 107.5t102.5 112.5t108.5 83q163 103 322 71q8 -2 12 -4zM1157 1234
q5 16 1.5 29.5t-13.5 15.5q-9 2 -18.5 -8t-14.5 -27q-4 -17 -1 -30t12 -15t19.5 8.5t14.5 26.5z" />
    <glyph glyph-name="q" unicode="q" horiz-adv-x="1191" 
d="M1281 677q19 3 24 -14q1 -6 -1 -13t-4.5 -12t-8.5 -13.5t-7 -10.5q-13 -21 -34 -47q-5 -7 -17 -21.5t-17 -21.5q-57 -68 -106 -119q-51 -53 -118 -108q-68 -57 -126 -96q-208 -144 -390 -130q18 -57 22 -81q32 -154 -37 -379q-74 -240 -128 -344q-47 -91 -101 -149
t-134 -69q-57 -8 -100 12t-63.5 57t-26.5 85.5t13 98.5q68 206 205 455q31 56 95 166q11 19 36.5 54t42 65t22.5 61q-36 -17 -57 -24.5t-52 -6.5t-55 22q-29 25 -44 65.5t-12 79.5q7 96 72 225q85 169 235 322q21 22 44.5 41.5t53.5 40t58.5 30.5t56 10t51 -19.5t37.5 -59.5
q1 -4 6 -18.5t8 -22.5q11 -24 29 -29q31 -10 64 14.5t71 75t43 55.5q158 162 256 252q3 3 21.5 20.5t24 22t23.5 18.5t28 18t29 11.5t34.5 7.5t37 -2.5t44.5 -10.5q-67 -37 -129.5 -81.5t-114.5 -88.5t-105.5 -101t-93.5 -104t-87 -113.5t-79 -114.5t-76.5 -122t-71 -121
t-71.5 -126t-70 -123q77 -20 158 13l-2 -1q13 3 37 13q41 18 91 49q69 44 138 103q79 68 175 176q43 48 100 121q18 22 26 34q8 10 12 14q8 8 15 9zM453 -158q0 50 -10 75q-7 16 -15 29q-11 17 -10 19q-19 -31 -57.5 -92.5t-56.5 -92.5q-43 -70 -108 -189q-2 -5 -33.5 -62
t-53.5 -98.5t-51 -99t-46 -99.5t-19 -62q-3 -26 13.5 -43t43.5 -20q50 -7 95 16t75 58t59 92.5t43.5 96t33.5 92.5l6 18q44 126 69 225q1 1 1 3.5t1 3.5q19 73 20 130zM436 310q80 98 181 281.5t17 205.5q-22 6 -43 -2.5t-40.5 -30.5t-31 -37.5t-26.5 -39.5q-3 -6 -5 -8
q-24 -38 -76 -113t-91 -137t-67 -121q-1 -1 -6 -12t-7 -15.5t-7 -15.5t-6.5 -17.5t-5 -17t-3.5 -17.5v-16t2.5 -16t6.5 -13q7 -9 11 -11q55 -32 188 141q5 6 7 9q0 1 1 1z" />
    <glyph glyph-name="r" unicode="r" horiz-adv-x="811" 
d="M812 598q7 -4 8.5 -10t-3 -13t-9 -12.5t-12 -12.5t-8.5 -8q-29 -30 -60 -53q-74 -54 -149 -44q-36 6 -68 27q-50 32 -75 15q-52 -34 -96 -84.5t-97 -127.5t-75 -105q-8 -10 -27 -35t-30 -39t-29 -33t-34 -32q-60 -48 -105 -11q-7 6 -9.5 13.5t-0.5 17t5.5 18.5t10 19.5
t11 17.5t11 16.5t8.5 11.5q27 42 83.5 116.5t69.5 93.5q67 94 78 115q23 42 24 67q1 18 -10 34t-28 14q-21 -3 -44 -35q-36 -48 -44 -60q-43 -66 -53 -72q-9 -5 -17 2t-9 16q-2 19 48 108q16 28 26 40q39 56 87 56q29 0 58 -17q35 -21 42 -54.5t0 -84t-6 -69.5q0 2 10 12
q9 9 32.5 31t35.5 35q33 34 57 78q7 12 46 88.5t67 111.5q14 17 37.5 37t53 39t57 18.5t41.5 -28.5q7 -10 5 -22.5t-4.5 -22.5t-12.5 -22.5t-18 -21t-21 -19.5t-21.5 -18t-20 -16t-16.5 -13q-39 -32 -58 -62q-12 -18 -15.5 -25t-10.5 -23.5t-4.5 -29t13.5 -23.5
q54 -56 140 -4q24 15 66 51q5 4 15 12.5t15 12.5q24 22 34 20q3 0 5 -2z" />
    <glyph glyph-name="s" unicode="s" 
d="M724 604q10 4 17 3q18 -2 31 -12.5t4 -26.5q-21 -38 -138 -182.5t-171 -201.5q-65 -70 -129 -113.5t-144 -63.5q-97 -24 -156 15q-63 42 -65 129q0 19 1 28q4 48 24.5 94.5t55.5 64.5q7 4 13 5q22 7 47 -5q4 -2 14 -10.5t15 -11.5q212 272 224 297q0 7 -1 10
q-22 81 41 160q27 34 68 60.5t73 12.5q21 -10 19 -33q-1 -9 -5 -15.5t-14.5 -16.5t-11.5 -11q-19 -20 -37 -50q-37 -61 -54 -180q-3 -21 -11.5 -86t-14.5 -100q-10 -62 -17 -92q-3 -12 -14 -39.5t-14 -42.5q0 3 7 10q3 4 11 12.5t11 12.5q17 20 52 62t52 62l126 150
q51 60 67 83q14 18 24 22zM173 120q85 66 153.5 206t62.5 237q0 -2 -2.5 -6t-6.5 -8t-4 -5q-2 -3 -7 -9.5t-8 -10.5q-5 -7 -15 -20.5t-15 -20.5q-39 -52 -199 -250q-17 -20 -49 -62q-31 -42 -36 -49q-14 -23 -15 -30q0 -3 1 -5q12 -18 37 -19.5t41 9.5q39 21 62 43z" />
    <glyph glyph-name="t" unicode="t" 
d="M1510 1314q17 -1 30 -12.5t13 -28.5q0 -14 -10 -27q-16 -21 -63.5 -61t-64.5 -70q-1 -2 -4 -7.5t-4.5 -8t-5 -7t-6 -7t-5.5 -5t-7 -4t-8 -1.5q-8 20 -29 28.5t-43 5.5q-67 -9 -137 -13t-172.5 -5.5t-137.5 -2.5q-13 -1 -26 0t-28 -1t-24 -7q-32 -17 -61 -67
q-156 -282 -281 -467q-24 -35 -72.5 -105.5t-72.5 -106.5q-11 -17 -35.5 -50t-39 -54.5t-32.5 -52t-29 -56.5q-14 -38 -2 -54q12 -17 36 -11q30 6 73 35q32 22 60.5 45.5t62 61t47 52.5t55.5 67.5t47 58.5q28 35 104 137q0 1 1 2l2 2q19 31 42 60q9 12 19 22q12 12 20 11
q13 -2 11 -17q-1 -6 -10 -25q-8 -16 -13 -24q-4 -8 -13.5 -23.5t-14.5 -22.5q-1 -2 -3 -4q-33 -58 -149 -201q-2 -3 -8 -10t-8 -10q-43 -55 -66.5 -83t-64.5 -69t-81 -68q-38 -26 -77 -39.5t-82 -6.5t-71 44q-25 33 -27.5 74.5t10.5 78.5t37 71q46 67 94.5 135t106.5 146
t95 127.5t109 144t99 131.5q56 74 84 112q11 14 10 18q0 1 -2 5q-2 3 -29 15q-22 8 -60 12q-161 19 -276 23q-182 6 -264 -7q-126 -21 -198 -94q-24 -24 -37 -29q-11 -5 -23.5 -1t-16.5 15q-6 19 19 40q79 71 198 102q91 24 222 24q207 0 486 -44q8 -1 16 2.5t16 12.5
t13.5 15.5t13 17.5t8.5 13q5 8 18 29.5t24 36t24 23.5q18 13 33 -2q5 -5 6.5 -10t1.5 -9.5t-3 -10.5l-4.5 -9t-6.5 -10t-6 -9q-53 -77 -64 -101q16 -3 35 -3t44 1t36 1q41 -1 124 -1q143 0 248 18q85 14 123 63q8 10 21 32.5t21 32.5q25 32 59 31z" />
    <glyph glyph-name="u" unicode="u" horiz-adv-x="1046" 
d="M1103 605q9 -3 11 -11.5t-3 -21t-11.5 -24.5t-16.5 -26t-15 -20.5t-11 -13.5q-14 -17 -39 -49t-31 -40q-9 -11 -47 -61t-54.5 -71t-47 -57t-56.5 -63q-103 -111 -190 -135q-42 -12 -84.5 2t-67.5 50q-6 8 -21.5 49t-33.5 51q-6 3 -12.5 4t-12 0.5t-12 -4t-10.5 -5.5
t-11 -8.5t-9.5 -9t-9.5 -10t-8 -8.5q-10 -12 -16 -18q-85 -85 -154 -115q-78 -34 -139 3q-27 17 -45 48q-32 55 12 178.5t121 246t158.5 222t120.5 116.5q21 8 53.5 7t50.5 -9q50 -23 14 -85q-57 -99 -191 -275t-188 -268q-88 -146 -14 -134q68 10 166 121q85 94 259 331
q54 74 130 173q8 10 27.5 37t32 43.5t32.5 35.5t39 28q32 15 81 6q67 -12 68 -42q0 -18 -9 -38t-17.5 -31t-25.5 -31q-51 -59 -79 -99q-28 -42 -80.5 -116.5t-94.5 -137t-75 -119.5q-12 -20 -19.5 -41t-10 -43t9.5 -35.5t39 -12.5q32 1 77 31t89 72.5t98.5 106.5t95 115.5
t89.5 117.5q3 4 9.5 14t10.5 15q3 4 14 20t18.5 25t20 16t24.5 3h1z" />
    <glyph glyph-name="u" unicode="&#xfc;" horiz-adv-x="1046" 
d="M1103 605q9 -3 11 -11.5t-3 -21t-11.5 -24.5t-16.5 -26t-15 -20.5t-11 -13.5q-14 -17 -39 -49t-31 -40q-9 -11 -47 -61t-54.5 -71t-47 -57t-56.5 -63q-103 -111 -190 -135q-42 -12 -84.5 2t-67.5 50q-6 8 -21.5 49t-33.5 51q-6 3 -12.5 4t-12 0.5t-12 -4t-10.5 -5.5
t-11 -8.5t-9.5 -9t-9.5 -10t-8 -8.5q-10 -12 -16 -18q-85 -85 -154 -115q-78 -34 -139 3q-27 17 -45 48q-32 55 12 178.5t121 246t158.5 222t120.5 116.5q21 8 53.5 7t50.5 -9q50 -23 14 -85q-57 -99 -191 -275t-188 -268q-88 -146 -14 -134q68 10 166 121q85 94 259 331
q54 74 130 173q8 10 27.5 37t32 43.5t32.5 35.5t39 28q32 15 81 6q67 -12 68 -42q0 -18 -9 -38t-17.5 -31t-25.5 -31q-51 -59 -79 -99q-28 -42 -80.5 -116.5t-94.5 -137t-75 -119.5q-12 -20 -19.5 -41t-10 -43t9.5 -35.5t39 -12.5q32 1 77 31t89 72.5t98.5 106.5t95 115.5
t89.5 117.5q3 4 9.5 14t10.5 15q3 4 14 20t18.5 25t20 16t24.5 3h1z" />
    <glyph glyph-name="u" unicode="&#xfb;" horiz-adv-x="1046" 
d="M1103 605q9 -3 11 -11.5t-3 -21t-11.5 -24.5t-16.5 -26t-15 -20.5t-11 -13.5q-14 -17 -39 -49t-31 -40q-9 -11 -47 -61t-54.5 -71t-47 -57t-56.5 -63q-103 -111 -190 -135q-42 -12 -84.5 2t-67.5 50q-6 8 -21.5 49t-33.5 51q-6 3 -12.5 4t-12 0.5t-12 -4t-10.5 -5.5
t-11 -8.5t-9.5 -9t-9.5 -10t-8 -8.5q-10 -12 -16 -18q-85 -85 -154 -115q-78 -34 -139 3q-27 17 -45 48q-32 55 12 178.5t121 246t158.5 222t120.5 116.5q21 8 53.5 7t50.5 -9q50 -23 14 -85q-57 -99 -191 -275t-188 -268q-88 -146 -14 -134q68 10 166 121q85 94 259 331
q54 74 130 173q8 10 27.5 37t32 43.5t32.5 35.5t39 28q32 15 81 6q67 -12 68 -42q0 -18 -9 -38t-17.5 -31t-25.5 -31q-51 -59 -79 -99q-28 -42 -80.5 -116.5t-94.5 -137t-75 -119.5q-12 -20 -19.5 -41t-10 -43t9.5 -35.5t39 -12.5q32 1 77 31t89 72.5t98.5 106.5t95 115.5
t89.5 117.5q3 4 9.5 14t10.5 15q3 4 14 20t18.5 25t20 16t24.5 3h1z" />
    <glyph glyph-name="u" unicode="&#xfa;" horiz-adv-x="1046" 
d="M1103 605q9 -3 11 -11.5t-3 -21t-11.5 -24.5t-16.5 -26t-15 -20.5t-11 -13.5q-14 -17 -39 -49t-31 -40q-9 -11 -47 -61t-54.5 -71t-47 -57t-56.5 -63q-103 -111 -190 -135q-42 -12 -84.5 2t-67.5 50q-6 8 -21.5 49t-33.5 51q-6 3 -12.5 4t-12 0.5t-12 -4t-10.5 -5.5
t-11 -8.5t-9.5 -9t-9.5 -10t-8 -8.5q-10 -12 -16 -18q-85 -85 -154 -115q-78 -34 -139 3q-27 17 -45 48q-32 55 12 178.5t121 246t158.5 222t120.5 116.5q21 8 53.5 7t50.5 -9q50 -23 14 -85q-57 -99 -191 -275t-188 -268q-88 -146 -14 -134q68 10 166 121q85 94 259 331
q54 74 130 173q8 10 27.5 37t32 43.5t32.5 35.5t39 28q32 15 81 6q67 -12 68 -42q0 -18 -9 -38t-17.5 -31t-25.5 -31q-51 -59 -79 -99q-28 -42 -80.5 -116.5t-94.5 -137t-75 -119.5q-12 -20 -19.5 -41t-10 -43t9.5 -35.5t39 -12.5q32 1 77 31t89 72.5t98.5 106.5t95 115.5
t89.5 117.5q3 4 9.5 14t10.5 15q3 4 14 20t18.5 25t20 16t24.5 3h1z" />
    <glyph glyph-name="u" unicode="&#xf9;" horiz-adv-x="1046" 
d="M1103 605q9 -3 11 -11.5t-3 -21t-11.5 -24.5t-16.5 -26t-15 -20.5t-11 -13.5q-14 -17 -39 -49t-31 -40q-9 -11 -47 -61t-54.5 -71t-47 -57t-56.5 -63q-103 -111 -190 -135q-42 -12 -84.5 2t-67.5 50q-6 8 -21.5 49t-33.5 51q-6 3 -12.5 4t-12 0.5t-12 -4t-10.5 -5.5
t-11 -8.5t-9.5 -9t-9.5 -10t-8 -8.5q-10 -12 -16 -18q-85 -85 -154 -115q-78 -34 -139 3q-27 17 -45 48q-32 55 12 178.5t121 246t158.5 222t120.5 116.5q21 8 53.5 7t50.5 -9q50 -23 14 -85q-57 -99 -191 -275t-188 -268q-88 -146 -14 -134q68 10 166 121q85 94 259 331
q54 74 130 173q8 10 27.5 37t32 43.5t32.5 35.5t39 28q32 15 81 6q67 -12 68 -42q0 -18 -9 -38t-17.5 -31t-25.5 -31q-51 -59 -79 -99q-28 -42 -80.5 -116.5t-94.5 -137t-75 -119.5q-12 -20 -19.5 -41t-10 -43t9.5 -35.5t39 -12.5q32 1 77 31t89 72.5t98.5 106.5t95 115.5
t89.5 117.5q3 4 9.5 14t10.5 15q3 4 14 20t18.5 25t20 16t24.5 3h1z" />
    <glyph glyph-name="v" unicode="v" horiz-adv-x="1015" 
d="M1126 689q4 -5 -4 -15q-1 -1 -11 -14q-38 -50 -98 -90q-59 -40 -120 -57q-67 -18 -125 -10q-17 2 -34 -5.5t-26.5 -16t-27 -27t-22.5 -23.5q-164 -156 -284 -247q-95 -72 -175 -121q-203 -125 -274 -4q-8 14 -8.5 34.5t4 39t16 44t19 40t21 39t16.5 29.5q48 88 197 321
l63 99q19 31 32.5 50.5t37 42.5t48.5 34q17 8 41.5 11t48.5 0.5t41 -17t17 -38.5q0 -22 -19 -50q-245 -378 -364 -551q-8 -12 -20.5 -34t-17.5 -30q6 10 20.5 17.5t34 14t26.5 9.5q55 27 109 63q279 177 390 360q14 23 31.5 73t31.5 87t45 68.5t73 34.5q39 3 55.5 -13
t12 -42t-15 -51t-24.5 -45q-2 -3 -10 -13q-95 -126 -56 -127q73 -1 137.5 36t105.5 96q12 17 47 6q6 -1 11 -4q3 -1 4 -4z" />
    <glyph glyph-name="w" unicode="w" horiz-adv-x="1542" 
d="M1656 683q8 -11 -15 -31q-5 -5 -13.5 -14t-11.5 -12q-31 -31 -47 -46q-46 -43 -60 -55q-109 -88 -240 -88q-11 0 -61 6.5t-61 -0.5q-54 -12 -112 -84q-99 -125 -185 -199q-65 -55 -125 -85t-126 -25q-103 8 -161 133q-12 25 -19 32t-14.5 3t-25.5 -22l-10 -10
q-188 -186 -326 -187q-46 -1 -76 18.5t-41 51t-14 70.5t6 77q13 73 44 144.5t79.5 140t91 119.5t104.5 117q53 57 74 71q44 32 100 25q80 -10 85 -43q5 -41 -37 -92q-26 -32 -108.5 -130.5t-126.5 -153.5q-8 -10 -40.5 -49.5t-52.5 -65.5t-38 -53q-69 -102 -71 -142
q-1 -30 29 -33q15 -1 37 10q88 45 159.5 112.5t159.5 170.5q222 258 332 388q9 11 26.5 31.5t26.5 30.5q54 64 165 16q27 -12 28.5 -39.5t-17.5 -48.5q-203 -251 -257 -314q-108 -125 -126 -241q-6 -37 6.5 -63.5t48.5 -20.5q44 8 88 32t91.5 68.5t70 69t68.5 76.5
q85 98 132 174q20 32 45.5 102t56.5 117t84 71q49 22 78 2q41 -29 -12 -93q-59 -72 -110 -147q-34 -46 -14 -72q4 -6 10 -10t14 -5t15 -1.5t17 1t15.5 2.5t16 3t13.5 3q74 17 135 61t125 114q14 15 38.5 21t38.5 -9z" />
    <glyph glyph-name="x" unicode="x" horiz-adv-x="1306" 
d="M1407 598q22 -5 22 -12q0 -2 -2 -5q-176 -268 -391 -442q-145 -118 -254 -144q-161 -40 -286 152q-2 3 -10.5 0t-20.5 -11t-22 -15.5t-21 -16.5l-10 -8q-59 -42 -126 -65.5t-141.5 -15t-123.5 61.5q-37 39 -50 99.5t1 112.5q13 56 65 99t103 12q31 -19 34.5 -53
t-15.5 -63q-20 -36 -42 -53q-4 -4 -13.5 -11t-14 -10.5t-10 -11.5t-7.5 -17q-13 -46 16 -68q44 -35 93 -6q53 31 99 72t87.5 94t68 93t67.5 106q5 8 20 31.5t22 35t18 31.5t18.5 37.5t12.5 36.5q25 90 -6 125t-120 15q-64 -15 -135.5 -59.5t-112.5 -81t-109 -101.5
q-105 -100 -125 -83q-13 12 20 57q8 12 19 23q109 119 214.5 199t225.5 112q45 14 88.5 10.5t77.5 -18.5t54.5 -51.5t20.5 -88.5v-114q14 16 58 65t63.5 69.5t54.5 51.5t69 51q49 28 104.5 11.5t86.5 -62.5q62 -91 -28 -215q-32 -45 -66 -45q-20 0 -34.5 16t-20.5 38
q-12 41 16 91q4 7 14.5 24t17 30t8.5 26q4 21 -13 27t-34 -1q-31 -9 -58.5 -25.5t-52.5 -43.5t-40.5 -46t-41.5 -55.5t-37 -50.5q-130 -169 -180 -334q-24 -81 23 -120q80 -67 184 -24q105 44 213 140q77 68 183 180q64 68 93 102q1 1 3 4q4 4 6 7q8 10 24.5 29.5t24.5 28.5
l24 30q12 17 37 11z" />
    <glyph glyph-name="y" unicode="y" 
d="M1187 1221q7 -8 7.5 -15t-1.5 -9.5t-9.5 -8.5t-8.5 -7q-38 -35 -113 -96q-101 -81 -173.5 -195t-139.5 -266q-29 -65 -128.5 -296t-95.5 -230q140 13 236 -75.5t107 -230.5q11 -146 -67.5 -281t-206.5 -231q-137 -103 -271 -127q-171 -31 -237 6q-25 14 -15 25q3 4 12 4
q22 1 61 -0.5t55 -1.5q115 1 224 50.5t190 130t132 189t55 222.5q2 54 -17 105t-50.5 88.5t-72.5 58t-82.5 20t-82.5 -32t-70 -91.5q-59 -123 -267 -438.5t-306 -403.5q-93 -83 -158 -88q-39 -4 -70.5 20.5t-49.5 63.5q-67 147 101 395q2 4 7 10.5t7 9.5q136 185 290 326
q101 93 213 171l39 26t49 34t36 29q35 31 59.5 74.5t28.5 88.5q-34 -38 -56.5 -60t-60.5 -47t-76 -32q-42 -8 -75 8.5t-34 58.5q-1 27 2.5 55.5t8 51t16.5 53.5t19 48t25 50t25 45.5t28.5 49t26.5 45.5q112 189 19 206h-2q-2 1 -3 1h-3h-2q-8 0 -20 -6h-1q-63 -28 -185 -165
q-7 -8 -20.5 -28t-22.5 -29q-10 -10 -26 -3q-19 9 -18 20q1 7 15 26q4 5 10.5 15t8.5 13q20 30 44 62q8 11 24 31q27 34 53 57q100 90 177 71q51 -12 80.5 -63t32.5 -109q6 -152 -129 -343q-122 -172 -70 -164q32 5 95 56q2 1 3 2q48 45 107 115q20 24 41 51.5t36 48
t38 55.5t33 50.5t36.5 57t33.5 52.5q188 296 372 470q18 17 38.5 33.5t50.5 38.5t41 31q25 20 47 -2zM1 -557q136 229 294 560q-57 -32 -58 -33q-185 -142 -325 -286.5t-234 -311.5q-73 -130 -59 -218q6 -35 23.5 -66t45.5 -34q32 -3 70 26t76.5 84t66.5 101t61 107t39 71z
" />
    <glyph glyph-name="y" unicode="&#xff;" 
d="M1187 1221q7 -8 7.5 -15t-1.5 -9.5t-9.5 -8.5t-8.5 -7q-38 -35 -113 -96q-101 -81 -173.5 -195t-139.5 -266q-29 -65 -128.5 -296t-95.5 -230q140 13 236 -75.5t107 -230.5q11 -146 -67.5 -281t-206.5 -231q-137 -103 -271 -127q-171 -31 -237 6q-25 14 -15 25q3 4 12 4
q22 1 61 -0.5t55 -1.5q115 1 224 50.5t190 130t132 189t55 222.5q2 54 -17 105t-50.5 88.5t-72.5 58t-82.5 20t-82.5 -32t-70 -91.5q-59 -123 -267 -438.5t-306 -403.5q-93 -83 -158 -88q-39 -4 -70.5 20.5t-49.5 63.5q-67 147 101 395q2 4 7 10.5t7 9.5q136 185 290 326
q101 93 213 171l39 26t49 34t36 29q35 31 59.5 74.5t28.5 88.5q-34 -38 -56.5 -60t-60.5 -47t-76 -32q-42 -8 -75 8.5t-34 58.5q-1 27 2.5 55.5t8 51t16.5 53.5t19 48t25 50t25 45.5t28.5 49t26.5 45.5q112 189 19 206h-2q-2 1 -3 1h-3h-2q-8 0 -20 -6h-1q-63 -28 -185 -165
q-7 -8 -20.5 -28t-22.5 -29q-10 -10 -26 -3q-19 9 -18 20q1 7 15 26q4 5 10.5 15t8.5 13q20 30 44 62q8 11 24 31q27 34 53 57q100 90 177 71q51 -12 80.5 -63t32.5 -109q6 -152 -129 -343q-122 -172 -70 -164q32 5 95 56q2 1 3 2q48 45 107 115q20 24 41 51.5t36 48
t38 55.5t33 50.5t36.5 57t33.5 52.5q188 296 372 470q18 17 38.5 33.5t50.5 38.5t41 31q25 20 47 -2zM1 -557q136 229 294 560q-57 -32 -58 -33q-185 -142 -325 -286.5t-234 -311.5q-73 -130 -59 -218q6 -35 23.5 -66t45.5 -34q32 -3 70 26t76.5 84t66.5 101t61 107t39 71z
" />
    <glyph glyph-name="y" unicode="&#xfd;" 
d="M1187 1221q7 -8 7.5 -15t-1.5 -9.5t-9.5 -8.5t-8.5 -7q-38 -35 -113 -96q-101 -81 -173.5 -195t-139.5 -266q-29 -65 -128.5 -296t-95.5 -230q140 13 236 -75.5t107 -230.5q11 -146 -67.5 -281t-206.5 -231q-137 -103 -271 -127q-171 -31 -237 6q-25 14 -15 25q3 4 12 4
q22 1 61 -0.5t55 -1.5q115 1 224 50.5t190 130t132 189t55 222.5q2 54 -17 105t-50.5 88.5t-72.5 58t-82.5 20t-82.5 -32t-70 -91.5q-59 -123 -267 -438.5t-306 -403.5q-93 -83 -158 -88q-39 -4 -70.5 20.5t-49.5 63.5q-67 147 101 395q2 4 7 10.5t7 9.5q136 185 290 326
q101 93 213 171l39 26t49 34t36 29q35 31 59.5 74.5t28.5 88.5q-34 -38 -56.5 -60t-60.5 -47t-76 -32q-42 -8 -75 8.5t-34 58.5q-1 27 2.5 55.5t8 51t16.5 53.5t19 48t25 50t25 45.5t28.5 49t26.5 45.5q112 189 19 206h-2q-2 1 -3 1h-3h-2q-8 0 -20 -6h-1q-63 -28 -185 -165
q-7 -8 -20.5 -28t-22.5 -29q-10 -10 -26 -3q-19 9 -18 20q1 7 15 26q4 5 10.5 15t8.5 13q20 30 44 62q8 11 24 31q27 34 53 57q100 90 177 71q51 -12 80.5 -63t32.5 -109q6 -152 -129 -343q-122 -172 -70 -164q32 5 95 56q2 1 3 2q48 45 107 115q20 24 41 51.5t36 48
t38 55.5t33 50.5t36.5 57t33.5 52.5q188 296 372 470q18 17 38.5 33.5t50.5 38.5t41 31q25 20 47 -2zM1 -557q136 229 294 560q-57 -32 -58 -33q-185 -142 -325 -286.5t-234 -311.5q-73 -130 -59 -218q6 -35 23.5 -66t45.5 -34q32 -3 70 26t76.5 84t66.5 101t61 107t39 71z
" />
    <glyph glyph-name="z" unicode="z" horiz-adv-x="782" 
d="M767 -61q72 -123 25 -271q-31 -100 -106 -184.5t-170 -138.5q-113 -64 -365 -147l-1 -2q-80 -108 -189 -168q-53 -29 -115.5 -39.5t-124.5 11t-90 79.5q-22 51 -18 104t31 101q21 40 18 55q-3 10 -11 17q-15 12 -50 21.5t-59 10.5q-61 3 -119 -22.5t-97 -74.5
q-53 -66 -61 -159q-11 -113 9 -121q-58 22 -79 72.5t-9 105t46 102.5q57 86 156 128q65 27 144 19q18 -2 67 -14t76 -11q21 0 41 11.5t30.5 22.5t31.5 34q129 145 260 268.5t200.5 178t107.5 78.5q15 14 12 41.5t-18 55t-30 27.5q-11 0 -23.5 -5t-20.5 -10.5t-21.5 -15.5
t-19.5 -14q-23 -15 -46.5 -17t-41.5 17q-10 15 -8 34t13 34q5 7 12.5 14t12.5 10t16.5 10.5t14.5 9.5q106 67 182.5 172.5t110.5 230.5q23 80 -14 113q-61 56 -169 -55q-29 -30 -63 -64t-75 -74.5t-63 -62.5q-3 -3 -13.5 -14t-14.5 -14.5t-14 -11.5t-16.5 -11.5t-17 -7
t-20.5 -3.5q-3 0 -5 1q-3 1 -3.5 5.5t1.5 7.5q4 11 15 27q51 81 135 181q112 133 216 182q92 44 154 8q58 -34 84 -109q42 -123 -5 -251.5t-148 -223.5l45 -168q1 -3 6 -4.5t13 -0.5t15 2.5l14 3t9 1.5q61 5 119.5 -28.5t90.5 -89.5zM-201 -602q-30 -37 14 -53
q163 -64 180 -63q8 0 16.5 5.5t13.5 11t12 14.5t8 10q81 95 197 301q27 46 81.5 171.5t34.5 130.5q-3 0 -4 -1l-1 -1l-1 -1q-104 -60 -152 -97q-61 -46 -126 -111q-34 -34 -73 -78t-65 -75t-70.5 -85t-64.5 -79zM-316 -919q17 -17 66 -5q48 12 82 29q56 29 81 54
q44 44 31 61q-3 4 -9 6q-102 45 -194 80q-2 1 -19.5 -28.5t-21.5 -38.5q-9 -17 -16 -36t-12.5 -43t-3 -45t15.5 -34zM737 -335q61 158 -34 260q-36 39 -88.5 50.5t-97.5 -17.5q2 -11 3 -32t-9 -90.5t-35 -143.5t-88 -186t-156 -224q75 21 109 35q107 42 196 100
q59 38 115 105.5t85 142.5z" />
    <glyph glyph-name="nonbreakingspace" unicode="&#xa0;" horiz-adv-x="858" 
 />
    <glyph glyph-name="softhyphen" unicode="&#xad;" horiz-adv-x="0" 
 />
    </font>
</defs>
</svg>
