<?xml version="1.0" standalone="no"?>
<!DOCTYPE svg PUBLIC "-//W3C//DTD SVG 1.1//EN" "http://www.w3.org/Graphics/SVG/1.1/DTD/svg11.dtd" >
<svg xmlns="http://www.w3.org/2000/svg" xmlns:xlink="http://www.w3.org/1999/xlink" version="1.1">
<metadata>
Created by FontForge 20170731 at Fri Mar 19 12:11:43 2021
 By Aleksey,,,
Copyright 2015 Adobe Systems Incorporated. All rights reserved.
</metadata>
<defs>
<font id="Darleston" horiz-adv-x="1136" >
  <font-face 
    font-family="Darleston"
    font-weight="400"
    font-stretch="normal"
    units-per-em="2048"
    panose-1="2 0 0 0 0 0 0 0 0 0"
    ascent="1536"
    descent="-512"
    x-height="500.5"
    cap-height="1544"
    bbox="-678.83 -836.6 3086 1809.07"
    underline-thickness="102"
    underline-position="-307"
    unicode-range="U+0020-FB02"
  />
<missing-glyph horiz-adv-x="333" 
 />
    <glyph glyph-name="t_t" unicode="tt" horiz-adv-x="589" 
d="M983 901q14 5 14.5 1t-12.5 -11q-37 -15 -84 -23.5t-78 -10t-91 -2t-81 -1.5q-12 -21 -59.5 -103t-65 -112t-57 -100.5t-62 -113.5t-53 -102.5t-55.5 -113.5q-58 -141 -53 -154q24 -58 251 209q40 47 93 113q6 7 10 -1q2 -4 0 -9q-11 -13 -84 -104t-124.5 -146.5
t-106.5 -98.5q-16 -13 -36 -16.5t-38 4.5q-41 20 -27 90q13 80 70 205q-11 -13 -59 -71.5t-68.5 -81.5t-59.5 -62.5t-75 -67.5q-40 -28 -74 -12q-36 18 -27 90q2 15 6 31t7 28.5t10 30.5t10 27.5t12.5 30t12 27t13.5 30t13 27.5q20 44 45.5 94t43.5 84.5t52.5 95.5t47 82
t55 93.5t49.5 84.5q-143 0 -213 -14q-3 -1 -5 1t-2 5t3 4q83 25 234 29q104 175 278 444q15 22 41.5 11t20.5 -37q-40 -70 -123 -208.5t-123 -207.5q22 -1 61.5 -1t71.5 -1t61 -4q140 236 283 448q14 22 39.5 11t19.5 -37q-43 -76 -128 -219t-121 -205q20 0 77 -1t86 -0.5
t73.5 5.5t80.5 16zM279 352q116 244 278 504q-132 4 -195 4q-4 -8 -40.5 -70t-44 -75t-39 -67.5t-42.5 -75t-38 -68.5t-41.5 -76t-36 -69t-39.5 -77t-35 -73q-58 -142 -53 -154q3 -9 13.5 -11t19.5 3q47 28 86 65.5t95.5 106t70.5 84.5q7 8 20.5 24.5t20.5 24.5z" />
    <glyph glyph-name=".notdef" horiz-adv-x="333" 
 />
    <glyph glyph-name=".null" horiz-adv-x="0" 
 />
    <glyph glyph-name="nonmarkingreturn" horiz-adv-x="682" 
 />
    <glyph glyph-name="space" unicode=" " horiz-adv-x="333" 
 />
    <glyph glyph-name="exclam" unicode="!" horiz-adv-x="704" 
d="M786 1292l-75 -132t-76 -132q-53 -94 -183 -322.5t-198 -351.5q-1 -2 -6 -10.5t-8.5 -14.5t-9 -14.5t-10.5 -15t-10.5 -12.5t-10.5 -8.5t-9 -2.5q-11 1 -12 13t6.5 30t12.5 29t12 23q330 648 491 966q8 17 26.5 24.5t35.5 0.5q21 -7 28 -28.5t-4 -41.5zM145 35
q-9 -21 -31.5 -31t-43.5 0t-25.5 35t6.5 45q9 21 31.5 31t44.5 0q21 -10 25.5 -35t-7.5 -45z" />
    <glyph glyph-name="quotedbl" unicode="&#x22;" horiz-adv-x="387" 
d="M301 883q-9 -18 -21 -34.5t-31.5 -41t-25.5 -31.5q-29 -39 -37 -39q-11 0 2 51q25 90 50 127q13 16 30.5 16.5t29.5 -15t3 -33.5zM428 883q-9 -18 -21 -34.5t-31.5 -41t-25.5 -31.5q-29 -39 -37 -39q-11 0 2 51q25 90 50 127q13 16 30.5 16.5t29.5 -15t3 -33.5z" />
    <glyph glyph-name="numbersign" unicode="#" horiz-adv-x="1196" 
d="M1178 721q9 0 9 -9.5t-9 -9.5h-322q-46 -91 -119 -225h312q9 0 9 -9t-9 -9h-320q-34 -64 -203 -389q-2 -4 -8.5 -18t-11 -22t-11.5 -18t-16 -15t-20 -5q-26 0 -36.5 23.5t1.5 45.5q36 67 112 213t97 185h-234q-20 -37 -102.5 -194.5t-101.5 -194.5q-2 -3 -11 -20
t-15.5 -27.5t-17.5 -20.5t-22 -10q-28 0 -37.5 23.5t2.5 45.5q34 72 107.5 207.5t101.5 190.5q-303 0 -307 2q-11 4 -2 12q4 4 10 4h307q19 38 59.5 112.5t59.5 112.5q-299 0 -305 3q-5 2 -5 5.5t4 7t9 3.5h305q71 133 213 407q1 3 6 12.5t8 15t8 14.5t9.5 14t10.5 10.5
t12.5 7.5t13.5 2q26 -1 35.5 -23t-2.5 -44q-49 -96 -125.5 -241t-91.5 -175h233q156 289 215 407q9 20 16 33.5t21.5 28.5t28.5 14q27 -1 36 -23t-4 -44l-217 -416h314zM641 477q73 134 119 225h-234q-52 -96 -118 -225h233z" />
    <glyph glyph-name="dollar" unicode="$" horiz-adv-x="1171" 
d="M1098 1434q43 -45 54.5 -109t-11.5 -123q-21 -56 -69 -96.5t-109 -58.5q-57 -20 -115 -1.5t-84 74.5q-11 32 -4 33q4 2 7 -2.5t5 -12t4 -10.5q31 -60 84 -71q62 -11 118.5 24.5t88.5 94.5q33 57 37.5 115.5t-29.5 115.5q-35 52 -96.5 74t-126.5 14q-124 -18 -221 -115
q-90 -87 -105 -198q-16 -107 66 -213q28 -37 83.5 -101t90 -106t68.5 -106t45 -128q20 -110 -20.5 -216t-127.5 -181q-92 -79 -210 -111t-234 -6q-13 -30 -39 -90.5t-39 -89.5l-1 -2q-1 -3 -2 -5l-2.5 -5t-3 -4.5l-3.5 -3.5t-3.5 -2h-3.5q-5 3 3 28q16 35 43.5 102t31.5 76
q-64 12 -126 52.5t-101 97.5q-77 112 -37 250q25 86 91.5 150t154.5 87q99 25 170 -18q55 -32 90.5 -110.5t3.5 -131.5q-13 -24 -36 -26t-40 16q-22 21 -26.5 47t8.5 45q-1 -2 5 -11t16 -16.5t18 -5.5q21 5 24.5 28.5t-3.5 48.5t-19 48q-23 46 -68.5 65t-99.5 5
q-109 -24 -178 -158q-62 -114 -45 -225q9 -62 48 -113.5t97 -81.5q123 -57 256 -23t223 132q83 89 96 207.5t-47 222.5q-28 48 -77 106t-89.5 100.5t-79 102t-53.5 119.5q-29 110 19.5 214.5t146.5 174.5q120 88 250 94h60q18 50 73 172q2 6 7 6.5t8.5 -3t1.5 -9.5
q-4 -9 -32 -74t-40 -96q105 -18 160 -73z" />
    <glyph glyph-name="percent" unicode="%" horiz-adv-x="905" 
d="M819 451q37 -19 56 -61t17.5 -85t-11.5 -84q-35 -103 -121 -168q-94 -69 -166 -47q-57 19 -77.5 84t-6.5 129q23 105 117 182q114 91 192 50zM813 244q59 192 -43 194q-79 2 -145 -123q-59 -105 -64 -200q0 -74 49 -84q40 -10 88 24q68 54 115 189zM156 786
q-58 19 -78 83t-6 130q21 105 114 181q28 24 59.5 40t70 22.5t67.5 -13.5q36 -21 54 -62.5t16.5 -83.5t-11.5 -82q-38 -103 -120 -167q-92 -71 -166 -48zM180 1085q-57 -112 -57 -194q0 -69 47 -82q39 -10 90 27q67 53 113 188q61 193 -43 195q-83 2 -150 -134zM877 1176
l-762 -1151q-22 -31 -39 -31q-22 0 -32.5 20t1.5 37q138 199 393.5 590t382.5 576q22 17 44.5 0.5t11.5 -41.5z" />
    <glyph glyph-name="ampersand" unicode="&#x26;" horiz-adv-x="1288" 
d="M1204 35q13 3 14 -6q1 -3 -4 -6q-101 -43 -219 -3q-108 38 -209 146q-42 44 -84 117q-32 -49 -70.5 -95t-87 -91t-105.5 -72t-111 -27q-115 3 -191 68q-63 55 -85 134t-4 160t69 150q66 93 163.5 159t229.5 126q6 3 41 18q-3 157 47 309q50 145 154 189q58 25 122 5.5
t89 -77.5q19 -54 9 -104t-47.5 -97t-82 -82.5t-94.5 -60.5q-37 -20 -109 -55q25 -246 102 -463q91 142 119 184q16 23 22 31.5t24 33.5t28.5 36.5t30.5 33t34.5 31.5t36 22.5t39.5 16t39.5 3t42.5 -8.5q54 -24 68 -90q8 -47 -11 -97q-21 -47 -55 -76.5t-67 -25.5
q-22 3 -33.5 15.5t-7.5 33.5q6 24 24.5 36.5t40.5 10.5q-6 -4 -10.5 -16t2.5 -19q19 -13 48 1.5t42 39.5q30 62 6 121q-14 30 -39 46.5t-55 15.5q-60 0 -115 -51q-12 -10 -24 -22.5t-21 -22t-21.5 -26.5t-18 -24.5t-19.5 -29t-16.5 -26t-18 -29.5t-16.5 -27
q-35 -53 -90 -146q68 -185 190 -270q118 -81 238 -55q17 3 26 8zM336 39q42 -3 85 12.5t76.5 38.5t72.5 64.5t62.5 71.5t57.5 77q-16 28 -28 59q-102 212 -111 437q-184 -90 -270 -174q-62 -59 -102 -129.5t-52.5 -153.5t25.5 -160q28 -59 76 -98t108 -45zM637 1100
q-13 -110 0 -244q125 62 192 152q87 117 89 194q3 65 -55.5 93t-117.5 -7q-89 -49 -108 -188z" />
    <glyph glyph-name="quotesingle" unicode="'" horiz-adv-x="247" 
d="M420 1032q-24 -56 -66 -110t-90 -88q-4 -4 -16 -11t-12 -2q93 96 129 215q1 4 2 10t2.5 10t5.5 7q17 15 35.5 3t9.5 -34z" />
    <glyph glyph-name="parenleft" unicode="(" horiz-adv-x="505" 
d="M90 -6q-49 75 -63 173t1.5 193.5t50.5 197.5t76.5 184t88.5 153q153 235 342 338q61 33 108 41h19q2 -1 0 -4q-1 -1 -3 -1.5l-6 -1.5t-8 -3q-72 -25 -148 -90.5t-138.5 -151t-109.5 -162.5t-83 -151q-33 -71 -58 -130.5t-50 -137.5t-37.5 -144t-11.5 -137.5t20 -130.5
q2 -5 6 -14.5t6 -14.5v-2q-1 -4 -2 -4z" />
    <glyph glyph-name="parenright" unicode=")" horiz-adv-x="630" 
d="M504 1282q51 -73 68.5 -170.5t6.5 -194t-41.5 -200t-69 -187t-81.5 -155.5q-145 -240 -328 -352q-69 -38 -108 -46h-4q-14 -2 -15 1q0 1 2 4q1 1 3 1.5t5.5 1.5t6.5 3q72 28 144.5 96t132 156t103 166.5t77.5 154.5q38 93 64 169.5t49 172.5t22 184t-27 160
q-2 6 -7.5 15.5t-6.5 11.5q-7 10 0 10z" />
    <glyph glyph-name="asterisk" unicode="*" horiz-adv-x="985" 
d="M799 1212q20 -1 28.5 -18.5t0 -34.5t-28.5 -18q-3 -3 -66 6.5t-88 15.5q60 -88 76 -133q7 -19 -6.5 -33t-33 -12t-28.5 21q-24 67 -30 147q-52 -91 -93 -143q-23 -31 -47 -25q-17 4 -23 23t5 32q9 13 58 58.5t71 60.5q-17 -5 -68.5 -12t-70.5 -6q-21 1 -30 18t0 34t30 19
q8 0 70 -9t83 -13q-5 8 -19 29t-22 33.5t-18.5 32t-16.5 36.5q-7 19 6 34t32 13.5t28 -20.5q9 -21 14.5 -45t10.5 -56.5t8 -46.5q12 17 40.5 67t49.5 76q26 31 49 25q17 -6 22 -23t-6 -32q-17 -21 -36.5 -40t-50.5 -45.5t-40 -35.5q65 14 140 20z" />
    <glyph glyph-name="plus" unicode="+" horiz-adv-x="917" 
d="M657 252q11 0 16 -9t0.5 -17.5t-16.5 -8.5h-225l-74 -147q-2 -4 -8.5 -17.5t-11 -21t-11.5 -17.5t-15.5 -15t-18.5 -5q-23 0 -36 20.5t-3 40.5q7 13 36 71.5t46 90.5h-189q-20 0 -24 10q-4 11 3 18t19 7h209q19 40 55 110.5t44 86.5q11 20 34 22.5t37 -16.5q16 -19 2 -47
q-63 -128 -77 -156h208z" />
    <glyph glyph-name="comma" unicode="," horiz-adv-x="436" 
d="M59 -88q3 4 14 18t16 22.5t10.5 23t4 29t-9.5 30.5q-6 24 11.5 41t41.5 12q11 -2 20.5 -11.5t10.5 -21.5q3 -43 -38.5 -87t-80.5 -56z" />
    <glyph glyph-name="hyphen" unicode="-" horiz-adv-x="614" 
d="M489 217h-417q-21 0 -19.5 17.5t19.5 17.5h417q11 0 16 -9t0.5 -17.5t-16.5 -8.5z" />
    <glyph glyph-name="period" unicode="." horiz-adv-x="436" 
d="M162 37q-11 -23 -32.5 -33.5t-41.5 -1.5q-20 7 -27 30t2 48q11 23 32.5 33.5t41.5 1.5q20 -8 27.5 -30.5t-2.5 -47.5z" />
    <glyph glyph-name="slash" unicode="/" horiz-adv-x="806" 
d="M166 14q-26 4 -10 37q98 186 318 606t337 641q6 9 15.5 9.5t16 -8t1.5 -17.5q-98 -190 -317 -602.5t-334 -636.5q-1 -1 -4 -6.5t-5 -8.5t-5 -7t-6.5 -6t-6.5 -1z" />
    <glyph glyph-name="zero" unicode="0" horiz-adv-x="1294" 
d="M1196 723q-77 -237 -242 -424q-211 -237 -434 -293q-151 -35 -258 27q-101 56 -158 190q-86 215 -12 484q45 170 148 329q144 231 352 357q122 75 233 88q121 14 215 -33q77 -39 126 -118t65.5 -163t13.5 -174q-3 -133 -49 -270zM1100 754q89 286 47 475
q-35 148 -143 205q-88 49 -211 10q-215 -65 -398 -334q-126 -177 -196 -397q-43 -141 -54 -230q-5 -53 -7 -106.5t9 -107.5t30 -99.5t55.5 -82.5t86.5 -56q113 -43 252 20q190 88 342 316q115 171 187 387z" />
    <glyph glyph-name="one" unicode="1" horiz-adv-x="868" 
d="M942 1497q12 2 21.5 -8.5t5.5 -22.5q-9 -22 -30.5 -65.5t-29.5 -59.5q-68 -145 -602 -1278q-2 -3 -8 -17.5t-9.5 -20t-10.5 -15t-16 -13t-21 -3.5q-30 -1 -43.5 25t0.5 51q424 828 569 1110q-74 -84 -86 -97q-219 -230 -430 -309q-98 -36 -176 -43q-18 -2 -20 10
q-2 10 12 13q235 27 462 219q185 155 334 403q10 19 30 52.5t30 52.5q7 14 18 16z" />
    <glyph glyph-name="two" unicode="2" horiz-adv-x="1275" 
d="M932 1520q100 3 179 -30.5t123.5 -94.5t61.5 -138t-2.5 -165t-72.5 -170q-64 -99 -157.5 -182t-215.5 -162q-183 -119 -483 -267q-205 -100 -232 -114q125 35 238.5 1t251.5 -130q47 -36 90.5 -47.5t85 1.5t78 39t81.5 70q5 7 10 2q3 -4 -1 -8q-39 -40 -62 -61.5t-64 -47
t-81 -32.5t-87 3.5t-78 24.5t-79 39q-92 46 -162 65t-152 14t-179 -40q-16 -5 -34.5 -12.5t-39.5 -16.5t-33 -14q-9 -4 -19 -0.5t-10 14.5q2 20 35 43q43 28 131.5 72t112.5 57q262 136 475 277q78 53 146 105t162 139.5t153.5 168.5t91 181t4.5 188q-29 99 -123.5 151.5
t-204.5 35.5q-83 -13 -167 -61.5t-149 -117t-100 -158.5t-22 -179q14 -65 62 -106t114 -40q98 3 168 86q24 30 49 82q17 40 18 65t-7 32.5t-19 7.5t-23 -14t-10 -19q-13 20 -10 43t19 43q13 16 33 17t36 -19q39 -52 -20 -172q-55 -109 -140 -148q-48 -24 -105 -23t-103 31
q-52 36 -73 99.5t-11 130.5q13 103 92 209q77 106 192 176t238 76z" />
    <glyph glyph-name="three" unicode="3" 
d="M987 1489q83 -57 117 -154.5t8 -193.5q-29 -113 -124 -189.5t-220 -111.5q-58 -18 -121 -27q48 -11 78 -25q118 -52 174.5 -170.5t22.5 -244.5q-32 -120 -128 -207t-225 -135q-80 -30 -161 -36.5t-163 15t-145 74.5q-56 45 -84.5 109t-21.5 135q7 89 74 178.5t139 81.5
q25 -3 33.5 -25t-0.5 -37q-8 -22 -29.5 -35.5t-42.5 -9.5q29 30 3.5 42t-60.5 -8q-9 -6 -17 -13q-80 -77 -86 -189q-3 -63 25.5 -120.5t79.5 -96.5q105 -83 247 -73q109 6 205 67q117 73 195 182.5t84 235.5q7 150 -87.5 232t-248.5 65q-9 2 -8 10t10 10q242 52 362 136
q119 82 152 186q36 114 -31 233q-48 87 -145.5 116.5t-200.5 4.5q-131 -30 -223 -129q-85 -88 -98 -178q-9 -65 20.5 -121t89.5 -76q65 -22 125.5 12t95.5 99q3 3 8 1.5t5 -7.5q-53 -97 -133 -121q-59 -19 -119 7.5t-90 82.5q-27 57 -23 112.5t34 109.5t71 97t88 74
q71 46 155.5 68.5t174.5 13t159 -56.5z" />
    <glyph glyph-name="four" unicode="4" horiz-adv-x="991" 
d="M969 592q11 11 16 4q2 -5 -2 -10q-143 -143 -278 -107q-124 -276 -209 -469q-16 -33 -46.5 -38.5t-49 16.5t-3.5 55q59 113 236 457q-11 4 -59.5 20.5t-73.5 22.5q-126 33 -269 14q-130 -25 -221 -65q-2 0 -11.5 -5t-14.5 -4q-15 4 2 29l133 217q82 130 243.5 390
t243.5 390q23 35 51 35q32 -1 44 -30t-7 -54q-114 -155 -339.5 -471.5t-340.5 -472.5q114 45 226 59q142 19 274 -18q23 -7 67 -22.5t60 -20.5q1 3 238 465q12 15 28 4.5t8 -27.5q-16 -51 -107 -248t-97 -212q92 -19 184 36q16 11 43 34t31 26z" />
    <glyph glyph-name="five" unicode="5" horiz-adv-x="1173" 
d="M1229 1495q11 7 11 2q0 -3 -3 -6q-171 -154 -420 -102q-6 1 -37 7t-38 7.5t-33.5 6t-37.5 5.5t-34 3.5t-39 3t-37 0t-41 -2.5q-20 -42 -119.5 -251t-152.5 -322q72 80 170.5 123t206.5 39q120 -6 216 -74t130 -180q38 -128 8.5 -248t-105 -220t-182.5 -170.5t-223 -99.5
q-59 -14 -119 -15t-118 12t-108 47.5t-81 86.5q-30 51 -34 110.5t13.5 113.5t51.5 104q90 132 166 119q23 -4 31 -24t-1 -40q-10 -24 -30.5 -36t-42.5 -7q7 2 15 16t1 21q-8 7 -23 9.5t-37 -5t-40 -28.5q-45 -51 -68.5 -111.5t-18 -128t47.5 -121.5q49 -62 127 -87
t154.5 -17t152.5 37q115 45 216.5 160t150 262t12.5 268q-19 64 -63.5 112t-101.5 71.5t-123 30.5t-128 -11q-123 -31 -207 -125q-4 -6 -16.5 -20.5t-20.5 -25.5t-14 -22q-9 -18 -19 -13.5t-1 19.5q19 40 107 224.5t181 381.5q3 5 7.5 15t8 17.5t7.5 13.5q16 33 55.5 53.5
t83.5 27.5q51 8 110.5 -5.5t106.5 -33.5t106.5 -32.5t110.5 -3.5q78 11 152 59z" />
    <glyph glyph-name="six" unicode="6" horiz-adv-x="1142" 
d="M1071 1430q39 -46 47 -109.5t-18 -120.5q-22 -46 -54 -75t-61 -29q-25 0 -37.5 16t-7.5 39q6 25 22.5 39.5t38.5 17.5q-6 -4 -10 -18t4 -21q13 -9 41.5 1.5t48.5 41.5q17 26 17 72q0 65 -32.5 113t-82.5 68.5t-111 24t-118 -19.5q-103 -36 -203 -129.5t-178.5 -217
t-137.5 -247t-100 -243.5q88 174 250 254q76 39 162 54.5t175 -4.5t144 -83q53 -60 70 -144.5t4.5 -163.5t-45.5 -155q-51 -119 -142.5 -215.5t-205.5 -142.5q-72 -30 -150 -35t-154 22.5t-124 88.5q-70 90 -88 241q-14 128 12 275q46 241 205 481q167 249 377 354
q126 61 245 53q135 -7 197 -83zM254 764q-151 -160 -162 -381q-7 -157 53 -254q42 -65 116.5 -93t152 -20t143.5 45q108 60 179.5 175.5t105.5 252.5q15 60 20.5 117.5t-0.5 120.5t-39.5 111.5t-93.5 70.5q-116 42 -248 -3.5t-227 -141.5z" />
    <glyph glyph-name="seven" unicode="7" horiz-adv-x="899" 
d="M1174 1495q13 -17 -17 -47q-10 -12 -98 -94q-23 -22 -64 -61.5t-74.5 -72t-62.5 -61.5q-221 -221 -369 -411q-154 -193 -267 -378t-169 -376q-11 -9 -23.5 -4.5t-15.5 16.5q-10 219 174 496q48 70 109.5 143.5t114.5 130t136 135t133.5 124t147.5 132.5q17 16 62.5 58
t70 64.5t60.5 58t65 65.5q-157 -82 -415 -39q-16 3 -66 12.5t-71.5 13t-65 6t-70 -2t-61 -17.5t-62.5 -36q-31 -23 -83 -95q-2 -5 -7 0q-1 3 0 7q66 131 179 174q91 38 258 22q29 -3 83 -9.5t98 -10.5t83 -4q134 3 250 61q29 10 37 0z" />
    <glyph glyph-name="eight" unicode="8" horiz-adv-x="1126" 
d="M999 1450q47 -41 68.5 -101.5t9.5 -121.5q-14 -57 -47 -106.5t-71.5 -83.5t-96.5 -67t-101.5 -52.5t-105.5 -43.5q97 -101 144 -180q45 -76 65.5 -156t11 -165t-54.5 -158q-69 -110 -193.5 -170.5t-256.5 -52.5q-88 5 -167 44.5t-134 106.5q-105 137 -72 285
q23 117 106 209.5t197 138.5q109 50 236 82q-88 99 -127 174q-57 111 -21 224t141 186q69 49 151 70.5t168 7t150 -69.5zM733 176q53 63 68 140.5t-3 152.5t-63 149q-31 48 -102 129t-84 97q-230 -57 -346 -166q-105 -97 -144 -262q-26 -120 33 -231.5t174 -155.5
q118 -43 252 2t215 145zM793 956q45 29 87.5 68.5t80 88.5t56.5 106.5t11 111.5q-10 65 -53 108.5t-101 58.5t-121.5 9t-115.5 -32q-103 -55 -163 -163t-13 -208q14 -29 38 -61t43 -52t53.5 -54t47.5 -48q84 26 150 67z" />
    <glyph glyph-name="nine" unicode="9" horiz-adv-x="1124" 
d="M39 90q-39 46 -47 109t18 120q22 46 54 75.5t61 29.5q25 0 37.5 -16t7.5 -39q-12 -51 -61 -58q6 4 10 18t-4 21q-13 9 -41.5 -1.5t-48.5 -41.5q-17 -25 -17 -71q0 -64 32.5 -112t82.5 -69t111 -25t118 19q103 36 203 129.5t178.5 217t137.5 247.5t100 244
q-88 -174 -250 -254q-76 -39 -162 -54.5t-175 4.5t-144 83q-53 60 -70 144t-4.5 163t45.5 155q51 120 142.5 216.5t205.5 142.5q72 30 150 35t154 -22.5t124 -88.5q70 -90 88 -242q14 -127 -12 -274q-46 -241 -205 -481q-168 -251 -377 -355q-126 -61 -245 -53
q-134 7 -197 84zM856 756q151 160 162 381q7 157 -53 254q-42 65 -116.5 93t-152 19.5t-143.5 -45.5q-108 -60 -179.5 -175.5t-105.5 -252.5q-15 -60 -20.5 -117.5t0.5 -120.5t39.5 -111.5t93.5 -70.5q116 -42 248 4t227 142z" />
    <glyph glyph-name="colon" unicode=":" horiz-adv-x="651" 
d="M358 338q-11 -23 -33 -33.5t-42 -1.5q-20 7 -26 30t3 48q11 23 32.5 33.5t41.5 1.5q20 -8 27 -30.5t-3 -47.5zM229 78q-11 -23 -32 -33.5t-41 -1.5q-20 7 -27 30t2 48q11 23 32.5 33.5t41.5 1.5q20 -8 27 -30.5t-3 -47.5z" />
    <glyph glyph-name="semicolon" unicode=";" horiz-adv-x="632" 
d="M358 299q-11 -23 -33 -33.5t-42 -1.5q-20 7 -26 30t3 48q11 23 32.5 33.5t41.5 1.5q20 -8 27 -30.5t-3 -47.5zM98 -88q3 4 14 18t16 22.5t10.5 23t4 29t-9.5 30.5q-6 24 11.5 41t41.5 12q11 -2 20.5 -11.5t10.5 -21.5q3 -43 -38.5 -87t-80.5 -56z" />
    <glyph glyph-name="less" unicode="&#x3c;" horiz-adv-x="856" 
d="M367 129q-9 0 -21 12q-21 19 -116 103t-144 131q84 60 253 181t253 181q15 6 21.5 -8.5t-5.5 -23.5q-53 -37 -465 -334q38 -35 117 -104.5t117 -104.5q9 -8 6.5 -20.5t-16.5 -12.5z" />
    <glyph glyph-name="equal" unicode="=" horiz-adv-x="806" 
d="M559 147h-412q-15 0 -22 7q-10 10 -3.5 20t19.5 10h418q17 0 17 -18.5t-17 -18.5zM502 6h-412q-18 0 -22 4q-10 10 -3.5 20.5t19.5 10.5h418q17 0 17 -17.5t-17 -17.5z" />
    <glyph glyph-name="greater" unicode="&#x3e;" horiz-adv-x="827" 
d="M309 709q8 0 21 -13q26 -23 119 -105t141 -128q-84 -61 -253 -182t-253 -181q-15 -6 -21.5 9t5.5 24q20 14 464 334q-38 35 -116.5 104.5t-116.5 104.5q-9 8 -6.5 20.5t16.5 12.5z" />
    <glyph glyph-name="question" unicode="?" horiz-adv-x="948" 
d="M963 1343q56 -30 81 -83t17 -117q-14 -123 -107 -234q-50 -58 -122.5 -117.5t-139.5 -107.5t-134 -101t-124 -120t-90 -144q-1 -2 -3.5 -10t-6 -13t-8.5 -3q-3 1 -4 4.5t0 8.5t2.5 9.5t3.5 9t2 5.5q24 55 60.5 110.5t67 95t86 96.5t83.5 83.5t96 87.5t88 80
q105 98 160 200q82 148 -15 226q-78 60 -213 26q-124 -30 -219 -125q-103 -106 -100 -227q0 -70 41 -106q35 -31 75.5 -29t76.5 23.5t63 56.5q6 9 13 1q4 -4 -1 -9q-35 -47 -85.5 -71.5t-102.5 -10.5q-41 11 -65.5 43t-28.5 70.5t0 78.5q21 116 117.5 203.5t217.5 120.5
q133 34 218 -11zM309 37q-11 -23 -32 -33.5t-41 -1.5q-20 7 -27 30t2 48q10 23 31 33t43 2q20 -8 27 -30.5t-3 -47.5z" />
    <glyph glyph-name="at" unicode="@" horiz-adv-x="1462" 
d="M1200 119q3 8 9.5 10t10.5 -3t1 -13q-13 -37 -33 -66q-90 -132 -242 -215q-160 -86 -344 -86q-116 0 -225.5 47.5t-179.5 134.5q-48 60 -70.5 134t-19.5 147.5t26 148.5q33 107 105.5 195.5t171.5 146.5q110 64 228 84.5t241 -10.5q119 -35 200.5 -121t81.5 -202
q0 -128 -92 -267q-101 -161 -250 -211q-46 -21 -100 -10.5t-74 60.5q-15 38 0 96q2 12 10 31q-133 -180 -243 -154q-59 14 -76 84q-25 109 53 233q60 102 164 160q26 15 56.5 26t65.5 16t63 -9t40 -49q8 -27 0 -80q7 11 21.5 34t21.5 35q10 16 15.5 23.5t18 15.5t26.5 7
q25 -3 37.5 -26t-0.5 -46q-20 -34 -88.5 -137.5t-100.5 -163.5q-34 -62 -6.5 -104t96.5 -19q70 20 146 96q110 110 155 244q26 75 14 154.5t-63 140.5q-65 76 -169.5 112t-209.5 27q-97 -7 -191 -47.5t-169 -104.5q-148 -126 -189 -311q-26 -110 -6 -209q23 -107 109 -190
q83 -80 197.5 -114t236.5 -21q211 21 379 164q82 69 129 153q2 4 12 29zM686 219q9 16 31.5 54t29.5 52t14.5 41t6.5 54q-2 34 -23 51.5t-55 13.5q-54 -11 -106 -59q-76 -72 -148 -211q-10 -20 -18.5 -41.5t-14.5 -50t-4 -50t18 -35t48 -11.5q70 4 153 100q49 56 68 92z" />
    <glyph glyph-name="A" unicode="A" horiz-adv-x="1521" 
d="M1894 1526q24 20 50 13t18 -44q-12 -43 -56 -102.5t-80.5 -98.5t-106.5 -108l-6.5 -6.5l-6 -6l-6.5 -6.5q-65 -132 -222.5 -433.5t-234.5 -465.5q2 -25 2.5 -58t-2.5 -79.5t-17 -82t-38 -44.5q-12 -3 -20 -3t-12.5 8t-7 16t-2.5 20t1 20.5t2 16.5q13 95 70 260
q-22 160 -76 299q-392 -342 -656 -524q-136 -90 -237 -109q-65 -13 -125 1.5t-94 64.5q-33 51 -27 116q8 60 42 112t79 56q27 3 41.5 -12.5t11.5 -40.5q-3 -29 -19.5 -46.5t-41.5 -20.5q6 4 10 20t-4 23q-18 13 -46.5 -1t-45.5 -57q-19 -45 -4 -98.5t57 -79.5q93 -59 248 4
q77 31 200 119q254 183 605 489q-40 100 -93 185q-75 121 -184.5 189t-236.5 44q-126 -24 -222.5 -113t-136.5 -212q-15 -46 -15 -94t15 -91t42.5 -75.5t72.5 -47.5t100 -6q81 13 143.5 70.5t63.5 136.5q2 40 -16 73.5t-54 39.5q-35 6 -90 -27q-6 -3 -8.5 1t2.5 9
q58 40 101 31q54 -11 73 -80q17 -59 -9.5 -118.5t-78.5 -98.5q-113 -80 -227 -57q-64 13 -109 53t-64 93.5t-18 115t25 119.5q50 118 154 196q71 54 151.5 83t170 25.5t165.5 -46.5q181 -101 293 -389q222 197 354 323q107 189 219 338q3 4 21 29t23.5 32t21.5 28.5t25.5 32
t24.5 26.5t29 28t29 23zM1229 373q96 279 248 573q-153 -147 -324 -295q56 -144 76 -278zM1929 1452q20 36 17 57q-3 20 -25 7q-33 -22 -84 -99q-61 -96 -125 -221q56 56 81 82t68 78t68 96zM1214 61q21 64 17 183l-27 -68q-2 -5 -6.5 -16.5t-11 -31t-11.5 -38t-8 -36
t-0.5 -28t11.5 -10.5q21 0 36 45z" />
    <glyph glyph-name="B" unicode="B" horiz-adv-x="1722" 
d="M1720 1108q-53 -157 -274 -285q89 -32 138 -99.5t51 -151t-29 -179.5q-28 -80 -94.5 -159.5t-150.5 -138t-184.5 -85t-187.5 -2.5q-52 14 -88 52t-45 90q-10 60 14 122t68 111q88 102 199 119q44 6 82 -3.5t57 -31.5q15 -19 10 -39t-26 -31q-23 -13 -50 -10t-41 23
q7 -3 18 1.5t15 8.5q22 22 -6 45q-34 28 -89 16q-5 -1 -9 -2q-101 -35 -176 -141q-24 -36 -37.5 -75.5t-12 -83.5t22.5 -79q58 -91 195 -69q109 20 225 125q106 94 170 206q27 45 45 93.5t27.5 104t-6.5 108t-60 88.5q-41 33 -80 49q-62 -38 -163.5 -69.5t-145.5 1.5
q-10 11 -7.5 21.5t18.5 22.5t29 19t23 11q98 44 238 23q100 66 172 170q87 125 74 243q-9 87 -84 152q-42 39 -105 65q-63 -58 -131 -161q-142 -217 -274 -463q-129 -243 -295 -467q-90 -125 -180.5 -211t-204.5 -131q-145 -58 -254 -13q-62 25 -92.5 83.5t-12.5 123.5
q17 59 50.5 102.5t66.5 49.5q27 4 41.5 -12t11.5 -41q-3 -24 -20.5 -45.5t-40.5 -22.5q6 4 9.5 17.5t-3.5 23.5q-8 4 -22 5.5t-35 -14.5t-35 -46q-21 -42 -13.5 -90.5t44.5 -81.5q46 -41 116 -46.5t125 17.5q61 21 115.5 58.5t100.5 89t80 99t73 111.5q46 74 139 236.5
t146 245.5q11 16 68 104.5t80 122.5t68 96.5t85 110.5q91 102 164 160q-149 49 -355 6q-184 -39 -345.5 -155.5t-268.5 -281.5q-25 -39 -48 -88.5t-43 -111.5t-16.5 -119.5t37.5 -91.5q43 -44 114.5 -48.5t123.5 21.5q69 29 121 94q63 79 65 142q0 38 -21 66.5t-57 31.5
q-44 3 -96 -33q-8 -6 -10 1q-1 4 2 7q50 34 94 37q31 0 55.5 -14.5t34.5 -40.5q40 -90 -72 -221q-97 -107 -223 -113q-65 -3 -120.5 26t-79.5 87q-30 69 -21.5 145.5t36.5 142.5t75 128q139 186 411 315q97 47 198.5 74t214 32.5t216.5 -22.5q98 78 209 78q6 0 8 -2.5
t-0.5 -5t-7.5 -2.5q-102 -6 -178 -76q58 -19 109 -54.5t87.5 -85t48.5 -109.5t-8 -126zM1274 762q49 19 104 53q-105 29 -215 -18q-36 -18 -49 -33q-4 -5 -4.5 -9t2.5 -7t7 -5t9.5 -4t9 -2.5t7.5 -1.5q49 -4 129 27z" />
    <glyph glyph-name="C" unicode="C" horiz-adv-x="1296" 
d="M1599 1499q77 -71 7 -229q-76 -168 -221.5 -313t-325.5 -244q-245 -130 -498 -142q-37 -82 -53 -135q-19 -59 -25 -118t2 -120.5t48 -107t108 -61.5q73 -21 150 -6.5t146.5 46.5t137 84t121.5 107.5t100 116.5q2 3 6.5 2.5t6 -4t-1.5 -8.5q-174 -219 -346 -306
q-122 -61 -244 -61q-52 0 -107 18.5t-92 51.5q-83 75 -90 231q-6 126 39 268q-129 7 -237 50t-169 133q-78 114 -53 243q19 115 121 217q107 100 221 125q42 7 82.5 8t81.5 -14.5t66 -46.5q23 -29 27.5 -64t-7 -69.5t-29.5 -66t-43 -60.5q-75 -87 -141 -84q-27 1 -37 19.5
t-2 41.5q8 21 30 37t44 13q-6 -4 -12.5 -18t0.5 -21q8 -8 25 -9.5t40.5 7t42.5 28.5q29 32 48 69.5t24.5 82.5t-19.5 80q-33 48 -102 55q-111 13 -229 -82q-109 -88 -160.5 -213.5t0.5 -243.5q24 -53 67 -91.5t98 -60t110.5 -32t117.5 -12.5q68 209 254 442q172 215 389 363
q127 88 240 123q56 23 130 20t113 -39zM1587 1278q58 145 -10 199q-81 59 -238 -19q-99 -47 -215 -147q-187 -157 -360 -398q-112 -152 -195 -323q250 15 479 139.5t398 325.5q97 120 141 223z" />
    <glyph glyph-name="D" unicode="D" horiz-adv-x="1687" 
d="M1657 1499q-97 -42 -148 -98l2 -2q103 -84 157.5 -206.5t57.5 -260.5q3 -132 -38 -262.5t-117 -243.5q-150 -224 -387 -342q-129 -63 -258 -80q-113 -13 -271 19q-41 8 -123 28q-52 -25 -106 -37q-133 -27 -276 2q-77 15 -119 45q-28 19 -25 43t35 33q34 11 78 11.5
t94 -8.5t93.5 -19t101 -25t92.5 -22q53 28 111.5 90.5t116.5 150t104.5 166t105.5 181t90 153.5q171 280 309 447q79 93 140 145q-105 73 -244.5 95t-263.5 -3q-250 -42 -428 -205q-220 -202 -279 -450q-36 -152 31 -232q39 -47 101.5 -68t129.5 -18q110 6 207 74
q88 64 133 148q25 41 20.5 99t-46.5 85q-24 14 -52 13t-51 -15q-21 -13 -35 -36t-14.5 -39t4.5 -24q13 -6 25 -2.5t16 9.5q0 -49 -59 -64q-24 -6 -42 6t-18 39q3 55 56.5 97t119.5 42t99 -57q20 -33 17 -73t-17.5 -74t-38.5 -66q-81 -105 -195 -153q-133 -57 -262 -19
q-123 37 -174 139q-52 115 -12 263q32 120 113 226t192 187q217 160 489 191q299 32 490 -105q112 94 233 107q10 1 10 -4q-1 -5 -6 -7q-46 -4 -69 -14zM1657 932q16 136 -22 258.5t-136 200.5q-40 -40 -110 -144q-58 -90 -152.5 -262t-118.5 -213q-49 -83 -108 -173.5
t-137 -199t-163.5 -200t-156.5 -138.5q184 -40 281 -38q127 0 258 59q212 99 372 348q161 255 193 502zM403 37q51 15 76 26q-20 5 -84.5 22t-96 24t-83 15t-94.5 9q-9 0 -24.5 -2t-35 -6t-31 -13t-5.5 -20q15 -32 112 -55q135 -31 266 0z" />
    <glyph glyph-name="E" unicode="E" horiz-adv-x="978" 
d="M1270 1460q24 -35 18.5 -79t-23 -80t-44.5 -70q-70 -90 -197 -160q-142 -81 -311 -117q7 -30 39 -71q81 8 120 6q96 -6 107 -41q8 -24 -16 -34.5t-52 -10.5q-114 0 -174 55q-253 -52 -399 -219q-167 -203 -170 -389q0 -63 29.5 -114.5t83.5 -82.5q71 -40 151.5 -35
t157.5 36.5t151.5 86.5t133.5 114.5t104 121.5q5 7 10 0q3 -4 0 -10q-82 -101 -161 -174.5t-175 -126.5q-69 -39 -142.5 -56.5t-152.5 -8t-143 51.5q-73 49 -102.5 133t-19.5 169t48 165q99 205 334 299q123 46 240 60q-32 41 -43 67q-81 -12 -125 -14q-356 -23 -484 145
q-69 88 -58.5 202t93.5 194q93 93 219 112q65 10 128 -6.5t100 -62.5q76 -98 -39 -236q-78 -91 -152 -76q-26 6 -34 28.5t2 39.5q12 25 33.5 36.5t45.5 6.5q-6 0 -14.5 -15t-3.5 -24q7 -19 44 -15.5t69 33.5q26 24 44 58t21.5 74t-20.5 75q-28 43 -97 62q-114 30 -233 -51.5
t-150 -204.5q-24 -98 27 -191q30 -56 82.5 -93.5t116.5 -54t125.5 -21.5t126.5 -1q65 3 129 15q-43 119 8.5 248.5t157.5 217.5q108 84 229 101q152 21 207 -68zM922 870q-55 10 -150 -6q58 -45 160 -45q12 0 25 6t12 17q-5 22 -47 28zM1233 1274q19 31 28.5 63.5t4.5 68.5
t-31 60q-29 29 -74 32.5t-83.5 -8t-78.5 -32.5q-87 -50 -163 -139q-77 -87 -113 -184q-31 -90 -14 -166q194 44 338 133q128 76 186 172z" />
    <glyph glyph-name="F" unicode="F" horiz-adv-x="1140" 
d="M1765 1530q24 -11 18.5 -28.5t-19 -31t-29.5 -22.5q-80 -45 -246 -2q-59 -37 -114.5 -89t-94 -98.5t-85.5 -120.5t-71.5 -117.5t-71 -130.5t-65.5 -122q75 -10 135 -2q45 95 97 147q67 67 106 43q32 -22 -18 -86q-35 -48 -84 -79q-40 -24 -66 -31q-63 -109 -97 -148
q-31 -37 -67 -61q-11 -7 -15 -2q-2 5 3 10q26 15 46 35t38 52.5t25.5 48.5t25.5 57q-66 -9 -135 4q-5 -8 -22.5 -41.5t-23.5 -44t-22.5 -40.5t-24 -43t-23 -40.5t-25 -42.5t-24 -39t-26.5 -41.5t-26.5 -38t-28.5 -39.5q-55 -72 -99 -122.5t-113.5 -106t-141.5 -84.5
q-132 -57 -246 -19q-60 21 -97 69t-36 110q2 66 42.5 126t98.5 64q27 1 41 -15t9 -40q-4 -29 -22.5 -46.5t-43.5 -17.5q7 4 11.5 19t-3.5 22q-18 9 -46 -2t-54 -57q-25 -44 -12.5 -96.5t53.5 -83.5q99 -71 235 -31q104 29 184.5 106.5t153.5 190.5q40 62 77 130t85 167
t66 135q-70 7 -134.5 -26.5t-105.5 -94.5q-5 -7 -12 0q-4 4 0 8q45 65 113.5 99.5t144.5 27.5q55 107 109.5 196t123 180.5t150 169t172.5 136.5q-28 8 -106.5 33.5t-134.5 39.5t-110 19q-290 37 -528 -79q-78 -39 -153.5 -100t-140 -137t-106.5 -168t-46 -183
q-2 -67 21.5 -125t74.5 -90q83 -51 217 -2q129 51 190 159q14 22 23 52t10 62t-17.5 56.5t-56.5 30.5q-39 6 -80.5 -19.5t-64.5 -64.5q-6 -11 -14 -5q-3 5 0 11q36 53 90 81t106 1q39 -21 48.5 -63.5t-2 -82t-33.5 -75.5q-65 -102 -183 -152q-129 -55 -223 -20
q-55 20 -93.5 64.5t-53.5 98.5t-17.5 115t13.5 113q30 114 117.5 213.5t203.5 173.5q237 148 516 160q130 7 258.5 -21.5t296.5 -85.5q83 47 180 62q88 14 125 -2zM1698 1452q65 22 65 51q0 11 -20.5 13.5t-49 -2t-50.5 -9.5t-33 -8q-52 -15 -99 -39q43 -8 65 -11.5
t58.5 -3.5t63.5 9zM1208 846q-4 -7 -20.5 -32.5t-24.5 -39.5q51 19 97.5 63t60.5 85q6 19 -6.5 23t-26.5 -5q-8 -5 -16.5 -12t-14 -13t-14 -17t-12 -16t-12.5 -19t-11 -17z" />
    <glyph glyph-name="G" unicode="G" horiz-adv-x="1603" 
d="M551 567q-34 -56 -54 -122.5t-25 -132.5t11.5 -125.5t51 -101.5t98.5 -60t149 -2q116 24 246 104q94 58 176 137q111 100 150 187q8 15 22 20t27 1.5t24 -12.5t13 -23t-6 -29q-36 -65 -108.5 -192t-108.5 -191q244 166 387 352q6 8 11 -1q2 -4 -1 -9q-157 -198 -414 -371
q-22 -39 -84 -155t-94 -173.5t-89 -148t-112 -162.5q-99 -134 -184 -172q-36 -13 -67.5 -12.5t-54 24t-23.5 66.5q-1 58 22 114t64 123q65 107 161 193.5t222 167.5q70 41 114 71q176 333 201 377q-32 -34 -102 -96q-105 -88 -213 -143q-70 -36 -140 -55.5t-150 -14
t-141 46.5q-186 129 -73 518q-206 10 -332 107q-106 82 -127 207q-21 129 55 245q62 101 189 170q134 71 245 37q68 -18 93 -67q28 -48 10 -117q-17 -63 -78.5 -133.5t-122.5 -61.5q-26 4 -37 21.5t-4 36.5q9 26 31.5 39t46.5 8q-6 0 -13.5 -14.5t-2.5 -22.5q8 -13 28 -14.5
t46 12.5t46 43q25 36 39.5 71.5t12.5 78t-31 71.5q-41 40 -110.5 41t-118.5 -25q-100 -45 -189 -159q-89 -121 -86 -248q3 -125 94 -203q113 -95 322 -102q60 175 194 364q266 367 605 531q157 74 258 51q55 -12 85.5 -55.5t24.5 -102.5q-7 -59 -34.5 -115t-73.5 -124
q-150 -216 -385 -373q-282 -186 -586 -195zM836 1014q-177 -219 -275 -428q164 8 344 76q236 90 443 290q101 101 165 199q44 70 69 129t22 117q-7 68 -55 89.5t-113 2.5t-121.5 -46t-97.5 -57q-192 -135 -381 -372zM770 -612q48 75 97 161.5t106 193.5t90 165
q-138 -85 -236 -158q-113 -89 -186 -188q-85 -114 -121 -228q-14 -42 -10 -79t30 -57t81 3q23 11 46 35t37 46t35 57t31 49z" />
    <glyph glyph-name="H" unicode="H" horiz-adv-x="1724" 
d="M2152 1444q45 -81 -51 -236q-133 -212 -372 -364q-166 -104 -422 -152q-82 -140 -105 -190q-72 -151 -84 -260q-17 -156 70 -203q92 -50 229 33q82 52 153.5 126t153.5 179q5 5 10 0.5t1 -10.5q-13 -16 -38.5 -48.5t-46.5 -58.5t-44 -51q-83 -95 -193 -162
q-39 -24 -78.5 -36t-84 -9t-81.5 25q-73 44 -88 166q-13 116 27 268q19 80 80 213q-53 -5 -260 -29q-133 -240 -269 -393q-48 -54 -90.5 -93.5t-97 -79t-115.5 -60t-125 -19.5q-64 2 -118.5 27.5t-83.5 76.5q-35 60 -6 142q19 52 50.5 86t63.5 43q26 7 40 -6.5t11 -40.5
q-3 -25 -21 -44t-40 -24q6 4 10 18.5t-4 22.5q-10 6 -23 7t-32.5 -15t-36.5 -47q-19 -37 -16 -78q4 -46 33.5 -79.5t71 -48t90.5 -18t93 10.5q56 15 108 47.5t96 79.5t76 90t69 100q62 98 147 277q-59 -8 -119 -28t-122.5 -63.5t-90.5 -99.5q-6 -15 -15 -13q-10 3 5 28
q25 45 64.5 80t89.5 57t95.5 35t102.5 24q60 125 114 223.5t125.5 207t157 200t181.5 162.5q-85 0 -145 -1.5t-143.5 -7t-146 -16t-138 -29.5t-135.5 -46.5t-121.5 -68.5t-112.5 -93q-248 -248 -189 -426q19 -53 64.5 -85t103.5 -34q116 -3 217 69q54 38 91.5 93t43.5 114
q8 63 -32 90q-50 36 -115 2q-42 -24 -68 -65q-8 -9 -13.5 -5.5t3.5 15.5q68 91 150 84q28 -3 50.5 -20t31.5 -43q20 -52 -4.5 -112.5t-69.5 -109.5q-79 -88 -201 -120q-130 -30 -209 22q-51 33 -78.5 89t-27.5 120q-3 187 192 363q104 85 232 135q166 60 350.5 80t443.5 22
q73 46 180 78t175 10q14 -5 20.5 -16t-0.5 -23q-14 -25 -51 -37q-21 -8 -46.5 -13.5t-42 -8.5t-49.5 -4.5t-42.5 -1.5h-50.5h-44q-75 -52 -139.5 -122t-119.5 -156.5t-94.5 -157.5t-93.5 -176.5t-87 -163.5q43 6 131 15t131 15q124 248 318 451q217 232 417 323q29 13 57 20
t60 9t59 -11.5t43 -41.5zM2101 1247q19 35 30.5 71.5t5.5 78.5t-44 57q-44 16 -123 -18q-80 -41 -151 -103.5t-156 -152.5q-195 -216 -342 -465q75 12 186 45q235 74 441 280q108 111 153 207zM1782 1520q-18 26 -162 -13q-64 -17 -125 -53h86q89 4 137 21q1 0 5 2t7.5 3
t9.5 3.5t10.5 5t10.5 5.5t9.5 6t7 6.5t4.5 7t0 6.5z" />
    <glyph glyph-name="I" unicode="I" horiz-adv-x="983" 
d="M938 664q-138 -258 -276 -412q-48 -54 -90.5 -93.5t-97.5 -79t-116 -60t-125 -19.5q-64 2 -118.5 27.5t-83.5 76.5q-35 60 -6 142q19 52 50.5 86t63.5 43q26 7 40 -6.5t11 -40.5q-3 -25 -21 -44t-40 -24q6 4 10 18.5t-4 22.5q-10 6 -23 7t-32.5 -15t-36.5 -47
q-19 -37 -16 -78q4 -46 33.5 -79.5t71 -48t90.5 -18t93 10.5q56 15 108 47.5t96 79.5t76 90t69 100q50 78 157 297q60 125 114 223.5t125.5 207t157 200t181.5 162.5q-85 0 -145 -1.5t-143.5 -7t-146 -16t-138 -29.5t-135.5 -46.5t-121.5 -68.5t-112.5 -93
q-248 -248 -189 -426q19 -53 64.5 -85t103.5 -34q116 -3 217 69q54 38 91.5 93t43.5 114q8 63 -32 90q-50 36 -115 2q-42 -24 -68 -65q-8 -9 -13.5 -5.5t3.5 15.5q68 91 150 84q28 -3 50.5 -20t31.5 -43q20 -52 -4.5 -112.5t-69.5 -109.5q-79 -88 -201 -120
q-130 -30 -209 22q-51 33 -78.5 89t-27.5 120q-3 187 192 363q104 85 232 135q166 60 350.5 80t443.5 22q73 46 180 78t175 10q14 -5 20.5 -16t-0.5 -23q-14 -25 -51 -37q-21 -8 -46 -13.5t-41.5 -8.5t-50 -4.5t-42.5 -1.5h-49.5h-44.5q-75 -52 -139.5 -122t-120 -156.5
t-95 -157.5t-94 -177t-86.5 -163zM1784 1520q-18 26 -162 -13q-64 -17 -125 -53h86q89 4 137 21q1 0 5 2t7.5 3t9.5 3.5t10.5 5t10.5 5.5t9.5 6t7 6.5t4.5 7t0 6.5z" />
    <glyph glyph-name="J" unicode="J" horiz-adv-x="1189" 
d="M1790 1544q1 0 12 2t19.5 3.5t23.5 3.5t26.5 2.5t25.5 0.5t24 -2.5t19 -6t13 -11t3 -16.5q-2 -19 -37 -39q-35 -19 -90 -28.5t-95.5 -11t-117.5 -1.5q-82 -55 -166 -162q-23 -30 -45 -61t-44.5 -68t-38 -62.5t-40.5 -71.5t-35 -65t-38 -72.5t-35 -66.5
q-237 -446 -443 -788q94 48 105 55q205 116 354 299q3 3 6.5 2.5t5 -4t-1.5 -8.5q-155 -188 -352 -299q-43 -25 -131 -70q-36 -57 -88 -154t-97 -179t-100 -171t-119.5 -163.5t-132.5 -123.5q-21 -14 -45.5 -22.5t-49 -9.5t-45 12t-30.5 41q-15 55 1.5 111t54.5 126
q41 76 99 144t130.5 127.5t138 104.5t152.5 98q57 103 139 260q69 131 338 598q169 304 299 463q96 119 188 184q-270 0 -434 -23q-302 -47 -477 -204q-247 -224 -233 -412q5 -57 37.5 -101.5t86.5 -62.5q95 -24 197 21q89 41 150.5 114t60.5 162q-3 31 -22 52.5t-48 27.5
q-52 10 -108 -35q-26 -23 -45 -51q-6 -10 -13 -2q-3 4 0 8q34 49 82 77.5t99 12.5q43 -14 58 -53.5t7 -80.5t-28 -77q-58 -108 -177 -164q-117 -55 -217 -32q-61 13 -105.5 59.5t-62.5 110.5q-28 117 31 233t164 205q157 131 446 190q231 44 576 41q96 63 215 84zM199 -729
q66 85 134 197t114 199t128 249q-84 -52 -146 -95.5t-132 -101.5t-124.5 -125t-92.5 -141q-89 -168 -43 -239q18 -26 50 -18.5t62.5 29t49.5 46.5zM1812 1464q38 5 88.5 24.5t32.5 37.5q-18 14 -90 2q-110 -19 -196 -70q110 0 165 6z" />
    <glyph glyph-name="K" unicode="K" horiz-adv-x="1767" 
d="M1470 1421q-79 -51 -137 -128.5t-123 -192.5q-41 -75 -126.5 -239.5t-131.5 -248.5q-142 -255 -317 -430q-209 -209 -406 -178q-58 8 -104.5 37.5t-67.5 79.5q-22 57 2 125q19 51 50.5 86t58.5 41q26 7 42 -11t11 -43q-5 -26 -21 -46t-38 -21q4 2 8 18t-4 23
q-18 11 -46 -5t-46 -50q-22 -43 -9 -92.5t52 -79.5q91 -70 233 -33q61 16 116 51.5t101 86.5t80.5 99t71.5 111q52 87 133.5 254t116.5 231q154 280 307 445q80 84 143 123q-56 18 -84.5 26.5t-82 24t-87.5 23t-83.5 16.5t-88.5 12t-85 3t-89 -5q-270 -27 -479 -205
q-95 -82 -160 -178q-33 -49 -57 -102t-41 -115.5t-9 -125.5t44 -114q44 -61 120 -71t148 18t127 78q51 48 81.5 109.5t12.5 117.5q-9 30 -35.5 45.5t-58.5 12.5q-62 -5 -125 -91q-2 -3 -5.5 -3t-6 3.5t-0.5 8.5q12 25 39.5 50.5t56.5 37.5q70 25 117 -11q46 -38 39 -108
q-7 -56 -41.5 -109t-83.5 -92q-56 -46 -125.5 -72t-146.5 -18.5t-130 59.5q-57 54 -77.5 133.5t-8 158t48.5 149.5q47 95 136 178t200 145q238 131 512 131q37 1 74.5 -1.5t81 -10t72 -12.5t79.5 -19.5t70.5 -19.5t78.5 -23t71 -22q61 35 146.5 58t146.5 9q35 -9 32 -32
q-3 -36 -55.5 -58t-97.5 -22q-62 0 -140 20zM2609 1579q8 -22 -4.5 -35.5t-34.5 -13.5q-24 0 -40 12t-21 31q4 -6 17.5 -6.5t17.5 8.5q5 12 -9 34.5t-41 32.5q-81 29 -176 -6t-180 -102q-164 -123 -373 -385q-121 -150 -172 -199q-66 -66 -168 -137q41 -28 59.5 -77.5
t16.5 -98t-16 -98.5q-21 -83 -101 -215q-5 -8 -14 -22.5t-15 -24.5t-15 -26t-14.5 -27t-13 -28t-10.5 -28.5t-7.5 -29t-3.5 -29.5t1 -29q4 -28 25.5 -42.5t50.5 -14.5q42 0 97 36t113.5 98t96.5 107t82 100q7 9 10 13t7 2.5t5 -5.5t-1 -7q-8 -11 -48.5 -61t-57.5 -70.5
t-51.5 -59.5t-65.5 -68t-64 -55q-120 -91 -197 -41q-38 24 -49.5 72.5t-2.5 99t33 113t44.5 104t44.5 82.5q2 5 17 31.5t20 36t17.5 35t15.5 39t9.5 37t4.5 38.5t-6 34t-15.5 34.5t-29.5 28.5q-63 -41 -135 -66q-121 -34 -154 4q-19 19 6 49q42 45 133.5 57t161.5 -18
q99 61 193 158q56 56 170 201q212 262 376 381q125 89 242 102q36 5 77 0.5t83.5 -26.5t58.5 -60zM1282 756q44 18 98 49q-49 25 -115.5 20t-117.5 -37q-38 -23 -29 -38q9 -18 45 -18t65.5 7.5t53.5 16.5zM1696 1495q-106 -6 -205 -61q141 -31 209 4q33 16 43 37q0 4 1 7
t-1.5 5t-4.5 3.5t-6.5 2.5t-7.5 1.5t-8 0.5h-8h-7h-5z" />
    <glyph glyph-name="L" unicode="L" horiz-adv-x="1503" 
d="M1804 1495q16 -46 -4.5 -116t-56.5 -134q-106 -197 -344 -399q-262 -218 -506 -305q-90 -133 -187 -239t-217 -183q144 -54 236 -80q125 -40 256 -16q147 28 287 125t237 229q5 5 10 0.5t1 -10.5q-70 -91 -144.5 -159t-175.5 -136q-129 -82 -240 -105q-136 -25 -260 21
q-37 13 -75 31t-88 45t-72 38q-80 -47 -177.5 -64.5t-193.5 1.5q-13 3 -25 7t-25.5 12.5t-17 19.5t0.5 28q12 31 63 56q61 28 127 28q12 0 25 -1t23.5 -2t25.5 -4.5t23 -5t25 -6.5t23 -6.5t25 -7.5t22.5 -7.5t24.5 -8.5t23 -8q95 61 167 147.5t160 221.5q-67 -17 -133 -23.5
t-137.5 -1.5t-137.5 32t-114 75q-46 43 -68.5 104t-17.5 127q9 120 89.5 225t193.5 156q127 55 245 8q58 -21 102.5 -67t57.5 -105q12 -62 -16 -131q-21 -49 -54.5 -85.5t-74.5 -37.5q-23 -1 -38.5 16t-12.5 40q4 27 23.5 44.5t41.5 20.5q-6 -2 -10.5 -19.5t4.5 -23.5
q26 -14 62 9.5t51 64.5q22 61 4 119q-19 58 -69.5 96t-113.5 51q-117 21 -217 -47q-110 -72 -170.5 -201.5t-19.5 -247.5q27 -76 88 -124t139 -63.5t157 -13t157 22.5q50 83 128 229t152 271.5t154 230.5q46 58 81 98t87.5 91t109.5 84.5t115 48.5t112.5 -4.5t73.5 -75.5z
M174 45q134 6 254 72q-133 59 -233 57q-56 -3 -115 -33q-82 -48 -20 -77q41 -19 114 -19zM1704 1212q30 53 44 79.5t30 76.5t14 92q-1 33 -19.5 55t-45 29.5t-57.5 5.5t-58 -14q-96 -42 -199 -170q-86 -106 -171 -245.5t-175 -297.5t-160 -262q99 39 211 105
q241 142 422 335q93 96 164 211z" />
    <glyph glyph-name="M" unicode="M" horiz-adv-x="2131" 
d="M2464 1585q3 -6 -3 -12.5t-18 -13.5l-12 -7q-55 -36 -98 -79q-152 -145 -324 -433q-138 -228 -252 -485q-66 -149 -96 -256q-11 -39 -16 -59.5t-13 -66t-3 -77.5t22 -51q38 -40 118 -14q33 11 70 35.5t66.5 51t67 67t59 67t55.5 69.5t45 56q5 5 10.5 0.5t-0.5 -10.5
q-13 -16 -49.5 -62t-68 -83.5t-73.5 -82t-87.5 -77.5t-89.5 -50q-70 -25 -123 2q-30 16 -44.5 53t-13.5 74.5t2 73.5q33 295 201 647q122 257 293 457q99 120 211 197q-124 -67 -305 -226q-172 -152 -385 -393q-138 -157 -224 -266q-102 -268 -190 -443q-31 -63 -66 -118
q-51 -76 -92 -68q-16 4 -23.5 15.5t-4.5 30.5t7 36.5t16 42.5t19 38.5t19 34.5l12 21q54 94 148 225q92 337 199 603q36 86 59 136.5t64.5 124t86.5 128.5q-3 -3 -84 -78q-172 -169 -360 -404q-51 -63 -106 -134.5t-122 -161.5t-102 -136q-72 -97 -112.5 -149t-111 -126.5
t-138.5 -123.5q-134 -95 -238 -119q-43 -11 -83 -12t-81 14.5t-67 48.5q-36 45 -33 111q3 63 38 123t89 71q26 6 41 -11t12 -42t-20 -45.5t-41 -21.5q6 4 10 18.5t-4 22.5q-11 6 -27.5 6t-36.5 -17t-32 -45q-19 -43 -9 -97t48 -83q45 -35 108.5 -36t129 26t120.5 60t102 71
q20 17 41 36.5t37 35t39 41t34.5 38t36.5 43t32.5 40t34.5 44.5t31 40.5t34 45t31 41.5q34 45 101 136.5t121 162.5t105 134q206 256 484 510q-10 -1 -87 -9.5t-96 -10.5t-84 -10t-96 -13.5t-83 -14.5t-94.5 -19t-84.5 -22q-265 -76 -467 -235q-220 -170 -270 -353
q-43 -150 26 -245q52 -63 148 -70q132 -12 235 84q49 43 76 98q35 69 25 121q-7 39 -42.5 57t-74.5 7q-53 -12 -100 -78q-9 -13 -16 -8q-3 4 -1 10q38 53 89.5 80.5t103.5 3.5q36 -16 49 -51t7.5 -69.5t-21.5 -68.5q-50 -110 -160 -170.5t-228 -40.5q-55 10 -98.5 44
t-66.5 85q-48 102 -17 236q49 198 266 350q107 77 232.5 133t267.5 91t258.5 54.5t274.5 37.5q4 1 64.5 7t90.5 11q6 5 28.5 24t32.5 27.5t28.5 22.5t35 23.5t33.5 17.5q81 37 115 10q15 -10 10.5 -24.5t-12.5 -24.5t-19 -19q-12 -10 -26.5 -18.5t-25 -13.5t-30.5 -11
t-27.5 -8t-32 -7.5t-28.5 -6.5q-31 -5 -76 -68q-9 -11 -17 -23t-16 -26.5t-14 -24.5t-14.5 -27.5t-12.5 -25.5t-13 -28t-11.5 -26.5t-12 -29t-11.5 -26.5q-40 -99 -105 -286.5t-92 -258.5q195 245 364 420q224 231 406 360q136 97 235 123q1 0 8.5 2t13.5 3t13 2t12 -0.5
t7 -4.5zM1174 256q3 9 43 143q-118 -168 -166 -284q-17 -40 -16 -72q1 -26 24 -14q10 6 20.5 17.5t18.5 23t17.5 30.5t15 31.5t13.5 35t11.5 32t10.5 32t8 25.5zM1919 1649q-66 -26 -160 -105q40 6 76 15q61 15 96 34q15 7 36.5 27t8.5 29q-18 13 -57 0z" />
    <glyph glyph-name="N" unicode="N" horiz-adv-x="1720" 
d="M3033 1624q29 -29 44 -68.5t5 -70.5q-6 -19 -24 -24.5t-35 5.5q-39 26 -27 72q0 -5 11.5 -14t19.5 -4t13 16t2 31t-21 41q-42 47 -117 61q-300 58 -706 -283q-183 -154 -386 -391q-170 -202 -329 -442q-16 -75 -43 -172q-4 -13 -16.5 -59.5t-18.5 -68t-18.5 -57
t-24.5 -63.5q-30 -72 -68 -108q-11 -11 -26.5 -18t-32 -4t-23.5 20q-3 9 -3.5 20t1 20t6 22t7 20t8.5 20.5t8 17.5q17 39 38.5 80t51.5 94t43 78q33 307 88 551q70 335 185 516q-13 -12 -38.5 -36t-37.5 -37q-183 -177 -363 -402q-51 -63 -106 -135t-120.5 -160.5
t-102.5 -136.5q-6 -8 -39.5 -53.5t-43 -58t-41 -53.5t-46.5 -58.5t-44 -51t-49.5 -53.5t-48 -45t-53.5 -45q-121 -91 -236 -123q-55 -20 -124.5 -11.5t-110.5 52.5q-41 47 -41 111q0 62 37 125t96 76q27 6 41.5 -11t11.5 -43q-3 -28 -19 -46t-40 -19q6 4 8.5 19t-6.5 22
q-17 9 -45.5 -2t-52.5 -54q-22 -38 -12.5 -91t44.5 -85q30 -27 73 -35t82.5 -2t80.5 21q112 38 223 127q28 23 56 49.5t57.5 60t50 56.5t53 65.5t46 60.5t49.5 67t45 61q254 343 325 430q181 223 363 399q54 54 129 119q-46 -4 -66 -6q-10 -1 -60 -6.5t-64 -7t-59 -6.5
t-64 -8t-58.5 -8.5t-63.5 -10.5t-58 -11.5t-63.5 -14t-58.5 -15.5q-267 -74 -469 -232q-223 -170 -276 -354q-38 -140 12 -227q33 -59 100.5 -81t140 -7t128.5 57q51 38 87 93.5t40 113.5q5 45 -23.5 75.5t-79.5 26.5q-64 -10 -112 -80q-10 -16 -18 -9q-4 4 1 11
q35 50 85.5 78t105.5 4q35 -16 47.5 -50.5t7.5 -69t-20 -68.5q-50 -108 -157 -168t-224 -45q-106 16 -160 104q-64 103 -33 246q43 206 273 369q86 61 187.5 109.5t195.5 79.5t211.5 56t209.5 38.5t215 27.5q86 9 166 21q71 71 150 110q27 14 61 21.5t54 -0.5q15 -7 17 -20
t-5.5 -25.5t-18.5 -22.5q-67 -54 -196 -76q-20 -5 -47 -39q-10 -15 -19.5 -31.5t-16.5 -30.5t-15 -33.5t-13 -32.5t-12 -35.5t-10.5 -33.5t-10 -36t-9 -34t-9 -36.5t-8.5 -34.5q-10 -43 -55 -258q-37 -196 -66 -319q116 177 250 346q181 226 373 403q238 220 446 304
q75 28 158 41.5t172.5 0t140.5 -64.5zM1329 145q23 68 39 213q-11 -21 -35 -66.5t-37.5 -72t-30.5 -66t-28 -73.5q-9 -24 -1.5 -44.5t32.5 -0.5q32 30 61 110zM1870 1647q-48 -25 -107 -80q4 1 23 4t25.5 4.5t23 5t25.5 6t23 7t26 9.5t24 11q1 1 9.5 6t14 9t12.5 10
t10.5 12.5t2.5 13.5q-10 19 -51.5 7t-60.5 -25z" />
    <glyph glyph-name="O" unicode="O" 
d="M1176 1268q40 -28 60.5 -70.5t21.5 -94t-5 -95.5t-20 -97q-64 -234 -246 -473q-188 -243 -399 -358q-191 -111 -348 -70q-112 30 -171.5 130.5t-66.5 226.5q-16 235 121 512q53 107 132.5 213.5t178.5 202.5t220 165t241 90q142 24 240 -39q41 -24 75 -73q3 -4 1.5 -7.5
t-4.5 -4.5t-5 1q-37 43 -47 52q-50 42 -114 53.5t-129 -5t-122 -43t-110 -63.5q-198 -137 -358 -393q-161 -258 -213 -485q-14 -63 -19.5 -123t0 -127.5t36 -123t85.5 -87.5q57 -33 130.5 -33t135.5 20t125 54q213 111 393 358q83 112 140 230q72 144 92 256q34 168 -27 254
q-58 82 -192 55q-104 -21 -195.5 -99.5t-136.5 -181.5q-18 -42 -26 -83.5t-0.5 -88.5t36.5 -78q31 -33 72.5 -37t77.5 12.5t69 45.5q78 68 105 156q4 11 6 28t1 36t-10 31.5t-26 10.5q-9 -1 -15.5 -16t-4.5 -19q-12 14 -13.5 38.5t8.5 43.5q11 19 31.5 22.5t34.5 -14.5
q37 -48 4 -157q-28 -89 -93.5 -156t-150.5 -78q-62 -6 -104.5 38t-48.5 108q-13 115 78 249q52 77 139 138q48 33 105 54t120 20.5t105 -31.5z" />
    <glyph glyph-name="P" unicode="P" horiz-adv-x="1433" 
d="M1446 1513q111 -28 193.5 -113t82.5 -198q1 -122 -80.5 -227.5t-201.5 -179.5q-114 -72 -234 -109q-104 -33 -180 -18q-33 7 -36 19q-1 3 4 4q8 1 24 -5q72 -22 176 16q116 39 217 121q47 38 86 81t72.5 96t51.5 107t17.5 116.5t-24.5 122.5q-25 54 -77.5 91t-117.5 56
q-57 -56 -108.5 -123.5t-96.5 -146t-78 -142.5t-79 -157t-74 -146q-134 -262 -285 -471q-177 -242 -374 -293q-59 -19 -128.5 -12t-119.5 45q-42 31 -58.5 79.5t-7.5 100.5q12 62 48.5 103.5t68.5 46.5q25 4 40.5 -11t12.5 -40t-20 -46t-41 -22q7 1 10 16t0 21q-5 10 -15 14
t-22.5 1t-24.5 -11t-23 -24t-17 -37q-15 -46 -0.5 -96t55.5 -81q50 -35 119 -37t125 23q107 40 185 128t151 218q34 62 122.5 231t141.5 259q19 32 64.5 108.5t69.5 115.5t68 105t79 108t83.5 91.5t98.5 87.5q-265 57 -572 -121q-116 -67 -208.5 -162t-151.5 -210
q-65 -126 -54 -236q7 -58 56 -85.5t108 -20.5q79 7 147 60t101 128q11 24 13 51.5t-9.5 52.5t-38.5 33q-44 12 -106 -24q-12 -8 -14 -3q0 4 4 9q54 37 100 35q30 -3 50.5 -22.5t25.5 -49.5q15 -90 -88 -193q-95 -98 -220 -104q-60 -2 -109.5 26.5t-68.5 81.5
q-28 71 -6.5 154t62.5 152.5t98 128.5q201 198 446 290q257 92 463 50q78 49 146 49h10.5t12 -1t10 -2.5t-0.5 -4.5q-75 0 -149 -48z" />
    <glyph glyph-name="Q" unicode="Q" horiz-adv-x="1265" 
d="M1176 616q-130 -198 -325.5 -344t-424.5 -219q120 -49 149 -57q138 -43 263 2q115 43 219 141q37 35 77.5 80t60 69t71.5 89q4 5 9 0t1 -10q-6 -7 -35.5 -44t-38 -47.5t-36 -43t-41 -46t-40 -41t-45.5 -42.5t-45.5 -36t-53 -37t-54.5 -30q-129 -58 -258 -35q-23 4 -46 10
t-49 15.5t-42.5 16t-48.5 20t-44 18.5q-12 -3 -36.5 -10t-36.5 -10q-154 -36 -244 -31l-18 2t-21.5 3.5t-20.5 6.5t-16 10.5t-7.5 15t5.5 19.5q23 38 109 53q110 21 211 -12q8 -3 23.5 -8t23.5 -8q120 39 239 110q195 114 347 286t233 376q52 128 77.5 242t8.5 219
q-20 99 -100.5 150.5t-188.5 43.5q-199 -17 -426 -223q-196 -181 -317 -420q-72 -141 -90 -252q-28 -168 28 -256q37 -56 95.5 -72t119.5 3t116 51t97 72q60 60 96.5 117t36.5 120q-3 45 -46 63t-81 -1q-35 -15 -47 -45t-2 -44q7 -8 20 -6t17 6q-5 -19 -22.5 -35t-38.5 -16
q-22 0 -36 15t-11 36q6 56 84 93q33 16 69 19t68 -15t39 -58q7 -59 -22 -113t-81 -116q-92 -102 -211 -145q-150 -55 -241 24q-82 74 -74 234q8 129 72 266q111 246 303 444q229 232 454 277q91 16 176 -3.5t142 -80.5q44 -48 67.5 -112t25.5 -132t-8 -132.5t-30 -129.5
q-57 -175 -153 -320zM37 23q84 -23 286 39q7 2 11.5 3.5t9.5 2.5q-106 36 -188 26q-77 -8 -121 -39q-8 -6 -11 -12t0 -11.5t13 -8.5z" />
    <glyph glyph-name="R" unicode="R" horiz-adv-x="1761" 
d="M1761 377q2 2 6 2t6 -3t-1 -9q-5 -6 -33 -41t-36.5 -45.5l-34 -42t-38.5 -44.5t-37.5 -39.5t-42 -41t-41 -34t-46 -34.5t-46.5 -27q-73 -30 -125 -12q-58 20 -61 94q0 20 2.5 41t5 38t9.5 40.5t10.5 36.5t14 39.5t14 35.5t17 38.5t16 35t18 37.5t16.5 35q16 31 22 43
t19 43t15 49t3.5 44t-8.5 47t-29 40q-113 -52 -215 -30q-23 5 -31 16.5t0 24.5t29 22q53 23 117 23t113 -27q123 60 210 191q87 132 82 251q-9 111 -100 179q-53 39 -121 61q-59 -62 -117.5 -145t-93.5 -143.5t-94 -167.5t-86 -154q-123 -234 -295 -471
q-88 -122 -179.5 -207.5t-205.5 -132.5q-141 -60 -254 -17q-60 23 -91 76t-21 117q9 56 41 108t79 62q26 6 41 -11t13 -42q-3 -29 -20.5 -47.5t-41.5 -20.5q5 4 8 18.5t-4 22.5q-21 21 -52.5 0t-43.5 -61q-33 -105 35 -168q46 -41 117.5 -46.5t126.5 17.5
q116 40 201.5 129.5t164.5 220.5q35 57 130.5 223t152.5 254q127 203 230 341.5t231 254.5q-203 57 -438.5 -2t-411.5 -202q-102 -85 -174 -191q-26 -38 -50 -89.5t-44 -113.5t-15.5 -121t39.5 -94q43 -42 111 -43t118 29q53 25 96 73t60 103q19 74 -23 111q-44 38 -106 4
q-13 -6 -27 -17q-9 -6 -13 1q-1 4 3 8q47 34 90 36q65 0 88 -63q17 -54 -12 -112t-78 -107q-99 -96 -223 -90q-60 2 -108.5 34t-65.5 87q-33 112 11.5 226t135.5 210q82 88 199 164q187 127 412.5 176t451.5 4q113 84 221 84q8 0 9 -4q1 -6 -17 -6q-100 -6 -184 -80
q97 -29 168.5 -85.5t99.5 -142.5q18 -69 9.5 -127.5t-46 -115.5t-82 -100t-98.5 -79q-68 -45 -127 -71q50 -35 66.5 -95.5t3.5 -125.5q-13 -56 -42.5 -114.5t-71 -126.5t-62.5 -110q-13 -27 -20 -55t-6 -55.5t23.5 -41t65.5 -5.5q45 13 91 41t79.5 55.5t77 75.5t65.5 75
t62 78q12 16 18 23zM1174 725q86 -14 184 33q-21 14 -45 20q-59 12 -121 -4q-40 -10 -49 -26q-5 -8 7 -14.5t24 -8.5z" />
    <glyph glyph-name="S" unicode="S" horiz-adv-x="1140" 
d="M1589 1532q9 -17 9.5 -43t-4 -50.5t-13 -52t-15.5 -45t-14 -32.5q-121 -255 -305 -430q-146 -146 -321 -211q-99 -199 -178 -312q-80 -117 -163 -200.5t-188 -126.5q-137 -56 -254 -15q-61 21 -98.5 67t-36.5 107q2 61 30.5 112t82.5 67q27 8 48.5 -5.5t18.5 -37.5
q-3 -26 -25 -46t-44 -22q5 4 8 17.5t-4 23.5q-7 5 -19.5 6.5t-32 -11.5t-32.5 -38q-25 -47 -15.5 -97t50.5 -87q45 -39 112 -50.5t125 3.5q57 13 108.5 43t94.5 73.5t76 86t69 98.5q67 105 158 315q-128 -24 -254 14t-198 135q-76 112 -54 242t119 221q47 45 108 73.5
t124 31.5q84 5 136.5 -43.5t45.5 -132.5q-1 -8 -5 -10.5t-7.5 1.5t-2.5 11q10 86 -55.5 131.5t-152.5 21.5q-103 -28 -173 -127.5t-83 -212.5q-14 -140 65 -227q67 -79 173.5 -107.5t219.5 -5.5q9 20 49 108.5t57 124t51.5 105.5t67 126t68.5 112q130 203 252 299
q33 24 73 39.5t84 9.5t64 -47zM1561 1372q12 31 16.5 65.5t1 66t-26.5 46t-63 2.5q-43 -13 -83 -45.5t-75 -82t-57 -87t-51 -92.5q-176 -336 -287 -557q90 37 172 94q201 139 348 385q77 130 105 205z" />
    <glyph glyph-name="T" unicode="T" horiz-adv-x="985" 
d="M2314 1628q4 6 8 1q2 -3 0 -5q-69 -101 -186 -140.5t-252 -27.5q-35 3 -76.5 10t-69.5 13.5t-78 19t-71 17.5q-63 -6 -119.5 -32t-104 -68.5t-85 -88.5t-76.5 -106q-85 -123 -200.5 -374t-176.5 -351q-136 -234 -278 -353q-110 -96 -232 -131q-150 -38 -241 33
q-43 28 -56.5 81t-1.5 99q18 68 55 112t72 46q26 1 41 -13.5t13 -39.5q-2 -23 -20.5 -44t-41.5 -22q3 0 6.5 7.5t3.5 17.5t-6 16q-7 7 -20.5 8t-34 -11.5t-37.5 -41.5q-28 -44 -23 -98.5t46 -91.5q44 -42 114.5 -46.5t126.5 19.5q178 63 320 293q65 110 159.5 304.5
t184.5 354t194 283.5q183 219 373 248q-376 76 -731 -2q-234 -59 -403 -228q-204 -204 -248 -401q-31 -158 43 -244q52 -59 133.5 -65t158 30.5t126.5 98.5q47 53 61 114q18 83 -12 115q-32 37 -73 31t-76.5 -32.5t-55.5 -59.5q-6 -6 -9.5 -1.5t-0.5 9.5q50 78 127 96
q31 5 59 -5t45 -34q29 -42 14 -112q-14 -60 -55 -114t-96 -93q-108 -77 -244 -64q-59 7 -106.5 42t-73.5 89q-41 77 -34.5 168.5t39 171.5t85.5 152q139 191 391 293q337 139 805 86q52 -6 148 -23t114 -20q21 -3 69.5 -9.5t76.5 -10t76 -8t80.5 -3.5t76 3.5t76 12.5
t67.5 24.5t64 38.5t53 56z" />
    <glyph glyph-name="U" unicode="U" horiz-adv-x="1644" 
d="M1214 53q15 -27 48.5 -29t65.5 13t54 37q142 146 263 303q6 6 11 -1q1 -5 -1 -9q-183 -234 -269 -314q-29 -27 -62.5 -42.5t-69.5 -11.5t-60 34q-22 27 -27.5 62.5t5.5 80t20 70t27 69.5q80 196 213 437q-91 -119 -148 -191.5t-143.5 -171.5t-167.5 -176
q-130 -120 -213 -168q-131 -74 -217 -27q-40 22 -59.5 66t-20.5 92.5t10.5 108t25 103.5t31.5 89q45 113 113.5 231t159 257.5t139.5 226.5q78 141 12 240q-32 51 -91 75.5t-126 24.5q-123 0 -240.5 -65.5t-209.5 -168.5q-88 -102 -152 -215q-76 -134 -76 -249
q5 -71 38.5 -119.5t101.5 -61.5q125 -23 241 68q51 42 85.5 101t33.5 118q0 73 -59 90q-59 18 -115 -31q-28 -24 -40 -63.5t13 -52.5q8 -4 20.5 3.5t16.5 14.5q0 -58 -41 -80q-21 -12 -41.5 -4t-27.5 35q-11 54 31 108t100 76q68 26 114 -4q50 -34 43 -108
q-6 -62 -41 -118.5t-88 -98.5q-111 -90 -249 -78q-65 5 -113 40.5t-70 96.5q-37 99 19 242q88 229 327 401q117 82 248 119t250 0q64 -21 108.5 -65t59.5 -105q27 -111 -35 -246q-53 -106 -182 -323.5t-191 -348.5q-77 -159 -94 -250q-3 -34 -1.5 -66.5t21.5 -60.5t56 -36
q92 -20 236 88q98 76 182.5 164.5t197.5 220.5q170 207 308 413q30 49 103.5 172.5t129 211.5t111.5 167q10 6 23.5 3t19.5 -15q6 -15 -4 -31q-53 -99 -342 -614q-68 -126 -265 -459q-71 -121 -88 -185q-18 -69 4 -110z" />
    <glyph glyph-name="V" unicode="V" horiz-adv-x="1466" 
d="M1718 1513q54 -35 54 -135q2 -187 -125 -440q-111 -228 -283 -434q-181 -223 -385 -369q-131 -93 -234 -121q-126 -36 -208 19q-90 63 -64 239q10 76 37.5 158t54.5 142t81.5 152t82.5 134l94 141q17 26 49 77.5t48 76.5q39 63 57.5 114.5t9.5 106.5q-12 68 -61.5 108.5
t-115.5 49t-133.5 0.5t-123.5 -31q-200 -86 -373 -350q-74 -118 -100 -215q-17 -52 -14.5 -103.5t19 -92t63.5 -62t118 -12.5q133 19 223 118q49 56 68 111q24 82 -14 123q-30 34 -69.5 28t-73 -30t-54.5 -55q-7 -11 -14 -6q-3 4 0 10q21 32 59 61t74 33q32 3 59.5 -9.5
t42.5 -39.5q26 -48 4 -119q-35 -109 -137.5 -180.5t-218.5 -71.5q-79 0 -133 47t-71 117t1 145q38 183 203 348q94 97 210.5 165t238.5 89q145 24 249 -32q116 -64 123 -209q1 -40 -9 -82.5t-37 -96.5t-40.5 -78t-50.5 -87q-3 -5 -70.5 -119.5t-93 -161t-76.5 -144
t-79.5 -172.5t-44.5 -141q-16 -81 0 -125q17 -41 56.5 -57t87.5 -10t91 20t82 33q101 49 221 150q209 176 367 395q172 234 252 457q57 151 57 268q0 40 -18.5 69t-40.5 17q-9 -5 -13 -23t0 -20q-18 11 -26.5 35t-1.5 51q6 24 25 32t44 -6z" />
    <glyph glyph-name="W" unicode="W" horiz-adv-x="2007" 
d="M2269 1536q31 -16 46.5 -63t13.5 -89q-4 -96 -33 -190t-80 -211q-95 -209 -256 -434q-181 -256 -356 -408q-127 -106 -222 -135q-61 -16 -117.5 3.5t-84.5 72.5q-20 38 -26.5 84t0.5 99.5t15.5 92t24.5 93.5q-10 -11 -52 -58.5t-55.5 -62.5t-52.5 -56.5t-59 -60t-57 -52
t-64.5 -53.5t-63.5 -43.5t-71 -41.5q-73 -34 -127 -21q-56 13 -82 66q-23 41 -25.5 101t12.5 128.5t38 138.5t56 144t61.5 131t58.5 112q21 37 43 74.5t49.5 80.5t44.5 69.5t51.5 79t46.5 71.5q77 115 51 213q-16 56 -64.5 93t-109.5 48q-121 21 -246 -29.5t-225 -150.5
q-95 -95 -168 -211t-104 -235q-39 -169 55 -226q61 -30 123 -26t121 33q117 59 174 172q34 71 22 122q-9 29 -35 46t-55 14q-52 -3 -102 -53q-14 -14 -27 -35q-3 -5 -8 -3.5t-4 7.5q21 36 55 62.5t75 34.5t79 -17q32 -23 38 -62t-5 -74t-31 -69q-63 -111 -180 -166
q-128 -60 -242 -18q-62 22 -94.5 77t-32.5 123q0 109 76 250q64 109 145 193q57 55 117.5 100.5t136 85t147.5 59t152 14.5t152 -42q54 -30 85 -83.5t34 -117.5q2 -41 -5 -81t-26.5 -83.5t-35 -71.5t-46.5 -79.5t-43 -73.5q-23 -41 -84.5 -149.5t-103.5 -185.5t-78 -152
q-6 -14 -27.5 -58.5t-30.5 -65.5t-23 -61.5t-17 -67.5t0 -62t16 -66q16 -37 56.5 -43.5t77.5 5t73 31.5q82 52 168.5 129t142.5 137.5t141 159.5q62 240 271 586q26 44 65 99.5t96 116.5t95 71q34 8 30 -31q-1 -12 -14 -55q-37 -95 -127 -240q-38 -65 -154 -231
q-17 -23 -51.5 -71t-52.5 -72q-82 -184 -119 -381q-9 -48 -13 -77t-1.5 -77t20.5 -76q28 -43 105 -31q57 11 119.5 49.5t104 75.5t103.5 99q180 177 334 418q166 256 240 462q4 12 14 43l15 46.5t12 44t9 48t2 44.5t-5 47q-9 44 -37 60q-18 11 -29 -5q-4 -6 -6 -17t2 -18
q-18 11 -26.5 37t-1.5 49q6 23 24.5 32.5t38.5 0.5zM1681 1294q-138 -211 -292 -571q22 34 84 121t96 141q45 68 64 97.5t51.5 88.5t52.5 111q24 63 2 65q-22 1 -58 -53z" />
    <glyph glyph-name="X" unicode="X" horiz-adv-x="1675" 
d="M1819 1501q42 -27 55 -79t4 -109q-15 -103 -82 -185q-45 -57 -104 -87.5t-107 -16.5q-23 7 -28.5 27.5t6.5 38.5q27 46 86 30q-6 2 -18 -12t-5 -23q10 -14 37.5 -15.5t69.5 22.5q45 31 88 108q20 38 31.5 77.5t11 85t-18.5 81.5q-22 41 -66 51.5t-84 1.5t-83 -29
q-84 -34 -197 -141q-242 -225 -471 -663q-67 -126 -100 -220q-55 -149 -31 -266q14 -63 55.5 -106.5t102.5 -53.5q118 -19 243 72q79 57 160 156q125 146 182 348q13 47 17 89t-3.5 83.5t-42.5 63t-95 14.5q-106 -10 -228 -113q-108 -94 -143 -207q-24 -70 -4 -129
q10 -28 36 -41t58 -10q57 6 109 51q27 24 43 45q4 4 8.5 0.5t1.5 -8.5q-94 -115 -193 -102q-35 5 -56 28t-26 54.5t-2 63.5t13 61q35 105 143 202q42 37 98 67.5t118 48t117.5 -3t82.5 -83.5q43 -100 -4 -239t-138 -248q-182 -220 -383 -271q-59 -17 -124.5 -6t-110.5 53
q-126 135 -55 414q-165 -227 -349 -358q-127 -89 -233 -109q-67 -13 -123 11.5t-74 86.5q-19 65 19 150q24 52 83 93.5t107 35.5q30 -4 37 -26.5t-8 -43.5q-11 -19 -35 -31t-47 -8q6 0 16.5 14.5t3.5 22.5q-7 11 -25.5 15.5t-45 -4.5t-47.5 -33q-58 -68 -49 -158
q10 -69 63 -98q55 -28 127 -11q96 20 223 130q134 121 241.5 279t223.5 382q33 60 80 160q28 61 45 121.5t22 129.5t-21.5 130.5t-84.5 101.5q-103 68 -250 16q-169 -60 -313 -268q-31 -45 -58 -104.5t-47 -129t-15 -137t40 -112.5q35 -42 94.5 -54t110.5 7q60 19 110 64.5
t84 105.5q36 66 41 123q2 32 -11 58t-42 34q-76 19 -164 -86q-3 -4 -6.5 -4t-5 3.5t1.5 8.5q6 10 15.5 20.5t17 16.5t14.5 11.5t8 6.5q59 45 113 37q28 -4 47.5 -23t24.5 -44q9 -45 -15 -115q-30 -78 -92.5 -141.5t-143 -92.5t-167.5 0q-62 23 -96 75t-39 116t9 130.5
t44 125.5q49 96 132 182t173 141q135 80 252 80q139 0 219 -102q107 -136 53 -367q141 200 322 340q101 75 209 119q132 57 207 6z" />
    <glyph glyph-name="Y" unicode="Y" horiz-adv-x="1574" 
d="M1864 1456q14 21 37 11.5t16 -33.5q-334 -629 -770 -1416q296 185 428 359q6 8 11 -1q2 -4 -1 -9q-162 -200 -452 -375q-29 -51 -109 -203t-143 -255t-138 -196q-19 -24 -37.5 -45t-44.5 -47t-51.5 -43.5t-52 -29.5t-52.5 -9t-48 21q-42 34 -29 113q40 200 266 415
q35 30 79.5 63t70 50t89 57t77.5 49q65 127 71 138q7 14 123 229q12 22 37 67t37 68q118 220 213 391q-5 -6 -49 -65t-52 -69.5t-48 -63.5t-53.5 -69t-50 -62.5t-55.5 -67.5t-53 -60t-58.5 -64.5t-56 -56.5t-61.5 -59q-122 -113 -213 -157q-121 -63 -202 -6q-86 58 -64 229
q9 55 25.5 113.5t33 104.5t46.5 108t49 99t59 103.5t57.5 94.5t64 100.5t60.5 93.5q3 5 21.5 33t24 37.5t22 37.5t22 42t16 40.5t12 43t2.5 41t-5.5 43t-18 39t-30.5 38.5q-43 42 -108 57t-132 7q-120 -11 -241 -90q-202 -132 -334 -396q-67 -142 -49 -253q10 -58 49.5 -95
t97.5 -45q64 -7 127.5 15.5t112.5 66.5t81 102.5t29 116.5q-3 32 -21.5 55t-49.5 29q-60 9 -107 -35q-15 -14 -28 -39t-14.5 -47.5t18.5 -29.5q10 -3 23 6t13 14q8 -57 -41 -82q-22 -11 -43 -2t-24 33q-7 55 38 110.5t103 77.5q67 25 113 -18q44 -39 29 -115
q-10 -59 -47 -114t-89 -93q-48 -36 -111 -54.5t-124 -16t-112.5 37t-74.5 97.5q-38 103 21 256q72 176 230.5 319t344.5 189q152 41 269 -8q60 -23 99 -71.5t50 -111.5q20 -112 -43 -231q-12 -21 -90.5 -156t-104 -180.5t-81.5 -150t-93 -186.5t-69 -167
q-11 -34 -16.5 -56.5t-10.5 -59.5t6 -65.5t37 -45.5q29 -19 65.5 -19.5t67 9.5t69.5 34t61.5 41t54.5 44q74 60 192 188q176 196 346 430q86 117 205 301q156 267 199 334q6 9 17.5 26.5t17.5 26.5zM961 -164q6 13 18 36.5t18 35.5q-120 -73 -219 -148q-112 -83 -192 -184
q-89 -114 -123 -213q-27 -74 -14 -129q9 -31 35 -41t55 2q24 10 46.5 30t35.5 38t32.5 48t30.5 44q136 212 277 481z" />
    <glyph glyph-name="Z" unicode="Z" horiz-adv-x="1456" 
d="M2007 1477q13 -21 -18 -47q-11 -9 -23 -16t-26 -11l-24.5 -7t-28.5 -3t-26.5 -1t-29 1t-26.5 3t-28.5 4t-25.5 3q-30 -22 -60.5 -49.5t-53 -49.5t-55 -59t-48 -56t-52 -63t-48.5 -59q-150 -186 -367 -420q-84 -91 -144.5 -152t-144.5 -137t-171 -135t-179 -102
q151 -76 303 -103q124 -17 249 13t228 102q43 26 122.5 103.5t125.5 140.5q4 5 9 0t1 -10q-74 -94 -130.5 -152.5t-139.5 -122.5q-115 -85 -230 -121.5t-245 -7.5q-24 5 -47.5 12t-49 18t-43 18.5t-47 23.5t-42 23t-46.5 26.5t-43 24.5q-184 -75 -294 -41q-33 9 -57 28.5
t-23 48.5q0 27 23 48t52 30q55 18 127 -8q38 -14 160 -76q63 32 126 77.5t110.5 87t109.5 107.5t98.5 108t103.5 121t99 116q198 228 371 401q60 60 94 93t90.5 80.5t108.5 82.5q-23 5 -175 46t-233 50q-291 37 -522 -96q-182 -107 -301 -287q-85 -124 -90 -245
q-2 -66 23 -124t77 -87q35 -19 80.5 -20.5t86 9.5t77.5 31q56 29 100 77.5t62 106.5q21 74 -13 113q-19 22 -51 25.5t-59 -8.5q-31 -12 -56 -56t-3 -71q8 -8 23 1t15 15q2 -21 -10.5 -44.5t-36.5 -33.5q-24 -8 -43 2t-22 37q-7 64 64.5 123t135.5 47q29 -4 49 -25t25 -51
q10 -58 -20 -115.5t-80 -103.5q-95 -85 -223 -98q-63 -6 -118.5 20.5t-88.5 81.5q-43 68 -45.5 154t25.5 162.5t77 144.5q135 183 364.5 271t467.5 65q91 -8 255 -52.5t199 -52.5q128 82 242 72q37 -5 47 -20zM131 76q96 -13 238 53q-65 41 -136 68q-73 28 -120 14
q-26 -7 -48.5 -27.5t-21.5 -44.5t29 -41t59 -22zM1989 1448q22 27 -28 29q-21 1 -58 -4q-60 -10 -136 -58q70 -12 105 -12q80 0 117 45z" />
    <glyph glyph-name="bracketleft" unicode="[" horiz-adv-x="935" 
d="M1090 1382q11 0 15.5 -8.5t0 -17t-15.5 -8.5h-281q-48 -94 -725 -1379h285q11 0 16 -8.5t0.5 -17.5t-16.5 -9h-310q-26 0 -36 23t2 45q107 197 355 673t357 679q14 28 41 28h312z" />
    <glyph glyph-name="backslash" unicode="\" horiz-adv-x="1085" 
d="M526 1411q-1 10 7.5 18t18 4.5t11.5 -22.5q12 -96 75.5 -609t100.5 -784q1 -12 -8 -18t-18.5 -2.5t-10.5 14.5q-29 232 -87.5 699t-88.5 700z" />
    <glyph glyph-name="bracketright" unicode="]" horiz-adv-x="931" 
d="M33 -68q-17 0 -17 17.5t17 17.5h280q48 94 725 1379h-284q-11 0 -16 8.5t-0.5 17t16.5 8.5h309q26 0 36.5 -22.5t-1.5 -44.5q-108 -198 -356.5 -674.5t-356.5 -677.5q-15 -29 -41 -29h-311z" />
    <glyph glyph-name="asciicircum" unicode="^" horiz-adv-x="600" 
d="M420 1606q5 -3 3.5 -6t-5.5 -3q-31 0 -49 33q-4 6 -8 19.5t-5 15.5q-61 -35 -106 -47q-70 -23 -96 -21q-7 0 -7 4q2 5 9 7q88 17 182 88q7 5 19 15t14 11q19 9 24.5 1t3.5 -25q-5 -43 0 -62q3 -9 11 -18t10 -12z" />
    <glyph glyph-name="underscore" unicode="_" horiz-adv-x="1120" 
d="M760 0h-651q-19 0 -23 4q-10 10 -3.5 20.5t19.5 10.5h658q11 0 16 -8.5t0.5 -17.5t-16.5 -9z" />
    <glyph glyph-name="grave" unicode="`" horiz-adv-x="608" 
d="M430 602q-97 12 -151 35q-103 41 -72 80q15 15 31 8q5 -1 8.5 -4t7.5 -9.5t6 -9.5q55 -62 172 -90q4 -2 3.5 -6t-5.5 -4z" />
    <glyph glyph-name="a" unicode="a" horiz-adv-x="583" 
d="M328 80q131 134 256 297q6 6 11 -1q1 -5 -1 -9q-156 -199 -262 -308q-84 -80 -135 -51q-54 32 -7 146q-26 -34 -44.5 -56.5t-49 -47.5t-61.5 -38q-67 -27 -111 6q-45 37 -41 121q3 57 30.5 118t68.5 110q99 114 215 133q79 12 106 -37q17 -35 6 -90q10 18 30 48t26 40
q9 15 26.5 19t32.5 -5q32 -21 8 -67q-17 -27 -50 -81t-50 -81q-52 -76 -88 -148q-20 -46 7 -53q29 -5 77 35zM45 39q79 33 162 162q76 121 90 168q9 38 -4 72t-51 34q-52 0 -111 -55q-64 -56 -117 -142t-67 -169q-9 -66 37 -76q27 -5 61 6z" />
    <glyph glyph-name="b" unicode="b" horiz-adv-x="501" 
d="M684 1327q25 -35 6 -121q-22 -96 -117 -235q-70 -104 -165 -217q-194 -227 -363 -394q-68 -165 -80 -200q-30 -88 -10 -123q28 -41 102 14q53 43 90 86q52 59 142 180q-28 36 -17 86q5 29 24.5 55t45.5 36q33 13 50 -9t14 -55q-7 -52 -52 -129q21 -5 52 3t53 28
q27 24 43 45q4 7 10 -1q2 -5 0 -9q-31 -42 -72 -66q-46 -27 -94 -16q-60 -92 -147 -176q-49 -43 -105 -78q-69 -40 -119 -27q-49 14 -61 90q-8 88 17 177.5t77 207.5q190 411 402 699q80 110 161 153q81 42 113 -4zM586 1018q140 225 80 295q-8 8 -19 8.5t-22 -4.5
t-24 -14.5t-23.5 -20t-22 -23t-18.5 -21.5t-13 -17q-221 -317 -463 -820q125 125 193 201q222 241 332 416zM319 459q-27 -22 -34.5 -60.5t12.5 -68.5q43 58 59 98q15 37 6 43q-11 5 -23 0.5t-20 -12.5z" />
    <glyph glyph-name="c" unicode="c" horiz-adv-x="446" 
d="M446 377q4 3 8 1.5t4.5 -5t-1.5 -6.5q-98 -122 -160 -191q-100 -108 -176 -147q-32 -18 -66.5 -25.5t-71 1t-57.5 38.5q-23 32 -29 76t3 84.5t28 77.5q37 74 101 131.5t145 81.5q21 6 48 7.5t54.5 -2.5t44.5 -22t13 -47q-7 -37 -35 -72q-36 -41 -66 -41q-17 0 -26.5 11
t-7.5 26q1 15 15 29t28 16q-4 -4 -5 -13t5 -15q25 -16 56 14.5t26 58.5q-4 29 -32.5 37.5t-58.5 1.5q-96 -27 -186 -174q-58 -87 -78 -176q-17 -78 31 -100q45 -19 121 14q53 26 97.5 67.5t98.5 104.5q97 115 129 158z" />
    <glyph glyph-name="d" unicode="d" horiz-adv-x="575" 
d="M360 121q140 155 215 256q5 5 10 0.5t1 -10.5q-116 -152 -238 -283q-11 -11 -16.5 -17t-18.5 -18.5t-22 -19.5t-22 -15.5t-23 -11.5t-21 -2.5t-20 6.5q-19 17 -22.5 48t0 48t12.5 56q-29 -38 -47 -59.5t-49 -47t-64 -39.5q-67 -27 -111 6q-45 37 -41 121q6 116 92 219
q108 123 220 142q79 12 106 -37q14 -24 10 -60q239 468 541 914l7 10.5t10 12.5t10 8q23 13 40 -6.5t3 -41.5q-226 -353 -385 -641q-24 -44 -71 -129t-76 -139t-65.5 -129.5t-62.5 -140.5q-21 -52 2 -60q27 -9 96 60zM281 344q8 17 12 38t2.5 42.5t-15.5 36t-40 14.5
q-44 0 -95 -40.5t-91 -98t-69.5 -120t-37.5 -107.5q-9 -66 37 -76q27 -5 61 6q82 34 160 156z" />
    <glyph glyph-name="e" unicode="e" horiz-adv-x="446" 
d="M446 377q5 5 10 0.5t1 -10.5q-5 -6 -32 -40.5t-34.5 -43t-32 -39t-36 -42t-34.5 -36.5t-39 -39t-38 -33t-43.5 -33.5t-44.5 -27.5q-117 -66 -184 -6q-33 29 -43 77t1 98t37 95q65 113 185 174q81 41 139 29q37 -7 61 -33q20 -23 17.5 -53.5t-23.5 -59.5
q-61 -81 -196 -118q-58 -14 -117 -11q-9 -23 -13 -33t-12 -35.5t-7.5 -40t2.5 -33.5t15 -30.5t35 -17.5q72 -11 179 74q65 54 159 159q12 14 33 40.5t33 39.5zM135 432q-89 -100 -129 -192q28 0 64 4q39 3 78 24t65 49.5t46.5 60t23 56.5t-6.5 39q-12 12 -32 12
q-49 2 -109 -53z" />
    <glyph glyph-name="f" unicode="f" horiz-adv-x="401" 
d="M733 1337q21 -23 21 -65.5t-11.5 -78.5t-27.5 -69q-45 -97 -137 -227q-61 -86 -164 -209q-179 -213 -336 -350q-176 -332 -248 -475q-5 -9 -32.5 -66t-35 -72t-31.5 -66t-33.5 -73.5l-28.5 -67.5t-29.5 -75.5t-23.5 -69.5t-22 -75q-9 -41 3 -60q11 -15 49.5 15.5t84 84
t76 92t43.5 56.5q187 255 269 465q56 144 67 227q-28 -6 -55 0q-31 7 -42 33t-1 57q8 28 33 46.5t51 7.5q45 -21 35 -121q90 37 194 176q2 3 6 2.5t5.5 -4t-0.5 -8.5q-40 -51 -61 -75.5t-62.5 -58.5t-83.5 -49q-11 -87 -68 -233q-93 -232 -270 -471q-97 -131 -176 -207
q-21 -21 -51 -43t-43 -21q-23 1 -34.5 23.5t-11.5 50.5q1 64 19 137.5t36.5 123.5t53.5 134.5t49 122.5q100 228 246 514q146 278 268 486l54 90t60.5 100t53 85t65.5 97.5t64 83.5q23 28 61 56t82 41.5t70 -17.5zM729 1210q5 16 7.5 38.5t-4.5 46t-27 28.5q-23 5 -51.5 -15
t-63.5 -67t-48 -67.5t-41 -66.5q-5 -8 -7 -11q-225 -399 -394 -715q2 2 71.5 68.5t107.5 109.5q189 202 327 410q31 47 50 77.5t40.5 76.5t32.5 87zM98 236q3 -23 23 -37q30 -17 67 -2q13 91 -22 108q-23 10 -49 -16q-19 -22 -19 -53z" />
    <glyph glyph-name="g" unicode="g" horiz-adv-x="555" 
d="M555 377q2 2 5.5 2t5.5 -3t-1 -9q-54 -66 -88.5 -106.5t-86 -95t-103 -97t-105.5 -76.5q-8 -15 -38.5 -72t-41.5 -77.5t-37.5 -69.5t-43 -77.5t-40 -69t-45.5 -75.5t-45 -69q-203 -315 -337 -291q-32 6 -47.5 30t-14 58t8 63.5t16.5 55.5q29 77 106 184
q70 91 160.5 161.5t224.5 156.5q23 15 53 32q13 24 27 52t33.5 66t32.5 63q-61 -76 -123 -101q-69 -28 -111 6q-45 37 -41 121q3 57 30.5 118.5t67.5 109.5q42 50 99 86.5t117 46.5q76 12 106 -37q15 -29 8 -72q5 9 14 25.5t16.5 29.5t16.5 23q20 14 44.5 4t27.5 -33
q3 -16 -29 -69q-14 -25 -46.5 -81.5t-47.5 -82.5q-18 -32 -106 -189q167 111 358 359zM8 -168q3 5 18.5 33.5t22.5 44.5q-184 -114 -268 -186q-86 -74 -154 -166q-137 -191 -110 -306q7 -33 37.5 -40t60.5 8q19 9 39 29t32 36t32 47.5t26 40.5q117 178 264 459zM41 39
q74 32 154 149q30 52 66.5 123t33.5 88q2 32 -12.5 54t-46.5 22q-48 0 -111 -55q-64 -59 -116 -143.5t-66 -167.5q-6 -48 21.5 -66t76.5 -4z" />
    <glyph glyph-name="h" unicode="h" horiz-adv-x="565" 
d="M733 1288q-1 -42 -15.5 -88t-30 -75.5t-44.5 -80.5q-193 -313 -567 -669q-8 -17 -30.5 -59t-33.5 -66q59 67 140 145q60 56 106 80q76 39 111 19q26 -19 29.5 -53.5t-7 -63.5t-26.5 -58q-11 -20 -67.5 -105t-80.5 -134q-17 -33 6 -39q23 -5 56 22q134 118 284 314
q3 3 6.5 2t5 -4.5t-1.5 -7.5q-176 -224 -303 -330q-76 -57 -110 -23q-25 25 -17 72q10 45 37.5 99t69 120.5t57.5 97.5q39 74 -3 69q-40 -5 -108 -56l-16 -13q-99 -84 -207 -227q-36 -74 -77 -145q-22 -38 -51 -29q-23 8 -21 33q0 8 4 16q219 491 465 907q15 24 46 74
t50.5 80.5t48 70.5t58.5 72.5t63 59.5q67 47 113 47q31 1 46 -20.5t15 -53.5zM707 1206q19 72 4 105q-19 25 -44.5 17t-61.5 -48.5t-56.5 -68.5t-30.5 -44q-41 -65 -84.5 -140t-96 -168.5t-81.5 -143.5q-82 -150 -160 -305q150 142 320 348q86 102 162 213q99 140 129 235z
" />
    <glyph glyph-name="i" unicode="i" horiz-adv-x="262" 
d="M147 641q-15 8 -19.5 27.5t5.5 38.5q7 17 26 24.5t34 -0.5q36 -19 16 -65q-9 -19 -27 -26t-35 1zM272 367q-69 -88 -135 -166q-10 -11 -52.5 -61t-70.5 -78t-55 -46q-55 -33 -92 -4q-29 25 -12 82q15 40 37 87.5t39 81t45.5 88.5t41.5 81q30 59 45 66q20 9 39 -2t19 -33
q0 -15 -25 -55q-11 -20 -77.5 -135.5t-96.5 -176.5q-14 -22 -7.5 -40t38.5 -11q31 11 53 33q92 94 256 299q6 8 11 -2q1 -5 -1 -8z" />
    <glyph glyph-name="j" unicode="j" horiz-adv-x="385" 
d="M385 377q2 2 5.5 2t5.5 -3t-1 -9q-56 -68 -89 -107t-85.5 -95t-104 -98t-106.5 -75q-15 -27 -42.5 -80t-41.5 -80q-161 -300 -278 -457q-37 -45 -56.5 -66.5t-56.5 -53.5t-72 -50q-76 -33 -116 7q-37 40 -21 118q22 127 156 285q28 33 63.5 66.5t60 55t75.5 57.5t66.5 47
t79.5 52t71 46q98 189 227 428q24 54 25 69q2 27 -31 19q-25 -6 -45 -23q-21 -14 -64 -65q-8 -9 -12.5 -4t2.5 14q25 34 59 65q72 62 107 60q19 -1 31 -9t16 -22.5t5 -28t-4 -34t-8 -31.5t-9 -29q-59 -149 -166 -325q66 41 134 105.5t110.5 114t109.5 134.5zM-465 -686
q123 178 350 598q-165 -99 -268 -182q-137 -115 -221 -260q-15 -29 -22 -43.5t-18.5 -43t-15 -48t-3.5 -45.5t8 -48q12 -29 45.5 -32t58.5 12q11 6 20.5 13.5t19 18.5t15.5 18.5t16.5 22t14.5 19.5zM221 643q-15 8 -19.5 27.5t5.5 38.5q7 17 25.5 24.5t33.5 -0.5
q37 -19 17 -65q-9 -19 -27 -26t-35 1z" />
    <glyph glyph-name="k" unicode="k" horiz-adv-x="567" 
d="M733 1282q0 -55 -23.5 -112.5t-66.5 -131.5q-113 -186 -332 -426q-147 -163 -233 -239q-12 -24 -36 -71.5t-36 -70.5q12 17 25.5 35t35.5 46t45.5 52.5t50.5 51t54.5 44.5t54.5 30.5t53 11.5t48 -15q50 -36 35 -106q-21 -99 -185 -156q7 -13 4.5 -39.5t-5 -38.5
t-9.5 -39.5t-10 -41.5q-4 -27 12 -31q7 -1 15 0.5t17 6t15.5 8.5t16.5 12t14.5 11.5t15.5 13t13 11.5q100 91 245 279q5 5 10 0.5t1 -10.5q-4 -5 -32.5 -41t-35.5 -45t-32.5 -40t-36.5 -43.5t-34 -38.5t-38.5 -42t-36.5 -36t-41 -38q-49 -45 -90 -43q-31 3 -44.5 29.5
t-11.5 60.5q0 53 29 127q-21 -4 -46 3.5t-32 27.5q-6 14 3 28t24 21q27 12 53 -1.5t39 -41.5q100 68 131 137q9 18 10.5 36.5t-9.5 33t-36 14.5q-35 0 -75.5 -23.5t-66 -48t-58.5 -61.5q-62 -71 -152 -205q-10 -18 -30.5 -54.5t-30.5 -53.5q-10 -19 -19 -25q-22 -12 -40.5 5
t-8.5 40q218 488 463 903q19 28 58.5 92.5t63 100.5t63.5 83.5t81 80.5q67 47 115 47q30 1 43.5 -20.5t15.5 -53.5zM707 1206q21 66 6 105q-8 21 -27 20t-34.5 -11.5t-28.5 -23.5q-24 -24 -47.5 -53t-39.5 -51t-40 -60.5t-34 -56t-36 -63.5t-33 -58q-207 -366 -297 -544
q150 142 320 348q239 284 291 448zM180 238q5 22 -10.5 39.5t-40.5 9.5q-13 -5 -20.5 -16.5t0.5 -24.5q19 -21 71 -8z" />
    <glyph glyph-name="l" unicode="l" horiz-adv-x="321" 
d="M659 1356q46 -19 37 -105q-5 -51 -37 -121q-38 -85 -139 -227q-64 -89 -166 -211q-144 -176 -340 -381q-39 -81 -69 -162t-19 -100q19 -35 97 6q44 27 88.5 69t68.5 71t74 94.5t68 87.5q3 3 6.5 2t5 -4.5t-1.5 -7.5q-21 -26 -72.5 -94t-80 -102.5t-77.5 -80.5t-98 -74
q-69 -35 -108 4q-37 37 6 203q47 143 125 304.5t140 269t169 282.5q37 59 60.5 92.5t64 78.5t82.5 73q72 47 116 33zM678 1227q10 70 -10 94q-31 37 -99 -39q-51 -68 -104 -149.5t-90 -142t-93.5 -164.5t-79.5 -148.5t-86 -168t-79 -153.5q5 6 16.5 17.5t16.5 17.5
q58 62 166 182q211 244 327 418q3 5 19 30t21 34t18.5 31t19.5 35.5t14.5 33t14 37t8.5 35.5z" />
    <glyph glyph-name="m" unicode="m" horiz-adv-x="858" 
d="M858 377q4 5 8.5 0.5t1.5 -10.5q-21 -25 -62 -78t-63 -78q-3 -3 -10 -12q-24 -29 -40.5 -48.5t-51.5 -55t-61 -55.5t-57.5 -32.5t-53.5 -3.5q-34 13 -37 57q-2 41 31 117q12 25 59 107q7 12 38 63t46 80q18 35 2 41q-35 14 -106 -47q-63 -56 -137 -172
q-20 -37 -59 -111.5t-58 -111.5q-20 -38 -60 -25q-20 8 -24 29t6 39q35 75 104 192q39 63 64 109q31 65 31 90q-3 10 -10 13t-18 -1.5t-20 -9t-22 -14.5t-17.5 -13.5t-11.5 -9.5q-17 -15 -32 -33.5t-35.5 -48t-26.5 -37.5q-99 -136 -184 -278q-27 -44 -66 -25q-22 13 -22 39
q0 16 14 37q72 113 154 246q78 128 51 139q-6 1 -14.5 -2.5t-14 -8.5t-15 -13.5t-11.5 -10.5q-45 -45 -58 -63q-7 -8 -12.5 -4.5t2.5 14.5q26 34 68 78q13 13 27.5 23t32.5 18t34.5 4t27.5 -21q8 -13 9.5 -32t-2 -36t-12.5 -40t-15.5 -37t-17.5 -35q80 113 129 156
q65 56 108 45q78 -26 12 -166q54 63 72 80q18 18 41.5 36t54 35t58 16.5t43.5 -24.5q16 -23 4 -69q-14 -49 -73.5 -147t-74.5 -130q-32 -64 -26 -76q7 -15 21 -16.5t32.5 9.5t37 25.5t39 36t35 37t29.5 33t17 19.5q66 75 147 178z" />
    <glyph glyph-name="n" unicode="n" horiz-adv-x="647" 
d="M647 377q6 6 11 -1q1 -5 -1 -9q-14 -17 -39.5 -49.5t-46.5 -58t-41 -48.5q-102 -123 -163 -170q-63 -54 -111 -37q-35 15 -35 57q3 48 24 101.5t46 93.5t58 94.5t50 93.5q9 22 -18 29q-46 11 -131 -74q-57 -55 -137 -170q-16 -29 -123 -198q-27 -44 -64 -25
q-24 14 -24 39q0 7 14 35q76 123 156 246q3 4 5.5 7.5t10 16l13.5 22.5t13.5 24.5t11.5 25t6.5 20.5t0 15.5t-9.5 5.5q-22 0 -55 -33q-15 -13 -58 -63q-8 -10 -14 -6.5t4 16.5q32 40 68 78q18 19 39.5 32t45 13.5t37.5 -19.5q7 -12 8.5 -27.5t-3.5 -36.5t-12.5 -42
t-20.5 -53q50 62 82 94q49 46 92 69q38 18 70 16.5t48.5 -30t4.5 -72.5q-17 -49 -64.5 -133t-80.5 -144t-25 -71q11 -11 24 -12.5t32.5 10.5t37 26.5t37.5 35.5t34.5 37t28 31.5t17.5 19.5q66 75 147 178z" />
    <glyph glyph-name="o" unicode="o" horiz-adv-x="475" 
d="M475 377q3 5 9.5 1t0.5 -11q-92 -114 -163 -127q-52 -117 -164 -195q-32 -22 -68 -35t-77 -10t-68 31q-28 29 -37 75t-2 90.5t24 82.5q39 90 119 152t174 71q72 8 109 -29q13 -13 19.5 -38t-1.5 -54q-1 -3 -3.5 -3t-4.5 2t-2 5q7 48 -21 76q-41 35 -104.5 4t-110.5 -82
q-79 -87 -133 -223q-31 -81 -6 -119q16 -24 47 -27.5t54 9.5q25 12 51.5 38t55.5 66t43 61t40 62q-25 14 -31 37q-7 27 7.5 54t39.5 40q18 11 36.5 7.5t27.5 -23.5q16 -40 -8 -109q72 20 147 121zM240 289q8 -20 24 -29q16 24 30 67q15 50 -15 40q-22 -8 -34 -32t-5 -46z
" />
    <glyph glyph-name="p" unicode="p" horiz-adv-x="647" 
d="M647 377q6 6 11 -1q1 -5 -1 -9q-21 -25 -65.5 -81t-72.5 -90.5t-71 -79.5t-83 -77q-61 -53 -111 -35q-37 17 -38.5 60.5t25 99t58 108.5t62 102t36.5 68q9 22 -18 29q-46 11 -131 -74q-57 -55 -137 -170q-57 -104 -239 -450t-290 -535q-4 -6 -11 -18.5t-11 -18.5
q-10 -21 -34.5 -16t-27.5 29q-1 10 13 39q99 179 310.5 588t248.5 479l5 10q5 9 10.5 19t13 25.5t12.5 27.5t9.5 25.5t4 20t-3.5 9.5q-16 6 -55 -33q-32 -28 -56 -61q-7 -8 -13.5 -5.5t3.5 15.5q36 46 66 76q43 49 79 49q34 0 45 -29t2 -69.5t-32 -84.5q54 67 82 95
q137 130 207 69q25 -23 8 -86q-17 -50 -63 -132t-79 -141t-28 -71q25 -62 190 122l1 1l1 1l2 1l17 19q88 100 149 180z" />
    <glyph glyph-name="q" unicode="q" horiz-adv-x="581" 
d="M582 377q2 4 8 1t2 -11q-100 -130 -209 -252q-6 -6 -16.5 -17.5t-19.5 -21.5t-22 -22t-24 -21t-25 -17.5t-26.5 -12.5t-27 -3.5t-27.5 6.5q-78 -135 -213 -402.5t-213 -402.5q-13 -14 -28.5 -14t-27 13t-6.5 30q85 154 236.5 456.5t234.5 452.5q-72 -99 -143 -127
q-67 -27 -111 6q-45 37 -41 121q3 57 30.5 118t68.5 110q99 114 215 133q79 12 106 -37q17 -35 6 -90q10 18 30 48t26 40q9 15 26.5 19t32.5 -5q32 -21 8 -67q-32 -55 -98 -168t-98 -168q-6 -10 1 -18.5t19 -8.5q22 -2 53 21q107 100 273 311zM45 39q78 32 162 164
q4 7 33.5 55.5t44 81t14.5 59.5q0 76 -57 76t-125 -67.5t-114 -152t-56 -146.5q-6 -46 22.5 -65.5t75.5 -4.5z" />
    <glyph glyph-name="r" unicode="r" horiz-adv-x="432" 
d="M432 377q3 3 6.5 2t5 -4.5t-1.5 -7.5q-8 -9 -48 -59t-62.5 -76.5t-59.5 -68.5t-69 -73.5t-60 -54.5q-61 -46 -96 -33q-27 8 -35.5 36t-0.5 64t18.5 64.5t21.5 50.5q47 96 113 180q-8 2 -28 5.5t-31 5.5t-26.5 7.5t-27.5 12.5q-7 -13 -41 -61q-6 -8 -11.5 -4t1.5 14
q23 30 39 57q-28 22 -21 66q4 26 23 45q10 10 22 10.5t19 -12.5q12 -32 -23 -101q58 -19 134 7q33 14 47 16q22 0 36 -21q14 -24 -4 -45q-5 -6 -39 -51q-85 -113 -157 -239q-7 -11 -13.5 -26.5t-10 -33.5t6.5 -22q24 -9 68 20q105 75 305 330zM47 449q43 70 21 92
q-8 6 -19 -7t-14 -22q-16 -40 12 -63z" />
    <glyph glyph-name="s" unicode="s" horiz-adv-x="405" 
d="M406 377q6 6 11 -1q1 -5 -1 -9q-9 -11 -65 -81.5t-97.5 -118.5t-77.5 -81q-69 -62 -137 -78q-17 -4 -38.5 -6t-50.5 -0.5t-49 17t-22 44.5q-3 36 23.5 73t62.5 44q19 4 30 -7.5t9 -29.5q-3 -38 -41 -51q4 4 5 14.5t-5 16.5q-20 11 -46 -7t-26 -48q0 -37 41 -45
q51 -5 99 43q27 30 42.5 65.5t18 80.5t2 74.5t-7 85.5t-8.5 77q-8 -9 -30 -36t-38 -46q-9 -10 -13.5 -4.5t3.5 14.5q18 23 76 90q-8 91 30 125q21 16 42 7t14 -36q-9 -29 -58 -82q30 -53 48.5 -98.5t30.5 -101t-1 -106.5t-53 -93q-30 -30 -59 -45q79 30 137 100
q95 105 199 240zM104 555q-10 -31 -4 -59q25 29 41 55q18 35 0 39q-12 3 -22.5 -9.5t-14.5 -25.5z" />
    <glyph glyph-name="t" unicode="t" horiz-adv-x="290" 
d="M733 907q12 6 15 2.5t-9 -10.5q-40 -21 -92.5 -30t-92 -9t-102 2t-92.5 2q-192 -311 -356 -655q-68 -160 -34 -165q6 -1 14 3q16 7 59 45q84 84 248 285q6 8 11 -2q1 -5 -1 -8q-157 -192 -221 -261q-61 -65 -90 -88q-12 -10 -32.5 -15.5t-41.5 1.5q-37 18 -27 92
q12 81 84 238q97 211 293 532q-123 4 -213 -12q-5 -2 -6.5 2.5t2.5 7.5q94 31 234 31q106 177 278 442q15 22 43 10.5t19 -36.5q-2 -6 -27 -49q-44 -70 -219 -369q30 -1 88 -4t86 -4q127 0 182 22z" />
    <glyph glyph-name="u" unicode="u" horiz-adv-x="557" 
d="M557 377q6 6 11 -1q1 -5 -1 -9q-156 -199 -262 -308q-62 -55 -112 -59q-34 3 -46 26t-4.5 57t17.5 60.5t22 49.5q-26 -38 -67 -82q-104 -118 -189 -111q-101 7 -41 172q18 48 44.5 96.5t66.5 114.5t55 92q21 32 53 27q19 -5 29.5 -20.5t3.5 -32.5q-9 -21 -37 -64
q-17 -30 -58 -90.5t-68 -109.5t-42 -99q-11 -38 25 -49q66 -11 156 94q67 76 120 158q37 62 101 166q25 47 55 47q23 0 35 -21t0 -41q-28 -54 -90.5 -149t-85.5 -135q-1 -3 -7 -13q-56 -96 -18 -102h8q27 0 70 39q131 134 256 297z" />
    <glyph glyph-name="v" unicode="v" horiz-adv-x="571" 
d="M571 377q5 5 10 0.5t1 -10.5q-78 -99 -164 -82q-60 -93 -150 -176q-59 -55 -102 -82q-71 -40 -133 -21q-35 12 -46 58.5t-2.5 94t25.5 79.5q12 25 27.5 53t27.5 47.5l32 52t30 49.5q11 18 9 29t-32 -4q-37 -23 -94 -98q-7 -8 -12.5 -4.5t2.5 14.5q3 3 13.5 17t16.5 21
t17.5 21t20 21.5t20.5 18.5t22 15.5t22 8.5t23.5 3t22.5 -7q24 -13 28 -42.5t-4.5 -58t-23.5 -55.5q-5 -10 -56 -85.5t-80.5 -138.5t-10.5 -87q41 -48 182 101q4 5 6 7q67 78 139 180q-24 37 -16 91q5 29 24.5 54.5t47.5 35.5q32 13 50 -9.5t13 -54.5q-8 -59 -51 -133
q77 -11 145 76zM369 330q18 26 47 81t18 64q-15 12 -45 -12q-27 -22 -34 -63.5t14 -69.5z" />
    <glyph glyph-name="w" unicode="w" horiz-adv-x="802" 
d="M803 377q6 6 11 -1q1 -5 -1 -9q-76 -96 -164 -82q-62 -95 -149 -176q-51 -48 -103 -80q-25 -14 -49.5 -21.5t-49 -7.5t-45 15.5t-30.5 45.5q-13 50 0 109q-72 -100 -127 -141q-67 -53 -102 -13q-38 44 -23 117q8 39 58 121.5t88 146.5t26 74q-9 3 -15.5 4.5t-18.5 -7
t-20 -15.5t-20.5 -21t-21 -23.5t-20 -24t-17.5 -21.5q-8 -9 -13.5 -5.5t3.5 15.5q4 5 19.5 24.5t24 29.5t25 26.5t29 24.5t30 14.5t34.5 5.5q40 0 49 -37q10 -37 -27 -117q-4 -9 -53 -84t-83 -140.5t-25 -88.5q16 -32 96 37q11 10 21.5 20.5t22 24t18.5 22.5t19.5 26.5
t17 23.5t18.5 26.5t16 24.5q28 50 79 129.5t72 115.5q15 19 37.5 15.5t31.5 -22t-1 -40.5q-35 -53 -168 -291q-1 -2 -9 -19t-13.5 -31.5t-10 -32t-1 -30t15.5 -16.5q27 -4 73 31q38 30 93 88q67 78 139 180q-24 38 -17 86q5 30 27 59t49 38q33 10 51 -11t13 -53
q-6 -46 -49 -125q-3 -6 -7 -10q76 -13 146 76zM625 465q-27 -23 -36.5 -64t9.5 -71q49 66 64 104q15 37 6 43q-11 5 -23 0.5t-20 -12.5z" />
    <glyph glyph-name="x" unicode="x" horiz-adv-x="628" 
d="M629 377q6 6 11 -1q1 -5 -1 -9q-165 -211 -272 -299q-13 -11 -22.5 -18.5t-25 -18.5t-29 -16.5t-29 -10.5t-31.5 -3.5t-31 7.5q-52 20 -56 105q-44 -44 -61 -56q-63 -45 -113 -55q-72 -15 -94 39q-11 25 4 65q12 34 44.5 60.5t64.5 26.5q40 0 30 -39q-5 -16 -20 -29
t-31 -12q4 2 8 12.5t-2 17.5q-5 7 -28 5t-39 -21q-13 -14 -20.5 -34t-3 -41t25.5 -29q12 -5 25.5 -5.5t26 4.5t24.5 12t25 18.5t23 21.5t21.5 24t18.5 23t16 22q142 206 131 303q-4 21 -23.5 29t-41.5 4q-29 -4 -58 -24t-43.5 -36.5t-42.5 -51.5q-7 -8 -12.5 -4.5t2.5 14.5
q12 16 41 49q63 73 133 76q52 0 72 -29q20 -25 24 -76q79 76 162 101q58 12 88 -6q55 -37 6 -115q-16 -26 -42 -46t-50 -20q-18 0 -28 13.5t-7 27.5q9 37 54 41q-5 -5 -8.5 -15t-0.5 -16t14.5 -8t26.5 5t27 22q28 41 18 70q-7 20 -26 25.5t-37 0t-35 -15.5
q-82 -50 -162 -199q-1 -3 -7.5 -15.5t-11.5 -22.5t-12.5 -27t-13.5 -31t-12 -31t-9.5 -31.5t-5 -27.5t0.5 -23t8 -16q66 -53 278 168q133 157 144 172z" />
    <glyph glyph-name="y" unicode="y" horiz-adv-x="641" 
d="M641 377q4 3 7.5 1.5t4 -5t-1.5 -6.5q-51 -64 -86.5 -106t-86.5 -96t-103.5 -97t-108.5 -76q-16 -30 -67 -126.5t-86.5 -160t-71.5 -123.5q-86 -139 -154 -225q-94 -122 -182 -158q-74 -28 -108 19q-31 40 -13 125q19 87 99 200q76 112 178 195q70 59 221 156q11 6 32 19
t33 19q20 40 38 75t30.5 59t23 44.5t17 33.5t12 23t8.5 15.5t5 9.5t2.5 5.5t1.5 3.5q-28 -37 -64 -80q-57 -61 -94 -86q-63 -41 -113 -33q-30 5 -44 24.5t-13.5 47.5t6 52t14.5 48q35 87 119 219q14 19 27 44t4 28q-27 7 -82 -55q-19 -22 -35 -43q-6 -8 -11.5 -3.5t1.5 13.5
q16 21 33 41q81 94 129 82q39 -10 42.5 -50.5t-20.5 -78.5q-20 -35 -61.5 -102t-61.5 -101q-25 -48 -32 -68q-14 -42 13.5 -57t66.5 6q41 19 108 90q34 41 86 111q19 26 38.5 58t33.5 56t35.5 63t33.5 60t41 13.5t35 -31.5q6 -19 -2 -39q-37 -59 -76.5 -127.5t-86.5 -153
t-74 -131.5q96 60 182 149.5t178 209.5zM-133 -567q112 175 268 477q-12 -10 -31 -21q-139 -86 -217 -149q-104 -82 -182 -195q-77 -106 -100 -194q-19 -86 8 -121q20 -21 45.5 -20t50.5 16q24 16 46 38.5t45 58t32.5 51.5t34.5 59z" />
    <glyph glyph-name="z" unicode="z" horiz-adv-x="518" 
d="M518 377q3 3 6.5 2t5 -4.5t-1.5 -7.5q-57 -72 -91.5 -113.5t-132 -140.5t-193.5 -172q-11 -154 -93 -324q-65 -124 -143 -223q-98 -121 -194 -174q-81 -44 -117 -21q-44 26 -35 113q10 96 90 209q73 111 174 198q34 30 73 59.5t90 67t75 56.5q7 45 4 114q-51 -16 -74 -20
q-31 -7 -57 2q-33 14 -31 33q3 23 29.5 41t54.5 26q75 19 115 -24q8 6 20 18q56 50 133 155.5t74 162.5q-1 22 -19 36.5t-42 16.5q-19 1 -40 -5t-47 -16t-40 -14q-30 -10 -56 0q-7 -10 -15 -21t-14.5 -20t-15.5 -20q-6 -8 -11.5 -4t1.5 14q8 11 22 29t21 28q-10 6 -16 19
q-14 23 -8 53t28 45q10 6 21.5 3t15.5 -13q14 -34 -21 -101q18 -6 58 9q10 4 30.5 13t30.5 13q70 30 119 10q42 -16 57 -55q42 -99 -67 -231q-73 -83 -197 -154q17 -35 17 -86q210 165 407 418zM-127 -508q126 204 156 385q-154 -107 -240 -184q-97 -88 -170 -195
q-83 -122 -78 -219q0 -33 17.5 -55t50.5 -15q44 11 100.5 67.5t93 108.5t70.5 107zM-12 20q21 9 39 21q-10 23 -35 29q-31 6 -64 -7q-45 -18 -41 -36q2 -13 33 -19q26 -5 68 12zM43 520q-11 -17 -10 -38t16 -33q26 51 24 75q-1 7 -3 13q-8 12 -27 -17z" />
    <glyph glyph-name="braceleft" unicode="{" horiz-adv-x="970" 
d="M973 1268q22 -4 25 -11q-3 -3 -9 -4q-67 0 -90 -6q-57 -19 -88 -69q-25 -41 -56.5 -109t-54 -117t-64 -103.5t-93.5 -88.5q-40 -30 -101 -43q10 -3 17 -8q30 -19 44 -57t15 -74.5t-8.5 -91.5t-16.5 -80.5t-20 -69.5q-4 -14 -27 -74t-30.5 -100.5t0.5 -77.5q6 -24 20 -40
t30.5 -21.5t31.5 -7.5t27 -1h12q5 -2 -6 -6l-21 -6q-58 -6 -101.5 21.5t-60.5 87.5q-26 92 27 245q4 13 29.5 70.5t40.5 98.5t15 89.5t-28 71.5q-35 24 -74 27q-11 0 -11.5 5t7.5 7q126 23 187 109q28 40 57 110.5t49.5 125.5t64 110t103.5 80q55 27 158 8z" />
    <glyph glyph-name="bar" unicode="|" horiz-adv-x="798" 
d="M455 1360q3 20 11.5 25.5t16 -3.5t6.5 -24q0 -208 -2 -443t-5.5 -523t-4.5 -441q0 -17 -18.5 -17t-18.5 17q1 138 8 638t7 771z" />
    <glyph glyph-name="braceright" unicode="}" horiz-adv-x="890" 
d="M129 10q-22 4 -25 11q3 3 9 4q67 0 90 6q57 19 88 69q25 41 56.5 109t54 117t64 103.5t93.5 88.5q41 30 100 43q-8 3 -16 8q-30 19 -44 57t-15 74.5t8.5 91.5t16.5 80.5t20 69.5q4 14 27 74t30.5 100.5t-0.5 77.5q-6 24 -20 40t-30.5 21.5t-31.5 7.5t-27 1h-12q-5 2 6 6
q10 5 21 6q58 6 101.5 -21.5t60.5 -87.5q26 -92 -27 -245q-4 -13 -29.5 -70.5t-40.5 -98.5t-15 -89.5t28 -71.5q35 -24 73 -27q11 0 12 -5q-1 -5 -7 -7q-126 -23 -187 -109q-28 -40 -57 -110.5t-49.5 -125.5t-64 -110t-103.5 -80q-55 -27 -158 -8z" />
    <glyph glyph-name="asciitilde" unicode="~" horiz-adv-x="798" 
d="M494 317q-40 0 -101.5 35.5t-87.5 42.5q-59 19 -98 -45q-2 -2 -6 -8t-6.5 -9.5t-7.5 -8t-9 -3.5t-10 3q-16 10 3.5 38.5t39.5 45.5q37 32 82 26q39 -4 105 -44.5t106 -37.5q44 10 86 66q6 8 17 6.5t14 -10.5q5 -15 -23 -43q-54 -54 -104 -54z" />
    <glyph glyph-name="exclamdown" unicode="&#xa1;" horiz-adv-x="630" 
d="M49 68q26 44 76.5 132t75.5 132q53 94 183 322.5t198 351.5q1 2 6 10.5t8.5 14t9 14.5t10 15t10 12t10.5 8.5t9 2.5q11 -1 12 -13t-6 -29.5t-12.5 -29t-11.5 -22.5q-55 -107 -155 -303.5t-182 -357.5t-155 -305q-8 -17 -26 -24.5t-35 -0.5q-21 7 -28.5 28.5t3.5 41.5z
M690 1325q9 21 32 31t44 0t25.5 -35t-7.5 -45q-9 -21 -31 -31t-44 0q-21 10 -25.5 35t6.5 45z" />
    <glyph glyph-name="cent" unicode="&#xa2;" horiz-adv-x="737" 
d="M588 821q48 -22 45 -71q-3 -37 -34.5 -72t-63.5 -35q-21 0 -31.5 10.5t-7.5 28.5q7 35 49 49q-5 -5 -7 -16t5 -17q11 -6 36 5t37 36q11 28 -6.5 50.5t-48.5 21.5q-97 -2 -199 -145q-165 -254 -69 -316q32 -21 68 -19t66.5 16t59.5 38q49 44 88 107q3 5 8 6t8 -2t1 -9
q-62 -110 -158 -157q-49 -20 -90 -23q-36 -78 -47 -108q-5 -14 -16 -11q-7 3 -5 13q7 17 23.5 52.5t24.5 55.5q-76 3 -117 56q-37 55 -35.5 118t33.5 121q54 103 139 162q49 35 117 55q43 13 84 10q8 17 26.5 57.5t26.5 57.5q7 14 14 6q3 -3 2 -8q-5 -11 -15.5 -35
t-19.5 -44t-14 -36q21 -7 23 -8z" />
    <glyph glyph-name="sterling" unicode="&#xa3;" horiz-adv-x="1724" 
d="M1673 1419q31 -29 42 -72t6 -83.5t-21 -83.5q-34 -78 -94 -143.5t-136 -106.5q-117 -64 -174 -25q-21 18 -19.5 40t15.5 38q19 20 47.5 21t44.5 -11q-7 2 -23 -7.5t-13 -22.5q5 -22 35.5 -28t80.5 11q80 41 140 113q94 109 94 221q0 77 -47 111q-119 87 -301 -95
q-90 -90 -170 -206q-65 -92 -175 -273.5t-163 -259.5q48 8 133 31t117 30q149 36 229 9q39 -15 69 -48t42 -73q0 -6 -7 -7t-8 5q-26 61 -65 86q-29 18 -67.5 24.5t-67.5 6t-81 -12t-72.5 -18t-76.5 -23.5q-96 -25 -162 -35q-178 -277 -360 -411q123 -35 246 -72
q71 -18 98.5 -25t97.5 -19.5t113 -13t101 8.5t104 31q125 61 196 213q2 4 6 4t6.5 -3t0.5 -7q-67 -122 -134 -185q-91 -84 -210 -112q-121 -26 -242.5 4t-276.5 98q-23 9 -68 29.5t-67 29.5q-47 -32 -86 -49q-72 -30 -155 -39t-164 9q-31 8 -51.5 27.5t-2.5 45.5
q25 37 89 58.5t114 21.5q86 0 234 -39q91 66 161.5 160t141.5 223q-142 -6 -262 37q-246 92 -273 311q-10 129 68.5 234.5t204.5 134.5q125 29 200 -35q47 -41 58.5 -108t-19.5 -121q-30 -51 -88 -72.5t-108 12.5l-5.5 5.5t-6 7.5t-3 9t5.5 5q3 2 11 -6q28 -25 64 -25t71 23
q53 36 62 101.5t-27 117.5q-30 43 -85 56.5t-104 -1.5q-61 -13 -111 -57t-77 -102t-37 -124.5t10 -125.5q27 -94 110 -161.5t187 -86.5q83 -12 166 -6q19 34 56 106t67.5 127t60.5 105q155 250 338 417q117 106 215 144q49 23 108.5 18.5t98.5 -41.5zM313 80q28 10 76 41
q-201 74 -336 12q-65 -28 -69 -57q-1 -8 6 -15.5t13.5 -11.5t16.5 -8q116 -37 293 39z" />
    <glyph glyph-name="currency" unicode="&#xa4;" horiz-adv-x="825" 
d="M750 1403q17 1 23.5 -15t-5.5 -28q-3 -3 -30.5 -27.5t-41.5 -38.5q21 -35 17.5 -78t-19 -80t-39.5 -69q-20 -27 -43 -47q27 -57 41 -88q7 -15 -1 -26.5t-21 -11.5t-21 15l-35 82q-48 -33 -96 -33q-33 0 -61 21q-13 -9 -36 -31.5t-36 -32.5q-6 -6 -14 -6q-17 0 -23 16.5
t6 26.5q10 10 22 21t26.5 24t23.5 21q-16 42 -6 96q18 95 96 166l-39 92q-2 7 3 17.5t18 11.5q13 0 22 -12l37 -78q33 22 71 28t73 -10q10 9 30.5 27.5t30.5 27.5q17 17 27 19zM686 1225q0 64 -43 82q-51 20 -123 -29q-49 -35 -86 -102q-11 -22 -18.5 -48.5t-9 -57
t11.5 -50.5q15 -24 41.5 -29.5t54 3t53.5 26.5q53 37 82 88q34 60 37 117z" />
    <glyph glyph-name="yen" unicode="&#xa5;" horiz-adv-x="1533" 
d="M1409 1507q18 21 37.5 22.5t23.5 -14.5t-12 -42q-69 -102 -145 -240q-53 -92 -177.5 -325t-199.5 -357h276q13 0 13 -10q0 -9 -11 -9h-288q-1 0 -14 -19.5t-33 -51t-33 -49.5h248q10 0 12 -10q2 -9 -8 -9h-264q-54 -80 -105 -145q-94 -122 -166 -189q-187 -175 -366 -151
q-64 8 -117.5 41t-75.5 88q-27 67 19 141q57 94 127 94q28 0 40.5 -18t6.5 -43q-6 -29 -26.5 -46t-45.5 -15q8 4 13.5 19.5t-3.5 23.5q-35 22 -74.5 -9t-48.5 -71q-12 -63 37 -115q39 -42 100 -59t125 -9q123 14 228 113q27 24 52 54t52 71t43.5 68t48 81.5t43.5 75.5h-280
q-6 0 -8.5 4.5t-1 9.5t7.5 5h295q42 74 71 120h-247q-6 0 -8.5 5t-0.5 9.5t9 4.5h258q28 51 82 150.5t97.5 179t84.5 149.5q-74 -83 -150 -145q-119 -103 -229 -121q-63 -11 -121 1.5t-80 61.5q-13 27 -15 59.5t7.5 68.5t19 62.5t25.5 61.5q20 44 64 109.5t78.5 127.5
t45.5 120q4 33 -12.5 56t-48.5 32q-82 20 -180.5 -26.5t-163.5 -119.5q-42 -51 -59 -110q-21 -83 10 -123q38 -46 119 -21q10 6 13 -0.5t-5 -9.5q-29 -10 -68 -10q-30 0 -53.5 16t-32.5 45q-18 52 8 127q41 112 164 189q134 82 244 69q68 -7 96 -59q64 -108 -41 -285
q-4 -8 -85 -129t-99 -186q-9 -33 -1.5 -55.5t29 -36.5t48 -19.5t55.5 -3.5q107 2 233 101q127 102 271 299q139 227 223 331z" />
    <glyph glyph-name="section" unicode="&#xa7;" horiz-adv-x="999" 
d="M772 868q53 -37 69.5 -98.5t-10.5 -120.5q-18 -38 -49.5 -67t-70.5 -39q-29 -8 -57 4.5t-38 40.5q-1 3 1 5t4.5 2t3.5 -3q10 -27 35 -36t51 1q56 20 77 84q15 40 16.5 81t-15 81t-50.5 63q-58 34 -120 22t-109 -57q-37 -37 -54.5 -87t-11.5 -101q2 -17 6 -32.5t14.5 -33
t15.5 -27t22 -28.5t21 -23.5t25.5 -25.5t22.5 -22q111 -115 97 -218q-11 -75 -88 -124q-85 -56 -160 -39q89 -107 67 -226q-11 -63 -48.5 -115t-94.5 -81q-59 -31 -124 -31.5t-124 35.5q-53 37 -69.5 98.5t10.5 120.5q18 38 50.5 67.5t70.5 38.5q31 8 56.5 -4t37.5 -43
q2 -3 -2.5 -4.5t-5.5 2.5q-10 26 -35 35.5t-51 -0.5q-53 -19 -78 -86q-15 -38 -16.5 -80t15 -82t50.5 -63q58 -34 120 -22t109 59q79 76 66 188q-2 17 -6.5 32.5t-13.5 31.5t-16 27.5t-22 28.5t-21.5 24t-24.5 25.5t-23 23.5q-51 54 -77.5 105.5t-18.5 111.5q10 69 88 125
q82 54 160 39q-89 108 -68 225q11 62 48.5 113.5t94.5 80.5q60 32 124.5 33.5t123.5 -35.5zM584 297q-18 27 -59.5 69.5t-55.5 59.5q-40 17 -83 9t-77 -40q-38 -35 -45 -82t21 -90q7 -11 15.5 -22.5t15 -19.5t20 -22.5t18.5 -19.5l23 -23l22 -22q40 -18 83 -10t79 39
q37 36 43.5 82.5t-20.5 91.5z" />
    <glyph glyph-name="dieresis" unicode="&#xa8;" horiz-adv-x="655" 
d="M274 604q-8 -14 -20.5 -20t-24.5 0q-11 5 -15.5 17.5t1.5 27.5q6 14 18.5 20t24.5 2q12 -5 17 -18.5t-1 -28.5zM412 604q-6 -14 -19.5 -20t-25.5 0q-25 11 -15 45q6 13 19.5 20t25.5 2t16.5 -18.5t-1.5 -28.5z" />
    <glyph glyph-name="copyright" unicode="&#xa9;" horiz-adv-x="946" 
d="M715 1348q53 -27 78.5 -78.5t22.5 -108t-28 -108.5q-39 -81 -118 -135t-166 -54q-56 0 -104.5 26t-75.5 73q-53 100 4 221q53 106 169 161.5t218 2.5zM788 1155q6 77 -44.5 131.5t-129.5 54.5q-104 0 -190.5 -78.5t-95.5 -181.5q-5 -57 22 -105t80 -69q93 -38 203 21
q63 35 106 96t49 131zM672 1260q22 -17 16 -54.5t-35 -50.5q-20 -10 -31 9q-10 20 11 31q3 2 6 3q0 -9 11 -6t16 16q12 31 -15.5 37t-50.5 -10q-30 -19 -61 -59q-58 -78 -68 -138q-4 -27 11 -39.5t36 -11.5t41 10q25 12 41.5 29.5t36.5 48.5q4 9 11 2q5 -4 3 -10
q-27 -52 -69 -78q-25 -16 -56 -21t-59 7q-26 13 -36 43.5t-5 62.5q5 40 37 88q35 53 92 84q77 38 117 7z" />
    <glyph glyph-name="registered" unicode="&#xae;" horiz-adv-x="937" 
d="M670 1087q6 11 16 6q6 -3 0 -12q-53 -68 -94 -100q-22 -18 -47.5 -17t-34.5 21q-5 11 -5.5 26t1.5 25.5t9 29t9.5 24.5t10.5 24q15 30 57 86q-37 0 -68 8q-91 -134 -153 -211q-5 -3 -9.5 1t-3.5 10q29 38 79 108t71 98q-18 7 -25 19q-14 24 3.5 53.5t45.5 20.5
q35 -11 5 -80q20 -1 57 7t47 9q20 0 23 -16q1 -10 -11 -31q-32 -48 -51 -80l-11 -17q-11 -17 -19.5 -30.5t-18.5 -31.5t-14.5 -30.5t-1.5 -17.5q13 -18 47 7.5t55 52.5q26 30 31 38zM504 1235q8 -4 14 -4q17 24 17 45q0 19 -19 16q-13 -5 -20 -22q-9 -27 8 -35zM690 1348
q52 -27 78 -78.5t23.5 -108t-27.5 -108.5q-41 -82 -120 -135.5t-167 -53.5q-55 0 -103.5 26.5t-74.5 72.5q-54 97 4 221q50 106 166.5 161.5t220.5 2.5zM762 1155q6 77 -44.5 131.5t-129.5 54.5q-104 0 -191 -78.5t-94 -181.5q-5 -57 22 -105t78 -69q52 -19 104 -12t99 33
q64 35 108 96t48 131z" />
    <glyph glyph-name="acute" unicode="&#xb4;" horiz-adv-x="516" 
d="M170 608q-6 0 -6 6q1 4 4 4q125 33 176 93q2 2 5 7t5 7.5t6 5.5t9 4q18 4 28 -10q11 -10 7 -21.5t-11 -20.5t-22 -17.5t-25 -13.5t-20 -9q-67 -24 -156 -35z" />
    <glyph glyph-name="mu" unicode="&#xb5;" horiz-adv-x="784" 
d="M784 367q3 3 7 0.5t5 -6.5t-1 -7q-23 -27 -68 -81t-68 -80q-4 -5 -27 -33t-31.5 -38t-27 -30.5t-34 -35t-31.5 -27.5q-21 -16 -43.5 -26.5t-48.5 -8.5t-39 26q-6 12 -7.5 26t3 32.5t7 26.5t9.5 28l25 55q-28 -37 -39.5 -51.5t-42 -48t-53 -49t-56.5 -29.5t-67 -14
q-23 0 -39 12q-68 -115 -227.5 -390t-247.5 -423q-15 -23 -41.5 -10t-18.5 39q558 994 697 1241q23 34 53 29q19 -4 28.5 -20.5t4.5 -35.5q-24 -46 -77 -134t-77 -134q-19 -28 -38 -72t-15 -53q8 -16 25.5 -18t32 3t38.5 17q17 10 35 24.5t29.5 25t31 34.5t26 31.5t29.5 39
t27 36.5q19 32 61.5 99t65.5 105q1 1 10 15t12.5 18t13 9.5t19.5 4.5q25 0 36 -20.5t-1 -42.5q-27 -50 -97 -159t-101 -171q-1 -2 -3.5 -9.5l-4 -12t-3.5 -13t-1 -12.5t3.5 -9.5t10 -5t18.5 0.5q27 7 59 39q40 38 77.5 80t92 109t70.5 85q10 15 14 19z" />
    <glyph glyph-name="paragraph" unicode="&#xb6;" horiz-adv-x="1153" 
d="M1257 1178q13 0 13 -14.5t-13 -14.5h-208q-83 -164 -177 -345t-213 -407.5t-180 -343.5q-25 -51 -39 -51q-25 0 -9 36q1 2 1 3q533 1020 580 1108h-101q-107 -216 -317.5 -618.5t-249.5 -477.5q-26 -51 -37 -51q-27 0 -10 39q64 123 192 369.5t193 369.5q-43 -3 -86 0
q-56 2 -98 37t-52 90q-11 65 22.5 129t94.5 103t127 39h567z" />
    <glyph glyph-name="cedilla" unicode="&#xb8;" horiz-adv-x="399" 
d="M246 -92q35 -18 35 -84q0 -43 -26 -81t-69 -62q-58 -30 -92 -9q-18 13 -21.5 37t5.5 43q11 22 22 33q5 5 6 -2q0 -2 -2 -4q-6 -9 -12 -15q-25 -42 -2 -71q14 -16 31.5 -16t34.5 12q42 31 77 110q42 94 -12 105q-34 8 -67 -25q-3 -4 -9.5 -12t-9.5 -12q-2 -4 -5.5 -4t-5 3
t0.5 7q9 25 29 70.5t24 54.5q2 9 10 6q5 -2 5 -10q-7 -17 -21.5 -48t-21.5 -47q54 46 96 21z" />
    <glyph glyph-name="questiondown" unicode="&#xbf;" horiz-adv-x="1026" 
d="M248 25q-56 30 -81 83t-17 117q14 124 106 234q50 58 122.5 117.5t139.5 107.5t134 101t124 120t90 144q1 2 3.5 10t6.5 13t9 3q3 -1 4 -4.5t0 -8.5t-2.5 -9.5t-3.5 -9t-2 -5.5q-24 -55 -60 -110.5t-67.5 -95.5t-86.5 -96t-84 -83.5t-95.5 -87.5t-88.5 -80
q-103 -96 -159 -200q-82 -148 14 -226q78 -60 213 -26q124 30 219 125q103 106 100 227q0 71 -41 107q-35 31 -75.5 28.5t-76.5 -24t-63 -56.5q-6 -9 -13 -1q-4 5 1 10q35 46 86 70.5t103 10.5q41 -11 65.5 -43t28.5 -70.5t0 -78.5q-21 -116 -117.5 -203.5t-218.5 -120.5
q-132 -34 -217 11zM901 1331q11 23 32.5 33.5t41.5 1.5q20 -7 26.5 -30t-2.5 -48q-10 -23 -30.5 -33t-42.5 -2q-20 8 -27.5 30.5t2.5 47.5z" />
    <glyph glyph-name="Agrave" unicode="&#xc0;" horiz-adv-x="1521" 
d="M1894 1526q24 20 50 13t18 -44q-12 -43 -56 -102.5t-80.5 -98.5t-106.5 -108l-6.5 -6.5l-6 -6l-6.5 -6.5q-65 -132 -222.5 -433.5t-234.5 -465.5q2 -25 2.5 -58t-2.5 -79.5t-17 -82t-38 -44.5q-12 -3 -20 -3t-12.5 8t-7 16t-2.5 20t1 20.5t2 16.5q13 95 70 260
q-22 160 -76 299q-392 -342 -656 -524q-136 -90 -237 -109q-65 -13 -125 1.5t-94 64.5q-33 51 -27 116q8 60 42 112t79 56q27 3 41.5 -12.5t11.5 -40.5q-3 -29 -19.5 -46.5t-41.5 -20.5q6 4 10 20t-4 23q-18 13 -46.5 -1t-45.5 -57q-19 -45 -4 -98.5t57 -79.5q93 -59 248 4
q77 31 200 119q254 183 605 489q-40 100 -93 185q-75 121 -184.5 189t-236.5 44q-126 -24 -222.5 -113t-136.5 -212q-15 -46 -15 -94t15 -91t42.5 -75.5t72.5 -47.5t100 -6q81 13 143.5 70.5t63.5 136.5q2 40 -16 73.5t-54 39.5q-35 6 -90 -27q-6 -3 -8.5 1t2.5 9
q58 40 101 31q54 -11 73 -80q17 -59 -9.5 -118.5t-78.5 -98.5q-113 -80 -227 -57q-64 13 -109 53t-64 93.5t-18 115t25 119.5q50 118 154 196q71 54 151.5 83t170 25.5t165.5 -46.5q181 -101 293 -389q222 197 354 323q107 189 219 338q3 4 21 29t23.5 32t21.5 28.5t25.5 32
t24.5 26.5t29 28t29 23zM1229 373q96 279 248 573q-153 -147 -324 -295q56 -144 76 -278zM1929 1452q20 36 17 57q-3 20 -25 7q-33 -22 -84 -99q-61 -96 -125 -221q56 56 81 82t68 78t68 96zM1214 61q21 64 17 183l-27 -68q-2 -5 -6.5 -16.5t-11 -31t-11.5 -38t-8 -36
t-0.5 -28t11.5 -10.5q21 0 36 45zM2056 1657q-97 12 -151 35q-103 41 -72 80q15 15 31 8q5 -1 8.5 -4t7.5 -9.5t6 -9.5q55 -62 172 -90q4 -1 3.5 -5.5t-5.5 -4.5z" />
    <glyph glyph-name="Aacute" unicode="&#xc1;" horiz-adv-x="1521" 
d="M1894 1526q24 20 50 13t18 -44q-12 -43 -56 -102.5t-80.5 -98.5t-106.5 -108l-6.5 -6.5l-6 -6l-6.5 -6.5q-65 -132 -222.5 -433.5t-234.5 -465.5q2 -25 2.5 -58t-2.5 -79.5t-17 -82t-38 -44.5q-12 -3 -20 -3t-12.5 8t-7 16t-2.5 20t1 20.5t2 16.5q13 95 70 260
q-22 160 -76 299q-392 -342 -656 -524q-136 -90 -237 -109q-65 -13 -125 1.5t-94 64.5q-33 51 -27 116q8 60 42 112t79 56q27 3 41.5 -12.5t11.5 -40.5q-3 -29 -19.5 -46.5t-41.5 -20.5q6 4 10 20t-4 23q-18 13 -46.5 -1t-45.5 -57q-19 -45 -4 -98.5t57 -79.5q93 -59 248 4
q77 31 200 119q254 183 605 489q-40 100 -93 185q-75 121 -184.5 189t-236.5 44q-126 -24 -222.5 -113t-136.5 -212q-15 -46 -15 -94t15 -91t42.5 -75.5t72.5 -47.5t100 -6q81 13 143.5 70.5t63.5 136.5q2 40 -16 73.5t-54 39.5q-35 6 -90 -27q-6 -3 -8.5 1t2.5 9
q58 40 101 31q54 -11 73 -80q17 -59 -9.5 -118.5t-78.5 -98.5q-113 -80 -227 -57q-64 13 -109 53t-64 93.5t-18 115t25 119.5q50 118 154 196q71 54 151.5 83t170 25.5t165.5 -46.5q181 -101 293 -389q222 197 354 323q107 189 219 338q3 4 21 29t23.5 32t21.5 28.5t25.5 32
t24.5 26.5t29 28t29 23zM1229 373q96 279 248 573q-153 -147 -324 -295q56 -144 76 -278zM1929 1452q20 36 17 57q-3 20 -25 7q-33 -22 -84 -99q-61 -96 -125 -221q56 56 81 82t68 78t68 96zM1214 61q21 64 17 183l-27 -68q-2 -5 -6.5 -16.5t-11 -31t-11.5 -38t-8 -36
t-0.5 -28t11.5 -10.5q21 0 36 45zM1792 1671q-6 0 -6 6q1 4 4 4q125 33 176 93q2 2 5 7t5 7.5t6 5.5t9 4q18 4 28 -10q11 -10 7 -21.5t-11 -20.5t-22 -17.5t-25 -13.5t-20 -9q-67 -24 -156 -35z" />
    <glyph glyph-name="Acircumflex" unicode="&#xc2;" horiz-adv-x="1521" 
d="M1894 1526q24 20 50 13t18 -44q-12 -43 -56 -102.5t-80.5 -98.5t-106.5 -108l-6.5 -6.5l-6 -6l-6.5 -6.5q-65 -132 -222.5 -433.5t-234.5 -465.5q2 -25 2.5 -58t-2.5 -79.5t-17 -82t-38 -44.5q-12 -3 -20 -3t-12.5 8t-7 16t-2.5 20t1 20.5t2 16.5q13 95 70 260
q-22 160 -76 299q-392 -342 -656 -524q-136 -90 -237 -109q-65 -13 -125 1.5t-94 64.5q-33 51 -27 116q8 60 42 112t79 56q27 3 41.5 -12.5t11.5 -40.5q-3 -29 -19.5 -46.5t-41.5 -20.5q6 4 10 20t-4 23q-18 13 -46.5 -1t-45.5 -57q-19 -45 -4 -98.5t57 -79.5q93 -59 248 4
q77 31 200 119q254 183 605 489q-40 100 -93 185q-75 121 -184.5 189t-236.5 44q-126 -24 -222.5 -113t-136.5 -212q-15 -46 -15 -94t15 -91t42.5 -75.5t72.5 -47.5t100 -6q81 13 143.5 70.5t63.5 136.5q2 40 -16 73.5t-54 39.5q-35 6 -90 -27q-6 -3 -8.5 1t2.5 9
q58 40 101 31q54 -11 73 -80q17 -59 -9.5 -118.5t-78.5 -98.5q-113 -80 -227 -57q-64 13 -109 53t-64 93.5t-18 115t25 119.5q50 118 154 196q71 54 151.5 83t170 25.5t165.5 -46.5q181 -101 293 -389q222 197 354 323q107 189 219 338q3 4 21 29t23.5 32t21.5 28.5t25.5 32
t24.5 26.5t29 28t29 23zM1229 373q96 279 248 573q-153 -147 -324 -295q56 -144 76 -278zM1929 1452q20 36 17 57q-3 20 -25 7q-33 -22 -84 -99q-61 -96 -125 -221q56 56 81 82t68 78t68 96zM1214 61q21 64 17 183l-27 -68q-2 -5 -6.5 -16.5t-11 -31t-11.5 -38t-8 -36
t-0.5 -28t11.5 -10.5q21 0 36 45zM2040 1661q5 -3 3.5 -5.5t-5.5 -2.5q-31 0 -49 33q-4 6 -8.5 19.5t-4.5 14.5q-61 -35 -106 -47q-68 -22 -96 -20q-6 0 -6 3q0 5 8 7q88 17 182 88q7 5 19 15t14 12q19 9 24.5 1t3.5 -26q-5 -42 0 -61q4 -9 12 -19t9 -12z" />
    <glyph glyph-name="Atilde" unicode="&#xc3;" horiz-adv-x="1521" 
d="M1894 1526q24 20 50 13t18 -44q-12 -43 -56 -102.5t-80.5 -98.5t-106.5 -108l-6.5 -6.5l-6 -6l-6.5 -6.5q-65 -132 -222.5 -433.5t-234.5 -465.5q2 -25 2.5 -58t-2.5 -79.5t-17 -82t-38 -44.5q-12 -3 -20 -3t-12.5 8t-7 16t-2.5 20t1 20.5t2 16.5q13 95 70 260
q-22 160 -76 299q-392 -342 -656 -524q-136 -90 -237 -109q-65 -13 -125 1.5t-94 64.5q-33 51 -27 116q8 60 42 112t79 56q27 3 41.5 -12.5t11.5 -40.5q-3 -29 -19.5 -46.5t-41.5 -20.5q6 4 10 20t-4 23q-18 13 -46.5 -1t-45.5 -57q-19 -45 -4 -98.5t57 -79.5q93 -59 248 4
q77 31 200 119q254 183 605 489q-40 100 -93 185q-75 121 -184.5 189t-236.5 44q-126 -24 -222.5 -113t-136.5 -212q-15 -46 -15 -94t15 -91t42.5 -75.5t72.5 -47.5t100 -6q81 13 143.5 70.5t63.5 136.5q2 40 -16 73.5t-54 39.5q-35 6 -90 -27q-6 -3 -8.5 1t2.5 9
q58 40 101 31q54 -11 73 -80q17 -59 -9.5 -118.5t-78.5 -98.5q-113 -80 -227 -57q-64 13 -109 53t-64 93.5t-18 115t25 119.5q50 118 154 196q71 54 151.5 83t170 25.5t165.5 -46.5q181 -101 293 -389q222 197 354 323q107 189 219 338q3 4 21 29t23.5 32t21.5 28.5t25.5 32
t24.5 26.5t29 28t29 23zM1229 373q96 279 248 573q-153 -147 -324 -295q56 -144 76 -278zM1929 1452q20 36 17 57q-3 20 -25 7q-33 -22 -84 -99q-61 -96 -125 -221q56 56 81 82t68 78t68 96zM1214 61q21 64 17 183l-27 -68q-2 -5 -6.5 -16.5t-11 -31t-11.5 -38t-8 -36
t-0.5 -28t11.5 -10.5q21 0 36 45zM1761 1645q21 52 47 67q18 12 40.5 14t38.5 -2t42.5 -12.5t38.5 -11.5q51 -9 86 16q12 10 27 25q5 4 1 -8q-2 -4 -6 -14q-2 -5 -3 -7q-31 -45 -70 -53q-32 -8 -91.5 17.5t-88.5 13.5q-28 -11 -58 -50q-5 -7 -6 -2q0 3 2 7z" />
    <glyph glyph-name="Adieresis" unicode="&#xc4;" horiz-adv-x="1521" 
d="M1894 1526q24 20 50 13t18 -44q-12 -43 -56 -102.5t-80.5 -98.5t-106.5 -108l-6.5 -6.5l-6 -6l-6.5 -6.5q-65 -132 -222.5 -433.5t-234.5 -465.5q2 -25 2.5 -58t-2.5 -79.5t-17 -82t-38 -44.5q-12 -3 -20 -3t-12.5 8t-7 16t-2.5 20t1 20.5t2 16.5q13 95 70 260
q-22 160 -76 299q-392 -342 -656 -524q-136 -90 -237 -109q-65 -13 -125 1.5t-94 64.5q-33 51 -27 116q8 60 42 112t79 56q27 3 41.5 -12.5t11.5 -40.5q-3 -29 -19.5 -46.5t-41.5 -20.5q6 4 10 20t-4 23q-18 13 -46.5 -1t-45.5 -57q-19 -45 -4 -98.5t57 -79.5q93 -59 248 4
q77 31 200 119q254 183 605 489q-40 100 -93 185q-75 121 -184.5 189t-236.5 44q-126 -24 -222.5 -113t-136.5 -212q-15 -46 -15 -94t15 -91t42.5 -75.5t72.5 -47.5t100 -6q81 13 143.5 70.5t63.5 136.5q2 40 -16 73.5t-54 39.5q-35 6 -90 -27q-6 -3 -8.5 1t2.5 9
q58 40 101 31q54 -11 73 -80q17 -59 -9.5 -118.5t-78.5 -98.5q-113 -80 -227 -57q-64 13 -109 53t-64 93.5t-18 115t25 119.5q50 118 154 196q71 54 151.5 83t170 25.5t165.5 -46.5q181 -101 293 -389q222 197 354 323q107 189 219 338q3 4 21 29t23.5 32t21.5 28.5t25.5 32
t24.5 26.5t29 28t29 23zM1229 373q96 279 248 573q-153 -147 -324 -295q56 -144 76 -278zM1929 1452q20 36 17 57q-3 20 -25 7q-33 -22 -84 -99q-61 -96 -125 -221q56 56 81 82t68 78t68 96zM1214 61q21 64 17 183l-27 -68q-2 -5 -6.5 -16.5t-11 -31t-11.5 -38t-8 -36
t-0.5 -28t11.5 -10.5q21 0 36 45zM1878 1667q-8 -14 -20.5 -20t-24.5 0q-11 5 -15.5 17.5t1.5 27.5q6 14 18.5 20t24.5 2q12 -5 17 -18.5t-1 -28.5zM2015 1667q-6 -14 -19.5 -20t-25.5 0q-24 10 -14 45q6 13 19.5 20t25.5 2q12 -4 16 -18t-2 -29z" />
    <glyph glyph-name="Aring" unicode="&#xc5;" horiz-adv-x="1521" 
d="M1894 1526q24 20 50 13t18 -44q-12 -43 -56 -102.5t-80.5 -98.5t-106.5 -108l-6.5 -6.5l-6 -6l-6.5 -6.5q-65 -132 -222.5 -433.5t-234.5 -465.5q2 -25 2.5 -58t-2.5 -79.5t-17 -82t-38 -44.5q-12 -3 -20 -3t-12.5 8t-7 16t-2.5 20t1 20.5t2 16.5q13 95 70 260
q-22 160 -76 299q-392 -342 -656 -524q-136 -90 -237 -109q-65 -13 -125 1.5t-94 64.5q-33 51 -27 116q8 60 42 112t79 56q27 3 41.5 -12.5t11.5 -40.5q-3 -29 -19.5 -46.5t-41.5 -20.5q6 4 10 20t-4 23q-18 13 -46.5 -1t-45.5 -57q-19 -45 -4 -98.5t57 -79.5q93 -59 248 4
q77 31 200 119q254 183 605 489q-40 100 -93 185q-75 121 -184.5 189t-236.5 44q-126 -24 -222.5 -113t-136.5 -212q-15 -46 -15 -94t15 -91t42.5 -75.5t72.5 -47.5t100 -6q81 13 143.5 70.5t63.5 136.5q2 40 -16 73.5t-54 39.5q-35 6 -90 -27q-6 -3 -8.5 1t2.5 9
q58 40 101 31q54 -11 73 -80q17 -59 -9.5 -118.5t-78.5 -98.5q-113 -80 -227 -57q-64 13 -109 53t-64 93.5t-18 115t25 119.5q50 118 154 196q71 54 151.5 83t170 25.5t165.5 -46.5q181 -101 293 -389q222 197 354 323q107 189 219 338q3 4 21 29t23.5 32t21.5 28.5t25.5 32
t24.5 26.5t29 28t29 23zM1229 373q96 279 248 573q-153 -147 -324 -295q56 -144 76 -278zM1929 1452q20 36 17 57q-3 20 -25 7q-33 -22 -84 -99q-61 -96 -125 -221q56 56 81 82t68 78t68 96zM1214 61q21 64 17 183l-27 -68q-2 -5 -6.5 -16.5t-11 -31t-11.5 -38t-8 -36
t-0.5 -28t11.5 -10.5q21 0 36 45zM2060 1667q-12 -29 -39 -53q-40 -31 -71 -31q-22 0 -33.5 18t-10.5 40t7 40q14 33 44.5 57t65.5 27q26 0 41 -30q12 -35 -4 -68zM2028 1681q33 74 -7 72q-6 -1 -12 -3t-11.5 -6.5t-10 -8t-9.5 -10.5t-7.5 -11t-7.5 -13t-6.5 -11.5t-6 -12
t-4.5 -10.5l-5 -13q-5 -14 -6.5 -20.5t-2.5 -17t3.5 -15.5t14.5 -6q43 2 78 86z" />
    <glyph glyph-name="AE" unicode="&#xc6;" horiz-adv-x="2170" 
d="M1917 1135q-15 -35 -18 -74t4.5 -69t16.5 -55.5t18 -39.5l8 -14q81 8 120 6q96 -6 107 -41q8 -24 -16 -34.5t-52 -10.5q-114 0 -174 55q-253 -52 -399 -219q-167 -203 -170 -389q0 -63 29.5 -114.5t83.5 -82.5q71 -40 151.5 -35t157 36.5t150.5 86.5t133 114.5t104 121.5
q5 7 10 0q3 -4 0 -10q-83 -103 -161 -175.5t-173 -125.5q-69 -39 -142.5 -56.5t-152.5 -8t-143 51.5q-75 51 -103.5 133.5t-17.5 178.5q-5 -11 -21 -44.5t-24 -52.5q2 -25 2.5 -58t-2.5 -79.5t-17 -82t-38 -44.5q-12 -3 -20 -3t-12.5 8t-7 16t-2.5 20t1 20.5t2 16.5
q13 95 70 260q-22 160 -76 299q-392 -342 -656 -524q-136 -90 -237 -109q-65 -13 -125 1.5t-94 64.5q-33 51 -27 116q8 60 42 112t79 56q27 3 41.5 -12.5t11.5 -40.5q-3 -29 -19.5 -46.5t-41.5 -20.5q6 4 10 20t-4 23q-18 13 -46.5 -1t-45.5 -57q-19 -45 -4 -98.5t57 -79.5
q93 -59 248 4q77 31 200 119q254 183 605 489q-40 100 -93 185q-75 121 -184.5 189t-236.5 44q-126 -24 -222.5 -113t-136.5 -212q-15 -46 -15 -94t15 -91t42.5 -75.5t72.5 -47.5t100 -6q81 13 143.5 70.5t63.5 136.5q2 40 -16 73.5t-54 39.5q-35 6 -90 -27q-6 -3 -8.5 1
t2.5 9q58 40 101 31q54 -11 73 -80q17 -59 -9.5 -118.5t-78.5 -98.5q-113 -80 -227 -57q-64 13 -109 53t-64 93.5t-18 115t25 119.5q50 118 154 196q71 54 151.5 83t170 25.5t165.5 -46.5q181 -101 293 -389q222 197 354 323q107 189 219 338q3 4 21 29t23.5 32t21.5 28.5
t25.5 32t24.5 26.5t29 28t29 23q24 20 50 13t18 -44q-12 -43 -56 -102.5t-80.5 -98.5t-106.5 -108l-6.5 -6.5l-6 -6l-6.5 -6.5q-49 -99 -145 -284.5t-107 -206.5q93 93 221 143q123 46 240 60q-32 40 -47 82q-43 119 8.5 248.5t157.5 217.5q108 84 229 101q152 21 207 -68
q24 -35 18.5 -79t-23 -80t-44.5 -70q-65 -83 -197 -160q-30 -17 -34 -12t57 43q128 76 186 172q19 31 28.5 63.5t4.5 68.5t-31 60q-29 29 -74 32.5t-83.5 -8t-78.5 -32.5q-87 -50 -163 -139q-77 -87 -113 -184zM1229 373q96 279 248 573q-153 -147 -324 -295
q56 -144 76 -278zM1929 1452q20 36 17 57q-3 20 -25 7q-33 -22 -84 -99q-61 -96 -125 -221q56 56 81 82t68 78t68 96zM1214 61q21 64 17 183l-27 -68q-2 -5 -6.5 -16.5t-11 -31t-11.5 -38t-8 -36t-0.5 -28t11.5 -10.5q21 0 36 45zM2114 870q-55 10 -150 -6q58 -45 160 -45
q12 0 25 6t12 17q-5 22 -47 28z" />
    <glyph glyph-name="Ccedilla" unicode="&#xc7;" horiz-adv-x="1286" 
d="M791 -92q45 -26 45 -109q0 -55 -33.5 -104.5t-87.5 -81.5q-74 -38 -119 -8q-23 16 -28 46.5t7 55.5q11 24 27 41q6 6 8 -1q1 -4 -2 -7q-4 -4 -14 -19q-32 -54 -4 -92q17 -20 40 -19.5t46 15.5q22 15 42 42t30.5 45.5t27.5 54.5q50 122 -16 135q-44 11 -88 -33
q-11 -11 -23 -31q-3 -5 -7.5 -4.5t-6.5 4t0 8.5q11 29 32.5 80.5t30.5 73.5q-47 3 -96.5 21.5t-83.5 48.5q-83 75 -90 231q-6 126 39 268q-129 7 -237 50t-169 133q-78 114 -53 243q19 115 121 217q107 100 221 125q42 7 82.5 8t81.5 -14.5t66 -46.5q23 -29 27.5 -64
t-7 -69.5t-29.5 -66t-43 -60.5q-75 -87 -141 -84q-27 1 -37 19.5t-2 41.5q8 21 30 37t44 13q-6 -4 -12.5 -18t0.5 -21q8 -8 25 -9.5t40.5 7t42.5 28.5q29 32 48 69.5t24.5 82.5t-19.5 80q-33 48 -102 55q-111 13 -229 -82q-109 -88 -160.5 -213.5t0.5 -243.5
q24 -53 67 -91.5t98 -60t110.5 -32t117.5 -12.5q68 209 254 442q172 215 389 363q127 88 240 123q56 23 130 20t113 -39q77 -71 7 -229q-76 -168 -221.5 -313t-325.5 -244q-245 -130 -498 -142q-37 -82 -53 -135q-19 -59 -25 -118t2 -120.5t48 -107t108 -61.5
q73 -21 150 -6.5t146.5 46.5t137 84t121.5 107.5t100 116.5q2 3 6.5 2.5t6 -4t-1.5 -8.5q-174 -219 -346 -306q-122 -61 -242 -61q-30 -64 -51 -119q67 59 123 27zM1587 1278q58 145 -10 199q-81 59 -238 -19q-99 -47 -215 -147q-187 -157 -360 -398q-112 -152 -195 -323
q250 15 479 139.5t398 325.5q97 120 141 223z" />
    <glyph glyph-name="Egrave" unicode="&#xc8;" horiz-adv-x="976" 
d="M1284 1657q-97 12 -151 35q-103 41 -72 80q15 15 31 8q5 -1 8.5 -4t7.5 -9.5t6 -9.5q55 -62 172 -90q4 -1 3.5 -5.5t-5.5 -4.5zM1270 1460q24 -35 18.5 -79t-23 -80t-44.5 -70q-70 -90 -197 -160q-142 -81 -311 -117q7 -30 39 -71q81 8 120 6q96 -6 107 -41
q8 -24 -16 -34.5t-52 -10.5q-114 0 -174 55q-253 -52 -399 -219q-167 -203 -170 -389q0 -63 29.5 -114.5t83.5 -82.5q71 -40 151.5 -35t157.5 36.5t151.5 86.5t133.5 114.5t104 121.5q5 7 10 0q3 -4 0 -10q-82 -101 -161 -174.5t-175 -126.5q-69 -39 -142.5 -56.5t-152.5 -8
t-143 51.5q-73 49 -102.5 133t-19.5 169t48 165q99 205 334 299q123 46 240 60q-32 41 -43 67q-81 -12 -125 -14q-356 -23 -484 145q-69 88 -58.5 202t93.5 194q93 93 219 112q65 10 128 -6.5t100 -62.5q76 -98 -39 -236q-78 -91 -152 -76q-26 6 -34 28.5t2 39.5
q12 25 33.5 36.5t45.5 6.5q-6 0 -14.5 -15t-3.5 -24q7 -19 44 -15.5t69 33.5q26 24 44 58t21.5 74t-20.5 75q-28 43 -97 62q-114 30 -233 -51.5t-150 -204.5q-24 -98 27 -191q30 -56 82.5 -93.5t116.5 -54t125.5 -21.5t126.5 -1q65 3 129 15q-43 119 8.5 248.5t157.5 217.5
q108 84 229 101q152 21 207 -68zM922 870q-55 10 -150 -6q58 -45 160 -45q12 0 25 6t12 17q-5 22 -47 28zM1233 1274q19 31 28.5 63.5t4.5 68.5t-31 60q-29 29 -74 32.5t-83.5 -8t-78.5 -32.5q-87 -50 -163 -139q-77 -87 -113 -184q-31 -90 -14 -166q194 44 338 133
q128 76 186 172z" />
    <glyph glyph-name="Eacute" unicode="&#xc9;" horiz-adv-x="976" 
d="M1008 1671q-6 0 -6 6q1 4 4 4q125 33 176 93q2 2 6 9t8 10t10 5q19 4 29 -10q11 -10 6.5 -21.5t-11.5 -20t-22 -17.5t-25 -14t-20 -9q-67 -25 -155 -35zM1270 1460q24 -35 18.5 -79t-23 -80t-44.5 -70q-70 -90 -197 -160q-142 -81 -311 -117q7 -30 39 -71q81 8 120 6
q96 -6 107 -41q8 -24 -16 -34.5t-52 -10.5q-114 0 -174 55q-253 -52 -399 -219q-167 -203 -170 -389q0 -63 29.5 -114.5t83.5 -82.5q71 -40 151.5 -35t157.5 36.5t151.5 86.5t133.5 114.5t104 121.5q5 7 10 0q3 -4 0 -10q-82 -101 -161 -174.5t-175 -126.5
q-69 -39 -142.5 -56.5t-152.5 -8t-143 51.5q-73 49 -102.5 133t-19.5 169t48 165q99 205 334 299q123 46 240 60q-32 41 -43 67q-81 -12 -125 -14q-356 -23 -484 145q-69 88 -58.5 202t93.5 194q93 93 219 112q65 10 128 -6.5t100 -62.5q76 -98 -39 -236q-78 -91 -152 -76
q-26 6 -34 28.5t2 39.5q12 25 33.5 36.5t45.5 6.5q-6 0 -14.5 -15t-3.5 -24q7 -19 44 -15.5t69 33.5q26 24 44 58t21.5 74t-20.5 75q-28 43 -97 62q-114 30 -233 -51.5t-150 -204.5q-24 -98 27 -191q30 -56 82.5 -93.5t116.5 -54t125.5 -21.5t126.5 -1q65 3 129 15
q-43 119 8.5 248.5t157.5 217.5q108 84 229 101q152 21 207 -68zM922 870q-55 10 -150 -6q58 -45 160 -45q12 0 25 6t12 17q-5 22 -47 28zM1233 1274q19 31 28.5 63.5t4.5 68.5t-31 60q-29 29 -74 32.5t-83.5 -8t-78.5 -32.5q-87 -50 -163 -139q-77 -87 -113 -184
q-31 -90 -14 -166q194 44 338 133q128 76 186 172z" />
    <glyph glyph-name="Ecircumflex" unicode="&#xca;" horiz-adv-x="976" 
d="M1255 1661q5 -3 3.5 -5.5t-5.5 -2.5q-31 0 -49 33q-3 6 -7 18.5t-5 15.5q-60 -34 -107 -47q-68 -22 -96 -20q-6 0 -6 3q0 5 8 7q90 18 183 88q7 5 18 15t14 12q19 9 25 0.5t4 -25.5q-5 -42 0 -61q4 -9 11.5 -19t8.5 -12zM1270 1460q24 -35 18.5 -79t-23 -80t-44.5 -70
q-70 -90 -197 -160q-142 -81 -311 -117q7 -30 39 -71q81 8 120 6q96 -6 107 -41q8 -24 -16 -34.5t-52 -10.5q-114 0 -174 55q-253 -52 -399 -219q-167 -203 -170 -389q0 -63 29.5 -114.5t83.5 -82.5q71 -40 151.5 -35t157.5 36.5t151.5 86.5t133.5 114.5t104 121.5q5 7 10 0
q3 -4 0 -10q-82 -101 -161 -174.5t-175 -126.5q-69 -39 -142.5 -56.5t-152.5 -8t-143 51.5q-73 49 -102.5 133t-19.5 169t48 165q99 205 334 299q123 46 240 60q-32 41 -43 67q-81 -12 -125 -14q-356 -23 -484 145q-69 88 -58.5 202t93.5 194q93 93 219 112q65 10 128 -6.5
t100 -62.5q76 -98 -39 -236q-78 -91 -152 -76q-26 6 -34 28.5t2 39.5q12 25 33.5 36.5t45.5 6.5q-6 0 -14.5 -15t-3.5 -24q7 -19 44 -15.5t69 33.5q26 24 44 58t21.5 74t-20.5 75q-28 43 -97 62q-114 30 -233 -51.5t-150 -204.5q-24 -98 27 -191q30 -56 82.5 -93.5
t116.5 -54t125.5 -21.5t126.5 -1q65 3 129 15q-43 119 8.5 248.5t157.5 217.5q108 84 229 101q152 21 207 -68zM922 870q-55 10 -150 -6q58 -45 160 -45q12 0 25 6t12 17q-5 22 -47 28zM1233 1274q19 31 28.5 63.5t4.5 68.5t-31 60q-29 29 -74 32.5t-83.5 -8t-78.5 -32.5
q-87 -50 -163 -139q-77 -87 -113 -184q-31 -90 -14 -166q194 44 338 133q128 76 186 172z" />
    <glyph glyph-name="Edieresis" unicode="&#xcb;" horiz-adv-x="976" 
d="M1090 1667q-8 -14 -21 -20t-25 0q-11 5 -15.5 17.5t1.5 27.5q6 14 18.5 20t24.5 2q12 -5 17.5 -18.5t-0.5 -28.5zM1227 1667q-6 -14 -19.5 -20t-25.5 0q-25 11 -15 45q6 13 19.5 20t25.5 2t16.5 -18.5t-1.5 -28.5zM1270 1460q24 -35 18.5 -79t-23 -80t-44.5 -70
q-70 -90 -197 -160q-142 -81 -311 -117q7 -30 39 -71q81 8 120 6q96 -6 107 -41q8 -24 -16 -34.5t-52 -10.5q-114 0 -174 55q-253 -52 -399 -219q-167 -203 -170 -389q0 -63 29.5 -114.5t83.5 -82.5q71 -40 151.5 -35t157.5 36.5t151.5 86.5t133.5 114.5t104 121.5q5 7 10 0
q3 -4 0 -10q-82 -101 -161 -174.5t-175 -126.5q-69 -39 -142.5 -56.5t-152.5 -8t-143 51.5q-73 49 -102.5 133t-19.5 169t48 165q99 205 334 299q123 46 240 60q-32 41 -43 67q-81 -12 -125 -14q-356 -23 -484 145q-69 88 -58.5 202t93.5 194q93 93 219 112q65 10 128 -6.5
t100 -62.5q76 -98 -39 -236q-78 -91 -152 -76q-26 6 -34 28.5t2 39.5q12 25 33.5 36.5t45.5 6.5q-6 0 -14.5 -15t-3.5 -24q7 -19 44 -15.5t69 33.5q26 24 44 58t21.5 74t-20.5 75q-28 43 -97 62q-114 30 -233 -51.5t-150 -204.5q-24 -98 27 -191q30 -56 82.5 -93.5
t116.5 -54t125.5 -21.5t126.5 -1q65 3 129 15q-43 119 8.5 248.5t157.5 217.5q108 84 229 101q152 21 207 -68zM922 870q-55 10 -150 -6q58 -45 160 -45q12 0 25 6t12 17q-5 22 -47 28zM1233 1274q19 31 28.5 63.5t4.5 68.5t-31 60q-29 29 -74 32.5t-83.5 -8t-78.5 -32.5
q-87 -50 -163 -139q-77 -87 -113 -184q-31 -90 -14 -166q194 44 338 133q128 76 186 172z" />
    <glyph glyph-name="Igrave" unicode="&#xcc;" horiz-adv-x="983" 
d="M938 664q-138 -258 -276 -412q-101 -114 -204.5 -181.5t-224.5 -66.5q-63 2 -118 28t-84 77q-35 60 -6 141q19 52 50.5 86t63.5 43q26 7 40 -6.5t11 -40.5q-3 -25 -21 -44t-40 -24q6 4 10 18.5t-4 22.5q-10 6 -23 7t-32.5 -15t-36.5 -47q-19 -37 -16 -78
q4 -46 33.5 -79.5t71 -48t90.5 -18t93 10.5q57 15 108.5 47t95 77.5t76.5 89t69 99.5q50 78 157 297q60 125 114 223.5t125.5 207t157 200t181.5 162.5q-85 0 -145 -1.5t-143.5 -7t-146 -16t-138 -29.5t-135.5 -46.5t-121.5 -68.5t-112.5 -93q-248 -248 -189 -426
q19 -53 64.5 -85t103.5 -34q116 -3 217 69q54 38 91.5 93t43.5 114q8 63 -32 90q-50 36 -115 2q-42 -24 -68 -65q-8 -9 -13.5 -5.5t3.5 15.5q68 91 150 84q28 -3 50.5 -20t31.5 -43q20 -52 -4.5 -112.5t-69.5 -109.5q-79 -88 -201 -120q-130 -30 -209 22q-51 33 -78.5 89
t-27.5 120q-3 187 192 363q104 85 232 135q166 60 350.5 80t443.5 22q73 46 180 78t175 10q14 -5 20.5 -16t-0.5 -23q-14 -25 -51 -37q-21 -8 -46 -13.5t-41.5 -8.5t-50 -4.5t-42.5 -1.5h-49.5h-44.5q-75 -52 -139.5 -122t-120 -156.5t-95 -157.5t-94 -177t-86.5 -163z
M1784 1520q-18 26 -162 -13q-64 -17 -125 -53h86q89 4 137 21q1 0 5 2t7.5 3t9.5 3.5t10.5 5t10.5 5.5t9.5 6t7 6.5t4.5 7t0 6.5zM1296 1589q-97 12 -151 35q-103 41 -72 80q15 15 31 8q5 -1 8.5 -4t7.5 -9l6 -9q56 -63 172 -91q4 -1 3.5 -5.5t-5.5 -4.5z" />
    <glyph glyph-name="Iacute" unicode="&#xcd;" horiz-adv-x="983" 
d="M938 664q-138 -258 -276 -412q-101 -114 -204.5 -181.5t-224.5 -66.5q-63 2 -118 28t-84 77q-35 60 -6 141q19 52 50.5 86t63.5 43q26 7 40 -6.5t11 -40.5q-3 -25 -21 -44t-40 -24q6 4 10 18.5t-4 22.5q-10 6 -23 7t-32.5 -15t-36.5 -47q-19 -37 -16 -78
q4 -46 33.5 -79.5t71 -48t90.5 -18t93 10.5q57 15 108.5 47t95 77.5t76.5 89t69 99.5q50 78 157 297q60 125 114 223.5t125.5 207t157 200t181.5 162.5q-85 0 -145 -1.5t-143.5 -7t-146 -16t-138 -29.5t-135.5 -46.5t-121.5 -68.5t-112.5 -93q-248 -248 -189 -426
q19 -53 64.5 -85t103.5 -34q116 -3 217 69q54 38 91.5 93t43.5 114q8 63 -32 90q-50 36 -115 2q-42 -24 -68 -65q-8 -9 -13.5 -5.5t3.5 15.5q68 91 150 84q28 -3 50.5 -20t31.5 -43q20 -52 -4.5 -112.5t-69.5 -109.5q-79 -88 -201 -120q-130 -30 -209 22q-51 33 -78.5 89
t-27.5 120q-3 187 192 363q104 85 232 135q166 60 350.5 80t443.5 22q73 46 180 78t175 10q14 -5 20.5 -16t-0.5 -23q-14 -25 -51 -37q-21 -8 -46 -13.5t-41.5 -8.5t-50 -4.5t-42.5 -1.5h-49.5h-44.5q-75 -52 -139.5 -122t-120 -156.5t-95 -157.5t-94 -177t-86.5 -163z
M1784 1520q-18 26 -162 -13q-64 -17 -125 -53h86q89 4 137 21q1 0 5 2t7.5 3t9.5 3.5t10.5 5t10.5 5.5t9.5 6t7 6.5t4.5 7t0 6.5zM1063 1587q-6 0 -6 6q1 4 4 4q125 33 176 93q2 2 5 7t5 7.5t6 5.5t9 4q18 4 28 -10q11 -10 7 -21.5t-11 -20.5t-22 -17.5t-25 -13.5t-20 -9
q-67 -24 -156 -35z" />
    <glyph glyph-name="Icircumflex" unicode="&#xce;" horiz-adv-x="983" 
d="M938 664q-138 -258 -276 -412q-101 -114 -204.5 -181.5t-224.5 -66.5q-63 2 -118 28t-84 77q-35 60 -6 141q19 52 50.5 86t63.5 43q26 7 40 -6.5t11 -40.5q-3 -25 -21 -44t-40 -24q6 4 10 18.5t-4 22.5q-10 6 -23 7t-32.5 -15t-36.5 -47q-19 -37 -16 -78
q4 -46 33.5 -79.5t71 -48t90.5 -18t93 10.5q57 15 108.5 47t95 77.5t76.5 89t69 99.5q50 78 157 297q60 125 114 223.5t125.5 207t157 200t181.5 162.5q-85 0 -145 -1.5t-143.5 -7t-146 -16t-138 -29.5t-135.5 -46.5t-121.5 -68.5t-112.5 -93q-248 -248 -189 -426
q19 -53 64.5 -85t103.5 -34q116 -3 217 69q54 38 91.5 93t43.5 114q8 63 -32 90q-50 36 -115 2q-42 -24 -68 -65q-8 -9 -13.5 -5.5t3.5 15.5q68 91 150 84q28 -3 50.5 -20t31.5 -43q20 -52 -4.5 -112.5t-69.5 -109.5q-79 -88 -201 -120q-130 -30 -209 22q-51 33 -78.5 89
t-27.5 120q-3 187 192 363q104 85 232 135q166 60 350.5 80t443.5 22q73 46 180 78t175 10q14 -5 20.5 -16t-0.5 -23q-14 -25 -51 -37q-21 -8 -46 -13.5t-41.5 -8.5t-50 -4.5t-42.5 -1.5h-49.5h-44.5q-75 -52 -139.5 -122t-120 -156.5t-95 -157.5t-94 -177t-86.5 -163z
M1784 1520q-18 26 -162 -13q-64 -17 -125 -53h86q89 4 137 21q1 0 5 2t7.5 3t9.5 3.5t10.5 5t10.5 5.5t9.5 6t7 6.5t4.5 7t0 6.5zM1305 1606q5 -3 3.5 -6t-5.5 -3q-32 0 -50 33q-3 6 -7 19t-5 16q-61 -35 -106 -47q-70 -23 -97 -21q-7 0 -7 4q2 5 9 7q90 18 183 88
q7 5 18.5 14.5t13.5 11.5q19 9 25 1t4 -25q-5 -43 0 -62q3 -9 11 -18t10 -12z" />
    <glyph glyph-name="Idieresis" unicode="&#xcf;" horiz-adv-x="983" 
d="M938 664q-138 -258 -276 -412q-101 -114 -204.5 -181.5t-224.5 -66.5q-63 2 -118 28t-84 77q-35 60 -6 141q19 52 50.5 86t63.5 43q26 7 40 -6.5t11 -40.5q-3 -25 -21 -44t-40 -24q6 4 10 18.5t-4 22.5q-10 6 -23 7t-32.5 -15t-36.5 -47q-19 -37 -16 -78
q4 -46 33.5 -79.5t71 -48t90.5 -18t93 10.5q57 15 108.5 47t95 77.5t76.5 89t69 99.5q50 78 157 297q60 125 114 223.5t125.5 207t157 200t181.5 162.5q-85 0 -145 -1.5t-143.5 -7t-146 -16t-138 -29.5t-135.5 -46.5t-121.5 -68.5t-112.5 -93q-248 -248 -189 -426
q19 -53 64.5 -85t103.5 -34q116 -3 217 69q54 38 91.5 93t43.5 114q8 63 -32 90q-50 36 -115 2q-42 -24 -68 -65q-8 -9 -13.5 -5.5t3.5 15.5q68 91 150 84q28 -3 50.5 -20t31.5 -43q20 -52 -4.5 -112.5t-69.5 -109.5q-79 -88 -201 -120q-130 -30 -209 22q-51 33 -78.5 89
t-27.5 120q-3 187 192 363q104 85 232 135q166 60 350.5 80t443.5 22q73 46 180 78t175 10q14 -5 20.5 -16t-0.5 -23q-14 -25 -51 -37q-21 -8 -46 -13.5t-41.5 -8.5t-50 -4.5t-42.5 -1.5h-49.5h-44.5q-75 -52 -139.5 -122t-120 -156.5t-95 -157.5t-94 -177t-86.5 -163z
M1784 1520q-18 26 -162 -13q-64 -17 -125 -53h86q89 4 137 21q1 0 5 2t7.5 3t9.5 3.5t10.5 5t10.5 5.5t9.5 6t7 6.5t4.5 7t0 6.5zM1153 1632q-8 -14 -20.5 -20t-24.5 0q-11 5 -15.5 17.5t1.5 27.5q6 14 18.5 20t24.5 2q12 -5 17 -18.5t-1 -28.5zM1290 1632q-6 -14 -19.5 -20
t-25.5 0q-24 10 -14 45q6 13 19.5 20t25.5 2q12 -4 16 -18t-2 -29z" />
    <glyph glyph-name="Eth" unicode="&#xd0;" horiz-adv-x="1687" 
d="M1657 1499q-97 -42 -148 -98l2 -2q103 -84 157.5 -206.5t57.5 -260.5q3 -132 -38 -262.5t-117 -243.5q-150 -224 -387 -342q-129 -63 -258 -80q-113 -13 -271 19q-41 8 -123 28q-52 -25 -106 -37q-133 -27 -276 2q-77 15 -119 45q-28 19 -25 43t35 33q34 11 78 11.5
t94 -8.5t93.5 -19t101 -25t92.5 -22q53 28 111.5 90.5t116.5 150t104.5 166t105.5 181t90 153.5q86 137 113 178h-152q-21 0 -19.5 17.5t19.5 17.5h174q83 120 174 234q79 93 140 145q-105 73 -244.5 95t-263.5 -3q-250 -42 -428 -205q-220 -202 -279 -450q-36 -152 31 -232
q39 -47 101.5 -68t129.5 -18q110 6 207 74q88 64 133 148q25 41 20.5 99t-46.5 85q-24 14 -52 13t-51 -15q-21 -13 -35 -36t-14.5 -39t4.5 -24q13 -6 25 -2.5t16 9.5q0 -49 -59 -64q-24 -6 -42 6t-18 39q3 55 56.5 97t119.5 42t99 -57q20 -33 17 -73t-17.5 -74t-38.5 -66
q-81 -105 -195 -153q-133 -57 -262 -19q-123 37 -174 139q-52 115 -12 263q32 120 113 226t192 187q217 160 489 191q299 32 490 -105q112 94 233 107q10 1 10 -4q-1 -5 -6 -7q-46 -4 -69 -14zM1407 993h-168q-82 -157 -121 -221q-49 -83 -108 -173.5t-137 -199t-163.5 -200
t-156.5 -138.5q184 -40 281 -38q127 0 258 59q212 99 372 348q161 255 193 502q16 136 -22 258.5t-136 200.5q-40 -40 -110 -144q-51 -78 -129 -219h147q11 0 16 -8.5t0.5 -17.5t-16.5 -9zM403 37q51 15 76 26q-20 5 -84.5 22t-96 24t-83 15t-94.5 9q-9 0 -24.5 -2t-35 -6
t-31 -13t-5.5 -20q15 -32 112 -55q135 -31 266 0z" />
    <glyph glyph-name="Ntilde" unicode="&#xd1;" horiz-adv-x="1720" 
d="M3033 1624q29 -29 44 -68.5t5 -70.5q-6 -19 -24 -24.5t-35 5.5q-39 26 -27 72q0 -5 11.5 -14t19.5 -4t13 16t2 31t-21 41q-42 47 -117 61q-300 58 -706 -283q-183 -154 -386 -391q-170 -202 -329 -442q-16 -75 -43 -172q-4 -13 -16.5 -59.5t-18.5 -68t-18.5 -57
t-24.5 -63.5q-30 -72 -68 -108q-11 -11 -26.5 -18t-32 -4t-23.5 20q-3 9 -3.5 20t1 20t6 22t7 20t8.5 20.5t8 17.5q17 39 38.5 80t51.5 94t43 78q33 307 88 551q70 335 185 516q-13 -12 -38.5 -36t-37.5 -37q-183 -177 -363 -402q-51 -63 -106 -135t-120.5 -160.5
t-102.5 -136.5q-6 -8 -39.5 -53.5t-43 -58t-41 -53.5t-46.5 -58.5t-44 -51t-49.5 -53.5t-48 -45t-53.5 -45q-121 -91 -236 -123q-55 -20 -124.5 -11.5t-110.5 52.5q-41 47 -41 111q0 62 37 125t96 76q27 6 41.5 -11t11.5 -43q-3 -28 -19 -46t-40 -19q6 4 8.5 19t-6.5 22
q-17 9 -45.5 -2t-52.5 -54q-22 -38 -12.5 -91t44.5 -85q30 -27 73 -35t82.5 -2t80.5 21q112 38 223 127q28 23 56 49.5t57.5 60t50 56.5t53 65.5t46 60.5t49.5 67t45 61q254 343 325 430q181 223 363 399q54 54 129 119q-46 -4 -66 -6q-10 -1 -60 -6.5t-64 -7t-59 -6.5
t-64 -8t-58.5 -8.5t-63.5 -10.5t-58 -11.5t-63.5 -14t-58.5 -15.5q-267 -74 -469 -232q-223 -170 -276 -354q-38 -140 12 -227q33 -59 100.5 -81t140 -7t128.5 57q51 38 87 93.5t40 113.5q5 45 -23.5 75.5t-79.5 26.5q-64 -10 -112 -80q-10 -16 -18 -9q-4 4 1 11
q35 50 85.5 78t105.5 4q35 -16 47.5 -50.5t7.5 -69t-20 -68.5q-50 -108 -157 -168t-224 -45q-106 16 -160 104q-64 103 -33 246q43 206 273 369q86 61 187.5 109.5t195.5 79.5t211.5 56t209.5 38.5t215 27.5q86 9 166 21q71 71 150 110q27 14 61 21.5t54 -0.5q15 -7 17 -20
t-5.5 -25.5t-18.5 -22.5q-67 -54 -196 -76q-20 -5 -47 -39q-10 -15 -19.5 -31.5t-16.5 -30.5t-15 -33.5t-13 -32.5t-12 -35.5t-10.5 -33.5t-10 -36t-9 -34t-9 -36.5t-8.5 -34.5q-10 -43 -55 -258q-37 -196 -66 -319q116 177 250 346q181 226 373 403q238 220 446 304
q75 28 158 41.5t172.5 0t140.5 -64.5zM1329 145q23 68 39 213q-11 -21 -35 -66.5t-37.5 -72t-30.5 -66t-28 -73.5q-9 -24 -1.5 -44.5t32.5 -0.5q32 30 61 110zM1870 1647q-48 -25 -107 -80q4 1 23 4t25.5 4.5t23 5t25.5 6t23 7t26 9.5t24 11q1 1 9.5 6t14 9t12.5 10
t10.5 12.5t2.5 13.5q-10 19 -51.5 7t-60.5 -25zM2116 1712q21 54 47 68q18 12 40 14t38.5 -2.5t42.5 -13t38 -11.5q50 -9 86 17q18 15 27 24q5 4 1 -7q-2 -4 -6 -13l-3 -8q-32 -46 -70 -54q-32 -8 -91.5 17.5t-88.5 13.5q-27 -11 -57 -49q-4 -6 -5.5 -3.5t1.5 7.5z" />
    <glyph glyph-name="Ograve" unicode="&#xd2;" 
d="M1176 1268q40 -28 60.5 -70.5t21.5 -94t-5 -95.5t-20 -97q-64 -234 -246 -473q-188 -243 -399 -358q-191 -111 -348 -70q-112 30 -171.5 130.5t-66.5 226.5q-16 235 121 512q53 107 132.5 213.5t178.5 202.5t220 165t241 90q142 24 240 -39q41 -24 75 -73q3 -4 1.5 -7.5
t-4.5 -4.5t-5 1q-37 43 -47 52q-50 42 -114 53.5t-129 -5t-122 -43t-110 -63.5q-198 -137 -358 -393q-161 -258 -213 -485q-14 -63 -19.5 -123t0 -127.5t36 -123t85.5 -87.5q57 -33 130.5 -33t135.5 20t125 54q213 111 393 358q83 112 140 230q72 144 92 256q34 168 -27 254
q-58 82 -192 55q-104 -21 -195.5 -99.5t-136.5 -181.5q-18 -42 -26 -83.5t-0.5 -88.5t36.5 -78q31 -33 72.5 -37t77.5 12.5t69 45.5q78 68 105 156q4 11 6 28t1 36t-10 31.5t-26 10.5q-9 -1 -15.5 -16t-4.5 -19q-12 14 -13.5 38.5t8.5 43.5q11 19 31.5 22.5t34.5 -14.5
q37 -48 4 -157q-28 -89 -93.5 -156t-150.5 -78q-62 -6 -104.5 38t-48.5 108q-13 115 78 249q52 77 139 138q48 33 105 54t120 20.5t105 -31.5zM1307 1642q-98 12 -152 35q-103 41 -72 80q15 15 31 8q5 -1 8.5 -3.5t8 -9.5t6.5 -9q55 -62 172 -90q4 -1 3.5 -6t-5.5 -5z" />
    <glyph glyph-name="Oacute" unicode="&#xd3;" 
d="M1176 1268q40 -28 60.5 -70.5t21.5 -94t-5 -95.5t-20 -97q-64 -234 -246 -473q-188 -243 -399 -358q-191 -111 -348 -70q-112 30 -171.5 130.5t-66.5 226.5q-16 235 121 512q53 107 132.5 213.5t178.5 202.5t220 165t241 90q142 24 240 -39q41 -24 75 -73q3 -4 1.5 -7.5
t-4.5 -4.5t-5 1q-37 43 -47 52q-50 42 -114 53.5t-129 -5t-122 -43t-110 -63.5q-198 -137 -358 -393q-161 -258 -213 -485q-14 -63 -19.5 -123t0 -127.5t36 -123t85.5 -87.5q57 -33 130.5 -33t135.5 20t125 54q213 111 393 358q83 112 140 230q72 144 92 256q34 168 -27 254
q-58 82 -192 55q-104 -21 -195.5 -99.5t-136.5 -181.5q-18 -42 -26 -83.5t-0.5 -88.5t36.5 -78q31 -33 72.5 -37t77.5 12.5t69 45.5q78 68 105 156q4 11 6 28t1 36t-10 31.5t-26 10.5q-9 -1 -15.5 -16t-4.5 -19q-12 14 -13.5 38.5t8.5 43.5q11 19 31.5 22.5t34.5 -14.5
q37 -48 4 -157q-28 -89 -93.5 -156t-150.5 -78q-62 -6 -104.5 38t-48.5 108q-13 115 78 249q52 77 139 138q48 33 105 54t120 20.5t105 -31.5zM1079 1657q-6 0 -6 6q1 4 4 4q126 33 176 92l5 7.5l5 7.5t6 6t9 4q19 4 29 -10q11 -10 6.5 -21.5t-11.5 -20t-22 -17.5t-25 -14
t-20 -9q-67 -24 -156 -35z" />
    <glyph glyph-name="Ocircumflex" unicode="&#xd4;" 
d="M1176 1268q40 -28 60.5 -70.5t21.5 -94t-5 -95.5t-20 -97q-64 -234 -246 -473q-188 -243 -399 -358q-191 -111 -348 -70q-112 30 -171.5 130.5t-66.5 226.5q-16 235 121 512q53 107 132.5 213.5t178.5 202.5t220 165t241 90q142 24 240 -39q41 -24 75 -73q3 -4 1.5 -7.5
t-4.5 -4.5t-5 1q-37 43 -47 52q-50 42 -114 53.5t-129 -5t-122 -43t-110 -63.5q-198 -137 -358 -393q-161 -258 -213 -485q-14 -63 -19.5 -123t0 -127.5t36 -123t85.5 -87.5q57 -33 130.5 -33t135.5 20t125 54q213 111 393 358q83 112 140 230q72 144 92 256q34 168 -27 254
q-58 82 -192 55q-104 -21 -195.5 -99.5t-136.5 -181.5q-18 -42 -26 -83.5t-0.5 -88.5t36.5 -78q31 -33 72.5 -37t77.5 12.5t69 45.5q78 68 105 156q4 11 6 28t1 36t-10 31.5t-26 10.5q-9 -1 -15.5 -16t-4.5 -19q-12 14 -13.5 38.5t8.5 43.5q11 19 31.5 22.5t34.5 -14.5
q37 -48 4 -157q-28 -89 -93.5 -156t-150.5 -78q-62 -6 -104.5 38t-48.5 108q-13 115 78 249q52 77 139 138q48 33 105 54t120 20.5t105 -31.5zM1282 1645q5 -3 3.5 -6t-5.5 -3q-31 0 -49 33q-3 6 -7 19t-5 16q-60 -34 -107 -47q-70 -23 -96 -21q-7 0 -7 4q2 5 9 7
q88 17 182 88q7 5 19 15t14 11q19 9 25 1t4 -25q-5 -43 0 -62q4 -9 11.5 -18.5t8.5 -11.5z" />
    <glyph glyph-name="Otilde" unicode="&#xd5;" 
d="M1176 1268q40 -28 60.5 -70.5t21.5 -94t-5 -95.5t-20 -97q-64 -234 -246 -473q-188 -243 -399 -358q-191 -111 -348 -70q-112 30 -171.5 130.5t-66.5 226.5q-16 235 121 512q53 107 132.5 213.5t178.5 202.5t220 165t241 90q142 24 240 -39q41 -24 75 -73q3 -4 1.5 -7.5
t-4.5 -4.5t-5 1q-37 43 -47 52q-50 42 -114 53.5t-129 -5t-122 -43t-110 -63.5q-198 -137 -358 -393q-161 -258 -213 -485q-14 -63 -19.5 -123t0 -127.5t36 -123t85.5 -87.5q57 -33 130.5 -33t135.5 20t125 54q213 111 393 358q83 112 140 230q72 144 92 256q34 168 -27 254
q-58 82 -192 55q-104 -21 -195.5 -99.5t-136.5 -181.5q-18 -42 -26 -83.5t-0.5 -88.5t36.5 -78q31 -33 72.5 -37t77.5 12.5t69 45.5q78 68 105 156q4 11 6 28t1 36t-10 31.5t-26 10.5q-9 -1 -15.5 -16t-4.5 -19q-12 14 -13.5 38.5t8.5 43.5q11 19 31.5 22.5t34.5 -14.5
q37 -48 4 -157q-28 -89 -93.5 -156t-150.5 -78q-62 -6 -104.5 38t-48.5 108q-13 115 78 249q52 77 139 138q48 33 105 54t120 20.5t105 -31.5zM1010 1632q21 54 47 68q18 12 40.5 14t38.5 -2t42.5 -12.5t38.5 -11.5q51 -9 86 16q6 5 26 25q5 4 1 -8q-2 -4 -6 -14
q-2 -5 -3 -7q-31 -45 -70 -53q-32 -8 -91.5 17t-88.5 13q-27 -11 -57 -49q-4 -6 -5.5 -3.5t1.5 7.5z" />
    <glyph glyph-name="Odieresis" unicode="&#xd6;" 
d="M1176 1268q40 -28 60.5 -70.5t21.5 -94t-5 -95.5t-20 -97q-64 -234 -246 -473q-188 -243 -399 -358q-191 -111 -348 -70q-112 30 -171.5 130.5t-66.5 226.5q-16 235 121 512q53 107 132.5 213.5t178.5 202.5t220 165t241 90q142 24 240 -39q41 -24 75 -73q3 -4 1.5 -7.5
t-4.5 -4.5t-5 1q-37 43 -47 52q-50 42 -114 53.5t-129 -5t-122 -43t-110 -63.5q-198 -137 -358 -393q-161 -258 -213 -485q-14 -63 -19.5 -123t0 -127.5t36 -123t85.5 -87.5q57 -33 130.5 -33t135.5 20t125 54q213 111 393 358q83 112 140 230q72 144 92 256q34 168 -27 254
q-58 82 -192 55q-104 -21 -195.5 -99.5t-136.5 -181.5q-18 -42 -26 -83.5t-0.5 -88.5t36.5 -78q31 -33 72.5 -37t77.5 12.5t69 45.5q78 68 105 156q4 11 6 28t1 36t-10 31.5t-26 10.5q-9 -1 -15.5 -16t-4.5 -19q-12 14 -13.5 38.5t8.5 43.5q11 19 31.5 22.5t34.5 -14.5
q37 -48 4 -157q-28 -89 -93.5 -156t-150.5 -78q-62 -6 -104.5 38t-48.5 108q-13 115 78 249q52 77 139 138q48 33 105 54t120 20.5t105 -31.5zM1085 1667q-8 -14 -20.5 -20t-24.5 0q-11 5 -15.5 17.5t1.5 27.5q6 14 18.5 20t24.5 2q12 -5 17 -18.5t-1 -28.5zM1223 1667
q-6 -14 -19.5 -20t-25.5 0q-25 11 -15 45q6 13 19.5 20t25.5 2t16.5 -18.5t-1.5 -28.5z" />
    <glyph glyph-name="multiply" unicode="&#xd7;" horiz-adv-x="960" 
d="M741 446q4 -11 -10 -22q-41 -33 -124 -97.5t-124 -97.5q16 -29 55.5 -95t59.5 -103q8 -23 -16 -23q-7 0 -15 8q-19 32 -55.5 95.5t-56.5 95.5q-17 -13 -109.5 -87t-144.5 -110q-11 -7 -19.5 -2t-8.5 14t5 15q46 32 132 102t126 99q-20 32 -57.5 96t-56.5 96
q-6 11 -0.5 20t14.5 9.5t16 -8.5q16 -26 113 -191q41 32 123 96.5t123 96.5q7 6 17 4.5t13 -11.5z" />
    <glyph glyph-name="Oslash" unicode="&#xd8;" 
d="M0 -12q-8 5 -0.5 18.5t20.5 28.5q63 74 66 78q-77 102 -84 254q-16 235 121 512q53 107 132.5 213.5t178.5 202.5t220 165t241 90q142 24 240 -39q38 -22 67 -63q17 21 50.5 60t45.5 53q16 22 24 14q7 -9 -11 -33q-203 -241 -207 -246q41 -6 72 -28q40 -28 60.5 -70.5
t21.5 -94t-5 -95.5t-20 -97q-64 -234 -246 -473q-188 -243 -399 -358q-191 -111 -348 -70q-80 20 -140 86l-55 -67q-3 -3 -15 -16t-19 -19.5t-11 -5.5zM782 692q-81 -9 -129 68q-80 -95 -247.5 -297t-264.5 -318q29 -40 70 -63q57 -33 130.5 -33t135.5 20t125 54
q213 111 393 358q83 112 140 230q72 144 92 256q34 168 -27 254q-38 53 -108 59q-7 -8 -426 -506q6 -15 20 -29q31 -33 72.5 -37t77.5 12.5t69 45.5q78 68 105 156q4 11 6 28t1 36t-10 31.5t-26 10.5q-9 -1 -15.5 -16t-4.5 -19q-12 14 -13.5 38.5t8.5 43.5q11 19 31.5 22.5
t34.5 -14.5q37 -48 4 -157q-28 -89 -93.5 -156t-150.5 -78zM846 1225q48 34 111 55t120 18q18 21 56.5 67t60.5 71q-24 28 -39 43q-50 42 -114 53.5t-129 -5t-122 -43t-110 -63.5q-198 -137 -358 -393q-161 -258 -213 -485q-54 -246 20 -379q87 104 258 309.5t256 306.5
q-11 24 -14 58q-13 115 78 249q52 77 139 138zM676 995q-51 -117 -21 -200q73 88 214 256t194 231q-28 0 -55 -6q-104 -21 -195.5 -99.5t-136.5 -181.5z" />
    <glyph glyph-name="Ugrave" unicode="&#xd9;" horiz-adv-x="1630" 
d="M1550 1548q-97 12 -151 35q-103 41 -72 80q15 15 31 8q5 -1 8.5 -4t7.5 -9l6 -9q55 -62 172 -90q4 -1 3.5 -6t-5.5 -5zM1214 53q15 -27 48.5 -29t65.5 13t54 37q136 139 260 301q5 5 10 0.5t1 -10.5q-183 -233 -267 -312q-29 -27 -62.5 -42.5t-69.5 -11.5t-60 34
q-22 27 -27.5 62.5t5.5 80t20 70t27 69.5q80 196 213 437q-91 -119 -148 -191.5t-143.5 -171.5t-167.5 -176q-130 -120 -213 -168q-131 -74 -217 -27q-40 22 -59.5 66t-20.5 92.5t10.5 108t25 103.5t31.5 89q45 113 113.5 231t159 257.5t139.5 226.5q78 141 12 240
q-32 51 -91 75.5t-126 24.5q-123 0 -240.5 -65.5t-209.5 -168.5q-88 -102 -152 -215q-76 -134 -76 -249q5 -71 38.5 -119.5t101.5 -61.5q125 -23 241 68q51 42 85.5 101t33.5 118q0 73 -59 90q-59 18 -115 -31q-28 -24 -40 -63.5t13 -52.5q8 -4 20.5 3.5t16.5 14.5
q0 -58 -41 -80q-21 -12 -41.5 -4t-27.5 35q-11 54 31 108t100 76q68 26 114 -4q50 -34 43 -108q-6 -62 -41 -118.5t-88 -98.5q-111 -90 -249 -78q-65 5 -113 40.5t-70 96.5q-37 99 19 242q88 229 327 401q117 82 248 119t250 0q64 -21 108.5 -65t59.5 -105q27 -111 -35 -246
q-53 -106 -182 -323.5t-191 -348.5q-77 -159 -94 -250q-3 -34 -1.5 -66.5t21.5 -60.5t56 -36q92 -20 236 88q98 76 182.5 164.5t197.5 220.5q170 207 308 413q30 49 103.5 172.5t129 211.5t111.5 167q10 6 23.5 3t19.5 -15q6 -15 -4 -31q-53 -99 -342 -614
q-68 -126 -265 -459q-71 -121 -88 -185q-18 -69 4 -110z" />
    <glyph glyph-name="Uacute" unicode="&#xda;" horiz-adv-x="1630" 
d="M1303 1546q-6 0 -6 6q0 4 3 4q126 33 177 93q2 2 6 9t8 10t10 5q19 4 29 -10q11 -10 6.5 -21.5t-11.5 -20t-22 -17.5t-25 -14t-20 -9q-67 -25 -155 -35zM1214 53q15 -27 48.5 -29t65.5 13t54 37q136 139 260 301q5 5 10 0.5t1 -10.5q-183 -233 -267 -312
q-29 -27 -62.5 -42.5t-69.5 -11.5t-60 34q-22 27 -27.5 62.5t5.5 80t20 70t27 69.5q80 196 213 437q-91 -119 -148 -191.5t-143.5 -171.5t-167.5 -176q-130 -120 -213 -168q-131 -74 -217 -27q-40 22 -59.5 66t-20.5 92.5t10.5 108t25 103.5t31.5 89q45 113 113.5 231
t159 257.5t139.5 226.5q78 141 12 240q-32 51 -91 75.5t-126 24.5q-123 0 -240.5 -65.5t-209.5 -168.5q-88 -102 -152 -215q-76 -134 -76 -249q5 -71 38.5 -119.5t101.5 -61.5q125 -23 241 68q51 42 85.5 101t33.5 118q0 73 -59 90q-59 18 -115 -31q-28 -24 -40 -63.5
t13 -52.5q8 -4 20.5 3.5t16.5 14.5q0 -58 -41 -80q-21 -12 -41.5 -4t-27.5 35q-11 54 31 108t100 76q68 26 114 -4q50 -34 43 -108q-6 -62 -41 -118.5t-88 -98.5q-111 -90 -249 -78q-65 5 -113 40.5t-70 96.5q-37 99 19 242q88 229 327 401q117 82 248 119t250 0
q64 -21 108.5 -65t59.5 -105q27 -111 -35 -246q-53 -106 -182 -323.5t-191 -348.5q-77 -159 -94 -250q-3 -34 -1.5 -66.5t21.5 -60.5t56 -36q92 -20 236 88q98 76 182.5 164.5t197.5 220.5q170 207 308 413q30 49 103.5 172.5t129 211.5t111.5 167q10 6 23.5 3t19.5 -15
q6 -15 -4 -31q-53 -99 -342 -614q-68 -126 -265 -459q-71 -121 -88 -185q-18 -69 4 -110z" />
    <glyph glyph-name="Ucircumflex" unicode="&#xdb;" horiz-adv-x="1630" 
d="M1536 1565q5 -3 3.5 -6t-5.5 -3q-31 0 -49 33q-3 6 -7 19t-5 16q-60 -34 -107 -47q-70 -23 -96 -21q-7 0 -7 4q2 5 9 7q88 17 182 88q7 5 19 15t14 11q19 9 25 1t4 -25q-5 -43 0 -62q4 -9 11.5 -18.5t8.5 -11.5zM1214 53q15 -27 48.5 -29t65.5 13t54 37q136 139 260 301
q5 5 10 0.5t1 -10.5q-183 -233 -267 -312q-29 -27 -62.5 -42.5t-69.5 -11.5t-60 34q-22 27 -27.5 62.5t5.5 80t20 70t27 69.5q80 196 213 437q-91 -119 -148 -191.5t-143.5 -171.5t-167.5 -176q-130 -120 -213 -168q-131 -74 -217 -27q-40 22 -59.5 66t-20.5 92.5t10.5 108
t25 103.5t31.5 89q45 113 113.5 231t159 257.5t139.5 226.5q78 141 12 240q-32 51 -91 75.5t-126 24.5q-123 0 -240.5 -65.5t-209.5 -168.5q-88 -102 -152 -215q-76 -134 -76 -249q5 -71 38.5 -119.5t101.5 -61.5q125 -23 241 68q51 42 85.5 101t33.5 118q0 73 -59 90
q-59 18 -115 -31q-28 -24 -40 -63.5t13 -52.5q8 -4 20.5 3.5t16.5 14.5q0 -58 -41 -80q-21 -12 -41.5 -4t-27.5 35q-11 54 31 108t100 76q68 26 114 -4q50 -34 43 -108q-6 -62 -41 -118.5t-88 -98.5q-111 -90 -249 -78q-65 5 -113 40.5t-70 96.5q-37 99 19 242
q88 229 327 401q117 82 248 119t250 0q64 -21 108.5 -65t59.5 -105q27 -111 -35 -246q-53 -106 -182 -323.5t-191 -348.5q-77 -159 -94 -250q-3 -34 -1.5 -66.5t21.5 -60.5t56 -36q92 -20 236 88q98 76 182.5 164.5t197.5 220.5q170 207 308 413q30 49 103.5 172.5
t129 211.5t111.5 167q10 6 23.5 3t19.5 -15q6 -15 -4 -31q-53 -99 -342 -614q-68 -126 -265 -459q-71 -121 -88 -185q-18 -69 4 -110z" />
    <glyph glyph-name="Udieresis" unicode="&#xdc;" horiz-adv-x="1630" 
d="M1397 1599q-8 -14 -20.5 -20t-24.5 0q-11 5 -15.5 17.5t0.5 27.5q6 14 18.5 20.5t24.5 2.5q12 -5 17.5 -19t-0.5 -29zM1534 1599q-6 -14 -19.5 -20t-25.5 0q-24 10 -14 45q6 14 19.5 20.5t25.5 2.5t16 -18.5t-2 -29.5zM1214 53q15 -27 48.5 -29t65.5 13t54 37
q136 139 260 301q5 5 10 0.5t1 -10.5q-183 -233 -267 -312q-29 -27 -62.5 -42.5t-69.5 -11.5t-60 34q-22 27 -27.5 62.5t5.5 80t20 70t27 69.5q80 196 213 437q-91 -119 -148 -191.5t-143.5 -171.5t-167.5 -176q-130 -120 -213 -168q-131 -74 -217 -27q-40 22 -59.5 66
t-20.5 92.5t10.5 108t25 103.5t31.5 89q45 113 113.5 231t159 257.5t139.5 226.5q78 141 12 240q-32 51 -91 75.5t-126 24.5q-123 0 -240.5 -65.5t-209.5 -168.5q-88 -102 -152 -215q-76 -134 -76 -249q5 -71 38.5 -119.5t101.5 -61.5q125 -23 241 68q51 42 85.5 101
t33.5 118q0 73 -59 90q-59 18 -115 -31q-28 -24 -40 -63.5t13 -52.5q8 -4 20.5 3.5t16.5 14.5q0 -58 -41 -80q-21 -12 -41.5 -4t-27.5 35q-11 54 31 108t100 76q68 26 114 -4q50 -34 43 -108q-6 -62 -41 -118.5t-88 -98.5q-111 -90 -249 -78q-65 5 -113 40.5t-70 96.5
q-37 99 19 242q88 229 327 401q117 82 248 119t250 0q64 -21 108.5 -65t59.5 -105q27 -111 -35 -246q-53 -106 -182 -323.5t-191 -348.5q-77 -159 -94 -250q-3 -34 -1.5 -66.5t21.5 -60.5t56 -36q92 -20 236 88q98 76 182.5 164.5t197.5 220.5q170 207 308 413
q30 49 103.5 172.5t129 211.5t111.5 167q10 6 23.5 3t19.5 -15q6 -15 -4 -31q-53 -99 -342 -614q-68 -126 -265 -459q-71 -121 -88 -185q-18 -69 4 -110z" />
    <glyph glyph-name="Yacute" unicode="&#xdd;" horiz-adv-x="1574" 
d="M1303 1546q-6 0 -6 6q0 4 3 4q126 33 177 93q2 2 6 9t8 10t10 5q19 4 29 -10q11 -10 6.5 -21.5t-11.5 -20t-22 -17.5t-25 -14t-20 -9q-67 -25 -155 -35zM1864 1456q14 21 37 11.5t16 -33.5q-334 -629 -770 -1416q296 184 426 357q6 8 11 -1q2 -4 -1 -9
q-161 -199 -450 -373q-29 -51 -109 -203t-143 -255t-138 -196q-19 -24 -37.5 -45t-44.5 -47t-51.5 -43.5t-52 -29.5t-52.5 -9t-48 21q-42 34 -29 113q40 200 266 415q35 30 79.5 63t70 50t89 57t77.5 49q65 127 71 138q7 14 123 229q12 22 37 67t37 68q118 220 213 391
q-5 -6 -49 -65t-52 -69.5t-48 -63.5t-53.5 -69t-50 -62.5t-55.5 -67.5t-53 -60t-58.5 -64.5t-56 -56.5t-61.5 -59q-122 -113 -213 -157q-121 -63 -202 -6q-86 58 -64 229q9 55 25.5 113.5t33 104.5t46.5 108t49 99t59 103.5t57.5 94.5t64 100.5t60.5 93.5q3 5 21.5 33
t24 37.5t22 37.5t22 42t16 40.5t12 43t2.5 41t-5.5 43t-18 39t-30.5 38.5q-43 42 -108 57t-132 7q-120 -11 -241 -90q-202 -132 -334 -396q-67 -142 -49 -253q10 -58 49.5 -95t97.5 -45q64 -7 127.5 15.5t112.5 66.5t81 102.5t29 116.5q-3 32 -21.5 55t-49.5 29
q-60 9 -107 -35q-15 -14 -28 -39t-14.5 -47.5t18.5 -29.5q10 -3 23 6t13 14q8 -57 -41 -82q-22 -11 -43 -2t-24 33q-7 55 38 110.5t103 77.5q67 25 113 -18q44 -39 29 -115q-10 -59 -47 -114t-89 -93q-48 -36 -111 -54.5t-124 -16t-112.5 37t-74.5 97.5q-38 103 21 256
q72 176 230.5 319t344.5 189q152 41 269 -8q60 -23 99 -71.5t50 -111.5q20 -112 -43 -231q-12 -21 -90.5 -156t-104 -180.5t-81.5 -150t-93 -186.5t-69 -167q-11 -34 -16.5 -56.5t-10.5 -59.5t6 -65.5t37 -45.5q29 -19 65.5 -19.5t67 9.5t69.5 34t61.5 41t54.5 44
q74 60 192 188q176 196 346 430q86 117 205 301q156 267 199 334q6 9 17.5 26.5t17.5 26.5zM961 -164q6 13 18 36.5t18 35.5q-120 -73 -219 -148q-112 -83 -192 -184q-89 -114 -123 -213q-27 -74 -14 -129q9 -31 35 -41t55 2q24 10 46.5 30t35.5 38t32.5 48t30.5 44
q136 212 277 481z" />
    <glyph glyph-name="germandbls" unicode="&#xdf;" horiz-adv-x="1722" 
d="M1729 1540q102 -63 98 -219q-1 -111 -54 -213t-141 -174q-66 -55 -157 -100q63 -26 106.5 -78t56.5 -119q30 -174 -66 -336.5t-261 -241.5q-54 -27 -120 -43t-135 -16.5t-124 33.5t-74 102q-34 114 62 238q86 111 198 133q44 10 86 4q8 0 10 -8t-8 -10q-29 5 -65 2
q-115 -14 -203 -127q-27 -34 -44.5 -72t-23 -82.5t12.5 -83.5q26 -56 83.5 -75.5t123.5 -6.5q188 40 313.5 181t165.5 329q17 78 -20 150.5t-109 109.5q-175 -74 -289 -74q-41 5 -53 19q-9 12 -4.5 23t16.5 20q65 47 154.5 56.5t165.5 -13.5q91 59 172 160q172 219 174 401
q-3 63 -45 102q-42 40 -113 43q-76 -3 -146 -33.5t-124 -75t-105 -109t-86 -123.5t-70 -130q-42 -80 -112 -227t-117 -242.5t-122.5 -216t-155.5 -211.5q-87 -91 -200 -142t-228 -38q-62 5 -113 35t-72 84q-18 53 -2 113q43 140 125 161q28 7 44 -11t13 -46q-6 -58 -65 -72
q6 4 10.5 21t-4.5 24q-18 8 -48.5 -6t-49.5 -53q-23 -43 -15.5 -94.5t45.5 -85.5q43 -37 109.5 -45t120.5 8q100 25 185 93t143 161q64 113 158.5 307t183 356.5t186.5 292.5q198 256 414 312q124 32 209 -21zM1157 758q115 0 246 76q-66 23 -138 15.5t-132 -44.5
q-32 -21 -27 -31q3 -5 10 -8t12.5 -4.5t16.5 -2.5t12 -1z" />
    <glyph glyph-name="agrave" unicode="&#xe0;" horiz-adv-x="583" 
d="M430 602q-97 12 -151 35q-103 41 -72 80q15 15 31 8q5 -1 8.5 -4t7.5 -9.5t6 -9.5q55 -62 172 -90q4 -2 3.5 -6t-5.5 -4zM328 80q131 134 256 297q6 6 11 -1q1 -5 -1 -9q-156 -199 -262 -308q-84 -80 -135 -51q-54 32 -7 146q-26 -34 -44.5 -56.5t-49 -47.5t-61.5 -38
q-67 -27 -111 6q-45 37 -41 121q3 57 30.5 118t68.5 110q99 114 215 133q79 12 106 -37q17 -35 6 -90q10 18 30 48t26 40q9 15 26.5 19t32.5 -5q32 -21 8 -67q-17 -27 -50 -81t-50 -81q-52 -76 -88 -148q-20 -46 7 -53q29 -5 77 35zM45 39q79 33 162 162q76 121 90 168
q9 38 -4 72t-51 34q-52 0 -111 -55q-64 -56 -117 -142t-67 -169q-9 -66 37 -76q27 -5 61 6z" />
    <glyph glyph-name="aacute" unicode="&#xe1;" horiz-adv-x="583" 
d="M180 608q-6 0 -6 6q1 4 4 4q125 33 176 93q2 2 5 7t5 7.5t6 5.5t9 4q19 4 29 -10q11 -10 6.5 -21.5t-11.5 -20t-22 -17.5t-25 -14t-20 -9q-67 -24 -156 -35zM328 80q131 134 256 297q6 6 11 -1q1 -5 -1 -9q-156 -199 -262 -308q-84 -80 -135 -51q-54 32 -7 146
q-26 -34 -44.5 -56.5t-49 -47.5t-61.5 -38q-67 -27 -111 6q-45 37 -41 121q3 57 30.5 118t68.5 110q99 114 215 133q79 12 106 -37q17 -35 6 -90q10 18 30 48t26 40q9 15 26.5 19t32.5 -5q32 -21 8 -67q-17 -27 -50 -81t-50 -81q-52 -76 -88 -148q-20 -46 7 -53q29 -5 77 35
zM45 39q79 33 162 162q76 121 90 168q9 38 -4 72t-51 34q-52 0 -111 -55q-64 -56 -117 -142t-67 -169q-9 -66 37 -76q27 -5 61 6z" />
    <glyph glyph-name="acircumflex" unicode="&#xe2;" horiz-adv-x="583" 
d="M410 600q5 -3 3.5 -5.5t-5.5 -2.5q-32 0 -50 33q-3 6 -7 18.5t-5 15.5q-61 -35 -106 -47q-68 -22 -97 -20q-6 0 -6 3q0 5 8 7q90 18 183 88q7 5 18 15t14 12q19 9 25 0.5t4 -25.5q-5 -42 0 -61q4 -9 12 -19t9 -12zM328 80q131 134 256 297q6 6 11 -1q1 -5 -1 -9
q-156 -199 -262 -308q-84 -80 -135 -51q-54 32 -7 146q-26 -34 -44.5 -56.5t-49 -47.5t-61.5 -38q-67 -27 -111 6q-45 37 -41 121q3 57 30.5 118t68.5 110q99 114 215 133q79 12 106 -37q17 -35 6 -90q10 18 30 48t26 40q9 15 26.5 19t32.5 -5q32 -21 8 -67q-17 -27 -50 -81
t-50 -81q-52 -76 -88 -148q-20 -46 7 -53q29 -5 77 35zM45 39q79 33 162 162q76 121 90 168q9 38 -4 72t-51 34q-52 0 -111 -55q-64 -56 -117 -142t-67 -169q-9 -66 37 -76q27 -5 61 6z" />
    <glyph glyph-name="atilde" unicode="&#xe3;" horiz-adv-x="583" 
d="M131 575q21 54 47 68q18 12 40.5 14t38.5 -2t42.5 -12.5t38.5 -11.5q51 -9 86 16q12 10 27 25q5 3 1 -7q-2 -4 -6 -13q-3 -7 -4 -9q-31 -45 -69 -53q-32 -8 -91.5 17.5t-88.5 13.5q-28 -11 -58 -50q-4 -6 -5.5 -3.5t1.5 7.5zM328 80q131 134 256 297q6 6 11 -1
q1 -5 -1 -9q-156 -199 -262 -308q-84 -80 -135 -51q-54 32 -7 146q-26 -34 -44.5 -56.5t-49 -47.5t-61.5 -38q-67 -27 -111 6q-45 37 -41 121q3 57 30.5 118t68.5 110q99 114 215 133q79 12 106 -37q17 -35 6 -90q10 18 30 48t26 40q9 15 26.5 19t32.5 -5q32 -21 8 -67
q-17 -27 -50 -81t-50 -81q-52 -76 -88 -148q-20 -46 7 -53q29 -5 77 35zM45 39q79 33 162 162q76 121 90 168q9 38 -4 72t-51 34q-52 0 -111 -55q-64 -56 -117 -142t-67 -169q-9 -66 37 -76q27 -5 61 6z" />
    <glyph glyph-name="adieresis" unicode="&#xe4;" horiz-adv-x="583" 
d="M260 618q-8 -14 -20.5 -20t-24.5 0q-11 5 -15.5 17.5t1.5 27.5q6 14 18.5 20.5t24.5 2.5q12 -5 17 -19t-1 -29zM397 618q-6 -14 -19.5 -20t-25.5 0q-24 10 -14 45q6 14 19.5 20.5t25.5 2.5t16 -18.5t-2 -29.5zM328 80q131 134 256 297q6 6 11 -1q1 -5 -1 -9
q-156 -199 -262 -308q-84 -80 -135 -51q-54 32 -7 146q-26 -34 -44.5 -56.5t-49 -47.5t-61.5 -38q-67 -27 -111 6q-45 37 -41 121q3 57 30.5 118t68.5 110q99 114 215 133q79 12 106 -37q17 -35 6 -90q10 18 30 48t26 40q9 15 26.5 19t32.5 -5q32 -21 8 -67q-17 -27 -50 -81
t-50 -81q-52 -76 -88 -148q-20 -46 7 -53q29 -5 77 35zM45 39q79 33 162 162q76 121 90 168q9 38 -4 72t-51 34q-52 0 -111 -55q-64 -56 -117 -142t-67 -169q-9 -66 37 -76q27 -5 61 6z" />
    <glyph glyph-name="aring" unicode="&#xe5;" horiz-adv-x="583" 
d="M367 614q-12 -29 -39 -53q-40 -31 -72 -31q-22 0 -33.5 18.5t-10.5 40.5t7 40q14 33 45 57t66 27q26 0 41 -31q12 -35 -4 -68zM334 629q32 73 -6 71q-37 -4 -73 -81q-2 -3 -3 -5q0 -1 -5 -13.5t-6.5 -19t-2.5 -17t3.5 -15.5t14.5 -6q43 2 78 86zM328 80q131 134 256 297
q6 6 11 -1q1 -5 -1 -9q-156 -199 -262 -308q-84 -80 -135 -51q-54 32 -7 146q-26 -34 -44.5 -56.5t-49 -47.5t-61.5 -38q-67 -27 -111 6q-45 37 -41 121q3 57 30.5 118t68.5 110q99 114 215 133q79 12 106 -37q17 -35 6 -90q10 18 30 48t26 40q9 15 26.5 19t32.5 -5
q32 -21 8 -67q-17 -27 -50 -81t-50 -81q-52 -76 -88 -148q-20 -46 7 -53q29 -5 77 35zM45 39q79 33 162 162q76 121 90 168q9 38 -4 72t-51 34q-52 0 -111 -55q-64 -56 -117 -142t-67 -169q-9 -66 37 -76q27 -5 61 6z" />
    <glyph glyph-name="ae" unicode="&#xe6;" horiz-adv-x="894" 
d="M870 346l25 31q6 6 10.5 0.5t-0.5 -10.5q-118 -149 -171 -203q-83 -83 -165 -131q-117 -66 -184 -6q-20 15 -35 49q-3 -4 -18 -19q-84 -80 -135 -51q-54 32 -7 146q-82 -110 -155 -140q-67 -27 -111 6q-45 37 -41 121q6 114 92 217q99 114 215 133q81 12 107 -36
q17 -35 6 -91q3 6 55 89q9 15 27 19t33 -5q33 -21 8 -68q-17 -27 -50 -81t-50 -80q-44 -65 -82 -140q-20 -46 7 -53q29 -5 77 35l16 16q-12 46 -1.5 100.5t38.5 100.5q66 113 184 174q81 41 140 29q37 -7 61 -33q20 -23 17.5 -53.5t-23.5 -59.5q-62 -82 -197 -119
q-55 -13 -117 -10q-9 -23 -13 -33t-11.5 -35t-7.5 -39.5t2.5 -33t15.5 -30t35 -17.5q75 -11 178 71q66 54 160 160q11 14 32.5 40.5t32.5 39.5zM45 39q81 34 162 160q70 111 84 159q9 38 -4 72.5t-51 34.5q-52 0 -111 -55q-36 -31 -84 -99q-81 -122 -94 -202q-9 -66 37 -76
q27 -5 61 6zM582 430q-89 -100 -129 -192q27 0 63 4q64 5 121.5 53.5t81.5 101.5t4 74q-12 12 -33 12q-49 2 -108 -53z" />
    <glyph glyph-name="ccedilla" unicode="&#xe7;" horiz-adv-x="446" 
d="M61 -53q35 -20 31 -78q-3 -33 -28.5 -70.5t-55.5 -56.5q-50 -28 -82 -8q-16 11 -19.5 33.5t5.5 39.5q7 16 18 27q5 5 6 -1l-2 -5q-4 -4 -10 -12q-10 -14 -11 -32t9 -32t27.5 -14t32.5 10q31 21 69 100q38 86 -10 95q-29 8 -64 -23q-12 -18 -14 -22q-3 -5 -8 -2.5t-2 8.5
q23 59 41 100q-43 6 -68 41q-23 32 -29 75.5t3 83.5t28 77q37 73 100.5 128.5t145.5 79.5q21 6 48 7.5t54.5 -2t44.5 -21.5t13 -47q-7 -37 -35 -72q-36 -41 -66 -41q-17 0 -26.5 11t-7.5 26q1 15 15 29t28 16q-4 -4 -5 -13t5 -15q25 -16 56 14.5t26 58.5q-5 29 -33 37.5
t-58 1.5q-99 -28 -186 -170q-58 -88 -78 -174q-17 -78 31 -100q45 -19 121 14q87 43 196 170q97 115 129 158q4 3 8 1.5t4.5 -5t-1.5 -6.5q-98 -122 -160 -191q-97 -104 -176 -145q-58 -32 -115 -29q-21 -54 -29 -74q46 40 84 19z" />
    <glyph glyph-name="egrave" unicode="&#xe8;" horiz-adv-x="446" 
d="M315 580q-100 12 -151 34q-103 41 -72 80q15 15 31 8q5 -1 8.5 -4t7.5 -9l6 -9q55 -62 172 -90q4 -2 3.5 -6t-5.5 -4zM446 377q4 5 8.5 4t5 -5.5t-2.5 -8.5q-5 -6 -32 -40.5t-34.5 -43t-32 -39t-36 -42t-34.5 -36.5t-39 -39t-38 -33t-43.5 -33.5t-44.5 -27.5
q-117 -66 -184 -6q-33 29 -43 77t1 98t37 95q65 113 185 174q81 41 139 29q37 -7 61 -33q20 -23 17.5 -53.5t-23.5 -59.5q-61 -81 -196 -118q-58 -14 -117 -11q-9 -23 -13 -33t-12 -35.5t-7.5 -40t2.5 -33.5t15 -30.5t35 -17.5q72 -11 179 74q65 54 159 159q12 14 33 40.5
t33 39.5zM135 432q-89 -100 -129 -192q28 0 64 4q39 3 78 24t65 49.5t46.5 60t23 56.5t-6.5 39q-12 12 -32 12q-49 2 -109 -53z" />
    <glyph glyph-name="eacute" unicode="&#xe9;" horiz-adv-x="446" 
d="M84 575q-7 0 -6 8q2 2 4 3q126 33 176 92q2 2 5 7t5 7.5t6 5.5t9 4q18 4 28 -10q11 -10 7 -21.5t-11 -20.5t-22 -17.5t-25 -13.5t-20 -9q-67 -24 -156 -35zM446 377q4 5 8.5 4t5 -5.5t-2.5 -8.5q-5 -6 -32 -40.5t-34.5 -43t-32 -39t-36 -42t-34.5 -36.5t-39 -39t-38 -33
t-43.5 -33.5t-44.5 -27.5q-117 -66 -184 -6q-33 29 -43 77t1 98t37 95q65 113 185 174q81 41 139 29q37 -7 61 -33q20 -23 17.5 -53.5t-23.5 -59.5q-61 -81 -196 -118q-58 -14 -117 -11q-9 -23 -13 -33t-12 -35.5t-7.5 -40t2.5 -33.5t15 -30.5t35 -17.5q72 -11 179 74
q65 54 159 159q12 14 33 40.5t33 39.5zM135 432q-89 -100 -129 -192q28 0 64 4q39 3 78 24t65 49.5t46.5 60t23 56.5t-6.5 39q-12 12 -32 12q-49 2 -109 -53z" />
    <glyph glyph-name="ecircumflex" unicode="&#xea;" horiz-adv-x="446" 
d="M342 592q5 -3 3.5 -5.5t-5.5 -2.5q-31 0 -49 32q-3 6 -7 19t-5 16q-60 -34 -107 -47q-68 -22 -96 -20q-6 0 -6 3q0 5 8 7q88 17 182 88q7 5 19 15t14 12q19 9 25 0.5t4 -25.5q-5 -42 0 -61q4 -9 11.5 -19t8.5 -12zM446 377q4 5 8.5 4t5 -5.5t-2.5 -8.5q-5 -6 -32 -40.5
t-34.5 -43t-32 -39t-36 -42t-34.5 -36.5t-39 -39t-38 -33t-43.5 -33.5t-44.5 -27.5q-117 -66 -184 -6q-33 29 -43 77t1 98t37 95q65 113 185 174q81 41 139 29q37 -7 61 -33q20 -23 17.5 -53.5t-23.5 -59.5q-61 -81 -196 -118q-58 -14 -117 -11q-9 -23 -13 -33t-12 -35.5
t-7.5 -40t2.5 -33.5t15 -30.5t35 -17.5q72 -11 179 74q65 54 159 159q12 14 33 40.5t33 39.5zM135 432q-89 -100 -129 -192q28 0 64 4q39 3 78 24t65 49.5t46.5 60t23 56.5t-6.5 39q-12 12 -32 12q-49 2 -109 -53z" />
    <glyph glyph-name="edieresis" unicode="&#xeb;" horiz-adv-x="446" 
d="M178 604q-8 -14 -20.5 -20t-24.5 0q-11 5 -15.5 17.5t1.5 27.5q6 14 18.5 20t24.5 2q12 -5 17 -18.5t-1 -28.5zM315 604q-6 -14 -19.5 -20t-25.5 0q-24 10 -14 45q6 13 19.5 20t25.5 2q12 -4 16 -18t-2 -29zM446 377q4 5 8.5 4t5 -5.5t-2.5 -8.5q-5 -6 -32 -40.5
t-34.5 -43t-32 -39t-36 -42t-34.5 -36.5t-39 -39t-38 -33t-43.5 -33.5t-44.5 -27.5q-117 -66 -184 -6q-33 29 -43 77t1 98t37 95q65 113 185 174q81 41 139 29q37 -7 61 -33q20 -23 17.5 -53.5t-23.5 -59.5q-61 -81 -196 -118q-58 -14 -117 -11q-9 -23 -13 -33t-12 -35.5
t-7.5 -40t2.5 -33.5t15 -30.5t35 -17.5q72 -11 179 74q65 54 159 159q12 14 33 40.5t33 39.5zM135 432q-89 -100 -129 -192q28 0 64 4q39 3 78 24t65 49.5t46.5 60t23 56.5t-6.5 39q-12 12 -32 12q-49 2 -109 -53z" />
    <glyph glyph-name="igrave" unicode="&#xec;" horiz-adv-x="258" 
d="M242 608q-98 12 -152 35q-103 41 -72 80q15 15 31 8q5 -1 8.5 -3.5t8 -9.5t6.5 -9q56 -63 172 -91q4 -2 3.5 -6t-5.5 -4zM272 367q-69 -88 -135 -166q-10 -11 -52.5 -61t-70.5 -78t-55 -46q-55 -33 -92 -4q-29 25 -12 82q15 40 37 87.5t39 81t45.5 88.5t41.5 81
q30 59 45 66q20 9 39 -2t19 -33q0 -15 -25 -55q-11 -20 -77.5 -135.5t-96.5 -176.5q-14 -22 -7.5 -40t38.5 -11q31 11 53 33q92 94 256 299q6 8 11 -2q1 -5 -1 -8z" />
    <glyph glyph-name="iacute" unicode="&#xed;" horiz-adv-x="258" 
d="M2 610q-7 0 -6 8q2 2 4 3q126 33 176 92q2 2 5 7t5 7.5t6 5.5t9 4q18 4 28 -10q11 -10 7 -21.5t-11 -20.5t-22 -17.5t-25 -13.5t-20 -9q-67 -24 -156 -35zM272 367q-69 -88 -135 -166q-10 -11 -52.5 -61t-70.5 -78t-55 -46q-55 -33 -92 -4q-29 25 -12 82q15 40 37 87.5
t39 81t45.5 88.5t41.5 81q30 59 45 66q20 9 39 -2t19 -33q0 -15 -25 -55q-11 -20 -77.5 -135.5t-96.5 -176.5q-14 -22 -7.5 -40t38.5 -11q31 11 53 33q92 94 256 299q6 8 11 -2q1 -5 -1 -8z" />
    <glyph glyph-name="icircumflex" unicode="&#xee;" horiz-adv-x="258" 
d="M231 623q5 -3 3.5 -6t-5.5 -3q-31 0 -49 33q-3 6 -7 19t-5 16q-60 -34 -107 -47q-70 -23 -96 -21q-7 0 -7 4q2 5 9 7q90 18 183 88q7 5 18.5 14.5t13.5 11.5q19 9 25 1t4 -25q-5 -43 0 -62q4 -9 11.5 -18.5t8.5 -11.5zM272 367q-69 -88 -135 -166q-10 -11 -52.5 -61
t-70.5 -78t-55 -46q-55 -33 -92 -4q-29 25 -12 82q15 40 37 87.5t39 81t45.5 88.5t41.5 81q30 59 45 66q20 9 39 -2t19 -33q0 -15 -25 -55q-11 -20 -77.5 -135.5t-96.5 -176.5q-14 -22 -7.5 -40t38.5 -11q31 11 53 33q92 94 256 299q6 8 11 -2q1 -5 -1 -8z" />
    <glyph glyph-name="idieresis" unicode="&#xef;" horiz-adv-x="258" 
d="M88 635q-8 -14 -20.5 -20.5t-24.5 -0.5q-11 5 -15.5 17.5t1.5 27.5q6 14 18.5 20.5t24.5 2.5q12 -5 17 -18.5t-1 -28.5zM225 635q-6 -14 -19.5 -20.5t-25.5 -0.5q-24 10 -14 45q6 14 19.5 20.5t25.5 2.5t16 -18t-2 -29zM272 367q-69 -88 -135 -166q-10 -11 -52.5 -61
t-70.5 -78t-55 -46q-55 -33 -92 -4q-29 25 -12 82q15 40 37 87.5t39 81t45.5 88.5t41.5 81q30 59 45 66q20 9 39 -2t19 -33q0 -15 -25 -55q-11 -20 -77.5 -135.5t-96.5 -176.5q-14 -22 -7.5 -40t38.5 -11q31 11 53 33q92 94 256 299q6 8 11 -2q1 -5 -1 -8z" />
    <glyph glyph-name="ntilde" unicode="&#xf1;" horiz-adv-x="647" 
d="M203 575q21 54 47 68q18 12 40.5 14t38.5 -2t42.5 -12.5t38.5 -11.5q51 -9 86 16q6 5 26 25q5 4 1 -8q-2 -4 -6 -14q-2 -5 -3 -7q-31 -45 -70 -53q-32 -8 -91.5 17.5t-88.5 13.5q-26 -11 -57 -50q-4 -6 -5.5 -3.5t1.5 7.5zM647 377q6 6 11 -1q1 -5 -1 -9
q-14 -17 -39.5 -49.5t-46.5 -58t-41 -48.5q-102 -123 -163 -170q-63 -54 -111 -37q-35 15 -35 57q3 48 24 101.5t46 93.5t58 94.5t50 93.5q9 22 -18 29q-46 11 -131 -74q-57 -55 -137 -170q-16 -29 -123 -198q-27 -44 -64 -25q-24 14 -24 39q0 7 14 35q76 123 156 246
q3 4 5.5 7.5t10 16l13.5 22.5t13.5 24.5t11.5 25t6.5 20.5t0 15.5t-9.5 5.5q-22 0 -55 -33q-15 -13 -58 -63q-8 -10 -14 -6.5t4 16.5q32 40 68 78q18 19 39.5 32t45 13.5t37.5 -19.5q7 -12 8.5 -27.5t-3.5 -36.5t-12.5 -42t-20.5 -53q50 62 82 94q49 46 92 69q38 18 70 16.5
t48.5 -30t4.5 -72.5q-17 -49 -64.5 -133t-80.5 -144t-25 -71q11 -11 24 -12.5t32.5 10.5t37 26.5t37.5 35.5t34.5 37t28 31.5t17.5 19.5q66 75 147 178z" />
    <glyph glyph-name="ograve" unicode="&#xf2;" horiz-adv-x="475" 
d="M428 580q-101 12 -152 34q-102 41 -71 80q15 15 31 8q5 -1 8.5 -4t7.5 -9l6 -9q55 -62 172 -90q4 -2 3.5 -6t-5.5 -4zM475 377q3 5 9.5 1t0.5 -11q-92 -114 -163 -127q-52 -117 -164 -195q-32 -22 -68 -35t-77 -10t-68 31q-28 29 -37 75t-2 90.5t24 82.5q39 90 119 152
t174 71q72 8 109 -29q13 -13 19.5 -38t-1.5 -54q-1 -3 -3.5 -3t-4.5 2t-2 5q7 48 -21 76q-41 35 -104.5 4t-110.5 -82q-79 -87 -133 -223q-31 -81 -6 -119q16 -24 47 -27.5t54 9.5q25 12 51.5 38t55.5 66t43 61t40 62q-25 14 -31 37q-7 27 7.5 54t39.5 40q18 11 36.5 7.5
t27.5 -23.5q16 -40 -8 -109q72 20 147 121zM240 289q8 -20 24 -29q16 24 30 67q15 50 -15 40q-22 -8 -34 -32t-5 -46z" />
    <glyph glyph-name="oacute" unicode="&#xf3;" horiz-adv-x="475" 
d="M170 575q-7 0 -6 8q2 2 4 3q126 33 176 92q2 2 5 7t5 7.5t6 5.5t9 4q18 4 28 -10q11 -10 7 -21.5t-11 -20.5t-22 -17.5t-25 -13.5t-20 -9q-67 -24 -156 -35zM475 377q3 5 9.5 1t0.5 -11q-92 -114 -163 -127q-52 -117 -164 -195q-32 -22 -68 -35t-77 -10t-68 31
q-28 29 -37 75t-2 90.5t24 82.5q39 90 119 152t174 71q72 8 109 -29q13 -13 19.5 -38t-1.5 -54q-1 -3 -3.5 -3t-4.5 2t-2 5q7 48 -21 76q-41 35 -104.5 4t-110.5 -82q-79 -87 -133 -223q-31 -81 -6 -119q16 -24 47 -27.5t54 9.5q25 12 51.5 38t55.5 66t43 61t40 62
q-25 14 -31 37q-7 27 7.5 54t39.5 40q18 11 36.5 7.5t27.5 -23.5q16 -40 -8 -109q72 20 147 121zM240 289q8 -20 24 -29q16 24 30 67q15 50 -15 40q-22 -8 -34 -32t-5 -46z" />
    <glyph glyph-name="ocircumflex" unicode="&#xf4;" horiz-adv-x="475" 
d="M397 592q5 -3 3.5 -5.5t-5.5 -2.5q-31 0 -49 32q-3 6 -7 19t-5 16q-60 -34 -107 -47q-68 -22 -96 -20q-6 0 -6 3q0 5 8 7q88 17 182 88q7 5 19 15t14 12q19 9 25 0.5t4 -25.5q-5 -42 0 -61q4 -9 11.5 -19t8.5 -12zM475 377q3 5 9.5 1t0.5 -11q-92 -114 -163 -127
q-52 -117 -164 -195q-32 -22 -68 -35t-77 -10t-68 31q-28 29 -37 75t-2 90.5t24 82.5q39 90 119 152t174 71q72 8 109 -29q13 -13 19.5 -38t-1.5 -54q-1 -3 -3.5 -3t-4.5 2t-2 5q7 48 -21 76q-41 35 -104.5 4t-110.5 -82q-79 -87 -133 -223q-31 -81 -6 -119q16 -24 47 -27.5
t54 9.5q25 12 51.5 38t55.5 66t43 61t40 62q-25 14 -31 37q-7 27 7.5 54t39.5 40q18 11 36.5 7.5t27.5 -23.5q16 -40 -8 -109q72 20 147 121zM240 289q8 -20 24 -29q16 24 30 67q15 50 -15 40q-22 -8 -34 -32t-5 -46z" />
    <glyph glyph-name="otilde" unicode="&#xf5;" horiz-adv-x="475" 
d="M131 575q21 54 47 68q18 12 40.5 14t38.5 -2t42.5 -12.5t38.5 -11.5q51 -9 86 16q12 10 27 25q5 3 1 -7q-2 -4 -6 -13q-3 -7 -4 -9q-31 -45 -69 -53q-32 -8 -91.5 17.5t-88.5 13.5q-28 -11 -58 -50q-4 -6 -5.5 -3.5t1.5 7.5zM475 377q3 5 9.5 1t0.5 -11
q-92 -114 -163 -127q-52 -117 -164 -195q-32 -22 -68 -35t-77 -10t-68 31q-28 29 -37 75t-2 90.5t24 82.5q39 90 119 152t174 71q72 8 109 -29q13 -13 19.5 -38t-1.5 -54q-1 -3 -3.5 -3t-4.5 2t-2 5q7 48 -21 76q-41 35 -104.5 4t-110.5 -82q-79 -87 -133 -223
q-31 -81 -6 -119q16 -24 47 -27.5t54 9.5q25 12 51.5 38t55.5 66t43 61t40 62q-25 14 -31 37q-7 27 7.5 54t39.5 40q18 11 36.5 7.5t27.5 -23.5q16 -40 -8 -109q72 20 147 121zM240 289q8 -20 24 -29q16 24 30 67q15 50 -15 40q-22 -8 -34 -32t-5 -46z" />
    <glyph glyph-name="odieresis" unicode="&#xf6;" horiz-adv-x="475" 
d="M242 604q-8 -14 -20.5 -20t-24.5 0q-11 5 -15.5 17.5t0.5 27.5q6 14 18.5 20t24.5 2q12 -5 17.5 -18.5t-0.5 -28.5zM379 604q-6 -14 -19.5 -20t-25.5 0q-25 11 -15 45q6 13 20 20t26 2q12 -4 16 -18t-2 -29zM475 377q3 5 9.5 1t0.5 -11q-92 -114 -163 -127
q-52 -117 -164 -195q-32 -22 -68 -35t-77 -10t-68 31q-28 29 -37 75t-2 90.5t24 82.5q39 90 119 152t174 71q72 8 109 -29q13 -13 19.5 -38t-1.5 -54q-1 -3 -3.5 -3t-4.5 2t-2 5q7 48 -21 76q-41 35 -104.5 4t-110.5 -82q-79 -87 -133 -223q-31 -81 -6 -119q16 -24 47 -27.5
t54 9.5q25 12 51.5 38t55.5 66t43 61t40 62q-25 14 -31 37q-7 27 7.5 54t39.5 40q18 11 36.5 7.5t27.5 -23.5q16 -40 -8 -109q72 20 147 121zM240 289q8 -20 24 -29q16 24 30 67q15 50 -15 40q-22 -8 -34 -32t-5 -46z" />
    <glyph glyph-name="divide" unicode="&#xf7;" horiz-adv-x="1044" 
d="M725 252q17 0 17 -17.5t-17 -17.5h-412q-18 0 -22 4q-10 11 -3.5 21t19.5 10h418zM473 115q21 -10 25.5 -35t-6.5 -45q-11 -21 -33 -31t-43 0t-25.5 34.5t6.5 45.5q9 21 31.5 31t44.5 0zM541 358q-21 10 -25.5 34t6.5 44q9 22 31 32.5t43 0.5q22 -10 27 -35t-7 -45
q-11 -22 -31.5 -31.5t-43.5 0.5z" />
    <glyph glyph-name="oslash" unicode="&#xf8;" horiz-adv-x="475" 
d="M-104 -2q-6 3 -5.5 9t5.5 9q17 17 32 35q-27 52 -24.5 113t26.5 115q39 90 119 152t174 71q58 7 96 -21q12 14 39 41q4 5 9.5 3.5t7 -6.5t-1.5 -9q-7 -7 -19 -21t-18 -20q11 -15 16 -38.5t-2 -49.5q-1 -3 -3.5 -3t-4.5 2t-2 5q7 43 -16 72q-78 -84 -365 -402
q9 -31 42 -39t65 7q25 12 51.5 38t55.5 66t43 61t40 62q-25 14 -31 37q-7 27 7.5 54t39.5 40q18 11 36.5 7.5t27.5 -23.5q16 -40 -8 -109q72 20 147 121q3 5 9.5 1t0.5 -11q-92 -114 -163 -127q-52 -117 -164 -195q-32 -22 -68 -34.5t-78.5 -8.5t-70.5 33q-8 -10 -27 -29
q-12 -12 -18 -8zM-29 166q-18 -57 -16 -88q52 57 167 186.5t185 204.5q-41 23 -101 -8.5t-102 -77.5q-83 -92 -133 -217zM240 289q8 -20 24 -29q16 24 30 67q15 50 -15 40q-22 -8 -34 -32t-5 -46z" />
    <glyph glyph-name="ugrave" unicode="&#xf9;" horiz-adv-x="557" 
d="M365 580q-101 12 -152 34q-103 41 -72 80q15 15 31 8q5 -1 8.5 -3.5t8 -9.5t6.5 -9q55 -62 172 -90q4 -2 3.5 -6t-5.5 -4zM557 377q6 6 11 -1q1 -5 -1 -9q-156 -199 -262 -308q-62 -55 -112 -59q-34 3 -46 26t-4.5 57t17.5 60.5t22 49.5q-26 -38 -67 -82
q-104 -118 -189 -111q-101 7 -41 172q18 48 44.5 96.5t66.5 114.5t55 92q21 32 53 27q19 -5 29.5 -20.5t3.5 -32.5q-9 -21 -37 -64q-17 -30 -58 -90.5t-68 -109.5t-42 -99q-11 -38 25 -49q66 -11 156 94q67 76 120 158q37 62 101 166q25 47 55 47q23 0 35 -21t0 -41
q-28 -54 -90.5 -149t-85.5 -135q-1 -3 -7 -13q-56 -96 -18 -102h8q27 0 70 39q131 134 256 297z" />
    <glyph glyph-name="uacute" unicode="&#xfa;" horiz-adv-x="557" 
d="M168 575q-7 0 -6 8q2 2 4 3q126 33 176 92q2 2 5 7t5 7.5t6 5.5t9 4q18 4 28 -10q11 -10 7 -21.5t-11 -20.5t-22 -17.5t-25 -13.5t-20 -9q-67 -24 -156 -35zM557 377q6 6 11 -1q1 -5 -1 -9q-156 -199 -262 -308q-62 -55 -112 -59q-34 3 -46 26t-4.5 57t17.5 60.5t22 49.5
q-26 -38 -67 -82q-104 -118 -189 -111q-101 7 -41 172q18 48 44.5 96.5t66.5 114.5t55 92q21 32 53 27q19 -5 29.5 -20.5t3.5 -32.5q-9 -21 -37 -64q-17 -30 -58 -90.5t-68 -109.5t-42 -99q-11 -38 25 -49q66 -11 156 94q67 76 120 158q37 62 101 166q25 47 55 47
q23 0 35 -21t0 -41q-28 -54 -90.5 -149t-85.5 -135q-1 -3 -7 -13q-56 -96 -18 -102h8q27 0 70 39q131 134 256 297z" />
    <glyph glyph-name="ucircumflex" unicode="&#xfb;" horiz-adv-x="557" 
d="M397 592q5 -3 3.5 -5.5t-5.5 -2.5q-31 0 -49 32q-3 6 -7 19t-5 16q-60 -34 -107 -47q-68 -22 -96 -20q-6 0 -6 3q0 5 8 7q88 17 182 88q7 5 19 15t14 12q19 9 25 0.5t4 -25.5q-5 -42 0 -61q4 -9 11.5 -19t8.5 -12zM557 377q6 6 11 -1q1 -5 -1 -9q-156 -199 -262 -308
q-62 -55 -112 -59q-34 3 -46 26t-4.5 57t17.5 60.5t22 49.5q-26 -38 -67 -82q-104 -118 -189 -111q-101 7 -41 172q18 48 44.5 96.5t66.5 114.5t55 92q21 32 53 27q19 -5 29.5 -20.5t3.5 -32.5q-9 -21 -37 -64q-17 -30 -58 -90.5t-68 -109.5t-42 -99q-11 -38 25 -49
q66 -11 156 94q67 76 120 158q37 62 101 166q25 47 55 47q23 0 35 -21t0 -41q-28 -54 -90.5 -149t-85.5 -135q-1 -3 -7 -13q-56 -96 -18 -102h8q27 0 70 39q131 134 256 297z" />
    <glyph glyph-name="udieresis" unicode="&#xfc;" horiz-adv-x="557" 
d="M231 604q-8 -14 -20.5 -20t-24.5 0q-11 5 -15.5 17.5t1.5 27.5q6 14 18.5 20t24.5 2q12 -5 17 -18.5t-1 -28.5zM369 604q-6 -14 -19.5 -20t-25.5 0q-25 11 -15 45q6 13 19.5 20t25.5 2t16.5 -18.5t-1.5 -28.5zM557 377q6 6 11 -1q1 -5 -1 -9q-156 -199 -262 -308
q-62 -55 -112 -59q-34 3 -46 26t-4.5 57t17.5 60.5t22 49.5q-26 -38 -67 -82q-104 -118 -189 -111q-101 7 -41 172q18 48 44.5 96.5t66.5 114.5t55 92q21 32 53 27q19 -5 29.5 -20.5t3.5 -32.5q-9 -21 -37 -64q-17 -30 -58 -90.5t-68 -109.5t-42 -99q-11 -38 25 -49
q66 -11 156 94q67 76 120 158q37 62 101 166q25 47 55 47q23 0 35 -21t0 -41q-28 -54 -90.5 -149t-85.5 -135q-1 -3 -7 -13q-56 -96 -18 -102h8q27 0 70 39q131 134 256 297z" />
    <glyph glyph-name="yacute" unicode="&#xfd;" horiz-adv-x="641" 
d="M229 575q-7 0 -6 8q2 2 4 3q126 33 176 92q2 2 5 7t5 7.5t6 5.5t9 4q19 4 29 -10q11 -10 6.5 -21.5t-11.5 -20t-22 -17.5t-25 -14t-20 -9q-67 -24 -156 -35zM641 377q4 3 7.5 1.5t4 -5t-1.5 -6.5q-51 -64 -86.5 -106t-86.5 -96t-103.5 -97t-108.5 -76q-16 -30 -67 -126.5
t-86.5 -160t-71.5 -123.5q-86 -139 -154 -225q-94 -122 -182 -158q-74 -28 -108 19q-31 40 -13 125q19 87 99 200q76 112 178 195q70 59 221 156q11 6 32 19t33 19q20 40 38 75t30.5 59t23 44.5t17 33.5t12 23t8.5 15.5t5 9.5t2.5 5.5t1.5 3.5q-28 -37 -64 -80
q-57 -61 -94 -86q-63 -41 -113 -33q-30 5 -44 24.5t-13.5 47.5t6 52t14.5 48q35 87 119 219q14 19 27 44t4 28q-27 7 -82 -55q-19 -22 -35 -43q-6 -8 -11.5 -3.5t1.5 13.5q16 21 33 41q81 94 129 82q39 -10 42.5 -50.5t-20.5 -78.5q-20 -35 -61.5 -102t-61.5 -101
q-25 -48 -32 -68q-14 -42 13.5 -57t66.5 6q41 19 108 90q34 41 86 111q19 26 38.5 58t33.5 56t35.5 63t33.5 60t41 13.5t35 -31.5q6 -19 -2 -39q-37 -59 -76.5 -127.5t-86.5 -153t-74 -131.5q96 60 182 149.5t178 209.5zM-133 -567q112 175 268 477q-12 -10 -31 -21
q-139 -86 -217 -149q-104 -82 -182 -195q-77 -106 -100 -194q-19 -86 8 -121q20 -21 45.5 -20t50.5 16q24 16 46 38.5t45 58t32.5 51.5t34.5 59z" />
    <glyph glyph-name="ydieresis" unicode="&#xff;" horiz-adv-x="641" 
d="M279 604q-8 -14 -21 -20t-25 0q-11 5 -15.5 17.5t1.5 27.5q6 14 18.5 20t24.5 2q12 -5 17.5 -18.5t-0.5 -28.5zM416 604q-6 -14 -19.5 -20t-25.5 0q-25 11 -15 45q6 13 19.5 20t25.5 2t16.5 -18.5t-1.5 -28.5zM641 377q4 3 7.5 1.5t4 -5t-1.5 -6.5q-51 -64 -86.5 -106
t-86.5 -96t-103.5 -97t-108.5 -76q-16 -30 -67 -126.5t-86.5 -160t-71.5 -123.5q-86 -139 -154 -225q-94 -122 -182 -158q-74 -28 -108 19q-31 40 -13 125q19 87 99 200q76 112 178 195q70 59 221 156q11 6 32 19t33 19q20 40 38 75t30.5 59t23 44.5t17 33.5t12 23t8.5 15.5
t5 9.5t2.5 5.5t1.5 3.5q-28 -37 -64 -80q-57 -61 -94 -86q-63 -41 -113 -33q-30 5 -44 24.5t-13.5 47.5t6 52t14.5 48q35 87 119 219q14 19 27 44t4 28q-27 7 -82 -55q-19 -22 -35 -43q-6 -8 -11.5 -3.5t1.5 13.5q16 21 33 41q81 94 129 82q39 -10 42.5 -50.5t-20.5 -78.5
q-20 -35 -61.5 -102t-61.5 -101q-25 -48 -32 -68q-14 -42 13.5 -57t66.5 6q41 19 108 90q34 41 86 111q19 26 38.5 58t33.5 56t35.5 63t33.5 60t41 13.5t35 -31.5q6 -19 -2 -39q-37 -59 -76.5 -127.5t-86.5 -153t-74 -131.5q96 60 182 149.5t178 209.5zM-133 -567
q112 175 268 477q-12 -10 -31 -21q-139 -86 -217 -149q-104 -82 -182 -195q-77 -106 -100 -194q-19 -86 8 -121q20 -21 45.5 -20t50.5 16q24 16 46 38.5t45 58t32.5 51.5t34.5 59z" />
    <glyph glyph-name="Lslash" unicode="&#x141;" horiz-adv-x="1503" 
d="M926 289h-234q-92 -99 -203 -170q144 -54 236 -80q125 -40 256 -16q147 28 286 124.5t236 227.5q6 6 11 -1q1 -5 -1 -9q-70 -92 -143 -158.5t-174 -134.5q-129 -82 -240 -105q-136 -25 -260 21q-37 13 -75 31t-88 45t-72 38q-80 -47 -177.5 -64.5t-193.5 1.5q-13 3 -25 7
t-25.5 12.5t-17 19.5t0.5 28q12 31 63 56q61 28 127 28q12 0 25 -1t23.5 -2t25.5 -4.5t23 -5t25 -6.5t23 -6.5t25 -7.5t22.5 -7.5t24.5 -8.5t23 -8q86 55 174 156h-176q-21 0 -19.5 10t19.5 10h192q63 75 137 193q-67 -17 -133 -23.5t-137.5 -1.5t-137.5 32t-114 75
q-46 43 -68.5 104t-17.5 127q9 120 89.5 225t193.5 156q127 55 245 8q58 -21 102.5 -67t57.5 -105q12 -62 -16 -131q-21 -49 -54.5 -85.5t-74.5 -37.5q-23 -1 -38.5 16t-12.5 40q4 27 22.5 44.5t40.5 20.5q-6 -4 -9.5 -20t5.5 -23q26 -14 62 9.5t51 64.5q22 61 4 119
q-19 58 -69.5 96t-113.5 51q-117 21 -217 -47q-110 -72 -170.5 -201.5t-19.5 -247.5q27 -76 88 -124t139 -63.5t157 -13t157 22.5q50 83 128 229t152 271.5t154 230.5q46 58 81 98t87.5 91t109.5 84.5t115 48.5t112.5 -4.5t73.5 -75.5q16 -46 -4.5 -116t-56.5 -134
q-106 -197 -344 -399q-262 -218 -506 -305q-105 -152 -180 -232h213q18 0 18 -10t-18 -10zM1704 1212q30 53 44 79.5t30 76.5t14 92q-1 33 -19.5 55t-45 29.5t-57.5 5.5t-58 -14q-96 -42 -199 -170q-86 -106 -171 -245.5t-175 -297.5t-160 -262q99 39 211 105
q241 142 422 335q93 96 164 211zM174 45q134 6 254 72q-133 59 -233 57q-56 -3 -115 -33q-82 -48 -20 -77q41 -19 114 -19z" />
    <glyph glyph-name="lslash" unicode="&#x142;" horiz-adv-x="321" 
d="M70 236h-90q-69 -162 -54 -187q19 -35 97 6q44 27 88.5 69t68.5 71t74 94.5t68 87.5q3 3 6.5 2t5 -4.5t-1.5 -7.5q-21 -26 -72.5 -94t-80 -102.5t-77.5 -80.5t-98 -74q-69 -35 -108 4q-37 37 6 203q4 8 4 13h-72q-21 0 -19.5 8t19.5 8h78q47 137 122.5 292t137.5 262
t164 273q37 59 60.5 92.5t64 78.5t82.5 73q72 47 116 33q46 -19 37 -105q-5 -51 -37 -121q-38 -85 -139 -227q-64 -89 -166 -211q-144 -176 -340 -381q-12 -24 -26 -59h82q18 0 18 -8t-18 -8zM678 1227q10 70 -10 94q-31 37 -99 -39q-51 -68 -104 -149.5t-90 -142
t-93.5 -164.5t-79.5 -148.5t-86 -168t-79 -153.5q5 6 16.5 17.5t16.5 17.5q58 62 166 182q211 244 327 418q3 5 19 30t21 34t18.5 31t19.5 35.5t14.5 33t14 37t8.5 35.5z" />
    <glyph glyph-name="OE" unicode="&#x152;" horiz-adv-x="1869" 
d="M1614 1135q-15 -35 -18 -74t4 -69t16.5 -55.5t17.5 -39.5l8 -14q81 8 121 6q96 -6 107 -41q8 -24 -16 -34.5t-52 -10.5q-114 0 -174 55q-253 -52 -399 -219q-167 -203 -170 -389q0 -63 29 -114.5t83 -82.5q71 -40 151.5 -35t157.5 36.5t151.5 86.5t134 114.5t104.5 121.5
q5 7 10 0q3 -4 0 -10q-82 -101 -161 -174.5t-175 -126.5q-69 -39 -142.5 -56.5t-152.5 -8t-143 51.5q-65 44 -95.5 117t-28 149t29.5 152q-7 -11 -25 -33q-188 -243 -399 -358q-191 -111 -348 -70q-112 30 -171.5 130.5t-66.5 226.5q-16 235 121 512q53 107 132.5 213.5
t178.5 202.5t220 165t241 90q142 24 240 -39q41 -24 75 -73q3 -4 1.5 -7.5t-4.5 -4.5t-5 1q-37 43 -47 52q-50 42 -114 53.5t-129 -5t-122 -43t-110 -63.5q-198 -137 -358 -393q-161 -258 -213 -485q-14 -63 -19.5 -123t0 -127.5t36 -123t85.5 -87.5q57 -33 130.5 -33
t135.5 20t125 54q213 111 393 358q83 112 140 230q72 144 92 256q34 168 -27 254q-58 82 -192 55q-104 -21 -195.5 -99.5t-136.5 -181.5q-18 -42 -26 -83.5t-0.5 -88.5t36.5 -78q31 -33 72.5 -37t77.5 12.5t69 45.5q78 68 105 156q4 11 6 28t1 36t-10 31.5t-26 10.5
q-9 -1 -15.5 -16t-4.5 -19q-12 14 -13.5 38.5t8.5 43.5q11 19 31.5 22.5t34.5 -14.5q37 -48 4 -157q-28 -89 -93.5 -156t-150.5 -78q-62 -6 -104.5 38t-48.5 108q-13 115 78 249q52 77 139 138q48 33 105 54t120 20.5t105 -31.5q40 -28 60.5 -70.5t21.5 -94t-5 -95.5
t-20 -97q-40 -135 -98 -245q90 97 231 153q123 46 240 60q-32 40 -47 82q-43 119 8 248.5t157 217.5q108 84 230 101q152 21 207 -68q16 -26 18 -57.5t-8 -62t-25 -57.5t-35 -52q-66 -84 -196 -160q-30 -17 -35 -12q-4 5 55 42q1 0 2 1q129 77 187 172q19 31 28.5 63.5
t4.5 68.5t-31 60q-29 29 -74 32.5t-83.5 -8t-78.5 -32.5q-89 -51 -164 -139q-76 -85 -112 -184zM1812 870q-54 9 -149 -6q58 -45 160 -45q12 0 25 6t12 17q-5 22 -48 28z" />
    <glyph glyph-name="oe" unicode="&#x153;" horiz-adv-x="794" 
d="M795 377q6 7 11 1.5t-1 -11.5q-117 -147 -167 -199q-83 -85 -167 -133q-117 -66 -184 -6q-41 35 -47 92q-52 -52 -84 -74t-68 -35t-77 -10t-68 31q-41 42 -41 113.5t28 132.5q39 90 119 152t174 71q72 8 109 -29q31 -36 20 -86q48 48 115 84q81 41 139 29q39 -7 62 -33
q20 -23 17.5 -53.5t-23.5 -59.5q-61 -81 -197 -118q-58 -14 -117 -11q-9 -23 -13 -33t-11.5 -35t-7.5 -39.5t2.5 -33t15.5 -30t35 -17.5q74 -11 178 72q69 57 160 159q12 13 33 39.5t32 40.5zM272 381q42 22 62 -14l6 6q3 34 -1 53t-20 35q-41 35 -104.5 4t-110.5 -82
q-84 -93 -135 -221q-31 -81 -6 -119q31 -47 100 -18q74 37 193 225q-25 14 -31 37q-7 27 7.5 54t39.5 40zM483 432q-89 -100 -129 -192q28 0 64 4q64 5 121.5 53.5t81.5 101.5t4 74q-12 12 -33 12q-49 2 -109 -53zM240 289q8 -20 24 -29q1 3 6 14q46 96 18 95q-4 0 -9 -2
q-22 -8 -34 -32t-5 -46z" />
    <glyph glyph-name="Scaron" unicode="&#x160;" horiz-adv-x="1140" 
d="M1589 1532q9 -17 9.5 -43t-4 -50.5t-13 -52t-15.5 -45t-14 -32.5q-121 -255 -305 -430q-146 -146 -321 -211q-99 -199 -178 -312q-80 -117 -163 -200.5t-188 -126.5q-137 -56 -254 -15q-61 21 -98.5 67t-36.5 107q2 61 30.5 112t82.5 67q27 8 48.5 -5.5t18.5 -37.5
q-3 -26 -25 -46t-44 -22q5 4 8 17.5t-4 23.5q-7 5 -19.5 6.5t-32 -11.5t-32.5 -38q-25 -47 -15.5 -97t50.5 -87q45 -39 112 -50.5t125 3.5q57 13 108.5 43t94.5 73.5t76 86t69 98.5q67 105 158 315q-128 -24 -254 14t-198 135q-76 112 -54 242t119 221q47 45 108 73.5
t124 31.5q84 5 136.5 -43.5t45.5 -132.5q-1 -8 -5 -10.5t-7.5 1.5t-2.5 11q10 86 -55.5 131.5t-152.5 21.5q-103 -28 -173 -127.5t-83 -212.5q-14 -140 65 -227q67 -79 173.5 -107.5t219.5 -5.5q9 20 49 108.5t57 124t51.5 105.5t67 126t68.5 112q130 203 252 299
q33 24 73 39.5t84 9.5t64 -47zM1561 1372q12 31 16.5 65.5t1 66t-26.5 46t-63 2.5q-43 -13 -83 -45.5t-75 -82t-57 -87t-51 -92.5q-176 -336 -287 -557q90 37 172 94q201 139 348 385q77 130 105 205zM1495 1720q-6 6 2 6q41 -5 64 -57q66 44 129 33q3 0 4.5 -2t0.5 -4
t-5 -2q-26 -1 -44.5 -8.5t-46 -29t-36.5 -26.5q-17 -10 -27 21q-13 46 -41 69z" />
    <glyph glyph-name="scaron" unicode="&#x161;" horiz-adv-x="405" 
d="M94 774q-6 6 2 6q41 -5 64 -57q66 44 129 33q3 0 4.5 -2t0.5 -4t-5 -2q-26 -1 -44.5 -8.5t-46 -29t-36.5 -26.5q-17 -10 -27 21q-13 46 -41 69zM406 377q6 6 11 -1q1 -5 -1 -9q-9 -11 -65 -81.5t-97.5 -118.5t-77.5 -81q-69 -62 -137 -78q-17 -4 -38.5 -6t-50.5 -0.5
t-49 17t-22 44.5q-3 36 23.5 73t62.5 44q19 4 30 -7.5t9 -29.5q-3 -38 -41 -51q4 4 5 14.5t-5 16.5q-20 11 -46 -7t-26 -48q0 -37 41 -45q51 -5 99 43q27 30 42.5 65.5t18 80.5t2 74.5t-7 85.5t-8.5 77q-8 -9 -30 -36t-38 -46q-9 -10 -13.5 -4.5t3.5 14.5q18 23 76 90
q-8 91 30 125q21 16 42 7t14 -36q-9 -29 -58 -82q30 -53 48.5 -98.5t30.5 -101t-1 -106.5t-53 -93q-30 -30 -59 -45q79 30 137 100q95 105 199 240zM104 555q-10 -31 -4 -59q25 29 41 55q18 35 0 39q-12 3 -22.5 -9.5t-14.5 -25.5z" />
    <glyph glyph-name="Ydieresis" unicode="&#x178;" horiz-adv-x="1574" 
d="M1397 1599q-8 -14 -20.5 -20t-24.5 0q-11 5 -15.5 17.5t0.5 27.5q6 14 18.5 20.5t24.5 2.5q12 -5 17.5 -19t-0.5 -29zM1534 1599q-6 -14 -19.5 -20t-25.5 0q-24 10 -14 45q6 14 19.5 20.5t25.5 2.5t16 -18.5t-2 -29.5zM1864 1456q14 21 37 11.5t16 -33.5
q-334 -629 -770 -1416q296 184 426 357q6 8 11 -1q2 -4 -1 -9q-161 -199 -450 -373q-29 -51 -109 -203t-143 -255t-138 -196q-19 -24 -37.5 -45t-44.5 -47t-51.5 -43.5t-52 -29.5t-52.5 -9t-48 21q-42 34 -29 113q40 200 266 415q35 30 79.5 63t70 50t89 57t77.5 49
q65 127 71 138q7 14 123 229q12 22 37 67t37 68q118 220 213 391q-5 -6 -49 -65t-52 -69.5t-48 -63.5t-53.5 -69t-50 -62.5t-55.5 -67.5t-53 -60t-58.5 -64.5t-56 -56.5t-61.5 -59q-122 -113 -213 -157q-121 -63 -202 -6q-86 58 -64 229q9 55 25.5 113.5t33 104.5t46.5 108
t49 99t59 103.5t57.5 94.5t64 100.5t60.5 93.5q3 5 21.5 33t24 37.5t22 37.5t22 42t16 40.5t12 43t2.5 41t-5.5 43t-18 39t-30.5 38.5q-43 42 -108 57t-132 7q-120 -11 -241 -90q-202 -132 -334 -396q-67 -142 -49 -253q10 -58 49.5 -95t97.5 -45q64 -7 127.5 15.5
t112.5 66.5t81 102.5t29 116.5q-3 32 -21.5 55t-49.5 29q-60 9 -107 -35q-15 -14 -28 -39t-14.5 -47.5t18.5 -29.5q10 -3 23 6t13 14q8 -57 -41 -82q-22 -11 -43 -2t-24 33q-7 55 38 110.5t103 77.5q67 25 113 -18q44 -39 29 -115q-10 -59 -47 -114t-89 -93
q-48 -36 -111 -54.5t-124 -16t-112.5 37t-74.5 97.5q-38 103 21 256q72 176 230.5 319t344.5 189q152 41 269 -8q60 -23 99 -71.5t50 -111.5q20 -112 -43 -231q-12 -21 -90.5 -156t-104 -180.5t-81.5 -150t-93 -186.5t-69 -167q-11 -34 -16.5 -56.5t-10.5 -59.5t6 -65.5
t37 -45.5q29 -19 65.5 -19.5t67 9.5t69.5 34t61.5 41t54.5 44q74 60 192 188q176 196 346 430q86 117 205 301q156 267 199 334q6 9 17.5 26.5t17.5 26.5zM961 -164q6 13 18 36.5t18 35.5q-120 -73 -219 -148q-112 -83 -192 -184q-89 -114 -123 -213q-27 -74 -14 -129
q9 -31 35 -41t55 2q24 10 46.5 30t35.5 38t32.5 48t30.5 44q136 212 277 481z" />
    <glyph glyph-name="Zcaron" unicode="&#x17d;" horiz-adv-x="1456" 
d="M1286 1657q-6 6 2 6q41 -5 64 -57q65 43 129 32q3 0 4.5 -2t0.5 -4t-5 -2q-20 -1 -38.5 -7.5t-29 -13.5t-29.5 -21t-30 -21q-17 -10 -27 20q-13 48 -41 70zM2007 1477q13 -21 -18 -47q-11 -9 -23 -16t-26 -11l-24.5 -7t-28.5 -3t-26.5 -1t-29 1t-26.5 3t-28.5 4t-25.5 3
q-30 -22 -60.5 -49.5t-53 -49.5t-55 -59t-48 -56t-52 -63t-48.5 -59q-150 -186 -367 -420q-84 -91 -144.5 -152t-144.5 -137t-171 -135t-179 -102q151 -76 303 -103q124 -17 249 13t228 102q43 26 122.5 103.5t125.5 140.5q4 5 9 0t1 -10q-74 -94 -130.5 -152.5
t-139.5 -122.5q-115 -85 -230 -121.5t-245 -7.5q-24 5 -47.5 12t-49 18t-43 18.5t-47 23.5t-42 23t-46.5 26.5t-43 24.5q-184 -75 -294 -41q-33 9 -57 28.5t-23 48.5q0 27 23 48t52 30q55 18 127 -8q38 -14 160 -76q63 32 126 77.5t110.5 87t109.5 107.5t98.5 108t103.5 121
t99 116q198 228 371 401q60 60 94 93t90.5 80.5t108.5 82.5q-23 5 -175 46t-233 50q-291 37 -522 -96q-182 -107 -301 -287q-85 -124 -90 -245q-2 -66 23 -124t77 -87q35 -19 80.5 -20.5t86 9.5t77.5 31q56 29 100 77.5t62 106.5q21 74 -13 113q-19 22 -51 25.5t-59 -8.5
q-31 -12 -56 -56t-3 -71q8 -8 23 1t15 15q2 -21 -10.5 -44.5t-36.5 -33.5q-24 -8 -43 2t-22 37q-7 64 64.5 123t135.5 47q29 -4 49 -25t25 -51q10 -58 -20 -115.5t-80 -103.5q-95 -85 -223 -98q-63 -6 -118.5 20.5t-88.5 81.5q-43 68 -45.5 154t25.5 162.5t77 144.5
q135 183 364.5 271t467.5 65q91 -8 255 -52.5t199 -52.5q128 82 242 72q37 -5 47 -20zM131 76q96 -13 238 53q-65 41 -136 68q-73 28 -120 14q-26 -7 -48.5 -27.5t-21.5 -44.5t29 -41t59 -22zM1989 1448q22 27 -28 29q-21 1 -58 -4q-60 -10 -136 -58q70 -12 105 -12
q80 0 117 45z" />
    <glyph glyph-name="zcaron" unicode="&#x17e;" horiz-adv-x="518" 
d="M158 641q-6 6 2 6q40 -5 63 -57q66 44 129 33q3 0 4.5 -2.5t0.5 -4.5t-5 -2q-20 -1 -38.5 -7.5t-29 -13.5t-29.5 -21t-30 -21q-16 -9 -26 20q-13 48 -41 70zM518 377q3 3 6.5 2t5 -4.5t-1.5 -7.5q-57 -72 -91.5 -113.5t-132 -140.5t-193.5 -172q-11 -154 -93 -324
q-65 -124 -143 -223q-98 -121 -194 -174q-81 -44 -117 -21q-44 26 -35 113q10 96 90 209q73 111 174 198q34 30 73 59.5t90 67t75 56.5q7 45 4 114q-51 -16 -74 -20q-31 -7 -57 2q-33 14 -31 33q3 23 29.5 41t54.5 26q75 19 115 -24q8 6 20 18q56 50 133 155.5t74 162.5
q-1 22 -19 36.5t-42 16.5q-19 1 -40 -5t-47 -16t-40 -14q-30 -10 -56 0q-7 -10 -15 -21t-14.5 -20t-15.5 -20q-6 -8 -11.5 -4t1.5 14q8 11 22 29t21 28q-10 6 -16 19q-14 23 -8 53t28 45q10 6 21.5 3t15.5 -13q14 -34 -21 -101q18 -6 58 9q10 4 30.5 13t30.5 13
q70 30 119 10q42 -16 57 -55q42 -99 -67 -231q-73 -83 -197 -154q17 -35 17 -86q210 165 407 418zM-127 -508q126 204 156 385q-154 -107 -240 -184q-97 -88 -170 -195q-83 -122 -78 -219q0 -33 17.5 -55t50.5 -15q44 11 100.5 67.5t93 108.5t70.5 107zM-12 20q21 9 39 21
q-10 23 -35 29q-31 6 -64 -7q-45 -18 -41 -36q2 -13 33 -19q26 -5 68 12zM43 520q-11 -17 -10 -38t16 -33q26 51 24 75q-1 7 -3 13q-8 12 -27 -17z" />
    <glyph glyph-name="circumflex" unicode="&#x2c6;" horiz-adv-x="516" 
d="M410 600q5 -3 3.5 -5.5t-5.5 -2.5q-32 0 -50 33q-3 6 -7 18.5t-5 15.5q-61 -35 -106 -47q-68 -22 -97 -20q-6 0 -6 3q0 5 8 7q90 18 183 88q7 5 18 15t14 12q19 9 25 0.5t4 -25.5q-5 -42 0 -61q4 -9 12 -19t9 -12z" />
    <glyph glyph-name="caron" unicode="&#x2c7;" horiz-adv-x="411" 
d="M186 973q-6 6 2 6q41 -5 64 -57q65 43 129 32q3 0 4.5 -2t0.5 -4t-5 -2q-20 -1 -38.5 -7.5t-29 -13.5t-29.5 -21t-30 -21q-17 -10 -27 20q-13 48 -41 70z" />
    <glyph glyph-name="ring" unicode="&#x2da;" horiz-adv-x="423" 
d="M285 614q-12 -29 -39 -53q-40 -31 -72 -31q-22 0 -33.5 18.5t-10.5 40.5t7 40q14 33 45 57t66 27q26 0 41 -31q12 -35 -4 -68zM252 629q32 73 -6 71q-37 -4 -73 -81q-2 -3 -3 -5q0 -1 -5 -13.5t-6.5 -19t-2.5 -17t3.5 -15.5t14.5 -6q43 2 78 86z" />
    <glyph glyph-name="tilde" unicode="&#x2dc;" horiz-adv-x="636" 
d="M131 575q21 54 47 68q18 12 40.5 14t38.5 -2t42.5 -12.5t38.5 -11.5q51 -9 86 16q12 10 27 25q5 3 1 -7q-2 -4 -6 -13q-3 -7 -4 -9q-31 -45 -69 -53q-32 -8 -91.5 17.5t-88.5 13.5q-28 -11 -58 -50q-4 -6 -5.5 -3.5t1.5 7.5z" />
    <glyph glyph-name="endash" unicode="&#x2013;" horiz-adv-x="647" 
d="M547 217h-475q-21 0 -19.5 17.5t19.5 17.5h475q11 0 16 -9t0.5 -17.5t-16.5 -8.5z" />
    <glyph glyph-name="emdash" unicode="&#x2014;" horiz-adv-x="845" 
d="M754 217h-682q-21 0 -19.5 17.5t19.5 17.5h682q11 0 16 -9t0.5 -17.5t-16.5 -8.5z" />
    <glyph glyph-name="quoteleft" unicode="&#x2018;" horiz-adv-x="434" 
d="M397 1329q-23 -41 -66.5 -111.5t-51.5 -70.5q-16 0 20 93.5t49 111.5q17 28 40 17t9 -40z" />
    <glyph glyph-name="quoteright" unicode="&#x2019;" horiz-adv-x="509" 
d="M444 1329q-23 -41 -66.5 -111.5t-51.5 -70.5q-16 0 20 93.5t49 111.5q17 28 40 17t9 -40z" />
    <glyph glyph-name="quotedblleft" unicode="&#x201c;" horiz-adv-x="653" 
d="M471 1329q-22 -39 -66.5 -110.5t-52.5 -71.5q-16 0 20.5 93.5t49.5 111.5q17 28 40 17t9 -40zM604 1329q-22 -39 -66.5 -110.5t-52.5 -71.5q-16 0 20.5 93.5t49.5 111.5q17 28 40 17t9 -40z" />
    <glyph glyph-name="quotedblright" unicode="&#x201d;" horiz-adv-x="731" 
d="M479 1329q-22 -39 -66.5 -110.5t-52.5 -71.5q-16 0 20.5 93.5t49.5 111.5q17 28 40 17t9 -40zM612 1329q-23 -41 -66.5 -111.5t-51.5 -70.5q-16 0 20 93.5t49 111.5q17 28 40 17t9 -40z" />
    <glyph glyph-name="bullet" unicode="&#x2022;" horiz-adv-x="563" 
d="M250 786q-19 -42 -58 -60t-75 -1q-35 13 -47.5 54t4.5 85q19 42 58 61.5t75 2.5q36 -14 49.5 -56t-6.5 -86z" />
    <glyph glyph-name="ellipsis" unicode="&#x2026;" horiz-adv-x="1130" 
d="M240 37q-11 -23 -32.5 -33.5t-41.5 -1.5q-20 7 -27 30t2 48q11 23 32.5 33.5t41.5 1.5q20 -8 27.5 -30.5t-2.5 -47.5zM471 37q-11 -23 -32.5 -33.5t-41.5 -1.5q-20 7 -26.5 30t2.5 48q11 23 32 33.5t41 1.5q20 -8 27.5 -30.5t-2.5 -47.5zM715 37q-11 -23 -32.5 -33.5
t-41.5 -1.5q-20 7 -27 30t2 48q11 23 32.5 33.5t41.5 1.5q20 -8 27.5 -30.5t-2.5 -47.5z" />
    <glyph glyph-name="perthousand" unicode="&#x2030;" horiz-adv-x="1974" 
d="M1133 451q37 -19 55.5 -61t17 -85t-11.5 -84q-35 -103 -121 -168q-94 -69 -166 -47q-57 19 -77.5 84t-6.5 129q23 105 117 182q114 92 193 50zM1126 244q59 192 -43 194q-79 2 -145 -123q-59 -105 -64 -200q0 -74 50 -84q40 -10 88 24q67 53 114 189zM469 786
q-58 19 -78 83t-6 130q21 104 115 181q29 24 59.5 40t69 22.5t67.5 -13.5q36 -21 54.5 -62.5t17 -83.5t-11.5 -82q-37 -102 -121 -167q-92 -71 -166 -48zM494 1085q-58 -114 -58 -194q0 -69 47 -82q39 -10 90 27q67 53 113 188q61 193 -43 195q-82 2 -149 -134zM1190 1176
l-762 -1151q-22 -31 -39 -31q-22 0 -32.5 20t1.5 37q138 200 394.5 591t382.5 575q22 17 44 0.5t11 -41.5zM1583 451q37 -19 56 -61t17.5 -85t-11.5 -84q-35 -103 -121 -168q-94 -69 -166 -47q-57 19 -77.5 84t-6.5 129q23 105 117 182q114 91 192 50zM1577 244
q59 192 -43 194q-79 2 -145 -123q-59 -105 -64 -200q0 -74 49 -84q40 -10 88 24q68 54 115 189z" />
    <glyph glyph-name="fraction" unicode="&#x2044;" horiz-adv-x="772" 
d="M131 14q-26 4 -10 37q98 186 318 606t337 641q6 9 15 9.5t16 -8t2 -17.5q-98 -190 -317 -602.5t-334 -636.5q-1 -1 -4 -6.5t-5 -8.5t-5 -7t-6.5 -6t-6.5 -1z" />
    <glyph glyph-name="Euro" unicode="&#x20ac;" horiz-adv-x="1337" 
d="M1276 1419q42 -46 49 -111t-20 -122q-20 -48 -70 -105q-37 -41 -85.5 -67.5t-90.5 -18.5q-25 4 -32.5 28t5.5 44q31 49 86 37q-6 0 -15.5 -12.5t-6.5 -24.5q2 -11 21 -16t49 5t55 38q48 55 67 102q27 55 16.5 121t-59.5 106q-84 65 -239 13q-214 -70 -428 -306
q-102 -114 -193 -260h383q10 0 12 -9q-2 -8 -10 -9h-395q-48 -76 -103 -197h377q9 0 12 -4.5t-1 -9t-11 -4.5h-385q-92 -234 -63 -393q13 -67 48.5 -113t84 -66.5t109 -27t124.5 5.5q125 18 237.5 86t201.5 170q89 105 129 186q14 31 25 22q7 -6 1 -18q-35 -77 -125 -186
q-90 -111 -188 -178q-111 -76 -241.5 -110.5t-254.5 -4.5q-61 13 -109.5 52.5t-76.5 95.5q-56 109 -49 262q6 110 41 217h-144q-6 0 -8.5 4.5t-0.5 9t9 4.5h150q35 103 90 197h-121q-7 0 -9.5 4.5t-0.5 9t8 4.5h133q130 219 324 383q235 208 456 234q157 19 232 -68z" />
    <glyph glyph-name="trademark" unicode="&#x2122;" horiz-adv-x="1021" 
d="M1014 1350q6 0 9 -5t1.5 -10.5t-8.5 -5.5q-44 0 -506 4q-10 -18 -47.5 -83.5t-53.5 -94.5t-41.5 -80t-43.5 -94q-25 -58 -15 -66q4 -3 8.5 -3t9 1.5t10 5t8.5 6.5t8 7.5t7 5.5q36 33 93 102t77 90q52 52 86 29q26 -21 2 -69q12 15 27 30q53 53 86 39q12 -6 14.5 -22
t-1 -31t-9.5 -27q35 39 62 60q31 22 49 24q16 3 28.5 -6.5t12.5 -26.5q0 -24 -10.5 -48t-36 -62t-29.5 -45q-26 -45 -19 -60q6 -13 39 15q43 39 130 147q3 4 7 3.5t5.5 -4t-0.5 -7.5q-16 -19 -45.5 -56.5t-46.5 -56.5l-9 -10q-8 -9 -11 -12l-12 -12t-14.5 -13t-14 -10.5
t-15 -8.5t-14 -4t-14.5 0t-13 7q-5 4 -8.5 9t-4.5 11t-1.5 11.5t1 12.5t3 12t4.5 13l4.5 12t5 11.5t4.5 9.5q8 16 38.5 61t39.5 72q5 18 -10 16q-16 -2 -39 -18q-14 -11 -27 -24t-26 -31t-21.5 -29t-22.5 -35.5t-18.5 -32.5t-20 -38t-18.5 -35q-12 -22 -33 -10.5t-10 33.5
q2 5 53 98q6 10 17.5 29.5t17.5 29.5q23 38 23 54q0 5 -4.5 7t-10.5 1q-9 -3 -34 -23q-50 -48 -103 -137q-7 -13 -53 -84q-6 -9 -17 -11t-20 5q-16 13 0 37q38 63 64 100q0 1 5 8q75 126 25 101q-12 -6 -53 -54q-24 -26 -53 -60.5t-53 -61t-54 -54.5q-38 -26 -56 -24
q-9 2 -17 8q-8 7 -11 17t-1 23.5t3.5 21.5t6.5 24t6 18q15 42 38.5 91t38.5 77t50.5 90t44.5 78h-70q-7 0 -8.5 5.5t1.5 10.5t9 5h80q24 44 74 122.5t63 100.5q2 2 8 12.5t11 17.5t13.5 16t14.5 8t15 -7q6 -8 -2 -25q-35 -60 -81.5 -137t-64.5 -108q77 -1 241.5 -2t252.5 -2
z" />
    <glyph glyph-name="fi" unicode="&#xfb01;" horiz-adv-x="663" 
d="M674 367q-69 -88 -135 -166q-12 -13 -42 -47.5t-47.5 -54t-43 -43.5t-46.5 -38q-55 -33 -92 -4q-29 25 -12 82q28 76 102 205q-78 -89 -153 -117q-11 -87 -68 -233q-93 -232 -270 -471q-97 -131 -176 -207q-21 -21 -51 -43t-43 -21q-23 1 -34.5 23.5t-11.5 50.5
q1 64 19 137.5t36.5 123.5t53.5 134.5t49 122.5q100 228 246 514q146 278 268 486l54 90t60.5 100t53 85t65.5 97.5t64 83.5q23 28 61 56t82 41.5t70 -17.5q21 -23 21 -65.5t-11.5 -78.5t-27.5 -69q-45 -97 -137 -227q-61 -86 -164 -209q-179 -213 -336 -350
q-176 -332 -248 -475q-5 -9 -32.5 -66t-35 -72t-31.5 -66t-33.5 -73.5l-28.5 -67.5t-29.5 -75.5t-23.5 -69.5t-22 -75q-9 -41 3 -60q11 -15 49.5 15.5t84 84t76 92t43.5 56.5q187 255 269 465q56 144 67 227q-28 -6 -55 0q-31 7 -42 33t-1 57q8 28 33 46.5t51 7.5
q45 -21 35 -121q90 38 192 174q25 45 31 57q30 59 45 66q20 9 38.5 -2t18.5 -33q0 -17 -24 -55q-22 -40 -89 -146t-95 -164q-14 -22 -8 -40t38 -11q32 11 54 33q101 104 256 297q6 8 11 -2q1 -5 -1 -8zM729 1210q5 16 7.5 38.5t-4.5 46t-27 28.5q-23 5 -51.5 -15t-63.5 -67
t-48 -67.5t-41 -66.5q-5 -8 -7 -11q-225 -399 -394 -715q2 2 71.5 68.5t107.5 109.5q189 202 327 410q31 47 50 77.5t40.5 76.5t32.5 87zM98 236q3 -23 23 -37q30 -17 67 -2q13 91 -22 108q-23 10 -49 -16q-19 -22 -19 -53zM549 641q-15 8 -19.5 27.5t5.5 38.5
q7 17 25.5 24.5t33.5 -0.5q36 -19 16 -65q-9 -19 -26.5 -26t-34.5 1z" />
    <glyph glyph-name="fl" unicode="&#xfb02;" horiz-adv-x="722" 
d="M1061 1356q46 -19 37 -105q-5 -51 -37 -121q-38 -85 -139 -227q-64 -89 -166 -211q-144 -176 -340 -381q-39 -81 -69 -162t-19 -100q19 -34 96 6q44 27 88.5 69t68.5 71t74 94.5t68 87.5q6 6 11 -1q1 -5 -1 -9q-22 -28 -58.5 -76.5t-62 -80.5t-59.5 -71t-70.5 -69.5
t-76.5 -53.5q-69 -36 -109 4q-37 37 6 203q2 8 10 29q-58 -51 -108 -68q-11 -87 -68 -233q-93 -232 -270 -471q-97 -131 -176 -207q-21 -21 -51 -43t-43 -21q-23 1 -34.5 23.5t-11.5 50.5q1 64 19 137.5t36.5 123.5t53.5 134.5t49 122.5q100 228 246 514q146 278 268 486
l54 90t60.5 100t53 85t65.5 97.5t64 83.5q23 28 61 56t82 41.5t70 -17.5q21 -23 21 -65.5t-11.5 -78.5t-27.5 -69q-45 -97 -137 -227q-61 -86 -164 -209q-179 -213 -336 -350q-176 -332 -248 -475q-5 -9 -32.5 -66t-35 -72t-31.5 -66t-33.5 -73.5l-28.5 -67.5t-29.5 -75.5
t-23.5 -69.5t-22 -75q-9 -41 3 -60q11 -15 49.5 15.5t84 84t76 92t43.5 56.5q187 255 269 465q56 144 67 227q-28 -6 -55 0q-31 7 -42 33t-1 57q8 28 33 46.5t51 7.5q45 -21 35 -121q53 20 117 84q47 131 121.5 281t133 250t158.5 263q37 59 60.5 92.5t64 78.5t82.5 73
q72 47 117 33zM1079 1227q10 70 -10 94q-30 36 -98 -39q-51 -68 -105 -150.5t-89 -139.5t-94.5 -166.5t-79 -146.5t-87.5 -170.5t-78 -152.5q5 6 16.5 17.5t16.5 17.5q58 62 166 182q215 249 328 418q2 4 16.5 27t18.5 29t16.5 27t17 30.5t14 28.5t14 32t9.5 29.5t8 32.5z
M729 1210q5 16 7.5 38.5t-4.5 46t-27 28.5q-23 5 -51.5 -15t-63.5 -67t-48 -67.5t-41 -66.5q-5 -8 -7 -11q-225 -399 -394 -715q2 2 71.5 68.5t107.5 109.5q189 202 327 410q31 47 50 77.5t40.5 76.5t32.5 87zM98 236q3 -23 23 -37q30 -17 67 -2q13 91 -22 108
q-23 10 -49 -16q-19 -22 -19 -53z" />
    </font>
</defs>
</svg>
