<?xml version="1.0" standalone="no"?>
<!DOCTYPE svg PUBLIC "-//W3C//DTD SVG 1.1//EN" "http://www.w3.org/Graphics/SVG/1.1/DTD/svg11.dtd" >
<svg xmlns="http://www.w3.org/2000/svg" xmlns:xlink="http://www.w3.org/1999/xlink" version="1.1">
<metadata>
Created by FontForge 20170731 at Sun Oct 27 18:43:02 2019
 By Aleksey,,,
Hertina (c) Letterara 2019. All Rights Reserved
</metadata>
<defs>
<font id="Hertina" horiz-adv-x="2792" >
  <font-face 
    font-family="Hertina"
    font-weight="400"
    font-stretch="normal"
    units-per-em="2048"
    panose-1="2 0 5 0 0 0 0 0 0 0"
    ascent="1638"
    descent="-410"
    x-height="571"
    cap-height="1631"
    bbox="-948 -1067 7062 2136"
    underline-thickness="150"
    underline-position="-442"
    unicode-range="U+001D-E219"
  />
<missing-glyph horiz-adv-x="1024" 
d="M100 0v1434h824v-1434h-824zM150 50q177 80 358 80t366 -80v1334q-192 -59 -373 -59t-351 59v-1334zM419 334l57 58q11 10 20 10q10 0 22 -11l56 -60q9 -11 9 -20q0 -11 -10 -22l-56 -62q-14 -14 -21 -14q-11 0 -20 10l-61 71q-7 9 -7 18q0 10 11 22zM413 1191
q53 30 112 30q92 0 148 -47.5t56 -127.5q0 -49 -23 -98.5t-87 -129.5q-63 -80 -99 -132t-36 -99q0 -38 24 -133h-32q-35 97 -35 148q0 76 81.5 218t81.5 217q0 57 -33 90t-91 33q-8 0 -16 -1l32 -51q5 -9 5 -17v-4q-2 -11 -14 -20l-66 -50q-16 -10 -23 -10h-1q-10 2 -17 14
l-47 81q-4 7 -4 14q0 2 1 5q1 10 28.5 32.5t54.5 37.5z" />
    <glyph glyph-name="a.swsh" unicode="a__" horiz-adv-x="2124" 
d="M803 -131q-377 0 -558 170q-40 34 -40 92q0 17 3 35q-42 -46 -85 -78q-72 -49 -114 -49q-20 0 -33 10q-32 27 -32 88q0 17 6.5 72t58 156t131.5 164q60 46 128 46q24 0 50 -6q31 -8 41 -39q19 22 45 22q9 0 20 -3q38 -16 38 -53q0 -10 -3.5 -20t-18.5 -40l-35 -68
q-85 -153 -85 -230q0 -16 3 -32q26 -109 162 -161q126 -47 304 -47q14 0 118.5 1.5t311 58.5t372 164.5t239.5 262.5q40 83 40 179q0 157 -91 306q-111 -72 -265 -120q-213 -70 -502 -70q-319 0 -543 91q-144 58 -225.5 143t-81.5 185q1 44 19 89q42 102 157 174
q91 57 221 83q75 15 160 15q112 0 242 -26q111 94 251 136q130 41 263 41q183 0 332 -65q142 -62 203 -172q30 -56 30 -121q0 -22 -9 -79.5t-92 -161.5q-53 -68 -137 -125q98 -160 98 -327q0 -249 -241 -431q-150 -112 -348 -178q-250 -82 -508 -82zM12 65q27 0 92 46
t120 121l4 5q36 99 109 250q0 12 -2 21q-7 34 -27 34q-26 0 -81 -59t-114 -147t-95 -163q-25 -54 -25 -82q0 -26 19 -26zM1009 708q286 0 496 69q152 47 259 117q-128 192 -351 324.5t-444 184.5q-93 -83 -146 -210q-3 -9 -12 -9q-3 0 -7.5 2t-6 6t-1.5 6l1 6
q51 122 138 205q-115 22 -215 22q-83 0 -156 -15q-124 -24 -209 -77q-111 -69 -148 -162q-16 -39 -16 -79q0 -89 72 -164q78 -81 217 -137q219 -89 529 -89zM1787 911q79 56 130 118q94 120 94 225q0 58 -26 106q-57 102 -189 159q-144 63 -322 63q-280 0 -478 -156
q214 -54 432 -183q233 -142 359 -332z" />
    <glyph glyph-name="er" unicode="er" horiz-adv-x="918" 
d="M538 35q-52 2 -52 43t28.5 99.5t64.5 111.5t57 79q7 9 7 14q0 7 -21.5 18t-59.5 48q-123 -145 -294 -289q-150 -124 -229 -124l-15 1q0 1 -1 1q-77 19 -77 112q0 76 42.5 173.5t111.5 178.5q87 101 166 101q36 0 57.5 -23.5t21.5 -64.5t-24 -85q-47 -86 -138 -86
q-34 0 -76 12q-46 -66 -77 -129q-36 -71 -36 -113q0 -39 36 -47l12 -1q64 0 207 116q172 146 294 290l-12 16q-20 33 -20 63q0 58 56 94q25 16 48 16q47 0 47 -44q0 -29 -26 -72l-11 -18q-25 -34 -44 -56q35 -38 73 -56q20 -11 35 -23q18 -15 18 -35q0 -33 -35.5 -79.5
t-79.5 -94.5q-77 -80 -77 -104q0 -13 23 -14q92 1 176 72q87 74 201 212q4 5 13 5q4 0 9 -3.5t5 -11.5q0 -5 -4 -9q-116 -140 -206.5 -216.5t-193.5 -77.5zM181 372q76 0 114 72q21 39 21 77t-18 38q-10 0 -25 -10q-59 -48 -148 -169q30 -8 56 -8zM564 495q12 15 21 28h1
q19 25 25 36q19 32 19 44q-1 7 -6 7q-17 0 -45 -34q-22 -28 -22 -54q0 -12 6 -25z" />
    <glyph glyph-name=".notdef" horiz-adv-x="1024" 
d="M100 0v1434h824v-1434h-824zM150 50q177 80 358 80t366 -80v1334q-192 -59 -373 -59t-351 59v-1334zM419 334l57 58q11 10 20 10q10 0 22 -11l56 -60q9 -11 9 -20q0 -11 -10 -22l-56 -62q-14 -14 -21 -14q-11 0 -20 10l-61 71q-7 9 -7 18q0 10 11 22zM413 1191
q53 30 112 30q92 0 148 -47.5t56 -127.5q0 -49 -23 -98.5t-87 -129.5q-63 -80 -99 -132t-36 -99q0 -38 24 -133h-32q-35 97 -35 148q0 76 81.5 218t81.5 217q0 57 -33 90t-91 33q-8 0 -16 -1l32 -51q5 -9 5 -17v-4q-2 -11 -14 -20l-66 -50q-16 -10 -23 -10h-1q-10 2 -17 14
l-47 81q-4 7 -4 14q0 2 1 5q1 10 28.5 32.5t54.5 37.5z" />
    <glyph glyph-name=".null" horiz-adv-x="0" 
 />
    <glyph glyph-name=".null" horiz-adv-x="0" 
 />
    <glyph glyph-name="nonmarkingreturn" horiz-adv-x="508" 
 />
    <glyph glyph-name="space" unicode=" " horiz-adv-x="695" 
 />
    <glyph glyph-name="space" unicode="&#xa0;" horiz-adv-x="695" 
 />
    <glyph glyph-name="exclam" unicode="!" horiz-adv-x="759" 
d="M138 196h-7q-15 0 -24.5 7t-9.5 16q0 16 219 372q107 174 214 359q2 4 8 4q10 0 15.5 -3.5t5.5 -6.5l-1 -3q-104 -185 -194 -362.5t-196 -365.5q-10 -16 -30 -17zM75 17h-7q-24 5 -36 22.5t-12 37.5l1 11q0 23 22 44q17 15 38 15h9q23 -5 35 -22.5t12 -40.5l-1 -10
q-5 -26 -22 -41.5t-39 -15.5z" />
    <glyph glyph-name="quotedbl" unicode="&#x22;" horiz-adv-x="549" 
d="M48 472q-7 12 -20 73q-8 37 -8 75q0 24 5 67.5t37 61.5q15 9 36 9l15 -1q45 -12 45 -59q0 -20 -8 -47q-17 -59 -53.5 -116t-48.5 -63zM239 471q-8 13 -20 71q-8 40 -8 86l1 39q13 90 74 90l17 -1q46 -10 46 -57q0 -21 -9 -49q-17 -58 -53.5 -115t-47.5 -64z" />
    <glyph glyph-name="numbersign" unicode="#" horiz-adv-x="1028" 
d="M36 -95q-4 0 -7 2q-9 3 -9 12q0 3 2 7q83 189 191 387q-114 31 -114 50q0 3 2 7.5t6 6t7 1.5l6 -1q57 -24 111 -32q58 99 121 186q-66 16 -126 42q-9 3 -9 13q0 15 14 15l6 -1q71 -29 139 -36q116 156 189 292q4 8 13 8q3 0 8 -2t6.5 -6t1.5 -7t-2 -6q-34 -68 -62 -127
q-39 -81 -79 -158q80 -4 176 -24q74 96 135 209q3 7 11 7q2 0 5.5 -2t4 -5t0.5 -4l-1 -6q-25 -51 -46 -96l-58 -116q64 -20 142 -60q8 -5 8 -13q0 -3 -2 -7q-4 -8 -13 -8q-4 0 -7 2q-55 26 -153 41q-44 -79 -111 -174q72 -19 160 -64q8 -4 8 -14q0 -3 -2.5 -7.5t-6.5 -6
t-6 -1.5q-4 0 -7 2q-63 30 -179 46q-18 -18 -77 -110q-36 -56 -74 -140q-4 -7 -11 -7q-2 0 -7 2.5t-5 8.5l2 6q53 119 120 248q-83 13 -170 30q-102 -138 -143 -202q-46 -72 -95 -179q-5 -8 -13 -9zM484 316q49 86 109 170q-81 12 -166 28q-48 -84 -112 -178q107 -8 169 -20
z" />
    <glyph glyph-name="dollar" unicode="$" horiz-adv-x="1336" 
d="M352 -136q-1 0 -13.5 1t-24.5 22q-5 9 -5 19q0 15 14 38q-181 35 -261 155v1q-42 71 -42 168q0 78 32 152q42 96 120 160q34 29 74 46q-17 37 -17 76q0 79 83 134l5 1q5 0 7 -3.5t2 -6.5q-1 -4 -4 -6q-75 -49 -75 -120q0 -34 16 -68q40 15 87 15t94 -20q82 -36 113 -115
q90 15 181 69l55 84q-10 63 -10 116q0 74 41 124q36 45 84 62q28 11 53 11l33 -5l115 180q4 7 12 7q4 0 9.5 -3t5.5 -11q0 -4 -2 -8q-58 -93 -113 -184q14 -15 14 -42q0 -19 -12 -60t-92 -133q-28 -33 -64 -65l5 -32l2 -6q15 -96 15 -177q0 -131 -49.5 -252t-168.5 -188
q-115 -65 -243 -65h-8q-14 -25 -29 -46q-17 -25 -39 -25zM494 508q22 0 45 2q-29 69 -102 101q-44 19 -86 19q-43 0 -79 -13q23 -38 65 -66q62 -43 157 -43zM341 -28q187 294 370 569l5 8q-77 -40 -154 -54q5 -26 5 -40q0 -67 -53 -111q-2 -2 -5 -2q-10 0 -10 9q0 4 3 6
q48 40 48 98q0 13 -3 27l-3 11q-26 -3 -51 -3q-99 0 -166 46q-46 31 -72 74q-39 -16 -72 -44q-74 -61 -114 -153q-31 -71 -31 -145q0 -180 145 -253q70 -36 158 -43zM445 -25q109 14 202 82t140 199q29 81 29 191q0 66 -10 141l-47 -80q-150 -263 -314 -533zM854 759
q48 72 96 146q-33 -8 -63 -38q-33 -35 -33 -92v-16zM864 676q29 27 54 55q83 97 83 145q0 18 -12 25l-127 -215q1 -2 1 -5t1 -5z" />
    <glyph glyph-name="percent" unicode="%" horiz-adv-x="992" 
d="M435 57q-17 0 -34 6q-78 32 -90 93q-3 17 -3 33q0 47 29 104t89.5 105t126.5 48q34 0 61 -25q34 -36 34 -94q0 -77 -45 -153q-41 -67 -94 -95q-39 -22 -74 -22zM437 87q26 0 58 17q46 25 83 85q41 71 41 135q0 48 -26 76q-16 16 -40 16q-38 -2 -72.5 -48t-58.5 -107
q-31 -78 -31 -131q0 -31 15 -38q3 0 5 -1q12 -4 26 -4zM49 31q-2 0 -9.5 2.5t-13.5 10.5t-6 13q0 10 177 272q141 208 298 405l-53 -6q-18 -54 -56.5 -107.5t-89.5 -79.5q-52 -24 -88 -24q-30 0 -48 16q-33 30 -33 87q0 12 4 55t49.5 115t119.5 99q7 2 14 2q15 0 26 -11
q23 20 44 20t42 -19q29 -32 29 -79q0 -15 -3 -31q-1 -6 -2 -13l74 11q149 179 228 179q13 0 22 -6q18 -11 18 -32q0 -16 -19.5 -53t-122.5 -82q-98 -120 -227 -278.5t-233.5 -289.5t-129.5 -170q-3 -6 -11 -6zM254 560q13 0 29 7q43 23 76.5 68.5t50.5 91.5q-32 0 -55 11
q-47 24 -47 66v2q-59 -39 -82 -104q-14 -40 -14 -73q0 -69 42 -69zM419 756q7 31 7 46q0 36 -21 58q-11 10 -21 10q-16 0 -32 -21q-1 -15 -12 -26q-2 -8 -2 -17q0 -25 29 -41q21 -9 52 -9zM693 828q32 17 60 55q14 18 14 23q0 1 -1 1q-8 0 -47 -48z" />
    <glyph glyph-name="ampersand" unicode="&#x26;" horiz-adv-x="1124" 
d="M560 31q-92 0 -166 33.5t-118 95.5l-21 -1q-83 0 -147 52q-69 55 -88 182v2q0 5 3.5 9t10.5 4q11 0 13 -12q17 -116 78 -164q56 -46 133 -46q-36 64 -36 133q0 21 9 78t94.5 124.5t249.5 78.5q-111 113 -111 194q0 2 1.5 43.5t72.5 86.5q77 48 179 48q82 0 144.5 -39
t62.5 -122q0 -47 -41 -91q-20 -21 -52 -21q-47 0 -91 43q-14 14 -14 20q0 7 4 10.5t8 3.5q7 0 11.5 -5t9.5 -10q38 -35 73 -35q17 0 29 10q1 2 3 3q34 35 34 75q0 93 -103 93q-95 0 -180 -71q-63 -53 -63 -121q0 -57 65 -118q4 -4 4 -11q0 -12 -14 -12q-98 -3 -159 -61
q-91 -87 -91 -223q0 -40 10 -80q86 39 120 115.5t82 113t103 36.5q77 0 132 -61q51 -55 51 -129q0 -40 -18 -84q-30 -70 -100 -118q-75 -52 -177 -52zM586 59q79 7 137 47q62 43 89 106q16 37 16 71q0 65 -44 113q-46 52 -114 52q-99 0 -157 -132v-1q-40 -88 -137 -130
q23 -59 76 -94q47 -32 118 -32h16z" />
    <glyph glyph-name="quotesingle" unicode="'" horiz-adv-x="358" 
d="M48 472q-7 12 -20 73q-8 37 -8 75q0 24 5 67.5t37 61.5q15 9 36 9l15 -1q45 -12 45 -59q0 -20 -8 -47q-17 -59 -53.5 -116t-48.5 -63z" />
    <glyph glyph-name="parenleft" unicode="(" horiz-adv-x="908" 
d="M288 -215h-2q-5 0 -9 3q-200 170 -242 377q-15 72 -15 144q0 135 65.5 305t228.5 337.5t373 258.5l6 1q3 0 7 -2t6 -6t2 -7q0 -9 -9 -14q-173 -76 -316.5 -243.5t-221.5 -376.5q-59 -158 -59 -311q0 -49 15 -174t179 -266q5 -4 5 -12q0 -14 -13 -14z" />
    <glyph glyph-name="parenright" unicode=")" horiz-adv-x="907" 
d="M35 -215q-15 0 -15 14q0 9 9 14q173 76 317 243.5t222 376.5q59 158 59 311q0 49 -15.5 174t-178.5 267q-6 4 -6 11q0 13 14 15q6 0 11 -4q199 -170 241 -377q14 -72 14 -145q0 -134 -64.5 -304t-227.5 -337t-374 -258z" />
    <glyph glyph-name="asterisk" unicode="*" horiz-adv-x="514" 
d="M206 706q-15 0 -28 11q-27 23 -41 72l-3 -6q-35 -46 -73 -46q-22 0 -33 14q-8 8 -8 22q0 34 73 67l7 3l-7 2q-19 7 -37 18q-35 27 -35 56q0 15 6 24q10 14 27 14q20 0 47 -24q21 -20 37 -41q0 19 15 54q25 45 59 45q8 0 15 -4q19 -8 19 -30q0 -18 -17 -45l-10 -13
q-1 -2 -3 -3q2 0 8 3q21 8 40 8q20 0 35 -12t15 -29q0 -44 -88 -44l-29 1q52 -40 52 -75q0 -2 -1.5 -12.5t-23.5 -24.5q-9 -5 -18 -5z" />
    <glyph glyph-name="plus" unicode="+" horiz-adv-x="606" 
d="M103 251q-12 0 -23 6q-26 15 -26 44q0 12 6 23l80 145l-105 1q-15 0 -15 15t15 15l121 -1l111 202q14 25 43 25q12 0 24 -6q26 -14 26 -42q0 -12 -7 -25l-84 -155l122 -1q15 0 15 -15q0 -14 -15 -14l-139 1l-105 -192q-16 -26 -44 -26z" />
    <glyph glyph-name="comma" unicode="," horiz-adv-x="359" 
d="M32 -134q-12 0 -12 13q0 10 9 12l7 6q48 45 48 63q0 9 -11 14q-29 14 -29 43q0 14 8 29q20 35 51 35q12 0 23 -5q33 -12 33 -54q0 -44 -45 -98q-36 -43 -78 -57z" />
    <glyph glyph-name="hyphen" unicode="-" horiz-adv-x="586" 
d="M70 308q-21 0 -35 14t-15 35q0 21 13.5 35t34.5 15l268 8q21 0 35.5 -14t14.5 -37q0 -19 -13 -33t-34 -15z" />
    <glyph glyph-name="hyphen" unicode="&#xad;" horiz-adv-x="586" 
d="M70 308q-21 0 -35 14t-15 35q0 21 13.5 35t34.5 15l268 8q21 0 35.5 -14t14.5 -37q0 -19 -13 -33t-34 -15z" />
    <glyph glyph-name="period" unicode="." horiz-adv-x="305" 
d="M59 -16h-4q-16 0 -27 18q-8 12 -8 27v8q9 42 46 42h5q16 -3 25 -17t9 -30l-1 -5q0 -17 -16 -32q-12 -11 -29 -11z" />
    <glyph glyph-name="slash" unicode="/" horiz-adv-x="953" 
d="M59 -197q-2 0 -13 1t-21 19q-5 8 -5 17q0 27 355 560q175 263 354 546q4 5 11 5q4 0 7 -1q6 -5 6 -11q0 -4 -2 -8q-174 -280 -328 -551q-328 -577 -364 -577z" />
    <glyph glyph-name="zero" unicode="0" horiz-adv-x="764" 
d="M235 -3q-34 0 -64 11h-1q-127 50 -155 167q-10 42 -10 87q0 81 39.5 197t137.5 239.5t220 186.5q73 37 146 37q49 0 97 -16h1q113 -52 113 -212q0 -104 -45 -224q-22 -59 -55 -116q-120 -205 -239 -288q-102 -69 -185 -69zM234 27q74 0 168 64q115 79 231 277
q32 56 53 112q43 116 43 212q0 130 -76 178l-17 8q-19 6 -39 6q-57 0 -138.5 -58t-170 -175.5t-144.5 -246.5q-54 -125 -54 -224q0 -3 1.5 -56t89.5 -88q25 -9 53 -9z" />
    <glyph glyph-name="one" unicode="1" horiz-adv-x="564" 
d="M46 1q-3 0 -11.5 2t-19 10t-10.5 16l1 4q107 230 171 357.5t124 215.5t154 200q-196 -188 -289 -308q-5 -6 -12 -6q-14 0 -15 15q0 5 4 9q93 122 322 342q62 60 80 60q14 0 14 -19q0 -24 -13 -45l-13 -20q-259 -378 -474 -826q-4 -7 -13 -7z" />
    <glyph glyph-name="two" unicode="2" horiz-adv-x="830" 
d="M208 20q-85 0 -168 17q-35 6 -35 21q0 12 16 28q72 93 173.5 156t206.5 112.5t187.5 102.5t120.5 125q37 81 37 138q0 37 -29 84q-31 51 -132 51q-78 0 -151 -46.5t-83 -142.5v-6q0 -14 4 -26q12 -34 55 -37q14 0 14 -16q0 -14 -15 -14q-37 3 -58 22q-30 25 -30 73v6
q8 96 74 151q83 69 198 69q63 0 128.5 -28.5t93.5 -106.5q11 -28 11 -61q0 -62 -36 -144q-55 -109 -183 -183.5t-270 -131.5q-95 -41 -173.5 -81t-119.5 -86q77 -16 165 -16q33 0 94.5 3.5t138.5 35.5t116 104q5 8 13 8q4 0 7 -1q9 -4 9 -13q0 -3 -2 -7q-86 -160 -377 -160z
" />
    <glyph glyph-name="three" unicode="3" horiz-adv-x="787" 
d="M235 -25q-17 0 -81.5 10.5t-116.5 90.5q-32 48 -32 99q0 35 26 99t180 117q42 13 82 13q69 0 111 -44q35 -37 35 -114v-4q0 -15 -15 -15q-14 2 -14 15v4q0 128 -119 128q-34 0 -72 -12q-187 -62 -187 -189q0 -41 34 -91q38 -55 139 -55q91 0 206 94q75 67 104 151
q10 31 10 60q0 51 -40.5 110t-198.5 90q-15 2 -15 13q0 15 22 21l4 2q83 32 216 106.5t212 128.5q-54 3 -100 8t-89 5q-42 0 -100 -9t-144 -84q-5 -4 -9 -4q-8 0 -12 4.5t-4 10.5t5 10q93 83 176 95q42 7 89 7q44 0 91 -6q63 -8 139 -8q14 -1 14 -14q0 -7 -6 -13
q-98 -110 -195 -164t-229 -91q261 -61 261 -237q0 -143 -157 -257q-121 -81 -220 -81z" />
    <glyph glyph-name="four" unicode="4" horiz-adv-x="719" 
d="M299 13h-4q-25 0 -25 16l1 4q45 137 78 215q-58 -5 -106 -5q-24 0 -46 1q-146 13 -179 50q-13 15 -13 33q0 27 38.5 71t133.5 108.5t203 130.5q101 62 185 118.5t122 101.5q4 5 10 6q6 0 11 -4t5 -9v-2q0 -5 -3 -9q-49 -52 -204 -160q-236 -167 -327 -257
q-62 -63 -62 -102q0 -48 132 -48q51 0 114 7q30 65 62.5 114.5t78.5 109.5q50 66 130 179q4 5 10 5q3 0 10 -2t12 -8.5t5 -11.5q0 -4 -2 -7q-68 -112 -214 -370q53 6 117 12q16 0 16 -15q0 -14 -13 -15q-69 -6 -137 -14q-111 -196 -123 -233q-4 -9 -16 -10z" />
    <glyph glyph-name="five" unicode="5" horiz-adv-x="791" 
d="M241 -14q-15 0 -75 5t-120 68q-41 44 -41 104q0 52 27 101q64 108 164 157q36 17 68 17q35 0 56 -25.5t21 -76.5q0 -20 -16 -20q-14 0 -14 15v6q0 70 -48 72q-24 0 -55 -15q-91 -45 -150 -145q-23 -43 -23 -90q0 -54 34 -81q38 -30 99 -30q17 0 69 6t137 57.5t136 135.5
q45 86 45 154q0 130 -110 170q-24 9 -49 9q-51 0 -103 -39q-19 -16 -40 -16q-15 0 -31 9q-29 19 -29 50q0 16 9 32q161 248 241 248q2 0 22 -2t52 -27q36 -30 91 -36h9q53 0 145 67q4 3 9 3q7 0 11 -5q3 -4 3 -9v-2q0 -6 -5 -10q-73 -55 -124 -63q-31 -5 -58 -5q-18 0 -34 2
t-33 2q-20 0 -48 -5t-73 -43.5t-106 -130.5q42 8 79 8q70 0 138.5 -36.5t96.5 -125.5q10 -34 10 -70q0 -62 -28 -131q-68 -147 -176 -208q-93 -51 -183 -51z" />
    <glyph glyph-name="six" unicode="6" horiz-adv-x="713" 
d="M212 20q-99 0 -150 71q-57 84 -57 183q0 8 2.5 66t57.5 165q80 152 217 258t284 114h5q66 0 103 -27q16 -11 25 -26t9 -34q0 -26 -20 -55q-4 -5 -12 -5q-4 0 -9 3.5t-5 9.5q0 5 3 9q14 20 14 37q0 12 -5 21q-26 39 -103 39q-82 0 -191 -93q-103 -88 -187 -214
q56 25 111 25q19 0 37 -3q130 -23 160 -116q13 -38 13 -79q0 -59 -35.5 -145t-126.5 -155q-65 -49 -140 -49zM182 53q65 0 135 59t114 153q33 68 33 129q0 22 -10.5 72t-116.5 70q-16 2 -32 2q-74 0 -144 -46q-2 -6 -5 -9q-91 -164 -91 -292q0 -53 20 -84q40 -54 97 -54z
" />
    <glyph glyph-name="seven" unicode="7" horiz-adv-x="721" 
d="M24 46h-4q-4 0 -8 2t-5.5 6t-1.5 7t2 6q180 317 305.5 461.5t259.5 255.5l66 58q-17 -2 -35 -6q-140 -28 -223 -28q-72 0 -117 26q-6 5 -6 12q0 4 2 8q6 7 12 7q4 0 9 -3q36 -20 98 -20q80 0 220 27q56 12 85 12q33 0 33 -17q0 -8 -7 -16l-55 -59q-492 -513 -621 -732
q-3 -5 -9 -7z" />
    <glyph glyph-name="eight" unicode="8" horiz-adv-x="761" 
d="M285 24q-77 0 -155 32q-28 12 -48 27q-77 55 -77 138q0 54 33 109q46 74 150 133q65 37 162 72q-10 11 -19 23q-57 82 -57 150q0 31 24.5 90.5t131.5 94.5q46 15 94 15q84 0 152 -34q80 -43 80 -130q0 -35 -15 -73l-9 -19q-62 -115 -208 -158q60 -75 71 -149q4 -26 4 -51
q0 -95 -62.5 -167.5t-176.5 -94.5q-37 -8 -75 -8zM229 67q133 0 223 111q47 57 47 124q0 77 -76 155l-52 53q-165 -54 -253 -132q-83 -73 -83 -156q0 -69 64 -115q55 -40 130 -40zM502 518q144 41 203 148q21 38 21 78q0 69 -64 104l-12 5q-45 17 -87 17q-38 0 -93.5 -21.5
t-84.5 -87.5q-10 -23 -10 -46q0 -47 36 -98q31 -40 82 -90z" />
    <glyph glyph-name="nine" unicode="9" horiz-adv-x="710" 
d="M143 31q-91 0 -121 44q-17 23 -17 52q0 60 70 113q4 2 8 2q15 0 15 -14q0 -7 -6 -11q-58 -44 -58 -90q0 -19 11 -35q20 -29 68 -29q80 0 188.5 85.5t207.5 223.5q-71 -29 -156 -29q-72 0 -129.5 32.5t-59.5 118.5q2 85 57 177.5t137 158.5q87 70 170 70q78 0 133 -88
l1 -2q43 -81 43 -170q0 -46 -22.5 -140.5t-120 -219t-225.5 -195.5q-98 -54 -194 -54zM359 372q87 0 182 47q71 110 101 211q14 47 14 86q0 45 -19 80q-35 55 -87 55q-10 0 -48 -7t-106.5 -67.5t-116.5 -140t-52 -149.5q0 -115 132 -115z" />
    <glyph glyph-name="colon" unicode=":" horiz-adv-x="355" 
d="M112 502h-7q-34 6 -34 43v9q0 17 16 31q12 11 28 11h6q17 -3 27 -18q8 -11 8 -25l-1 -9q0 -17 -16 -31q-12 -11 -27 -11zM61 309h-6q-16 0 -27 17q-8 12 -8 28v7q0 17 16 32q13 11 30 11h2l2 -1q35 -6 35 -46v-4l-1 -2q0 -17 -16 -31q-12 -11 -27 -11z" />
    <glyph glyph-name="semicolon" unicode=";" horiz-adv-x="405" 
d="M161 502h-7q-34 6 -34 46v6l1 1q3 19 15 30t28 11h7q17 -3 26 -18q9 -11 9 -26l-1 -8q0 -16 -16 -31q-12 -11 -28 -11zM38 173h-4q-14 0 -14 15q0 9 10 14q18 14 41.5 39t23.5 40q0 10 -13 17q-35 17 -35 51q0 16 9 33q25 41 60 41q14 0 27 -6q39 -15 39 -63
q0 -53 -52 -115q-42 -50 -92 -66z" />
    <glyph glyph-name="semicolon" unicode="&#x37e;" horiz-adv-x="405" 
d="M161 502h-7q-34 6 -34 46v6l1 1q3 19 15 30t28 11h7q17 -3 26 -18q9 -11 9 -26l-1 -8q0 -16 -16 -31q-12 -11 -28 -11zM38 173h-4q-14 0 -14 15q0 9 10 14q18 14 41.5 39t23.5 40q0 10 -13 17q-35 17 -35 51q0 16 9 33q25 41 60 41q14 0 27 -6q39 -15 39 -63
q0 -53 -52 -115q-42 -50 -92 -66z" />
    <glyph glyph-name="less" unicode="&#x3c;" horiz-adv-x="603" 
d="M317 225q-11 0 -21 6l-256 165q-20 12 -20 35q0 26 24 37l304 127q8 3 16 3q25 0 36 -24q3 -8 3 -16q0 -25 -24 -36l-235 -99l195 -125q18 -13 18 -35q0 -10 -6 -20q-12 -18 -34 -18z" />
    <glyph glyph-name="equal" unicode="=" horiz-adv-x="596" 
d="M80 372q-21 0 -35 13.5t-16 34.5q0 22 14 36t35 15l267 8q21 0 35.5 -13.5t15.5 -34.5q0 -21 -13.5 -35.5t-34.5 -15.5zM71 203q-21 0 -35.5 13.5t-15.5 34.5q0 21 13.5 35.5t34.5 15.5l268 7q21 0 35.5 -13.5t15.5 -34.5q0 -21 -13.5 -35.5t-34.5 -15.5z" />
    <glyph glyph-name="greater" unicode="&#x3e;" horiz-adv-x="603" 
d="M107 225q-22 0 -35 18q-6 10 -6 20q0 22 18 35l195 125l-235 99q-24 11 -24 36q0 8 3 16q11 24 36 24q9 0 320 -130q25 -11 25 -37q0 -23 -21 -35l-256 -165q-10 -6 -20 -6z" />
    <glyph glyph-name="question" unicode="?" horiz-adv-x="841" 
d="M121 133q-68 0 -68 48q0 22 22.5 60.5t79.5 80.5l67 47q96 64 186 139q130 108 130 204q0 103 -164 103q-68 0 -138 -34t-115.5 -98.5t-45.5 -118.5q0 -3 0.5 -32t60.5 -38l9 -1q31 0 65 30q5 4 11 4q14 0 14 -14q0 -8 -5 -12q-44 -38 -86 -38l-12 1q-85 13 -85 97
q0 56 44 129.5t139 131.5t226 58q104 0 157 -64q28 -34 28 -87q0 -46 -20 -105q-32 -86 -95 -143.5t-137.5 -96t-144.5 -66.5q-34 -14 -64 -28q-49 -24 -78 -56q-21 -25 -21 -43q0 -28 46 -28q13 0 30 2h3q4 0 9 -3.5t5 -11.5q0 -5 -3 -9q-7 -8 -50 -8zM80 -48
q-25 0 -42.5 16.5t-17.5 40.5q0 23 17.5 39.5t42.5 16.5q24 0 41.5 -16.5t17.5 -39.5q0 -24 -17.5 -40.5t-41.5 -16.5z" />
    <glyph glyph-name="at" unicode="@" horiz-adv-x="1133" 
d="M372 -119q-44 0 -125.5 19.5t-154 110.5t-72.5 225q0 125 86 264q114 180 303 276q103 50 215 50q213 0 292 -178q17 -47 17 -96q0 -42 -19.5 -111t-78.5 -153t-123 -135q-54 -43 -121 -73q-42 -19 -76 -19q-19 0 -36 7q-30 13 -30 67q0 22 5 52q-54 -48 -112 -48l-17 1
q-114 26 -114 147q0 72 46.5 160t140.5 137q43 22 90 22q58 0 122 -33q9 -4 15 -11q16 26 43 26q12 0 24 -6q26 -15 26 -43q0 -20 -25 -58q-141 -249 -141 -324q0 -35 32 -35q42 0 109 55q58 46 114.5 124.5t83.5 167.5q13 42 13 82q0 44 -16 85q-34 75 -116 94
q-43 10 -89 10q-40 0 -106 -12t-125 -41q-163 -83 -263 -239q-83 -136 -83 -268q0 -86 40.5 -162t141.5 -104q32 -9 69 -9q246 0 502 270q5 4 13 4q5 0 9 -4t4 -10t-4 -11q-261 -273 -509 -273zM345 169q58 0 124 74q25 75 63.5 149t77.5 143q-13 21 -53 21q-39 0 -95 -40
t-110 -119q-69 -101 -69 -169q0 -47 46 -58z" />
    <glyph glyph-name="A" unicode="A" horiz-adv-x="2902" 
d="M2985 -756q-95 0 -198 25q-492 133 -508 598v43q0 351 210 821q-132 8 -260 8q-159 -155 -333 -299.5t-353 -252.5t-351 -154q-89 -23 -174 -23q-242 0 -350 162q-328 0 -512 194q-139 148 -155 374q-1 19 -1 39q0 188 112 405q97 176 247 282q254 179 585 179
q40 0 80 -3q195 -16 339 -91q159 79 307 79q127 0 217 -62q32 -21 57 -50q77 -87 77 -219q0 -247 -275 -554q243 24 472 24q169 174 373.5 406t362.5 431q19 30 48 30q21 0 39 -12q25 -18 25 -46q0 -15 -9 -31q-261 -445 -432 -797q114 -12 231 -30q12 -4 12 -15
q0 -15 -14 -15h-3q-121 20 -240 31q-258 -527 -258 -878q0 -180 93.5 -328t347.5 -217q99 -24 191 -24q113 0 256 50.5t272 188.5q107 114 163 251q50 121 50 239q0 128 -65 228q-58 89 -174 142q-9 5 -9 14q0 3 2 7t6 6t6 2q4 0 7 -2q125 -57 187 -153q70 -108 70 -243
q0 -124 -52 -251q-58 -142 -170 -261q-134 -143 -325 -210q-106 -38 -224 -38zM2502 760q119 264 302 585l-123 -134q-171 -190 -422 -442q120 -1 243 -9zM1083 60q44 0 146.5 19t276.5 119t348 242.5t334 298.5q-217 0 -473 -26q-45 -47 -97 -94q-402 -364 -798 -431
q-11 -3 -23 -4q37 -47 88 -75q91 -49 198 -49zM778 211q19 2 37 6q385 65 783 424q37 34 70 67q-143 -15 -283 -35h-2q-13 0 -15 13q0 14 13 16q158 23 320 39q290 310 290 556q0 21 -7 79.5t-63 122.5q-89 102 -251 102q-132 0 -275 -67q84 -49 140 -117q78 -95 78 -216
q0 -103 -70 -222q-4 -7 -11 -7q-4 0 -10 3t-6 11q0 4 2 8q65 111 65 207q0 8 -3.5 63.5t-67.5 134.5q-58 70 -149 119q-139 -74 -277 -230t-239 -351.5t-127 -387.5q-6 -46 -6 -90q0 -137 64 -248zM651 202q-59 123 -59 257q0 57 23.5 185t139.5 316.5t270 339.5t305 234
l-21 10q-167 71 -366 71q-126 0 -274 -36t-292.5 -137.5t-238.5 -271.5q-108 -209 -108 -389q0 -20 1 -39q15 -215 147 -355q82 -88 203 -136.5t270 -48.5z" />
    <glyph glyph-name="B" unicode="B" horiz-adv-x="2953" 
d="M2215 -118h-24q-188 0 -348 74.5t-220 233.5l-1 3q-193 -119 -405 -177q-125 -34 -245 -34q-83 0 -221 28t-284 205q-31 40 -55 83q-78 14 -137 45q-145 85 -223 252q-52 112 -52 228q0 117 50 212q6 8 14 8q4 0 7 -2q8 -4 8 -12q0 -4 -3 -8q-46 -89 -46 -198t49 -216
q74 -158 210 -238q47 -26 103 -37l3 -1q-1 6 -6 12q-56 131 -56 274q0 5 1.5 82.5t54.5 225.5q112 303 362 506q91 73 194 120q185 81 355 81q104 0 202 -30q253 -79 386 -354q69 -149 69 -274q0 -20 -7.5 -100.5t-85.5 -177.5q-61 -76 -146.5 -116.5t-181.5 -40.5
q-122 0 -236 72t-197 226q-16 -53 -60.5 -147.5t-122.5 -192t-194 -158.5q-93 -49 -215 -49q-30 0 -62 3q19 -31 42 -60q160 -180 353 -207q50 -7 99 -7q145 0 317 69t347 207q13 167 228 204q150 155 231 315q55 107 100 214q49 117 105.5 221.5t140 185t213.5 125.5
q-88 60 -189 82q-41 9 -81 9q-57 0 -129.5 -24t-132.5 -118q-28 -48 -28 -94q0 -96 116 -122q12 -2 12 -13q0 -16 -15 -16h-3q-86 18 -119 72q-21 35 -21 78q0 55 33 111q98 155 300 155q163 0 323 -101q76 17 170 22q15 0 15 -14t-14 -16q-69 -3 -128 -22q110 -81 166 -194
q37 -72 37 -150q0 -43 -12 -89q-28 -97 -92.5 -152t-150 -84t-175.5 -46q279 -131 337 -340q13 -44 13 -92q0 -79 -33 -170q-69 -170 -238.5 -257t-370.5 -93zM2115 -72q30 0 133.5 7.5t252.5 95t211 242.5q26 75 26 146q0 87 -53 203t-198 189q-22 10 -38 15q-52 17 -52 24
q0 4 20.5 6t74.5 8q15 1 23 3q96 27 176.5 100.5t114.5 166.5q18 53 18 103q0 159 -152 287q-145 -76 -237.5 -227t-168.5 -330q-52 -118 -110 -230q-76 -146 -158 -234q42 -4 89 -11q13 -2 13 -15q0 -15 -18 -15q-59 10 -109 13q-134 -143 -326 -266l4 -10
q57 -151 203 -217q120 -54 261 -54zM1641 321q84 68 157 140q-134 -36 -157 -140zM509 320q125 0 233 62.5t184.5 171.5t114.5 203t44 119l-1 7q0 7 5 8q4 13 10 13q5 0 15 -20q78 -163 190 -239t232 -76q89 0 168 37.5t137 108.5q73 90 85 223l2 34q0 120 -67 263
q-65 134 -159 218q-167 149 -400 149q-165 0 -345 -79q-99 -45 -188 -115q-243 -198 -351 -493q-54 -151 -55 -301q0 -161 68 -289q40 -5 78 -5z" />
    <glyph glyph-name="C" unicode="C" horiz-adv-x="2017" 
d="M474 -368l-29 1q-171 15 -277 120t-145 267q-23 94 -23 197q0 249 126 492q91 179 252 322.5t392 220.5q184 62 413 62q58 0 120 -4q88 -6 177 -11q348 257 674 257l36 -1q173 -12 261 -74q64 -46 64 -94q0 -17 -21 -59q-35 -71 -565 -71q-156 0 -325 6
q-154 -113 -314 -297q-105 -123 -191 -336q148 158 361 237q141 51 258 51q214 0 247 -162q5 -22 5 -47q0 -103 -80 -265q-120 -227 -290 -342t-332 -115h-3q-164 4 -246 79t-98 194q-24 -83 -24 -159q0 -94 44 -156q23 -31 58 -49q9 -5 9 -13q0 -3 -2.5 -7.5t-7 -6
t-6.5 -1.5l-6 1q-42 22 -69 58q-50 72 -50 177q0 109 49 233q3 179 81 366.5t187 314.5q131 151 260 253q-72 4 -143 9q-60 4 -117 4q-224 0 -426.5 -67.5t-359.5 -207t-246 -313.5q-122 -239 -122 -481q0 -98 22 -188q37 -153 136 -251.5t259 -113.5l22 -1q59 0 106 19
q100 43 154 147q65 125 65 281q0 110 -35 201l-1 6q0 3 2.5 8.5t13.5 5.5q9 0 13 -9q37 -97 37 -213q0 -163 -69 -295q-58 -112 -169 -159q-50 -21 -112 -21zM1270 18q151 0 318 119.5t275 319.5q77 156 77 252q0 22 -4 42q-28 137 -217 137h-10q-244 -13 -468 -170
q-98 -73 -170 -167q-46 -141 -46 -266q0 -253 240 -267h5zM1950 1286q76 0 146 2q144 5 193 10q197 21 197 96q0 38 -59 72q-70 41 -202 41q-273 0 -582 -215h3q92 -6 304 -6z" />
    <glyph glyph-name="D" unicode="D" horiz-adv-x="2273" 
d="M1306 -73q-26 0 -124.5 6t-246.5 101q-31 20 -55 44q-92 -33 -205 -41q-16 0 -16 14q0 15 14 15q101 8 180 43q-47 64 -47 141q0 48 20 102q4 10 13 10q3 0 7.5 -2t6 -6t1.5 -7l-1 -6q-17 -48 -17 -91q0 -70 45 -128q112 59 190 163t136.5 236t111.5 277q81 224 164 389
q77 152 192 269t288 174q-120 112 -303 175q-165 55 -345 55q-351 0 -666 -195q-196 -125 -338 -293.5t-215 -346.5q-67 -159 -67 -299q0 -252 215 -345q86 -33 165 -33q57 0 147.5 29t183.5 133.5t132 237.5q22 73 22 141q0 167 -117 259q-77 60 -214 74q-14 2 -14 16
q3 14 16 14q148 -15 232 -81q127 -102 127 -282q0 -72 -23 -149q-41 -139 -139.5 -250t-234.5 -154q-56 -18 -117 -18q-85 0 -178 36q-115 49 -172 141q-60 98 -60 228q0 148 68 314q76 182 220.5 353.5t344.5 299.5q324 200 682 200q185 0 354 -57q197 -68 333 -192
q29 8 59 14q15 0 18 -13q0 -13 -13 -17q-19 -3 -38 -8q160 -161 225 -371q45 -144 45 -295q0 -69 -19.5 -217t-142.5 -350q-87 -139 -229 -246t-311 -163q-144 -48 -290 -48zM1248 -32q155 0 304.5 66.5t274.5 174.5q293 253 364 629q19 97 19 192q0 112 -37 266.5
t-184 308.5q-135 -49 -226 -156.5t-156 -251.5t-123 -304l-24 -64q-57 -156 -127.5 -301.5t-171.5 -260t-250 -177.5q18 -17 40 -32q142 -90 297 -90z" />
    <glyph glyph-name="E" unicode="E" horiz-adv-x="1945" 
d="M1303 3h-16q-141 0 -273.5 52t-227.5 153q-54 -22 -106 -39q-111 -37 -214 -37q-19 0 -87.5 5t-165.5 92t-160 280l-1 5q0 14 15 14q11 0 14 -10q60 -182 151 -264q101 -91 240 -91q130 0 293 69q-65 80 -90 183q-12 48 -12 101q0 281 259 404q149 72 338 72q56 0 116 -6
q-125 162 -141 312q-138 -40 -302 -55q-41 -3 -83 -3q-124 0 -272 36.5t-302.5 164t-273.5 369.5q-2 4 -2 7q0 14 15 14q9 0 14 -8q211 -433 583 -523q123 -30 242 -30q181 0 379 59v13q0 128 112 248q94 91 215 91q87 0 175.5 -42.5t152 -118.5t71.5 -158v-6
q0 -82 -69 -126q-43 -29 -98 -29q-33 0 -66 12q-113 41 -156 206q-16 -5 -46 -17q-40 -20 -176 -68q-8 -45 -8 -90q0 -163 82 -269q3 -4 3 -9q0 -15 -15 -15h-2q-39 6 -78 6q-87 0 -191.5 -34t-197.5 -119q-145 -133 -145 -332q0 -27 8 -80.5t48 -120.5q132 65 255 138
q64 39 195 107q220 108 348 108q102 0 156 -52q48 -48 48 -122q0 -79 -52 -167q-86 -141 -218 -209t-281 -71zM1383 41q69 1 191.5 63.5t202.5 193.5q47 80 47 151q0 62 -39 102q-43 43 -134 43q-122 0 -336 -104q-83 -44 -179 -99l-4 -2q-127 -75 -263 -143
q73 -100 191.5 -152.5t250.5 -52.5h72zM1790 1231q47 0 84 24q56 35 56 102v2q-13 116 -101 174q-82 53 -184 53q-7 0 -65.5 -2t-138.5 -68q-62 -57 -85 -148q83 31 138 53l7 3q64 28 78 28q13 0 16 -14q21 -86 58 -133q59 -74 137 -74z" />
    <glyph glyph-name="F" unicode="F" horiz-adv-x="1361" 
d="M479 -612q-12 0 -25 2q-75 20 -86 115q-2 23 -2 49q0 81 30.5 208t97 294.5t147.5 331.5l-20 37l-1 8q0 14 15 14q5 0 9 -3q9 -6 19 -11q148 291 290 484q-208 21 -388 87q-196 71 -335.5 177t-198.5 232q-31 69 -31 138q0 26 10 87t97 151q4 4 10 4t10.5 -4.5t4.5 -10.5
q0 -5 -4 -10q-98 -102 -98 -218q0 -63 28 -125q55 -118 190.5 -221t326.5 -172q185 -68 398 -87q111 149 261 324q343 401 630 610q187 135 308 135q92 0 139 -90q20 -40 20 -95q0 -129 -97 -307q-79 -146 -207 -267q-206 -187 -447 -268q-228 -77 -461 -77h-23
q-61 -81 -106 -146q-93 -138 -207 -360q83 0 173 30q128 43 239.5 113t173.5 134q5 4 11 4t10.5 -4t4.5 -10t-4 -11q-65 -66 -180 -138.5t-245 -115.5q-94 -31 -181 -31h-16l-50 -100q16 -43 30 -94q36 -128 36 -242q0 -85 -23 -171q-40 -148 -118 -265q-31 -47 -81 -85
q-39 -30 -84 -30zM484 -584q15 0 40.5 14t54 43t40.5 47q75 113 114 256q22 81 22 162q0 21 -4 83q-6 86 -50 216q-88 -187 -156 -362q-106 -272 -106 -388q0 -71 45 -71zM1118 939q234 0 463.5 79.5t425.5 257.5q124 118 201 259q93 172 93 298q0 45 -16 77q-26 49 -80 49
q-24 0 -87 -21.5t-194 -127.5t-276 -255.5t-283 -311t-247 -304.5z" />
    <glyph glyph-name="G" unicode="G" horiz-adv-x="2324" 
d="M657 -903q-74 0 -184 19.5t-243 104.5q-96 63 -152 145q-78 116 -78 251q0 94 40 186q56 129 186 225q32 24 69 44l-1 23q0 150 89 267q137 168 390 168q123 0 252 -43q133 -46 244 -131q16 -12 29 -24q114 -97 168 -210q56 -117 56 -241q0 -60 -11 -119q199 142 338 374
t261 513q32 73 63 138q-288 -278 -454 -282q-137 2 -165 96q-11 33 -11 72q0 73 35 167q-271 -63 -498 -63q-341 0 -504 138q-121 102 -121 272q0 59 15 128q27 120 99.5 207.5t175.5 140.5q162 85 361 85q244 0 427 -122q112 -74 176 -193q1 -4 1 -7t-1 -6.5t-5.5 -6
t-8.5 -2.5q-8 0 -12 8q-61 113 -168 183q-177 116 -411 116q-188 0 -345 -81q-212 -110 -260 -329q-14 -64 -14 -119q0 -160 111 -252q155 -130 485 -130q235 0 510 66q79 192 234 392q131 168 280.5 290.5t283.5 152.5q27 6 53 6q98 0 166 -88q25 -36 25 -86
q0 -105 -107 -235q-77 -89 -197 -166q-267 -167 -634 -270q-78 -147 -78 -241q0 -90 102 -93q35 0 75 15q175 68 418 317q33 64 67 114q18 26 50 26q16 0 32 -10q26 -19 26 -50q0 -17 -10 -33q-73 -115 -156 -308l-3 -6q-134 -309 -307 -546.5t-419 -365.5
q-41 -130 -129 -243q-12 -16 -25 -30q-217 -247 -533 -305q-74 -13 -148 -13zM1715 906q346 100 598 258q120 78 190 161q100 120 100 215q0 41 -20 69q-35 46 -92 46q-34 0 -110 -30.5t-209 -150.5t-257 -275q-119 -149 -200 -293zM658 -873q71 0 142 12q328 60 540 325
q75 96 115 206q-198 -92 -464 -92q-296 0 -463 109q-203 135 -230 352q-29 -16 -55 -35q-123 -91 -176 -213q-37 -87 -37 -175q0 -222 217 -370q185 -119 411 -119zM979 -393q286 0 497 132q16 68 16 136q0 267 -241 457q-107 83 -236 126q-125 42 -244 42q-236 0 -364 -156
q-83 -107 -83 -245v-12q168 87 399 87q87 0 185 -14q13 -2 13 -15q0 -14 -14 -14h-3q-96 13 -181 13q-227 0 -397 -89q5 -58 27 -114q50 -135 191 -229q160 -105 435 -105z" />
    <glyph glyph-name="H" unicode="H" horiz-adv-x="2425" 
d="M1048 -110h-3q-4 0 -10 3.5t-6 12.5t11 13q157 48 277.5 176.5t222.5 305.5q-90 130 -90 247q0 68 33 113q16 22 37 35q37 22 76 22q16 0 51 -8t88 -54q84 161 178 315t208 282q-117 -34 -236 -34q-87 0 -170 14l-6 -9q-63 -99 -174 -170q-167 -106 -380 -160
q-281 -72 -555 -72q-169 0 -313.5 34.5t-219.5 110.5q-67 66 -67 144q0 83 68 160q83 95 259 156q171 60 418 60q157 0 324 -42q147 -37 287 -84l5 -2q170 -58 338 -93q38 72 38 159q0 139 -112 312q-2 5 -2 8q0 15 14 15q8 0 13 -7q117 -181 117 -327q0 -90 -37 -165
q82 -7 145 -7q52 0 114.5 7t129 41t206.5 130q16 10 33 10q30 0 50 -26q10 -16 10 -34q0 -30 -27 -49q-179 -125 -310 -315t-245 -401l-25 -44q143 -199 182 -427q172 284 466 682q346 469 637 760q293 293 449 293q27 0 81 -20.5t73 -197.5q0 -16 -16 -16q-12 0 -14 13
q-20 185 -116 185q-93 0 -235 -125q-407 -360 -1196 -1601q133 29 293 120q4 2 8 2q14 0 14 -15q0 -7 -7 -13q-182 -103 -330 -129l-12 -19q-69 -109 -86 -133q-27 -39 -61 -39q-25 1 -41.5 18t-17.5 42q2 16 13 30q23 34 23 78v14q-193 23 -317 153q-105 -154 -239 -269
t-314 -169zM1557 429q106 185 160 294q-58 67 -118 67q-31 0 -63 -19q-56 -36 -56 -122q0 -106 77 -220zM1915 206q-9 86 -43.5 201t-87.5 217q-79 -141 -166 -271q118 -125 297 -147zM597 952q271 0 549 70q209 53 373 156q105 69 164 161q-163 35 -329 91q-4 1 -7 3
q-138 46 -283 83q-166 41 -319 41q-242 0 -409 -58t-246 -148q-60 -68 -60 -140q0 -66 57 -123q71 -72 235 -110q114 -26 275 -26z" />
    <glyph glyph-name="I" unicode="I" horiz-adv-x="1734" 
d="M1399 -243q-2 0 -6 1.5t-6.5 5.5t-2.5 8q0 9 7 13q146 88 146 233q0 79 -54.5 164t-180.5 126q-229 -318 -541 -318q-136 0 -304 64q-215 89 -326 227q-131 163 -131 349q0 119 61.5 237t205.5 192q115 58 271 58q41 0 84 -4q212 -22 322 -182q75 -121 75 -255
q0 -115 -30.5 -213.5t-56.5 -148.5q133 42 240 42q47 0 89 -8q88 129 161 281.5t140 307.5q87 208 177 379q-106 46 -158 198v5q0 3 3 9t12 6t14 -11q46 -139 144 -181q57 102 123 173q105 116 231 116q57 0 122 -23q76 -31 76 -72q0 -10 -14 -41.5t-102 -84t-189 -85.5
q-96 -32 -158 -32h-8q-95 -146 -230 -436q-64 -137 -133.5 -272t-150.5 -252q134 -47 198 -154q48 -78 48 -162q0 -30 -15.5 -104.5t-145.5 -153.5q-3 -2 -7 -2zM1855 1322q55 2 142 35t165 76.5t103 77.5q7 9 7 16q0 19 -53 22h-2q-148 0 -258 -107q-55 -51 -104 -120z
M738 24q26 0 109 8.5t194.5 87t200.5 201.5q-35 6 -73 6q-114 0 -261 -53q-14 -5 -20 -5q-5 0 -5 5q0 4 3 15q2 5 3.5 7.5t5.5 8.5q18 33 54 132q42 113 42 240q0 121 -72 237q-118 174 -379 174q-149 0 -272 -62.5t-187 -186.5q-51 -97 -51 -208q0 -29 10 -116t116.5 -218
t311.5 -215q148 -58 270 -58z" />
    <glyph glyph-name="J" unicode="J" horiz-adv-x="1823" 
d="M1031 -523q-14 0 -14 15q0 10 9 13q208 91 308 215q113 139 113 286q0 71 -25 133l-3 7q-105 -110 -233 -173q-118 -59 -256 -59q-11 0 -92 2t-258 96q-107 58 -188 143q-122 125 -165 273q-17 59 -17 115q0 151 107 255q98 92 214 92q95 0 179.5 -53t136.5 -145
q50 -87 50 -190q0 -49 -11 -102q-19 -76 -40 -115q151 88 276 88q20 0 84.5 -7t140.5 -72q33 -28 58 -63q102 137 181 297.5t142 309.5q89 215 196 380q105 161 309 337q-170 -67 -350 -67q-81 0 -159 12q-55 -111 -190 -198q-167 -106 -380 -160q-279 -72 -552 -72
q-171 0 -316 34.5t-220 110.5q-66 66 -66 144q0 84 67 160q83 95 259 156q171 60 419 60q154 0 323 -38q146 -34 285 -76q178 -56 354 -88q29 64 29 138q0 142 -112 314q-2 5 -2 8q0 2 0.5 5.5t5.5 6.5t9 3q7 0 12 -6q117 -180 117 -331q0 -77 -28 -143q69 -10 140 -10
q78 0 194.5 18t283.5 111q4 2 7 2q15 0 15 -16q0 -6 -7 -12q-160 -109 -279 -306.5t-219 -426.5q-77 -174 -183.5 -367.5t-247.5 -351.5q7 -16 7 -19q27 -67 27 -143q0 -158 -117 -304q-104 -130 -322 -225zM917 -55q266 0 469 261q-24 37 -58 65q-87 73 -205 73
q-86 0 -185 -45q-97 -48 -116 -64q-11 -8 -17 -9q-8 0 -13 8q-3 4 -3 8q0 5 7 15q36 49 61 150q10 49 10 94q0 96 -46 176q-48 86 -128 136q-76 48 -164 48q-101 0 -191 -85q-38 -36 -60 -78q-38 -75 -38 -155q0 -52 16 -107q40 -141 157 -261q79 -80 181 -137
q176 -93 320 -93h3zM596 1100q272 0 550 70q209 53 372 156q118 77 175 179q-173 32 -348 87q-138 42 -282 76q-167 38 -319 38q-241 0 -408 -58t-246 -149q-61 -69 -61 -138q0 -67 58 -125q71 -72 235 -110q113 -26 274 -26z" />
    <glyph glyph-name="K" unicode="K" horiz-adv-x="2784" 
d="M2793 -241q-22 0 -128.5 9t-287 114t-341.5 249q-152 137 -280 265l-69 -1h-34q-105 -176 -247.5 -308t-357.5 -197h-3q-4 0 -10 3.5t-6 12.5t11 13q162 51 282 186.5t211 301.5q-131 26 -179 97q-33 48 -33 92q0 22 15 64.5t97 49.5l13 1q80 0 200 -93q157 308 276 478
q105 152 264 280q-147 -57 -307 -57q-83 0 -164 14l-6 -9q-63 -99 -174 -170q-167 -106 -380 -160q-281 -72 -555 -72q-169 0 -313.5 34.5t-219.5 110.5q-67 66 -67 144q0 83 68 160q83 95 259 156q171 60 419 60q156 0 323 -42q147 -37 287 -84l5 -2q170 -58 338 -93
q38 72 38 159q0 139 -112 312q-2 5 -2 8q0 15 15 15q7 0 12 -7q117 -181 117 -327q0 -90 -37 -165q72 -12 146 -12q77 0 192.5 20t281.5 126q4 3 8 3q15 0 15 -15q0 -8 -6 -13q-184 -128 -383 -474q-63 -110 -188 -347l-60 -110l44 -41q124 13 219 28.5t118 21.5
q171 37 362.5 96t361 155t276 243t106.5 359q-2 170 -112 255q-17 14 -37 24q-8 4 -8 13q0 4 1 7q4 8 13 8q11 0 49 -28q121 -94 123 -278q0 -389 -385 -644q-292 -194 -731 -311q-74 -21 -259 -43q84 -84 213 -203q156 -148 326.5 -259.5t347.5 -136.5q31 -4 62 -4
q145 0 290 92q108 67 123 222q2 14 14 14q16 0 16 -15q-17 -171 -137 -246q-170 -109 -339 -109zM597 952q271 0 549 70q210 53 373 156q105 69 165 161q-164 35 -330 91l-7 3q-138 46 -283 83q-166 41 -319 41q-241 0 -408 -58t-246 -148q-61 -69 -61 -138q0 -67 57 -125
q72 -72 236 -110q113 -26 274 -26zM1579 490l26 50q-111 97 -177 106q-14 2 -26 2q-53 0 -53 -41q0 -32 50 -71t180 -46z" />
    <glyph glyph-name="L" unicode="L" horiz-adv-x="2068" 
d="M808 -710q-6 0 -10.5 4.5t-4.5 10.5q2 54 20 108q43 130 153.5 252.5t260.5 220.5q-121 99 -150 128q-86 74 -172 145q-191 -111 -405 -111q-160 0 -334 75l-1 1q-69 32 -110 81q-55 65 -55 137q0 85 74 137q60 43 164 43q82 0 191.5 -34t219.5 -103t222 -159
q286 212 487 627q21 42 79 137q-30 -9 -59 -16q-253 -66 -440 -66q-56 0 -106 6q-147 24 -238 86q-164 111 -164 305q0 149 100 301q117 177 343 285q173 82 396 82q175 0 322 -60q165 -68 261 -190q44 -57 68 -122q120 106 204 106q50 0 88 -40q24 -29 24 -77
q-1 -64 -43 -145.5t-123 -157.5q-48 -43 -110 -81q-151 -91 -357 -164q-110 -183 -138 -241q-92 -189 -227 -353.5t-306 -272.5q82 -68 164 -139q78 -68 157 -133q147 92 300 144q145 49 273 49q131 0 257 -76q98 -57 154 -141q39 -59 39 -123q0 -57 -29 -108
q-95 -152 -267 -152q-91 0 -203 42q-250 93 -527 328l-2 -2q-147 -95 -256 -214t-151 -246q-16 -50 -18 -100q0 -14 -15 -14zM1982 -474q153 0 240 137q25 42 25 92q0 56 -35 108q-52 78 -144 132q-119 71 -243 71q-121 0 -263.5 -48t-284.5 -135q269 -228 509 -317
q107 -40 196 -40zM1627 1083q183 67 317 148q74 48 106 78q77 71 116.5 146.5t39.5 134.5q0 37 -16 57q-22 22 -50 22q-72 0 -201 -147q3 -24 3 -48q0 -83 -32 -160q-4 -9 -13 -9q-3 0 -7.5 1.5t-6 6t-1.5 6.5l1 6q29 75 29 144v21q-153 -190 -285 -407zM939 937
q211 0 522 90q219 349 434 553q-21 67 -67 125q-90 115 -248 180q-140 58 -313 58q-215 0 -382 -79q-218 -104 -330 -275q-95 -143 -95 -282q0 -68 24 -130q73 -186 353 -234q48 -6 102 -6zM464 85q37 0 138 13.5t243 109.5q-108 87 -214 153q-210 131 -392 131
q-10 0 -56.5 -2.5t-91.5 -35.5q-61 -43 -61 -111q0 -120 147 -192q151 -66 287 -66z" />
    <glyph glyph-name="M" unicode="M" horiz-adv-x="2791" 
d="M2819 -494q-53 0 -129 40t-142.5 176.5t-91.5 302.5q-16 100 -16 193q0 60 7 117q23 172 110 345t204 335t230 301q-51 -32 -99 -66q-387 -286 -584 -618q-63 -106 -119 -211q-114 -216 -197 -320q-17 -22 -46 -22q-19 0 -36 12q-30 21 -30 131q0 70 22 177.5t75.5 253.5
t111.5 288q77 183 124 331q-93 -109 -178 -243.5t-169 -278.5q-130 -231 -260 -414q-106 -150 -228 -251.5t-269 -127.5q-38 -7 -79 -7q-115 0 -249 56q-204 95 -266 311q-15 55 -15 107q0 123 75 199q70 76 214 76q24 0 50 -2q13 -2 13 -14q0 -16 -16 -16q-25 2 -48 2
q-130 0 -192 -67q-66 -67 -66 -179q0 -142 101 -267q63 -78 161 -122q108 -40 202 -40q55 0 148 26t200 130t193 240.5t158 270.5q120 223 237 414q94 155 201 281q-123 -37 -243 -37q-87 0 -174 14l-5 -9q-63 -99 -174 -170q-167 -106 -380 -160q-281 -72 -556 -72
q-169 0 -313.5 34.5t-219.5 110.5q-66 66 -66 144q0 83 68 160q83 95 258 156q171 60 419 60q157 0 324 -42q147 -37 286 -84q173 -59 344 -95q38 72 38 159q0 139 -112 312q-3 5 -3 9q0 1 1 4.5t5.5 6.5t8.5 3q8 0 12 -7q117 -179 117 -330q0 -88 -37 -162q77 -12 155 -12
q32 0 103 5t187 50q33 34 69 65q-12 93 -118 93q-39 0 -92 -12h-3q-4 0 -9.5 3t-5.5 11q0 11 11 15q53 12 94 12t86 -17.5t68 -78.5q59 47 84 47q31 0 49 -26q10 -15 10 -33q0 -6 -2.5 -20.5t-23.5 -29.5q-51 -34 -99 -79q-8 -139 -59.5 -315.5t-112.5 -351.5
q-48 -140 -83 -256t-39 -188l48 74q207 323 365 517q189 237 464 440q362 260 838 364h3q4 0 9.5 -3t5.5 -12q0 -12 -12 -14q-379 -85 -654 -248q-158 -199 -307 -489.5t-192 -540.5q-14 -96 -14 -232q0 -110 17.5 -227t62.5 -209t125 -122q25 -10 55 -10q63 0 146 44
q75 39 93 154q2 12 14 12h3q13 0 13 -16q-21 -130 -109 -176q-83 -43 -153 -43zM596 952q272 0 550 70q209 53 372 156q106 69 165 161q-165 35 -333 92l-4 2q-138 46 -283 83q-165 41 -318 41q-242 0 -409 -58t-246 -148q-61 -69 -61 -138q0 -67 58 -125q71 -72 235 -110
q113 -26 274 -26z" />
    <glyph glyph-name="N" unicode="N" horiz-adv-x="2494" 
d="M1980 -56q-15 0 -15 16q0 3 1 5q79 163 90 301q6 73 6 144q0 65 -5 130q-4 70 -4 144q0 42 2 124t41 223.5t135 315.5q-97 -115 -181 -259q-111 -188 -178 -322q-66 -124 -151.5 -262.5t-192.5 -261.5q-118 -132 -268.5 -202.5t-300.5 -70.5q-156 0 -274.5 84t-169.5 264
q-15 55 -15 107q0 123 75 199q70 76 214 76q54 0 60 -8q3 -3 3 -11q-2 -13 -17 -13q-25 2 -48 2q-129 0 -191 -67q-66 -67 -66 -178q0 -48 13 -100q46 -159 157 -242q118 -90 272 -90q131 0 265 70t239 223q101 160 184 332q143 291 302 508q102 139 237 256
q-154 -62 -316 -62q-85 0 -169 14q-3 -4 -5 -9q-63 -99 -174 -170q-168 -106 -381 -160q-279 -72 -555 -72q-169 0 -313.5 34.5t-219.5 110.5q-66 66 -66 144q0 83 68 160q83 95 258 156q171 60 419 60q157 0 324 -42q147 -37 286 -84q187 -62 344 -95q37 72 37 159
q0 140 -111 312q-3 5 -3 9q0 14 15 14q9 0 12 -7q117 -179 117 -327q0 -90 -37 -165q73 -12 146 -12q77 0 192.5 20t282.5 126q3 3 7 3q2 0 6 -1t7 -5t3 -8q0 -8 -7 -14q-24 -16 -46 -35q-101 -163 -126.5 -324.5t-26.5 -332.5t-26.5 -362.5t-124.5 -415.5q150 114 293 406
q75 155 150 329q71 165 147 323q173 360 345 492q79 62 168 62q18 0 81.5 -9t191.5 -139q4 -5 4 -11q0 -14 -15 -14q-6 0 -10 4q-135 138 -253 138q-80 0 -149 -55q-101 -81 -211 -285.5t-224 -451.5q-91 -195 -181 -371.5t-177 -294.5t-188 -177q-4 -2 -8 -2zM596 952
q272 0 550 70q209 53 372 156q106 69 165 161q-165 35 -331 92q-141 47 -289 85q-165 41 -318 41q-242 0 -409 -58t-246 -148q-61 -69 -61 -138q0 -67 58 -125q71 -72 235 -110q113 -26 274 -26z" />
    <glyph glyph-name="O" unicode="O" horiz-adv-x="1794" 
d="M998 -15q-82 0 -127 40q-67 61 -67 181q0 32 13.5 137.5t114.5 326.5q-186 -44 -347 -44q-140 0 -261 38q-179 61 -257 151q-67 77 -67 163q0 90 66 179q94 125 299 218q197 83 392 83q106 0 212 -25q185 -44 334 -158q147 187 301 316.5t293 164.5q37 9 71 9
q95 0 169 -71q37 -38 37 -100q0 -118 -106 -277q-69 -101 -161 -182q11 -49 11 -98q0 -62 -16 -131q-43 -181 -160.5 -369t-270.5 -332l-1 -1q-235 -219 -472 -219zM1064 736q208 65 392 153q271 130 417 255q-41 126 -195 162q-11 4 -11 15v3q4 11 15 11h3
q162 -37 212 -169l8 7q90 90 139 161q100 151 100 259q0 51 -28 80q-42 40 -101 40q-41 0 -125 -34t-226 -164t-283 -308q41 -41 77 -89q3 -5 3 -11q-1 -12 -14 -12q-9 0 -13 5q-33 45 -72 83q-168 -215 -298 -447zM586 655q19 0 107.5 4t254.5 45q131 277 337 548
q-144 110 -323 152q-102 24 -205 24q-189 0 -380 -81q-198 -89 -287 -208q-60 -79 -60 -161q0 -182 303 -285q117 -38 253 -38zM1015 17q63 0 155 29q139 49 280 180v1h1q150 141 265 325t157 360q15 68 15 128q0 40 -7 72q-145 -123 -424 -256q-194 -92 -414 -157
q-117 -216 -161 -388q-18 -71 -18 -126q0 -168 151 -168z" />
    <glyph glyph-name="P" unicode="P" horiz-adv-x="1793" 
d="M579 -209q-74 0 -189.5 22t-240.5 130q-124 111 -146 271q-3 24 -3 49q0 32 5 66q34 182 170 291t309 144q79 16 153 16q202 0 312 -102q75 -69 75 -176q0 -65 -32 -146q-3 -9 -13 -9q-15 0 -15 14l1 6q29 74 29 134q0 19 -7.5 64t-57.5 92q-103 93 -291 93
q-250 0 -441 -151q-130 -103 -162 -275q-5 -33 -5 -65q0 -21 2 -42q21 -149 137 -252q165 -144 397 -144q241 0 426 152q137 117 241 283q113 182 216 388q-8 1 -18 4t-10 14v3q4 12 14 12l29 -6l10 19q141 273 284.5 467.5t370.5 348.5q-164 134 -484 138q44 -92 44 -189
q0 -158 -100 -296q-119 -160 -288 -249q-125 -66 -232 -66q-124 0 -193 81q-59 68 -59 170q0 187 183 353q110 95 241 149q173 72 354 76q-132 217 -341 217q-82 0 -162 -33q-110 -45 -183 -126q-59 -67 -73 -142q-4 -13 -18 -13q-12 2 -12 15v2q16 84 81 157q78 87 194 135
q85 35 174 35q141 0 246 -91q83 -74 129 -155q345 0 541 -140q61 38 65 38q16 0 16 -16q0 -8 -7 -12q-24 -14 -47 -31q177 -147 177 -357q0 -123 -77.5 -257t-263.5 -220q-140 -64 -328 -64q-64 0 -133 7q-102 -195 -232 -378t-301 -308q-130 -90 -290 -126
q-86 -19 -171 -19zM1067 873q101 0 221 63q162 86 277 240q94 130 94 278q0 98 -47 190q-50 -1 -100 -7q-285 -34 -493 -211q-173 -157 -173 -331q0 -90 53 -151q61 -71 168 -71zM1622 653q187 0 335 81t232 216q80 128 80 264q0 7 -2 81.5t-111 186.5
q-168 -142 -298.5 -352t-267.5 -476z" />
    <glyph glyph-name="Q" unicode="Q" horiz-adv-x="1534" 
d="M1768 -549q-54 0 -189 25t-294 197t-285 423q-140 -83 -286 -83q-71 0 -137 40q-75 47 -75 201q0 109 43 249q-93 -21 -169 -21q-45 0 -84 7q-119 26 -187 66q-105 62 -105 144q5 82 76 124q87 52 232 52q212 0 347 -99q85 175 202 345q140 203 304 362.5t329 234.5
q98 45 189 45q62 0 120 -21q33 -13 51 -40q24 -35 24 -87q0 -70 -44 -156q-66 -125 -224 -295q13 -49 13 -107q0 -154 -97 -353q-153 -311 -406 -525l-17 -14q118 -244 200 -380q86 -144 199 -227t276 -83q2 0 86 1t328 113l6 1q15 0 15 -15q0 -10 -9 -13
q-243 -111 -432 -111zM1085 192l12 9q0 1 1 1q247 210 398 514q93 193 93 344q0 42 -8 79q-4 -9 -117 -116q-300 -273 -631 -420q76 -96 138 -201q88 -148 114 -210zM813 627l16 8q331 151 614 410q101 95 129 127q-43 122 -193 156q-11 4 -11 15v3q4 12 13 12l5 -1
q156 -36 209 -161q32 34 61 68q188 220 188 353q0 108 -122 108q-82 0 -204 -72t-277.5 -236t-294.5 -366q-120 -172 -209 -344q40 -37 76 -80zM672 571l56 20q-14 20 -29 38zM735 46q122 0 252 77l-43 85q-106 223 -199 358q-45 -17 -88 -31q-79 -192 -79 -314
q0 -97 53 -144q37 -31 104 -31zM376 511q79 0 179 25q29 86 69 176q-76 76 -187 108q-81 23 -161 23q-13 0 -65 -3t-114.5 -38.5t-66.5 -103.5q0 -64 90 -117q64 -38 178 -63q36 -7 78 -7z" />
    <glyph glyph-name="R" unicode="R" horiz-adv-x="1898" 
d="M1459 -64q-34 0 -66 5q-169 23 -334 113t-316.5 210.5t-281.5 236.5q-36 4 -70 11l-2 -3q-44 -101 -162 -294q-97 -158 -178 -234q-7 -6 -15 -6q-34 0 -34 109q0 225 103 555q-78 63 -78 109q0 47 86 47q23 0 46 -4q93 241 259.5 466t423.5 374q124 70 277 124.5
t304 72.5q47 6 91 6q97 0 197 -34t156 -153q33 -70 33 -175q0 -286 -180 -498q-127 -150 -310.5 -257.5t-391.5 -165.5t-408 -59l65 -60q112 -105 230 -204.5t241 -169.5t252 -88q29 -4 58 -4q40 0 96 9q200 32 287 263q4 10 15 10h3q11 -5 11 -14l-1 -5
q-112 -293 -406 -293zM554 541q184 5 379.5 65t371 165t298.5 246q173 198 173 428q0 212 -189 276q-86 30 -189 30q-25 0 -104.5 -5.5t-210 -45t-228.5 -94.5q-251 -146 -414 -365.5t-254 -456.5q81 -23 167 -82q184 368 457 706q4 5 10 6q6 0 11 -4t6 -9q0 -6 -3 -11
q-92 -119 -184.5 -308.5t-173.5 -376.5l-31 -71q53 -44 108 -93zM289 573l26 53q-84 70 -148 108q-16 -43 -30 -84q71 -52 152 -77zM113 669l27 78q-33 16 -58 16q-27 0 -27 -15q0 -31 58 -79zM35 8q47 56 164 357q50 129 76 179q-78 29 -147 76q-59 -193 -82 -346
q-16 -116 -16 -190v-8q0 -53 5 -68z" />
    <glyph glyph-name="S" unicode="S" horiz-adv-x="1537" 
d="M671 -42q-41 0 -147.5 10t-245 80.5t-207.5 183.5h-1q-68 116 -70 281q0 130 54 254q70 159 199 267q58 47 124 76q-29 61 -29 120q0 144 140 230q4 2 8 2q8 0 11 -5.5t3 -9.5q0 -8 -7 -12q-125 -78 -125 -204q0 -54 27 -110q67 25 139 26q81 0 163 -34q83 -37 135 -102
q35 -42 53 -90q82 13 174 51q122 51 226 129l6 4q-29 152 -29 273v8q7 116 68 190.5t140 103.5q47 18 89 18q95 0 119 -75q5 -16 5 -35q0 -44 -31.5 -119t-142.5 -203q-47 -55 -107 -108l4 -24q33 -163 33 -334q0 -401 -218 -619q-223 -223 -560 -223zM1407 1193
q49 46 90 92q139 162 139 241q0 53 -56 53q-59 -1 -120.5 -54t-69.5 -143v-9q0 -78 17 -180zM790 912q36 0 75 4q-48 117 -169 169q-75 32 -147 32q-67 0 -130 -22q39 -63 109 -110q110 -73 262 -73zM596 18q42 0 158.5 11t279.5 124.5t245 338.5q49 135 49 316
q0 122 -22 264q-105 -77 -226 -128q-92 -38 -176 -52l3 -16l1 -1q5 -26 5 -50q0 -114 -90 -186q-4 -3 -9 -3q-8 0 -11.5 4.5t-3.5 9.5q0 7 5 12q79 65 79 163q0 34 -9 62q-44 -5 -85 -5q-158 0 -278 78q-76 51 -118 121l-2 3q-63 -28 -119 -74q-124 -102 -191 -255
q-51 -119 -51 -242q0 -334 302 -449q124 -46 264 -46z" />
    <glyph glyph-name="T" unicode="T" horiz-adv-x="1891" 
d="M1053 -110h-4q-5 0 -10.5 3t-5.5 11q0 12 11 15q148 44 257 146t197.5 244.5t174.5 306.5q112 217 256 435t361 396q-354 11 -718 49l-14 1l4 -37v-28q0 -209 -195 -335q-123 -78 -284 -118q-224 -57 -472 -57q-163 0 -282 27q-193 44 -272 130q-57 63 -57 132
q0 141 203 249q276 138 807 140q240 0 496 -15q-33 101 -113 223q-3 4 -3 8q0 8 5.5 11t10.5 3q7 0 12 -6q86 -132 120 -241l223 -13q446 -30 709 -30q262 0 491 40.5t373 164.5q4 3 8 3q7 0 12 -4q4 -4 4 -9v-2q0 -6 -4 -11q-186 -161 -447 -221q-246 -55 -529 -55h-38
q-124 -104 -230.5 -270t-210.5 -360q-106 -199 -226.5 -389t-271.5 -333.5t-348 -203.5zM609 952q476 0 742 170q182 117 182 308q0 39 -6 70q-440 44 -682 44q-142 0 -308.5 -17.5t-319.5 -93.5q-110 -57 -155 -127q-32 -48 -32 -95q0 -18 5 -36q35 -138 300 -197
q115 -26 274 -26z" />
    <glyph glyph-name="U" unicode="U" horiz-adv-x="1957" 
d="M1494 31q-38 0 -60 19q-39 33 -39 107q0 37 10 85q-190 -210 -346 -210q-71 0 -118 49q-58 60 -58 180q0 24 2 50q17 133 74.5 251.5t130.5 232.5q57 93 108 189q107 201 107 366q0 218 -210 278q-76 22 -164 22q-57 0 -167.5 -16t-266.5 -88.5t-273.5 -182
t-160.5 -245.5l-1 -2q-32 -84 -32 -162q0 -24 7.5 -86t60.5 -138.5t131 -119.5t168 -43q91 0 182 52.5t170 166.5q5 6 13 6q4 0 8 -2q6 -5 6 -13q0 -4 -2 -8q-84 -121 -180.5 -176t-192.5 -56q-100 0 -185 46.5t-142 128.5q-74 108 -74 239q0 85 34 176q49 154 178 271
t300 187q216 88 422 88q326 0 434 -210q36 -68 36 -163q0 -74 -22 -164q-33 -121 -89.5 -227t-120.5 -207q-61 -96 -114.5 -195t-85.5 -209q-18 -70 -18 -121q0 -68 33 -101q28 -28 72 -28t133 42.5t231 219.5q55 176 189.5 396.5t322 427t400 338t424.5 131.5q77 0 118 -44
q37 -39 37 -98q0 -76 -54 -163q-52 -83 -156 -164q-125 -96 -278 -134q-55 -13 -108 -13q-76 0 -148 27q-9 5 -9 14l1 6q4 9 13 9l6 -1q67 -25 138 -25q49 0 101 12q146 37 266 129q98 76 148 155t50 147q0 48 -28 78q-33 35 -98 35q-119 0 -271 -95.5t-313.5 -252
t-308 -337.5t-254.5 -352t-153 -295q-23 -64 -23 -106q0 -75 63 -75q52 0 150 49q85 47 132 121q2 2 4.5 7t6.5 6t7 1t7.5 -2.5t5.5 -6.5t1 -7q0 -5 -7 -14q-51 -81 -144 -131q-105 -52 -167 -52z" />
    <glyph glyph-name="V" unicode="V" horiz-adv-x="1283" 
d="M676 -45q-8 0 -12 5t-4 10q0 3 2 6q70 181 85 387q13 173 13 345v64q0 68 1 133q4 309 104 608q-171 -204 -335 -312t-290 -166q-105 -50 -162 -94q-47 -35 -47 -87q0 -14 10 -59t125 -182q2 -4 2 -8v-3q-1 -13 -13 -13q-7 0 -13 5q-142 171 -142 261q0 64 60 110t167 96
q89 43 200 109q264 156 473 437q5 6 11 6q5 0 10 -3.5t5 -12.5v-4q-47 -123 -53 -249q-3 -54 -3 -108q0 -72 5 -145q4 -77 4 -156q0 -305 -38 -498q-36 -187 -128 -414q145 142 265 328.5t231 387.5q188 333 313 503q-6 38 -6 78q0 154 90 333q4 8 13 8q4 0 8.5 -2.5t5.5 -6
t1 -5.5l-1 -8q-87 -170 -87 -319q0 -22 2 -44q144 190 339 298q170 93 341 93q159 0 297 -111q137 -120 137 -316l-1 -35q-16 -196 -126 -330q-148 -169 -379 -169q-194 0 -366 116q-161 107 -231 278q-161 -213 -319 -442q-151 -220 -292 -406.5t-263 -293.5q-4 -3 -9 -3z
M2154 736q77 0 173.5 28.5t184.5 129.5q104 126 120 313v27q0 190 -126 299q-124 102 -252 102q-186 0 -386 -184q-127 -117 -288 -323q66 -175 227 -282q165 -110 347 -110z" />
    <glyph glyph-name="W" unicode="W" horiz-adv-x="2788" 
d="M2117 -33q-31 0 -38.5 37.5t-7.5 80.5q0 220 213 611q108 200 237 411q-250 -317 -516 -568q-337 -317 -607 -492q-26 -17 -45 -31q-60 -40 -79 -40q-10 0 -10 9q0 10 13 33q334 629 769 1159q107 129 215 275q-145 -137 -320 -273q-375 -292 -739 -436
q-269 -106 -535 -106q-288 0 -476 119q-191 126 -191 366q0 124 60 238q154 294 613 402q130 27 257 27q163 0 320 -45q269 -79 422 -279q3 -4 3 -9q0 -14 -14 -14q-8 0 -13 6q-146 191 -406 267q-153 45 -313 45q-123 0 -249 -27q-297 -70 -455 -215q-179 -165 -193 -354
q-2 -24 -2 -46q0 -221 178 -337q178 -114 463 -114q77 0 157 9q339 42 730 276q435 261 795 632q4 4 10 4q15 0 15 -14q0 -5 -3 -10q-118 -183 -220 -357q-78 -134 -163 -270q-108 -168 -322 -425q-99 -119 -190.5 -239t-163.5 -245h1l65 44q267 174 602 488
q324 306 592 668q38 50 51 63q21 20 28 20q4 0 4 -5q0 -10 -13 -36l-9 -20l-5 -8q-75 -144 -293 -643q-231 -530 -231 -588v-1q2 -13 12 -13h5q60 15 165.5 111.5t235 248.5t276 364t269 441t180.5 433q23 86 23 169q0 40 -10.5 120t-94.5 155q-75 67 -216 67
q-64 0 -127 -16h-4q-15 0 -15 16q0 9 12 13q69 17 129 17q135 0 224 -68q154 -125 154 -349q0 -71 -18 -139q-59 -207 -188.5 -436t-284 -440t-287 -366.5t-242.5 -254.5t-175 -115z" />
    <glyph glyph-name="X" unicode="X" horiz-adv-x="1720" 
d="M1998 -602q-199 6 -317.5 145t-188.5 359.5t-125 470.5q-40 178 -86 348q-139 -173 -286 -323.5t-307.5 -249t-339.5 -117.5q-17 0 -17 16q0 12 14 14q149 16 288.5 113.5t276 248.5t277.5 327l63 75q-54 174 -133 312q-177 -46 -368 -46q-85 0 -162 10q-232 29 -368 96
q-219 108 -219 265q0 90 76.5 164t222.5 109q77 18 169 18q82 0 176 -14q192 -33 458 -117q260 -82 416 -104l2 13q3 22 3 46q0 96 -49 218l-1 5q0 15 14 15q10 0 15 -9q51 -127 51 -229q-1 -32 -5 -63q67 -9 138 -9q66 0 171.5 12.5t265.5 77.5l6 1q15 0 15 -15
q0 -10 -10 -13q-230 -102 -498 -413q-69 -80 -274 -334q60 -202 115 -541q34 -227 83.5 -419t150 -310t287.5 -123q160 3 273 143q87 109 87 199q0 87 -77 146q-88 66 -214 66q-36 0 -98.5 -11.5t-122.5 -71.5q-4 -4 -10 -4q-15 0 -15 14q0 6 4 11q92 91 243 91
q135 0 231 -72q53 -39 76 -98q13 -32 13 -69q0 -29 -12.5 -81.5t-81.5 -138.5q-120 -151 -296 -154zM751 1121q42 0 131 4.5t219 37.5q-128 202 -323 252q-12 4 -12 15l1 3q3 11 15 11h3q250 -64 396 -257l47 18q119 48 197 129q64 65 87 154q-106 16 -209.5 44.5t-209.5 62
t-219 64.5q-240 65 -403 65q-250 0 -374 -121q-68 -65 -68 -140q0 -141 207 -241q131 -63 354 -92q76 -9 161 -9zM1328 919q141 171 296.5 325t331.5 264q-145 -33 -277 -33q-71 0 -137 9q-25 -99 -95 -170q-96 -98 -247 -151q78 -111 128 -244z" />
    <glyph glyph-name="Y" unicode="Y" horiz-adv-x="2032" 
d="M731 -1067q-8 0 -83.5 2t-195.5 51q-130 55 -197 140q-84 106 -84 241q0 77 28 153q54 144 181 245q-156 105 -187 221q-10 37 -10 73q0 52 22 102q37 81 123 141q115 80 292 96q28 2 56 2q154 0 329 -68q49 -20 94 -44q251 -137 340 -369q101 159 189 353
q149 313 292 528q84 126 168 240q103 138 219 316l6 9q-67 -61 -146.5 -158.5t-165.5 -209.5q-113 -149 -227 -283q-217 -256 -348 -256q-29 0 -55 11l-2 2q-190 100 -190 457q0 38 2 78q-142 -105 -303 -175q-191 -83 -380 -83q-143 0 -283 60q-108 49 -161.5 123.5
t-53.5 166.5q0 89 48 176q50 92 143 167q142 116 360 153q62 11 129 11q165 0 355 -68q9 -3 9 -13q0 -3 -1.5 -7.5t-5.5 -6.5t-7 -2l-6 1q-185 66 -346 66q-62 0 -197 -22.5t-271 -134.5q-89 -71 -136 -158q-44 -81 -44 -164q0 -80 50 -149q48 -67 148 -112q134 -57 273 -57
q28 0 125.5 8t257.5 80t300 179q19 192 84.5 363.5t164.5 266.5q72 70 155 70q31 0 63 -10l1 -1q47 -18 47 -72q0 -76 -84 -207q-113 -181 -321 -360q-15 -120 -15 -230q0 -19 1.5 -91.5t27.5 -161.5q35 -124 120 -124q56 0 138 61t191.5 191.5t218.5 274t207 259t177 163.5
q5 3 8 3q7 0 12 -8q2 -4 2 -7q0 -9 -6 -13q-13 -24 -44 -72q-119 -187 -354 -644q-70 -137 -132 -252q-197 -393 -383 -600q22 -89 22 -177q0 -187 -90 -348q-136 -250 -399 -341q-132 -45 -265 -45zM1300 1139q185 166 290 331q78 122 78 191q0 35 -26 45q-23 7 -44 7
q-60 0 -119.5 -65.5t-107.5 -205t-71 -303.5zM1112 -352q178 57 306 241q-38 110 -120 206q-118 136 -305 209q-169 66 -317 66q-26 0 -123.5 -8t-207.5 -84q-79 -55 -113 -129q-19 -43 -19 -89q0 -150 192 -277q87 61 197 85q50 11 104 11q112 0 212 -43q139 -60 194 -188z
M944 -377q76 0 139 17q-7 18 -17 34q-54 90 -159 135q-92 40 -200 40q-149 0 -274 -83q92 -53 227 -97q159 -46 284 -46zM732 -1037q127 0 255 43q250 87 382 327q86 158 86 336q0 75 -16 150q-136 -142 -318 -200q12 -39 12 -84q0 -77 -38 -165q-4 -9 -14 -9l-5 1
q-9 5 -9 14l1 6q35 80 35 155q0 40 -10 75q-73 -20 -156 -20q-130 0 -285 48q-148 48 -246 107q-127 -96 -178 -237q-27 -73 -27 -147q0 -122 78 -219q63 -79 185.5 -130t267.5 -51z" />
    <glyph glyph-name="Z" unicode="Z" horiz-adv-x="1686" 
d="M388 -855q-85 0 -191.5 33t-172.5 178q-24 59 -24 119q0 45 13 91q64 211 403 302q205 54 443 54q228 0 428 -46q18 56 18 123q0 126 -71 215t-201 117q-50 11 -102 11q-84 0 -172 -28q-40 -12 -54 -12l-7 3q-8 8 -8 14q0 8 18 23q45 29 146 80l42 22q187 96 396 242.5
t364 292.5q203 201 218 333q2 16 2 31q0 108 -100 159q-82 42 -200 42q-45 0 -161.5 -13.5t-308.5 -120.5q-80 -45 -150 -107q-3 -3 -8 -3q-16 0 -16 13q0 8 5 12q72 64 155 111q241 136 501 136q77 0 181 -21.5t173 -106.5q43 -52 43 -125q0 -45 -29.5 -141t-222.5 -284
q-139 -131 -288.5 -214t-309.5 -153q-113 -51 -230 -110q-113 -57 -124 -64q105 29 203 29q61 0 166 -19.5t195 -127.5q75 -89 75 -238q0 -84 -23 -153q30 -9 57 -21q9 -4 9 -13q0 -3 -2 -7.5t-6 -6t-7 -1.5l-6 1q-26 11 -55 20q-60 -152 -195 -287.5t-308 -232.5t-348 -134
q-80 -17 -153 -17zM334 -803q85 0 211.5 38t281.5 136.5t276 223.5t174 253q-194 44 -415 44q-457 0 -699 -169q-45 -33 -75 -74q-58 -80 -58 -175q0 -54 21 -106q59 -130 184 -160q47 -11 99 -11z" />
    <glyph glyph-name="bracketleft" unicode="[" horiz-adv-x="998" 
d="M85 -198q-20 0 -38 3q-27 5 -27 34q0 11 4 26q36 107 156.5 321.5t247 418.5t180.5 281q22 27 67 27q33 0 66 -6q26 -4 46 -5q11 0 11 -12q0 -14 -14 -16q-20 1 -40.5 4t-38.5 3q-5 0 -18 -0.5t-24 -17.5l-90 -154q-487 -824 -494 -853q11 -17 67 -17q27 -1 45 -5
q12 0 12 -12t-12 -12q-25 0 -53.5 -4t-52.5 -4z" />
    <glyph glyph-name="backslash" unicode="\" horiz-adv-x="435" 
d="M203 -167q-6 0 -17.5 3.5t-16.5 28.5q-44 284 -75 552t-74 550v2q0 9 9 11q11 0 13 -10q46 -280 96 -543q50 -267 97 -551l1 -6q0 -20 -11 -28.5t-22 -8.5z" />
    <glyph glyph-name="bracketright" unicode="]" horiz-adv-x="997" 
d="M152 -198h-9q-33 0 -66 6q-26 4 -47 5q-10 0 -10 13t13 15q20 -1 40.5 -4t39.5 -3q4 0 17.5 0.5t24.5 17.5l293 500q287 489 290 507q-11 17 -67 17q-26 1 -45 5q-11 0 -11 12t11 12q25 0 53.5 4t52.5 4q21 0 38 -3q27 -5 27 -34q0 -11 -4 -26q-36 -107 -156.5 -321.5
t-247 -418.5t-180.5 -281q-21 -26 -57 -27z" />
    <glyph glyph-name="asciicircum" unicode="^" horiz-adv-x="455" 
d="M230 683q-18 0 -23 17l-45 138l-98 -126q-7 -9 -20 -9q-8 0 -14 5q-10 8 -10 19q0 8 5 16l127 163q9 10 20 10q19 0 24 -19q59 -186 59 -190q0 -6 -3 -13q-6 -11 -22 -11z" />
    <glyph glyph-name="underscore" unicode="_" horiz-adv-x="895" 
d="M114 -22q-39 0 -65.5 13.5t-28.5 34.5q0 22 25 36t64 15l498 7q35 0 60.5 -13t27.5 -35q0 -21 -25 -35t-63 -15z" />
    <glyph glyph-name="grave" unicode="`" horiz-adv-x="440" 
d="M240 567q-15 0 -75 31q-55 28 -104 72q-41 39 -41 70q0 21 19 40q25 20 48 20q36 0 74 -50t59 -111q20 -56 20 -72z" />
    <glyph glyph-name="a" unicode="a" horiz-adv-x="593" 
d="M233 15q-35 1 -35 65q0 47 11 87q-42 -46 -86 -77q-71 -48 -112 -48q-19 0 -32 10q-33 26 -33 89q0 16 7 70.5t58 154t130 161.5q59 47 128 47q24 0 50.5 -6.5t39.5 -38.5q18 21 43 21q39 0 53 -32q6 -12 6 -24q0 -15 -11 -37v2q-8 -18 -11 -22q-15 -27 -59 -119
q-68 -139 -68 -185q0 -18 13 -18q28 0 106 79l156 147q5 7 11 7q16 0 16 -14q0 -15 -117 -124q-91 -85 -166 -144q-63 -51 -98 -51zM12 66q27 0 95 47q60 43 121 124q43 125 109 249q0 11 -2 20q-7 35 -27 35q-26 0 -81 -60t-114.5 -147t-94.5 -163q-25 -52 -25 -79
q0 -26 19 -26z" />
    <glyph glyph-name="b" unicode="b" horiz-adv-x="619" 
d="M90 -2q-14 0 -29 3v1h-2q-73 26 -87 98q-6 30 -6 62q0 111 67 271q32 78 52 115q31 58 117 187q229 348 334 371q20 0 29 -17q16 -36 16 -81q0 -53 -31 -147t-124 -198.5t-214 -128.5q-21 -42 -39 -72l-59 -108q-88 -166 -88 -258q0 -51 43 -66q4 -1 9 -1q42 0 88.5 70.5
t70.5 170.5q11 45 11 85q0 46 -16 84q0 2 -1 3q-14 31 -14 41q0 8 6 8q12 0 30 -18q1 0 2 -1.5t3.5 -3t4.5 -3.5q31 -27 77 -55q101 -65 208 -65q37 0 76 7q7 0 12.5 -3.5t5.5 -10.5q0 -22 -93 -22q-62 0 -116 18q-97 34 -160 85q14 -48 14 -99q0 -157 -93 -268
q-46 -54 -104 -54zM235 576q87 42 165 141.5t119 202.5q28 68 28 113q0 24 -8 42v1q-35 0 -304 -500z" />
    <glyph glyph-name="c" unicode="c" horiz-adv-x="606" 
d="M86 -12q-16 0 -54.5 5t-67.5 62q-17 33 -17 85q0 136 86 274q59 94 146 149q54 33 115 33q35 0 73 -11q5 0 13 -7q18 -16 18 -40q0 -20 -10 -45q-24 -66 -69 -120q-4 -6 -13 -6q-14 0 -14 17q0 4 3 9q15 17 34 48q37 62 37 97q0 11 -5 15q-9 6 -32 6q-50 0 -103.5 -55.5
t-94.5 -142.5q-50 -107 -50 -173q0 -48 25 -80q29 -37 85 -37q85 0 164 61t150 139q52 54 98 92q4 4 9 4q16 0 16 -14q0 -7 -5 -13q-78 -66 -135 -127.5t-123 -114t-169 -89.5q-60 -21 -110 -21z" />
    <glyph glyph-name="d" unicode="d" horiz-adv-x="678" 
d="M-50 -11q-75 0 -75 83q0 73 79 204q69 109 156 183q69 57 136 62q92 -2 114 -131q83 187 184 356q143 241 197 241q12 0 12 -13q0 -6 -4 -12q-44 -76 -146.5 -276t-194.5 -391q-106 -221 -106 -247q0 -2 3 -2q5 0 6 1q64 16 158 99q100 90 204 201q4 5 10 5q14 0 16 -14
q0 -6 -4 -11q-237 -257 -358 -303q-19 -8 -35 -8q-38 0 -38 56q0 6 2 39t35 128q-64 -78 -136 -142q-131 -108 -215 -108zM34 55q48 0 184 132q116 112 116 170q-8 81 -46 81q-63 0 -172.5 -141t-109.5 -211q0 -31 28 -31z" />
    <glyph glyph-name="e" unicode="e" horiz-adv-x="441" 
d="M-3 -8q-4 0 -20.5 1t-33.5 22.5t-17 71.5q6 130 95.5 302t188.5 245q36 22 61 22q18 0 39 -17q28 -23 28 -90q0 -96 -79 -178q-42 -44 -102 -62q-22 -6 -45 -6q-17 0 -34 3q-74 -145 -74 -223q0 -48 36 -48q21 0 54 16q72 37 137 96t126 122q79 83 89 83q6 0 10.5 -4.5
t4.5 -10.5q-1 -6 -5 -11q-40 -38 -81 -81q-61 -63 -126.5 -122t-137.5 -97q-71 -34 -114 -34zM111 333q71 0 127 59q38 39 57 86q15 34 15 73q0 34 -17 34q-11 0 -30 -13q-70 -53 -170 -238z" />
    <glyph glyph-name="f" unicode="f" horiz-adv-x="449" 
d="M-434 -817q-5 0 -9 2q-22 6 -22 34q0 8 2 15q29 186 317 803q106 227 150 312l61 109q148 259 297 461q175 236 266 236q15 0 29 -6l4 -2q37 -28 37 -82q0 -23 -13.5 -83.5t-83 -179t-160 -228.5t-175 -181t-135.5 -71q-3 0 -6 2q-22 -44 -103 -192q-24 -42 -50 -91
q2 2 6 2q7 0 15 -5q4 -4 11 -4q63 0 192 89q105 72 252 224q5 5 11 5t10.5 -4.5t4.5 -10.5t-4 -10q-298 -307 -456 -322q37 -67 37 -147q0 -158 -124 -352q-83 -130 -180.5 -219t-172.5 -103zM-431 -787q61 12 150 100.5t169 215t114 252.5q13 52 13 96q0 65 -28 115
q-11 17 -17 23.5t-6 10.5l1 3q-357 -647 -397 -795l-1 -4l-3 -11q0 -6 5 -6zM139 352q43 6 117 77.5t155 178t146.5 216t92.5 192.5q12 37 12 62q0 31 -18 44q-6 3 -12 3q-66 0 -237 -293q-142 -241 -256 -480z" />
    <glyph glyph-name="g" unicode="g" horiz-adv-x="745" 
d="M-248 -876q-23 0 -45 6q0 1 -1 1q-66 19 -66 89q0 80 75 199q42 66 70 98q130 153 425 398q108 268 143 376q-68 -118 -151 -201q-89 -86 -198 -86q-89 0 -89 102q0 107 96 256q87 128 189 175q81 37 145 37q105 0 105 -112q0 -86 -34 -195q-20 -64 -90 -256
q293 236 419 346q4 5 10 5q15 0 16 -14q0 -17 -379 -323q-7 -5 -84 -69q-209 -615 -428 -783q-63 -49 -128 -49zM46 43q17 0 43 8q49 18 92 61q62 61 99 120q5 6 32 50q91 151 91 221q0 38 -32 40q-58 0 -182 -131q-50 -53 -72 -84q-109 -161 -109 -242q0 -43 38 -43z
M-263 -844q56 0 131 93t159.5 260.5t158.5 344.5q-336 -276 -445 -451q-39 -62 -61 -128q-9 -28 -9 -53q0 -33 19.5 -49.5t46.5 -16.5z" />
    <glyph glyph-name="h" unicode="h" horiz-adv-x="608" 
d="M262 2q-31 0 -31 48q0 20 11 73t50 145t73 143q-65 -52 -217 -197q-209 -199 -243 -199h-1q-14 4 -14 17q0 19 63 189q47 128 116 286q166 376 313 506q51 45 99 45q28 0 56 -16l2 -2q27 -23 27 -74q0 -70 -43 -146q-58 -92 -150 -169q-102 -86 -188 -119l-6 -1
q-6 0 -10 6q-180 -328 -242 -484q25 20 74 66q111 102 127 117q93 88 169.5 155t102.5 67h1q14 -4 14 -19l-1 -11q-20 -72 -54 -159q-55 -140 -55 -179q0 -22 12 -22q17 0 62 38q84 77 149 158q74 88 86 88q5 0 10 -4.5t5 -10.5t-5 -10q-38 -41 -79 -89l-3 -3
q-70 -85 -143 -152q-96 -81 -137 -81zM184 564q78 32 170 109q88 75 143 163q40 69 40 129q0 35 -16 52q-90 -7 -337 -453z" />
    <glyph glyph-name="i" unicode="i" horiz-adv-x="421" 
d="M203 566q-15 0 -25.5 11t-10.5 26t10.5 26t25.5 11q14 0 24.5 -11t10.5 -26t-10.5 -26t-24.5 -11zM-21 18h-8q-63 0 -86 51q-7 16 -7 38q0 52 39 134q47 89 113.5 167t95 104.5t37.5 26.5q16 0 16 -15q0 -12 -3.5 -23t-79.5 -124q-149 -220 -149 -291q0 -40 40 -40
q107 0 412 292l21 22q5 6 12 6t12 -5.5t5 -12.5q0 -8 -25 -33q-296 -290 -445 -297z" />
    <glyph glyph-name="j" unicode="j" horiz-adv-x="399" 
d="M90 519q-14 0 -23 10t-9 23q0 14 9 24t23 10q13 0 22.5 -10t9.5 -24q0 -13 -9.5 -23t-22.5 -10zM-787 -948q-59 0 -97 37q-64 64 -64 180q0 129 73 250q69 99 246.5 207t398.5 223l87 46q49 118 90 220q108 274 126 274q3 0 7.5 -2t7.5 -6.5t3 -8.5l-1 -4
q-26 -72 -142 -423q340 203 449 311q5 4 11 4t10.5 -4.5t4.5 -10.5t-5 -11q-121 -117 -484 -331q-72 -216 -168 -425q-220 -480 -523 -524q-16 -2 -30 -2zM-787 -918q118 0 237 150q180 223 388 719q-26 -15 -53 -29q-219 -114 -393.5 -220t-240.5 -199q-69 -114 -69 -232
q0 -105 55 -159q29 -30 76 -30z" />
    <glyph glyph-name="k" unicode="k" horiz-adv-x="825" 
d="M286 665q2 2 7 3q89 21 158 85q82 75 131 173q30 60 30 88q0 18 -10 18t-30 -12q-75 -53 -196 -224q-46 -64 -90 -131zM172 350q5 2 13 2h4q65 0 144 33.5t139 78.5q68 50 68 79q0 21 -48 21q-44 0 -95 -23q-96 -44 -225 -191zM282 659q-74 -110 -146 -227
q-118 -192 -181 -309q59 85 152 197q160 192 277 248q56 25 98 25q60 0 85 -37q14 -21 14 -46t-20 -67t-113 -84q-86 -37 -234 -37h-30q-8 -1 -8 -21q0 -7 2.5 -31t25.5 -72.5t69 -83.5t118 -35h4q167 0 428 268q5 5 11 5t10.5 -4.5t4.5 -10.5t-4 -10q-307 -316 -501 -316
q-12 0 -59.5 5t-92.5 60q-63 75 -63 175q0 34 10 61q-74 -88 -129 -164q-75 -101 -81 -114q-14 -19 -24 -19t-13 21q0 66 60 205.5t163 313t222 313t228 181.5q26 8 43 8q27 0 32 -20q2 -9 2 -20q0 -27 -18 -71q-52 -123 -155 -217q-74 -67 -170 -90q-18 0 -18 15q0 3 1 5z
" />
    <glyph glyph-name="l" unicode="l" horiz-adv-x="430" 
d="M18 11l-15 1q-59 6 -59 106v7q9 124 90.5 306.5t194 347.5t212.5 237q48 30 81 30q19 0 33 -9q36 -23 36 -80q0 -7 -3 -45.5t-64 -123.5q-118 -151 -330 -322q-4 -4 -25 -19q-18 -12 -23 -17q-149 -301 -149 -367q0 -28 23 -28q36 0 106 45q47 29 95 70q123 102 207 197
q5 5 11 5t10.5 -4.5t4.5 -9.5q0 -6 -4 -11q-91 -103 -210 -200q-138 -116 -222 -116zM176 489q211 173 325 317q62 87 62 158q0 32 -16 44q-6 5 -14 5q-22 0 -59 -38q-117 -129 -298 -486z" />
    <glyph glyph-name="m" unicode="m" horiz-adv-x="993" 
d="M655 7q-34 0 -34 57q0 108 137 382q28 57 28 68q0 5 -3 5q-14 0 -82 -68q-82 -83 -192 -212l-45 -51q-98 -124 -126 -124q-5 0 -9 2q-25 18 -25 55q0 12 6 47q12 70 100 234q39 77 39 88q0 5 -4 5q-13 0 -60 -34q-124 -99 -316 -336q-77 -103 -103 -103l-6 1
q-19 15 -19 61q0 30 14.5 106.5t54 192.5t63.5 158q25 35 47 35q7 0 14 -4q19 -9 19 -35q0 -12 -4 -28q-81 -249 -162 -437q2 0 2 2q27 40 85 107q171 205 290 301q85 64 121 64q25 0 25 -29q0 -20 -14 -64q-21 -71 -103 -250q-45 -98 -45 -109q0 -2 1 -2q2 0 11 13
q75 101 133 168q134 152 231 233q61 52 95 52q24 0 24 -41q0 -72 -104 -297q-66 -140 -66 -174q0 -6 4 -6q15 0 74 56l29 28q106 108 218 253q5 7 13 7q5 0 10 -4.5t6 -12.5q0 -12 -107 -138q-92 -107 -154 -161q-69 -61 -111 -61z" />
    <glyph glyph-name="n" unicode="n" horiz-adv-x="732" 
d="M365 14h-3l-1 1q-36 12 -36 56l3 38q7 61 101 257q61 127 61 156q0 13 -8 13q-44 0 -281 -285q-26 -36 -126 -147q-75 -83 -103 -83q-14 0 -21 16q-21 43 -21 93t33 135.5t100 178.5q92 126 107 126q2 0 8.5 -0.5t12.5 -6.5t6 -12q0 -4 -3 -9q-18 -34 -65 -134.5
t-91.5 -202.5t-55.5 -141q39 27 183 198q1 3 4 4q100 123 192 218q82 85 125 85q15 0 26 -10h1v-1q34 -40 34 -93q0 -15 -6 -58q-13 -80 -119 -253q-50 -81 -50 -98q0 -4 2 -6q35 6 348 304l7 7q6 6 13 6t12.5 -5t5.5 -13q0 -7 -5 -12q-314 -320 -390 -322z" />
    <glyph glyph-name="o" unicode="o" horiz-adv-x="578" 
d="M65 17q-25 0 -53 14q-70 50 -70 138q0 9 4.5 65t68 156.5t147.5 155.5q51 33 98 33q33 0 63 -15q47 -36 59 -94q7 -42 7 -82l-1 -19q12 4 47 4q159 0 159 -25q0 -16 -19 -16q-53 4 -93 4q-101 0 -123 -24q-25 -27 -63.5 -84.5t-84 -113.5t-96.5 -84q-24 -13 -50 -13z
M66 50q22 0 54 21q52 33 149 175q59 90 92 109q-6 5 -6 12l1 26q0 34 -6 70q-9 46 -44 73q-7 3 -15 3q-34 0 -86.5 -54.5t-107 -146.5t-78.5 -172q-9 -34 -9 -57q0 -59 56 -59z" />
    <glyph glyph-name="p" unicode="p" horiz-adv-x="670" 
d="M-347 -461q-4 0 -9.5 3t-5.5 9q0 10 2 18q1 1 1 3q26 85 139.5 330t241.5 484.5t197 309.5q18 16 40 16q17 0 17 -10q0 -3 -3 -9q-131 -265 -273 -521q168 254 291 329q35 20 62 20q17 0 32 -8q84 -42 84 -112q0 -4 -2.5 -43.5t-65 -118t-146.5 -130.5q41 -27 81 -27
q17 0 34 5q94 27 299 260q4 5 10 5q14 0 16 -14q0 -6 -4 -11q-109 -121 -183 -186q-100 -89 -172 -89q-55 0 -110 41q-23 -12 -46 -20q-57 -21 -98 -21q-69 0 -69 48q0 24 17 61q7 15 18 27q24 25 55 25t58 -26t52 -47q53 45 106.5 113t74.5 133q7 21 7 40q0 37 -29 61
q-7 6 -18 6q-18 0 -48 -17q-158 -103 -390 -492q-96 -162 -171 -296q-43 -78 -75 -132v-1q-8 -16 -17 -16zM84 79q45 0 105 42q-23 20 -49 45q-22 18 -38 18l-8 -1q-24 -8 -37 -35q-10 -23 -10 -39q0 -30 37 -30z" />
    <glyph glyph-name="q" unicode="q" horiz-adv-x="597" 
d="M12 -497q-14 0 -29 3q-80 43 -80 138q0 151 171 422q-18 -6 -36 -6q-9 0 -18 2h-1q-118 23 -131 100q-3 14 -3 29q0 64 50 146.5t138 151.5q98 78 185 78q73 0 112 -82l24 35q4 7 13 7q14 0 20 -8q4 -3 4 -8q0 -4 -3 -10q-333 -555 -424 -811q-25 -70 -25 -109
q0 -29 13 -42q11 -3 21 -3q32 0 69 27.5t61 60.5q81 104 103 240q4 25 4 49q0 79 -46 138q-3 3 -3 8q0 9 4 13t7 4q210 87 384 279q6 7 13 7q5 0 11.5 -4.5t6.5 -12.5q0 -4 -4 -9q-179 -195 -380 -282q41 -64 41 -143q0 -25 -4 -51q-25 -146 -111 -257q-32 -42 -82 -76
q-35 -24 -75 -24zM39 94q34 0 68 23q110 163 200 281l40 53q-20 55 -61 55q-8 0 -39 -8t-92.5 -68t-108.5 -134q-59 -93 -59 -153q0 -49 52 -49z" />
    <glyph glyph-name="r" unicode="r" horiz-adv-x="416" 
d="M25 -38q-25 0 -25 30q0 35 53 150q25 57 45 110q16 43 16 74l-1 12q-5 23 -44 51q-58 40 -58 84q0 10 5 35t60 85q31 35 61 35q29 0 29 -31q0 -26 -23.5 -63.5t-73.5 -63.5q-4 -14 -4 -24q0 -32 48 -45q17 -6 33 -15q40 -22 40 -84q0 -21 -10 -60q-17 -68 -98 -191
q-30 -47 -30 -55q0 -1 0.5 -2t1.5 -1q14 0 130 92q57 47 111 107q81 92 123 154q5 6 11 6q5 0 10 -4t5 -11q0 -8 -50 -72q-97 -125 -192 -203q-126 -100 -173 -100zM93 518q33 22 41 47q-25 -20 -41 -47z" />
    <glyph glyph-name="s" unicode="s" horiz-adv-x="311" 
d="M-48 7q-54 2 -85.5 43.5t-46 97.5t-15.5 102q0 15 14 15q15 0 15 -14q2 -36 14 -86q28 -127 103 -129q21 0 37 20q15 23 15 67q0 30 -4 65.5t-4 72.5q0 42 5 86q14 78 72.5 146t137.5 81l8 1q30 0 30 -32q0 -22 -18 -64t-54.5 -85.5t-81.5 -68.5q-6 -40 -10 -79
q-7 -86 -28 -152q68 40 191 187q59 71 69 71q6 0 10.5 -4.5t4.5 -9.5q0 -6 -4 -11l-32 -36q-44 -50 -107 -116t-127 -117t-109 -51zM100 363q35 25 61.5 60.5t41.5 67.5t15 44q0 7 -5 7q-27 -5 -51 -38.5t-40 -74t-22 -66.5z" />
    <glyph glyph-name="t" unicode="t" horiz-adv-x="439" 
d="M24 35h-6q-83 13 -83 92q0 5 3 52t68 176t156 264t175 243q-136 21 -261 21q-115 0 -211 -46.5t-156 -170.5q-5 -9 -14 -9l-6 1q-9 4 -9 13q0 3 2 7q67 137 172 188q100 47 220 47q7 0 76 -1t208 -23q122 153 139 153q13 0 14 -13v-3q0 -4 -2 -8q-21 -28 -90 -137
q134 -21 244 -21q91 0 177.5 25.5t156.5 101.5q5 4 10 5q6 0 11 -4.5t5 -10.5q0 -5 -4 -10q-77 -83 -176 -112q-85 -25 -179 -25q-106 0 -262 23q-172 -277 -284 -492q-110 -212 -110 -271q0 -25 19 -25q35 0 83 25q108 57 232 166q71 62 94 90q5 6 12 6q5 0 9.5 -3.5
t4.5 -11.5q0 -15 -99 -102q-72 -64 -158 -123q-108 -77 -181 -77z" />
    <glyph glyph-name="u" unicode="u" horiz-adv-x="806" 
d="M353 11q-82 0 -82 83q0 22 6 49q-11 -13 -22 -24q-1 0 -1 -1q-91 -95 -178 -95q-39 0 -72 36q-37 39 -37 130q0 76 27 144q75 180 153 233q18 12 35 12q21 0 21 -16q0 -10 -8 -25q-17 -33 -46 -102q-88 -210 -88 -317q0 -57 38 -57q54 0 132 80v1q37 38 73 83
q45 116 133 224q60 74 116 111q19 12 28 12q7 0 7 -9q0 -29 -72 -148q-125 -204 -125 -296q0 -30 18 -45q8 -7 22 -7q30 0 89 32q157 89 290 253q7 5 14 5q5 0 10 -4.5t5 -12.5q0 -5 -3 -9q-144 -172 -301 -260q-109 -60 -182 -60z" />
    <glyph glyph-name="v" unicode="v" horiz-adv-x="706" 
d="M23 10q-24 0 -49 16q-29 19 -29 93q0 93 45.5 215.5t107.5 208.5q17 20 31 20q22 0 22 -31q0 -29 -50 -169q-80 -230 -80 -286q0 -41 24 -41q41 0 137 94q73 72 136 147.5t81 105.5q-36 51 -36 92q0 21 19 58q23 42 82 42q45 0 61 -47q4 -10 4 -24q0 -48 -48 -132
q54 -27 117 -27q50 0 106 17q5 3 10 3q18 0 18 -17q0 -10 -7 -16q-70 -20 -131 -20q-73 0 -134 28q-23 -32 -92 -101.5t-153 -134.5q-122 -94 -192 -94zM417 418q39 79 39 110q0 17 -11 17t-24 -18q-19 -27 -19 -59q0 -24 15 -50z" />
    <glyph glyph-name="w" unicode="w" horiz-adv-x="989" 
d="M-20 14h-6q-59 0 -59 93q0 79 58.5 201t199.5 251q8 5 15 5q17 0 17 -19q0 -11 -10 -28q-24 -40 -76 -142q-119 -232 -119 -302q0 -26 15 -26q61 0 375 379q117 146 143 146l4 -1q13 -5 13 -17q0 -14 -8 -30q-1 -1 -1 -3q-30 -71 -86 -245q-50 -158 -50 -201
q0 -10 4 -13.5t11 -3.5q15 0 45 20q58 37 109 94q125 137 218 312q26 50 52 50q24 0 51 -69t96 -98q7 0 12.5 -5.5t5.5 -13.5q0 -7 -5.5 -12.5t-12.5 -5.5q-90 40 -115.5 103t-30.5 63t-21 -28q-97 -183 -223 -321q-104 -122 -196 -122q-77 7 -77 78q0 3 1 43.5t45 139
t89 172.5l-7 -7q-76 -98 -220 -258q-155 -167 -256 -179z" />
    <glyph glyph-name="x" unicode="x" horiz-adv-x="686" 
d="M255 -2q-15 0 -27 3q-101 24 -122 198q-146 -153 -231 -153q-46 0 -71 61l-1 7q0 17 18 17q11 0 17 -12q15 -34 40 -34q42 0 111 79l108 134q1 4 2 32q6 132 14 232q3 16 19 16q18 -3 18 -20q0 -94 9 -193q194 203 313 203q35 0 67 -17q9 -5 9 -15q0 -18 -18 -18
q-5 0 -11 2q-20 11 -42 11q-73 0 -188 -122q-77 -82 -118 -136q22 -142 75 -219q10 -10 28 -10q29 0 94 32t157 114l164 163q5 5 14 5q7 0 12.5 -5t5.5 -13q0 -5 -4 -10l-167 -167q-188 -165 -295 -165z" />
    <glyph glyph-name="y" unicode="y" horiz-adv-x="748" 
d="M-251 -932q-6 0 -27.5 5.5t-33.5 59.5q-6 30 -6 65q0 98 37 186q92 209 239.5 367.5t328.5 294.5q68 121 141.5 262.5t105.5 212.5q-49 -57 -118 -154t-148.5 -195t-160.5 -157q-58 -43 -112 -43q-20 0 -40 6q-64 24 -64 90q0 102 106 272q57 91 77 118q14 18 30 18
q17 0 17 -22q0 -15 -13 -42q-74 -135 -98 -243q-6 -24 -6 -42q0 -62 57 -62q31 0 85 39.5t129 131t140.5 181t103.5 131.5q26 26 38 26q13 0 13 -23q0 -50 -135 -393q168 115 312 192q4 2 7 2q15 0 15 -15q0 -9 -8 -13q-160 -86 -346 -216q-26 -64 -84 -186
q-96 -206 -230.5 -444t-254.5 -356q-60 -54 -97 -54zM-256 -901q25 0 71 55q125 169 384 696q49 101 69 136q-164 -128 -301 -276t-221 -338q-37 -91 -37 -184q0 -54 18 -79q7 -10 17 -10z" />
    <glyph glyph-name="z" unicode="z" horiz-adv-x="506" 
d="M-213 -463q-25 0 -86.5 10.5t-100.5 74.5q-13 22 -13 48q0 50 47 113q53 63 147 126t207 129l38 22q-24 49 -76 49h-1q-20 0 -20 16q0 10 11 16q79 33 167 111.5t119 159.5q5 19 5 34q0 25 -16 38q-21 16 -52 16q-53 0 -97 -28q-35 -23 -36 -55q0 -15 -15 -17
q-17 0 -17 16q2 48 64 92t137 59q21 4 40 4q48 0 79 -29q23 -21 23 -66q0 -37 -15 -91q-68 -180 -317 -257q37 -15 65 -39q123 73 420 261q5 3 10 9t14 6q5 0 11 -4.5t6 -12.5q0 -5 -2 -9q-310 -199 -435 -273q63 -75 63 -174q0 -69 -32 -134q-72 -133 -181 -183
q-83 -38 -161 -38zM-261 -426q158 0 284 217q28 52 28 139q0 52 -13 99l-33 -20q-109 -63 -199 -122q-184 -121 -184 -216q0 -14 11 -47t77 -47q14 -3 29 -3z" />
    <glyph glyph-name="braceleft" unicode="{" horiz-adv-x="1128" 
d="M295 -201h-3q-3 0 -127 57t-128 59q-17 9 -17 30q0 9 4 17l218 381q-35 147 -35 151q0 23 22 32l165 60l244 434q12 17 31 17q8 0 16 -4q80 -43 169 -82l67 -30q7 -4 7 -12q0 -2 -2 -6t-5.5 -5.5t-5.5 -1.5l-5 1l-208 97q-12 -40 -202 -364q-37 -62 -52 -89
q-8 -13 -21 -16l-145 -53q31 -130 31 -135q0 -9 -4 -16l-62 -113q-110 -210 -166 -285l214 -100q8 -3 8 -12q0 -8 -8 -12z" />
    <glyph glyph-name="bar" unicode="|" horiz-adv-x="289" 
d="M56 -172q-31 0 -34 36q-2 130 -2 257q0 153 3 300q3 135 3 274t-3 281q0 12 11 12q12 0 12 -11q7 -285 21 -554.5t22 -556.5q-1 -38 -33 -38z" />
    <glyph glyph-name="braceright" unicode="}" horiz-adv-x="1128" 
d="M280 -201q-8 0 -17 4q-80 43 -169 82l-67 30q-7 3 -7 10q0 4 1.5 8t5 5.5t5.5 1.5t214 -98q13 41 206 371q34 57 48 82q7 12 21 16l145 53q-32 130 -32 134q0 9 5 17q25 45 61 113q126 231 167 285l-215 100q-7 3 -7 12q0 12 13 12q3 0 126 -57t127 -59q18 -12 18 -30
q0 -9 -5 -17l-218 -381q35 -147 35 -151q0 -25 -22 -32l-165 -60l-245 -434q-10 -17 -29 -17z" />
    <glyph glyph-name="asciitilde" unicode="~" horiz-adv-x="834" 
d="M142 309q-42 0 -80 27t-42 143q0 15 14 15q15 0 15 -15q5 -83 114 -83q77 0 167 41q93 37 162 37q41 0 83 -21t59 -102v-2q0 -15 -15 -15q-11 0 -14 12q-10 40 -57 49q-22 4 -46 4q-26 0 -66.5 -7t-69.5 -18q-4 -2 -9 -3q-148 -62 -215 -62z" />
    <glyph glyph-name="exclamdown" unicode="&#xa1;" horiz-adv-x="759" 
d="M441 775h6q15 0 25 -7t10 -16q0 -16 -219 -372q-107 -174 -214 -359q-2 -4 -8 -4q-11 0 -16 3.5t-5 6.5l1 3q104 185 194 362.5t196 365.5q10 16 30 17zM504 954h7q24 -5 36 -22.5t12 -37.5l-1 -11q0 -23 -22 -44q-17 -15 -39 -15h-8q-23 5 -35 22.5t-12 40.5l1 10
q5 26 22 41.5t39 15.5z" />
    <glyph glyph-name="cent" unicode="&#xa2;" horiz-adv-x="2176" 
d="M386 -536l-20 1q-133 12 -215 94q-131 130 -131 360q0 194 98 384q71 139 196 250.5t305 171.5q143 48 320 48q46 0 95 -3q68 -5 137 -8q209 157 414 190q42 65 84 132q5 9 16 9q5 0 9 -3q9 -6 9 -16q0 -4 -3 -9l-67 -107q34 4 66 4l25 -1q135 -9 203 -58q49 -36 49 -73
q0 -14 -15 -45q-21 -41 -229 -52q-74 -4 -237 -4l-155 -264h19q164 0 190 -125q4 -17 4 -36q0 -81 -63 -208q-93 -176 -225.5 -265.5t-260.5 -89.5q-45 1 -82 9q-60 -100 -123 -201q-21 -30 -46 -30q-3 0 -18.5 1t-29.5 26q-6 11 -6 23q0 17 11 37l16 25l26 43
q-57 51 -57 157q0 83 37 182q3 140 64 286t145 244q102 117 203 197l-112 7q-47 3 -92 3q-174 0 -331.5 -52.5t-279 -161t-191.5 -244.5q-95 -184 -95 -374q0 -218 123 -341q77 -77 202 -88l21 -1q43 0 78 14q78 34 120 114q51 99 51 221q0 84 -27 154l-1 5q0 2 2.5 6.5
t9.5 4.5t10 -7q28 -75 28 -165q0 -128 -53 -230q-45 -87 -131 -124q-41 -17 -90 -17zM765 -306q40 64 62 97q-77 59 -90 163q-19 -66 -19 -121q0 -92 47 -139zM855 -165q89 137 389 593q-243 -59 -391 -248q-36 -114 -36 -205q0 -83 38 -140zM1007 -235q117 0 247.5 93
t215.5 249q60 122 60 197q0 17 -3 32q-22 106 -168 106q-19 0 -32 -1l-69 -118q-155 -271 -320 -547q35 -11 69 -11zM875 241q44 48 97 87q133 95 290 127q90 136 180 275q-86 1 -174 4q-119 -88 -244 -231q-82 -96 -149 -262zM1457 753q43 65 85 132q-113 -39 -244 -129z
M1509 752q193 0 292 9q153 16 153 75q0 30 -46 56q-55 31 -160 31q-67 0 -149 -21q-46 -75 -90 -150z" />
    <glyph glyph-name="sterling" unicode="&#xa3;" horiz-adv-x="1151" 
d="M718 -120q-77 3 -158 53q-48 29 -72 29q-42 0 -93 -29q-63 -30 -109 -30q-98 0 -129 127q-14 62 -14 133q0 111 29 225l-137 -1q-15 0 -15 15t15 15l145 1q31 94 106 199q66 93 158.5 172t196.5 107q33 8 66 8q71 0 142 -40q64 -39 101 -165l1 -5q0 -3 -3 -8.5t-12 -5.5
q-11 0 -14 10q-34 116 -89.5 148.5t-111.5 32.5q-34 0 -97 -23t-142.5 -103.5t-136 -170.5t-79.5 -152q-1 0 -1 -1t-1 -2l193 2q6 0 10.5 -4.5t4.5 -10.5q0 -15 -14 -15l-204 -2q-19 -60 -34 -149q-12 -67 -12 -129q0 -20 2.5 -70t41.5 -87q19 -17 48 -17q34 0 82 23l2 1
q63 31 101 31q35 0 87 -32l3 -2q77 -45 143 -48q65 1 107 29t60 72q15 36 15 72q0 90 -71 136q-37 24 -95 24q-85 0 -154 -51q-57 -42 -63 -107q-2 -14 -14 -14q-16 0 -16 15q8 80 75 130q79 57 172 57q67 0 112.5 -29.5t65.5 -76.5q18 -40 18 -84q0 -42 -18 -83
q-21 -52 -70 -85.5t-124 -34.5z" />
    <glyph glyph-name="currency" unicode="&#xa4;" horiz-adv-x="670" 
d="M441 207q-6 0 -12 5l-56 51q-48 -50 -116 -50t-116 50l-4 5q-75 -52 -81 -52q-5 0 -13 6q-11 9 -11 24q0 9 7 16l70 48q-15 34 -15 74q0 39 15 73l-80 45q-9 6 -9 15q0 14 13 25q6 5 13 5q6 0 90 -48q3 2 5 5q48 51 116 51q54 0 96 -33q77 56 82 56q6 0 14 -5
q12 -9 12 -24q0 -9 -8 -16l-64 -47q32 -45 32 -102q0 -43 -19 -80l62 -56q6 -6 6 -13q0 -17 -19 -25q-5 -3 -10 -3zM258 277q40 0 69.5 31t29.5 76q0 44 -29.5 75t-69.5 31q-41 0 -70 -31t-29 -75q0 -45 29 -76t70 -31z" />
    <glyph glyph-name="yen" unicode="&#xa5;" horiz-adv-x="1606" 
d="M443 -603q-83 0 -159 31.5t-115 80.5q-49 62 -49 139q0 45 17 90q30 84 104 142q-114 79 -114 172q0 30 13 59q21 48 71 82q82 57 204 57q123 0 245 -65q150 -85 198 -215q42 66 79 143l-43 -1q-24 0 -40.5 11.5t-17.5 28.5q0 17 15.5 28.5t39.5 13.5l86 1l15 30h-37
q-24 0 -40.5 11t-17.5 28q0 17 15.5 29t39.5 13l81 1l1 1q106 192 201 315q45 60 131 189q-80 -77 -181 -214q-66 -87 -132 -165q-126 -148 -203 -148q-16 0 -32 6q-112 59 -112 263q0 24 2 49q-126 -94 -272 -134q-59 -16 -118 -16q-86 0 -172 35q-125 56 -126 167
q0 111 112 201q82 68 209 89q36 6 75 6q96 0 207 -39q5 -4 5 -9t-3.5 -6.5t-7.5 -1.5q-108 39 -202 39q-37 0 -115 -13t-158 -78q-104 -86 -104 -188q0 -95 115 -152q82 -33 164 -33q191 0 393 156q11 111 49 211t95 155q42 41 90 41q64 0 64 -48q0 -46 -48 -121
q-69 -110 -187 -209q-8 -69 -8 -131q0 -49 8.5 -121t51.5 -96q13 -5 26 -5q33 0 80.5 35.5t111.5 111t128.5 160.5t120.5 151t101 94l5 1q6 0 8 -9q0 -4 -4 -7q-6 -13 -23 -40q-101 -164 -207 -376q-31 -60 -60 -114l144 3q25 0 41.5 -11.5t16.5 -30.5q0 -16 -15 -27
t-39 -12l-191 -4q-10 -16 -17 -30l143 2q24 0 40.5 -11t17.5 -28q0 -17 -15.5 -29t-39.5 -13l-192 -4q-60 -104 -135 -187q13 -52 13 -104q0 -81 -32 -159q-45 -105 -121 -167q-122 -100 -288 -100zM777 681q104 92 169 192q45 71 45 111q0 30 -41 30q-35 0 -69.5 -38
t-62.5 -119t-41 -176zM667 -187q111 38 179 140q-44 131 -194 217q-122 63 -239 63q-15 0 -71.5 -4.5t-120.5 -49.5q-77 -54 -77 -128q0 -84 112 -160q79 56 173 56q74 0 126 -25q81 -34 112 -109zM569 -202q45 0 81 10q-26 65 -102 99q-54 22 -117 22q-89 0 -159 -47
q54 -32 133 -57q92 -27 164 -27zM444 -586q72 0 150 25q147 52 223 191q50 90 50 194q0 43 -10 88q-78 -82 -184 -116q7 -22 7 -46q0 -48 -23 -99q-2 -5 -7 -5q-9 0 -9 8l1 4q20 47 20 90q0 23 -6 44q-42 -11 -91 -11q-75 0 -165 27q-86 28 -143 63q-21 -16 -39 -35
q-80 -84 -80 -186q0 -15 2 -31q6 -54 42.5 -99.5t109 -75.5t152.5 -30z" />
    <glyph glyph-name="brokenbar" unicode="&#xa6;" horiz-adv-x="326" 
d="M126 97q0 -31 -14 -52.5t-35 -21.5q-20 0 -34.5 19.5t-15.5 50.5l-7 388q0 30 13.5 51t34.5 23q21 0 35 -20t15 -50zM126 722q0 -31 -14 -52.5t-35 -21.5q-20 0 -34.5 19.5t-15.5 50.5l-7 388q0 30 13.5 51t34.5 23q21 0 35 -20t15 -50z" />
    <glyph glyph-name="section" unicode="&#xa7;" horiz-adv-x="1300" 
d="M336 -212q-75 0 -156.5 30t-125.5 100h-1q-31 56 -33 133q0 61 26 120q33 75 94 126q27 23 59 36q-14 29 -14 59q0 63 66 107q1 1 3 1q4 0 6 -2t2 -4q0 -5 -4 -7q-59 -39 -59 -94q0 -28 13 -55q32 12 66 12l22 -1q0 77 25 135q51 117 153 163q-13 27 -13 60q0 62 65 106
l3 1q8 0 8 -7q0 -4 -3 -7q-60 -39 -60 -94q0 -27 13 -54q32 12 66 12q38 0 77.5 -16.5t63.5 -47.5l4 -5q33 16 61 16q38 0 52 -25q39 17 100 58q-14 75 -14 133q8 83 63 121q41 27 78 27q58 0 58 -55q0 -4 -2 -31.5t-79 -118.5q-23 -25 -51 -51l5 -30q12 -75 12 -138
q0 -209 -124 -313q-72 -61 -161 -78q-24 -152 -109 -228q-105 -94 -255 -94zM443 244q96 15 190 85l3 2q-14 74 -14 133q2 44 23 77q-61 7 -103 35q-37 25 -57 58q-30 -13 -57 -34q-58 -49 -90 -121q-24 -56 -24 -115v-17q21 -4 41 -12q66 -30 88 -91zM432 163q6 17 6 35
l-2 22l-2 8q-22 -3 -43 -3q-20 0 -39 3q29 -40 80 -65zM396 239q16 0 33 2q-7 20 -21 36q-33 42 -93 56q8 -55 27 -88q25 -6 54 -6zM324 249q-19 39 -23 86l-16 1q-37 0 -66 -10q32 -53 105 -77zM302 -184q31 0 95.5 10t141 78t102.5 198q-121 0 -204 40q-10 -18 -27 -32
l-4 -1h-2q-5 0 -5 6q0 4 2 6q15 12 24 27q-61 33 -92 83v1q-41 11 -71 30q-41 28 -57 59q-30 -13 -56 -35q-59 -48 -90 -121q-25 -56 -25 -114q4 -166 153 -216q55 -19 115 -19zM581 130q31 0 65 5q3 27 3 57q0 57 -11 123q-92 -68 -190 -85q0 -4 2 -8q3 -12 3 -24
q0 -21 -8 -41q63 -27 136 -27zM654 554q16 20 36 33l-3 4q-22 28 -58.5 43.5t-71.5 15.5q-30 0 -59 -10q46 -76 156 -86zM679 433l1 2q38 30 38 75q0 12 -3 23q-32 -25 -37 -71zM686 372q23 22 43 44q65 77 65 113q0 24 -21 26q-21 -7 -41 -11q-2 0 -4 -2q3 -9 3 -31
q0 -54 -42 -87q-1 -1 -3 -1q-5 0 -7 2zM704 150q112 36 178 152q45 79 45 201q0 58 -10 126q-45 -33 -97 -57q2 -6 2 -13q0 -58 -83 -152q-22 -26 -51 -51q18 -88 18 -162q0 -23 -2 -44zM965 686q24 22 43 44q65 77 65 110q0 29 -26 29q-27 -1 -56.5 -26t-33.5 -68
q0 -38 8 -89z" />
    <glyph glyph-name="dieresis" unicode="&#xa8;" horiz-adv-x="420" 
d="M59 781q-4 0 -5 1q-34 6 -34 46q0 5 1 6q3 19 15.5 30.5t29.5 11.5h5q34 -8 34 -47q0 -5 -1 -6q-3 -19 -15.5 -30.5t-29.5 -11.5zM175 781q-4 0 -5 1q-34 6 -34 43v8q0 17 16 32q13 11 29 11h5q34 -8 34 -44v-8q0 -17 -16 -32q-13 -11 -29 -11z" />
    <glyph glyph-name="copyright" unicode="&#xa9;" horiz-adv-x="1208" 
d="M464 -94q-106 0 -193 53q-28 -19 -66 -19q-72 0 -119 47q-66 65 -66 182q0 99 49 194q1 3 3.5 7t5.5 10q6 59 25 118q67 187 219 276q97 57 199 57q59 0 120 -19q106 -36 173 -121q31 5 58 5q70 0 111 -30q25 -18 25 -37q0 -6 -7.5 -23t-100.5 -25q-15 0 -22 -1
q32 -82 32 -172q0 -82 -27 -170q-66 -187 -218 -275q-97 -57 -201 -57zM785 590l56 1q-17 37 -41 70q-62 -19 -134 -69h27q48 -2 92 -2zM117 437q62 79 166 125q86 38 202 38q21 0 117 -5q96 70 179 90q-60 68 -149 99q-56 17 -110 17q-96 0 -186 -53q-142 -83 -205 -259
q-8 -26 -14 -52zM202 -49q24 0 44 7l14 7q-100 68 -148 182q-36 88 -36 189v16q-45 -93 -45 -183q0 -110 63 -173q39 -39 102 -45h6zM464 -65q96 0 186 53q142 83 205 259q26 84 26 161q0 88 -34 169l-1 2l-59 -1q-45 0 -95 2l-42 1q-138 -101 -198 -249q22 24 49 44
q98 69 195 69q36 0 62 -13q37 -22 37 -68q0 -41 -32 -105q-48 -90 -114.5 -135t-131.5 -45q-122 4 -135 108q-9 -34 -10 -63q0 -61 41 -81q2 -1 3 -3q0 -2 -1 -4.5t-2.5 -2.5h-2.5h-3q-47 23 -47 92q0 43 20 92q1 70 32 144t73 124q52 59 103 99q-78 5 -101 5
q-123 0 -219.5 -47t-155.5 -131q-6 -41 -6 -80q0 -91 34 -172q46 -111 144 -174q13 14 22 31q26 48 26 111q0 43 -14 79v2q0 6 6 6q3 0 5 -4q15 -38 15 -84q0 -90 -49 -147q77 -44 169 -44zM517 91q60 0 126.5 47t108.5 126q31 61 31 99q0 9 -2 16q-11 55 -89 55
q-96 -6 -184 -68q-39 -28 -67 -65q-18 -53 -18 -99q0 -22 8 -63t86 -48zM885 592q18 1 35 3q77 7 77 38q0 15 -23 28q-27 15 -76 15q-35 0 -68 -7q26 -36 43 -77h12z" />
    <glyph glyph-name="ordfeminine" unicode="&#xaa;" horiz-adv-x="586" 
d="M187 1072q-20 0 -20 37q0 28 6 51q-24 -26 -49 -45q-42 -28 -66 -28q-11 0 -19 6q-19 16 -19 52q0 10 4 41.5t34 89.5t76 95q35 27 74 27q14 0 30 -4t23 -22q10 12 25 12q23 0 31 -19q4 -7 4 -14q-1 -9 -7 -21l-6 -12q-9 -16 -35 -69q-39 -82 -39 -108q0 -11 7 -11
q17 0 62 46q52 53 67 77q4 4 7 4q9 0 9 -9q0 -8 -56 -68q-102 -108 -143 -108zM59 1101q15 0 55 28q35 25 70 72q26 73 64 146q0 31 -17 31q-15 0 -47 -34.5t-67 -85.5q-69 -103 -69 -142q0 -15 11 -15z" />
    <glyph glyph-name="guillemotleft" unicode="&#xab;" horiz-adv-x="861" 
d="M323 74q-11 0 -21 6l-262 224q-20 13 -20 35q0 26 24 37l305 250q8 3 15 3q26 0 37 -24q3 -8 3 -16q0 -25 -25 -36l-235 -222l200 -184q19 -12 19 -32q0 -12 -7 -23q-11 -18 -33 -18zM580 74q-11 0 -22 6l-261 224q-20 13 -20 35q0 26 24 37l304 250q8 3 16 3
q26 0 36 -24q4 -9 4 -17q0 -24 -25 -35l-234 -222l199 -184q19 -12 19 -32q0 -12 -7 -23q-11 -18 -33 -18z" />
    <glyph glyph-name="logicalnot" unicode="&#xac;" horiz-adv-x="1072" 
d="M767 268q-11 -1 -24 -1l-608 -8q-48 0 -81.5 14t-33.5 35q0 20 30.5 34.5t78.5 15.5l685 22q21 0 35 -15t15 -38l8 -293q0 -23 -14 -39.5t-35 -16.5q-20 0 -34.5 15t-15.5 38z" />
    <glyph glyph-name="registered" unicode="&#xae;" horiz-adv-x="1055" 
d="M409 -90q-59 0 -120 19q-165 60 -233 223q-36 87 -36 181q0 82 27 170q67 187 218 276q97 57 201 57q59 0 120 -19q164 -61 233 -223q36 -87 36 -181q0 -82 -27 -170q-68 -187 -219 -276q-97 -57 -200 -57zM110 112q15 28 44 101q15 39 24 58l2 4q-25 9 -50 26
q-28 -93 -32 -168zM274 274q82 3 169.5 37t152.5 93q87 77 87 172q0 104 -128 104q-92 0 -181 -49q-151 -88 -224 -275q27 -8 56 -28q62 123 154 237l3 2q2 0 3.5 -1.5t1.5 -3.5v-1q0 -1 -1 -2q-43 -57 -120 -231l-10 -23q18 -14 37 -31zM185 285l8 18q-28 23 -49 36
l-10 -29q25 -17 51 -25zM125 317l10 26q-11 5 -19 5q-10 0 -10 -5q0 -9 19 -26zM408 -60q96 0 186 53q142 83 205 259q26 84 26 161q0 88 -34 169q-63 151 -215 207q-56 17 -110 17q-95 0 -185 -53q-142 -83 -206 -259q-26 -83 -26 -159q0 -90 35 -171l5 -13l1 4
q4 62 32 152q-26 21 -26 37t29 16l15 -2q32 81 87 156q107 144 303 186q33 7 62 7q131 0 131 -123q0 -115 -90 -196q-67 -62 -159 -96t-182 -34q63 -63 139 -120t146 -57q93 0 126 92q1 3 7 3q3 -2 3 -5v-2q-37 -98 -136 -98q-11 0 -22 2q-86 13 -166.5 70.5t-146.5 117.5
q-12 1 -23 3l-8 -15q-43 -89 -93 -149q65 -102 181 -143q55 -17 109 -17z" />
    <glyph glyph-name="macron" unicode="&#xaf;" horiz-adv-x="751" 
d="M477 753q31 0 52.5 -14t21.5 -35q0 -20 -19.5 -34.5t-49.5 -15.5l-388 -7q-31 0 -51.5 13.5t-22.5 34.5q0 21 19.5 35t50.5 15z" />
    <glyph glyph-name="degree" unicode="&#xb0;" horiz-adv-x="437" 
d="M129 634q-45 0 -77 34t-32 82t32 82t77 34q46 0 77.5 -34t31.5 -82t-31.5 -82t-77.5 -34zM129 664q33 0 56 25t23 61t-23 61t-56 25t-56 -25t-23 -61t23 -61t56 -25z" />
    <glyph glyph-name="plusminus" unicode="&#xb1;" horiz-adv-x="739" 
d="M236 347q-12 0 -24 6q-26 15 -26 44q0 12 7 24l79 145l-105 1q-15 0 -15 15q0 14 15 14l122 -1l110 202q15 26 43 26q12 0 25 -6q25 -15 25 -44q0 -12 -6 -24l-85 -154l123 -1q6 0 10.5 -4.5t4.5 -10.5t-4.5 -10.5t-10.5 -4.5l-139 1l-105 -192q-16 -26 -44 -26zM71 197
q-21 0 -35.5 13.5t-15.5 34.5q0 21 13.5 35.5t34.5 15.5l268 7q21 0 35.5 -13.5t15.5 -34.5q0 -21 -13.5 -35.5t-34.5 -15.5z" />
    <glyph glyph-name="uni00B2" unicode="&#xb2;" horiz-adv-x="668" 
d="M131 430q-47 0 -92 9q-19 4 -19 11t9 16q39 51 94.5 85t113 61t102.5 56t66 69q20 44 20 75q0 20 -16 46q-17 28 -72 28q-43 0 -82.5 -25.5t-45.5 -78.5v-3q0 -8 2 -14q7 -18 30 -20q8 0 8 -9q0 -8 -8 -8q-20 2 -32 12q-16 14 -16 40v3q4 53 40 83q45 37 108 37
q34 0 70 -15.5t51 -57.5q6 -15 6 -33q0 -34 -19 -79q-30 -60 -100 -100.5t-148 -71.5q-51 -22 -94 -44t-65 -47q41 -9 89 -9q18 0 52 2t76 19.5t63 56.5q2 5 7 5q2 0 4 -1q5 -2 5 -7q0 -2 -1 -4q-47 -87 -206 -87z" />
    <glyph glyph-name="uni00B3" unicode="&#xb3;" horiz-adv-x="644" 
d="M146 405q-10 0 -45 6t-64 49q-17 26 -17 54q0 20 14 54.5t98 63.5q23 7 45 7q38 0 61 -24q19 -20 19 -62v-2q0 -8 -8 -8q-8 1 -8 8v2q0 70 -65 70q-19 0 -39 -7q-102 -34 -102 -103q0 -22 18 -49q21 -31 76 -31q50 0 112 52q41 36 57 82q6 17 6 33q0 28 -22.5 60
t-108.5 49q-8 1 -8 7q0 8 12 12l2 1q45 17 118 58t116 70q-30 2 -55 4.5t-48 2.5t-55 -5t-79 -45q-2 -3 -4 -3q-5 0 -7 2.5t-2 6.5q0 3 3 5q50 45 96 52q23 4 49 4q23 0 49 -4q34 -4 76 -4q8 -1 8 -8q0 -3 -4 -7q-53 -60 -106 -89.5t-125 -49.5q142 -33 142 -129
q0 -79 -86 -141q-65 -44 -119 -44z" />
    <glyph glyph-name="acute" unicode="&#xb4;" horiz-adv-x="439" 
d="M239 567q-15 0 -74.5 31t-103.5 72q-41 37 -41 70q0 21 19 40q24 20 48 20q36 0 75 -52t58 -109t19 -72z" />
    <glyph glyph-name="mu" unicode="&#xb5;" horiz-adv-x="1719" 
d="M66 -341h-3q-22 0 -35 18q-8 10 -8 24q0 11 6 25q162 335 322 647q181 353 326 654q3 9 12 9q4 0 8.5 -2.5t5.5 -6t1 -6.5t-1 -7q-55 -115 -106 -228l3 1q4 0 4 -7q0 -13 -20 -54q-71 -135 -121.5 -253t-87.5 -250q-11 -41 -11 -71q0 -40 20 -60q17 -16 43 -16t78.5 25
t136.5 129q32 104 111.5 234.5t190 252t236.5 199.5t252 78q45 -2 67.5 -26t22.5 -61q0 -87 -124 -190q-74 -57 -164 -79q-34 -8 -65 -8q-45 0 -86 16q-6 3 -6 8q0 9 8 9l4 -1q38 -15 80 -15q30 0 61 8q86 21 157 76q117 96 117 177q0 64 -73 68q-83 0 -191 -75.5
t-218 -192.5t-200 -242t-138 -224q-36 -74 -36 -116q0 -43 36 -43q31 0 90 29q51 28 78 71l3 4q2 4 7 4q2 0 5.5 -2t3.5 -6q0 -2 -0.5 -3.5t-1.5 -3t-2 -2.5q-30 -48 -85 -78q-62 -30 -99 -30q-22 0 -35 11q-24 20 -24 63q0 22 7 50q-113 -120 -213 -120q-83 0 -102 74
q-98 -224 -208 -456q-16 -29 -39 -29z" />
    <glyph glyph-name="paragraph" unicode="&#xb6;" horiz-adv-x="775" 
d="M367 -191l-6 1q-22 7 -22 34q0 5 170 840l-257 75l-173 -849q-7 -32 -30 -32l-6 1q-22 7 -22 36q0 6 108 531q-39 18 -63 47q-46 57 -46 136q0 73 33.5 136.5t92.5 90.5q24 10 50 10q57 0 70 -30l287 -83q12 -3 18 -17q4 -9 4 -19q0 -5 -178 -877q-8 -31 -30 -31z" />
    <glyph glyph-name="periodcentered" unicode="&#xb7;" horiz-adv-x="305" 
d="M61 359h-5q-16 0 -28 18q-8 13 -8 28v6l1 1q3 19 15.5 30.5t29.5 11.5h3l2 -1q17 -3 25.5 -16t8.5 -28v-9q-9 -41 -44 -41z" />
    <glyph glyph-name="periodcentered" unicode="&#x2219;" horiz-adv-x="305" 
d="M61 359h-5q-16 0 -28 18q-8 13 -8 28v6l1 1q3 19 15.5 30.5t29.5 11.5h3l2 -1q17 -3 25.5 -16t8.5 -28v-9q-9 -41 -44 -41z" />
    <glyph glyph-name="cedilla" unicode="&#xb8;" horiz-adv-x="354" 
d="M56 -281h-5q-7 0 -15.5 5t-8.5 18q0 21 20 25q41 9 54 30q4 6 4 12q0 24 -62 29q-23 2 -23 26q2 23 12 45q9 18 9.5 29.5t7.5 18.5t17 7q11 0 18 -7t7 -18q-3 -29 -16 -55q79 -19 79 -78q0 -18 -12 -36q-23 -38 -86 -51z" />
    <glyph glyph-name="uni00B9" unicode="&#xb9;" horiz-adv-x="523" 
d="M42 419q-1 0 -6 1.5t-10.5 5.5t-5.5 9v2q59 125 94 195t67.5 118t83.5 109q-107 -103 -157 -168q-3 -4 -7 -4q-7 0 -8 9q0 2 2 4q51 67 176 187q34 33 44 33q7 0 7 -11q0 -12 -7 -24l-7 -11q-141 -206 -259 -451q-2 -4 -7 -4z" />
    <glyph glyph-name="ordmasculine" unicode="&#xba;" horiz-adv-x="632" 
d="M145 417q-18 0 -35 6q-90 36 -90 139q0 44 21.5 107.5t75 131t120.5 101.5q40 20 80 20q26 0 53 -9q62 -28 62 -116q0 -91 -55 -185q-114 -195 -232 -195zM145 433q41 0 92 35q62 44 126 152q52 92 52 177q0 71 -41 97q-15 7 -31 7q-31 0 -75.5 -31.5t-93 -95.5
t-78.5 -133.5t-30 -123.5q0 -2 1 -30.5t49 -48.5q14 -5 29 -5z" />
    <glyph glyph-name="guillemotright" unicode="&#xbb;" horiz-adv-x="861" 
d="M100 74q-22 0 -33 18q-6 10 -6 21q0 22 18 34l200 184l-235 222q-24 11 -24 36q0 8 3 16q11 24 36 24q8 0 16 -3l304 -250q24 -11 24 -37q0 -23 -20 -35l-261 -224q-11 -6 -22 -6zM358 74q-22 0 -33 18q-6 10 -6 21q0 22 18 34l200 184l-235 222q-24 11 -24 36q0 8 3 16
q11 24 36 24q8 0 16 -3l304 -250q24 -11 24 -37q0 -23 -20 -35l-261 -224q-11 -6 -22 -6z" />
    <glyph glyph-name="questiondown" unicode="&#xbf;" horiz-adv-x="841" 
d="M540 699q68 0 68 -48q0 -22 -22.5 -60.5t-79.5 -80.5l-67 -47q-96 -64 -186 -139q-130 -108 -130 -204q0 -103 164 -103q68 0 138 34t115.5 98.5t45.5 118.5q0 3 -0.5 32t-60.5 38l-9 1q-31 0 -65 -30q-5 -4 -11 -4q-15 0 -15 14q0 8 6 12q44 38 86 38l12 -1
q85 -13 85 -97q0 -56 -44 -129.5t-139 -131.5t-226 -58q-104 0 -157 64q-28 34 -28 87q0 45 20 105q32 86 95 143.5t137.5 96t144.5 66.5q34 14 64 28q49 24 78 56q21 24 21 43q0 28 -46 28q-13 0 -30 -2h-3q-5 0 -10 3.5t-5 11.5q0 5 4 9q7 8 50 8zM581 880
q25 0 42.5 -16.5t17.5 -40.5q0 -23 -17.5 -39.5t-42.5 -16.5q-24 0 -41.5 16.5t-17.5 39.5q0 24 17.5 40.5t41.5 16.5z" />
    <glyph glyph-name="Agrave" unicode="&#xc0;" horiz-adv-x="2790" 
d="M2985 -756q-95 0 -198 25q-492 133 -508 598v43q0 351 210 821q-132 8 -260 8q-159 -155 -333 -299.5t-353 -252.5t-351 -154q-89 -23 -174 -23q-242 0 -350 162q-328 0 -512 194q-139 148 -155 374q-1 19 -1 39q0 188 112 405q97 176 247 282q254 179 585 179
q40 0 80 -3q195 -16 339 -91q159 79 307 79q127 0 217 -62q32 -21 57 -50q77 -87 77 -219q0 -247 -275 -554q243 24 472 24q169 174 373.5 406t362.5 431q19 30 48 30q21 0 39 -12q25 -18 25 -46q0 -15 -9 -31q-261 -445 -432 -797q114 -12 231 -30q12 -4 12 -15
q0 -15 -14 -15h-3q-121 20 -240 31q-258 -527 -258 -878q0 -180 93.5 -328t347.5 -217q99 -24 191 -24q113 0 256 50.5t272 188.5q107 114 163 251q50 121 50 239q0 128 -65 228q-58 89 -174 142q-9 5 -9 14q0 3 2 7t6 6t6 2q4 0 7 -2q125 -57 187 -153q70 -108 70 -243
q0 -124 -52 -251q-58 -142 -170 -261q-134 -143 -325 -210q-106 -38 -224 -38zM2502 760q119 264 302 585l-123 -134q-171 -190 -422 -442q120 -1 243 -9zM1083 60q44 0 146.5 19t276.5 119t348 242.5t334 298.5q-217 0 -473 -26q-45 -47 -97 -94q-402 -364 -798 -431
q-11 -3 -23 -4q37 -47 88 -75q91 -49 198 -49zM778 211q19 2 37 6q385 65 783 424q37 34 70 67q-143 -15 -283 -35h-2q-13 0 -15 13q0 14 13 16q158 23 320 39q290 310 290 556q0 21 -7 79.5t-63 122.5q-89 102 -251 102q-132 0 -275 -67q84 -49 140 -117q78 -95 78 -216
q0 -103 -70 -222q-4 -7 -11 -7q-4 0 -10 3t-6 11q0 4 2 8q65 111 65 207q0 8 -3.5 63.5t-67.5 134.5q-58 70 -149 119q-139 -74 -277 -230t-239 -351.5t-127 -387.5q-6 -46 -6 -90q0 -137 64 -248zM651 202q-59 123 -59 257q0 57 23.5 185t139.5 316.5t270 339.5t305 234
l-21 10q-167 71 -366 71q-126 0 -274 -36t-292.5 -137.5t-238.5 -271.5q-108 -209 -108 -389q0 -20 1 -39q15 -215 147 -355q82 -88 203 -136.5t270 -48.5zM3109 1820q-14 0 -74 31q-56 28 -105 72q-41 39 -41 70q0 21 19 40q25 20 48 20q37 0 74.5 -50t59.5 -111
q19 -56 19 -72z" />
    <glyph glyph-name="Aacute" unicode="&#xc1;" 
d="M2985 -756q-95 0 -198 25q-492 133 -508 598v43q0 351 210 821q-132 8 -260 8q-159 -155 -333 -299.5t-353 -252.5t-351 -154q-89 -23 -174 -23q-242 0 -350 162q-328 0 -512 194q-139 148 -155 374q-1 19 -1 39q0 188 112 405q97 176 247 282q254 179 585 179
q40 0 80 -3q195 -16 339 -91q159 79 307 79q127 0 217 -62q32 -21 57 -50q77 -87 77 -219q0 -247 -275 -554q243 24 472 24q169 174 373.5 406t362.5 431q19 30 48 30q21 0 39 -12q25 -18 25 -46q0 -15 -9 -31q-261 -445 -432 -797q114 -12 231 -30q12 -4 12 -15
q0 -15 -14 -15h-3q-121 20 -240 31q-258 -527 -258 -878q0 -180 93.5 -328t347.5 -217q99 -24 191 -24q113 0 256 50.5t272 188.5q107 114 163 251q50 121 50 239q0 128 -65 228q-58 89 -174 142q-9 5 -9 14q0 3 2 7t6 6t6 2q4 0 7 -2q125 -57 187 -153q70 -108 70 -243
q0 -124 -52 -251q-58 -142 -170 -261q-134 -143 -325 -210q-106 -38 -224 -38zM2502 760q119 264 302 585l-123 -134q-171 -190 -422 -442q120 -1 243 -9zM1083 60q44 0 146.5 19t276.5 119t348 242.5t334 298.5q-217 0 -473 -26q-45 -47 -97 -94q-402 -364 -798 -431
q-11 -3 -23 -4q37 -47 88 -75q91 -49 198 -49zM778 211q19 2 37 6q385 65 783 424q37 34 70 67q-143 -15 -283 -35h-2q-13 0 -15 13q0 14 13 16q158 23 320 39q290 310 290 556q0 21 -7 79.5t-63 122.5q-89 102 -251 102q-132 0 -275 -67q84 -49 140 -117q78 -95 78 -216
q0 -103 -70 -222q-4 -7 -11 -7q-4 0 -10 3t-6 11q0 4 2 8q65 111 65 207q0 8 -3.5 63.5t-67.5 134.5q-58 70 -149 119q-139 -74 -277 -230t-239 -351.5t-127 -387.5q-6 -46 -6 -90q0 -137 64 -248zM651 202q-59 123 -59 257q0 57 23.5 185t139.5 316.5t270 339.5t305 234
l-21 10q-167 71 -366 71q-126 0 -274 -36t-292.5 -137.5t-238.5 -271.5q-108 -209 -108 -389q0 -20 1 -39q15 -215 147 -355q82 -88 203 -136.5t270 -48.5zM3003 1779q0 16 20 72q21 61 59 111t74 50q24 0 48 -20q19 -19 19 -40q0 -31 -41 -70q-49 -44 -104 -72
q-60 -31 -75 -31z" />
    <glyph glyph-name="Acircumflex" unicode="&#xc2;" 
d="M2985 -756q-95 0 -198 25q-492 133 -508 598v43q0 351 210 821q-132 8 -260 8q-159 -155 -333 -299.5t-353 -252.5t-351 -154q-89 -23 -174 -23q-242 0 -350 162q-328 0 -512 194q-139 148 -155 374q-1 19 -1 39q0 188 112 405q97 176 247 282q254 179 585 179
q40 0 80 -3q195 -16 339 -91q159 79 307 79q127 0 217 -62q32 -21 57 -50q77 -87 77 -219q0 -247 -275 -554q243 24 472 24q169 174 373.5 406t362.5 431q19 30 48 30q21 0 39 -12q25 -18 25 -46q0 -15 -9 -31q-261 -445 -432 -797q114 -12 231 -30q12 -4 12 -15
q0 -15 -14 -15h-3q-121 20 -240 31q-258 -527 -258 -878q0 -180 93.5 -328t347.5 -217q99 -24 191 -24q113 0 256 50.5t272 188.5q107 114 163 251q50 121 50 239q0 128 -65 228q-58 89 -174 142q-9 5 -9 14q0 3 2 7t6 6t6 2q4 0 7 -2q125 -57 187 -153q70 -108 70 -243
q0 -124 -52 -251q-58 -142 -170 -261q-134 -143 -325 -210q-106 -38 -224 -38zM2502 760q119 264 302 585l-123 -134q-171 -190 -422 -442q120 -1 243 -9zM1083 60q44 0 146.5 19t276.5 119t348 242.5t334 298.5q-217 0 -473 -26q-45 -47 -97 -94q-402 -364 -798 -431
q-11 -3 -23 -4q37 -47 88 -75q91 -49 198 -49zM778 211q19 2 37 6q385 65 783 424q37 34 70 67q-143 -15 -283 -35h-2q-13 0 -15 13q0 14 13 16q158 23 320 39q290 310 290 556q0 21 -7 79.5t-63 122.5q-89 102 -251 102q-132 0 -275 -67q84 -49 140 -117q78 -95 78 -216
q0 -103 -70 -222q-4 -7 -11 -7q-4 0 -10 3t-6 11q0 4 2 8q65 111 65 207q0 8 -3.5 63.5t-67.5 134.5q-58 70 -149 119q-139 -74 -277 -230t-239 -351.5t-127 -387.5q-6 -46 -6 -90q0 -137 64 -248zM651 202q-59 123 -59 257q0 57 23.5 185t139.5 316.5t270 339.5t305 234
l-21 10q-167 71 -366 71q-126 0 -274 -36t-292.5 -137.5t-238.5 -271.5q-108 -209 -108 -389q0 -20 1 -39q15 -215 147 -355q82 -88 203 -136.5t270 -48.5zM3121 1707q-18 0 -23 17l-45 138l-98 -126q-7 -9 -20 -9q-8 0 -14 5q-10 8 -10 19q0 8 5 16l127 163q9 10 20 10
q19 0 24 -19q60 -186 60 -190q0 -6 -4 -13q-6 -11 -22 -11z" />
    <glyph glyph-name="Atilde" unicode="&#xc3;" 
d="M2985 -756q-95 0 -198 25q-492 133 -508 598v43q0 351 210 821q-132 8 -260 8q-159 -155 -333 -299.5t-353 -252.5t-351 -154q-89 -23 -174 -23q-242 0 -350 162q-328 0 -512 194q-139 148 -155 374q-1 19 -1 39q0 188 112 405q97 176 247 282q254 179 585 179
q40 0 80 -3q195 -16 339 -91q159 79 307 79q127 0 217 -62q32 -21 57 -50q77 -87 77 -219q0 -247 -275 -554q243 24 472 24q169 174 373.5 406t362.5 431q19 30 48 30q21 0 39 -12q25 -18 25 -46q0 -15 -9 -31q-261 -445 -432 -797q114 -12 231 -30q12 -4 12 -15
q0 -15 -14 -15h-3q-121 20 -240 31q-258 -527 -258 -878q0 -180 93.5 -328t347.5 -217q99 -24 191 -24q113 0 256 50.5t272 188.5q107 114 163 251q50 121 50 239q0 128 -65 228q-58 89 -174 142q-9 5 -9 14q0 3 2 7t6 6t6 2q4 0 7 -2q125 -57 187 -153q70 -108 70 -243
q0 -124 -52 -251q-58 -142 -170 -261q-134 -143 -325 -210q-106 -38 -224 -38zM2502 760q119 264 302 585l-123 -134q-171 -190 -422 -442q120 -1 243 -9zM1083 60q44 0 146.5 19t276.5 119t348 242.5t334 298.5q-217 0 -473 -26q-45 -47 -97 -94q-402 -364 -798 -431
q-11 -3 -23 -4q37 -47 88 -75q91 -49 198 -49zM778 211q19 2 37 6q385 65 783 424q37 34 70 67q-143 -15 -283 -35h-2q-13 0 -15 13q0 14 13 16q158 23 320 39q290 310 290 556q0 21 -7 79.5t-63 122.5q-89 102 -251 102q-132 0 -275 -67q84 -49 140 -117q78 -95 78 -216
q0 -103 -70 -222q-4 -7 -11 -7q-4 0 -10 3t-6 11q0 4 2 8q65 111 65 207q0 8 -3.5 63.5t-67.5 134.5q-58 70 -149 119q-139 -74 -277 -230t-239 -351.5t-127 -387.5q-6 -46 -6 -90q0 -137 64 -248zM651 202q-59 123 -59 257q0 57 23.5 185t139.5 316.5t270 339.5t305 234
l-21 10q-167 71 -366 71q-126 0 -274 -36t-292.5 -137.5t-238.5 -271.5q-108 -209 -108 -389q0 -20 1 -39q15 -215 147 -355q82 -88 203 -136.5t270 -48.5zM2873 1740q-42 0 -80 27t-42 143q0 15 14 15q15 0 15 -15q5 -83 114 -83q77 0 167 41q94 37 162 37q42 0 83.5 -21
t58.5 -102v-2q0 -15 -15 -15q-11 0 -14 12q-10 40 -57 49q-22 4 -45 4q-27 0 -67.5 -7t-69.5 -18q-4 -2 -9 -3q-147 -62 -215 -62z" />
    <glyph glyph-name="Adieresis" unicode="&#xc4;" 
d="M2985 -756q-95 0 -198 25q-492 133 -508 598v43q0 351 210 821q-132 8 -260 8q-159 -155 -333 -299.5t-353 -252.5t-351 -154q-89 -23 -174 -23q-242 0 -350 162q-328 0 -512 194q-139 148 -155 374q-1 19 -1 39q0 188 112 405q97 176 247 282q254 179 585 179
q40 0 80 -3q195 -16 339 -91q159 79 307 79q127 0 217 -62q32 -21 57 -50q77 -87 77 -219q0 -247 -275 -554q243 24 472 24q169 174 373.5 406t362.5 431q19 30 48 30q21 0 39 -12q25 -18 25 -46q0 -15 -9 -31q-261 -445 -432 -797q114 -12 231 -30q12 -4 12 -15
q0 -15 -14 -15h-3q-121 20 -240 31q-258 -527 -258 -878q0 -180 93.5 -328t347.5 -217q99 -24 191 -24q113 0 256 50.5t272 188.5q107 114 163 251q50 121 50 239q0 128 -65 228q-58 89 -174 142q-9 5 -9 14q0 3 2 7t6 6t6 2q4 0 7 -2q125 -57 187 -153q70 -108 70 -243
q0 -124 -52 -251q-58 -142 -170 -261q-134 -143 -325 -210q-106 -38 -224 -38zM2502 760q119 264 302 585l-123 -134q-171 -190 -422 -442q120 -1 243 -9zM1083 60q44 0 146.5 19t276.5 119t348 242.5t334 298.5q-217 0 -473 -26q-45 -47 -97 -94q-402 -364 -798 -431
q-11 -3 -23 -4q37 -47 88 -75q91 -49 198 -49zM778 211q19 2 37 6q385 65 783 424q37 34 70 67q-143 -15 -283 -35h-2q-13 0 -15 13q0 14 13 16q158 23 320 39q290 310 290 556q0 21 -7 79.5t-63 122.5q-89 102 -251 102q-132 0 -275 -67q84 -49 140 -117q78 -95 78 -216
q0 -103 -70 -222q-4 -7 -11 -7q-4 0 -10 3t-6 11q0 4 2 8q65 111 65 207q0 8 -3.5 63.5t-67.5 134.5q-58 70 -149 119q-139 -74 -277 -230t-239 -351.5t-127 -387.5q-6 -46 -6 -90q0 -137 64 -248zM651 202q-59 123 -59 257q0 57 23.5 185t139.5 316.5t270 339.5t305 234
l-21 10q-167 71 -366 71q-126 0 -274 -36t-292.5 -137.5t-238.5 -271.5q-108 -209 -108 -389q0 -20 1 -39q15 -215 147 -355q82 -88 203 -136.5t270 -48.5zM2996 1740q-4 0 -5 1q-34 6 -34 46q0 5 1 6q3 19 15.5 30.5t29.5 11.5h5q34 -8 34 -47q0 -5 -1 -6
q-3 -19 -15.5 -30.5t-29.5 -11.5zM3112 1740q-4 0 -5 1q-34 6 -34 43v8q0 17 16 32q13 11 29 11h5q35 -8 35 -44l-1 -8q0 -17 -16 -32q-13 -11 -29 -11z" />
    <glyph glyph-name="Aring" unicode="&#xc5;" horiz-adv-x="2787" 
d="M2985 -756q-95 0 -198 25q-492 133 -508 598v43q0 351 210 821q-132 8 -260 8q-159 -155 -333 -299.5t-353 -252.5t-351 -154q-89 -23 -174 -23q-242 0 -350 162q-328 0 -512 194q-139 148 -155 374q-1 19 -1 39q0 188 112 405q97 176 247 282q254 179 585 179
q40 0 80 -3q195 -16 339 -91q159 79 307 79q127 0 217 -62q32 -21 57 -50q77 -87 77 -219q0 -247 -275 -554q243 24 472 24q169 174 373.5 406t362.5 431q19 30 48 30q21 0 39 -12q25 -18 25 -46q0 -15 -9 -31q-261 -445 -432 -797q114 -12 231 -30q12 -4 12 -15
q0 -15 -14 -15h-3q-121 20 -240 31q-258 -527 -258 -878q0 -180 93.5 -328t347.5 -217q99 -24 191 -24q113 0 256 50.5t272 188.5q107 114 163 251q50 121 50 239q0 128 -65 228q-58 89 -174 142q-9 5 -9 14q0 3 2 7t6 6t6 2q4 0 7 -2q125 -57 187 -153q70 -108 70 -243
q0 -124 -52 -251q-58 -142 -170 -261q-134 -143 -325 -210q-106 -38 -224 -38zM2502 760q119 264 302 585l-123 -134q-171 -190 -422 -442q120 -1 243 -9zM1083 60q44 0 146.5 19t276.5 119t348 242.5t334 298.5q-217 0 -473 -26q-45 -47 -97 -94q-402 -364 -798 -431
q-11 -3 -23 -4q37 -47 88 -75q91 -49 198 -49zM778 211q19 2 37 6q385 65 783 424q37 34 70 67q-143 -15 -283 -35h-2q-13 0 -15 13q0 14 13 16q158 23 320 39q290 310 290 556q0 21 -7 79.5t-63 122.5q-89 102 -251 102q-132 0 -275 -67q84 -49 140 -117q78 -95 78 -216
q0 -103 -70 -222q-4 -7 -11 -7q-4 0 -10 3t-6 11q0 4 2 8q65 111 65 207q0 8 -3.5 63.5t-67.5 134.5q-58 70 -149 119q-139 -74 -277 -230t-239 -351.5t-127 -387.5q-6 -46 -6 -90q0 -137 64 -248zM651 202q-59 123 -59 257q0 57 23.5 185t139.5 316.5t270 339.5t305 234
l-21 10q-167 71 -366 71q-126 0 -274 -36t-292.5 -137.5t-238.5 -271.5q-108 -209 -108 -389q0 -20 1 -39q15 -215 147 -355q82 -88 203 -136.5t270 -48.5zM3074 1674q-45 0 -77 34t-32 82t32 82t77 34t77 -34t32 -82t-32 -82t-77 -34zM3074 1704q32 0 55.5 25t23.5 61
t-23.5 61t-55.5 25q-33 0 -56 -25t-23 -61t23 -61t56 -25z" />
    <glyph glyph-name="AE" unicode="&#xc6;" horiz-adv-x="4484" 
d="M2502 760q119 264 302 585l-124 -134q-171 -190 -421 -442q120 -1 243 -9zM4355 1261q46 0 83 24q56 35 56 102v2q-13 116 -101 174q-82 53 -184 53q-7 0 -65.5 -2t-138.5 -68q-62 -57 -85 -148q83 31 138 53l7 3q64 28 78 28q13 0 16 -14q21 -86 59 -133q58 -74 137 -74
zM651 202q-59 123 -59 257q0 57 23.5 185t139.5 316.5t270 339.5t305 234l-21 10q-167 71 -367 71q-125 0 -273 -36t-292.5 -137.5t-238.5 -271.5q-108 -209 -108 -389q0 -20 1 -39q15 -215 147 -355q82 -88 203 -136.5t270 -48.5zM778 211q19 2 37 6q385 65 783 424
q37 34 70 67q-143 -15 -283 -35h-2q-13 0 -15 13q0 14 13 16q158 23 320 39q290 310 290 556q0 21 -7 79.5t-63 122.5q-89 102 -252 102q-131 0 -274 -67q84 -49 140 -117q78 -95 78 -216q0 -103 -70 -222q-4 -7 -12 -7q-3 0 -9 3t-6 11q0 4 2 8q64 111 64 207q0 8 -3 63.5
t-67 134.5q-58 70 -149 119q-139 -74 -277 -230t-239 -351.5t-127 -387.5q-7 -46 -7 -90q0 -137 65 -248zM1082 60q44 0 147 19t277 119t348 242.5t334 298.5q-217 0 -473 -26q-45 -47 -97 -94q-402 -364 -798 -431q-11 -3 -23 -4q37 -47 88 -75q91 -49 197 -49zM3750 83
q61 -12 125 -12h72q69 1 191.5 63.5t202.5 193.5q47 80 47 151q0 62 -39 102q-43 43 -134 43q-122 0 -336 -104q-83 -44 -179 -99l-4 -2q-57 -33 -115 -65q65 -46 105 -107q49 -75 64 -164zM3718 91q-15 76 -57 140q-40 62 -109 107q-59 -32 -119 -62q73 -100 192 -152
q45 -21 93 -33zM3755 39q1 -17 1 -35q0 -124 -52 -251q-58 -142 -170 -261q-134 -143 -325 -210q-106 -38 -224 -38q-95 0 -198 25q-492 133 -508 598l-1 43q0 351 211 821q-132 8 -260 8q-159 -155 -333 -299.5t-353 -252.5t-351 -154q-89 -23 -174 -23q-242 0 -350 162
q-328 0 -512 194q-139 148 -155 374q-1 19 -1 39q0 188 112 405q97 176 247 282q254 179 585 179q40 0 80 -3q195 -16 339 -91q159 79 307 79q127 0 217 -62q32 -21 57 -50q77 -87 77 -219q0 -247 -275 -554q243 24 472 24q169 174 374 406q135 154 250 293q-1 1 -2 3
q-155 127 -274 369q-2 4 -2 7q0 14 15 14q9 0 14 -8q112 -229 268 -362q48 59 93 115q19 30 48 30q21 0 39 -12q25 -18 25 -46q0 -15 -9 -31q-41 -70 -80 -138q93 -53 199 -79q123 -30 243 -30q180 0 378 59v13q0 128 112 248q94 91 215 91q87 0 175.5 -42.5t152 -118.5
t71.5 -158v-6q0 -82 -69 -126q-43 -29 -98 -29q-32 0 -66 12q-113 41 -156 206q-16 -5 -46 -17q-40 -20 -176 -68q-8 -45 -8 -90q0 -163 82 -269q3 -4 3 -9q0 -15 -15 -15h-2q-39 6 -78 6q-86 0 -191 -34t-198 -119q-144 -133 -144 -332q0 -27 7.5 -80.5t47.5 -120.5
q54 27 106 54q-17 10 -35 18q-9 5 -9 14q0 3 2 7t5.5 6t6.5 2t7 -2q29 -13 54 -28q60 33 118 67q65 39 195 107q220 108 349 108q101 0 155 -52q48 -48 48 -122q0 -79 -51 -167q-87 -141 -219 -209t-281 -71h-16q-49 0 -96 6zM3724 44q-74 13 -146 41q-133 52 -228 153
q-54 -22 -106 -39q-111 -37 -214 -37q-19 0 -87.5 5t-165.5 92t-160 280l-1 5q0 14 15 14q11 0 14 -10q60 -182 151 -264q101 -91 240 -91q130 0 293 69q-65 80 -90 183q-12 48 -12 101q0 281 259 404q149 72 338 72q56 0 116 -6q-124 162 -141 312q-138 -40 -302 -55
q-41 -3 -82 -3q-124 0 -272 37q-90 21 -181 76q-198 -347 -337 -633q114 -12 231 -30q12 -4 12 -15q0 -15 -15 -15h-2q-121 20 -240 31q-258 -527 -258 -878q0 -180 93.5 -328t347.5 -217q99 -24 191 -24q113 0 256 50.5t272 188.5q107 114 163 251q50 121 50 239
q0 21 -2 41z" />
    <glyph glyph-name="Ccedilla" unicode="&#xc7;" horiz-adv-x="2005" 
d="M475 -367l-30 1q-171 15 -276.5 120t-145.5 267q-23 93 -23 193q0 253 126 496q92 179 252.5 322.5t391.5 220.5q183 62 413 62q59 0 121 -4l176 -11q347 257 674 257l36 -1q174 -12 261 -75q63 -45 63 -93q0 -17 -19.5 -58.5t-202.5 -60.5q-41 -4 -91 -6
q-135 -6 -251 -6q-113 0 -239 4q-53 0 -107 3q-153 -113 -314 -297q-104 -123 -190 -336q56 61 124 112q231 162 485 176h10q91 0 157 -35q72 -39 90 -127q4 -21 4 -46q0 -103 -80 -266q-118 -224 -284.5 -339t-328.5 -118q-2 -25 -13 -47l-2 -7q79 -18 79 -74
q0 -20 -12 -39q-24 -38 -87 -51l-6 -1q-7 0 -15.5 5.5t-8.5 18.5q0 21 21 25q41 9 54 30q4 6 4 11q0 23 -62 30q-23 2 -23 25q2 23 12 45q8 17 10 30q-273 24 -306 272q-25 -81 -25 -155q0 -97 45 -160q22 -31 58 -49q7 -5 7 -13q0 -3 -2 -7.5t-6 -6t-7 -1.5l-6 1
q-42 21 -68 58q-50 70 -50 174q0 110 48 236q3 179 81.5 366.5t186.5 314.5q131 150 261 253q-73 4 -143 9q-60 4 -117 4q-225 0 -427.5 -67.5t-359 -207t-246.5 -314.5q-122 -236 -122 -479q0 -284 158 -440q100 -99 260 -114l24 -1q57 0 103 19q101 44 154 147
q64 123 64 282q0 109 -33 199l-1 6q0 15 14 15q10 0 14 -10q36 -96 36 -212q0 -163 -67 -295q-59 -112 -170 -160q-50 -20 -111 -20zM1271 19q149 0 316.5 119t276.5 320q77 157 77 253q0 22 -4 41q-30 137 -218 137h-10q-244 -13 -467 -170q-98 -74 -170 -167
q-48 -145 -48 -267q0 -252 242 -266h5zM1950 1287q188 0 340 11q196 21 196 98q0 38 -58 71q-71 40 -202 40q-274 0 -583 -214q98 -6 307 -6z" />
    <glyph glyph-name="Egrave" unicode="&#xc8;" horiz-adv-x="1930" 
d="M1303 3h-16q-141 0 -273.5 52t-227.5 153q-54 -22 -106 -39q-111 -37 -214 -37q-19 0 -87.5 5t-165.5 92t-160 280l-1 5q0 14 15 14q11 0 14 -10q60 -182 151 -264q101 -91 240 -91q130 0 293 69q-65 80 -90 183q-12 48 -12 101q0 281 259 404q149 72 338 72q56 0 116 -6
q-125 162 -141 312q-138 -40 -302 -55q-41 -3 -83 -3q-124 0 -272 36.5t-302.5 164t-273.5 369.5q-2 4 -2 7q0 14 15 14q9 0 14 -8q211 -433 583 -523q123 -30 242 -30q181 0 379 59v13q0 128 112 248q94 91 215 91q87 0 175.5 -42.5t152 -118.5t71.5 -158v-6
q0 -82 -69 -126q-43 -29 -98 -29q-33 0 -66 12q-113 41 -156 206q-16 -5 -46 -17q-40 -20 -176 -68q-8 -45 -8 -90q0 -163 82 -269q3 -4 3 -9q0 -15 -15 -15h-2q-39 6 -78 6q-87 0 -191.5 -34t-197.5 -119q-145 -133 -145 -332q0 -27 8 -80.5t48 -120.5q132 65 255 138
q64 39 195 107q220 108 348 108q102 0 156 -52q48 -48 48 -122q0 -79 -52 -167q-86 -141 -218 -209t-281 -71zM1383 41q69 1 191.5 63.5t202.5 193.5q47 80 47 151q0 62 -39 102q-43 43 -134 43q-122 0 -336 -104q-83 -44 -179 -99l-4 -2q-127 -75 -263 -143
q73 -100 191.5 -152.5t250.5 -52.5h72zM1790 1231q47 0 84 24q56 35 56 102v2q-13 116 -101 174q-82 53 -184 53q-7 0 -65.5 -2t-138.5 -68q-62 -57 -85 -148q83 31 138 53l7 3q64 28 78 28q13 0 16 -14q21 -86 58 -133q59 -74 137 -74zM1667 1796q-15 0 -75 31
q-55 28 -104 72q-41 39 -41 70q0 21 19 40q24 20 48 20q36 0 74 -50t59 -111q20 -56 20 -72z" />
    <glyph glyph-name="Eacute" unicode="&#xc9;" horiz-adv-x="1930" 
d="M1303 3h-16q-141 0 -273.5 52t-227.5 153q-54 -22 -106 -39q-111 -37 -214 -37q-19 0 -87.5 5t-165.5 92t-160 280l-1 5q0 14 15 14q11 0 14 -10q60 -182 151 -264q101 -91 240 -91q130 0 293 69q-65 80 -90 183q-12 48 -12 101q0 281 259 404q149 72 338 72q56 0 116 -6
q-125 162 -141 312q-138 -40 -302 -55q-41 -3 -83 -3q-124 0 -272 36.5t-302.5 164t-273.5 369.5q-2 4 -2 7q0 14 15 14q9 0 14 -8q211 -433 583 -523q123 -30 242 -30q181 0 379 59v13q0 128 112 248q94 91 215 91q87 0 175.5 -42.5t152 -118.5t71.5 -158v-6
q0 -82 -69 -126q-43 -29 -98 -29q-33 0 -66 12q-113 41 -156 206q-16 -5 -46 -17q-40 -20 -176 -68q-8 -45 -8 -90q0 -163 82 -269q3 -4 3 -9q0 -15 -15 -15h-2q-39 6 -78 6q-87 0 -191.5 -34t-197.5 -119q-145 -133 -145 -332q0 -27 8 -80.5t48 -120.5q132 65 255 138
q64 39 195 107q220 108 348 108q102 0 156 -52q48 -48 48 -122q0 -79 -52 -167q-86 -141 -218 -209t-281 -71zM1383 41q69 1 191.5 63.5t202.5 193.5q47 80 47 151q0 62 -39 102q-43 43 -134 43q-122 0 -336 -104q-83 -44 -179 -99l-4 -2q-127 -75 -263 -143
q73 -100 191.5 -152.5t250.5 -52.5h72zM1790 1231q47 0 84 24q56 35 56 102v2q-13 116 -101 174q-82 53 -184 53q-7 0 -65.5 -2t-138.5 -68q-62 -57 -85 -148q83 31 138 53l7 3q64 28 78 28q13 0 16 -14q21 -86 58 -133q59 -74 137 -74zM1627 1768q0 16 19 72
q22 61 59.5 111t74.5 50q23 0 48 -20q19 -19 19 -40q0 -31 -41 -70q-49 -44 -105 -72q-60 -31 -74 -31z" />
    <glyph glyph-name="Ecircumflex" unicode="&#xca;" horiz-adv-x="1918" 
d="M1303 3h-16q-141 0 -273.5 52t-227.5 153q-54 -22 -106 -39q-111 -37 -214 -37q-19 0 -87.5 5t-165.5 92t-160 280l-1 5q0 14 15 14q11 0 14 -10q60 -182 151 -264q101 -91 240 -91q130 0 293 69q-65 80 -90 183q-12 48 -12 101q0 281 259 404q149 72 338 72q56 0 116 -6
q-125 162 -141 312q-138 -40 -302 -55q-41 -3 -83 -3q-124 0 -272 36.5t-302.5 164t-273.5 369.5q-2 4 -2 7q0 14 15 14q9 0 14 -8q211 -433 583 -523q123 -30 242 -30q181 0 379 59v13q0 128 112 248q94 91 215 91q87 0 175.5 -42.5t152 -118.5t71.5 -158v-6
q0 -82 -69 -126q-43 -29 -98 -29q-33 0 -66 12q-113 41 -156 206q-16 -5 -46 -17q-40 -20 -176 -68q-8 -45 -8 -90q0 -163 82 -269q3 -4 3 -9q0 -15 -15 -15h-2q-39 6 -78 6q-87 0 -191.5 -34t-197.5 -119q-145 -133 -145 -332q0 -27 8 -80.5t48 -120.5q132 65 255 138
q64 39 195 107q220 108 348 108q102 0 156 -52q48 -48 48 -122q0 -79 -52 -167q-86 -141 -218 -209t-281 -71zM1383 41q69 1 191.5 63.5t202.5 193.5q47 80 47 151q0 62 -39 102q-43 43 -134 43q-122 0 -336 -104q-83 -44 -179 -99l-4 -2q-127 -75 -263 -143
q73 -100 191.5 -152.5t250.5 -52.5h72zM1790 1231q47 0 84 24q56 35 56 102v2q-13 116 -101 174q-82 53 -184 53q-7 0 -65.5 -2t-138.5 -68q-62 -57 -85 -148q83 31 138 53l7 3q64 28 78 28q13 0 16 -14q21 -86 58 -133q59 -74 137 -74zM1831 1745q-17 0 -22 17l-45 138
l-98 -126q-7 -9 -21 -9q-7 0 -13 5q-10 8 -10 19q0 8 5 16l127 163q9 10 20 10q19 0 24 -19q59 -186 59 -190q0 -6 -4 -13q-5 -11 -22 -11z" />
    <glyph glyph-name="Edieresis" unicode="&#xcb;" horiz-adv-x="1921" 
d="M1303 3h-16q-141 0 -273.5 52t-227.5 153q-54 -22 -106 -39q-111 -37 -214 -37q-19 0 -87.5 5t-165.5 92t-160 280l-1 5q0 14 15 14q11 0 14 -10q60 -182 151 -264q101 -91 240 -91q130 0 293 69q-65 80 -90 183q-12 48 -12 101q0 281 259 404q149 72 338 72q56 0 116 -6
q-125 162 -141 312q-138 -40 -302 -55q-41 -3 -83 -3q-124 0 -272 36.5t-302.5 164t-273.5 369.5q-2 4 -2 7q0 14 15 14q9 0 14 -8q211 -433 583 -523q123 -30 242 -30q181 0 379 59v13q0 128 112 248q94 91 215 91q87 0 175.5 -42.5t152 -118.5t71.5 -158v-6
q0 -82 -69 -126q-43 -29 -98 -29q-33 0 -66 12q-113 41 -156 206q-16 -5 -46 -17q-40 -20 -176 -68q-8 -45 -8 -90q0 -163 82 -269q3 -4 3 -9q0 -15 -15 -15h-2q-39 6 -78 6q-87 0 -191.5 -34t-197.5 -119q-145 -133 -145 -332q0 -27 8 -80.5t48 -120.5q132 65 255 138
q64 39 195 107q220 108 348 108q102 0 156 -52q48 -48 48 -122q0 -79 -52 -167q-86 -141 -218 -209t-281 -71zM1383 41q69 1 191.5 63.5t202.5 193.5q47 80 47 151q0 62 -39 102q-43 43 -134 43q-122 0 -336 -104q-83 -44 -179 -99l-4 -2q-127 -75 -263 -143
q73 -100 191.5 -152.5t250.5 -52.5h72zM1790 1231q47 0 84 24q56 35 56 102v2q-13 116 -101 174q-82 53 -184 53q-7 0 -65.5 -2t-138.5 -68q-62 -57 -85 -148q83 31 138 53l7 3q64 28 78 28q13 0 16 -14q21 -86 58 -133q59 -74 137 -74zM1611 1761q-4 0 -5 1q-34 6 -34 46
q0 5 1 6q3 19 15.5 30.5t29.5 11.5h5q34 -8 34 -47q0 -5 -1 -6q-3 -19 -15.5 -30.5t-29.5 -11.5zM1727 1761q-4 0 -5 1q-35 6 -35 43l1 8q0 17 16 32q13 11 29 11h5q34 -8 34 -44v-8q0 -17 -16 -32q-13 -11 -29 -11z" />
    <glyph glyph-name="Igrave" unicode="&#xcc;" horiz-adv-x="1736" 
d="M1399 -233q-2 0 -6 1.5t-6.5 5.5t-2.5 8q0 9 7 13q146 88 146 233q0 79 -54.5 164t-180.5 126q-229 -318 -541 -318q-136 0 -304 64q-215 89 -326 227q-131 163 -131 349q0 119 61.5 237t205.5 192q115 58 271 58q41 0 84 -4q212 -22 322 -182q75 -121 75 -255
q0 -115 -30.5 -213.5t-56.5 -148.5q133 42 240 42q47 0 89 -8q88 129 161 281.5t140 307.5q87 208 177 379q-106 46 -158 198v5q0 3 3 9t12 6t14 -11q46 -139 144 -181q57 102 123 173q105 116 231 116q57 0 122 -23q76 -31 76 -72q0 -10 -14 -41.5t-102 -84t-189 -85.5
q-96 -32 -158 -32h-8q-95 -146 -230 -436q-64 -137 -133.5 -272t-150.5 -252q134 -47 198 -154q48 -78 48 -162q0 -30 -15.5 -104.5t-145.5 -153.5q-3 -2 -7 -2zM1855 1332q55 2 142 35t165 76.5t103 77.5q7 9 7 16q0 19 -53 22h-2q-148 0 -258 -107q-55 -51 -104 -120z
M738 34q26 0 109 8.5t194.5 87t200.5 201.5q-35 6 -73 6q-114 0 -261 -53q-14 -5 -20 -5q-5 0 -5 5q0 4 3 15q2 5 3.5 7.5t5.5 8.5q18 33 54 132q42 113 42 240q0 121 -72 237q-118 174 -379 174q-149 0 -272 -62.5t-187 -186.5q-51 -97 -51 -208q0 -29 10 -116t116.5 -218
t311.5 -215q148 -58 270 -58zM2203 1775q-14 0 -74 31q-56 28 -105 72q-41 39 -41 70q0 21 19 40q25 20 48 20q37 0 74.5 -50t59.5 -111q19 -56 19 -72z" />
    <glyph glyph-name="Iacute" unicode="&#xcd;" horiz-adv-x="1732" 
d="M2124 1775q0 16 20 72q21 61 59 111t74 50q24 0 48 -20q19 -19 19 -40q0 -31 -41 -70q-49 -44 -104 -72q-60 -31 -75 -31zM1399 -233q-2 0 -6 1.5t-6.5 5.5t-2.5 8q0 9 7 13q146 88 146 233q0 79 -54.5 164t-180.5 126q-229 -318 -541 -318q-136 0 -304 64
q-215 89 -326 227q-131 163 -131 349q0 119 61.5 237t205.5 192q115 58 271 58q41 0 84 -4q212 -22 322 -182q75 -121 75 -255q0 -115 -30.5 -213.5t-56.5 -148.5q133 42 240 42q47 0 89 -8q88 129 161 281.5t140 307.5q87 208 177 379q-106 46 -158 198v5q0 3 3 9t12 6
t14 -11q46 -139 144 -181q57 102 123 173q105 116 231 116q57 0 122 -23q76 -31 76 -72q0 -10 -14 -41.5t-102 -84t-189 -85.5q-96 -32 -158 -32h-8q-95 -146 -230 -436q-64 -137 -133.5 -272t-150.5 -252q134 -47 198 -154q48 -78 48 -162q0 -30 -15.5 -104.5
t-145.5 -153.5q-3 -2 -7 -2zM1855 1332q55 2 142 35t165 76.5t103 77.5q7 9 7 16q0 19 -53 22h-2q-148 0 -258 -107q-55 -51 -104 -120zM738 34q26 0 109 8.5t194.5 87t200.5 201.5q-35 6 -73 6q-114 0 -261 -53q-14 -5 -20 -5q-5 0 -5 5q0 4 3 15q2 5 3.5 7.5t5.5 8.5
q18 33 54 132q42 113 42 240q0 121 -72 237q-118 174 -379 174q-149 0 -272 -62.5t-187 -186.5q-51 -97 -51 -208q0 -29 10 -116t116.5 -218t311.5 -215q148 -58 270 -58z" />
    <glyph glyph-name="Icircumflex" unicode="&#xce;" horiz-adv-x="1732" 
d="M1399 -233q-2 0 -6 1.5t-6.5 5.5t-2.5 8q0 9 7 13q146 88 146 233q0 79 -54.5 164t-180.5 126q-229 -318 -541 -318q-136 0 -304 64q-215 89 -326 227q-131 163 -131 349q0 119 61.5 237t205.5 192q115 58 271 58q41 0 84 -4q212 -22 322 -182q75 -121 75 -255
q0 -115 -30.5 -213.5t-56.5 -148.5q133 42 240 42q47 0 89 -8q88 129 161 281.5t140 307.5q87 208 177 379q-106 46 -158 198v5q0 3 3 9t12 6t14 -11q46 -139 144 -181q57 102 123 173q105 116 231 116q57 0 122 -23q76 -31 76 -72q0 -10 -14 -41.5t-102 -84t-189 -85.5
q-96 -32 -158 -32h-8q-95 -146 -230 -436q-64 -137 -133.5 -272t-150.5 -252q134 -47 198 -154q48 -78 48 -162q0 -30 -15.5 -104.5t-145.5 -153.5q-3 -2 -7 -2zM1855 1332q55 2 142 35t165 76.5t103 77.5q7 9 7 16q0 19 -53 22h-2q-148 0 -258 -107q-55 -51 -104 -120z
M738 34q26 0 109 8.5t194.5 87t200.5 201.5q-35 6 -73 6q-114 0 -261 -53q-14 -5 -20 -5q-5 0 -5 5q0 4 3 15q2 5 3.5 7.5t5.5 8.5q18 33 54 132q42 113 42 240q0 121 -72 237q-118 174 -379 174q-149 0 -272 -62.5t-187 -186.5q-51 -97 -51 -208q0 -29 10 -116t116.5 -218
t311.5 -215q148 -58 270 -58zM2206 1697q-17 0 -23 17l-45 138l-98 -126q-7 -9 -20 -9q-7 0 -14 5q-10 8 -10 19q0 8 5 16l127 163q9 10 20 10q20 0 24 -19q60 -186 60 -190q0 -6 -4 -13q-6 -11 -22 -11z" />
    <glyph glyph-name="Idieresis" unicode="&#xcf;" horiz-adv-x="1736" 
d="M1399 -233q-2 0 -6 1.5t-6.5 5.5t-2.5 8q0 9 7 13q146 88 146 233q0 79 -54.5 164t-180.5 126q-229 -318 -541 -318q-136 0 -304 64q-215 89 -326 227q-131 163 -131 349q0 119 61.5 237t205.5 192q115 58 271 58q41 0 84 -4q212 -22 322 -182q75 -121 75 -255
q0 -115 -30.5 -213.5t-56.5 -148.5q133 42 240 42q47 0 89 -8q88 129 161 281.5t140 307.5q87 208 177 379q-106 46 -158 198v5q0 3 3 9t12 6t14 -11q46 -139 144 -181q57 102 123 173q105 116 231 116q57 0 122 -23q76 -31 76 -72q0 -10 -14 -41.5t-102 -84t-189 -85.5
q-96 -32 -158 -32h-8q-95 -146 -230 -436q-64 -137 -133.5 -272t-150.5 -252q134 -47 198 -154q48 -78 48 -162q0 -30 -15.5 -104.5t-145.5 -153.5q-3 -2 -7 -2zM1855 1332q55 2 142 35t165 76.5t103 77.5q7 9 7 16q0 19 -53 22h-2q-148 0 -258 -107q-55 -51 -104 -120z
M738 34q26 0 109 8.5t194.5 87t200.5 201.5q-35 6 -73 6q-114 0 -261 -53q-14 -5 -20 -5q-5 0 -5 5q0 4 3 15q2 5 3.5 7.5t5.5 8.5q18 33 54 132q42 113 42 240q0 121 -72 237q-118 174 -379 174q-149 0 -272 -62.5t-187 -186.5q-51 -97 -51 -208q0 -29 10 -116t116.5 -218
t311.5 -215q148 -58 270 -58zM2120 1755q-4 0 -5 1q-34 6 -34 46q0 5 1 6q3 19 15.5 30.5t29.5 11.5h5q34 -8 34 -47q0 -5 -1 -6q-3 -19 -15.5 -30.5t-29.5 -11.5zM2236 1755q-4 0 -5 1q-34 6 -34 43v8q0 17 16 32q13 11 30 11h4q35 -8 35 -44l-1 -8q0 -17 -16 -32
q-13 -11 -29 -11z" />
    <glyph glyph-name="Eth" unicode="&#xd0;" horiz-adv-x="2020" 
d="M1148 -17q-174 0 -326 94q-27 18 -48 40q-81 -29 -181 -37q-12 0 -14 13q0 12 12 14q89 6 159 37q-41 56 -41 123q0 43 17 90q4 9 12 9q13 0 13 -13l-1 -5q-15 -42 -15 -79q0 -64 40 -113q140 77 224 229t150 336l-104 -1q-33 0 -55.5 9.5t-24.5 23.5q0 14 21.5 24
t54.5 11l133 1l9 23q53 145 121 279t168.5 237t252.5 153q-105 98 -266 154q-145 48 -302 48q-309 0 -586 -171q-173 -111 -297.5 -258.5t-189.5 -304.5q-58 -141 -58 -265q0 -220 189 -301q76 -30 145 -30q50 0 129.5 26t161 118t116.5 209q19 63 19 123q0 147 -103 228
q-68 53 -188 65q-12 2 -12 14q2 12 14 12q130 -13 204 -71q111 -89 111 -248q0 -64 -20 -131q-36 -122 -122.5 -219.5t-205.5 -135.5q-49 -16 -102 -16q-75 0 -157 32q-102 43 -152 125q-53 86 -53 201q0 129 60 274q66 160 193.5 311t303.5 264q283 175 598 175
q163 0 312 -50q174 -59 292 -168q49 11 56 11q4 0 8.5 -3t4.5 -10q0 -10 -11 -12l-35 -8q141 -141 198 -326q40 -129 40 -263q0 -59 -17 -188t-125 -306q-105 -165 -287.5 -274t-387.5 -127q-28 -2 -55 -2zM1097 20q136 0 267.5 58t241.5 154q258 223 320 552q17 86 17 170
q0 98 -32.5 234t-162.5 271q-118 -43 -198 -137.5t-137.5 -221.5t-107.5 -267l-16 -42l174 2q33 0 55.5 -9.5t24.5 -23.5q0 -15 -21.5 -24.5t-54.5 -10.5l-204 -2q-48 -128 -108.5 -245t-146 -208.5t-207.5 -142.5q16 -15 35 -28q125 -79 261 -79z" />
    <glyph glyph-name="Ntilde" unicode="&#xd1;" horiz-adv-x="2522" 
d="M1980 -56q-15 0 -15 16q0 3 1 5q79 163 90 301q6 73 6 144q0 65 -5 130q-4 70 -4 144q0 42 2 124t41 223.5t135 315.5q-97 -115 -181 -259q-111 -188 -178 -322q-66 -124 -151.5 -262.5t-192.5 -261.5q-118 -132 -268.5 -202.5t-300.5 -70.5q-156 0 -274.5 84t-169.5 264
q-15 55 -15 107q0 123 75 199q70 76 214 76q54 0 60 -8q3 -3 3 -11q-2 -13 -17 -13q-25 2 -48 2q-129 0 -191 -67q-66 -67 -66 -178q0 -48 13 -100q46 -159 157 -242q118 -90 272 -90q131 0 265 70t239 223q101 160 184 332q143 291 302 508q102 139 237 256
q-154 -62 -316 -62q-85 0 -169 14q-3 -4 -5 -9q-63 -99 -174 -170q-168 -106 -381 -160q-279 -72 -555 -72q-169 0 -313.5 34.5t-219.5 110.5q-66 66 -66 144q0 83 68 160q83 95 258 156q171 60 419 60q157 0 324 -42q147 -37 286 -84q187 -62 344 -95q37 72 37 159
q0 140 -111 312q-3 5 -3 9q0 14 15 14q9 0 12 -7q117 -179 117 -327q0 -90 -37 -165q73 -12 146 -12q77 0 192.5 20t282.5 126q3 3 7 3q2 0 6 -1t7 -5t3 -8q0 -8 -7 -14q-24 -16 -46 -35q-101 -163 -126.5 -324.5t-26.5 -332.5t-26.5 -362.5t-124.5 -415.5q150 114 293 406
q75 155 150 329q71 165 147 323q173 360 345 492q79 62 168 62q18 0 81.5 -9t191.5 -139q4 -5 4 -11q0 -14 -15 -14q-6 0 -10 4q-135 138 -253 138q-80 0 -149 -55q-101 -81 -211 -285.5t-224 -451.5q-91 -195 -181 -371.5t-177 -294.5t-188 -177q-4 -2 -8 -2zM596 952
q272 0 550 70q209 53 372 156q106 69 165 161q-165 35 -331 92q-141 47 -289 85q-165 41 -318 41q-242 0 -409 -58t-246 -148q-61 -69 -61 -138q0 -67 58 -125q71 -72 235 -110q113 -26 274 -26zM2526 1745q-42 0 -80 27t-42 143q0 15 14 15q15 0 15 -15q5 -83 114 -83
q77 0 167 41q93 37 162 37q41 0 83 -21t59 -102v-2q0 -15 -15 -15q-11 0 -14 12q-10 40 -57 49q-22 4 -46 4q-26 0 -66.5 -7t-69.5 -18q-4 -2 -9 -3q-148 -62 -215 -62z" />
    <glyph glyph-name="Ograve" unicode="&#xd2;" horiz-adv-x="1837" 
d="M998 -15q-82 0 -127 40q-67 61 -67 181q0 32 13.5 137.5t114.5 326.5q-186 -44 -347 -44q-140 0 -261 38q-179 61 -257 151q-67 77 -67 163q0 90 66 179q94 125 299 218q197 83 392 83q106 0 212 -25q185 -44 334 -158q147 187 301 316.5t293 164.5q37 9 71 9
q95 0 169 -71q37 -38 37 -100q0 -118 -106 -277q-69 -101 -161 -182q11 -49 11 -98q0 -62 -16 -131q-43 -181 -160.5 -369t-270.5 -332l-1 -1q-235 -219 -472 -219zM1064 736q208 65 392 153q271 130 417 255q-41 126 -195 162q-11 4 -11 15v3q4 11 15 11h3
q162 -37 212 -169l8 7q90 90 139 161q100 151 100 259q0 51 -28 80q-42 40 -101 40q-41 0 -125 -34t-226 -164t-283 -308q41 -41 77 -89q3 -5 3 -11q-1 -12 -14 -12q-9 0 -13 5q-33 45 -72 83q-168 -215 -298 -447zM586 655q19 0 107.5 4t254.5 45q131 277 337 548
q-144 110 -323 152q-102 24 -205 24q-189 0 -380 -81q-198 -89 -287 -208q-60 -79 -60 -161q0 -182 303 -285q117 -38 253 -38zM1015 17q63 0 155 29q139 49 280 180v1h1q150 141 265 325t157 360q15 68 15 128q0 40 -7 72q-145 -123 -424 -256q-194 -92 -414 -157
q-117 -216 -161 -388q-18 -71 -18 -126q0 -168 151 -168zM2062 1820q-14 0 -74 31q-56 28 -105 72q-41 39 -41 70q0 21 19 40q25 20 48 20q36 0 74 -50t60 -111q19 -56 19 -72z" />
    <glyph glyph-name="Oacute" unicode="&#xd3;" horiz-adv-x="1843" 
d="M998 -15q-82 0 -127 40q-67 61 -67 181q0 32 13.5 137.5t114.5 326.5q-186 -44 -347 -44q-140 0 -261 38q-179 61 -257 151q-67 77 -67 163q0 90 66 179q94 125 299 218q197 83 392 83q106 0 212 -25q185 -44 334 -158q147 187 301 316.5t293 164.5q37 9 71 9
q95 0 169 -71q37 -38 37 -100q0 -118 -106 -277q-69 -101 -161 -182q11 -49 11 -98q0 -62 -16 -131q-43 -181 -160.5 -369t-270.5 -332l-1 -1q-235 -219 -472 -219zM1064 736q208 65 392 153q271 130 417 255q-41 126 -195 162q-11 4 -11 15v3q4 11 15 11h3
q162 -37 212 -169l8 7q90 90 139 161q100 151 100 259q0 51 -28 80q-42 40 -101 40q-41 0 -125 -34t-226 -164t-283 -308q41 -41 77 -89q3 -5 3 -11q-1 -12 -14 -12q-9 0 -13 5q-33 45 -72 83q-168 -215 -298 -447zM586 655q19 0 107.5 4t254.5 45q131 277 337 548
q-144 110 -323 152q-102 24 -205 24q-189 0 -380 -81q-198 -89 -287 -208q-60 -79 -60 -161q0 -182 303 -285q117 -38 253 -38zM1015 17q63 0 155 29q139 49 280 180v1h1q150 141 265 325t157 360q15 68 15 128q0 40 -7 72q-145 -123 -424 -256q-194 -92 -414 -157
q-117 -216 -161 -388q-18 -71 -18 -126q0 -168 151 -168zM2018 1820q0 16 20 72q21 61 59 111t74 50q24 0 48 -20q19 -19 19 -40q0 -31 -41 -70q-49 -44 -104 -72q-60 -31 -75 -31z" />
    <glyph glyph-name="Ocircumflex" unicode="&#xd4;" horiz-adv-x="1843" 
d="M998 -15q-82 0 -127 40q-67 61 -67 181q0 32 13.5 137.5t114.5 326.5q-186 -44 -347 -44q-140 0 -261 38q-179 61 -257 151q-67 77 -67 163q0 90 66 179q94 125 299 218q197 83 392 83q106 0 212 -25q185 -44 334 -158q147 187 301 316.5t293 164.5q37 9 71 9
q95 0 169 -71q37 -38 37 -100q0 -118 -106 -277q-69 -101 -161 -182q11 -49 11 -98q0 -62 -16 -131q-43 -181 -160.5 -369t-270.5 -332l-1 -1q-235 -219 -472 -219zM1064 736q208 65 392 153q271 130 417 255q-41 126 -195 162q-11 4 -11 15v3q4 11 15 11h3
q162 -37 212 -169l8 7q90 90 139 161q100 151 100 259q0 51 -28 80q-42 40 -101 40q-41 0 -125 -34t-226 -164t-283 -308q41 -41 77 -89q3 -5 3 -11q-1 -12 -14 -12q-9 0 -13 5q-33 45 -72 83q-168 -215 -298 -447zM586 655q19 0 107.5 4t254.5 45q131 277 337 548
q-144 110 -323 152q-102 24 -205 24q-189 0 -380 -81q-198 -89 -287 -208q-60 -79 -60 -161q0 -182 303 -285q117 -38 253 -38zM1015 17q63 0 155 29q139 49 280 180v1h1q150 141 265 325t157 360q15 68 15 128q0 40 -7 72q-145 -123 -424 -256q-194 -92 -414 -157
q-117 -216 -161 -388q-18 -71 -18 -126q0 -168 151 -168zM2127 1857q-18 0 -23 17l-45 138l-98 -126q-7 -9 -20 -9q-8 0 -14 5q-10 8 -10 19q0 8 5 16l127 163q9 10 20 10q19 0 24 -19q59 -186 59 -190q0 -6 -3 -13q-6 -11 -22 -11z" />
    <glyph glyph-name="Otilde" unicode="&#xd5;" horiz-adv-x="1846" 
d="M998 -15q-82 0 -127 40q-67 61 -67 181q0 32 13.5 137.5t114.5 326.5q-186 -44 -347 -44q-140 0 -261 38q-179 61 -257 151q-67 77 -67 163q0 90 66 179q94 125 299 218q197 83 392 83q106 0 212 -25q185 -44 334 -158q147 187 301 316.5t293 164.5q37 9 71 9
q95 0 169 -71q37 -38 37 -100q0 -118 -106 -277q-69 -101 -161 -182q11 -49 11 -98q0 -62 -16 -131q-43 -181 -160.5 -369t-270.5 -332l-1 -1q-235 -219 -472 -219zM1064 736q208 65 392 153q271 130 417 255q-41 126 -195 162q-11 4 -11 15v3q4 11 15 11h3
q162 -37 212 -169l8 7q90 90 139 161q100 151 100 259q0 51 -28 80q-42 40 -101 40q-41 0 -125 -34t-226 -164t-283 -308q41 -41 77 -89q3 -5 3 -11q-1 -12 -14 -12q-9 0 -13 5q-33 45 -72 83q-168 -215 -298 -447zM586 655q19 0 107.5 4t254.5 45q131 277 337 548
q-144 110 -323 152q-102 24 -205 24q-189 0 -380 -81q-198 -89 -287 -208q-60 -79 -60 -161q0 -182 303 -285q117 -38 253 -38zM1015 17q63 0 155 29q139 49 280 180v1h1q150 141 265 325t157 360q15 68 15 128q0 40 -7 72q-145 -123 -424 -256q-194 -92 -414 -157
q-117 -216 -161 -388q-18 -71 -18 -126q0 -168 151 -168zM1879 1863q-42 0 -80 27t-42 143q0 15 14 15q15 0 15 -15q5 -83 114 -83q77 0 167 41q93 37 162 37q41 0 83 -21t59 -102v-2q0 -15 -15 -15q-11 0 -14 12q-10 40 -57 49q-22 4 -46 4q-26 0 -66.5 -7t-69.5 -18
q-4 -2 -9 -3q-148 -62 -215 -62z" />
    <glyph glyph-name="Odieresis" unicode="&#xd6;" horiz-adv-x="1843" 
d="M2014 1871q-4 0 -5 1q-34 6 -34 46q0 5 1 6q3 19 15.5 30.5t29.5 11.5h5q34 -8 34 -47q0 -5 -1 -6q-3 -19 -15.5 -30.5t-29.5 -11.5zM2130 1871q-4 0 -5 1q-34 6 -34 43v8q0 17 16 32q13 11 29 11h5q34 -8 34 -44v-8q0 -17 -16 -32q-13 -11 -29 -11zM998 -15
q-82 0 -127 40q-67 61 -67 181q0 32 13.5 137.5t114.5 326.5q-186 -44 -347 -44q-140 0 -261 38q-179 61 -257 151q-67 77 -67 163q0 90 66 179q94 125 299 218q197 83 392 83q106 0 212 -25q185 -44 334 -158q147 187 301 316.5t293 164.5q37 9 71 9q95 0 169 -71
q37 -38 37 -100q0 -118 -106 -277q-69 -101 -161 -182q11 -49 11 -98q0 -62 -16 -131q-43 -181 -160.5 -369t-270.5 -332l-1 -1q-235 -219 -472 -219zM1064 736q208 65 392 153q271 130 417 255q-41 126 -195 162q-11 4 -11 15v3q4 11 15 11h3q162 -37 212 -169l8 7
q90 90 139 161q100 151 100 259q0 51 -28 80q-42 40 -101 40q-41 0 -125 -34t-226 -164t-283 -308q41 -41 77 -89q3 -5 3 -11q-1 -12 -14 -12q-9 0 -13 5q-33 45 -72 83q-168 -215 -298 -447zM586 655q19 0 107.5 4t254.5 45q131 277 337 548q-144 110 -323 152
q-102 24 -205 24q-189 0 -380 -81q-198 -89 -287 -208q-60 -79 -60 -161q0 -182 303 -285q117 -38 253 -38zM1015 17q63 0 155 29q139 49 280 180v1h1q150 141 265 325t157 360q15 68 15 128q0 40 -7 72q-145 -123 -424 -256q-194 -92 -414 -157q-117 -216 -161 -388
q-18 -71 -18 -126q0 -168 151 -168z" />
    <glyph glyph-name="multiply" unicode="&#xd7;" horiz-adv-x="492" 
d="M245 207q-4 0 -15.5 1.5t-25.5 17.5l-47 60l-49 -60q-16 -19 -40 -19q-16 0 -29 11q-19 16 -19 40q0 16 11 30l62 77l-56 70q-11 14 -11 30q0 3 1.5 14.5t17.5 25.5q13 11 29 11q3 0 15 -1.5t25 -17.5l43 -52l41 52q16 19 41 19q15 0 29 -11q18 -16 18 -39q0 -16 -10 -31
l-56 -70l62 -77q10 -15 10 -31q0 -3 -1 -14t-17 -25q-14 -11 -29 -11z" />
    <glyph glyph-name="Oslash" unicode="&#xd8;" horiz-adv-x="1821" 
d="M586 637q19 0 107.5 4t254.5 45q133 280 337 548q-143 110 -323 152q-102 24 -204 24q-189 0 -380 -81q-198 -89 -288 -208q-60 -81 -60 -161q0 -75 60 -144q72 -83 243 -141q117 -38 253 -38zM1481 883q260 127 392 243q-41 127 -194 162q-12 4 -12 13q0 16 15 16h3
q162 -37 212 -169q88 81 147 168q100 151 100 259q0 51 -27 80q-43 40 -101 40q-42 0 -126 -34t-225 -164l-26 -24q-84 -300 -158 -590zM1472 845l-2 -8q-96 -377 -207 -769q93 52 188 141q150 141 265 325t157 360q16 67 16 126q0 51 -8 74q-143 -122 -409 -249zM1109 -20
q-58 -13 -104 -13h-12q-149 31 -176 127q-12 44 -12 99q0 176 127 459q-186 -44 -347 -44q-140 0 -261 38q-179 61 -257 151q-67 77 -67 163q0 90 67 179q94 125 298 218q197 83 392 83q106 0 212 -25q186 -44 335 -158q146 187 300 317q9 7 18 15q41 131 82 265q5 15 21 15
h5q15 -6 15 -19v-5q-31 -105 -60 -209q110 76 212 102q37 9 71 9q95 0 170 -71q36 -37 36 -100q0 -117 -106 -277q-66 -99 -161 -183q11 -46 11 -97q0 -62 -16 -131q-42 -181 -160 -369t-271 -332q-110 -103 -219 -156q-29 -102 -59 -204q-16 -45 -38 -49q-16 -2 -27 -2
q-22 0 -44 21q-14 14 -14 40q0 13 3 27zM1562 1397q-90 -94 -181 -208q42 -41 77 -89q3 -4 3 -9q0 -14 -14 -14q-9 0 -13 5q-33 45 -71 83q-165 -210 -299 -447q166 51 316 117q5 16 10 31q87 261 172 531zM1368 798q-155 -67 -324 -117q-118 -216 -162 -388
q-18 -71 -18 -126q0 -168 151 -168q51 0 103 12q125 403 250 787z" />
    <glyph glyph-name="Ugrave" unicode="&#xd9;" horiz-adv-x="1957" 
d="M1494 -9q-38 0 -60 19q-39 33 -39 107q0 37 10 85q-190 -210 -346 -210q-71 0 -118 49q-58 60 -58 180q0 24 2 50q17 133 74.5 251.5t130.5 232.5q57 93 108 189q107 201 107 366q0 218 -210 278q-76 22 -164 22q-57 0 -167.5 -16t-266.5 -88.5t-273.5 -182
t-160.5 -245.5l-1 -2q-32 -84 -32 -162q0 -24 7.5 -86t60.5 -138.5t131 -119.5t168 -43q91 0 182 52.5t170 166.5q5 6 13 6q4 0 8 -2q6 -5 6 -13q0 -4 -2 -8q-84 -121 -180.5 -176t-192.5 -56q-100 0 -185 46.5t-142 128.5q-74 108 -74 239q0 85 34 176q49 154 178 271
t300 187q216 88 422 88q326 0 434 -210q36 -68 36 -163q0 -74 -22 -164q-33 -121 -89.5 -227t-120.5 -207q-61 -96 -114.5 -195t-85.5 -209q-18 -70 -18 -121q0 -68 33 -101q28 -28 72 -28t133 42.5t231 219.5q55 176 189.5 396.5t322 427t400 338t424.5 131.5q77 0 118 -44
q37 -39 37 -98q0 -76 -54 -163q-52 -83 -156 -164q-125 -96 -278 -134q-55 -13 -108 -13q-76 0 -148 27q-9 5 -9 14l1 6q4 9 13 9l6 -1q67 -25 138 -25q49 0 101 12q146 37 266 129q98 76 148 155t50 147q0 48 -28 78q-33 35 -98 35q-119 0 -271 -95.5t-313.5 -252
t-308 -337.5t-254.5 -352t-153 -295q-23 -64 -23 -106q0 -75 63 -75q52 0 150 49q85 47 132 121q2 2 4.5 7t6.5 6t7 1t7.5 -2.5t5.5 -6.5t1 -7q0 -5 -7 -14q-51 -81 -144 -131q-105 -52 -167 -52zM1932 1758q-15 0 -75 31q-55 28 -104 72q-41 39 -41 70q0 21 19 40
q25 20 48 20q36 0 74 -50t59 -111q20 -56 20 -72z" />
    <glyph glyph-name="Uacute" unicode="&#xda;" horiz-adv-x="1965" 
d="M1494 1q-38 0 -60 19q-39 33 -39 107q0 37 10 85q-190 -210 -346 -210q-71 0 -118 49q-58 60 -58 180q0 24 2 50q17 133 74.5 251.5t130.5 232.5q57 93 108 189q107 201 107 366q0 218 -210 278q-76 22 -164 22q-57 0 -167.5 -16t-266.5 -88.5t-273.5 -182t-160.5 -245.5
l-1 -2q-32 -84 -32 -162q0 -24 7.5 -86t60.5 -138.5t131 -119.5t168 -43q91 0 182 52.5t170 166.5q5 6 13 6q4 0 8 -2q6 -5 6 -13q0 -4 -2 -8q-84 -121 -180.5 -176t-192.5 -56q-100 0 -185 46.5t-142 128.5q-74 108 -74 239q0 85 34 176q49 154 178 271t300 187
q216 88 422 88q326 0 434 -210q36 -68 36 -163q0 -74 -22 -164q-33 -121 -89.5 -227t-120.5 -207q-61 -96 -114.5 -195t-85.5 -209q-18 -70 -18 -121q0 -68 33 -101q28 -28 72 -28t133 42.5t231 219.5q55 176 189.5 396.5t322 427t400 338t424.5 131.5q77 0 118 -44
q37 -39 37 -98q0 -76 -54 -163q-52 -83 -156 -164q-125 -96 -278 -134q-55 -13 -108 -13q-76 0 -148 27q-9 5 -9 14l1 6q4 9 13 9l6 -1q67 -25 138 -25q49 0 101 12q146 37 266 129q98 76 148 155t50 147q0 48 -28 78q-33 35 -98 35q-119 0 -271 -95.5t-313.5 -252
t-308 -337.5t-254.5 -352t-153 -295q-23 -64 -23 -106q0 -75 63 -75q52 0 150 49q85 47 132 121q2 2 4.5 7t6.5 6t7 1t7.5 -2.5t5.5 -6.5t1 -7q0 -5 -7 -14q-51 -81 -144 -131q-105 -52 -167 -52zM1855 1779q0 16 20 72q21 61 59 111t74 50q23 0 48 -20q19 -19 19 -40
q0 -31 -41 -70q-49 -44 -104 -72q-61 -31 -75 -31z" />
    <glyph glyph-name="Ucircumflex" unicode="&#xdb;" horiz-adv-x="1954" 
d="M1494 1q-38 0 -60 19q-39 33 -39 107q0 37 10 85q-190 -210 -346 -210q-71 0 -118 49q-58 60 -58 180q0 24 2 50q17 133 74.5 251.5t130.5 232.5q57 93 108 189q107 201 107 366q0 218 -210 278q-76 22 -164 22q-57 0 -167.5 -16t-266.5 -88.5t-273.5 -182t-160.5 -245.5
l-1 -2q-32 -84 -32 -162q0 -24 7.5 -86t60.5 -138.5t131 -119.5t168 -43q91 0 182 52.5t170 166.5q5 6 13 6q4 0 8 -2q6 -5 6 -13q0 -4 -2 -8q-84 -121 -180.5 -176t-192.5 -56q-100 0 -185 46.5t-142 128.5q-74 108 -74 239q0 85 34 176q49 154 178 271t300 187
q216 88 422 88q326 0 434 -210q36 -68 36 -163q0 -74 -22 -164q-33 -121 -89.5 -227t-120.5 -207q-61 -96 -114.5 -195t-85.5 -209q-18 -70 -18 -121q0 -68 33 -101q28 -28 72 -28t133 42.5t231 219.5q55 176 189.5 396.5t322 427t400 338t424.5 131.5q77 0 118 -44
q37 -39 37 -98q0 -76 -54 -163q-52 -83 -156 -164q-125 -96 -278 -134q-55 -13 -108 -13q-76 0 -148 27q-9 5 -9 14l1 6q4 9 13 9l6 -1q67 -25 138 -25q49 0 101 12q146 37 266 129q98 76 148 155t50 147q0 48 -28 78q-33 35 -98 35q-119 0 -271 -95.5t-313.5 -252
t-308 -337.5t-254.5 -352t-153 -295q-23 -64 -23 -106q0 -75 63 -75q52 0 150 49q85 47 132 121q2 2 4.5 7t6.5 6t7 1t7.5 -2.5t5.5 -6.5t1 -7q0 -5 -7 -14q-51 -81 -144 -131q-105 -52 -167 -52zM2032 1721q-18 0 -23 17l-45 138l-98 -126q-7 -9 -20 -9q-8 0 -14 5
q-10 8 -10 19q0 8 5 16l127 163q9 10 20 10q19 0 24 -19q59 -186 59 -190q0 -6 -3 -13q-6 -11 -22 -11z" />
    <glyph glyph-name="Udieresis" unicode="&#xdc;" horiz-adv-x="1957" 
d="M1494 1q-38 0 -60 19q-39 33 -39 107q0 37 10 85q-190 -210 -346 -210q-71 0 -118 49q-58 60 -58 180q0 24 2 50q17 133 74.5 251.5t130.5 232.5q57 93 108 189q107 201 107 366q0 218 -210 278q-76 22 -164 22q-57 0 -167.5 -16t-266.5 -88.5t-273.5 -182t-160.5 -245.5
l-1 -2q-32 -84 -32 -162q0 -24 7.5 -86t60.5 -138.5t131 -119.5t168 -43q91 0 182 52.5t170 166.5q5 6 13 6q4 0 8 -2q6 -5 6 -13q0 -4 -2 -8q-84 -121 -180.5 -176t-192.5 -56q-100 0 -185 46.5t-142 128.5q-74 108 -74 239q0 85 34 176q49 154 178 271t300 187
q216 88 422 88q326 0 434 -210q36 -68 36 -163q0 -74 -22 -164q-33 -121 -89.5 -227t-120.5 -207q-61 -96 -114.5 -195t-85.5 -209q-18 -70 -18 -121q0 -68 33 -101q28 -28 72 -28t133 42.5t231 219.5q55 176 189.5 396.5t322 427t400 338t424.5 131.5q77 0 118 -44
q37 -39 37 -98q0 -76 -54 -163q-52 -83 -156 -164q-125 -96 -278 -134q-55 -13 -108 -13q-76 0 -148 27q-9 5 -9 14l1 6q4 9 13 9l6 -1q67 -25 138 -25q49 0 101 12q146 37 266 129q98 76 148 155t50 147q0 48 -28 78q-33 35 -98 35q-119 0 -271 -95.5t-313.5 -252
t-308 -337.5t-254.5 -352t-153 -295q-23 -64 -23 -106q0 -75 63 -75q52 0 150 49q85 47 132 121q2 2 4.5 7t6.5 6t7 1t7.5 -2.5t5.5 -6.5t1 -7q0 -5 -7 -14q-51 -81 -144 -131q-105 -52 -167 -52zM1831 1699q-4 0 -5 1q-34 6 -34 46q0 5 1 6q3 19 15.5 30.5t29.5 11.5h5
q34 -8 34 -47q0 -5 -1 -6q-3 -19 -15.5 -30.5t-29.5 -11.5zM1947 1699q-4 0 -5 1q-34 6 -34 43v8q0 17 16 32q13 11 29 11h5q34 -8 34 -44v-8q0 -17 -16 -32q-13 -11 -29 -11z" />
    <glyph glyph-name="Yacute" unicode="&#xdd;" horiz-adv-x="1957" 
d="M731 -1067q-8 0 -83.5 2t-195.5 51q-130 55 -197 140q-84 106 -84 241q0 77 28 153q54 144 181 245q-156 105 -187 221q-10 37 -10 73q0 52 22 102q37 81 123 141q115 80 292 96q28 2 56 2q154 0 329 -68q49 -20 94 -44q251 -137 340 -369q101 159 189 353
q149 313 292 528q84 126 168 240q103 138 219 316l6 9q-67 -61 -146.5 -158.5t-165.5 -209.5q-113 -149 -227 -283q-217 -256 -348 -256q-29 0 -55 11l-2 2q-190 100 -190 457q0 38 2 78q-142 -105 -303 -175q-191 -83 -380 -83q-143 0 -283 60q-108 49 -161.5 123.5
t-53.5 166.5q0 89 48 176q50 92 143 167q142 116 360 153q62 11 129 11q165 0 355 -68q9 -3 9 -13q0 -3 -1.5 -7.5t-5.5 -6.5t-7 -2l-6 1q-185 66 -346 66q-62 0 -197 -22.5t-271 -134.5q-89 -71 -136 -158q-44 -81 -44 -164q0 -80 50 -149q48 -67 148 -112q134 -57 273 -57
q28 0 125.5 8t257.5 80t300 179q19 192 84.5 363.5t164.5 266.5q72 70 155 70q31 0 63 -10l1 -1q47 -18 47 -72q0 -76 -84 -207q-113 -181 -321 -360q-15 -120 -15 -230q0 -19 1.5 -91.5t27.5 -161.5q35 -124 120 -124q56 0 138 61t191.5 191.5t218.5 274t207 259t177 163.5
q5 3 8 3q7 0 12 -8q2 -4 2 -7q0 -9 -6 -13q-13 -24 -44 -72q-119 -187 -354 -644q-70 -137 -132 -252q-197 -393 -383 -600q22 -89 22 -177q0 -187 -90 -348q-136 -250 -399 -341q-132 -45 -265 -45zM1300 1139q185 166 290 331q78 122 78 191q0 35 -26 45q-23 7 -44 7
q-60 0 -119.5 -65.5t-107.5 -205t-71 -303.5zM1112 -352q178 57 306 241q-38 110 -120 206q-118 136 -305 209q-169 66 -317 66q-26 0 -123.5 -8t-207.5 -84q-79 -55 -113 -129q-19 -43 -19 -89q0 -150 192 -277q87 61 197 85q50 11 104 11q112 0 212 -43q139 -60 194 -188z
M944 -377q76 0 139 17q-7 18 -17 34q-54 90 -159 135q-92 40 -200 40q-149 0 -274 -83q92 -53 227 -97q159 -46 284 -46zM732 -1037q127 0 255 43q250 87 382 327q86 158 86 336q0 75 -16 150q-136 -142 -318 -200q12 -39 12 -84q0 -77 -38 -165q-4 -9 -14 -9l-5 1
q-9 5 -9 14l1 6q35 80 35 155q0 40 -10 75q-73 -20 -156 -20q-130 0 -285 48q-148 48 -246 107q-127 -96 -178 -237q-27 -73 -27 -147q0 -122 78 -219q63 -79 185.5 -130t267.5 -51zM1978 1661q0 16 20 72q21 61 59 111t74 50q24 0 48 -20q19 -19 19 -40q0 -31 -41 -70
q-49 -44 -104 -72q-60 -31 -75 -31z" />
    <glyph glyph-name="germandbls" unicode="&#xdf;" horiz-adv-x="851" 
d="M49 -176h-6q-19 0 -33 15q-10 11 -10 27q0 25 140 393q-49 40 -66 89q-7 16 -8 25.5t-4 29.5q0 101 126 134q81 97 123 201q27 67 49 133q36 121 95 217l59 162q-27 6 -53 6q-39 0 -87 -17.5t-82 -82.5q-13 -24 -13 -48q2 -69 76 -77q8 0 8 -10q0 -7 -8 -7q-94 11 -94 90
q0 29 15 60q60 109 196 109q89 0 175 -45q44 15 100 23q11 0 11 -11q0 -7 -8 -7q-42 -6 -76 -20q70 -43 110 -108q30 -49 30 -106q0 -18 -3 -36q-19 -88 -87 -128.5t-150 -62.5q118 -42 186 -125q46 -56 46 -135q0 -40 -11 -85q-33 -108 -134 -169q-124 -75 -275 -75
q-96 0 -178 35q-58 -177 -123 -361q-12 -30 -36 -33zM511 1152q40 37 97 62q-31 18 -66 28zM82 420q46 45 86 93q-78 -29 -86 -93zM146 275l74 194q-57 -61 -129 -116q22 -48 55 -78zM351 207q30 0 99.5 10t157.5 70.5t118 159.5q9 35 9 69q0 63 -40.5 134t-130.5 108
q-14 5 -24 7q-32 8 -32 12q0 2 10.5 4t24.5 5q71 6 136.5 76.5t65.5 151.5q0 43 -24.5 91.5t-82.5 89.5q-83 -53 -131 -148.5t-84 -206.5q-35 -106 -81 -202l-29 -91q12 0 23.5 -0.5t11.5 -10.5q0 -8 -9 -8l-32 1q-46 -147 -94 -296q64 -26 138 -26z" />
    <glyph glyph-name="agrave" unicode="&#xe0;" horiz-adv-x="589" 
d="M390 628q-14 0 -74 31q-56 28 -105 72q-41 39 -41 70q0 21 19 40q25 20 48 20q37 0 74.5 -50t59.5 -111q19 -56 19 -72zM231 15q-35 1 -35 65q0 47 11 87q-42 -46 -86 -77q-71 -48 -112 -48q-19 0 -32 10q-33 26 -33 89q0 16 7 70.5t58 154t130 161.5q59 47 128 47
q24 0 50.5 -6.5t39.5 -38.5q18 21 43 21q39 0 53 -32q6 -12 6 -24q0 -15 -11 -37v2q-8 -18 -11 -22q-15 -27 -59 -119q-68 -139 -68 -185q0 -18 13 -18q28 0 106 79l156 147q5 7 11 7q16 0 16 -14q0 -15 -117 -124q-91 -85 -166 -144q-63 -51 -98 -51zM10 66q27 0 95 47
q60 43 121 124q43 125 109 249q0 11 -2 20q-7 35 -27 35q-26 0 -81 -60t-114.5 -147t-94.5 -163q-25 -52 -25 -79q0 -26 19 -26z" />
    <glyph glyph-name="aacute" unicode="&#xe1;" horiz-adv-x="590" 
d="M326 631q0 16 20 72q21 61 59 111t74 50q24 0 48 -20q19 -19 19 -40q0 -31 -41 -70q-49 -44 -104 -72q-60 -31 -75 -31zM231 15q-35 1 -35 65q0 47 11 87q-42 -46 -86 -77q-71 -48 -112 -48q-19 0 -32 10q-33 26 -33 89q0 16 7 70.5t58 154t130 161.5q59 47 128 47
q24 0 50.5 -6.5t39.5 -38.5q18 21 43 21q39 0 53 -32q6 -12 6 -24q0 -15 -11 -37v2q-8 -18 -11 -22q-15 -27 -59 -119q-68 -139 -68 -185q0 -18 13 -18q28 0 106 79l156 147q5 7 11 7q16 0 16 -14q0 -15 -117 -124q-91 -85 -166 -144q-63 -51 -98 -51zM10 66q27 0 95 47
q60 43 121 124q43 125 109 249q0 11 -2 20q-7 35 -27 35q-26 0 -81 -60t-114.5 -147t-94.5 -163q-25 -52 -25 -79q0 -26 19 -26z" />
    <glyph glyph-name="acircumflex" unicode="&#xe2;" horiz-adv-x="591" 
d="M441 624q-18 0 -23 17l-45 138l-98 -126q-7 -9 -20 -9q-8 0 -14 5q-10 8 -10 19q0 8 5 16l127 163q9 10 20 10q19 0 24 -19q60 -186 60 -190q0 -6 -4 -13q-6 -11 -22 -11zM231 15q-35 1 -35 65q0 47 11 87q-42 -46 -86 -77q-71 -48 -112 -48q-19 0 -32 10q-33 26 -33 89
q0 16 7 70.5t58 154t130 161.5q59 47 128 47q24 0 50.5 -6.5t39.5 -38.5q18 21 43 21q39 0 53 -32q6 -12 6 -24q0 -15 -11 -37v2q-8 -18 -11 -22q-15 -27 -59 -119q-68 -139 -68 -185q0 -18 13 -18q28 0 106 79l156 147q5 7 11 7q16 0 16 -14q0 -15 -117 -124
q-91 -85 -166 -144q-63 -51 -98 -51zM10 66q27 0 95 47q60 43 121 124q43 125 109 249q0 11 -2 20q-7 35 -27 35q-26 0 -81 -60t-114.5 -147t-94.5 -163q-25 -52 -25 -79q0 -26 19 -26z" />
    <glyph glyph-name="atilde" unicode="&#xe3;" horiz-adv-x="590" 
d="M258 625q-22 0 -42 23t-22 122q0 13 8 13q7 0 7 -13q3 -71 59 -71q40 0 88 35q48 32 84 32q21 0 43 -18t31 -87v-2q0 -12 -8 -12q-6 0 -7 10q-6 34 -30 41q-12 4 -24 4q-14 0 -35 -6t-36 -16l-4 -2q-77 -53 -112 -53zM231 15q-35 1 -35 65q0 47 11 87q-42 -46 -86 -77
q-71 -48 -112 -48q-19 0 -32 10q-33 26 -33 89q0 16 7 70.5t58 154t130 161.5q59 47 128 47q24 0 50.5 -6.5t39.5 -38.5q18 21 43 21q39 0 53 -32q6 -12 6 -24q0 -15 -11 -37v2q-8 -18 -11 -22q-15 -27 -59 -119q-68 -139 -68 -185q0 -18 13 -18q28 0 106 79l156 147
q5 7 11 7q16 0 16 -14q0 -15 -117 -124q-91 -85 -166 -144q-63 -51 -98 -51zM10 66q27 0 95 47q60 43 121 124q43 125 109 249q0 11 -2 20q-7 35 -27 35q-26 0 -81 -60t-114.5 -147t-94.5 -163q-25 -52 -25 -79q0 -26 19 -26z" />
    <glyph glyph-name="adieresis" unicode="&#xe4;" horiz-adv-x="589" 
d="M287 650q-4 0 -5 1q-34 6 -34 46q0 5 1 6q3 19 15.5 30.5t29.5 11.5h5q34 -8 34 -47q0 -5 -1 -6q-3 -19 -15.5 -30.5t-29.5 -11.5zM403 650q-4 0 -5 1q-34 6 -34 43v8q0 17 16 32q13 11 29 11h5q35 -8 35 -44l-1 -8q0 -17 -16 -32q-13 -11 -29 -11zM231 15q-35 1 -35 65
q0 47 11 87q-42 -46 -86 -77q-71 -48 -112 -48q-19 0 -32 10q-33 26 -33 89q0 16 7 70.5t58 154t130 161.5q59 47 128 47q24 0 50.5 -6.5t39.5 -38.5q18 21 43 21q39 0 53 -32q6 -12 6 -24q0 -15 -11 -37v2q-8 -18 -11 -22q-15 -27 -59 -119q-68 -139 -68 -185q0 -18 13 -18
q28 0 106 79l156 147q5 7 11 7q16 0 16 -14q0 -15 -117 -124q-91 -85 -166 -144q-63 -51 -98 -51zM10 66q27 0 95 47q60 43 121 124q43 125 109 249q0 11 -2 20q-7 35 -27 35q-26 0 -81 -60t-114.5 -147t-94.5 -163q-25 -52 -25 -79q0 -26 19 -26z" />
    <glyph glyph-name="aring" unicode="&#xe5;" horiz-adv-x="590" 
d="M371 625q-37 0 -62.5 27.5t-25.5 66.5t25.5 66.5t62.5 27.5t63 -27.5t26 -66.5t-26 -66.5t-63 -27.5zM371 649q27 0 45.5 20.5t18.5 49.5t-18.5 49.5t-45.5 20.5q-26 0 -45 -20.5t-19 -49.5t19 -49.5t45 -20.5zM231 15q-35 1 -35 65q0 47 11 87q-42 -46 -86 -77
q-71 -48 -112 -48q-19 0 -32 10q-33 26 -33 89q0 16 7 70.5t58 154t130 161.5q59 47 128 47q24 0 50.5 -6.5t39.5 -38.5q18 21 43 21q39 0 53 -32q6 -12 6 -24q0 -15 -11 -37v2q-8 -18 -11 -22q-15 -27 -59 -119q-68 -139 -68 -185q0 -18 13 -18q28 0 106 79l156 147
q5 7 11 7q16 0 16 -14q0 -15 -117 -124q-91 -85 -166 -144q-63 -51 -98 -51zM10 66q27 0 95 47q60 43 121 124q43 125 109 249q0 11 -2 20q-7 35 -27 35q-26 0 -81 -60t-114.5 -147t-94.5 -163q-25 -52 -25 -79q0 -26 19 -26z" />
    <glyph glyph-name="ae" unicode="&#xe6;" horiz-adv-x="1011" 
d="M18 68q28 0 99 49q63 46 126 130q46 130 114 260q0 12 -2 21q-7 36 -28 36q-28 0 -85 -62.5t-119 -153.5t-99 -170q-26 -54 -26 -83q0 -27 20 -27zM679 333q71 0 127 59q38 39 57 86q15 34 15 73q0 34 -17 34q-11 0 -30 -13q-70 -53 -170 -238zM521 228q-8 -9 -18 -19
q-74 -79 -152 -141q-66 -53 -103 -53q-36 1 -36 68q0 31 8 80l3 11q-43 -48 -89 -81q-74 -50 -117 -50q-21 0 -34 11q-34 27 -34 93q0 17 7 73.5t60.5 160.5t136.5 169q62 49 133 49q25 0 53 -7t41 -40q19 22 45 22q40 0 56 -34q6 -12 6 -24q0 -16 -11 -38l-1 -1v2l-3 -7
q-5 -12 -8 -15v-2q-16 -28 -62 -123q-71 -146 -71 -193q0 -19 14 -19q29 0 110 82q61 62 94 101q17 42 41 86q89 172 188 245q36 22 61 22q18 0 39 -17q28 -23 28 -90q0 -96 -79 -178q-42 -44 -102 -62q-22 -6 -45 -6q-17 0 -34 3q-74 -145 -74 -223q0 -48 36 -48
q21 0 54 16q72 37 137 96t126 122q79 83 89 83q6 0 10.5 -4.5t4.5 -10.5q-1 -6 -5 -11q-40 -38 -81 -81q-61 -63 -126.5 -122t-137.5 -97q-71 -34 -114 -34q-4 0 -20.5 1t-33.5 22.5t-17 71.5q3 65 27 141z" />
    <glyph glyph-name="ccedilla" unicode="&#xe7;" horiz-adv-x="582" 
d="M131 -183q-29 0 -29 25q0 20 20 24q58 13 58 42q0 22 -62 29q-10 1 -16.5 8t-6.5 17q1 17 7 32l-23 -1q-65 0 -103 45q-27 34 -27 100q0 132 82 264q56 90 139 142q53 33 111 33q34 0 70 -11h1v-1q28 -8 28 -44q0 -20 -9 -43q-23 -62 -65 -116q-5 -4 -14 -4q-4 0 -8 3.5
t-4 12.5q0 4 2 8q15 17 33 46q35 60 35 93q0 10 -4 15q-12 6 -32 6q-48 0 -99 -53.5t-90 -137.5q-48 -103 -48 -164q0 -46 24.5 -78t75.5 -36q87 0 163 59t144 133q88 92 102 92q15 0 15 -14q0 -8 -5 -12q-74 -63 -129 -122.5t-118 -109.5q-78 -62 -190 -94q-1 -4 -3.5 -10
t-5.5 -13q79 -17 79 -74q0 -20 -12 -39q-24 -38 -86 -52z" />
    <glyph glyph-name="egrave" unicode="&#xe8;" horiz-adv-x="442" 
d="M-1 -8q-4 0 -20.5 1t-33.5 22.5t-17 71.5q6 130 95.5 302t188.5 245q36 22 61 22q18 0 39 -17q28 -23 28 -90q0 -96 -79 -178q-42 -44 -102 -62q-22 -6 -45 -6q-17 0 -34 3q-74 -145 -74 -223q0 -48 36 -48q21 0 54 16q72 37 137 96t126 122q79 83 89 83q6 0 10.5 -4.5
t4.5 -10.5q-1 -6 -5 -11q-40 -38 -81 -81q-61 -63 -126.5 -122t-137.5 -97q-71 -34 -114 -34zM113 333q71 0 127 59q38 39 57 86q15 34 15 73q0 34 -17 34q-11 0 -30 -13q-70 -53 -170 -238zM363 683q-14 0 -74 31q-56 28 -105 72q-41 39 -41 70q0 21 19 40q25 20 48 20
q36 0 74 -50t60 -111q19 -56 19 -72z" />
    <glyph glyph-name="eacute" unicode="&#xe9;" horiz-adv-x="442" 
d="M-3 -8q-4 0 -20.5 1t-33.5 22.5t-17 71.5q6 130 95.5 302t188.5 245q36 22 61 22q18 0 39 -17q28 -23 28 -90q0 -96 -79 -178q-42 -44 -102 -62q-22 -6 -45 -6q-17 0 -34 3q-74 -145 -74 -223q0 -48 36 -48q21 0 54 16q72 37 137 96t126 122q79 83 89 83q6 0 10.5 -4.5
t4.5 -10.5q-1 -6 -5 -11q-40 -38 -81 -81q-61 -63 -126.5 -122t-137.5 -97q-71 -34 -114 -34zM111 333q71 0 127 59q38 39 57 86q15 34 15 73q0 34 -17 34q-11 0 -30 -13q-70 -53 -170 -238zM261 711q0 16 20 72q21 61 59 111t74 50q23 0 48 -20q19 -19 19 -40
q0 -31 -41 -70q-49 -44 -104 -72q-60 -31 -75 -31z" />
    <glyph glyph-name="ecircumflex" unicode="&#xea;" horiz-adv-x="444" 
d="M-1 -8q-4 0 -20.5 1t-33.5 22.5t-17 71.5q6 130 95.5 302t188.5 245q36 22 61 22q18 0 39 -17q28 -23 28 -90q0 -96 -79 -178q-42 -44 -102 -62q-22 -6 -45 -6q-17 0 -34 3q-74 -145 -74 -223q0 -48 36 -48q21 0 54 16q72 37 137 96t126 122q79 83 89 83q6 0 10.5 -4.5
t4.5 -10.5q-1 -6 -5 -11q-40 -38 -81 -81q-61 -63 -126.5 -122t-137.5 -97q-71 -34 -114 -34zM113 333q71 0 127 59q38 39 57 86q15 34 15 73q0 34 -17 34q-11 0 -30 -13q-70 -53 -170 -238zM370 701q-18 0 -23 17l-45 138l-98 -126q-7 -9 -20 -9q-8 0 -14 5q-10 8 -10 19
q0 8 5 16l127 163q9 10 20 10q19 0 24 -19q59 -186 59 -190q0 -6 -3 -13q-6 -11 -22 -11z" />
    <glyph glyph-name="edieresis" unicode="&#xeb;" horiz-adv-x="442" 
d="M-3 -8q-4 0 -20.5 1t-33.5 22.5t-17 71.5q6 130 95.5 302t188.5 245q36 22 61 22q18 0 39 -17q28 -23 28 -90q0 -96 -79 -178q-42 -44 -102 -62q-22 -6 -45 -6q-17 0 -34 3q-74 -145 -74 -223q0 -48 36 -48q21 0 54 16q72 37 137 96t126 122q79 83 89 83q6 0 10.5 -4.5
t4.5 -10.5q-1 -6 -5 -11q-40 -38 -81 -81q-61 -63 -126.5 -122t-137.5 -97q-71 -34 -114 -34zM111 333q71 0 127 59q38 39 57 86q15 34 15 73q0 34 -17 34q-11 0 -30 -13q-70 -53 -170 -238zM237 697q-4 0 -5 1q-34 6 -34 46q0 5 1 6q3 19 15.5 30.5t29.5 11.5h5
q34 -8 34 -47q0 -5 -1 -6q-3 -19 -15.5 -30.5t-29.5 -11.5zM353 697q-4 0 -5 1q-34 6 -34 43v8q0 17 16 32q13 11 29 11h5q34 -8 34 -44v-8q0 -17 -16 -32q-13 -11 -29 -11z" />
    <glyph glyph-name="igrave" unicode="&#xec;" horiz-adv-x="438" 
d="M276 637q-18 0 -91 37q-68 34 -127 88q-50 48 -50 85q0 26 23 50q30 24 58 24q45 0 91 -61t72 -135q24 -68 24 -88zM-6 18h-8q-63 0 -86 51q-7 16 -7 38q0 52 39 134q47 89 113.5 167t95 104.5t37.5 26.5q16 0 16 -15q0 -12 -3.5 -23t-79.5 -124q-149 -220 -149 -291
q0 -40 40 -40q107 0 412 292l21 22q5 6 12 6t12 -5.5t5 -12.5q0 -8 -25 -33q-296 -290 -445 -297z" />
    <glyph glyph-name="iacute" unicode="&#xed;" horiz-adv-x="437" 
d="M178 559q0 16 19 72q22 61 60 111t74 50q23 0 48 -20q19 -19 19 -40q0 -31 -41 -70q-49 -44 -105 -72q-60 -31 -74 -31zM-6 18h-8q-63 0 -86 51q-7 16 -7 38q0 52 39 134q47 89 113.5 167t95 104.5t37.5 26.5q16 0 16 -15q0 -12 -3.5 -23t-79.5 -124q-149 -220 -149 -291
q0 -40 40 -40q107 0 412 292l21 22q5 6 12 6t12 -5.5t5 -12.5q0 -8 -25 -33q-296 -290 -445 -297z" />
    <glyph glyph-name="icircumflex" unicode="&#xee;" horiz-adv-x="438" 
d="M262 526q-17 0 -22 17l-45 138l-98 -126q-7 -9 -20 -9q-8 0 -14 5q-10 8 -10 19q0 8 5 16l127 163q9 10 20 10q19 0 24 -19q59 -186 59 -190q0 -6 -3 -13q-6 -11 -23 -11zM-6 18h-8q-63 0 -86 51q-7 16 -7 38q0 52 39 134q47 89 113.5 167t95 104.5t37.5 26.5
q16 0 16 -15q0 -12 -3.5 -23t-79.5 -124q-149 -220 -149 -291q0 -40 40 -40q107 0 412 292l21 22q5 6 12 6t12 -5.5t5 -12.5q0 -8 -25 -33q-296 -290 -445 -297z" />
    <glyph glyph-name="idieresis" unicode="&#xef;" horiz-adv-x="437" 
d="M138 584q-4 0 -5 1q-34 6 -34 46q0 5 1 6q3 19 15.5 30.5t29.5 11.5h5q34 -8 34 -47q0 -5 -1 -6q-3 -19 -15.5 -30.5t-29.5 -11.5zM254 584q-4 0 -5 1q-34 6 -34 43v8q0 17 16 32q13 11 29 11h5q34 -8 34 -44v-8q0 -17 -16 -32q-13 -11 -29 -11zM-6 18h-8q-63 0 -86 51
q-7 16 -7 38q0 52 39 134q47 89 113.5 167t95 104.5t37.5 26.5q16 0 16 -15q0 -12 -3.5 -23t-79.5 -124q-149 -220 -149 -291q0 -40 40 -40q107 0 412 292l21 22q5 6 12 6t12 -5.5t5 -12.5q0 -8 -25 -33q-296 -290 -445 -297z" />
    <glyph glyph-name="eth" unicode="&#xf0;" horiz-adv-x="564" 
d="M68 21q-25 0 -52 15q-68 48 -68 133q0 5 1.5 53.5t56 143t130.5 154.5q63 48 124 48q13 0 27 -3l-30 61l-77 -46q-20 -11 -36 -11q-21 0 -21 14q0 19 30 38l83 49l-52 104q-8 17 -8 30q0 24 14 24q21 0 39 -34l49 -100l98 59q21 10 40 10q17 0 17 -15q0 -17 -30 -36
l-104 -62q82 -136 82 -286q87 2 135 2q32 0 47 -1.5t15 -16.5t-18 -15q-37 2 -110 2q-74 -1 -97.5 -26t-61.5 -82t-82 -112t-93 -81q-23 -13 -48 -13zM67 54q53 0 124 90q63 80 75 103q52 80 88 104q-5 5 -5 11l1 25q0 33 -6 68q-9 44 -43 72q-7 3 -15 3q-32 0 -84 -53.5
t-104.5 -143t-75.5 -166.5q-9 -33 -9 -56q0 -57 54 -57z" />
    <glyph glyph-name="ntilde" unicode="&#xf1;" horiz-adv-x="734" 
d="M259 598q-18 0 -34 18t-17 97q0 10 6 10t6 -10q2 -56 48 -56q32 0 70 27q39 26 68 26q18 0 35.5 -14.5t24.5 -69.5v-1q0 -10 -6 -10q-5 0 -6 8q-4 27 -24 33q-10 3 -19 3q-11 0 -28.5 -5t-29.5 -12q-1 -2 -4 -2q-62 -42 -90 -42zM365 14h-3l-1 1q-36 12 -36 56l3 38
q7 61 101 257q61 127 61 156q0 13 -8 13q-44 0 -281 -285q-26 -36 -126 -147q-75 -83 -103 -83q-14 0 -21 16q-21 43 -21 93t33 135.5t100 178.5q92 126 107 126q2 0 8.5 -0.5t12.5 -6.5t6 -12q0 -4 -3 -9q-18 -34 -65 -134.5t-91.5 -202.5t-55.5 -141q39 27 183 198
q1 3 4 4q100 123 192 218q82 85 125 85q15 0 26 -10h1v-1q34 -40 34 -93q0 -15 -6 -58q-13 -80 -119 -253q-50 -81 -50 -98q0 -4 2 -6q35 6 348 304l7 7q6 6 13 6t12.5 -5t5.5 -13q0 -7 -5 -12q-314 -320 -390 -322z" />
    <glyph glyph-name="ograve" unicode="&#xf2;" horiz-adv-x="581" 
d="M326 612q-15 0 -75 31q-55 28 -104 72q-41 39 -41 70q0 21 19 40q24 20 48 20q36 0 74 -50t59 -111q20 -56 20 -72zM65 17q-25 0 -53 14q-70 50 -70 138q0 9 4.5 65t68 156.5t147.5 155.5q51 33 98 33q33 0 63 -15q47 -36 59 -94q7 -42 7 -82l-1 -19q12 4 47 4
q159 0 159 -25q0 -16 -19 -16q-53 4 -93 4q-101 0 -123 -24q-25 -27 -63.5 -84.5t-84 -113.5t-96.5 -84q-24 -13 -50 -13zM66 50q22 0 54 21q52 33 149 175q59 90 92 109q-6 5 -6 12l1 26q0 34 -6 70q-9 46 -44 73q-7 3 -15 3q-34 0 -86.5 -54.5t-107 -146.5t-78.5 -172
q-9 -34 -9 -57q0 -59 56 -59z" />
    <glyph glyph-name="oacute" unicode="&#xf3;" horiz-adv-x="575" 
d="M271 601q0 16 19 72q22 61 59.5 111t74.5 50q23 0 48 -20q19 -19 19 -40q0 -31 -41 -70q-49 -44 -105 -72q-60 -31 -74 -31zM65 17q-25 0 -53 14q-70 50 -70 138q0 9 4.5 65t68 156.5t147.5 155.5q51 33 98 33q33 0 63 -15q47 -36 59 -94q7 -42 7 -82l-1 -19q12 4 47 4
q159 0 159 -25q0 -16 -19 -16q-53 4 -93 4q-101 0 -123 -24q-25 -27 -63.5 -84.5t-84 -113.5t-96.5 -84q-24 -13 -50 -13zM66 50q22 0 54 21q52 33 149 175q59 90 92 109q-6 5 -6 12l1 26q0 34 -6 70q-9 46 -44 73q-7 3 -15 3q-34 0 -86.5 -54.5t-107 -146.5t-78.5 -172
q-9 -34 -9 -57q0 -59 56 -59z" />
    <glyph glyph-name="ocircumflex" unicode="&#xf4;" horiz-adv-x="578" 
d="M351 576q-17 0 -22 17l-45 138l-98 -126q-7 -9 -21 -9q-7 0 -13 5q-10 8 -10 19q0 8 5 16l127 163q9 10 20 10q19 0 24 -19q59 -186 59 -190q0 -6 -4 -13q-5 -11 -22 -11zM65 17q-25 0 -53 14q-70 50 -70 138q0 9 4.5 65t68 156.5t147.5 155.5q51 33 98 33q33 0 63 -15
q47 -36 59 -94q7 -42 7 -82l-1 -19q12 4 47 4q159 0 159 -25q0 -16 -19 -16q-53 4 -93 4q-101 0 -123 -24q-25 -27 -63.5 -84.5t-84 -113.5t-96.5 -84q-24 -13 -50 -13zM66 50q22 0 54 21q52 33 149 175q59 90 92 109q-6 5 -6 12l1 26q0 34 -6 70q-9 46 -44 73q-7 3 -15 3
q-34 0 -86.5 -54.5t-107 -146.5t-78.5 -172q-9 -34 -9 -57q0 -59 56 -59z" />
    <glyph glyph-name="otilde" unicode="&#xf5;" horiz-adv-x="576" 
d="M167 607q-22 0 -41.5 23t-21.5 122q0 13 7 13q8 0 8 -13q2 -71 59 -71q40 0 87 35q49 32 84 32q22 0 43.5 -18t30.5 -87v-2q0 -12 -7 -12t-8 10q-5 34 -30 41q-11 4 -23 4q-14 0 -35 -6t-36 -16q-2 -1 -5 -2q-77 -53 -112 -53zM65 17q-25 0 -53 14q-70 50 -70 138
q0 9 4.5 65t68 156.5t147.5 155.5q51 33 98 33q33 0 63 -15q47 -36 59 -94q7 -42 7 -82l-1 -19q12 4 47 4q159 0 159 -25q0 -16 -19 -16q-53 4 -93 4q-101 0 -123 -24q-25 -27 -63.5 -84.5t-84 -113.5t-96.5 -84q-24 -13 -50 -13zM66 50q22 0 54 21q52 33 149 175
q59 90 92 109q-6 5 -6 12l1 26q0 34 -6 70q-9 46 -44 73q-7 3 -15 3q-34 0 -86.5 -54.5t-107 -146.5t-78.5 -172q-9 -34 -9 -57q0 -59 56 -59z" />
    <glyph glyph-name="odieresis" unicode="&#xf6;" horiz-adv-x="576" 
d="M209 608q-4 0 -5 1q-34 6 -34 46q0 5 1 6q3 19 15.5 30.5t29.5 11.5h5q34 -8 34 -47q0 -5 -1 -6q-3 -19 -15.5 -30.5t-29.5 -11.5zM325 608q-4 0 -5 1q-35 6 -35 43l1 8q0 17 16 32q13 11 29 11h5q34 -8 34 -44v-8q0 -17 -16 -32q-13 -11 -29 -11zM65 17q-25 0 -53 14
q-70 50 -70 138q0 9 4.5 65t68 156.5t147.5 155.5q51 33 98 33q33 0 63 -15q47 -36 59 -94q7 -42 7 -82l-1 -19q12 4 47 4q159 0 159 -25q0 -16 -19 -16q-53 4 -93 4q-101 0 -123 -24q-25 -27 -63.5 -84.5t-84 -113.5t-96.5 -84q-24 -13 -50 -13zM66 50q22 0 54 21
q52 33 149 175q59 90 92 109q-6 5 -6 12l1 26q0 34 -6 70q-9 46 -44 73q-7 3 -15 3q-34 0 -86.5 -54.5t-107 -146.5t-78.5 -172q-9 -34 -9 -57q0 -59 56 -59z" />
    <glyph glyph-name="divide" unicode="&#xf7;" horiz-adv-x="586" 
d="M70 308q-21 0 -35 14t-15 35q0 21 13.5 35t34.5 15l268 8q21 0 35.5 -14t14.5 -37q0 -19 -13 -33t-34 -15zM194 166h-4q-16 0 -27 18q-8 12 -8 27v8q9 42 46 42h5q16 -3 25 -17t9 -30l-1 -5q0 -17 -16 -32q-12 -11 -29 -11zM194 451h-4q-16 0 -27 18q-8 12 -8 27v8
q9 42 46 42h5q16 -3 25 -17t9 -30l-1 -5q0 -17 -16 -32q-12 -11 -29 -11z" />
    <glyph glyph-name="oslash" unicode="&#xf8;" horiz-adv-x="542" 
d="M183 151q33 40 75 103q53 82 88 105q-5 4 -5 11q0 54 -5 90q-9 44 -43 69q-5 2 -11 2l-29 -114q-33 -132 -70 -266zM66 69q12 0 27 6q57 183 114 358l26 78q-66 -48 -137 -169q-51 -87 -73 -163q-9 -31 -9 -54q0 -56 52 -56zM58 -189q-13 0 -23.5 10t-10.5 25
q0 11 58 195l-18 -3q-26 0 -47 15q-67 47 -67 129q0 9 4 62t64 148t141 147q47 31 93 31q68 208 134 428q3 9 13 9q11 -4 11 -12q-64 -221 -119 -432q10 -3 20 -8q44 -33 55 -89q6 -39 6 -95q27 10 55 10q18 0 50.5 -7t70.5 -9q14 0 14 -17q-2 -14 -17 -14q-38 2 -101 12
q-13 2 -26 2q-45 0 -74 -29q-23 -25 -59 -80q-54 -82 -120 -152q-34 -122 -70 -247q-10 -26 -20.5 -27.5t-16.5 -1.5z" />
    <glyph glyph-name="ugrave" unicode="&#xf9;" horiz-adv-x="800" 
d="M394 683q-14 0 -74 31q-56 28 -105 72q-41 39 -41 70q0 21 19 40q25 20 48 20q37 0 74.5 -50t59.5 -111q19 -56 19 -72zM353 11q-82 0 -82 83q0 22 6 49q-11 -13 -22 -24q-1 0 -1 -1q-91 -95 -178 -95q-39 0 -72 36q-37 39 -37 130q0 76 27 144q75 180 153 233
q18 12 35 12q21 0 21 -16q0 -10 -8 -25q-17 -33 -46 -102q-88 -210 -88 -317q0 -57 38 -57q54 0 132 80v1q37 38 73 83q45 116 133 224q60 74 116 111q19 12 28 12q7 0 7 -9q0 -29 -72 -148q-125 -204 -125 -296q0 -30 18 -45q8 -7 22 -7q30 0 89 32q157 89 290 253
q7 5 14 5q5 0 10 -4.5t5 -12.5q0 -5 -3 -9q-144 -172 -301 -260q-109 -60 -182 -60z" />
    <glyph glyph-name="uacute" unicode="&#xfa;" horiz-adv-x="807" 
d="M320 638q0 16 20 72q21 61 59 111t74 50q24 0 48 -20q19 -19 19 -40q0 -31 -41 -70q-49 -44 -104 -72q-60 -31 -75 -31zM353 11q-82 0 -82 83q0 22 6 49q-11 -13 -22 -24q-1 0 -1 -1q-91 -95 -178 -95q-39 0 -72 36q-37 39 -37 130q0 76 27 144q75 180 153 233
q18 12 35 12q21 0 21 -16q0 -10 -8 -25q-17 -33 -46 -102q-88 -210 -88 -317q0 -57 38 -57q54 0 132 80v1q37 38 73 83q45 116 133 224q60 74 116 111q19 12 28 12q7 0 7 -9q0 -29 -72 -148q-125 -204 -125 -296q0 -30 18 -45q8 -7 22 -7q30 0 89 32q157 89 290 253
q7 5 14 5q5 0 10 -4.5t5 -12.5q0 -5 -3 -9q-144 -172 -301 -260q-109 -60 -182 -60z" />
    <glyph glyph-name="ucircumflex" unicode="&#xfb;" horiz-adv-x="811" 
d="M469 643q-18 0 -23 17l-45 138l-98 -126q-7 -9 -20 -9q-8 0 -14 5q-10 8 -10 19q0 8 5 16l127 163q9 10 20 10q19 0 24 -19q59 -186 59 -190q0 -6 -3 -13q-6 -11 -22 -11zM353 11q-82 0 -82 83q0 22 6 49q-11 -13 -22 -24q-1 0 -1 -1q-91 -95 -178 -95q-39 0 -72 36
q-37 39 -37 130q0 76 27 144q75 180 153 233q18 12 35 12q21 0 21 -16q0 -10 -8 -25q-17 -33 -46 -102q-88 -210 -88 -317q0 -57 38 -57q54 0 132 80v1q37 38 73 83q45 116 133 224q60 74 116 111q19 12 28 12q7 0 7 -9q0 -29 -72 -148q-125 -204 -125 -296q0 -30 18 -45
q8 -7 22 -7q30 0 89 32q157 89 290 253q7 5 14 5q5 0 10 -4.5t5 -12.5q0 -5 -3 -9q-144 -172 -301 -260q-109 -60 -182 -60z" />
    <glyph glyph-name="udieresis" unicode="&#xfc;" horiz-adv-x="811" 
d="M302 642q-4 0 -5 1q-34 6 -34 46q0 5 1 6q3 19 15.5 30.5t29.5 11.5h5q34 -8 34 -47q0 -5 -1 -6q-3 -19 -15.5 -30.5t-29.5 -11.5zM418 642q-4 0 -5 1q-34 6 -34 43v8q0 17 16 32q13 11 29 11h5q35 -8 35 -44l-1 -8q0 -17 -16 -32q-13 -11 -29 -11zM353 11q-82 0 -82 83
q0 22 6 49q-11 -13 -22 -24q-1 0 -1 -1q-91 -95 -178 -95q-39 0 -72 36q-37 39 -37 130q0 76 27 144q75 180 153 233q18 12 35 12q21 0 21 -16q0 -10 -8 -25q-17 -33 -46 -102q-88 -210 -88 -317q0 -57 38 -57q54 0 132 80v1q37 38 73 83q45 116 133 224q60 74 116 111
q19 12 28 12q7 0 7 -9q0 -29 -72 -148q-125 -204 -125 -296q0 -30 18 -45q8 -7 22 -7q30 0 89 32q157 89 290 253q7 5 14 5q5 0 10 -4.5t5 -12.5q0 -5 -3 -9q-144 -172 -301 -260q-109 -60 -182 -60z" />
    <glyph glyph-name="yacute" unicode="&#xfd;" horiz-adv-x="747" 
d="M-252 -932q-6 0 -27.5 5.5t-33.5 59.5q-6 30 -6 65q0 98 37 186q92 209 239.5 367.5t328.5 294.5q68 121 141.5 262.5t105.5 212.5q-49 -57 -118 -154t-148.5 -195t-160.5 -157q-58 -43 -112 -43q-20 0 -40 6q-64 24 -64 90q0 102 106 272q57 91 77 118q14 18 30 18
q17 0 17 -22q0 -15 -13 -42q-74 -135 -98 -243q-6 -24 -6 -42q0 -62 57 -62q31 0 85 39.5t129 131t140.5 181t103.5 131.5q26 26 38 26q13 0 13 -23q0 -50 -135 -393q168 115 312 192q4 2 7 2q15 0 15 -15q0 -9 -8 -13q-160 -86 -346 -216q-26 -64 -84 -186
q-96 -206 -230.5 -444t-254.5 -356q-60 -54 -97 -54zM-257 -901q25 0 71 55q125 169 384 696q49 101 69 136q-164 -128 -301 -276t-221 -338q-37 -91 -37 -184q0 -54 18 -79q7 -10 17 -10zM290 593q0 16 20 72q21 61 59 111t74 50q24 0 48 -20q19 -19 19 -40q0 -31 -41 -70
q-49 -44 -104 -72q-60 -31 -75 -31z" />
    <glyph glyph-name="ydieresis" unicode="&#xff;" horiz-adv-x="747" 
d="M-253 -932q-6 0 -27.5 5.5t-33.5 59.5q-6 30 -6 65q0 98 37 186q92 209 239.5 367.5t328.5 294.5q68 121 141.5 262.5t105.5 212.5q-49 -57 -118 -154t-148.5 -195t-160.5 -157q-58 -43 -112 -43q-20 0 -40 6q-64 24 -64 90q0 102 106 272q57 91 77 118q14 18 30 18
q17 0 17 -22q0 -15 -13 -42q-74 -135 -98 -243q-6 -24 -6 -42q0 -62 57 -62q31 0 85 39.5t129 131t140.5 181t103.5 131.5q26 26 38 26q13 0 13 -23q0 -50 -135 -393q168 115 312 192q4 2 7 2q15 0 15 -15q0 -9 -8 -13q-160 -86 -346 -216q-26 -64 -84 -186
q-96 -206 -230.5 -444t-254.5 -356q-60 -54 -97 -54zM-258 -901q25 0 71 55q125 169 384 696q49 101 69 136q-164 -128 -301 -276t-221 -338q-37 -91 -37 -184q0 -54 18 -79q7 -10 17 -10zM250 580q-4 0 -5 1q-34 6 -34 46q0 5 1 6q3 19 15.5 30.5t29.5 11.5h5q34 -8 34 -47
q0 -5 -1 -6q-3 -19 -15.5 -30.5t-29.5 -11.5zM366 580q-4 0 -5 1q-34 6 -34 43v8q0 17 16 32q13 11 29 11h5q34 -8 34 -44v-8q0 -17 -16 -32q-13 -11 -29 -11z" />
    <glyph glyph-name="OE" unicode="&#x152;" horiz-adv-x="3159" 
d="M586 655q19 0 107.5 4t254.5 45q131 277 337 548q-144 110 -323 152q-102 24 -205 24q-189 0 -380 -81q-198 -89 -287 -208q-60 -79 -60 -161q0 -182 303 -285q117 -38 253 -38zM3030 1261q46 0 83 24q56 35 56 102v2q-13 116 -101 174q-82 53 -184 53q-7 0 -65.5 -2
t-138.5 -68q-62 -57 -85 -148q83 31 138 53l7 3q64 28 78 28q13 0 16 -14q21 -86 59 -133q58 -74 137 -74zM2622 71q69 1 191.5 63.5t202.5 193.5q47 80 47 151q0 62 -39 102q-43 43 -134 43q-122 0 -336 -104q-83 -44 -179 -99l-4 -2q-127 -75 -263 -143
q73 -100 191.5 -152.5t250.5 -52.5h72zM2021 1303q13 16 23 31q100 151 100 259q0 51 -28 80q-42 40 -101 40q-41 0 -125 -34t-226 -164q-36 -33 -71 -68q118 -83 258 -117q86 -21 170 -27zM1492 225q-10 -10 -21 -20l-1 -1q-235 -219 -472 -219q-82 0 -127 40
q-67 61 -67 181q0 32 13.5 137.5t114.5 326.5q-186 -44 -347 -44q-140 0 -261 38q-179 61 -257 151q-67 77 -67 163q0 90 66 179q94 125 299 218q197 83 392 83q106 0 212 -25q185 -44 334 -158q93 119 190 214q-142 126 -252 351q-2 4 -2 7q0 14 15 14q9 0 14 -8
q104 -213 246 -343q45 43 90 82q154 129 293 164q37 9 71 9q95 0 169 -71q37 -38 37 -100q0 -118 -106 -277q-6 -8 -11 -16q18 -1 37 -1q180 0 378 59v13q0 128 112 248q94 91 215 91q87 0 175.5 -42.5t152 -118.5t71.5 -158v-6q0 -82 -69 -126q-43 -29 -98 -29
q-32 0 -66 12q-113 41 -156 206q-16 -5 -46 -17q-40 -20 -176 -68q-8 -45 -8 -90q0 -163 82 -269q3 -4 3 -9q0 -15 -15 -15h-2q-39 6 -78 6q-86 0 -191 -34t-198 -119q-144 -133 -144 -332q0 -27 7.5 -80.5t47.5 -120.5q132 65 255 138q65 39 195 107q220 108 349 108
q101 0 155 -52q48 -48 48 -122q0 -79 -51 -167q-87 -141 -219 -209t-281 -71h-16q-140 0 -273 52t-228 153q-54 -22 -106 -39q-111 -37 -214 -37q-19 0 -87 5q-54 4 -126 58zM1572 1426q-96 -99 -191 -219q41 -41 77 -89q3 -5 3 -11q-2 -12 -14 -12q-9 0 -13 5
q-33 45 -72 83q-168 -215 -298 -447q208 65 392 153q271 130 417 255q-41 126 -195 162q-11 4 -11 15v3q4 11 15 11h3q162 -37 212 -169l8 7q54 54 94 102q-86 8 -181 32q-121 29 -246 119zM2035 1272q-57 -75 -128 -137q11 -49 11 -98q0 -62 -16 -131q-43 -181 -160 -369
q-100 -160 -226 -288q86 -56 195 -56q130 0 293 69q-65 80 -90 183q-12 48 -12 101q0 281 259 404q149 72 338 72q56 0 116 -6q-124 162 -141 312q-138 -40 -302 -55q-41 -3 -82 -3q-27 0 -55 2zM1492 267q125 126 224 285q115 184 157 360q15 68 15 128q0 40 -7 72
q-145 -123 -424 -256q-194 -92 -414 -157q-117 -216 -161 -388q-18 -71 -18 -126q0 -168 151 -168q63 0 155 29q139 49 280 180v1h1q9 9 18 17q-8 7 -17 15q-97 87 -160 280l-1 5q0 14 15 14q11 0 14 -10q60 -182 151 -264q10 -9 21 -17z" />
    <glyph glyph-name="oe" unicode="&#x153;" horiz-adv-x="959" 
d="M52 47q21 0 50 19q48 30 136 160q54 83 84 100q-5 5 -5 11l1 24q0 31 -6 64q-8 42 -40 67q-6 2 -14 2q-30 0 -78.5 -49.5t-98 -134t-71.5 -157.5q-9 -30 -9 -52q0 -54 51 -54zM629 333q71 0 127 59q38 39 57 86q15 34 15 73q0 34 -17 34q-11 0 -30 -13q-70 -53 -170 -238
zM507 323q-29 1 -54 1q-98 0 -132 -37q-24 -25 -59 -77.5t-76.5 -104t-87.5 -76.5q-23 -12 -46 -12q-24 0 -48 13q-65 46 -65 126q0 9 4.5 60t62 143t135.5 142q46 30 90 30q29 0 57 -14q43 -33 53 -86q6 -38 6 -74v-18q43 15 109 15q29 0 63 -2h2q9 18 19 37
q89 172 188 245q36 22 61 22q18 0 39 -17q28 -23 28 -90q0 -96 -79 -178q-42 -44 -102 -62q-22 -6 -45 -6q-17 0 -34 3q-74 -145 -74 -223q0 -48 36 -48q21 0 54 16q72 37 137 96t126 122q79 83 89 83q6 0 10.5 -4.5t4.5 -10.5q-1 -6 -5 -11q-40 -38 -81 -81
q-61 -63 -126.5 -122t-137.5 -97q-71 -34 -114 -34q-4 0 -20.5 1t-33.5 22.5t-17 71.5q5 104 63 236z" />
    <glyph glyph-name="Ydieresis" unicode="&#x178;" horiz-adv-x="1961" 
d="M731 -1067q-8 0 -83.5 2t-195.5 51q-130 55 -197 140q-84 106 -84 241q0 77 28 153q54 144 181 245q-156 105 -187 221q-10 37 -10 73q0 52 22 102q37 81 123 141q115 80 292 96q28 2 56 2q154 0 329 -68q49 -20 94 -44q251 -137 340 -369q101 159 189 353
q149 313 292 528q84 126 168 240q103 138 219 316l6 9q-67 -61 -146.5 -158.5t-165.5 -209.5q-113 -149 -227 -283q-217 -256 -348 -256q-29 0 -55 11l-2 2q-190 100 -190 457q0 38 2 78q-142 -105 -303 -175q-191 -83 -380 -83q-143 0 -283 60q-108 49 -161.5 123.5
t-53.5 166.5q0 89 48 176q50 92 143 167q142 116 360 153q62 11 129 11q165 0 355 -68q9 -3 9 -13q0 -3 -1.5 -7.5t-5.5 -6.5t-7 -2l-6 1q-185 66 -346 66q-62 0 -197 -22.5t-271 -134.5q-89 -71 -136 -158q-44 -81 -44 -164q0 -80 50 -149q48 -67 148 -112q134 -57 273 -57
q28 0 125.5 8t257.5 80t300 179q19 192 84.5 363.5t164.5 266.5q72 70 155 70q31 0 63 -10l1 -1q47 -18 47 -72q0 -76 -84 -207q-113 -181 -321 -360q-15 -120 -15 -230q0 -19 1.5 -91.5t27.5 -161.5q35 -124 120 -124q56 0 138 61t191.5 191.5t218.5 274t207 259t177 163.5
q5 3 8 3q7 0 12 -8q2 -4 2 -7q0 -9 -6 -13q-13 -24 -44 -72q-119 -187 -354 -644q-70 -137 -132 -252q-197 -393 -383 -600q22 -89 22 -177q0 -187 -90 -348q-136 -250 -399 -341q-132 -45 -265 -45zM1300 1139q185 166 290 331q78 122 78 191q0 35 -26 45q-23 7 -44 7
q-60 0 -119.5 -65.5t-107.5 -205t-71 -303.5zM1112 -352q178 57 306 241q-38 110 -120 206q-118 136 -305 209q-169 66 -317 66q-26 0 -123.5 -8t-207.5 -84q-79 -55 -113 -129q-19 -43 -19 -89q0 -150 192 -277q87 61 197 85q50 11 104 11q112 0 212 -43q139 -60 194 -188z
M944 -377q76 0 139 17q-7 18 -17 34q-54 90 -159 135q-92 40 -200 40q-149 0 -274 -83q92 -53 227 -97q159 -46 284 -46zM732 -1037q127 0 255 43q250 87 382 327q86 158 86 336q0 75 -16 150q-136 -142 -318 -200q12 -39 12 -84q0 -77 -38 -165q-4 -9 -14 -9l-5 1
q-9 5 -9 14l1 6q35 80 35 155q0 40 -10 75q-73 -20 -156 -20q-130 0 -285 48q-148 48 -246 107q-127 -96 -178 -237q-27 -73 -27 -147q0 -122 78 -219q63 -79 185.5 -130t267.5 -51zM1972 1678q-4 0 -5 1q-34 6 -34 46q0 5 1 6q3 19 15.5 30.5t29.5 11.5h5q34 -8 34 -47
q0 -5 -1 -6q-3 -19 -15.5 -30.5t-29.5 -11.5zM2088 1678q-4 0 -5 1q-34 6 -34 43v8q0 17 16 32q13 11 29 11h5q35 -8 35 -44l-1 -8q0 -17 -16 -32q-13 -11 -29 -11z" />
    <glyph glyph-name="quoteleft" unicode="&#x2018;" horiz-adv-x="383" 
d="M164 909h4q15 0 15 -15q0 -10 -11 -14q-10 -7 -41 -39q-23 -24 -23 -40q0 -11 13 -17q34 -17 34 -52q0 -16 -9 -33q-26 -40 -61 -40q-14 0 -26 5q-39 15 -39 65q0 51 52 114q42 50 92 66z" />
    <glyph glyph-name="quoteright" unicode="&#x2019;" horiz-adv-x="382" 
d="M39 794h-5q-14 0 -14 15q0 11 11 14l9 8q16 15 32 32q23 25 23 39q0 11 -13 18q-34 15 -34 51q0 16 9 33q24 40 61 40q13 0 25 -5q39 -15 39 -64q0 -52 -52 -115q-42 -50 -91 -66z" />
    <glyph glyph-name="quotesinglbase" unicode="&#x201a;" horiz-adv-x="382" 
d="M39 -185h-5q-14 0 -14 15q0 10 11 13q3 4 8 8q56 49 56 72q0 10 -13 17q-34 16 -34 51q0 16 9 33q23 40 61 40q13 0 25 -5q39 -15 39 -63q0 -53 -52 -115q-42 -50 -91 -66z" />
    <glyph glyph-name="quotedblleft" unicode="&#x201c;" horiz-adv-x="571" 
d="M352 909h4q15 0 15 -15q0 -11 -10 -14q-15 -11 -42 -40q-23 -24 -23 -40q0 -10 13 -16q34 -17 34 -52q0 -16 -9 -33q-24 -40 -61 -40q-13 0 -25 5q-39 15 -39 64q0 52 52 115q42 50 91 66zM164 909h4q14 0 14 -15q0 -11 -10 -14q-14 -10 -42 -39q-23 -24 -23 -41
q0 -10 13 -16q35 -17 35 -51q0 -16 -10 -34q-24 -40 -60 -40q-14 0 -26 5q-39 15 -39 65q0 51 52 114q42 50 92 66z" />
    <glyph glyph-name="quotedblright" unicode="&#x201d;" horiz-adv-x="571" 
d="M39 659h-5q-14 0 -14 15q0 11 10 14q15 11 42 40q23 24 23 40q0 10 -13 16q-34 16 -34 52q0 16 9 33q24 40 61 40q13 0 25 -5q39 -15 39 -64q0 -52 -52 -115q-42 -50 -91 -66zM227 659h-4q-14 0 -14 15q0 11 10 14q14 10 42 39q23 24 23 41q0 10 -13 16q-35 17 -35 51
q0 16 10 34q24 40 60 40q14 0 26 -5q39 -15 39 -66q0 -50 -52 -113q-42 -50 -92 -66z" />
    <glyph glyph-name="quotedblbase" unicode="&#x201e;" horiz-adv-x="571" 
d="M38 -185h-4q-14 0 -14 15q0 10 11 13q3 4 8 8q56 49 56 72q0 10 -13 17q-34 16 -34 51q0 16 9 33q23 40 61 40q13 0 25 -5q39 -15 39 -63q0 -53 -52 -115q-42 -50 -92 -66zM227 -185h-4q-14 0 -14 15q0 10 10 13q12 10 42 40q23 24 23 40q0 10 -13 17q-35 17 -35 50
q0 16 10 34q23 40 60 40q14 0 26 -5q39 -15 39 -65q0 -51 -52 -113q-42 -50 -92 -66z" />
    <glyph glyph-name="t.titl" unicode="&#xe123;" horiz-adv-x="434" 
d="M-23 10q-41 0 -59 37q-8 17 -8 45q0 43 20 112q78 233 365 574l-52 31q-278 178 -501 224q-59 13 -117 13q-66 0 -158 -23.5t-193 -135.5q-90 -104 -90 -214q0 -21 3 -42q22 -118 155 -167q9 -4 9 -13q0 -3 -1.5 -7.5t-5.5 -6.5t-7 -2l-6 1q-58 23 -97 57q-80 72 -80 181
q0 122 98 233q107 118 234 151q68 17 138 17q61 0 124 -13q227 -46 511 -227q24 -15 50 -30l6 -4q99 116 110 116q13 0 21 -12q4 -5 4 -10q0 -3 -3 -7q-38 -42 -88 -111q112 -61 241 -105q147 -50 278 -50q237 0 376 178q33 43 33 104q0 63 -40 135q-61 -24 -131 -37
q-115 -21 -228 -21l-76 1q-120 2 -346 82q-124 43 -230 105q-143 86 -143 173q0 33 17 60q70 110 274 110q135 0 291 -41q137 -37 217 -77q87 -43 166 -103q128 -98 201 -215q69 32 103 82q32 50 32 101q0 105 -100 170q-61 40 -141 40l-33 -1q-5 0 -9.5 4t-4.5 11q0 5 5 11
t42 6q89 0 157 -46q47 -30 76 -74q38 -55 38 -120q0 -59 -37 -119q-38 -56 -113 -90q43 -77 43 -147q0 -69 -39 -122q-147 -190 -393 -190q-252 0 -544 161q-93 -132 -188 -292.5t-147 -286.5q-34 -85 -34 -118q0 -22 18 -22q31 0 120 62q168 115 321 254q5 4 11 4
q15 -2 15 -14q0 -8 -6 -12q-155 -142 -325 -257q-90 -61 -149 -61zM889 1011q199 0 343 54q-71 109 -192 202q-77 59 -162 101q-77 38 -210 74q-149 40 -285 40q-186 0 -248 -95q-12 -23 -12 -44q0 -73 129 -149q103 -60 224.5 -103t202.5 -61.5t210 -18.5z" />
    <glyph glyph-name="Name_Preview" unicode="&#xe219;" horiz-adv-x="7162" 
d="M1657 429q106 185 160 294q-58 67 -118 67q-31 0 -63 -19q-56 -36 -56 -122q0 -106 77 -220zM6809 911q79 56 130 118q94 120 94 225q0 58 -26 106q-57 102 -189 159q-144 63 -322 63q-280 0 -478 -156q214 -54 432 -183q233 -142 359 -332zM6031 708q286 0 496 69
q152 47 259 117q-128 192 -351 324.5t-444 184.5q-93 -83 -146 -210q-3 -9 -12 -9q-3 0 -7.5 2t-6 6t-1.5 6l1 6q51 122 138 205q-115 22 -215 22q-83 0 -156 -15q-124 -24 -209 -77q-111 -69 -148 -162q-16 -39 -16 -79q0 -89 72 -164q78 -81 217 -137q219 -89 529 -89z
M5034 65q27 0 92 46t120 121l4 5q36 99 109 250q0 12 -2 21q-7 34 -27 34q-26 0 -81 -59t-114 -147t-95 -163q-25 -54 -25 -82q0 -26 19 -26zM4321 1011q199 0 343 54q-71 109 -192 202q-77 59 -162 101q-77 38 -210 74q-149 40 -285 40q-186 0 -248 -95q-12 -23 -12 -44
q0 -73 129 -149q103 -60 224.5 -103t202.5 -61.5t210 -18.5zM3076 495q12 15 21 28h1q19 25 25 36q19 32 19 44q-1 7 -6 7q-17 0 -45 -34q-22 -28 -22 -54q0 -12 6 -25zM697 952q271 0 549 70q209 53 373 156q105 69 164 161q-163 35 -329 91q-4 1 -7 3q-138 46 -283 83
q-166 41 -319 41q-242 0 -409 -58t-246 -148q-60 -68 -60 -140q0 -66 57 -123q71 -72 235 -110q114 -26 275 -26zM2015 206q-9 86 -43.5 201t-87.5 217q-79 -141 -166 -271q118 -125 297 -147zM2704 465q-31 -36 -67 -85q30 -8 56 -8q76 0 114 72q21 39 21 77t-18 38
q-10 0 -25 -10q-28 -23 -62 -61q23 -14 51 -24q9 -4 9 -13q0 -3 -1.5 -7.5t-5.5 -6.5t-7 -2l-6 1q-33 13 -59 29zM2656 546q63 56 122 56q36 0 57.5 -23.5t21.5 -64.5t-24 -85q-47 -86 -138 -86q-34 0 -76 12q-46 -66 -77 -129q-36 -71 -36 -113q0 -39 36 -47l12 -1
q64 0 207 116q172 146 294 290l-12 16q-20 33 -20 63q0 58 56 94q25 16 48 16q47 0 47 -44q0 -29 -26 -72l-11 -18q-25 -34 -44 -56q35 -38 73 -56q20 -11 35 -23q18 -15 18 -35q0 -33 -35.5 -79.5t-79.5 -94.5q-77 -80 -77 -104q0 -13 23 -14q92 1 176 72q85 72 195 205
q98 190 306 437l-52 31q-278 178 -501 224q-59 13 -117 13q-66 0 -158 -23.5t-193 -135.5q-90 -104 -90 -214q0 -21 3 -42q9 -48 37 -85zM2487 290q-157 -83 -287 -106l-12 -19q-69 -109 -86 -133q-27 -39 -61 -39q-25 1 -41.5 18t-17.5 42q2 16 13 30q23 34 23 78v14
q-193 23 -317 153q-105 -154 -239 -269t-314 -169h-3q-4 0 -10 3.5t-6 12.5t11 13q157 48 277.5 176.5t222.5 305.5q-90 130 -90 247q0 68 33 113q16 22 37 35q37 22 76 22q16 0 51 -8t88 -54q84 161 178 315t208 282q-117 -34 -236 -34q-87 0 -170 14l-6 -9
q-63 -99 -174 -170q-167 -106 -380 -160q-281 -72 -555 -72q-169 0 -313.5 34.5t-219.5 110.5q-67 66 -67 144q0 83 68 160q83 95 259 156q171 60 418 60q157 0 324 -42q147 -37 287 -84l5 -2q170 -58 338 -93q38 72 38 159q0 139 -112 312q-2 5 -2 8q0 15 14 15q8 0 13 -7
q117 -181 117 -327q0 -90 -37 -165q82 -7 145 -7q52 0 114.5 7t129 41t206.5 130q16 10 33 10q30 0 50 -26q10 -16 10 -34q0 -30 -27 -49q-179 -125 -310 -315t-245 -401l-25 -44q143 -199 182 -427q172 284 466 682q346 469 637 760q293 293 449 293q27 0 81 -20.5
t73 -197.5q0 -16 -16 -16q-12 0 -14 13q-20 185 -116 185q-93 0 -235 -125q-407 -360 -1196 -1601q129 28 283 115q42 91 107 167q12 13 23 25q-49 63 -49 148q0 122 98 233q107 118 234 151q68 17 138 17q61 0 124 -13q227 -46 511 -227q24 -15 50 -30l6 -4q99 116 110 116
q13 0 21 -12q4 -5 4 -10q0 -3 -3 -7q-38 -42 -88 -111q112 -61 241 -105q147 -50 278 -50q237 0 376 178q33 43 33 104q0 63 -40 135q-61 -24 -131 -37q-115 -21 -228 -21l-76 1q-120 2 -346 82q-124 43 -230 105q-143 86 -143 173q0 33 17 60q70 110 274 110q135 0 291 -41
q137 -37 217 -77q87 -43 166 -103q128 -98 201 -215q69 32 103 82q32 50 32 101q0 105 -100 170q-61 40 -141 40l-33 -1q-5 0 -9.5 4t-4.5 11q0 5 5 11t42 6q89 0 157 -46q47 -30 76 -74q38 -55 38 -120q0 -59 -37 -119q-38 -56 -113 -90q43 -77 43 -147q0 -69 -39 -122
q-147 -190 -393 -190q-97 0 -200 24q2 -6 2 -13q0 -15 -10.5 -26t-24.5 -11q-15 0 -25.5 11t-10.5 26t11 26q0 1 1 2q-138 40 -287 122q-93 -132 -188 -292.5t-147 -286.5q-34 -85 -34 -118q0 -22 18 -22q31 0 120 62q168 115 321 254q2 2 5 3q21 28 44 55q66 78 94.5 104.5
t37.5 26.5q16 0 16 -15q0 -12 -3.5 -23t-79.5 -124q-149 -220 -149 -291q0 -40 40 -40q107 0 412 292l21 22q3 3 6 5q22 38 51 78q92 126 107 126q2 0 8.5 -0.5t12.5 -6.5t6 -12q0 -4 -3 -9q-18 -34 -65 -134.5t-91.5 -202.5t-55.5 -141q39 27 183 198q1 3 4 4
q100 123 192 218q82 85 125 85q15 0 26 -10h1v-1q34 -40 34 -93q0 -15 -6 -58q-13 -80 -119 -253q-50 -81 -50 -98q0 -4 2 -6q35 6 348 304l7 7q3 3 6 4q0 1 1 1q51 101 131 164q60 46 128 46q24 0 50 -6q31 -8 41 -39q19 22 45 22q9 0 20 -3q38 -16 38 -53q0 -10 -3.5 -20
t-18.5 -40l-35 -68q-85 -153 -85 -230q0 -16 3 -32q26 -109 162 -161q126 -47 304 -47q14 0 118.5 1.5t311 58.5t372 164.5t239.5 262.5q40 83 40 179q0 157 -91 306q-111 -72 -265 -120q-213 -70 -502 -70q-319 0 -543 91q-144 58 -225.5 143t-81.5 185q1 44 19 89
q42 102 157 174q91 57 221 83q75 15 160 15q112 0 242 -26q111 94 251 136q130 41 263 41q183 0 332 -65q142 -62 203 -172q30 -56 30 -121q0 -22 -9 -79.5t-92 -161.5q-53 -68 -137 -125q98 -160 98 -327q0 -249 -241 -431q-150 -112 -348 -178q-250 -82 -508 -82
q-377 0 -558 170q-40 34 -40 92q0 17 3 35q-42 -46 -85 -78q-72 -49 -114 -49q-20 0 -33 10q-32 27 -32 88q0 17 7 72q3 28 17 67q-261 -260 -330 -262h-3l-1 1q-36 12 -36 56l3 38q7 61 101 257q61 127 61 156q0 13 -8 13q-44 0 -281 -285q-26 -36 -126 -147
q-75 -83 -103 -83q-14 0 -21 16q-21 43 -21 93t33 136q2 4 3 8q-263 -249 -401 -255h-8q-63 0 -86 51q-7 16 -7 38q0 52 39 134q6 11 12 23q-121 -105 -252 -193q-90 -61 -149 -61q-41 0 -59 37q-8 17 -8 45q0 43 20 112q7 20 15 40q-73 -80 -133 -131q-91 -77 -194 -78
q-52 2 -52 43t28.5 99.5t64.5 111.5t57 79q7 9 7 14q0 7 -21.5 18t-59.5 48q-123 -145 -294 -289q-150 -124 -229 -124l-15 1q0 1 -1 1q-77 19 -77 112q0 63 29 141z" />
    </font>
</defs>
</svg>
